<svg xmlns="http://www.w3.org/2000/svg" width="900" height="1100" viewBox="0 0 900 1100">
  <defs>
    <linearGradient id="bg" x1="0" y1="0" x2="0" y2="1">
      <stop offset="0%" stop-color="#f3f0ea" />
      <stop offset="100%" stop-color="#e8ece7" />
    </linearGradient>
    <filter id="shadow" x="-20%" y="-20%" width="140%" height="140%">
      <feDropShadow dx="0" dy="22" stdDeviation="24" flood-color="#6c5d4f" flood-opacity="0.12" />
    </filter>
  </defs>
  <rect width="100%" height="100%" fill="url(#bg)" />
  <circle cx="730" cy="180" r="140" fill="#ffffff" fill-opacity="0.18" />
  <circle cx="150" cy="260" r="90" fill="#ffffff" fill-opacity="0.12" />
  
      <rect x="70" y="72" width="300" height="92" rx="24" fill="#ffffff" fill-opacity="0.34" />
      <text x="98" y="120" fill="#2f3a31" font-size="32" font-family="'PingFang SC','Microsoft YaHei',sans-serif" font-weight="600">白绿场域</text>
      <text x="98" y="152" fill="#4e6152" font-size="18" font-family="'PingFang SC','Microsoft YaHei',sans-serif">沙龙 · 会场</text>
    
  <g filter="url(#shadow)">
    <ellipse cx="450" cy="955" rx="280" ry="90" fill="#d9cec2" fill-opacity="0.55" /><rect x="220" y="820" width="460" height="170" rx="18" fill="#f2ece5" fill-opacity="0.65" />
  </g>
  <g>
    
    <g transform="translate(520.49 553.62) rotate(1.81)">
      <path d="M 0 0 C -8 76.40, 10 127.34, -6 186.76" stroke="#536d57" stroke-width="10.19" fill="none" stroke-linecap="round" />
      <ellipse cx="-20" cy="93.38" rx="18.68" ry="35.65" fill="#536d57" fill-opacity="0.75" transform="rotate(-24)" />
      <ellipse cx="28" cy="115.45" rx="16.98" ry="32.26" fill="#536d57" fill-opacity="0.66" transform="rotate(20)" />
      <g transform="translate(0 0)">
        <ellipse cx="23.77" cy="0.00" rx="15.28" ry="23.77" fill="#f7ede0" fill-opacity="0.95" /><ellipse cx="16.81" cy="16.81" rx="15.28" ry="23.77" fill="#f7ede0" fill-opacity="0.95" /><ellipse cx="0.00" cy="23.77" rx="15.28" ry="23.77" fill="#f7ede0" fill-opacity="0.95" /><ellipse cx="-16.81" cy="16.81" rx="15.28" ry="23.77" fill="#f7ede0" fill-opacity="0.95" /><ellipse cx="-23.77" cy="0.00" rx="15.28" ry="23.77" fill="#f7ede0" fill-opacity="0.95" /><ellipse cx="-16.81" cy="-16.81" rx="15.28" ry="23.77" fill="#f7ede0" fill-opacity="0.95" /><ellipse cx="-0.00" cy="-23.77" rx="15.28" ry="23.77" fill="#f7ede0" fill-opacity="0.95" /><ellipse cx="16.81" cy="-16.81" rx="15.28" ry="23.77" fill="#f7ede0" fill-opacity="0.95" />
        <circle cx="0" cy="0" r="15.28" fill="#8d6959" />
        <circle cx="0" cy="0" r="7.64" fill="#fff7f0" fill-opacity="0.72" />
      </g>
    </g>
    
    <g transform="translate(306.03 374.15) rotate(-23.67)">
      <path d="M 0 0 C -8 82.31, 10 137.19, -6 201.21" stroke="#6f8b70" stroke-width="10.98" fill="none" stroke-linecap="round" />
      <ellipse cx="-20" cy="100.61" rx="20.12" ry="38.41" fill="#6f8b70" fill-opacity="0.75" transform="rotate(-24)" />
      <ellipse cx="28" cy="124.39" rx="18.29" ry="34.76" fill="#6f8b70" fill-opacity="0.66" transform="rotate(20)" />
      <g transform="translate(0 0)">
        <ellipse cx="25.61" cy="0.00" rx="16.46" ry="25.61" fill="#d7cabf" fill-opacity="0.95" /><ellipse cx="18.11" cy="18.11" rx="16.46" ry="25.61" fill="#d7cabf" fill-opacity="0.95" /><ellipse cx="0.00" cy="25.61" rx="16.46" ry="25.61" fill="#d7cabf" fill-opacity="0.95" /><ellipse cx="-18.11" cy="18.11" rx="16.46" ry="25.61" fill="#d7cabf" fill-opacity="0.95" /><ellipse cx="-25.61" cy="0.00" rx="16.46" ry="25.61" fill="#d7cabf" fill-opacity="0.95" /><ellipse cx="-18.11" cy="-18.11" rx="16.46" ry="25.61" fill="#d7cabf" fill-opacity="0.95" /><ellipse cx="-0.00" cy="-25.61" rx="16.46" ry="25.61" fill="#d7cabf" fill-opacity="0.95" /><ellipse cx="18.11" cy="-18.11" rx="16.46" ry="25.61" fill="#d7cabf" fill-opacity="0.95" />
        <circle cx="0" cy="0" r="16.46" fill="#8d6959" />
        <circle cx="0" cy="0" r="8.23" fill="#fff7f0" fill-opacity="0.72" />
      </g>
    </g>
    
    <g transform="translate(199.90 350.58) rotate(-13.96)">
      <path d="M 0 0 C -8 71.34, 10 118.90, -6 174.39" stroke="#8ba08a" stroke-width="9.51" fill="none" stroke-linecap="round" />
      <ellipse cx="-20" cy="87.20" rx="17.44" ry="33.29" fill="#8ba08a" fill-opacity="0.75" transform="rotate(-24)" />
      <ellipse cx="28" cy="107.81" rx="15.85" ry="30.12" fill="#8ba08a" fill-opacity="0.66" transform="rotate(20)" />
      <g transform="translate(0 0)">
        <ellipse cx="22.20" cy="0.00" rx="14.27" ry="22.20" fill="#b58d76" fill-opacity="0.95" /><ellipse cx="15.69" cy="15.69" rx="14.27" ry="22.20" fill="#b58d76" fill-opacity="0.95" /><ellipse cx="0.00" cy="22.20" rx="14.27" ry="22.20" fill="#b58d76" fill-opacity="0.95" /><ellipse cx="-15.69" cy="15.69" rx="14.27" ry="22.20" fill="#b58d76" fill-opacity="0.95" /><ellipse cx="-22.20" cy="0.00" rx="14.27" ry="22.20" fill="#b58d76" fill-opacity="0.95" /><ellipse cx="-15.69" cy="-15.69" rx="14.27" ry="22.20" fill="#b58d76" fill-opacity="0.95" /><ellipse cx="-0.00" cy="-22.20" rx="14.27" ry="22.20" fill="#b58d76" fill-opacity="0.95" /><ellipse cx="15.69" cy="-15.69" rx="14.27" ry="22.20" fill="#b58d76" fill-opacity="0.95" />
        <circle cx="0" cy="0" r="14.27" fill="#8d6959" />
        <circle cx="0" cy="0" r="7.13" fill="#fff7f0" fill-opacity="0.72" />
      </g>
    </g>
    
    <g transform="translate(525.02 412.84) rotate(10.77)">
      <path d="M 0 0 C -8 75.31, 10 125.51, -6 184.08" stroke="#536d57" stroke-width="10.04" fill="none" stroke-linecap="round" />
      <ellipse cx="-20" cy="92.04" rx="18.41" ry="35.14" fill="#536d57" fill-opacity="0.75" transform="rotate(-24)" />
      <ellipse cx="28" cy="113.79" rx="16.73" ry="31.80" fill="#536d57" fill-opacity="0.66" transform="rotate(20)" />
      <g transform="translate(0 0)">
        <ellipse cx="23.43" cy="0.00" rx="15.06" ry="23.43" fill="#f1dccf" fill-opacity="0.95" /><ellipse cx="16.57" cy="16.57" rx="15.06" ry="23.43" fill="#f1dccf" fill-opacity="0.95" /><ellipse cx="0.00" cy="23.43" rx="15.06" ry="23.43" fill="#f1dccf" fill-opacity="0.95" /><ellipse cx="-16.57" cy="16.57" rx="15.06" ry="23.43" fill="#f1dccf" fill-opacity="0.95" /><ellipse cx="-23.43" cy="0.00" rx="15.06" ry="23.43" fill="#f1dccf" fill-opacity="0.95" /><ellipse cx="-16.57" cy="-16.57" rx="15.06" ry="23.43" fill="#f1dccf" fill-opacity="0.95" /><ellipse cx="-0.00" cy="-23.43" rx="15.06" ry="23.43" fill="#f1dccf" fill-opacity="0.95" /><ellipse cx="16.57" cy="-16.57" rx="15.06" ry="23.43" fill="#f1dccf" fill-opacity="0.95" />
        <circle cx="0" cy="0" r="15.06" fill="#8d6959" />
        <circle cx="0" cy="0" r="7.53" fill="#fff7f0" fill-opacity="0.72" />
      </g>
    </g>
    
    <g transform="translate(357.04 478.59) rotate(22.01)">
      <path d="M 0 0 C -8 70.36, 10 117.27, -6 172.00" stroke="#6f8b70" stroke-width="9.38" fill="none" stroke-linecap="round" />
      <ellipse cx="-20" cy="86.00" rx="17.20" ry="32.84" fill="#6f8b70" fill-opacity="0.75" transform="rotate(-24)" />
      <ellipse cx="28" cy="106.33" rx="15.64" ry="29.71" fill="#6f8b70" fill-opacity="0.66" transform="rotate(20)" />
      <g transform="translate(0 0)">
        <ellipse cx="21.89" cy="0.00" rx="14.07" ry="21.89" fill="#f7ede0" fill-opacity="0.95" /><ellipse cx="15.48" cy="15.48" rx="14.07" ry="21.89" fill="#f7ede0" fill-opacity="0.95" /><ellipse cx="0.00" cy="21.89" rx="14.07" ry="21.89" fill="#f7ede0" fill-opacity="0.95" /><ellipse cx="-15.48" cy="15.48" rx="14.07" ry="21.89" fill="#f7ede0" fill-opacity="0.95" /><ellipse cx="-21.89" cy="0.00" rx="14.07" ry="21.89" fill="#f7ede0" fill-opacity="0.95" /><ellipse cx="-15.48" cy="-15.48" rx="14.07" ry="21.89" fill="#f7ede0" fill-opacity="0.95" /><ellipse cx="-0.00" cy="-21.89" rx="14.07" ry="21.89" fill="#f7ede0" fill-opacity="0.95" /><ellipse cx="15.48" cy="-15.48" rx="14.07" ry="21.89" fill="#f7ede0" fill-opacity="0.95" />
        <circle cx="0" cy="0" r="14.07" fill="#8d6959" />
        <circle cx="0" cy="0" r="7.04" fill="#fff7f0" fill-opacity="0.72" />
      </g>
    </g>
    
    <g transform="translate(389.22 536.81) rotate(14.55)">
      <path d="M 0 0 C -8 109.46, 10 182.43, -6 267.56" stroke="#8ba08a" stroke-width="14.59" fill="none" stroke-linecap="round" />
      <ellipse cx="-20" cy="133.78" rx="26.76" ry="51.08" fill="#8ba08a" fill-opacity="0.75" transform="rotate(-24)" />
      <ellipse cx="28" cy="165.40" rx="24.32" ry="46.22" fill="#8ba08a" fill-opacity="0.66" transform="rotate(20)" />
      <g transform="translate(0 0)">
        <ellipse cx="34.05" cy="0.00" rx="21.89" ry="34.05" fill="#d7cabf" fill-opacity="0.95" /><ellipse cx="24.08" cy="24.08" rx="21.89" ry="34.05" fill="#d7cabf" fill-opacity="0.95" /><ellipse cx="0.00" cy="34.05" rx="21.89" ry="34.05" fill="#d7cabf" fill-opacity="0.95" /><ellipse cx="-24.08" cy="24.08" rx="21.89" ry="34.05" fill="#d7cabf" fill-opacity="0.95" /><ellipse cx="-34.05" cy="0.00" rx="21.89" ry="34.05" fill="#d7cabf" fill-opacity="0.95" /><ellipse cx="-24.08" cy="-24.08" rx="21.89" ry="34.05" fill="#d7cabf" fill-opacity="0.95" /><ellipse cx="-0.00" cy="-34.05" rx="21.89" ry="34.05" fill="#d7cabf" fill-opacity="0.95" /><ellipse cx="24.08" cy="-24.08" rx="21.89" ry="34.05" fill="#d7cabf" fill-opacity="0.95" />
        <circle cx="0" cy="0" r="21.89" fill="#8d6959" />
        <circle cx="0" cy="0" r="10.95" fill="#fff7f0" fill-opacity="0.72" />
      </g>
    </g>
    
    <g transform="translate(645.87 506.00) rotate(0.83)">
      <path d="M 0 0 C -8 110.01, 10 183.36, -6 268.92" stroke="#536d57" stroke-width="14.67" fill="none" stroke-linecap="round" />
      <ellipse cx="-20" cy="134.46" rx="26.89" ry="51.34" fill="#536d57" fill-opacity="0.75" transform="rotate(-24)" />
      <ellipse cx="28" cy="166.24" rx="24.45" ry="46.45" fill="#536d57" fill-opacity="0.66" transform="rotate(20)" />
      <g transform="translate(0 0)">
        <ellipse cx="34.23" cy="0.00" rx="22.00" ry="34.23" fill="#b58d76" fill-opacity="0.95" /><ellipse cx="24.20" cy="24.20" rx="22.00" ry="34.23" fill="#b58d76" fill-opacity="0.95" /><ellipse cx="0.00" cy="34.23" rx="22.00" ry="34.23" fill="#b58d76" fill-opacity="0.95" /><ellipse cx="-24.20" cy="24.20" rx="22.00" ry="34.23" fill="#b58d76" fill-opacity="0.95" /><ellipse cx="-34.23" cy="0.00" rx="22.00" ry="34.23" fill="#b58d76" fill-opacity="0.95" /><ellipse cx="-24.20" cy="-24.20" rx="22.00" ry="34.23" fill="#b58d76" fill-opacity="0.95" /><ellipse cx="-0.00" cy="-34.23" rx="22.00" ry="34.23" fill="#b58d76" fill-opacity="0.95" /><ellipse cx="24.20" cy="-24.20" rx="22.00" ry="34.23" fill="#b58d76" fill-opacity="0.95" />
        <circle cx="0" cy="0" r="22.00" fill="#8d6959" />
        <circle cx="0" cy="0" r="11.00" fill="#fff7f0" fill-opacity="0.72" />
      </g>
    </g>
    
  </g>
  <path d="M0 980 C220 920, 420 1030, 900 930 L900 1100 L0 1100 Z" fill="#ffffff" fill-opacity="0.22" />
</svg>
