<svg xmlns="http://www.w3.org/2000/svg" width="900" height="1100" viewBox="0 0 900 1100">
  <defs>
    <linearGradient id="bg" x1="0" y1="0" x2="0" y2="1">
      <stop offset="0%" stop-color="#f3f0ea" />
      <stop offset="100%" stop-color="#e8ece7" />
    </linearGradient>
    <filter id="shadow" x="-20%" y="-20%" width="140%" height="140%">
      <feDropShadow dx="0" dy="22" stdDeviation="24" flood-color="#6c5d4f" flood-opacity="0.12" />
    </filter>
  </defs>
  <rect width="100%" height="100%" fill="url(#bg)" />
  <circle cx="730" cy="180" r="140" fill="#ffffff" fill-opacity="0.18" />
  <circle cx="150" cy="260" r="90" fill="#ffffff" fill-opacity="0.12" />
  
      <rect x="70" y="72" width="300" height="92" rx="24" fill="#ffffff" fill-opacity="0.34" />
      <text x="98" y="120" fill="#2f3a31" font-size="32" font-family="'PingFang SC','Microsoft YaHei',sans-serif" font-weight="600">暮色装置</text>
      <text x="98" y="152" fill="#4e6152" font-size="18" font-family="'PingFang SC','Microsoft YaHei',sans-serif">宴会 · 餐桌花艺</text>
    
  <g filter="url(#shadow)">
    <ellipse cx="450" cy="955" rx="280" ry="90" fill="#d9cec2" fill-opacity="0.55" /><rect x="220" y="820" width="460" height="170" rx="18" fill="#f2ece5" fill-opacity="0.65" />
  </g>
  <g>
    
    <g transform="translate(669.10 485.95) rotate(-12.05)">
      <path d="M 0 0 C -8 102.08, 10 170.13, -6 249.53" stroke="#536d57" stroke-width="13.61" fill="none" stroke-linecap="round" />
      <ellipse cx="-20" cy="124.76" rx="24.95" ry="47.64" fill="#536d57" fill-opacity="0.75" transform="rotate(-24)" />
      <ellipse cx="28" cy="154.25" rx="22.68" ry="43.10" fill="#536d57" fill-opacity="0.66" transform="rotate(20)" />
      <g transform="translate(0 0)">
        <ellipse cx="31.76" cy="0.00" rx="20.42" ry="31.76" fill="#f7ede0" fill-opacity="0.95" /><ellipse cx="22.46" cy="22.46" rx="20.42" ry="31.76" fill="#f7ede0" fill-opacity="0.95" /><ellipse cx="0.00" cy="31.76" rx="20.42" ry="31.76" fill="#f7ede0" fill-opacity="0.95" /><ellipse cx="-22.46" cy="22.46" rx="20.42" ry="31.76" fill="#f7ede0" fill-opacity="0.95" /><ellipse cx="-31.76" cy="0.00" rx="20.42" ry="31.76" fill="#f7ede0" fill-opacity="0.95" /><ellipse cx="-22.46" cy="-22.46" rx="20.42" ry="31.76" fill="#f7ede0" fill-opacity="0.95" /><ellipse cx="-0.00" cy="-31.76" rx="20.42" ry="31.76" fill="#f7ede0" fill-opacity="0.95" /><ellipse cx="22.46" cy="-22.46" rx="20.42" ry="31.76" fill="#f7ede0" fill-opacity="0.95" />
        <circle cx="0" cy="0" r="20.42" fill="#8d6959" />
        <circle cx="0" cy="0" r="10.21" fill="#fff7f0" fill-opacity="0.72" />
      </g>
    </g>
    
    <g transform="translate(346.29 371.89) rotate(-12.87)">
      <path d="M 0 0 C -8 82.52, 10 137.53, -6 201.71" stroke="#6f8b70" stroke-width="11.00" fill="none" stroke-linecap="round" />
      <ellipse cx="-20" cy="100.85" rx="20.17" ry="38.51" fill="#6f8b70" fill-opacity="0.75" transform="rotate(-24)" />
      <ellipse cx="28" cy="124.69" rx="18.34" ry="34.84" fill="#6f8b70" fill-opacity="0.66" transform="rotate(20)" />
      <g transform="translate(0 0)">
        <ellipse cx="25.67" cy="0.00" rx="16.50" ry="25.67" fill="#d7cabf" fill-opacity="0.95" /><ellipse cx="18.15" cy="18.15" rx="16.50" ry="25.67" fill="#d7cabf" fill-opacity="0.95" /><ellipse cx="0.00" cy="25.67" rx="16.50" ry="25.67" fill="#d7cabf" fill-opacity="0.95" /><ellipse cx="-18.15" cy="18.15" rx="16.50" ry="25.67" fill="#d7cabf" fill-opacity="0.95" /><ellipse cx="-25.67" cy="0.00" rx="16.50" ry="25.67" fill="#d7cabf" fill-opacity="0.95" /><ellipse cx="-18.15" cy="-18.15" rx="16.50" ry="25.67" fill="#d7cabf" fill-opacity="0.95" /><ellipse cx="-0.00" cy="-25.67" rx="16.50" ry="25.67" fill="#d7cabf" fill-opacity="0.95" /><ellipse cx="18.15" cy="-18.15" rx="16.50" ry="25.67" fill="#d7cabf" fill-opacity="0.95" />
        <circle cx="0" cy="0" r="16.50" fill="#8d6959" />
        <circle cx="0" cy="0" r="8.25" fill="#fff7f0" fill-opacity="0.72" />
      </g>
    </g>
    
    <g transform="translate(216.57 486.14) rotate(-6.89)">
      <path d="M 0 0 C -8 103.75, 10 172.92, -6 253.62" stroke="#8ba08a" stroke-width="13.83" fill="none" stroke-linecap="round" />
      <ellipse cx="-20" cy="126.81" rx="25.36" ry="48.42" fill="#8ba08a" fill-opacity="0.75" transform="rotate(-24)" />
      <ellipse cx="28" cy="156.78" rx="23.06" ry="43.81" fill="#8ba08a" fill-opacity="0.66" transform="rotate(20)" />
      <g transform="translate(0 0)">
        <ellipse cx="32.28" cy="0.00" rx="20.75" ry="32.28" fill="#b58d76" fill-opacity="0.95" /><ellipse cx="22.82" cy="22.82" rx="20.75" ry="32.28" fill="#b58d76" fill-opacity="0.95" /><ellipse cx="0.00" cy="32.28" rx="20.75" ry="32.28" fill="#b58d76" fill-opacity="0.95" /><ellipse cx="-22.82" cy="22.82" rx="20.75" ry="32.28" fill="#b58d76" fill-opacity="0.95" /><ellipse cx="-32.28" cy="0.00" rx="20.75" ry="32.28" fill="#b58d76" fill-opacity="0.95" /><ellipse cx="-22.82" cy="-22.82" rx="20.75" ry="32.28" fill="#b58d76" fill-opacity="0.95" /><ellipse cx="-0.00" cy="-32.28" rx="20.75" ry="32.28" fill="#b58d76" fill-opacity="0.95" /><ellipse cx="22.82" cy="-22.82" rx="20.75" ry="32.28" fill="#b58d76" fill-opacity="0.95" />
        <circle cx="0" cy="0" r="20.75" fill="#8d6959" />
        <circle cx="0" cy="0" r="10.38" fill="#fff7f0" fill-opacity="0.72" />
      </g>
    </g>
    
    <g transform="translate(274.59 519.97) rotate(-5.84)">
      <path d="M 0 0 C -8 70.57, 10 117.61, -6 172.49" stroke="#536d57" stroke-width="9.41" fill="none" stroke-linecap="round" />
      <ellipse cx="-20" cy="86.25" rx="17.25" ry="32.93" fill="#536d57" fill-opacity="0.75" transform="rotate(-24)" />
      <ellipse cx="28" cy="106.63" rx="15.68" ry="29.79" fill="#536d57" fill-opacity="0.66" transform="rotate(20)" />
      <g transform="translate(0 0)">
        <ellipse cx="21.95" cy="0.00" rx="14.11" ry="21.95" fill="#f1dccf" fill-opacity="0.95" /><ellipse cx="15.52" cy="15.52" rx="14.11" ry="21.95" fill="#f1dccf" fill-opacity="0.95" /><ellipse cx="0.00" cy="21.95" rx="14.11" ry="21.95" fill="#f1dccf" fill-opacity="0.95" /><ellipse cx="-15.52" cy="15.52" rx="14.11" ry="21.95" fill="#f1dccf" fill-opacity="0.95" /><ellipse cx="-21.95" cy="0.00" rx="14.11" ry="21.95" fill="#f1dccf" fill-opacity="0.95" /><ellipse cx="-15.52" cy="-15.52" rx="14.11" ry="21.95" fill="#f1dccf" fill-opacity="0.95" /><ellipse cx="-0.00" cy="-21.95" rx="14.11" ry="21.95" fill="#f1dccf" fill-opacity="0.95" /><ellipse cx="15.52" cy="-15.52" rx="14.11" ry="21.95" fill="#f1dccf" fill-opacity="0.95" />
        <circle cx="0" cy="0" r="14.11" fill="#8d6959" />
        <circle cx="0" cy="0" r="7.06" fill="#fff7f0" fill-opacity="0.72" />
      </g>
    </g>
    
    <g transform="translate(281.51 527.11) rotate(3.91)">
      <path d="M 0 0 C -8 110.32, 10 183.87, -6 269.67" stroke="#6f8b70" stroke-width="14.71" fill="none" stroke-linecap="round" />
      <ellipse cx="-20" cy="134.84" rx="26.97" ry="51.48" fill="#6f8b70" fill-opacity="0.75" transform="rotate(-24)" />
      <ellipse cx="28" cy="166.71" rx="24.52" ry="46.58" fill="#6f8b70" fill-opacity="0.66" transform="rotate(20)" />
      <g transform="translate(0 0)">
        <ellipse cx="34.32" cy="0.00" rx="22.06" ry="34.32" fill="#f7ede0" fill-opacity="0.95" /><ellipse cx="24.27" cy="24.27" rx="22.06" ry="34.32" fill="#f7ede0" fill-opacity="0.95" /><ellipse cx="0.00" cy="34.32" rx="22.06" ry="34.32" fill="#f7ede0" fill-opacity="0.95" /><ellipse cx="-24.27" cy="24.27" rx="22.06" ry="34.32" fill="#f7ede0" fill-opacity="0.95" /><ellipse cx="-34.32" cy="0.00" rx="22.06" ry="34.32" fill="#f7ede0" fill-opacity="0.95" /><ellipse cx="-24.27" cy="-24.27" rx="22.06" ry="34.32" fill="#f7ede0" fill-opacity="0.95" /><ellipse cx="-0.00" cy="-34.32" rx="22.06" ry="34.32" fill="#f7ede0" fill-opacity="0.95" /><ellipse cx="24.27" cy="-24.27" rx="22.06" ry="34.32" fill="#f7ede0" fill-opacity="0.95" />
        <circle cx="0" cy="0" r="22.06" fill="#8d6959" />
        <circle cx="0" cy="0" r="11.03" fill="#fff7f0" fill-opacity="0.72" />
      </g>
    </g>
    
    <g transform="translate(262.05 395.19) rotate(-7.98)">
      <path d="M 0 0 C -8 102.65, 10 171.08, -6 250.91" stroke="#8ba08a" stroke-width="13.69" fill="none" stroke-linecap="round" />
      <ellipse cx="-20" cy="125.46" rx="25.09" ry="47.90" fill="#8ba08a" fill-opacity="0.75" transform="rotate(-24)" />
      <ellipse cx="28" cy="155.11" rx="22.81" ry="43.34" fill="#8ba08a" fill-opacity="0.66" transform="rotate(20)" />
      <g transform="translate(0 0)">
        <ellipse cx="31.93" cy="0.00" rx="20.53" ry="31.93" fill="#d7cabf" fill-opacity="0.95" /><ellipse cx="22.58" cy="22.58" rx="20.53" ry="31.93" fill="#d7cabf" fill-opacity="0.95" /><ellipse cx="0.00" cy="31.93" rx="20.53" ry="31.93" fill="#d7cabf" fill-opacity="0.95" /><ellipse cx="-22.58" cy="22.58" rx="20.53" ry="31.93" fill="#d7cabf" fill-opacity="0.95" /><ellipse cx="-31.93" cy="0.00" rx="20.53" ry="31.93" fill="#d7cabf" fill-opacity="0.95" /><ellipse cx="-22.58" cy="-22.58" rx="20.53" ry="31.93" fill="#d7cabf" fill-opacity="0.95" /><ellipse cx="-0.00" cy="-31.93" rx="20.53" ry="31.93" fill="#d7cabf" fill-opacity="0.95" /><ellipse cx="22.58" cy="-22.58" rx="20.53" ry="31.93" fill="#d7cabf" fill-opacity="0.95" />
        <circle cx="0" cy="0" r="20.53" fill="#8d6959" />
        <circle cx="0" cy="0" r="10.26" fill="#fff7f0" fill-opacity="0.72" />
      </g>
    </g>
    
    <g transform="translate(400.42 481.25) rotate(3.47)">
      <path d="M 0 0 C -8 107.33, 10 178.89, -6 262.37" stroke="#536d57" stroke-width="14.31" fill="none" stroke-linecap="round" />
      <ellipse cx="-20" cy="131.19" rx="26.24" ry="50.09" fill="#536d57" fill-opacity="0.75" transform="rotate(-24)" />
      <ellipse cx="28" cy="162.19" rx="23.85" ry="45.32" fill="#536d57" fill-opacity="0.66" transform="rotate(20)" />
      <g transform="translate(0 0)">
        <ellipse cx="33.39" cy="0.00" rx="21.47" ry="33.39" fill="#b58d76" fill-opacity="0.95" /><ellipse cx="23.61" cy="23.61" rx="21.47" ry="33.39" fill="#b58d76" fill-opacity="0.95" /><ellipse cx="0.00" cy="33.39" rx="21.47" ry="33.39" fill="#b58d76" fill-opacity="0.95" /><ellipse cx="-23.61" cy="23.61" rx="21.47" ry="33.39" fill="#b58d76" fill-opacity="0.95" /><ellipse cx="-33.39" cy="0.00" rx="21.47" ry="33.39" fill="#b58d76" fill-opacity="0.95" /><ellipse cx="-23.61" cy="-23.61" rx="21.47" ry="33.39" fill="#b58d76" fill-opacity="0.95" /><ellipse cx="-0.00" cy="-33.39" rx="21.47" ry="33.39" fill="#b58d76" fill-opacity="0.95" /><ellipse cx="23.61" cy="-23.61" rx="21.47" ry="33.39" fill="#b58d76" fill-opacity="0.95" />
        <circle cx="0" cy="0" r="21.47" fill="#8d6959" />
        <circle cx="0" cy="0" r="10.73" fill="#fff7f0" fill-opacity="0.72" />
      </g>
    </g>
    
    <g transform="translate(506.55 456.84) rotate(3.39)">
      <path d="M 0 0 C -8 99.73, 10 166.21, -6 243.77" stroke="#6f8b70" stroke-width="13.30" fill="none" stroke-linecap="round" />
      <ellipse cx="-20" cy="121.89" rx="24.38" ry="46.54" fill="#6f8b70" fill-opacity="0.75" transform="rotate(-24)" />
      <ellipse cx="28" cy="150.70" rx="22.16" ry="42.11" fill="#6f8b70" fill-opacity="0.66" transform="rotate(20)" />
      <g transform="translate(0 0)">
        <ellipse cx="31.03" cy="0.00" rx="19.95" ry="31.03" fill="#f1dccf" fill-opacity="0.95" /><ellipse cx="21.94" cy="21.94" rx="19.95" ry="31.03" fill="#f1dccf" fill-opacity="0.95" /><ellipse cx="0.00" cy="31.03" rx="19.95" ry="31.03" fill="#f1dccf" fill-opacity="0.95" /><ellipse cx="-21.94" cy="21.94" rx="19.95" ry="31.03" fill="#f1dccf" fill-opacity="0.95" /><ellipse cx="-31.03" cy="0.00" rx="19.95" ry="31.03" fill="#f1dccf" fill-opacity="0.95" /><ellipse cx="-21.94" cy="-21.94" rx="19.95" ry="31.03" fill="#f1dccf" fill-opacity="0.95" /><ellipse cx="-0.00" cy="-31.03" rx="19.95" ry="31.03" fill="#f1dccf" fill-opacity="0.95" /><ellipse cx="21.94" cy="-21.94" rx="19.95" ry="31.03" fill="#f1dccf" fill-opacity="0.95" />
        <circle cx="0" cy="0" r="19.95" fill="#8d6959" />
        <circle cx="0" cy="0" r="9.97" fill="#fff7f0" fill-opacity="0.72" />
      </g>
    </g>
    
  </g>
  <path d="M0 980 C220 920, 420 1030, 900 930 L900 1100 L0 1100 Z" fill="#ffffff" fill-opacity="0.22" />
</svg>
