<svg xmlns="http://www.w3.org/2000/svg" width="900" height="1100" viewBox="0 0 900 1100">
  <defs>
    <linearGradient id="bg" x1="0" y1="0" x2="0" y2="1">
      <stop offset="0%" stop-color="#f3f0ea" />
      <stop offset="100%" stop-color="#e8ece7" />
    </linearGradient>
    <filter id="shadow" x="-20%" y="-20%" width="140%" height="140%">
      <feDropShadow dx="0" dy="22" stdDeviation="24" flood-color="#6c5d4f" flood-opacity="0.12" />
    </filter>
  </defs>
  <rect width="100%" height="100%" fill="url(#bg)" />
  <circle cx="730" cy="180" r="140" fill="#ffffff" fill-opacity="0.18" />
  <circle cx="150" cy="260" r="90" fill="#ffffff" fill-opacity="0.12" />
  
      <rect x="70" y="72" width="300" height="92" rx="24" fill="#ffffff" fill-opacity="0.34" />
      <text x="98" y="120" fill="#2f3a31" font-size="32" font-family="'PingFang SC','Microsoft YaHei',sans-serif" font-weight="600">活动花境</text>
      <text x="98" y="152" fill="#4e6152" font-size="18" font-family="'PingFang SC','Microsoft YaHei',sans-serif">橱窗 · 展陈</text>
    
  <g filter="url(#shadow)">
    <ellipse cx="450" cy="955" rx="280" ry="90" fill="#d9cec2" fill-opacity="0.55" /><rect x="220" y="820" width="460" height="170" rx="18" fill="#f2ece5" fill-opacity="0.65" />
  </g>
  <g>
    
    <g transform="translate(319.83 364.70) rotate(21.41)">
      <path d="M 0 0 C -8 86.72, 10 144.53, -6 211.98" stroke="#536d57" stroke-width="11.56" fill="none" stroke-linecap="round" />
      <ellipse cx="-20" cy="105.99" rx="21.20" ry="40.47" fill="#536d57" fill-opacity="0.75" transform="rotate(-24)" />
      <ellipse cx="28" cy="131.04" rx="19.27" ry="36.62" fill="#536d57" fill-opacity="0.66" transform="rotate(20)" />
      <g transform="translate(0 0)">
        <ellipse cx="26.98" cy="0.00" rx="17.34" ry="26.98" fill="#f7ede0" fill-opacity="0.95" /><ellipse cx="19.08" cy="19.08" rx="17.34" ry="26.98" fill="#f7ede0" fill-opacity="0.95" /><ellipse cx="0.00" cy="26.98" rx="17.34" ry="26.98" fill="#f7ede0" fill-opacity="0.95" /><ellipse cx="-19.08" cy="19.08" rx="17.34" ry="26.98" fill="#f7ede0" fill-opacity="0.95" /><ellipse cx="-26.98" cy="0.00" rx="17.34" ry="26.98" fill="#f7ede0" fill-opacity="0.95" /><ellipse cx="-19.08" cy="-19.08" rx="17.34" ry="26.98" fill="#f7ede0" fill-opacity="0.95" /><ellipse cx="-0.00" cy="-26.98" rx="17.34" ry="26.98" fill="#f7ede0" fill-opacity="0.95" /><ellipse cx="19.08" cy="-19.08" rx="17.34" ry="26.98" fill="#f7ede0" fill-opacity="0.95" />
        <circle cx="0" cy="0" r="17.34" fill="#8d6959" />
        <circle cx="0" cy="0" r="8.67" fill="#fff7f0" fill-opacity="0.72" />
      </g>
    </g>
    
    <g transform="translate(546.73 371.00) rotate(-23.46)">
      <path d="M 0 0 C -8 96.88, 10 161.47, -6 236.82" stroke="#6f8b70" stroke-width="12.92" fill="none" stroke-linecap="round" />
      <ellipse cx="-20" cy="118.41" rx="23.68" ry="45.21" fill="#6f8b70" fill-opacity="0.75" transform="rotate(-24)" />
      <ellipse cx="28" cy="146.40" rx="21.53" ry="40.91" fill="#6f8b70" fill-opacity="0.66" transform="rotate(20)" />
      <g transform="translate(0 0)">
        <ellipse cx="30.14" cy="0.00" rx="19.38" ry="30.14" fill="#d7cabf" fill-opacity="0.95" /><ellipse cx="21.31" cy="21.31" rx="19.38" ry="30.14" fill="#d7cabf" fill-opacity="0.95" /><ellipse cx="0.00" cy="30.14" rx="19.38" ry="30.14" fill="#d7cabf" fill-opacity="0.95" /><ellipse cx="-21.31" cy="21.31" rx="19.38" ry="30.14" fill="#d7cabf" fill-opacity="0.95" /><ellipse cx="-30.14" cy="0.00" rx="19.38" ry="30.14" fill="#d7cabf" fill-opacity="0.95" /><ellipse cx="-21.31" cy="-21.31" rx="19.38" ry="30.14" fill="#d7cabf" fill-opacity="0.95" /><ellipse cx="-0.00" cy="-30.14" rx="19.38" ry="30.14" fill="#d7cabf" fill-opacity="0.95" /><ellipse cx="21.31" cy="-21.31" rx="19.38" ry="30.14" fill="#d7cabf" fill-opacity="0.95" />
        <circle cx="0" cy="0" r="19.38" fill="#8d6959" />
        <circle cx="0" cy="0" r="9.69" fill="#fff7f0" fill-opacity="0.72" />
      </g>
    </g>
    
    <g transform="translate(426.64 551.77) rotate(-15.12)">
      <path d="M 0 0 C -8 95.14, 10 158.56, -6 232.56" stroke="#8ba08a" stroke-width="12.68" fill="none" stroke-linecap="round" />
      <ellipse cx="-20" cy="116.28" rx="23.26" ry="44.40" fill="#8ba08a" fill-opacity="0.75" transform="rotate(-24)" />
      <ellipse cx="28" cy="143.76" rx="21.14" ry="40.17" fill="#8ba08a" fill-opacity="0.66" transform="rotate(20)" />
      <g transform="translate(0 0)">
        <ellipse cx="29.60" cy="0.00" rx="19.03" ry="29.60" fill="#b58d76" fill-opacity="0.95" /><ellipse cx="20.93" cy="20.93" rx="19.03" ry="29.60" fill="#b58d76" fill-opacity="0.95" /><ellipse cx="0.00" cy="29.60" rx="19.03" ry="29.60" fill="#b58d76" fill-opacity="0.95" /><ellipse cx="-20.93" cy="20.93" rx="19.03" ry="29.60" fill="#b58d76" fill-opacity="0.95" /><ellipse cx="-29.60" cy="0.00" rx="19.03" ry="29.60" fill="#b58d76" fill-opacity="0.95" /><ellipse cx="-20.93" cy="-20.93" rx="19.03" ry="29.60" fill="#b58d76" fill-opacity="0.95" /><ellipse cx="-0.00" cy="-29.60" rx="19.03" ry="29.60" fill="#b58d76" fill-opacity="0.95" /><ellipse cx="20.93" cy="-20.93" rx="19.03" ry="29.60" fill="#b58d76" fill-opacity="0.95" />
        <circle cx="0" cy="0" r="19.03" fill="#8d6959" />
        <circle cx="0" cy="0" r="9.51" fill="#fff7f0" fill-opacity="0.72" />
      </g>
    </g>
    
    <g transform="translate(479.68 559.57) rotate(-0.76)">
      <path d="M 0 0 C -8 72.06, 10 120.09, -6 176.13" stroke="#536d57" stroke-width="9.61" fill="none" stroke-linecap="round" />
      <ellipse cx="-20" cy="88.07" rx="17.61" ry="33.63" fill="#536d57" fill-opacity="0.75" transform="rotate(-24)" />
      <ellipse cx="28" cy="108.88" rx="16.01" ry="30.42" fill="#536d57" fill-opacity="0.66" transform="rotate(20)" />
      <g transform="translate(0 0)">
        <ellipse cx="22.42" cy="0.00" rx="14.41" ry="22.42" fill="#f1dccf" fill-opacity="0.95" /><ellipse cx="15.85" cy="15.85" rx="14.41" ry="22.42" fill="#f1dccf" fill-opacity="0.95" /><ellipse cx="0.00" cy="22.42" rx="14.41" ry="22.42" fill="#f1dccf" fill-opacity="0.95" /><ellipse cx="-15.85" cy="15.85" rx="14.41" ry="22.42" fill="#f1dccf" fill-opacity="0.95" /><ellipse cx="-22.42" cy="0.00" rx="14.41" ry="22.42" fill="#f1dccf" fill-opacity="0.95" /><ellipse cx="-15.85" cy="-15.85" rx="14.41" ry="22.42" fill="#f1dccf" fill-opacity="0.95" /><ellipse cx="-0.00" cy="-22.42" rx="14.41" ry="22.42" fill="#f1dccf" fill-opacity="0.95" /><ellipse cx="15.85" cy="-15.85" rx="14.41" ry="22.42" fill="#f1dccf" fill-opacity="0.95" />
        <circle cx="0" cy="0" r="14.41" fill="#8d6959" />
        <circle cx="0" cy="0" r="7.21" fill="#fff7f0" fill-opacity="0.72" />
      </g>
    </g>
    
    <g transform="translate(691.05 327.08) rotate(-20.14)">
      <path d="M 0 0 C -8 107.31, 10 178.84, -6 262.30" stroke="#6f8b70" stroke-width="14.31" fill="none" stroke-linecap="round" />
      <ellipse cx="-20" cy="131.15" rx="26.23" ry="50.08" fill="#6f8b70" fill-opacity="0.75" transform="rotate(-24)" />
      <ellipse cx="28" cy="162.15" rx="23.85" ry="45.31" fill="#6f8b70" fill-opacity="0.66" transform="rotate(20)" />
      <g transform="translate(0 0)">
        <ellipse cx="33.38" cy="0.00" rx="21.46" ry="33.38" fill="#f7ede0" fill-opacity="0.95" /><ellipse cx="23.61" cy="23.61" rx="21.46" ry="33.38" fill="#f7ede0" fill-opacity="0.95" /><ellipse cx="0.00" cy="33.38" rx="21.46" ry="33.38" fill="#f7ede0" fill-opacity="0.95" /><ellipse cx="-23.61" cy="23.61" rx="21.46" ry="33.38" fill="#f7ede0" fill-opacity="0.95" /><ellipse cx="-33.38" cy="0.00" rx="21.46" ry="33.38" fill="#f7ede0" fill-opacity="0.95" /><ellipse cx="-23.61" cy="-23.61" rx="21.46" ry="33.38" fill="#f7ede0" fill-opacity="0.95" /><ellipse cx="-0.00" cy="-33.38" rx="21.46" ry="33.38" fill="#f7ede0" fill-opacity="0.95" /><ellipse cx="23.61" cy="-23.61" rx="21.46" ry="33.38" fill="#f7ede0" fill-opacity="0.95" />
        <circle cx="0" cy="0" r="21.46" fill="#8d6959" />
        <circle cx="0" cy="0" r="10.73" fill="#fff7f0" fill-opacity="0.72" />
      </g>
    </g>
    
    <g transform="translate(467.93 501.83) rotate(21.73)">
      <path d="M 0 0 C -8 76.46, 10 127.44, -6 186.91" stroke="#8ba08a" stroke-width="10.20" fill="none" stroke-linecap="round" />
      <ellipse cx="-20" cy="93.46" rx="18.69" ry="35.68" fill="#8ba08a" fill-opacity="0.75" transform="rotate(-24)" />
      <ellipse cx="28" cy="115.54" rx="16.99" ry="32.28" fill="#8ba08a" fill-opacity="0.66" transform="rotate(20)" />
      <g transform="translate(0 0)">
        <ellipse cx="23.79" cy="0.00" rx="15.29" ry="23.79" fill="#d7cabf" fill-opacity="0.95" /><ellipse cx="16.82" cy="16.82" rx="15.29" ry="23.79" fill="#d7cabf" fill-opacity="0.95" /><ellipse cx="0.00" cy="23.79" rx="15.29" ry="23.79" fill="#d7cabf" fill-opacity="0.95" /><ellipse cx="-16.82" cy="16.82" rx="15.29" ry="23.79" fill="#d7cabf" fill-opacity="0.95" /><ellipse cx="-23.79" cy="0.00" rx="15.29" ry="23.79" fill="#d7cabf" fill-opacity="0.95" /><ellipse cx="-16.82" cy="-16.82" rx="15.29" ry="23.79" fill="#d7cabf" fill-opacity="0.95" /><ellipse cx="-0.00" cy="-23.79" rx="15.29" ry="23.79" fill="#d7cabf" fill-opacity="0.95" /><ellipse cx="16.82" cy="-16.82" rx="15.29" ry="23.79" fill="#d7cabf" fill-opacity="0.95" />
        <circle cx="0" cy="0" r="15.29" fill="#8d6959" />
        <circle cx="0" cy="0" r="7.65" fill="#fff7f0" fill-opacity="0.72" />
      </g>
    </g>
    
    <g transform="translate(528.96 544.43) rotate(10.01)">
      <path d="M 0 0 C -8 80.66, 10 134.44, -6 197.18" stroke="#536d57" stroke-width="10.76" fill="none" stroke-linecap="round" />
      <ellipse cx="-20" cy="98.59" rx="19.72" ry="37.64" fill="#536d57" fill-opacity="0.75" transform="rotate(-24)" />
      <ellipse cx="28" cy="121.89" rx="17.93" ry="34.06" fill="#536d57" fill-opacity="0.66" transform="rotate(20)" />
      <g transform="translate(0 0)">
        <ellipse cx="25.10" cy="0.00" rx="16.13" ry="25.10" fill="#b58d76" fill-opacity="0.95" /><ellipse cx="17.75" cy="17.75" rx="16.13" ry="25.10" fill="#b58d76" fill-opacity="0.95" /><ellipse cx="0.00" cy="25.10" rx="16.13" ry="25.10" fill="#b58d76" fill-opacity="0.95" /><ellipse cx="-17.75" cy="17.75" rx="16.13" ry="25.10" fill="#b58d76" fill-opacity="0.95" /><ellipse cx="-25.10" cy="0.00" rx="16.13" ry="25.10" fill="#b58d76" fill-opacity="0.95" /><ellipse cx="-17.75" cy="-17.75" rx="16.13" ry="25.10" fill="#b58d76" fill-opacity="0.95" /><ellipse cx="-0.00" cy="-25.10" rx="16.13" ry="25.10" fill="#b58d76" fill-opacity="0.95" /><ellipse cx="17.75" cy="-17.75" rx="16.13" ry="25.10" fill="#b58d76" fill-opacity="0.95" />
        <circle cx="0" cy="0" r="16.13" fill="#8d6959" />
        <circle cx="0" cy="0" r="8.07" fill="#fff7f0" fill-opacity="0.72" />
      </g>
    </g>
    
    <g transform="translate(465.00 345.53) rotate(-3.91)">
      <path d="M 0 0 C -8 80.14, 10 133.56, -6 195.89" stroke="#6f8b70" stroke-width="10.68" fill="none" stroke-linecap="round" />
      <ellipse cx="-20" cy="97.94" rx="19.59" ry="37.40" fill="#6f8b70" fill-opacity="0.75" transform="rotate(-24)" />
      <ellipse cx="28" cy="121.09" rx="17.81" ry="33.83" fill="#6f8b70" fill-opacity="0.66" transform="rotate(20)" />
      <g transform="translate(0 0)">
        <ellipse cx="24.93" cy="0.00" rx="16.03" ry="24.93" fill="#f1dccf" fill-opacity="0.95" /><ellipse cx="17.63" cy="17.63" rx="16.03" ry="24.93" fill="#f1dccf" fill-opacity="0.95" /><ellipse cx="0.00" cy="24.93" rx="16.03" ry="24.93" fill="#f1dccf" fill-opacity="0.95" /><ellipse cx="-17.63" cy="17.63" rx="16.03" ry="24.93" fill="#f1dccf" fill-opacity="0.95" /><ellipse cx="-24.93" cy="0.00" rx="16.03" ry="24.93" fill="#f1dccf" fill-opacity="0.95" /><ellipse cx="-17.63" cy="-17.63" rx="16.03" ry="24.93" fill="#f1dccf" fill-opacity="0.95" /><ellipse cx="-0.00" cy="-24.93" rx="16.03" ry="24.93" fill="#f1dccf" fill-opacity="0.95" /><ellipse cx="17.63" cy="-17.63" rx="16.03" ry="24.93" fill="#f1dccf" fill-opacity="0.95" />
        <circle cx="0" cy="0" r="16.03" fill="#8d6959" />
        <circle cx="0" cy="0" r="8.01" fill="#fff7f0" fill-opacity="0.72" />
      </g>
    </g>
    
  </g>
  <path d="M0 980 C220 920, 420 1030, 900 930 L900 1100 L0 1100 Z" fill="#ffffff" fill-opacity="0.22" />
</svg>
