<svg xmlns="http://www.w3.org/2000/svg" width="900" height="1100" viewBox="0 0 900 1100">
  <defs>
    <linearGradient id="bg" x1="0" y1="0" x2="0" y2="1">
      <stop offset="0%" stop-color="#f3f0ea" />
      <stop offset="100%" stop-color="#e8ece7" />
    </linearGradient>
    <filter id="shadow" x="-20%" y="-20%" width="140%" height="140%">
      <feDropShadow dx="0" dy="22" stdDeviation="24" flood-color="#6c5d4f" flood-opacity="0.12" />
    </filter>
  </defs>
  <rect width="100%" height="100%" fill="url(#bg)" />
  <circle cx="730" cy="180" r="140" fill="#ffffff" fill-opacity="0.18" />
  <circle cx="150" cy="260" r="90" fill="#ffffff" fill-opacity="0.12" />
  
      <rect x="70" y="72" width="300" height="92" rx="24" fill="#ffffff" fill-opacity="0.34" />
      <text x="98" y="120" fill="#2f3a31" font-size="32" font-family="'PingFang SC','Microsoft YaHei',sans-serif" font-weight="600">展台微光</text>
      <text x="98" y="152" fill="#4e6152" font-size="18" font-family="'PingFang SC','Microsoft YaHei',sans-serif">沙龙 · 会场</text>
    
  <g filter="url(#shadow)">
    <ellipse cx="450" cy="955" rx="280" ry="90" fill="#d9cec2" fill-opacity="0.55" /><rect x="220" y="820" width="460" height="170" rx="18" fill="#f2ece5" fill-opacity="0.65" />
  </g>
  <g>
    
    <g transform="translate(501.43 386.56) rotate(-6.18)">
      <path d="M 0 0 C -8 90.95, 10 151.58, -6 222.31" stroke="#536d57" stroke-width="12.13" fill="none" stroke-linecap="round" />
      <ellipse cx="-20" cy="111.16" rx="22.23" ry="42.44" fill="#536d57" fill-opacity="0.75" transform="rotate(-24)" />
      <ellipse cx="28" cy="137.43" rx="20.21" ry="38.40" fill="#536d57" fill-opacity="0.66" transform="rotate(20)" />
      <g transform="translate(0 0)">
        <ellipse cx="28.29" cy="0.00" rx="18.19" ry="28.29" fill="#f7ede0" fill-opacity="0.95" /><ellipse cx="20.01" cy="20.01" rx="18.19" ry="28.29" fill="#f7ede0" fill-opacity="0.95" /><ellipse cx="0.00" cy="28.29" rx="18.19" ry="28.29" fill="#f7ede0" fill-opacity="0.95" /><ellipse cx="-20.01" cy="20.01" rx="18.19" ry="28.29" fill="#f7ede0" fill-opacity="0.95" /><ellipse cx="-28.29" cy="0.00" rx="18.19" ry="28.29" fill="#f7ede0" fill-opacity="0.95" /><ellipse cx="-20.01" cy="-20.01" rx="18.19" ry="28.29" fill="#f7ede0" fill-opacity="0.95" /><ellipse cx="-0.00" cy="-28.29" rx="18.19" ry="28.29" fill="#f7ede0" fill-opacity="0.95" /><ellipse cx="20.01" cy="-20.01" rx="18.19" ry="28.29" fill="#f7ede0" fill-opacity="0.95" />
        <circle cx="0" cy="0" r="18.19" fill="#8d6959" />
        <circle cx="0" cy="0" r="9.09" fill="#fff7f0" fill-opacity="0.72" />
      </g>
    </g>
    
    <g transform="translate(449.87 441.14) rotate(-24.47)">
      <path d="M 0 0 C -8 74.83, 10 124.72, -6 182.92" stroke="#6f8b70" stroke-width="9.98" fill="none" stroke-linecap="round" />
      <ellipse cx="-20" cy="91.46" rx="18.29" ry="34.92" fill="#6f8b70" fill-opacity="0.75" transform="rotate(-24)" />
      <ellipse cx="28" cy="113.08" rx="16.63" ry="31.59" fill="#6f8b70" fill-opacity="0.66" transform="rotate(20)" />
      <g transform="translate(0 0)">
        <ellipse cx="23.28" cy="0.00" rx="14.97" ry="23.28" fill="#d7cabf" fill-opacity="0.95" /><ellipse cx="16.46" cy="16.46" rx="14.97" ry="23.28" fill="#d7cabf" fill-opacity="0.95" /><ellipse cx="0.00" cy="23.28" rx="14.97" ry="23.28" fill="#d7cabf" fill-opacity="0.95" /><ellipse cx="-16.46" cy="16.46" rx="14.97" ry="23.28" fill="#d7cabf" fill-opacity="0.95" /><ellipse cx="-23.28" cy="0.00" rx="14.97" ry="23.28" fill="#d7cabf" fill-opacity="0.95" /><ellipse cx="-16.46" cy="-16.46" rx="14.97" ry="23.28" fill="#d7cabf" fill-opacity="0.95" /><ellipse cx="-0.00" cy="-23.28" rx="14.97" ry="23.28" fill="#d7cabf" fill-opacity="0.95" /><ellipse cx="16.46" cy="-16.46" rx="14.97" ry="23.28" fill="#d7cabf" fill-opacity="0.95" />
        <circle cx="0" cy="0" r="14.97" fill="#8d6959" />
        <circle cx="0" cy="0" r="7.48" fill="#fff7f0" fill-opacity="0.72" />
      </g>
    </g>
    
    <g transform="translate(665.98 410.99) rotate(25.62)">
      <path d="M 0 0 C -8 94.10, 10 156.83, -6 230.02" stroke="#8ba08a" stroke-width="12.55" fill="none" stroke-linecap="round" />
      <ellipse cx="-20" cy="115.01" rx="23.00" ry="43.91" fill="#8ba08a" fill-opacity="0.75" transform="rotate(-24)" />
      <ellipse cx="28" cy="142.19" rx="20.91" ry="39.73" fill="#8ba08a" fill-opacity="0.66" transform="rotate(20)" />
      <g transform="translate(0 0)">
        <ellipse cx="29.27" cy="0.00" rx="18.82" ry="29.27" fill="#b58d76" fill-opacity="0.95" /><ellipse cx="20.70" cy="20.70" rx="18.82" ry="29.27" fill="#b58d76" fill-opacity="0.95" /><ellipse cx="0.00" cy="29.27" rx="18.82" ry="29.27" fill="#b58d76" fill-opacity="0.95" /><ellipse cx="-20.70" cy="20.70" rx="18.82" ry="29.27" fill="#b58d76" fill-opacity="0.95" /><ellipse cx="-29.27" cy="0.00" rx="18.82" ry="29.27" fill="#b58d76" fill-opacity="0.95" /><ellipse cx="-20.70" cy="-20.70" rx="18.82" ry="29.27" fill="#b58d76" fill-opacity="0.95" /><ellipse cx="-0.00" cy="-29.27" rx="18.82" ry="29.27" fill="#b58d76" fill-opacity="0.95" /><ellipse cx="20.70" cy="-20.70" rx="18.82" ry="29.27" fill="#b58d76" fill-opacity="0.95" />
        <circle cx="0" cy="0" r="18.82" fill="#8d6959" />
        <circle cx="0" cy="0" r="9.41" fill="#fff7f0" fill-opacity="0.72" />
      </g>
    </g>
    
    <g transform="translate(551.57 392.86) rotate(24.18)">
      <path d="M 0 0 C -8 89.90, 10 149.83, -6 219.76" stroke="#536d57" stroke-width="11.99" fill="none" stroke-linecap="round" />
      <ellipse cx="-20" cy="109.88" rx="21.98" ry="41.95" fill="#536d57" fill-opacity="0.75" transform="rotate(-24)" />
      <ellipse cx="28" cy="135.85" rx="19.98" ry="37.96" fill="#536d57" fill-opacity="0.66" transform="rotate(20)" />
      <g transform="translate(0 0)">
        <ellipse cx="27.97" cy="0.00" rx="17.98" ry="27.97" fill="#f1dccf" fill-opacity="0.95" /><ellipse cx="19.78" cy="19.78" rx="17.98" ry="27.97" fill="#f1dccf" fill-opacity="0.95" /><ellipse cx="0.00" cy="27.97" rx="17.98" ry="27.97" fill="#f1dccf" fill-opacity="0.95" /><ellipse cx="-19.78" cy="19.78" rx="17.98" ry="27.97" fill="#f1dccf" fill-opacity="0.95" /><ellipse cx="-27.97" cy="0.00" rx="17.98" ry="27.97" fill="#f1dccf" fill-opacity="0.95" /><ellipse cx="-19.78" cy="-19.78" rx="17.98" ry="27.97" fill="#f1dccf" fill-opacity="0.95" /><ellipse cx="-0.00" cy="-27.97" rx="17.98" ry="27.97" fill="#f1dccf" fill-opacity="0.95" /><ellipse cx="19.78" cy="-19.78" rx="17.98" ry="27.97" fill="#f1dccf" fill-opacity="0.95" />
        <circle cx="0" cy="0" r="17.98" fill="#8d6959" />
        <circle cx="0" cy="0" r="8.99" fill="#fff7f0" fill-opacity="0.72" />
      </g>
    </g>
    
    <g transform="translate(538.01 382.15) rotate(-5.03)">
      <path d="M 0 0 C -8 92.36, 10 153.93, -6 225.76" stroke="#6f8b70" stroke-width="12.31" fill="none" stroke-linecap="round" />
      <ellipse cx="-20" cy="112.88" rx="22.58" ry="43.10" fill="#6f8b70" fill-opacity="0.75" transform="rotate(-24)" />
      <ellipse cx="28" cy="139.56" rx="20.52" ry="39.00" fill="#6f8b70" fill-opacity="0.66" transform="rotate(20)" />
      <g transform="translate(0 0)">
        <ellipse cx="28.73" cy="0.00" rx="18.47" ry="28.73" fill="#f7ede0" fill-opacity="0.95" /><ellipse cx="20.32" cy="20.32" rx="18.47" ry="28.73" fill="#f7ede0" fill-opacity="0.95" /><ellipse cx="0.00" cy="28.73" rx="18.47" ry="28.73" fill="#f7ede0" fill-opacity="0.95" /><ellipse cx="-20.32" cy="20.32" rx="18.47" ry="28.73" fill="#f7ede0" fill-opacity="0.95" /><ellipse cx="-28.73" cy="0.00" rx="18.47" ry="28.73" fill="#f7ede0" fill-opacity="0.95" /><ellipse cx="-20.32" cy="-20.32" rx="18.47" ry="28.73" fill="#f7ede0" fill-opacity="0.95" /><ellipse cx="-0.00" cy="-28.73" rx="18.47" ry="28.73" fill="#f7ede0" fill-opacity="0.95" /><ellipse cx="20.32" cy="-20.32" rx="18.47" ry="28.73" fill="#f7ede0" fill-opacity="0.95" />
        <circle cx="0" cy="0" r="18.47" fill="#8d6959" />
        <circle cx="0" cy="0" r="9.24" fill="#fff7f0" fill-opacity="0.72" />
      </g>
    </g>
    
    <g transform="translate(263.15 509.01) rotate(4.69)">
      <path d="M 0 0 C -8 102.65, 10 171.08, -6 250.91" stroke="#8ba08a" stroke-width="13.69" fill="none" stroke-linecap="round" />
      <ellipse cx="-20" cy="125.46" rx="25.09" ry="47.90" fill="#8ba08a" fill-opacity="0.75" transform="rotate(-24)" />
      <ellipse cx="28" cy="155.11" rx="22.81" ry="43.34" fill="#8ba08a" fill-opacity="0.66" transform="rotate(20)" />
      <g transform="translate(0 0)">
        <ellipse cx="31.93" cy="0.00" rx="20.53" ry="31.93" fill="#d7cabf" fill-opacity="0.95" /><ellipse cx="22.58" cy="22.58" rx="20.53" ry="31.93" fill="#d7cabf" fill-opacity="0.95" /><ellipse cx="0.00" cy="31.93" rx="20.53" ry="31.93" fill="#d7cabf" fill-opacity="0.95" /><ellipse cx="-22.58" cy="22.58" rx="20.53" ry="31.93" fill="#d7cabf" fill-opacity="0.95" /><ellipse cx="-31.93" cy="0.00" rx="20.53" ry="31.93" fill="#d7cabf" fill-opacity="0.95" /><ellipse cx="-22.58" cy="-22.58" rx="20.53" ry="31.93" fill="#d7cabf" fill-opacity="0.95" /><ellipse cx="-0.00" cy="-31.93" rx="20.53" ry="31.93" fill="#d7cabf" fill-opacity="0.95" /><ellipse cx="22.58" cy="-22.58" rx="20.53" ry="31.93" fill="#d7cabf" fill-opacity="0.95" />
        <circle cx="0" cy="0" r="20.53" fill="#8d6959" />
        <circle cx="0" cy="0" r="10.26" fill="#fff7f0" fill-opacity="0.72" />
      </g>
    </g>
    
    <g transform="translate(482.18 330.36) rotate(-20.50)">
      <path d="M 0 0 C -8 108.67, 10 181.12, -6 265.64" stroke="#536d57" stroke-width="14.49" fill="none" stroke-linecap="round" />
      <ellipse cx="-20" cy="132.82" rx="26.56" ry="50.71" fill="#536d57" fill-opacity="0.75" transform="rotate(-24)" />
      <ellipse cx="28" cy="164.21" rx="24.15" ry="45.88" fill="#536d57" fill-opacity="0.66" transform="rotate(20)" />
      <g transform="translate(0 0)">
        <ellipse cx="33.81" cy="0.00" rx="21.73" ry="33.81" fill="#b58d76" fill-opacity="0.95" /><ellipse cx="23.91" cy="23.91" rx="21.73" ry="33.81" fill="#b58d76" fill-opacity="0.95" /><ellipse cx="0.00" cy="33.81" rx="21.73" ry="33.81" fill="#b58d76" fill-opacity="0.95" /><ellipse cx="-23.91" cy="23.91" rx="21.73" ry="33.81" fill="#b58d76" fill-opacity="0.95" /><ellipse cx="-33.81" cy="0.00" rx="21.73" ry="33.81" fill="#b58d76" fill-opacity="0.95" /><ellipse cx="-23.91" cy="-23.91" rx="21.73" ry="33.81" fill="#b58d76" fill-opacity="0.95" /><ellipse cx="-0.00" cy="-33.81" rx="21.73" ry="33.81" fill="#b58d76" fill-opacity="0.95" /><ellipse cx="23.91" cy="-23.91" rx="21.73" ry="33.81" fill="#b58d76" fill-opacity="0.95" />
        <circle cx="0" cy="0" r="21.73" fill="#8d6959" />
        <circle cx="0" cy="0" r="10.87" fill="#fff7f0" fill-opacity="0.72" />
      </g>
    </g>
    
    <g transform="translate(556.46 389.02) rotate(21.65)">
      <path d="M 0 0 C -8 114.50, 10 190.84, -6 279.90" stroke="#6f8b70" stroke-width="15.27" fill="none" stroke-linecap="round" />
      <ellipse cx="-20" cy="139.95" rx="27.99" ry="53.44" fill="#6f8b70" fill-opacity="0.75" transform="rotate(-24)" />
      <ellipse cx="28" cy="173.03" rx="25.45" ry="48.35" fill="#6f8b70" fill-opacity="0.66" transform="rotate(20)" />
      <g transform="translate(0 0)">
        <ellipse cx="35.62" cy="0.00" rx="22.90" ry="35.62" fill="#f1dccf" fill-opacity="0.95" /><ellipse cx="25.19" cy="25.19" rx="22.90" ry="35.62" fill="#f1dccf" fill-opacity="0.95" /><ellipse cx="0.00" cy="35.62" rx="22.90" ry="35.62" fill="#f1dccf" fill-opacity="0.95" /><ellipse cx="-25.19" cy="25.19" rx="22.90" ry="35.62" fill="#f1dccf" fill-opacity="0.95" /><ellipse cx="-35.62" cy="0.00" rx="22.90" ry="35.62" fill="#f1dccf" fill-opacity="0.95" /><ellipse cx="-25.19" cy="-25.19" rx="22.90" ry="35.62" fill="#f1dccf" fill-opacity="0.95" /><ellipse cx="-0.00" cy="-35.62" rx="22.90" ry="35.62" fill="#f1dccf" fill-opacity="0.95" /><ellipse cx="25.19" cy="-25.19" rx="22.90" ry="35.62" fill="#f1dccf" fill-opacity="0.95" />
        <circle cx="0" cy="0" r="22.90" fill="#8d6959" />
        <circle cx="0" cy="0" r="11.45" fill="#fff7f0" fill-opacity="0.72" />
      </g>
    </g>
    
  </g>
  <path d="M0 980 C220 920, 420 1030, 900 930 L900 1100 L0 1100 Z" fill="#ffffff" fill-opacity="0.22" />
</svg>
