<svg xmlns="http://www.w3.org/2000/svg" width="900" height="1100" viewBox="0 0 900 1100">
  <defs>
    <linearGradient id="bg" x1="0" y1="0" x2="0" y2="1">
      <stop offset="0%" stop-color="#f3f0ea" />
      <stop offset="100%" stop-color="#e8ece7" />
    </linearGradient>
    <filter id="shadow" x="-20%" y="-20%" width="140%" height="140%">
      <feDropShadow dx="0" dy="22" stdDeviation="24" flood-color="#6c5d4f" flood-opacity="0.12" />
    </filter>
  </defs>
  <rect width="100%" height="100%" fill="url(#bg)" />
  <circle cx="730" cy="180" r="140" fill="#ffffff" fill-opacity="0.18" />
  <circle cx="150" cy="260" r="90" fill="#ffffff" fill-opacity="0.12" />
  
      <rect x="70" y="72" width="300" height="92" rx="24" fill="#ffffff" fill-opacity="0.34" />
      <text x="98" y="120" fill="#2f3a31" font-size="32" font-family="'PingFang SC','Microsoft YaHei',sans-serif" font-weight="600">枝影陈设</text>
      <text x="98" y="152" fill="#4e6152" font-size="18" font-family="'PingFang SC','Microsoft YaHei',sans-serif">橱窗 · 展陈</text>
    
  <g filter="url(#shadow)">
    <ellipse cx="450" cy="955" rx="280" ry="90" fill="#d9cec2" fill-opacity="0.55" /><rect x="220" y="820" width="460" height="170" rx="18" fill="#f2ece5" fill-opacity="0.65" />
  </g>
  <g>
    
    <g transform="translate(431.57 453.73) rotate(0.60)">
      <path d="M 0 0 C -8 110.87, 10 184.78, -6 271.01" stroke="#536d57" stroke-width="14.78" fill="none" stroke-linecap="round" />
      <ellipse cx="-20" cy="135.51" rx="27.10" ry="51.74" fill="#536d57" fill-opacity="0.75" transform="rotate(-24)" />
      <ellipse cx="28" cy="167.53" rx="24.64" ry="46.81" fill="#536d57" fill-opacity="0.66" transform="rotate(20)" />
      <g transform="translate(0 0)">
        <ellipse cx="34.49" cy="0.00" rx="22.17" ry="34.49" fill="#f7ede0" fill-opacity="0.95" /><ellipse cx="24.39" cy="24.39" rx="22.17" ry="34.49" fill="#f7ede0" fill-opacity="0.95" /><ellipse cx="0.00" cy="34.49" rx="22.17" ry="34.49" fill="#f7ede0" fill-opacity="0.95" /><ellipse cx="-24.39" cy="24.39" rx="22.17" ry="34.49" fill="#f7ede0" fill-opacity="0.95" /><ellipse cx="-34.49" cy="0.00" rx="22.17" ry="34.49" fill="#f7ede0" fill-opacity="0.95" /><ellipse cx="-24.39" cy="-24.39" rx="22.17" ry="34.49" fill="#f7ede0" fill-opacity="0.95" /><ellipse cx="-0.00" cy="-34.49" rx="22.17" ry="34.49" fill="#f7ede0" fill-opacity="0.95" /><ellipse cx="24.39" cy="-24.39" rx="22.17" ry="34.49" fill="#f7ede0" fill-opacity="0.95" />
        <circle cx="0" cy="0" r="22.17" fill="#8d6959" />
        <circle cx="0" cy="0" r="11.09" fill="#fff7f0" fill-opacity="0.72" />
      </g>
    </g>
    
    <g transform="translate(547.18 397.84) rotate(-19.08)">
      <path d="M 0 0 C -8 113.45, 10 189.08, -6 277.32" stroke="#6f8b70" stroke-width="15.13" fill="none" stroke-linecap="round" />
      <ellipse cx="-20" cy="138.66" rx="27.73" ry="52.94" fill="#6f8b70" fill-opacity="0.75" transform="rotate(-24)" />
      <ellipse cx="28" cy="171.43" rx="25.21" ry="47.90" fill="#6f8b70" fill-opacity="0.66" transform="rotate(20)" />
      <g transform="translate(0 0)">
        <ellipse cx="35.30" cy="0.00" rx="22.69" ry="35.30" fill="#d7cabf" fill-opacity="0.95" /><ellipse cx="24.96" cy="24.96" rx="22.69" ry="35.30" fill="#d7cabf" fill-opacity="0.95" /><ellipse cx="0.00" cy="35.30" rx="22.69" ry="35.30" fill="#d7cabf" fill-opacity="0.95" /><ellipse cx="-24.96" cy="24.96" rx="22.69" ry="35.30" fill="#d7cabf" fill-opacity="0.95" /><ellipse cx="-35.30" cy="0.00" rx="22.69" ry="35.30" fill="#d7cabf" fill-opacity="0.95" /><ellipse cx="-24.96" cy="-24.96" rx="22.69" ry="35.30" fill="#d7cabf" fill-opacity="0.95" /><ellipse cx="-0.00" cy="-35.30" rx="22.69" ry="35.30" fill="#d7cabf" fill-opacity="0.95" /><ellipse cx="24.96" cy="-24.96" rx="22.69" ry="35.30" fill="#d7cabf" fill-opacity="0.95" />
        <circle cx="0" cy="0" r="22.69" fill="#8d6959" />
        <circle cx="0" cy="0" r="11.34" fill="#fff7f0" fill-opacity="0.72" />
      </g>
    </g>
    
    <g transform="translate(478.95 494.89) rotate(-12.04)">
      <path d="M 0 0 C -8 88.71, 10 147.85, -6 216.84" stroke="#8ba08a" stroke-width="11.83" fill="none" stroke-linecap="round" />
      <ellipse cx="-20" cy="108.42" rx="21.68" ry="41.40" fill="#8ba08a" fill-opacity="0.75" transform="rotate(-24)" />
      <ellipse cx="28" cy="134.05" rx="19.71" ry="37.45" fill="#8ba08a" fill-opacity="0.66" transform="rotate(20)" />
      <g transform="translate(0 0)">
        <ellipse cx="27.60" cy="0.00" rx="17.74" ry="27.60" fill="#b58d76" fill-opacity="0.95" /><ellipse cx="19.51" cy="19.51" rx="17.74" ry="27.60" fill="#b58d76" fill-opacity="0.95" /><ellipse cx="0.00" cy="27.60" rx="17.74" ry="27.60" fill="#b58d76" fill-opacity="0.95" /><ellipse cx="-19.51" cy="19.51" rx="17.74" ry="27.60" fill="#b58d76" fill-opacity="0.95" /><ellipse cx="-27.60" cy="0.00" rx="17.74" ry="27.60" fill="#b58d76" fill-opacity="0.95" /><ellipse cx="-19.51" cy="-19.51" rx="17.74" ry="27.60" fill="#b58d76" fill-opacity="0.95" /><ellipse cx="-0.00" cy="-27.60" rx="17.74" ry="27.60" fill="#b58d76" fill-opacity="0.95" /><ellipse cx="19.51" cy="-19.51" rx="17.74" ry="27.60" fill="#b58d76" fill-opacity="0.95" />
        <circle cx="0" cy="0" r="17.74" fill="#8d6959" />
        <circle cx="0" cy="0" r="8.87" fill="#fff7f0" fill-opacity="0.72" />
      </g>
    </g>
    
    <g transform="translate(632.12 354.45) rotate(-14.71)">
      <path d="M 0 0 C -8 94.85, 10 158.08, -6 231.84" stroke="#536d57" stroke-width="12.65" fill="none" stroke-linecap="round" />
      <ellipse cx="-20" cy="115.92" rx="23.18" ry="44.26" fill="#536d57" fill-opacity="0.75" transform="rotate(-24)" />
      <ellipse cx="28" cy="143.32" rx="21.08" ry="40.05" fill="#536d57" fill-opacity="0.66" transform="rotate(20)" />
      <g transform="translate(0 0)">
        <ellipse cx="29.51" cy="0.00" rx="18.97" ry="29.51" fill="#f1dccf" fill-opacity="0.95" /><ellipse cx="20.86" cy="20.86" rx="18.97" ry="29.51" fill="#f1dccf" fill-opacity="0.95" /><ellipse cx="0.00" cy="29.51" rx="18.97" ry="29.51" fill="#f1dccf" fill-opacity="0.95" /><ellipse cx="-20.86" cy="20.86" rx="18.97" ry="29.51" fill="#f1dccf" fill-opacity="0.95" /><ellipse cx="-29.51" cy="0.00" rx="18.97" ry="29.51" fill="#f1dccf" fill-opacity="0.95" /><ellipse cx="-20.86" cy="-20.86" rx="18.97" ry="29.51" fill="#f1dccf" fill-opacity="0.95" /><ellipse cx="-0.00" cy="-29.51" rx="18.97" ry="29.51" fill="#f1dccf" fill-opacity="0.95" /><ellipse cx="20.86" cy="-20.86" rx="18.97" ry="29.51" fill="#f1dccf" fill-opacity="0.95" />
        <circle cx="0" cy="0" r="18.97" fill="#8d6959" />
        <circle cx="0" cy="0" r="9.48" fill="#fff7f0" fill-opacity="0.72" />
      </g>
    </g>
    
    <g transform="translate(572.15 458.66) rotate(-16.98)">
      <path d="M 0 0 C -8 80.51, 10 134.19, -6 196.81" stroke="#6f8b70" stroke-width="10.74" fill="none" stroke-linecap="round" />
      <ellipse cx="-20" cy="98.40" rx="19.68" ry="37.57" fill="#6f8b70" fill-opacity="0.75" transform="rotate(-24)" />
      <ellipse cx="28" cy="121.66" rx="17.89" ry="33.99" fill="#6f8b70" fill-opacity="0.66" transform="rotate(20)" />
      <g transform="translate(0 0)">
        <ellipse cx="25.05" cy="0.00" rx="16.10" ry="25.05" fill="#f7ede0" fill-opacity="0.95" /><ellipse cx="17.71" cy="17.71" rx="16.10" ry="25.05" fill="#f7ede0" fill-opacity="0.95" /><ellipse cx="0.00" cy="25.05" rx="16.10" ry="25.05" fill="#f7ede0" fill-opacity="0.95" /><ellipse cx="-17.71" cy="17.71" rx="16.10" ry="25.05" fill="#f7ede0" fill-opacity="0.95" /><ellipse cx="-25.05" cy="0.00" rx="16.10" ry="25.05" fill="#f7ede0" fill-opacity="0.95" /><ellipse cx="-17.71" cy="-17.71" rx="16.10" ry="25.05" fill="#f7ede0" fill-opacity="0.95" /><ellipse cx="-0.00" cy="-25.05" rx="16.10" ry="25.05" fill="#f7ede0" fill-opacity="0.95" /><ellipse cx="17.71" cy="-17.71" rx="16.10" ry="25.05" fill="#f7ede0" fill-opacity="0.95" />
        <circle cx="0" cy="0" r="16.10" fill="#8d6959" />
        <circle cx="0" cy="0" r="8.05" fill="#fff7f0" fill-opacity="0.72" />
      </g>
    </g>
    
    <g transform="translate(272.55 426.57) rotate(-9.72)">
      <path d="M 0 0 C -8 78.44, 10 130.73, -6 191.74" stroke="#8ba08a" stroke-width="10.46" fill="none" stroke-linecap="round" />
      <ellipse cx="-20" cy="95.87" rx="19.17" ry="36.61" fill="#8ba08a" fill-opacity="0.75" transform="rotate(-24)" />
      <ellipse cx="28" cy="118.53" rx="17.43" ry="33.12" fill="#8ba08a" fill-opacity="0.66" transform="rotate(20)" />
      <g transform="translate(0 0)">
        <ellipse cx="24.40" cy="0.00" rx="15.69" ry="24.40" fill="#d7cabf" fill-opacity="0.95" /><ellipse cx="17.26" cy="17.26" rx="15.69" ry="24.40" fill="#d7cabf" fill-opacity="0.95" /><ellipse cx="0.00" cy="24.40" rx="15.69" ry="24.40" fill="#d7cabf" fill-opacity="0.95" /><ellipse cx="-17.26" cy="17.26" rx="15.69" ry="24.40" fill="#d7cabf" fill-opacity="0.95" /><ellipse cx="-24.40" cy="0.00" rx="15.69" ry="24.40" fill="#d7cabf" fill-opacity="0.95" /><ellipse cx="-17.26" cy="-17.26" rx="15.69" ry="24.40" fill="#d7cabf" fill-opacity="0.95" /><ellipse cx="-0.00" cy="-24.40" rx="15.69" ry="24.40" fill="#d7cabf" fill-opacity="0.95" /><ellipse cx="17.26" cy="-17.26" rx="15.69" ry="24.40" fill="#d7cabf" fill-opacity="0.95" />
        <circle cx="0" cy="0" r="15.69" fill="#8d6959" />
        <circle cx="0" cy="0" r="7.84" fill="#fff7f0" fill-opacity="0.72" />
      </g>
    </g>
    
    <g transform="translate(564.03 437.76) rotate(-6.19)">
      <path d="M 0 0 C -8 91.42, 10 152.36, -6 223.46" stroke="#536d57" stroke-width="12.19" fill="none" stroke-linecap="round" />
      <ellipse cx="-20" cy="111.73" rx="22.35" ry="42.66" fill="#536d57" fill-opacity="0.75" transform="rotate(-24)" />
      <ellipse cx="28" cy="138.14" rx="20.31" ry="38.60" fill="#536d57" fill-opacity="0.66" transform="rotate(20)" />
      <g transform="translate(0 0)">
        <ellipse cx="28.44" cy="0.00" rx="18.28" ry="28.44" fill="#b58d76" fill-opacity="0.95" /><ellipse cx="20.11" cy="20.11" rx="18.28" ry="28.44" fill="#b58d76" fill-opacity="0.95" /><ellipse cx="0.00" cy="28.44" rx="18.28" ry="28.44" fill="#b58d76" fill-opacity="0.95" /><ellipse cx="-20.11" cy="20.11" rx="18.28" ry="28.44" fill="#b58d76" fill-opacity="0.95" /><ellipse cx="-28.44" cy="0.00" rx="18.28" ry="28.44" fill="#b58d76" fill-opacity="0.95" /><ellipse cx="-20.11" cy="-20.11" rx="18.28" ry="28.44" fill="#b58d76" fill-opacity="0.95" /><ellipse cx="-0.00" cy="-28.44" rx="18.28" ry="28.44" fill="#b58d76" fill-opacity="0.95" /><ellipse cx="20.11" cy="-20.11" rx="18.28" ry="28.44" fill="#b58d76" fill-opacity="0.95" />
        <circle cx="0" cy="0" r="18.28" fill="#8d6959" />
        <circle cx="0" cy="0" r="9.14" fill="#fff7f0" fill-opacity="0.72" />
      </g>
    </g>
    
  </g>
  <path d="M0 980 C220 920, 420 1030, 900 930 L900 1100 L0 1100 Z" fill="#ffffff" fill-opacity="0.22" />
</svg>
