<svg xmlns="http://www.w3.org/2000/svg" width="900" height="1100" viewBox="0 0 900 1100">
  <defs>
    <linearGradient id="bg" x1="0" y1="0" x2="0" y2="1">
      <stop offset="0%" stop-color="#f3f0ea" />
      <stop offset="100%" stop-color="#e8ece7" />
    </linearGradient>
    <filter id="shadow" x="-20%" y="-20%" width="140%" height="140%">
      <feDropShadow dx="0" dy="22" stdDeviation="24" flood-color="#6c5d4f" flood-opacity="0.12" />
    </filter>
  </defs>
  <rect width="100%" height="100%" fill="url(#bg)" />
  <circle cx="730" cy="180" r="140" fill="#ffffff" fill-opacity="0.18" />
  <circle cx="150" cy="260" r="90" fill="#ffffff" fill-opacity="0.12" />
  
      <rect x="70" y="72" width="300" height="92" rx="24" fill="#ffffff" fill-opacity="0.34" />
      <text x="98" y="120" fill="#2f3a31" font-size="32" font-family="'PingFang SC','Microsoft YaHei',sans-serif" font-weight="600">林感桌景</text>
      <text x="98" y="152" fill="#4e6152" font-size="18" font-family="'PingFang SC','Microsoft YaHei',sans-serif">定制 · 品牌活动</text>
    
  <g filter="url(#shadow)">
    <ellipse cx="450" cy="955" rx="280" ry="90" fill="#d9cec2" fill-opacity="0.55" /><rect x="220" y="820" width="460" height="170" rx="18" fill="#f2ece5" fill-opacity="0.65" />
  </g>
  <g>
    
    <g transform="translate(641.41 326.37) rotate(-1.55)">
      <path d="M 0 0 C -8 87.93, 10 146.55, -6 214.94" stroke="#536d57" stroke-width="11.72" fill="none" stroke-linecap="round" />
      <ellipse cx="-20" cy="107.47" rx="21.49" ry="41.03" fill="#536d57" fill-opacity="0.75" transform="rotate(-24)" />
      <ellipse cx="28" cy="132.87" rx="19.54" ry="37.13" fill="#536d57" fill-opacity="0.66" transform="rotate(20)" />
      <g transform="translate(0 0)">
        <ellipse cx="27.36" cy="0.00" rx="17.59" ry="27.36" fill="#f7ede0" fill-opacity="0.95" /><ellipse cx="19.34" cy="19.34" rx="17.59" ry="27.36" fill="#f7ede0" fill-opacity="0.95" /><ellipse cx="0.00" cy="27.36" rx="17.59" ry="27.36" fill="#f7ede0" fill-opacity="0.95" /><ellipse cx="-19.34" cy="19.34" rx="17.59" ry="27.36" fill="#f7ede0" fill-opacity="0.95" /><ellipse cx="-27.36" cy="0.00" rx="17.59" ry="27.36" fill="#f7ede0" fill-opacity="0.95" /><ellipse cx="-19.34" cy="-19.34" rx="17.59" ry="27.36" fill="#f7ede0" fill-opacity="0.95" /><ellipse cx="-0.00" cy="-27.36" rx="17.59" ry="27.36" fill="#f7ede0" fill-opacity="0.95" /><ellipse cx="19.34" cy="-19.34" rx="17.59" ry="27.36" fill="#f7ede0" fill-opacity="0.95" />
        <circle cx="0" cy="0" r="17.59" fill="#8d6959" />
        <circle cx="0" cy="0" r="8.79" fill="#fff7f0" fill-opacity="0.72" />
      </g>
    </g>
    
    <g transform="translate(263.51 476.01) rotate(19.55)">
      <path d="M 0 0 C -8 79.25, 10 132.09, -6 193.72" stroke="#6f8b70" stroke-width="10.57" fill="none" stroke-linecap="round" />
      <ellipse cx="-20" cy="96.86" rx="19.37" ry="36.98" fill="#6f8b70" fill-opacity="0.75" transform="rotate(-24)" />
      <ellipse cx="28" cy="119.76" rx="17.61" ry="33.46" fill="#6f8b70" fill-opacity="0.66" transform="rotate(20)" />
      <g transform="translate(0 0)">
        <ellipse cx="24.66" cy="0.00" rx="15.85" ry="24.66" fill="#d7cabf" fill-opacity="0.95" /><ellipse cx="17.43" cy="17.43" rx="15.85" ry="24.66" fill="#d7cabf" fill-opacity="0.95" /><ellipse cx="0.00" cy="24.66" rx="15.85" ry="24.66" fill="#d7cabf" fill-opacity="0.95" /><ellipse cx="-17.43" cy="17.43" rx="15.85" ry="24.66" fill="#d7cabf" fill-opacity="0.95" /><ellipse cx="-24.66" cy="0.00" rx="15.85" ry="24.66" fill="#d7cabf" fill-opacity="0.95" /><ellipse cx="-17.43" cy="-17.43" rx="15.85" ry="24.66" fill="#d7cabf" fill-opacity="0.95" /><ellipse cx="-0.00" cy="-24.66" rx="15.85" ry="24.66" fill="#d7cabf" fill-opacity="0.95" /><ellipse cx="17.43" cy="-17.43" rx="15.85" ry="24.66" fill="#d7cabf" fill-opacity="0.95" />
        <circle cx="0" cy="0" r="15.85" fill="#8d6959" />
        <circle cx="0" cy="0" r="7.93" fill="#fff7f0" fill-opacity="0.72" />
      </g>
    </g>
    
    <g transform="translate(425.54 401.40) rotate(-22.94)">
      <path d="M 0 0 C -8 72.25, 10 120.42, -6 176.61" stroke="#8ba08a" stroke-width="9.63" fill="none" stroke-linecap="round" />
      <ellipse cx="-20" cy="88.31" rx="17.66" ry="33.72" fill="#8ba08a" fill-opacity="0.75" transform="rotate(-24)" />
      <ellipse cx="28" cy="109.18" rx="16.06" ry="30.51" fill="#8ba08a" fill-opacity="0.66" transform="rotate(20)" />
      <g transform="translate(0 0)">
        <ellipse cx="22.48" cy="0.00" rx="14.45" ry="22.48" fill="#b58d76" fill-opacity="0.95" /><ellipse cx="15.89" cy="15.89" rx="14.45" ry="22.48" fill="#b58d76" fill-opacity="0.95" /><ellipse cx="0.00" cy="22.48" rx="14.45" ry="22.48" fill="#b58d76" fill-opacity="0.95" /><ellipse cx="-15.89" cy="15.89" rx="14.45" ry="22.48" fill="#b58d76" fill-opacity="0.95" /><ellipse cx="-22.48" cy="0.00" rx="14.45" ry="22.48" fill="#b58d76" fill-opacity="0.95" /><ellipse cx="-15.89" cy="-15.89" rx="14.45" ry="22.48" fill="#b58d76" fill-opacity="0.95" /><ellipse cx="-0.00" cy="-22.48" rx="14.45" ry="22.48" fill="#b58d76" fill-opacity="0.95" /><ellipse cx="15.89" cy="-15.89" rx="14.45" ry="22.48" fill="#b58d76" fill-opacity="0.95" />
        <circle cx="0" cy="0" r="14.45" fill="#8d6959" />
        <circle cx="0" cy="0" r="7.23" fill="#fff7f0" fill-opacity="0.72" />
      </g>
    </g>
    
    <g transform="translate(665.66 517.92) rotate(5.50)">
      <path d="M 0 0 C -8 96.02, 10 160.03, -6 234.71" stroke="#536d57" stroke-width="12.80" fill="none" stroke-linecap="round" />
      <ellipse cx="-20" cy="117.35" rx="23.47" ry="44.81" fill="#536d57" fill-opacity="0.75" transform="rotate(-24)" />
      <ellipse cx="28" cy="145.09" rx="21.34" ry="40.54" fill="#536d57" fill-opacity="0.66" transform="rotate(20)" />
      <g transform="translate(0 0)">
        <ellipse cx="29.87" cy="0.00" rx="19.20" ry="29.87" fill="#f1dccf" fill-opacity="0.95" /><ellipse cx="21.12" cy="21.12" rx="19.20" ry="29.87" fill="#f1dccf" fill-opacity="0.95" /><ellipse cx="0.00" cy="29.87" rx="19.20" ry="29.87" fill="#f1dccf" fill-opacity="0.95" /><ellipse cx="-21.12" cy="21.12" rx="19.20" ry="29.87" fill="#f1dccf" fill-opacity="0.95" /><ellipse cx="-29.87" cy="0.00" rx="19.20" ry="29.87" fill="#f1dccf" fill-opacity="0.95" /><ellipse cx="-21.12" cy="-21.12" rx="19.20" ry="29.87" fill="#f1dccf" fill-opacity="0.95" /><ellipse cx="-0.00" cy="-29.87" rx="19.20" ry="29.87" fill="#f1dccf" fill-opacity="0.95" /><ellipse cx="21.12" cy="-21.12" rx="19.20" ry="29.87" fill="#f1dccf" fill-opacity="0.95" />
        <circle cx="0" cy="0" r="19.20" fill="#8d6959" />
        <circle cx="0" cy="0" r="9.60" fill="#fff7f0" fill-opacity="0.72" />
      </g>
    </g>
    
    <g transform="translate(548.74 534.63) rotate(25.86)">
      <path d="M 0 0 C -8 115.02, 10 191.71, -6 281.17" stroke="#6f8b70" stroke-width="15.34" fill="none" stroke-linecap="round" />
      <ellipse cx="-20" cy="140.58" rx="28.12" ry="53.68" fill="#6f8b70" fill-opacity="0.75" transform="rotate(-24)" />
      <ellipse cx="28" cy="173.81" rx="25.56" ry="48.57" fill="#6f8b70" fill-opacity="0.66" transform="rotate(20)" />
      <g transform="translate(0 0)">
        <ellipse cx="35.79" cy="0.00" rx="23.00" ry="35.79" fill="#f7ede0" fill-opacity="0.95" /><ellipse cx="25.30" cy="25.30" rx="23.00" ry="35.79" fill="#f7ede0" fill-opacity="0.95" /><ellipse cx="0.00" cy="35.79" rx="23.00" ry="35.79" fill="#f7ede0" fill-opacity="0.95" /><ellipse cx="-25.30" cy="25.30" rx="23.00" ry="35.79" fill="#f7ede0" fill-opacity="0.95" /><ellipse cx="-35.79" cy="0.00" rx="23.00" ry="35.79" fill="#f7ede0" fill-opacity="0.95" /><ellipse cx="-25.30" cy="-25.30" rx="23.00" ry="35.79" fill="#f7ede0" fill-opacity="0.95" /><ellipse cx="-0.00" cy="-35.79" rx="23.00" ry="35.79" fill="#f7ede0" fill-opacity="0.95" /><ellipse cx="25.30" cy="-25.30" rx="23.00" ry="35.79" fill="#f7ede0" fill-opacity="0.95" />
        <circle cx="0" cy="0" r="23.00" fill="#8d6959" />
        <circle cx="0" cy="0" r="11.50" fill="#fff7f0" fill-opacity="0.72" />
      </g>
    </g>
    
    <g transform="translate(557.89 407.78) rotate(-18.12)">
      <path d="M 0 0 C -8 93.56, 10 155.93, -6 228.69" stroke="#8ba08a" stroke-width="12.47" fill="none" stroke-linecap="round" />
      <ellipse cx="-20" cy="114.35" rx="22.87" ry="43.66" fill="#8ba08a" fill-opacity="0.75" transform="rotate(-24)" />
      <ellipse cx="28" cy="141.37" rx="20.79" ry="39.50" fill="#8ba08a" fill-opacity="0.66" transform="rotate(20)" />
      <g transform="translate(0 0)">
        <ellipse cx="29.11" cy="0.00" rx="18.71" ry="29.11" fill="#d7cabf" fill-opacity="0.95" /><ellipse cx="20.58" cy="20.58" rx="18.71" ry="29.11" fill="#d7cabf" fill-opacity="0.95" /><ellipse cx="0.00" cy="29.11" rx="18.71" ry="29.11" fill="#d7cabf" fill-opacity="0.95" /><ellipse cx="-20.58" cy="20.58" rx="18.71" ry="29.11" fill="#d7cabf" fill-opacity="0.95" /><ellipse cx="-29.11" cy="0.00" rx="18.71" ry="29.11" fill="#d7cabf" fill-opacity="0.95" /><ellipse cx="-20.58" cy="-20.58" rx="18.71" ry="29.11" fill="#d7cabf" fill-opacity="0.95" /><ellipse cx="-0.00" cy="-29.11" rx="18.71" ry="29.11" fill="#d7cabf" fill-opacity="0.95" /><ellipse cx="20.58" cy="-20.58" rx="18.71" ry="29.11" fill="#d7cabf" fill-opacity="0.95" />
        <circle cx="0" cy="0" r="18.71" fill="#8d6959" />
        <circle cx="0" cy="0" r="9.36" fill="#fff7f0" fill-opacity="0.72" />
      </g>
    </g>
    
    <g transform="translate(300.80 494.98) rotate(5.66)">
      <path d="M 0 0 C -8 83.28, 10 138.79, -6 203.56" stroke="#536d57" stroke-width="11.10" fill="none" stroke-linecap="round" />
      <ellipse cx="-20" cy="101.78" rx="20.36" ry="38.86" fill="#536d57" fill-opacity="0.75" transform="rotate(-24)" />
      <ellipse cx="28" cy="125.84" rx="18.51" ry="35.16" fill="#536d57" fill-opacity="0.66" transform="rotate(20)" />
      <g transform="translate(0 0)">
        <ellipse cx="25.91" cy="0.00" rx="16.66" ry="25.91" fill="#b58d76" fill-opacity="0.95" /><ellipse cx="18.32" cy="18.32" rx="16.66" ry="25.91" fill="#b58d76" fill-opacity="0.95" /><ellipse cx="0.00" cy="25.91" rx="16.66" ry="25.91" fill="#b58d76" fill-opacity="0.95" /><ellipse cx="-18.32" cy="18.32" rx="16.66" ry="25.91" fill="#b58d76" fill-opacity="0.95" /><ellipse cx="-25.91" cy="0.00" rx="16.66" ry="25.91" fill="#b58d76" fill-opacity="0.95" /><ellipse cx="-18.32" cy="-18.32" rx="16.66" ry="25.91" fill="#b58d76" fill-opacity="0.95" /><ellipse cx="-0.00" cy="-25.91" rx="16.66" ry="25.91" fill="#b58d76" fill-opacity="0.95" /><ellipse cx="18.32" cy="-18.32" rx="16.66" ry="25.91" fill="#b58d76" fill-opacity="0.95" />
        <circle cx="0" cy="0" r="16.66" fill="#8d6959" />
        <circle cx="0" cy="0" r="8.33" fill="#fff7f0" fill-opacity="0.72" />
      </g>
    </g>
    
    <g transform="translate(508.08 482.51) rotate(13.38)">
      <path d="M 0 0 C -8 85.30, 10 142.17, -6 208.51" stroke="#6f8b70" stroke-width="11.37" fill="none" stroke-linecap="round" />
      <ellipse cx="-20" cy="104.26" rx="20.85" ry="39.81" fill="#6f8b70" fill-opacity="0.75" transform="rotate(-24)" />
      <ellipse cx="28" cy="128.90" rx="18.96" ry="36.02" fill="#6f8b70" fill-opacity="0.66" transform="rotate(20)" />
      <g transform="translate(0 0)">
        <ellipse cx="26.54" cy="0.00" rx="17.06" ry="26.54" fill="#f1dccf" fill-opacity="0.95" /><ellipse cx="18.77" cy="18.77" rx="17.06" ry="26.54" fill="#f1dccf" fill-opacity="0.95" /><ellipse cx="0.00" cy="26.54" rx="17.06" ry="26.54" fill="#f1dccf" fill-opacity="0.95" /><ellipse cx="-18.77" cy="18.77" rx="17.06" ry="26.54" fill="#f1dccf" fill-opacity="0.95" /><ellipse cx="-26.54" cy="0.00" rx="17.06" ry="26.54" fill="#f1dccf" fill-opacity="0.95" /><ellipse cx="-18.77" cy="-18.77" rx="17.06" ry="26.54" fill="#f1dccf" fill-opacity="0.95" /><ellipse cx="-0.00" cy="-26.54" rx="17.06" ry="26.54" fill="#f1dccf" fill-opacity="0.95" /><ellipse cx="18.77" cy="-18.77" rx="17.06" ry="26.54" fill="#f1dccf" fill-opacity="0.95" />
        <circle cx="0" cy="0" r="17.06" fill="#8d6959" />
        <circle cx="0" cy="0" r="8.53" fill="#fff7f0" fill-opacity="0.72" />
      </g>
    </g>
    
  </g>
  <path d="M0 980 C220 920, 420 1030, 900 930 L900 1100 L0 1100 Z" fill="#ffffff" fill-opacity="0.22" />
</svg>
