<svg xmlns="http://www.w3.org/2000/svg" width="900" height="1100" viewBox="0 0 900 1100">
  <defs>
    <linearGradient id="bg" x1="0" y1="0" x2="0" y2="1">
      <stop offset="0%" stop-color="#f3f0ea" />
      <stop offset="100%" stop-color="#e8ece7" />
    </linearGradient>
    <filter id="shadow" x="-20%" y="-20%" width="140%" height="140%">
      <feDropShadow dx="0" dy="22" stdDeviation="24" flood-color="#6c5d4f" flood-opacity="0.12" />
    </filter>
  </defs>
  <rect width="100%" height="100%" fill="url(#bg)" />
  <circle cx="730" cy="180" r="140" fill="#ffffff" fill-opacity="0.18" />
  <circle cx="150" cy="260" r="90" fill="#ffffff" fill-opacity="0.12" />
  
      <rect x="70" y="72" width="300" height="92" rx="24" fill="#ffffff" fill-opacity="0.34" />
      <text x="98" y="120" fill="#2f3a31" font-size="32" font-family="'PingFang SC','Microsoft YaHei',sans-serif" font-weight="600">空间序列</text>
      <text x="98" y="152" fill="#4e6152" font-size="18" font-family="'PingFang SC','Microsoft YaHei',sans-serif">宴会 · 餐桌花艺</text>
    
  <g filter="url(#shadow)">
    <ellipse cx="450" cy="955" rx="280" ry="90" fill="#d9cec2" fill-opacity="0.55" /><rect x="220" y="820" width="460" height="170" rx="18" fill="#f2ece5" fill-opacity="0.65" />
  </g>
  <g>
    
    <g transform="translate(194.85 402.19) rotate(14.17)">
      <path d="M 0 0 C -8 96.70, 10 161.16, -6 236.37" stroke="#536d57" stroke-width="12.89" fill="none" stroke-linecap="round" />
      <ellipse cx="-20" cy="118.18" rx="23.64" ry="45.12" fill="#536d57" fill-opacity="0.75" transform="rotate(-24)" />
      <ellipse cx="28" cy="146.12" rx="21.49" ry="40.83" fill="#536d57" fill-opacity="0.66" transform="rotate(20)" />
      <g transform="translate(0 0)">
        <ellipse cx="30.08" cy="0.00" rx="19.34" ry="30.08" fill="#f7ede0" fill-opacity="0.95" /><ellipse cx="21.27" cy="21.27" rx="19.34" ry="30.08" fill="#f7ede0" fill-opacity="0.95" /><ellipse cx="0.00" cy="30.08" rx="19.34" ry="30.08" fill="#f7ede0" fill-opacity="0.95" /><ellipse cx="-21.27" cy="21.27" rx="19.34" ry="30.08" fill="#f7ede0" fill-opacity="0.95" /><ellipse cx="-30.08" cy="0.00" rx="19.34" ry="30.08" fill="#f7ede0" fill-opacity="0.95" /><ellipse cx="-21.27" cy="-21.27" rx="19.34" ry="30.08" fill="#f7ede0" fill-opacity="0.95" /><ellipse cx="-0.00" cy="-30.08" rx="19.34" ry="30.08" fill="#f7ede0" fill-opacity="0.95" /><ellipse cx="21.27" cy="-21.27" rx="19.34" ry="30.08" fill="#f7ede0" fill-opacity="0.95" />
        <circle cx="0" cy="0" r="19.34" fill="#8d6959" />
        <circle cx="0" cy="0" r="9.67" fill="#fff7f0" fill-opacity="0.72" />
      </g>
    </g>
    
    <g transform="translate(633.64 364.80) rotate(1.11)">
      <path d="M 0 0 C -8 88.12, 10 146.87, -6 215.42" stroke="#6f8b70" stroke-width="11.75" fill="none" stroke-linecap="round" />
      <ellipse cx="-20" cy="107.71" rx="21.54" ry="41.12" fill="#6f8b70" fill-opacity="0.75" transform="rotate(-24)" />
      <ellipse cx="28" cy="133.17" rx="19.58" ry="37.21" fill="#6f8b70" fill-opacity="0.66" transform="rotate(20)" />
      <g transform="translate(0 0)">
        <ellipse cx="27.42" cy="0.00" rx="17.62" ry="27.42" fill="#d7cabf" fill-opacity="0.95" /><ellipse cx="19.39" cy="19.39" rx="17.62" ry="27.42" fill="#d7cabf" fill-opacity="0.95" /><ellipse cx="0.00" cy="27.42" rx="17.62" ry="27.42" fill="#d7cabf" fill-opacity="0.95" /><ellipse cx="-19.39" cy="19.39" rx="17.62" ry="27.42" fill="#d7cabf" fill-opacity="0.95" /><ellipse cx="-27.42" cy="0.00" rx="17.62" ry="27.42" fill="#d7cabf" fill-opacity="0.95" /><ellipse cx="-19.39" cy="-19.39" rx="17.62" ry="27.42" fill="#d7cabf" fill-opacity="0.95" /><ellipse cx="-0.00" cy="-27.42" rx="17.62" ry="27.42" fill="#d7cabf" fill-opacity="0.95" /><ellipse cx="19.39" cy="-19.39" rx="17.62" ry="27.42" fill="#d7cabf" fill-opacity="0.95" />
        <circle cx="0" cy="0" r="17.62" fill="#8d6959" />
        <circle cx="0" cy="0" r="8.81" fill="#fff7f0" fill-opacity="0.72" />
      </g>
    </g>
    
    <g transform="translate(605.04 467.03) rotate(2.67)">
      <path d="M 0 0 C -8 106.84, 10 178.07, -6 261.17" stroke="#8ba08a" stroke-width="14.25" fill="none" stroke-linecap="round" />
      <ellipse cx="-20" cy="130.59" rx="26.12" ry="49.86" fill="#8ba08a" fill-opacity="0.75" transform="rotate(-24)" />
      <ellipse cx="28" cy="161.45" rx="23.74" ry="45.11" fill="#8ba08a" fill-opacity="0.66" transform="rotate(20)" />
      <g transform="translate(0 0)">
        <ellipse cx="33.24" cy="0.00" rx="21.37" ry="33.24" fill="#b58d76" fill-opacity="0.95" /><ellipse cx="23.50" cy="23.50" rx="21.37" ry="33.24" fill="#b58d76" fill-opacity="0.95" /><ellipse cx="0.00" cy="33.24" rx="21.37" ry="33.24" fill="#b58d76" fill-opacity="0.95" /><ellipse cx="-23.50" cy="23.50" rx="21.37" ry="33.24" fill="#b58d76" fill-opacity="0.95" /><ellipse cx="-33.24" cy="0.00" rx="21.37" ry="33.24" fill="#b58d76" fill-opacity="0.95" /><ellipse cx="-23.50" cy="-23.50" rx="21.37" ry="33.24" fill="#b58d76" fill-opacity="0.95" /><ellipse cx="-0.00" cy="-33.24" rx="21.37" ry="33.24" fill="#b58d76" fill-opacity="0.95" /><ellipse cx="23.50" cy="-23.50" rx="21.37" ry="33.24" fill="#b58d76" fill-opacity="0.95" />
        <circle cx="0" cy="0" r="21.37" fill="#8d6959" />
        <circle cx="0" cy="0" r="10.68" fill="#fff7f0" fill-opacity="0.72" />
      </g>
    </g>
    
    <g transform="translate(356.48 513.55) rotate(-4.91)">
      <path d="M 0 0 C -8 98.65, 10 164.42, -6 241.16" stroke="#536d57" stroke-width="13.15" fill="none" stroke-linecap="round" />
      <ellipse cx="-20" cy="120.58" rx="24.12" ry="46.04" fill="#536d57" fill-opacity="0.75" transform="rotate(-24)" />
      <ellipse cx="28" cy="149.08" rx="21.92" ry="41.65" fill="#536d57" fill-opacity="0.66" transform="rotate(20)" />
      <g transform="translate(0 0)">
        <ellipse cx="30.69" cy="0.00" rx="19.73" ry="30.69" fill="#f1dccf" fill-opacity="0.95" /><ellipse cx="21.70" cy="21.70" rx="19.73" ry="30.69" fill="#f1dccf" fill-opacity="0.95" /><ellipse cx="0.00" cy="30.69" rx="19.73" ry="30.69" fill="#f1dccf" fill-opacity="0.95" /><ellipse cx="-21.70" cy="21.70" rx="19.73" ry="30.69" fill="#f1dccf" fill-opacity="0.95" /><ellipse cx="-30.69" cy="0.00" rx="19.73" ry="30.69" fill="#f1dccf" fill-opacity="0.95" /><ellipse cx="-21.70" cy="-21.70" rx="19.73" ry="30.69" fill="#f1dccf" fill-opacity="0.95" /><ellipse cx="-0.00" cy="-30.69" rx="19.73" ry="30.69" fill="#f1dccf" fill-opacity="0.95" /><ellipse cx="21.70" cy="-21.70" rx="19.73" ry="30.69" fill="#f1dccf" fill-opacity="0.95" />
        <circle cx="0" cy="0" r="19.73" fill="#8d6959" />
        <circle cx="0" cy="0" r="9.87" fill="#fff7f0" fill-opacity="0.72" />
      </g>
    </g>
    
    <g transform="translate(529.64 503.84) rotate(-4.50)">
      <path d="M 0 0 C -8 102.04, 10 170.06, -6 249.42" stroke="#6f8b70" stroke-width="13.60" fill="none" stroke-linecap="round" />
      <ellipse cx="-20" cy="124.71" rx="24.94" ry="47.62" fill="#6f8b70" fill-opacity="0.75" transform="rotate(-24)" />
      <ellipse cx="28" cy="154.19" rx="22.67" ry="43.08" fill="#6f8b70" fill-opacity="0.66" transform="rotate(20)" />
      <g transform="translate(0 0)">
        <ellipse cx="31.74" cy="0.00" rx="20.41" ry="31.74" fill="#f7ede0" fill-opacity="0.95" /><ellipse cx="22.45" cy="22.45" rx="20.41" ry="31.74" fill="#f7ede0" fill-opacity="0.95" /><ellipse cx="0.00" cy="31.74" rx="20.41" ry="31.74" fill="#f7ede0" fill-opacity="0.95" /><ellipse cx="-22.45" cy="22.45" rx="20.41" ry="31.74" fill="#f7ede0" fill-opacity="0.95" /><ellipse cx="-31.74" cy="0.00" rx="20.41" ry="31.74" fill="#f7ede0" fill-opacity="0.95" /><ellipse cx="-22.45" cy="-22.45" rx="20.41" ry="31.74" fill="#f7ede0" fill-opacity="0.95" /><ellipse cx="-0.00" cy="-31.74" rx="20.41" ry="31.74" fill="#f7ede0" fill-opacity="0.95" /><ellipse cx="22.45" cy="-22.45" rx="20.41" ry="31.74" fill="#f7ede0" fill-opacity="0.95" />
        <circle cx="0" cy="0" r="20.41" fill="#8d6959" />
        <circle cx="0" cy="0" r="10.20" fill="#fff7f0" fill-opacity="0.72" />
      </g>
    </g>
    
    <g transform="translate(242.94 332.78) rotate(14.08)">
      <path d="M 0 0 C -8 71.42, 10 119.04, -6 174.59" stroke="#8ba08a" stroke-width="9.52" fill="none" stroke-linecap="round" />
      <ellipse cx="-20" cy="87.30" rx="17.46" ry="33.33" fill="#8ba08a" fill-opacity="0.75" transform="rotate(-24)" />
      <ellipse cx="28" cy="107.93" rx="15.87" ry="30.16" fill="#8ba08a" fill-opacity="0.66" transform="rotate(20)" />
      <g transform="translate(0 0)">
        <ellipse cx="22.22" cy="0.00" rx="14.28" ry="22.22" fill="#d7cabf" fill-opacity="0.95" /><ellipse cx="15.71" cy="15.71" rx="14.28" ry="22.22" fill="#d7cabf" fill-opacity="0.95" /><ellipse cx="0.00" cy="22.22" rx="14.28" ry="22.22" fill="#d7cabf" fill-opacity="0.95" /><ellipse cx="-15.71" cy="15.71" rx="14.28" ry="22.22" fill="#d7cabf" fill-opacity="0.95" /><ellipse cx="-22.22" cy="0.00" rx="14.28" ry="22.22" fill="#d7cabf" fill-opacity="0.95" /><ellipse cx="-15.71" cy="-15.71" rx="14.28" ry="22.22" fill="#d7cabf" fill-opacity="0.95" /><ellipse cx="-0.00" cy="-22.22" rx="14.28" ry="22.22" fill="#d7cabf" fill-opacity="0.95" /><ellipse cx="15.71" cy="-15.71" rx="14.28" ry="22.22" fill="#d7cabf" fill-opacity="0.95" />
        <circle cx="0" cy="0" r="14.28" fill="#8d6959" />
        <circle cx="0" cy="0" r="7.14" fill="#fff7f0" fill-opacity="0.72" />
      </g>
    </g>
    
    <g transform="translate(239.06 372.08) rotate(6.33)">
      <path d="M 0 0 C -8 93.49, 10 155.81, -6 228.53" stroke="#536d57" stroke-width="12.47" fill="none" stroke-linecap="round" />
      <ellipse cx="-20" cy="114.26" rx="22.85" ry="43.63" fill="#536d57" fill-opacity="0.75" transform="rotate(-24)" />
      <ellipse cx="28" cy="141.27" rx="20.78" ry="39.47" fill="#536d57" fill-opacity="0.66" transform="rotate(20)" />
      <g transform="translate(0 0)">
        <ellipse cx="29.09" cy="0.00" rx="18.70" ry="29.09" fill="#b58d76" fill-opacity="0.95" /><ellipse cx="20.57" cy="20.57" rx="18.70" ry="29.09" fill="#b58d76" fill-opacity="0.95" /><ellipse cx="0.00" cy="29.09" rx="18.70" ry="29.09" fill="#b58d76" fill-opacity="0.95" /><ellipse cx="-20.57" cy="20.57" rx="18.70" ry="29.09" fill="#b58d76" fill-opacity="0.95" /><ellipse cx="-29.09" cy="0.00" rx="18.70" ry="29.09" fill="#b58d76" fill-opacity="0.95" /><ellipse cx="-20.57" cy="-20.57" rx="18.70" ry="29.09" fill="#b58d76" fill-opacity="0.95" /><ellipse cx="-0.00" cy="-29.09" rx="18.70" ry="29.09" fill="#b58d76" fill-opacity="0.95" /><ellipse cx="20.57" cy="-20.57" rx="18.70" ry="29.09" fill="#b58d76" fill-opacity="0.95" />
        <circle cx="0" cy="0" r="18.70" fill="#8d6959" />
        <circle cx="0" cy="0" r="9.35" fill="#fff7f0" fill-opacity="0.72" />
      </g>
    </g>
    
    <g transform="translate(586.84 457.19) rotate(14.16)">
      <path d="M 0 0 C -8 97.30, 10 162.16, -6 237.84" stroke="#6f8b70" stroke-width="12.97" fill="none" stroke-linecap="round" />
      <ellipse cx="-20" cy="118.92" rx="23.78" ry="45.41" fill="#6f8b70" fill-opacity="0.75" transform="rotate(-24)" />
      <ellipse cx="28" cy="147.03" rx="21.62" ry="41.08" fill="#6f8b70" fill-opacity="0.66" transform="rotate(20)" />
      <g transform="translate(0 0)">
        <ellipse cx="30.27" cy="0.00" rx="19.46" ry="30.27" fill="#f1dccf" fill-opacity="0.95" /><ellipse cx="21.40" cy="21.40" rx="19.46" ry="30.27" fill="#f1dccf" fill-opacity="0.95" /><ellipse cx="0.00" cy="30.27" rx="19.46" ry="30.27" fill="#f1dccf" fill-opacity="0.95" /><ellipse cx="-21.40" cy="21.40" rx="19.46" ry="30.27" fill="#f1dccf" fill-opacity="0.95" /><ellipse cx="-30.27" cy="0.00" rx="19.46" ry="30.27" fill="#f1dccf" fill-opacity="0.95" /><ellipse cx="-21.40" cy="-21.40" rx="19.46" ry="30.27" fill="#f1dccf" fill-opacity="0.95" /><ellipse cx="-0.00" cy="-30.27" rx="19.46" ry="30.27" fill="#f1dccf" fill-opacity="0.95" /><ellipse cx="21.40" cy="-21.40" rx="19.46" ry="30.27" fill="#f1dccf" fill-opacity="0.95" />
        <circle cx="0" cy="0" r="19.46" fill="#8d6959" />
        <circle cx="0" cy="0" r="9.73" fill="#fff7f0" fill-opacity="0.72" />
      </g>
    </g>
    
  </g>
  <path d="M0 980 C220 920, 420 1030, 900 930 L900 1100 L0 1100 Z" fill="#ffffff" fill-opacity="0.22" />
</svg>
