<svg xmlns="http://www.w3.org/2000/svg" width="900" height="1100" viewBox="0 0 900 1100">
  <defs>
    <linearGradient id="bg" x1="0" y1="0" x2="0" y2="1">
      <stop offset="0%" stop-color="#f3f0ea" />
      <stop offset="100%" stop-color="#e8ece7" />
    </linearGradient>
    <filter id="shadow" x="-20%" y="-20%" width="140%" height="140%">
      <feDropShadow dx="0" dy="22" stdDeviation="24" flood-color="#6c5d4f" flood-opacity="0.12" />
    </filter>
  </defs>
  <rect width="100%" height="100%" fill="url(#bg)" />
  <circle cx="730" cy="180" r="140" fill="#ffffff" fill-opacity="0.18" />
  <circle cx="150" cy="260" r="90" fill="#ffffff" fill-opacity="0.12" />
  
      <rect x="70" y="72" width="300" height="92" rx="24" fill="#ffffff" fill-opacity="0.34" />
      <text x="98" y="120" fill="#2f3a31" font-size="32" font-family="'PingFang SC','Microsoft YaHei',sans-serif" font-weight="600">枝影陈设</text>
      <text x="98" y="152" fill="#4e6152" font-size="18" font-family="'PingFang SC','Microsoft YaHei',sans-serif">橱窗 · 展陈</text>
    
  <g filter="url(#shadow)">
    <ellipse cx="450" cy="955" rx="280" ry="90" fill="#d9cec2" fill-opacity="0.55" /><rect x="220" y="820" width="460" height="170" rx="18" fill="#f2ece5" fill-opacity="0.65" />
  </g>
  <g>
    
    <g transform="translate(387.55 514.28) rotate(17.08)">
      <path d="M 0 0 C -8 75.36, 10 125.60, -6 184.22" stroke="#536d57" stroke-width="10.05" fill="none" stroke-linecap="round" />
      <ellipse cx="-20" cy="92.11" rx="18.42" ry="35.17" fill="#536d57" fill-opacity="0.75" transform="rotate(-24)" />
      <ellipse cx="28" cy="113.88" rx="16.75" ry="31.82" fill="#536d57" fill-opacity="0.66" transform="rotate(20)" />
      <g transform="translate(0 0)">
        <ellipse cx="23.45" cy="0.00" rx="15.07" ry="23.45" fill="#f7ede0" fill-opacity="0.95" /><ellipse cx="16.58" cy="16.58" rx="15.07" ry="23.45" fill="#f7ede0" fill-opacity="0.95" /><ellipse cx="0.00" cy="23.45" rx="15.07" ry="23.45" fill="#f7ede0" fill-opacity="0.95" /><ellipse cx="-16.58" cy="16.58" rx="15.07" ry="23.45" fill="#f7ede0" fill-opacity="0.95" /><ellipse cx="-23.45" cy="0.00" rx="15.07" ry="23.45" fill="#f7ede0" fill-opacity="0.95" /><ellipse cx="-16.58" cy="-16.58" rx="15.07" ry="23.45" fill="#f7ede0" fill-opacity="0.95" /><ellipse cx="-0.00" cy="-23.45" rx="15.07" ry="23.45" fill="#f7ede0" fill-opacity="0.95" /><ellipse cx="16.58" cy="-16.58" rx="15.07" ry="23.45" fill="#f7ede0" fill-opacity="0.95" />
        <circle cx="0" cy="0" r="15.07" fill="#8d6959" />
        <circle cx="0" cy="0" r="7.54" fill="#fff7f0" fill-opacity="0.72" />
      </g>
    </g>
    
    <g transform="translate(192.10 380.78) rotate(3.67)">
      <path d="M 0 0 C -8 92.61, 10 154.35, -6 226.38" stroke="#6f8b70" stroke-width="12.35" fill="none" stroke-linecap="round" />
      <ellipse cx="-20" cy="113.19" rx="22.64" ry="43.22" fill="#6f8b70" fill-opacity="0.75" transform="rotate(-24)" />
      <ellipse cx="28" cy="139.94" rx="20.58" ry="39.10" fill="#6f8b70" fill-opacity="0.66" transform="rotate(20)" />
      <g transform="translate(0 0)">
        <ellipse cx="28.81" cy="0.00" rx="18.52" ry="28.81" fill="#d7cabf" fill-opacity="0.95" /><ellipse cx="20.37" cy="20.37" rx="18.52" ry="28.81" fill="#d7cabf" fill-opacity="0.95" /><ellipse cx="0.00" cy="28.81" rx="18.52" ry="28.81" fill="#d7cabf" fill-opacity="0.95" /><ellipse cx="-20.37" cy="20.37" rx="18.52" ry="28.81" fill="#d7cabf" fill-opacity="0.95" /><ellipse cx="-28.81" cy="0.00" rx="18.52" ry="28.81" fill="#d7cabf" fill-opacity="0.95" /><ellipse cx="-20.37" cy="-20.37" rx="18.52" ry="28.81" fill="#d7cabf" fill-opacity="0.95" /><ellipse cx="-0.00" cy="-28.81" rx="18.52" ry="28.81" fill="#d7cabf" fill-opacity="0.95" /><ellipse cx="20.37" cy="-20.37" rx="18.52" ry="28.81" fill="#d7cabf" fill-opacity="0.95" />
        <circle cx="0" cy="0" r="18.52" fill="#8d6959" />
        <circle cx="0" cy="0" r="9.26" fill="#fff7f0" fill-opacity="0.72" />
      </g>
    </g>
    
    <g transform="translate(469.83 494.03) rotate(20.44)">
      <path d="M 0 0 C -8 94.26, 10 157.09, -6 230.40" stroke="#8ba08a" stroke-width="12.57" fill="none" stroke-linecap="round" />
      <ellipse cx="-20" cy="115.20" rx="23.04" ry="43.99" fill="#8ba08a" fill-opacity="0.75" transform="rotate(-24)" />
      <ellipse cx="28" cy="142.43" rx="20.95" ry="39.80" fill="#8ba08a" fill-opacity="0.66" transform="rotate(20)" />
      <g transform="translate(0 0)">
        <ellipse cx="29.32" cy="0.00" rx="18.85" ry="29.32" fill="#b58d76" fill-opacity="0.95" /><ellipse cx="20.74" cy="20.74" rx="18.85" ry="29.32" fill="#b58d76" fill-opacity="0.95" /><ellipse cx="0.00" cy="29.32" rx="18.85" ry="29.32" fill="#b58d76" fill-opacity="0.95" /><ellipse cx="-20.74" cy="20.74" rx="18.85" ry="29.32" fill="#b58d76" fill-opacity="0.95" /><ellipse cx="-29.32" cy="0.00" rx="18.85" ry="29.32" fill="#b58d76" fill-opacity="0.95" /><ellipse cx="-20.74" cy="-20.74" rx="18.85" ry="29.32" fill="#b58d76" fill-opacity="0.95" /><ellipse cx="-0.00" cy="-29.32" rx="18.85" ry="29.32" fill="#b58d76" fill-opacity="0.95" /><ellipse cx="20.74" cy="-20.74" rx="18.85" ry="29.32" fill="#b58d76" fill-opacity="0.95" />
        <circle cx="0" cy="0" r="18.85" fill="#8d6959" />
        <circle cx="0" cy="0" r="9.43" fill="#fff7f0" fill-opacity="0.72" />
      </g>
    </g>
    
    <g transform="translate(301.55 340.22) rotate(4.96)">
      <path d="M 0 0 C -8 77.11, 10 128.51, -6 188.49" stroke="#536d57" stroke-width="10.28" fill="none" stroke-linecap="round" />
      <ellipse cx="-20" cy="94.24" rx="18.85" ry="35.98" fill="#536d57" fill-opacity="0.75" transform="rotate(-24)" />
      <ellipse cx="28" cy="116.52" rx="17.14" ry="32.56" fill="#536d57" fill-opacity="0.66" transform="rotate(20)" />
      <g transform="translate(0 0)">
        <ellipse cx="23.99" cy="0.00" rx="15.42" ry="23.99" fill="#f1dccf" fill-opacity="0.95" /><ellipse cx="16.96" cy="16.96" rx="15.42" ry="23.99" fill="#f1dccf" fill-opacity="0.95" /><ellipse cx="0.00" cy="23.99" rx="15.42" ry="23.99" fill="#f1dccf" fill-opacity="0.95" /><ellipse cx="-16.96" cy="16.96" rx="15.42" ry="23.99" fill="#f1dccf" fill-opacity="0.95" /><ellipse cx="-23.99" cy="0.00" rx="15.42" ry="23.99" fill="#f1dccf" fill-opacity="0.95" /><ellipse cx="-16.96" cy="-16.96" rx="15.42" ry="23.99" fill="#f1dccf" fill-opacity="0.95" /><ellipse cx="-0.00" cy="-23.99" rx="15.42" ry="23.99" fill="#f1dccf" fill-opacity="0.95" /><ellipse cx="16.96" cy="-16.96" rx="15.42" ry="23.99" fill="#f1dccf" fill-opacity="0.95" />
        <circle cx="0" cy="0" r="15.42" fill="#8d6959" />
        <circle cx="0" cy="0" r="7.71" fill="#fff7f0" fill-opacity="0.72" />
      </g>
    </g>
    
    <g transform="translate(217.13 386.87) rotate(-15.68)">
      <path d="M 0 0 C -8 78.88, 10 131.47, -6 192.83" stroke="#6f8b70" stroke-width="10.52" fill="none" stroke-linecap="round" />
      <ellipse cx="-20" cy="96.41" rx="19.28" ry="36.81" fill="#6f8b70" fill-opacity="0.75" transform="rotate(-24)" />
      <ellipse cx="28" cy="119.20" rx="17.53" ry="33.31" fill="#6f8b70" fill-opacity="0.66" transform="rotate(20)" />
      <g transform="translate(0 0)">
        <ellipse cx="24.54" cy="0.00" rx="15.78" ry="24.54" fill="#f7ede0" fill-opacity="0.95" /><ellipse cx="17.35" cy="17.35" rx="15.78" ry="24.54" fill="#f7ede0" fill-opacity="0.95" /><ellipse cx="0.00" cy="24.54" rx="15.78" ry="24.54" fill="#f7ede0" fill-opacity="0.95" /><ellipse cx="-17.35" cy="17.35" rx="15.78" ry="24.54" fill="#f7ede0" fill-opacity="0.95" /><ellipse cx="-24.54" cy="0.00" rx="15.78" ry="24.54" fill="#f7ede0" fill-opacity="0.95" /><ellipse cx="-17.35" cy="-17.35" rx="15.78" ry="24.54" fill="#f7ede0" fill-opacity="0.95" /><ellipse cx="-0.00" cy="-24.54" rx="15.78" ry="24.54" fill="#f7ede0" fill-opacity="0.95" /><ellipse cx="17.35" cy="-17.35" rx="15.78" ry="24.54" fill="#f7ede0" fill-opacity="0.95" />
        <circle cx="0" cy="0" r="15.78" fill="#8d6959" />
        <circle cx="0" cy="0" r="7.89" fill="#fff7f0" fill-opacity="0.72" />
      </g>
    </g>
    
    <g transform="translate(561.64 349.64) rotate(-3.94)">
      <path d="M 0 0 C -8 112.02, 10 186.69, -6 273.81" stroke="#8ba08a" stroke-width="14.94" fill="none" stroke-linecap="round" />
      <ellipse cx="-20" cy="136.91" rx="27.38" ry="52.27" fill="#8ba08a" fill-opacity="0.75" transform="rotate(-24)" />
      <ellipse cx="28" cy="169.27" rx="24.89" ry="47.30" fill="#8ba08a" fill-opacity="0.66" transform="rotate(20)" />
      <g transform="translate(0 0)">
        <ellipse cx="34.85" cy="0.00" rx="22.40" ry="34.85" fill="#d7cabf" fill-opacity="0.95" /><ellipse cx="24.64" cy="24.64" rx="22.40" ry="34.85" fill="#d7cabf" fill-opacity="0.95" /><ellipse cx="0.00" cy="34.85" rx="22.40" ry="34.85" fill="#d7cabf" fill-opacity="0.95" /><ellipse cx="-24.64" cy="24.64" rx="22.40" ry="34.85" fill="#d7cabf" fill-opacity="0.95" /><ellipse cx="-34.85" cy="0.00" rx="22.40" ry="34.85" fill="#d7cabf" fill-opacity="0.95" /><ellipse cx="-24.64" cy="-24.64" rx="22.40" ry="34.85" fill="#d7cabf" fill-opacity="0.95" /><ellipse cx="-0.00" cy="-34.85" rx="22.40" ry="34.85" fill="#d7cabf" fill-opacity="0.95" /><ellipse cx="24.64" cy="-24.64" rx="22.40" ry="34.85" fill="#d7cabf" fill-opacity="0.95" />
        <circle cx="0" cy="0" r="22.40" fill="#8d6959" />
        <circle cx="0" cy="0" r="11.20" fill="#fff7f0" fill-opacity="0.72" />
      </g>
    </g>
    
    <g transform="translate(204.94 510.81) rotate(3.56)">
      <path d="M 0 0 C -8 100.68, 10 167.80, -6 246.11" stroke="#536d57" stroke-width="13.42" fill="none" stroke-linecap="round" />
      <ellipse cx="-20" cy="123.05" rx="24.61" ry="46.98" fill="#536d57" fill-opacity="0.75" transform="rotate(-24)" />
      <ellipse cx="28" cy="152.14" rx="22.37" ry="42.51" fill="#536d57" fill-opacity="0.66" transform="rotate(20)" />
      <g transform="translate(0 0)">
        <ellipse cx="31.32" cy="0.00" rx="20.14" ry="31.32" fill="#b58d76" fill-opacity="0.95" /><ellipse cx="22.15" cy="22.15" rx="20.14" ry="31.32" fill="#b58d76" fill-opacity="0.95" /><ellipse cx="0.00" cy="31.32" rx="20.14" ry="31.32" fill="#b58d76" fill-opacity="0.95" /><ellipse cx="-22.15" cy="22.15" rx="20.14" ry="31.32" fill="#b58d76" fill-opacity="0.95" /><ellipse cx="-31.32" cy="0.00" rx="20.14" ry="31.32" fill="#b58d76" fill-opacity="0.95" /><ellipse cx="-22.15" cy="-22.15" rx="20.14" ry="31.32" fill="#b58d76" fill-opacity="0.95" /><ellipse cx="-0.00" cy="-31.32" rx="20.14" ry="31.32" fill="#b58d76" fill-opacity="0.95" /><ellipse cx="22.15" cy="-22.15" rx="20.14" ry="31.32" fill="#b58d76" fill-opacity="0.95" />
        <circle cx="0" cy="0" r="20.14" fill="#8d6959" />
        <circle cx="0" cy="0" r="10.07" fill="#fff7f0" fill-opacity="0.72" />
      </g>
    </g>
    
  </g>
  <path d="M0 980 C220 920, 420 1030, 900 930 L900 1100 L0 1100 Z" fill="#ffffff" fill-opacity="0.22" />
</svg>
