<svg xmlns="http://www.w3.org/2000/svg" width="900" height="1100" viewBox="0 0 900 1100">
  <defs>
    <linearGradient id="bg" x1="0" y1="0" x2="0" y2="1">
      <stop offset="0%" stop-color="#f3f0ea" />
      <stop offset="100%" stop-color="#e8ece7" />
    </linearGradient>
    <filter id="shadow" x="-20%" y="-20%" width="140%" height="140%">
      <feDropShadow dx="0" dy="22" stdDeviation="24" flood-color="#6c5d4f" flood-opacity="0.12" />
    </filter>
  </defs>
  <rect width="100%" height="100%" fill="url(#bg)" />
  <circle cx="730" cy="180" r="140" fill="#ffffff" fill-opacity="0.18" />
  <circle cx="150" cy="260" r="90" fill="#ffffff" fill-opacity="0.12" />
  
      <rect x="70" y="72" width="300" height="92" rx="24" fill="#ffffff" fill-opacity="0.34" />
      <text x="98" y="120" fill="#2f3a31" font-size="32" font-family="'PingFang SC','Microsoft YaHei',sans-serif" font-weight="600">活动花境</text>
      <text x="98" y="152" fill="#4e6152" font-size="18" font-family="'PingFang SC','Microsoft YaHei',sans-serif">橱窗 · 展陈</text>
    
  <g filter="url(#shadow)">
    <ellipse cx="450" cy="955" rx="280" ry="90" fill="#d9cec2" fill-opacity="0.55" /><rect x="220" y="820" width="460" height="170" rx="18" fill="#f2ece5" fill-opacity="0.65" />
  </g>
  <g>
    
    <g transform="translate(492.83 546.72) rotate(18.48)">
      <path d="M 0 0 C -8 99.31, 10 165.52, -6 242.76" stroke="#536d57" stroke-width="13.24" fill="none" stroke-linecap="round" />
      <ellipse cx="-20" cy="121.38" rx="24.28" ry="46.35" fill="#536d57" fill-opacity="0.75" transform="rotate(-24)" />
      <ellipse cx="28" cy="150.07" rx="22.07" ry="41.93" fill="#536d57" fill-opacity="0.66" transform="rotate(20)" />
      <g transform="translate(0 0)">
        <ellipse cx="30.90" cy="0.00" rx="19.86" ry="30.90" fill="#f7ede0" fill-opacity="0.95" /><ellipse cx="21.85" cy="21.85" rx="19.86" ry="30.90" fill="#f7ede0" fill-opacity="0.95" /><ellipse cx="0.00" cy="30.90" rx="19.86" ry="30.90" fill="#f7ede0" fill-opacity="0.95" /><ellipse cx="-21.85" cy="21.85" rx="19.86" ry="30.90" fill="#f7ede0" fill-opacity="0.95" /><ellipse cx="-30.90" cy="0.00" rx="19.86" ry="30.90" fill="#f7ede0" fill-opacity="0.95" /><ellipse cx="-21.85" cy="-21.85" rx="19.86" ry="30.90" fill="#f7ede0" fill-opacity="0.95" /><ellipse cx="-0.00" cy="-30.90" rx="19.86" ry="30.90" fill="#f7ede0" fill-opacity="0.95" /><ellipse cx="21.85" cy="-21.85" rx="19.86" ry="30.90" fill="#f7ede0" fill-opacity="0.95" />
        <circle cx="0" cy="0" r="19.86" fill="#8d6959" />
        <circle cx="0" cy="0" r="9.93" fill="#fff7f0" fill-opacity="0.72" />
      </g>
    </g>
    
    <g transform="translate(220.87 386.24) rotate(22.41)">
      <path d="M 0 0 C -8 112.10, 10 186.83, -6 274.01" stroke="#6f8b70" stroke-width="14.95" fill="none" stroke-linecap="round" />
      <ellipse cx="-20" cy="137.01" rx="27.40" ry="52.31" fill="#6f8b70" fill-opacity="0.75" transform="rotate(-24)" />
      <ellipse cx="28" cy="169.39" rx="24.91" ry="47.33" fill="#6f8b70" fill-opacity="0.66" transform="rotate(20)" />
      <g transform="translate(0 0)">
        <ellipse cx="34.87" cy="0.00" rx="22.42" ry="34.87" fill="#d7cabf" fill-opacity="0.95" /><ellipse cx="24.66" cy="24.66" rx="22.42" ry="34.87" fill="#d7cabf" fill-opacity="0.95" /><ellipse cx="0.00" cy="34.87" rx="22.42" ry="34.87" fill="#d7cabf" fill-opacity="0.95" /><ellipse cx="-24.66" cy="24.66" rx="22.42" ry="34.87" fill="#d7cabf" fill-opacity="0.95" /><ellipse cx="-34.87" cy="0.00" rx="22.42" ry="34.87" fill="#d7cabf" fill-opacity="0.95" /><ellipse cx="-24.66" cy="-24.66" rx="22.42" ry="34.87" fill="#d7cabf" fill-opacity="0.95" /><ellipse cx="-0.00" cy="-34.87" rx="22.42" ry="34.87" fill="#d7cabf" fill-opacity="0.95" /><ellipse cx="24.66" cy="-24.66" rx="22.42" ry="34.87" fill="#d7cabf" fill-opacity="0.95" />
        <circle cx="0" cy="0" r="22.42" fill="#8d6959" />
        <circle cx="0" cy="0" r="11.21" fill="#fff7f0" fill-opacity="0.72" />
      </g>
    </g>
    
    <g transform="translate(627.55 500.70) rotate(9.26)">
      <path d="M 0 0 C -8 94.44, 10 157.40, -6 230.86" stroke="#8ba08a" stroke-width="12.59" fill="none" stroke-linecap="round" />
      <ellipse cx="-20" cy="115.43" rx="23.09" ry="44.07" fill="#8ba08a" fill-opacity="0.75" transform="rotate(-24)" />
      <ellipse cx="28" cy="142.71" rx="20.99" ry="39.88" fill="#8ba08a" fill-opacity="0.66" transform="rotate(20)" />
      <g transform="translate(0 0)">
        <ellipse cx="29.38" cy="0.00" rx="18.89" ry="29.38" fill="#b58d76" fill-opacity="0.95" /><ellipse cx="20.78" cy="20.78" rx="18.89" ry="29.38" fill="#b58d76" fill-opacity="0.95" /><ellipse cx="0.00" cy="29.38" rx="18.89" ry="29.38" fill="#b58d76" fill-opacity="0.95" /><ellipse cx="-20.78" cy="20.78" rx="18.89" ry="29.38" fill="#b58d76" fill-opacity="0.95" /><ellipse cx="-29.38" cy="0.00" rx="18.89" ry="29.38" fill="#b58d76" fill-opacity="0.95" /><ellipse cx="-20.78" cy="-20.78" rx="18.89" ry="29.38" fill="#b58d76" fill-opacity="0.95" /><ellipse cx="-0.00" cy="-29.38" rx="18.89" ry="29.38" fill="#b58d76" fill-opacity="0.95" /><ellipse cx="20.78" cy="-20.78" rx="18.89" ry="29.38" fill="#b58d76" fill-opacity="0.95" />
        <circle cx="0" cy="0" r="18.89" fill="#8d6959" />
        <circle cx="0" cy="0" r="9.44" fill="#fff7f0" fill-opacity="0.72" />
      </g>
    </g>
    
    <g transform="translate(355.00 405.74) rotate(6.66)">
      <path d="M 0 0 C -8 71.94, 10 119.90, -6 175.85" stroke="#536d57" stroke-width="9.59" fill="none" stroke-linecap="round" />
      <ellipse cx="-20" cy="87.92" rx="17.58" ry="33.57" fill="#536d57" fill-opacity="0.75" transform="rotate(-24)" />
      <ellipse cx="28" cy="108.71" rx="15.99" ry="30.37" fill="#536d57" fill-opacity="0.66" transform="rotate(20)" />
      <g transform="translate(0 0)">
        <ellipse cx="22.38" cy="0.00" rx="14.39" ry="22.38" fill="#f1dccf" fill-opacity="0.95" /><ellipse cx="15.83" cy="15.83" rx="14.39" ry="22.38" fill="#f1dccf" fill-opacity="0.95" /><ellipse cx="0.00" cy="22.38" rx="14.39" ry="22.38" fill="#f1dccf" fill-opacity="0.95" /><ellipse cx="-15.83" cy="15.83" rx="14.39" ry="22.38" fill="#f1dccf" fill-opacity="0.95" /><ellipse cx="-22.38" cy="0.00" rx="14.39" ry="22.38" fill="#f1dccf" fill-opacity="0.95" /><ellipse cx="-15.83" cy="-15.83" rx="14.39" ry="22.38" fill="#f1dccf" fill-opacity="0.95" /><ellipse cx="-0.00" cy="-22.38" rx="14.39" ry="22.38" fill="#f1dccf" fill-opacity="0.95" /><ellipse cx="15.83" cy="-15.83" rx="14.39" ry="22.38" fill="#f1dccf" fill-opacity="0.95" />
        <circle cx="0" cy="0" r="14.39" fill="#8d6959" />
        <circle cx="0" cy="0" r="7.19" fill="#fff7f0" fill-opacity="0.72" />
      </g>
    </g>
    
    <g transform="translate(442.51 429.06) rotate(9.16)">
      <path d="M 0 0 C -8 114.95, 10 191.59, -6 281.00" stroke="#6f8b70" stroke-width="15.33" fill="none" stroke-linecap="round" />
      <ellipse cx="-20" cy="140.50" rx="28.10" ry="53.64" fill="#6f8b70" fill-opacity="0.75" transform="rotate(-24)" />
      <ellipse cx="28" cy="173.71" rx="25.55" ry="48.54" fill="#6f8b70" fill-opacity="0.66" transform="rotate(20)" />
      <g transform="translate(0 0)">
        <ellipse cx="35.76" cy="0.00" rx="22.99" ry="35.76" fill="#f7ede0" fill-opacity="0.95" /><ellipse cx="25.29" cy="25.29" rx="22.99" ry="35.76" fill="#f7ede0" fill-opacity="0.95" /><ellipse cx="0.00" cy="35.76" rx="22.99" ry="35.76" fill="#f7ede0" fill-opacity="0.95" /><ellipse cx="-25.29" cy="25.29" rx="22.99" ry="35.76" fill="#f7ede0" fill-opacity="0.95" /><ellipse cx="-35.76" cy="0.00" rx="22.99" ry="35.76" fill="#f7ede0" fill-opacity="0.95" /><ellipse cx="-25.29" cy="-25.29" rx="22.99" ry="35.76" fill="#f7ede0" fill-opacity="0.95" /><ellipse cx="-0.00" cy="-35.76" rx="22.99" ry="35.76" fill="#f7ede0" fill-opacity="0.95" /><ellipse cx="25.29" cy="-25.29" rx="22.99" ry="35.76" fill="#f7ede0" fill-opacity="0.95" />
        <circle cx="0" cy="0" r="22.99" fill="#8d6959" />
        <circle cx="0" cy="0" r="11.50" fill="#fff7f0" fill-opacity="0.72" />
      </g>
    </g>
    
    <g transform="translate(657.59 379.54) rotate(-15.10)">
      <path d="M 0 0 C -8 79.48, 10 132.47, -6 194.28" stroke="#8ba08a" stroke-width="10.60" fill="none" stroke-linecap="round" />
      <ellipse cx="-20" cy="97.14" rx="19.43" ry="37.09" fill="#8ba08a" fill-opacity="0.75" transform="rotate(-24)" />
      <ellipse cx="28" cy="120.10" rx="17.66" ry="33.56" fill="#8ba08a" fill-opacity="0.66" transform="rotate(20)" />
      <g transform="translate(0 0)">
        <ellipse cx="24.73" cy="0.00" rx="15.90" ry="24.73" fill="#d7cabf" fill-opacity="0.95" /><ellipse cx="17.48" cy="17.48" rx="15.90" ry="24.73" fill="#d7cabf" fill-opacity="0.95" /><ellipse cx="0.00" cy="24.73" rx="15.90" ry="24.73" fill="#d7cabf" fill-opacity="0.95" /><ellipse cx="-17.48" cy="17.48" rx="15.90" ry="24.73" fill="#d7cabf" fill-opacity="0.95" /><ellipse cx="-24.73" cy="0.00" rx="15.90" ry="24.73" fill="#d7cabf" fill-opacity="0.95" /><ellipse cx="-17.48" cy="-17.48" rx="15.90" ry="24.73" fill="#d7cabf" fill-opacity="0.95" /><ellipse cx="-0.00" cy="-24.73" rx="15.90" ry="24.73" fill="#d7cabf" fill-opacity="0.95" /><ellipse cx="17.48" cy="-17.48" rx="15.90" ry="24.73" fill="#d7cabf" fill-opacity="0.95" />
        <circle cx="0" cy="0" r="15.90" fill="#8d6959" />
        <circle cx="0" cy="0" r="7.95" fill="#fff7f0" fill-opacity="0.72" />
      </g>
    </g>
    
    <g transform="translate(681.13 326.85) rotate(-18.93)">
      <path d="M 0 0 C -8 77.93, 10 129.88, -6 190.50" stroke="#536d57" stroke-width="10.39" fill="none" stroke-linecap="round" />
      <ellipse cx="-20" cy="95.25" rx="19.05" ry="36.37" fill="#536d57" fill-opacity="0.75" transform="rotate(-24)" />
      <ellipse cx="28" cy="117.76" rx="17.32" ry="32.90" fill="#536d57" fill-opacity="0.66" transform="rotate(20)" />
      <g transform="translate(0 0)">
        <ellipse cx="24.25" cy="0.00" rx="15.59" ry="24.25" fill="#b58d76" fill-opacity="0.95" /><ellipse cx="17.14" cy="17.14" rx="15.59" ry="24.25" fill="#b58d76" fill-opacity="0.95" /><ellipse cx="0.00" cy="24.25" rx="15.59" ry="24.25" fill="#b58d76" fill-opacity="0.95" /><ellipse cx="-17.14" cy="17.14" rx="15.59" ry="24.25" fill="#b58d76" fill-opacity="0.95" /><ellipse cx="-24.25" cy="0.00" rx="15.59" ry="24.25" fill="#b58d76" fill-opacity="0.95" /><ellipse cx="-17.14" cy="-17.14" rx="15.59" ry="24.25" fill="#b58d76" fill-opacity="0.95" /><ellipse cx="-0.00" cy="-24.25" rx="15.59" ry="24.25" fill="#b58d76" fill-opacity="0.95" /><ellipse cx="17.14" cy="-17.14" rx="15.59" ry="24.25" fill="#b58d76" fill-opacity="0.95" />
        <circle cx="0" cy="0" r="15.59" fill="#8d6959" />
        <circle cx="0" cy="0" r="7.79" fill="#fff7f0" fill-opacity="0.72" />
      </g>
    </g>
    
  </g>
  <path d="M0 980 C220 920, 420 1030, 900 930 L900 1100 L0 1100 Z" fill="#ffffff" fill-opacity="0.22" />
</svg>
