<svg xmlns="http://www.w3.org/2000/svg" width="900" height="1100" viewBox="0 0 900 1100">
  <defs>
    <linearGradient id="bg" x1="0" y1="0" x2="0" y2="1">
      <stop offset="0%" stop-color="#f3f0ea" />
      <stop offset="100%" stop-color="#e8ece7" />
    </linearGradient>
    <filter id="shadow" x="-20%" y="-20%" width="140%" height="140%">
      <feDropShadow dx="0" dy="22" stdDeviation="24" flood-color="#6c5d4f" flood-opacity="0.12" />
    </filter>
  </defs>
  <rect width="100%" height="100%" fill="url(#bg)" />
  <circle cx="730" cy="180" r="140" fill="#ffffff" fill-opacity="0.18" />
  <circle cx="150" cy="260" r="90" fill="#ffffff" fill-opacity="0.12" />
  
      <rect x="70" y="72" width="300" height="92" rx="24" fill="#ffffff" fill-opacity="0.34" />
      <text x="98" y="120" fill="#2f3a31" font-size="32" font-family="'PingFang SC','Microsoft YaHei',sans-serif" font-weight="600">宴庭森叙</text>
      <text x="98" y="152" fill="#4e6152" font-size="18" font-family="'PingFang SC','Microsoft YaHei',sans-serif">定制 · 品牌活动</text>
    
  <g filter="url(#shadow)">
    <ellipse cx="450" cy="955" rx="280" ry="90" fill="#d9cec2" fill-opacity="0.55" /><rect x="220" y="820" width="460" height="170" rx="18" fill="#f2ece5" fill-opacity="0.65" />
  </g>
  <g>
    
    <g transform="translate(438.49 509.26) rotate(-19.57)">
      <path d="M 0 0 C -8 72.24, 10 120.40, -6 176.59" stroke="#536d57" stroke-width="9.63" fill="none" stroke-linecap="round" />
      <ellipse cx="-20" cy="88.29" rx="17.66" ry="33.71" fill="#536d57" fill-opacity="0.75" transform="rotate(-24)" />
      <ellipse cx="28" cy="109.16" rx="16.05" ry="30.50" fill="#536d57" fill-opacity="0.66" transform="rotate(20)" />
      <g transform="translate(0 0)">
        <ellipse cx="22.48" cy="0.00" rx="14.45" ry="22.48" fill="#f7ede0" fill-opacity="0.95" /><ellipse cx="15.89" cy="15.89" rx="14.45" ry="22.48" fill="#f7ede0" fill-opacity="0.95" /><ellipse cx="0.00" cy="22.48" rx="14.45" ry="22.48" fill="#f7ede0" fill-opacity="0.95" /><ellipse cx="-15.89" cy="15.89" rx="14.45" ry="22.48" fill="#f7ede0" fill-opacity="0.95" /><ellipse cx="-22.48" cy="0.00" rx="14.45" ry="22.48" fill="#f7ede0" fill-opacity="0.95" /><ellipse cx="-15.89" cy="-15.89" rx="14.45" ry="22.48" fill="#f7ede0" fill-opacity="0.95" /><ellipse cx="-0.00" cy="-22.48" rx="14.45" ry="22.48" fill="#f7ede0" fill-opacity="0.95" /><ellipse cx="15.89" cy="-15.89" rx="14.45" ry="22.48" fill="#f7ede0" fill-opacity="0.95" />
        <circle cx="0" cy="0" r="14.45" fill="#8d6959" />
        <circle cx="0" cy="0" r="7.22" fill="#fff7f0" fill-opacity="0.72" />
      </g>
    </g>
    
    <g transform="translate(190.51 503.24) rotate(-18.45)">
      <path d="M 0 0 C -8 89.78, 10 149.64, -6 219.47" stroke="#6f8b70" stroke-width="11.97" fill="none" stroke-linecap="round" />
      <ellipse cx="-20" cy="109.73" rx="21.95" ry="41.90" fill="#6f8b70" fill-opacity="0.75" transform="rotate(-24)" />
      <ellipse cx="28" cy="135.67" rx="19.95" ry="37.91" fill="#6f8b70" fill-opacity="0.66" transform="rotate(20)" />
      <g transform="translate(0 0)">
        <ellipse cx="27.93" cy="0.00" rx="17.96" ry="27.93" fill="#d7cabf" fill-opacity="0.95" /><ellipse cx="19.75" cy="19.75" rx="17.96" ry="27.93" fill="#d7cabf" fill-opacity="0.95" /><ellipse cx="0.00" cy="27.93" rx="17.96" ry="27.93" fill="#d7cabf" fill-opacity="0.95" /><ellipse cx="-19.75" cy="19.75" rx="17.96" ry="27.93" fill="#d7cabf" fill-opacity="0.95" /><ellipse cx="-27.93" cy="0.00" rx="17.96" ry="27.93" fill="#d7cabf" fill-opacity="0.95" /><ellipse cx="-19.75" cy="-19.75" rx="17.96" ry="27.93" fill="#d7cabf" fill-opacity="0.95" /><ellipse cx="-0.00" cy="-27.93" rx="17.96" ry="27.93" fill="#d7cabf" fill-opacity="0.95" /><ellipse cx="19.75" cy="-19.75" rx="17.96" ry="27.93" fill="#d7cabf" fill-opacity="0.95" />
        <circle cx="0" cy="0" r="17.96" fill="#8d6959" />
        <circle cx="0" cy="0" r="8.98" fill="#fff7f0" fill-opacity="0.72" />
      </g>
    </g>
    
    <g transform="translate(354.97 492.32) rotate(-22.80)">
      <path d="M 0 0 C -8 97.91, 10 163.19, -6 239.35" stroke="#8ba08a" stroke-width="13.06" fill="none" stroke-linecap="round" />
      <ellipse cx="-20" cy="119.67" rx="23.93" ry="45.69" fill="#8ba08a" fill-opacity="0.75" transform="rotate(-24)" />
      <ellipse cx="28" cy="147.96" rx="21.76" ry="41.34" fill="#8ba08a" fill-opacity="0.66" transform="rotate(20)" />
      <g transform="translate(0 0)">
        <ellipse cx="30.46" cy="0.00" rx="19.58" ry="30.46" fill="#b58d76" fill-opacity="0.95" /><ellipse cx="21.54" cy="21.54" rx="19.58" ry="30.46" fill="#b58d76" fill-opacity="0.95" /><ellipse cx="0.00" cy="30.46" rx="19.58" ry="30.46" fill="#b58d76" fill-opacity="0.95" /><ellipse cx="-21.54" cy="21.54" rx="19.58" ry="30.46" fill="#b58d76" fill-opacity="0.95" /><ellipse cx="-30.46" cy="0.00" rx="19.58" ry="30.46" fill="#b58d76" fill-opacity="0.95" /><ellipse cx="-21.54" cy="-21.54" rx="19.58" ry="30.46" fill="#b58d76" fill-opacity="0.95" /><ellipse cx="-0.00" cy="-30.46" rx="19.58" ry="30.46" fill="#b58d76" fill-opacity="0.95" /><ellipse cx="21.54" cy="-21.54" rx="19.58" ry="30.46" fill="#b58d76" fill-opacity="0.95" />
        <circle cx="0" cy="0" r="19.58" fill="#8d6959" />
        <circle cx="0" cy="0" r="9.79" fill="#fff7f0" fill-opacity="0.72" />
      </g>
    </g>
    
    <g transform="translate(605.30 352.18) rotate(5.34)">
      <path d="M 0 0 C -8 88.43, 10 147.38, -6 216.15" stroke="#536d57" stroke-width="11.79" fill="none" stroke-linecap="round" />
      <ellipse cx="-20" cy="108.08" rx="21.62" ry="41.27" fill="#536d57" fill-opacity="0.75" transform="rotate(-24)" />
      <ellipse cx="28" cy="133.62" rx="19.65" ry="37.34" fill="#536d57" fill-opacity="0.66" transform="rotate(20)" />
      <g transform="translate(0 0)">
        <ellipse cx="27.51" cy="0.00" rx="17.69" ry="27.51" fill="#f1dccf" fill-opacity="0.95" /><ellipse cx="19.45" cy="19.45" rx="17.69" ry="27.51" fill="#f1dccf" fill-opacity="0.95" /><ellipse cx="0.00" cy="27.51" rx="17.69" ry="27.51" fill="#f1dccf" fill-opacity="0.95" /><ellipse cx="-19.45" cy="19.45" rx="17.69" ry="27.51" fill="#f1dccf" fill-opacity="0.95" /><ellipse cx="-27.51" cy="0.00" rx="17.69" ry="27.51" fill="#f1dccf" fill-opacity="0.95" /><ellipse cx="-19.45" cy="-19.45" rx="17.69" ry="27.51" fill="#f1dccf" fill-opacity="0.95" /><ellipse cx="-0.00" cy="-27.51" rx="17.69" ry="27.51" fill="#f1dccf" fill-opacity="0.95" /><ellipse cx="19.45" cy="-19.45" rx="17.69" ry="27.51" fill="#f1dccf" fill-opacity="0.95" />
        <circle cx="0" cy="0" r="17.69" fill="#8d6959" />
        <circle cx="0" cy="0" r="8.84" fill="#fff7f0" fill-opacity="0.72" />
      </g>
    </g>
    
    <g transform="translate(423.86 493.11) rotate(16.85)">
      <path d="M 0 0 C -8 106.20, 10 177.01, -6 259.61" stroke="#6f8b70" stroke-width="14.16" fill="none" stroke-linecap="round" />
      <ellipse cx="-20" cy="129.81" rx="25.96" ry="49.56" fill="#6f8b70" fill-opacity="0.75" transform="rotate(-24)" />
      <ellipse cx="28" cy="160.49" rx="23.60" ry="44.84" fill="#6f8b70" fill-opacity="0.66" transform="rotate(20)" />
      <g transform="translate(0 0)">
        <ellipse cx="33.04" cy="0.00" rx="21.24" ry="33.04" fill="#f7ede0" fill-opacity="0.95" /><ellipse cx="23.36" cy="23.36" rx="21.24" ry="33.04" fill="#f7ede0" fill-opacity="0.95" /><ellipse cx="0.00" cy="33.04" rx="21.24" ry="33.04" fill="#f7ede0" fill-opacity="0.95" /><ellipse cx="-23.36" cy="23.36" rx="21.24" ry="33.04" fill="#f7ede0" fill-opacity="0.95" /><ellipse cx="-33.04" cy="0.00" rx="21.24" ry="33.04" fill="#f7ede0" fill-opacity="0.95" /><ellipse cx="-23.36" cy="-23.36" rx="21.24" ry="33.04" fill="#f7ede0" fill-opacity="0.95" /><ellipse cx="-0.00" cy="-33.04" rx="21.24" ry="33.04" fill="#f7ede0" fill-opacity="0.95" /><ellipse cx="23.36" cy="-23.36" rx="21.24" ry="33.04" fill="#f7ede0" fill-opacity="0.95" />
        <circle cx="0" cy="0" r="21.24" fill="#8d6959" />
        <circle cx="0" cy="0" r="10.62" fill="#fff7f0" fill-opacity="0.72" />
      </g>
    </g>
    
    <g transform="translate(349.31 398.56) rotate(11.97)">
      <path d="M 0 0 C -8 105.61, 10 176.01, -6 258.15" stroke="#8ba08a" stroke-width="14.08" fill="none" stroke-linecap="round" />
      <ellipse cx="-20" cy="129.07" rx="25.81" ry="49.28" fill="#8ba08a" fill-opacity="0.75" transform="rotate(-24)" />
      <ellipse cx="28" cy="159.58" rx="23.47" ry="44.59" fill="#8ba08a" fill-opacity="0.66" transform="rotate(20)" />
      <g transform="translate(0 0)">
        <ellipse cx="32.85" cy="0.00" rx="21.12" ry="32.85" fill="#d7cabf" fill-opacity="0.95" /><ellipse cx="23.23" cy="23.23" rx="21.12" ry="32.85" fill="#d7cabf" fill-opacity="0.95" /><ellipse cx="0.00" cy="32.85" rx="21.12" ry="32.85" fill="#d7cabf" fill-opacity="0.95" /><ellipse cx="-23.23" cy="23.23" rx="21.12" ry="32.85" fill="#d7cabf" fill-opacity="0.95" /><ellipse cx="-32.85" cy="0.00" rx="21.12" ry="32.85" fill="#d7cabf" fill-opacity="0.95" /><ellipse cx="-23.23" cy="-23.23" rx="21.12" ry="32.85" fill="#d7cabf" fill-opacity="0.95" /><ellipse cx="-0.00" cy="-32.85" rx="21.12" ry="32.85" fill="#d7cabf" fill-opacity="0.95" /><ellipse cx="23.23" cy="-23.23" rx="21.12" ry="32.85" fill="#d7cabf" fill-opacity="0.95" />
        <circle cx="0" cy="0" r="21.12" fill="#8d6959" />
        <circle cx="0" cy="0" r="10.56" fill="#fff7f0" fill-opacity="0.72" />
      </g>
    </g>
    
    <g transform="translate(453.78 415.09) rotate(17.94)">
      <path d="M 0 0 C -8 106.31, 10 177.18, -6 259.86" stroke="#536d57" stroke-width="14.17" fill="none" stroke-linecap="round" />
      <ellipse cx="-20" cy="129.93" rx="25.99" ry="49.61" fill="#536d57" fill-opacity="0.75" transform="rotate(-24)" />
      <ellipse cx="28" cy="160.64" rx="23.62" ry="44.88" fill="#536d57" fill-opacity="0.66" transform="rotate(20)" />
      <g transform="translate(0 0)">
        <ellipse cx="33.07" cy="0.00" rx="21.26" ry="33.07" fill="#b58d76" fill-opacity="0.95" /><ellipse cx="23.39" cy="23.39" rx="21.26" ry="33.07" fill="#b58d76" fill-opacity="0.95" /><ellipse cx="0.00" cy="33.07" rx="21.26" ry="33.07" fill="#b58d76" fill-opacity="0.95" /><ellipse cx="-23.39" cy="23.39" rx="21.26" ry="33.07" fill="#b58d76" fill-opacity="0.95" /><ellipse cx="-33.07" cy="0.00" rx="21.26" ry="33.07" fill="#b58d76" fill-opacity="0.95" /><ellipse cx="-23.39" cy="-23.39" rx="21.26" ry="33.07" fill="#b58d76" fill-opacity="0.95" /><ellipse cx="-0.00" cy="-33.07" rx="21.26" ry="33.07" fill="#b58d76" fill-opacity="0.95" /><ellipse cx="23.39" cy="-23.39" rx="21.26" ry="33.07" fill="#b58d76" fill-opacity="0.95" />
        <circle cx="0" cy="0" r="21.26" fill="#8d6959" />
        <circle cx="0" cy="0" r="10.63" fill="#fff7f0" fill-opacity="0.72" />
      </g>
    </g>
    
  </g>
  <path d="M0 980 C220 920, 420 1030, 900 930 L900 1100 L0 1100 Z" fill="#ffffff" fill-opacity="0.22" />
</svg>
