<svg xmlns="http://www.w3.org/2000/svg" width="900" height="1100" viewBox="0 0 900 1100">
  <defs>
    <linearGradient id="bg" x1="0" y1="0" x2="0" y2="1">
      <stop offset="0%" stop-color="#f3f0ea" />
      <stop offset="100%" stop-color="#e8ece7" />
    </linearGradient>
    <filter id="shadow" x="-20%" y="-20%" width="140%" height="140%">
      <feDropShadow dx="0" dy="22" stdDeviation="24" flood-color="#6c5d4f" flood-opacity="0.12" />
    </filter>
  </defs>
  <rect width="100%" height="100%" fill="url(#bg)" />
  <circle cx="730" cy="180" r="140" fill="#ffffff" fill-opacity="0.18" />
  <circle cx="150" cy="260" r="90" fill="#ffffff" fill-opacity="0.12" />
  
      <rect x="70" y="72" width="300" height="92" rx="24" fill="#ffffff" fill-opacity="0.34" />
      <text x="98" y="120" fill="#2f3a31" font-size="32" font-family="'PingFang SC','Microsoft YaHei',sans-serif" font-weight="600">橱窗留白</text>
      <text x="98" y="152" fill="#4e6152" font-size="18" font-family="'PingFang SC','Microsoft YaHei',sans-serif">宴会 · 餐桌花艺</text>
    
  <g filter="url(#shadow)">
    <ellipse cx="450" cy="955" rx="280" ry="90" fill="#d9cec2" fill-opacity="0.55" /><rect x="220" y="820" width="460" height="170" rx="18" fill="#f2ece5" fill-opacity="0.65" />
  </g>
  <g>
    
    <g transform="translate(391.62 510.34) rotate(-14.44)">
      <path d="M 0 0 C -8 70.26, 10 117.10, -6 171.75" stroke="#536d57" stroke-width="9.37" fill="none" stroke-linecap="round" />
      <ellipse cx="-20" cy="85.88" rx="17.18" ry="32.79" fill="#536d57" fill-opacity="0.75" transform="rotate(-24)" />
      <ellipse cx="28" cy="106.17" rx="15.61" ry="29.67" fill="#536d57" fill-opacity="0.66" transform="rotate(20)" />
      <g transform="translate(0 0)">
        <ellipse cx="21.86" cy="0.00" rx="14.05" ry="21.86" fill="#f7ede0" fill-opacity="0.95" /><ellipse cx="15.46" cy="15.46" rx="14.05" ry="21.86" fill="#f7ede0" fill-opacity="0.95" /><ellipse cx="0.00" cy="21.86" rx="14.05" ry="21.86" fill="#f7ede0" fill-opacity="0.95" /><ellipse cx="-15.46" cy="15.46" rx="14.05" ry="21.86" fill="#f7ede0" fill-opacity="0.95" /><ellipse cx="-21.86" cy="0.00" rx="14.05" ry="21.86" fill="#f7ede0" fill-opacity="0.95" /><ellipse cx="-15.46" cy="-15.46" rx="14.05" ry="21.86" fill="#f7ede0" fill-opacity="0.95" /><ellipse cx="-0.00" cy="-21.86" rx="14.05" ry="21.86" fill="#f7ede0" fill-opacity="0.95" /><ellipse cx="15.46" cy="-15.46" rx="14.05" ry="21.86" fill="#f7ede0" fill-opacity="0.95" />
        <circle cx="0" cy="0" r="14.05" fill="#8d6959" />
        <circle cx="0" cy="0" r="7.03" fill="#fff7f0" fill-opacity="0.72" />
      </g>
    </g>
    
    <g transform="translate(340.02 367.61) rotate(4.41)">
      <path d="M 0 0 C -8 89.41, 10 149.02, -6 218.57" stroke="#6f8b70" stroke-width="11.92" fill="none" stroke-linecap="round" />
      <ellipse cx="-20" cy="109.28" rx="21.86" ry="41.73" fill="#6f8b70" fill-opacity="0.75" transform="rotate(-24)" />
      <ellipse cx="28" cy="135.11" rx="19.87" ry="37.75" fill="#6f8b70" fill-opacity="0.66" transform="rotate(20)" />
      <g transform="translate(0 0)">
        <ellipse cx="27.82" cy="0.00" rx="17.88" ry="27.82" fill="#d7cabf" fill-opacity="0.95" /><ellipse cx="19.67" cy="19.67" rx="17.88" ry="27.82" fill="#d7cabf" fill-opacity="0.95" /><ellipse cx="0.00" cy="27.82" rx="17.88" ry="27.82" fill="#d7cabf" fill-opacity="0.95" /><ellipse cx="-19.67" cy="19.67" rx="17.88" ry="27.82" fill="#d7cabf" fill-opacity="0.95" /><ellipse cx="-27.82" cy="0.00" rx="17.88" ry="27.82" fill="#d7cabf" fill-opacity="0.95" /><ellipse cx="-19.67" cy="-19.67" rx="17.88" ry="27.82" fill="#d7cabf" fill-opacity="0.95" /><ellipse cx="-0.00" cy="-27.82" rx="17.88" ry="27.82" fill="#d7cabf" fill-opacity="0.95" /><ellipse cx="19.67" cy="-19.67" rx="17.88" ry="27.82" fill="#d7cabf" fill-opacity="0.95" />
        <circle cx="0" cy="0" r="17.88" fill="#8d6959" />
        <circle cx="0" cy="0" r="8.94" fill="#fff7f0" fill-opacity="0.72" />
      </g>
    </g>
    
    <g transform="translate(703.45 428.20) rotate(14.37)">
      <path d="M 0 0 C -8 74.04, 10 123.40, -6 180.99" stroke="#8ba08a" stroke-width="9.87" fill="none" stroke-linecap="round" />
      <ellipse cx="-20" cy="90.49" rx="18.10" ry="34.55" fill="#8ba08a" fill-opacity="0.75" transform="rotate(-24)" />
      <ellipse cx="28" cy="111.88" rx="16.45" ry="31.26" fill="#8ba08a" fill-opacity="0.66" transform="rotate(20)" />
      <g transform="translate(0 0)">
        <ellipse cx="23.03" cy="0.00" rx="14.81" ry="23.03" fill="#b58d76" fill-opacity="0.95" /><ellipse cx="16.29" cy="16.29" rx="14.81" ry="23.03" fill="#b58d76" fill-opacity="0.95" /><ellipse cx="0.00" cy="23.03" rx="14.81" ry="23.03" fill="#b58d76" fill-opacity="0.95" /><ellipse cx="-16.29" cy="16.29" rx="14.81" ry="23.03" fill="#b58d76" fill-opacity="0.95" /><ellipse cx="-23.03" cy="0.00" rx="14.81" ry="23.03" fill="#b58d76" fill-opacity="0.95" /><ellipse cx="-16.29" cy="-16.29" rx="14.81" ry="23.03" fill="#b58d76" fill-opacity="0.95" /><ellipse cx="-0.00" cy="-23.03" rx="14.81" ry="23.03" fill="#b58d76" fill-opacity="0.95" /><ellipse cx="16.29" cy="-16.29" rx="14.81" ry="23.03" fill="#b58d76" fill-opacity="0.95" />
        <circle cx="0" cy="0" r="14.81" fill="#8d6959" />
        <circle cx="0" cy="0" r="7.40" fill="#fff7f0" fill-opacity="0.72" />
      </g>
    </g>
    
    <g transform="translate(566.02 492.23) rotate(-2.85)">
      <path d="M 0 0 C -8 87.99, 10 146.65, -6 215.08" stroke="#536d57" stroke-width="11.73" fill="none" stroke-linecap="round" />
      <ellipse cx="-20" cy="107.54" rx="21.51" ry="41.06" fill="#536d57" fill-opacity="0.75" transform="rotate(-24)" />
      <ellipse cx="28" cy="132.96" rx="19.55" ry="37.15" fill="#536d57" fill-opacity="0.66" transform="rotate(20)" />
      <g transform="translate(0 0)">
        <ellipse cx="27.37" cy="0.00" rx="17.60" ry="27.37" fill="#f1dccf" fill-opacity="0.95" /><ellipse cx="19.36" cy="19.36" rx="17.60" ry="27.37" fill="#f1dccf" fill-opacity="0.95" /><ellipse cx="0.00" cy="27.37" rx="17.60" ry="27.37" fill="#f1dccf" fill-opacity="0.95" /><ellipse cx="-19.36" cy="19.36" rx="17.60" ry="27.37" fill="#f1dccf" fill-opacity="0.95" /><ellipse cx="-27.37" cy="0.00" rx="17.60" ry="27.37" fill="#f1dccf" fill-opacity="0.95" /><ellipse cx="-19.36" cy="-19.36" rx="17.60" ry="27.37" fill="#f1dccf" fill-opacity="0.95" /><ellipse cx="-0.00" cy="-27.37" rx="17.60" ry="27.37" fill="#f1dccf" fill-opacity="0.95" /><ellipse cx="19.36" cy="-19.36" rx="17.60" ry="27.37" fill="#f1dccf" fill-opacity="0.95" />
        <circle cx="0" cy="0" r="17.60" fill="#8d6959" />
        <circle cx="0" cy="0" r="8.80" fill="#fff7f0" fill-opacity="0.72" />
      </g>
    </g>
    
    <g transform="translate(224.98 537.53) rotate(-0.56)">
      <path d="M 0 0 C -8 108.48, 10 180.80, -6 265.17" stroke="#6f8b70" stroke-width="14.46" fill="none" stroke-linecap="round" />
      <ellipse cx="-20" cy="132.59" rx="26.52" ry="50.62" fill="#6f8b70" fill-opacity="0.75" transform="rotate(-24)" />
      <ellipse cx="28" cy="163.93" rx="24.11" ry="45.80" fill="#6f8b70" fill-opacity="0.66" transform="rotate(20)" />
      <g transform="translate(0 0)">
        <ellipse cx="33.75" cy="0.00" rx="21.70" ry="33.75" fill="#f7ede0" fill-opacity="0.95" /><ellipse cx="23.86" cy="23.86" rx="21.70" ry="33.75" fill="#f7ede0" fill-opacity="0.95" /><ellipse cx="0.00" cy="33.75" rx="21.70" ry="33.75" fill="#f7ede0" fill-opacity="0.95" /><ellipse cx="-23.86" cy="23.86" rx="21.70" ry="33.75" fill="#f7ede0" fill-opacity="0.95" /><ellipse cx="-33.75" cy="0.00" rx="21.70" ry="33.75" fill="#f7ede0" fill-opacity="0.95" /><ellipse cx="-23.86" cy="-23.86" rx="21.70" ry="33.75" fill="#f7ede0" fill-opacity="0.95" /><ellipse cx="-0.00" cy="-33.75" rx="21.70" ry="33.75" fill="#f7ede0" fill-opacity="0.95" /><ellipse cx="23.86" cy="-23.86" rx="21.70" ry="33.75" fill="#f7ede0" fill-opacity="0.95" />
        <circle cx="0" cy="0" r="21.70" fill="#8d6959" />
        <circle cx="0" cy="0" r="10.85" fill="#fff7f0" fill-opacity="0.72" />
      </g>
    </g>
    
    <g transform="translate(319.87 465.15) rotate(17.28)">
      <path d="M 0 0 C -8 75.30, 10 125.49, -6 184.06" stroke="#8ba08a" stroke-width="10.04" fill="none" stroke-linecap="round" />
      <ellipse cx="-20" cy="92.03" rx="18.41" ry="35.14" fill="#8ba08a" fill-opacity="0.75" transform="rotate(-24)" />
      <ellipse cx="28" cy="113.78" rx="16.73" ry="31.79" fill="#8ba08a" fill-opacity="0.66" transform="rotate(20)" />
      <g transform="translate(0 0)">
        <ellipse cx="23.43" cy="0.00" rx="15.06" ry="23.43" fill="#d7cabf" fill-opacity="0.95" /><ellipse cx="16.56" cy="16.56" rx="15.06" ry="23.43" fill="#d7cabf" fill-opacity="0.95" /><ellipse cx="0.00" cy="23.43" rx="15.06" ry="23.43" fill="#d7cabf" fill-opacity="0.95" /><ellipse cx="-16.56" cy="16.56" rx="15.06" ry="23.43" fill="#d7cabf" fill-opacity="0.95" /><ellipse cx="-23.43" cy="0.00" rx="15.06" ry="23.43" fill="#d7cabf" fill-opacity="0.95" /><ellipse cx="-16.56" cy="-16.56" rx="15.06" ry="23.43" fill="#d7cabf" fill-opacity="0.95" /><ellipse cx="-0.00" cy="-23.43" rx="15.06" ry="23.43" fill="#d7cabf" fill-opacity="0.95" /><ellipse cx="16.56" cy="-16.56" rx="15.06" ry="23.43" fill="#d7cabf" fill-opacity="0.95" />
        <circle cx="0" cy="0" r="15.06" fill="#8d6959" />
        <circle cx="0" cy="0" r="7.53" fill="#fff7f0" fill-opacity="0.72" />
      </g>
    </g>
    
    <g transform="translate(270.94 383.58) rotate(8.98)">
      <path d="M 0 0 C -8 73.06, 10 121.77, -6 178.59" stroke="#536d57" stroke-width="9.74" fill="none" stroke-linecap="round" />
      <ellipse cx="-20" cy="89.30" rx="17.86" ry="34.09" fill="#536d57" fill-opacity="0.75" transform="rotate(-24)" />
      <ellipse cx="28" cy="110.40" rx="16.24" ry="30.85" fill="#536d57" fill-opacity="0.66" transform="rotate(20)" />
      <g transform="translate(0 0)">
        <ellipse cx="22.73" cy="0.00" rx="14.61" ry="22.73" fill="#b58d76" fill-opacity="0.95" /><ellipse cx="16.07" cy="16.07" rx="14.61" ry="22.73" fill="#b58d76" fill-opacity="0.95" /><ellipse cx="0.00" cy="22.73" rx="14.61" ry="22.73" fill="#b58d76" fill-opacity="0.95" /><ellipse cx="-16.07" cy="16.07" rx="14.61" ry="22.73" fill="#b58d76" fill-opacity="0.95" /><ellipse cx="-22.73" cy="0.00" rx="14.61" ry="22.73" fill="#b58d76" fill-opacity="0.95" /><ellipse cx="-16.07" cy="-16.07" rx="14.61" ry="22.73" fill="#b58d76" fill-opacity="0.95" /><ellipse cx="-0.00" cy="-22.73" rx="14.61" ry="22.73" fill="#b58d76" fill-opacity="0.95" /><ellipse cx="16.07" cy="-16.07" rx="14.61" ry="22.73" fill="#b58d76" fill-opacity="0.95" />
        <circle cx="0" cy="0" r="14.61" fill="#8d6959" />
        <circle cx="0" cy="0" r="7.31" fill="#fff7f0" fill-opacity="0.72" />
      </g>
    </g>
    
  </g>
  <path d="M0 980 C220 920, 420 1030, 900 930 L900 1100 L0 1100 Z" fill="#ffffff" fill-opacity="0.22" />
</svg>
