<svg xmlns="http://www.w3.org/2000/svg" width="900" height="1100" viewBox="0 0 900 1100">
  <defs>
    <linearGradient id="bg" x1="0" y1="0" x2="0" y2="1">
      <stop offset="0%" stop-color="#f3f0ea" />
      <stop offset="100%" stop-color="#e8ece7" />
    </linearGradient>
    <filter id="shadow" x="-20%" y="-20%" width="140%" height="140%">
      <feDropShadow dx="0" dy="22" stdDeviation="24" flood-color="#6c5d4f" flood-opacity="0.12" />
    </filter>
  </defs>
  <rect width="100%" height="100%" fill="url(#bg)" />
  <circle cx="730" cy="180" r="140" fill="#ffffff" fill-opacity="0.18" />
  <circle cx="150" cy="260" r="90" fill="#ffffff" fill-opacity="0.12" />
  
      <rect x="70" y="72" width="300" height="92" rx="24" fill="#ffffff" fill-opacity="0.34" />
      <text x="98" y="120" fill="#2f3a31" font-size="32" font-family="'PingFang SC','Microsoft YaHei',sans-serif" font-weight="600">餐桌回廊</text>
      <text x="98" y="152" fill="#4e6152" font-size="18" font-family="'PingFang SC','Microsoft YaHei',sans-serif">沙龙 · 会场</text>
    
  <g filter="url(#shadow)">
    <ellipse cx="450" cy="955" rx="280" ry="90" fill="#d9cec2" fill-opacity="0.55" /><rect x="220" y="820" width="460" height="170" rx="18" fill="#f2ece5" fill-opacity="0.65" />
  </g>
  <g>
    
    <g transform="translate(397.73 454.78) rotate(-22.35)">
      <path d="M 0 0 C -8 82.18, 10 136.97, -6 200.89" stroke="#536d57" stroke-width="10.96" fill="none" stroke-linecap="round" />
      <ellipse cx="-20" cy="100.44" rx="20.09" ry="38.35" fill="#536d57" fill-opacity="0.75" transform="rotate(-24)" />
      <ellipse cx="28" cy="124.19" rx="18.26" ry="34.70" fill="#536d57" fill-opacity="0.66" transform="rotate(20)" />
      <g transform="translate(0 0)">
        <ellipse cx="25.57" cy="0.00" rx="16.44" ry="25.57" fill="#f7ede0" fill-opacity="0.95" /><ellipse cx="18.08" cy="18.08" rx="16.44" ry="25.57" fill="#f7ede0" fill-opacity="0.95" /><ellipse cx="0.00" cy="25.57" rx="16.44" ry="25.57" fill="#f7ede0" fill-opacity="0.95" /><ellipse cx="-18.08" cy="18.08" rx="16.44" ry="25.57" fill="#f7ede0" fill-opacity="0.95" /><ellipse cx="-25.57" cy="0.00" rx="16.44" ry="25.57" fill="#f7ede0" fill-opacity="0.95" /><ellipse cx="-18.08" cy="-18.08" rx="16.44" ry="25.57" fill="#f7ede0" fill-opacity="0.95" /><ellipse cx="-0.00" cy="-25.57" rx="16.44" ry="25.57" fill="#f7ede0" fill-opacity="0.95" /><ellipse cx="18.08" cy="-18.08" rx="16.44" ry="25.57" fill="#f7ede0" fill-opacity="0.95" />
        <circle cx="0" cy="0" r="16.44" fill="#8d6959" />
        <circle cx="0" cy="0" r="8.22" fill="#fff7f0" fill-opacity="0.72" />
      </g>
    </g>
    
    <g transform="translate(550.23 321.88) rotate(-19.30)">
      <path d="M 0 0 C -8 102.89, 10 171.49, -6 251.52" stroke="#6f8b70" stroke-width="13.72" fill="none" stroke-linecap="round" />
      <ellipse cx="-20" cy="125.76" rx="25.15" ry="48.02" fill="#6f8b70" fill-opacity="0.75" transform="rotate(-24)" />
      <ellipse cx="28" cy="155.48" rx="22.87" ry="43.44" fill="#6f8b70" fill-opacity="0.66" transform="rotate(20)" />
      <g transform="translate(0 0)">
        <ellipse cx="32.01" cy="0.00" rx="20.58" ry="32.01" fill="#d7cabf" fill-opacity="0.95" /><ellipse cx="22.64" cy="22.64" rx="20.58" ry="32.01" fill="#d7cabf" fill-opacity="0.95" /><ellipse cx="0.00" cy="32.01" rx="20.58" ry="32.01" fill="#d7cabf" fill-opacity="0.95" /><ellipse cx="-22.64" cy="22.64" rx="20.58" ry="32.01" fill="#d7cabf" fill-opacity="0.95" /><ellipse cx="-32.01" cy="0.00" rx="20.58" ry="32.01" fill="#d7cabf" fill-opacity="0.95" /><ellipse cx="-22.64" cy="-22.64" rx="20.58" ry="32.01" fill="#d7cabf" fill-opacity="0.95" /><ellipse cx="-0.00" cy="-32.01" rx="20.58" ry="32.01" fill="#d7cabf" fill-opacity="0.95" /><ellipse cx="22.64" cy="-22.64" rx="20.58" ry="32.01" fill="#d7cabf" fill-opacity="0.95" />
        <circle cx="0" cy="0" r="20.58" fill="#8d6959" />
        <circle cx="0" cy="0" r="10.29" fill="#fff7f0" fill-opacity="0.72" />
      </g>
    </g>
    
    <g transform="translate(260.65 383.92) rotate(22.99)">
      <path d="M 0 0 C -8 87.28, 10 145.46, -6 213.34" stroke="#8ba08a" stroke-width="11.64" fill="none" stroke-linecap="round" />
      <ellipse cx="-20" cy="106.67" rx="21.33" ry="40.73" fill="#8ba08a" fill-opacity="0.75" transform="rotate(-24)" />
      <ellipse cx="28" cy="131.88" rx="19.39" ry="36.85" fill="#8ba08a" fill-opacity="0.66" transform="rotate(20)" />
      <g transform="translate(0 0)">
        <ellipse cx="27.15" cy="0.00" rx="17.46" ry="27.15" fill="#b58d76" fill-opacity="0.95" /><ellipse cx="19.20" cy="19.20" rx="17.46" ry="27.15" fill="#b58d76" fill-opacity="0.95" /><ellipse cx="0.00" cy="27.15" rx="17.46" ry="27.15" fill="#b58d76" fill-opacity="0.95" /><ellipse cx="-19.20" cy="19.20" rx="17.46" ry="27.15" fill="#b58d76" fill-opacity="0.95" /><ellipse cx="-27.15" cy="0.00" rx="17.46" ry="27.15" fill="#b58d76" fill-opacity="0.95" /><ellipse cx="-19.20" cy="-19.20" rx="17.46" ry="27.15" fill="#b58d76" fill-opacity="0.95" /><ellipse cx="-0.00" cy="-27.15" rx="17.46" ry="27.15" fill="#b58d76" fill-opacity="0.95" /><ellipse cx="19.20" cy="-19.20" rx="17.46" ry="27.15" fill="#b58d76" fill-opacity="0.95" />
        <circle cx="0" cy="0" r="17.46" fill="#8d6959" />
        <circle cx="0" cy="0" r="8.73" fill="#fff7f0" fill-opacity="0.72" />
      </g>
    </g>
    
    <g transform="translate(417.93 328.91) rotate(-20.54)">
      <path d="M 0 0 C -8 107.88, 10 179.80, -6 263.70" stroke="#536d57" stroke-width="14.38" fill="none" stroke-linecap="round" />
      <ellipse cx="-20" cy="131.85" rx="26.37" ry="50.34" fill="#536d57" fill-opacity="0.75" transform="rotate(-24)" />
      <ellipse cx="28" cy="163.02" rx="23.97" ry="45.55" fill="#536d57" fill-opacity="0.66" transform="rotate(20)" />
      <g transform="translate(0 0)">
        <ellipse cx="33.56" cy="0.00" rx="21.58" ry="33.56" fill="#f1dccf" fill-opacity="0.95" /><ellipse cx="23.73" cy="23.73" rx="21.58" ry="33.56" fill="#f1dccf" fill-opacity="0.95" /><ellipse cx="0.00" cy="33.56" rx="21.58" ry="33.56" fill="#f1dccf" fill-opacity="0.95" /><ellipse cx="-23.73" cy="23.73" rx="21.58" ry="33.56" fill="#f1dccf" fill-opacity="0.95" /><ellipse cx="-33.56" cy="0.00" rx="21.58" ry="33.56" fill="#f1dccf" fill-opacity="0.95" /><ellipse cx="-23.73" cy="-23.73" rx="21.58" ry="33.56" fill="#f1dccf" fill-opacity="0.95" /><ellipse cx="-0.00" cy="-33.56" rx="21.58" ry="33.56" fill="#f1dccf" fill-opacity="0.95" /><ellipse cx="23.73" cy="-23.73" rx="21.58" ry="33.56" fill="#f1dccf" fill-opacity="0.95" />
        <circle cx="0" cy="0" r="21.58" fill="#8d6959" />
        <circle cx="0" cy="0" r="10.79" fill="#fff7f0" fill-opacity="0.72" />
      </g>
    </g>
    
    <g transform="translate(688.31 372.71) rotate(-9.25)">
      <path d="M 0 0 C -8 85.31, 10 142.18, -6 208.54" stroke="#6f8b70" stroke-width="11.37" fill="none" stroke-linecap="round" />
      <ellipse cx="-20" cy="104.27" rx="20.85" ry="39.81" fill="#6f8b70" fill-opacity="0.75" transform="rotate(-24)" />
      <ellipse cx="28" cy="128.91" rx="18.96" ry="36.02" fill="#6f8b70" fill-opacity="0.66" transform="rotate(20)" />
      <g transform="translate(0 0)">
        <ellipse cx="26.54" cy="0.00" rx="17.06" ry="26.54" fill="#f7ede0" fill-opacity="0.95" /><ellipse cx="18.77" cy="18.77" rx="17.06" ry="26.54" fill="#f7ede0" fill-opacity="0.95" /><ellipse cx="0.00" cy="26.54" rx="17.06" ry="26.54" fill="#f7ede0" fill-opacity="0.95" /><ellipse cx="-18.77" cy="18.77" rx="17.06" ry="26.54" fill="#f7ede0" fill-opacity="0.95" /><ellipse cx="-26.54" cy="0.00" rx="17.06" ry="26.54" fill="#f7ede0" fill-opacity="0.95" /><ellipse cx="-18.77" cy="-18.77" rx="17.06" ry="26.54" fill="#f7ede0" fill-opacity="0.95" /><ellipse cx="-0.00" cy="-26.54" rx="17.06" ry="26.54" fill="#f7ede0" fill-opacity="0.95" /><ellipse cx="18.77" cy="-18.77" rx="17.06" ry="26.54" fill="#f7ede0" fill-opacity="0.95" />
        <circle cx="0" cy="0" r="17.06" fill="#8d6959" />
        <circle cx="0" cy="0" r="8.53" fill="#fff7f0" fill-opacity="0.72" />
      </g>
    </g>
    
    <g transform="translate(494.36 485.86) rotate(6.82)">
      <path d="M 0 0 C -8 99.17, 10 165.29, -6 242.42" stroke="#8ba08a" stroke-width="13.22" fill="none" stroke-linecap="round" />
      <ellipse cx="-20" cy="121.21" rx="24.24" ry="46.28" fill="#8ba08a" fill-opacity="0.75" transform="rotate(-24)" />
      <ellipse cx="28" cy="149.86" rx="22.04" ry="41.87" fill="#8ba08a" fill-opacity="0.66" transform="rotate(20)" />
      <g transform="translate(0 0)">
        <ellipse cx="30.85" cy="0.00" rx="19.83" ry="30.85" fill="#d7cabf" fill-opacity="0.95" /><ellipse cx="21.82" cy="21.82" rx="19.83" ry="30.85" fill="#d7cabf" fill-opacity="0.95" /><ellipse cx="0.00" cy="30.85" rx="19.83" ry="30.85" fill="#d7cabf" fill-opacity="0.95" /><ellipse cx="-21.82" cy="21.82" rx="19.83" ry="30.85" fill="#d7cabf" fill-opacity="0.95" /><ellipse cx="-30.85" cy="0.00" rx="19.83" ry="30.85" fill="#d7cabf" fill-opacity="0.95" /><ellipse cx="-21.82" cy="-21.82" rx="19.83" ry="30.85" fill="#d7cabf" fill-opacity="0.95" /><ellipse cx="-0.00" cy="-30.85" rx="19.83" ry="30.85" fill="#d7cabf" fill-opacity="0.95" /><ellipse cx="21.82" cy="-21.82" rx="19.83" ry="30.85" fill="#d7cabf" fill-opacity="0.95" />
        <circle cx="0" cy="0" r="19.83" fill="#8d6959" />
        <circle cx="0" cy="0" r="9.92" fill="#fff7f0" fill-opacity="0.72" />
      </g>
    </g>
    
    <g transform="translate(591.46 535.86) rotate(7.37)">
      <path d="M 0 0 C -8 92.96, 10 154.93, -6 227.23" stroke="#536d57" stroke-width="12.39" fill="none" stroke-linecap="round" />
      <ellipse cx="-20" cy="113.62" rx="22.72" ry="43.38" fill="#536d57" fill-opacity="0.75" transform="rotate(-24)" />
      <ellipse cx="28" cy="140.47" rx="20.66" ry="39.25" fill="#536d57" fill-opacity="0.66" transform="rotate(20)" />
      <g transform="translate(0 0)">
        <ellipse cx="28.92" cy="0.00" rx="18.59" ry="28.92" fill="#b58d76" fill-opacity="0.95" /><ellipse cx="20.45" cy="20.45" rx="18.59" ry="28.92" fill="#b58d76" fill-opacity="0.95" /><ellipse cx="0.00" cy="28.92" rx="18.59" ry="28.92" fill="#b58d76" fill-opacity="0.95" /><ellipse cx="-20.45" cy="20.45" rx="18.59" ry="28.92" fill="#b58d76" fill-opacity="0.95" /><ellipse cx="-28.92" cy="0.00" rx="18.59" ry="28.92" fill="#b58d76" fill-opacity="0.95" /><ellipse cx="-20.45" cy="-20.45" rx="18.59" ry="28.92" fill="#b58d76" fill-opacity="0.95" /><ellipse cx="-0.00" cy="-28.92" rx="18.59" ry="28.92" fill="#b58d76" fill-opacity="0.95" /><ellipse cx="20.45" cy="-20.45" rx="18.59" ry="28.92" fill="#b58d76" fill-opacity="0.95" />
        <circle cx="0" cy="0" r="18.59" fill="#8d6959" />
        <circle cx="0" cy="0" r="9.30" fill="#fff7f0" fill-opacity="0.72" />
      </g>
    </g>
    
    <g transform="translate(232.93 415.00) rotate(22.07)">
      <path d="M 0 0 C -8 77.74, 10 129.57, -6 190.04" stroke="#6f8b70" stroke-width="10.37" fill="none" stroke-linecap="round" />
      <ellipse cx="-20" cy="95.02" rx="19.00" ry="36.28" fill="#6f8b70" fill-opacity="0.75" transform="rotate(-24)" />
      <ellipse cx="28" cy="117.48" rx="17.28" ry="32.82" fill="#6f8b70" fill-opacity="0.66" transform="rotate(20)" />
      <g transform="translate(0 0)">
        <ellipse cx="24.19" cy="0.00" rx="15.55" ry="24.19" fill="#f1dccf" fill-opacity="0.95" /><ellipse cx="17.10" cy="17.10" rx="15.55" ry="24.19" fill="#f1dccf" fill-opacity="0.95" /><ellipse cx="0.00" cy="24.19" rx="15.55" ry="24.19" fill="#f1dccf" fill-opacity="0.95" /><ellipse cx="-17.10" cy="17.10" rx="15.55" ry="24.19" fill="#f1dccf" fill-opacity="0.95" /><ellipse cx="-24.19" cy="0.00" rx="15.55" ry="24.19" fill="#f1dccf" fill-opacity="0.95" /><ellipse cx="-17.10" cy="-17.10" rx="15.55" ry="24.19" fill="#f1dccf" fill-opacity="0.95" /><ellipse cx="-0.00" cy="-24.19" rx="15.55" ry="24.19" fill="#f1dccf" fill-opacity="0.95" /><ellipse cx="17.10" cy="-17.10" rx="15.55" ry="24.19" fill="#f1dccf" fill-opacity="0.95" />
        <circle cx="0" cy="0" r="15.55" fill="#8d6959" />
        <circle cx="0" cy="0" r="7.77" fill="#fff7f0" fill-opacity="0.72" />
      </g>
    </g>
    
  </g>
  <path d="M0 980 C220 920, 420 1030, 900 930 L900 1100 L0 1100 Z" fill="#ffffff" fill-opacity="0.22" />
</svg>
