<svg xmlns="http://www.w3.org/2000/svg" width="900" height="1100" viewBox="0 0 900 1100">
  <defs>
    <linearGradient id="bg" x1="0" y1="0" x2="0" y2="1">
      <stop offset="0%" stop-color="#f3f0ea" />
      <stop offset="100%" stop-color="#e8ece7" />
    </linearGradient>
    <filter id="shadow" x="-20%" y="-20%" width="140%" height="140%">
      <feDropShadow dx="0" dy="22" stdDeviation="24" flood-color="#6c5d4f" flood-opacity="0.12" />
    </filter>
  </defs>
  <rect width="100%" height="100%" fill="url(#bg)" />
  <circle cx="730" cy="180" r="140" fill="#ffffff" fill-opacity="0.18" />
  <circle cx="150" cy="260" r="90" fill="#ffffff" fill-opacity="0.12" />
  
      <rect x="70" y="72" width="300" height="92" rx="24" fill="#ffffff" fill-opacity="0.34" />
      <text x="98" y="120" fill="#2f3a31" font-size="32" font-family="'PingFang SC','Microsoft YaHei',sans-serif" font-weight="600">品牌花幕</text>
      <text x="98" y="152" fill="#4e6152" font-size="18" font-family="'PingFang SC','Microsoft YaHei',sans-serif">橱窗 · 展陈</text>
    
  <g filter="url(#shadow)">
    <ellipse cx="450" cy="955" rx="280" ry="90" fill="#d9cec2" fill-opacity="0.55" /><rect x="220" y="820" width="460" height="170" rx="18" fill="#f2ece5" fill-opacity="0.65" />
  </g>
  <g>
    
    <g transform="translate(450.00 468.60) rotate(-12.51)">
      <path d="M 0 0 C -8 84.57, 10 140.95, -6 206.73" stroke="#536d57" stroke-width="11.28" fill="none" stroke-linecap="round" />
      <ellipse cx="-20" cy="103.36" rx="20.67" ry="39.47" fill="#536d57" fill-opacity="0.75" transform="rotate(-24)" />
      <ellipse cx="28" cy="127.80" rx="18.79" ry="35.71" fill="#536d57" fill-opacity="0.66" transform="rotate(20)" />
      <g transform="translate(0 0)">
        <ellipse cx="26.31" cy="0.00" rx="16.91" ry="26.31" fill="#f7ede0" fill-opacity="0.95" /><ellipse cx="18.60" cy="18.60" rx="16.91" ry="26.31" fill="#f7ede0" fill-opacity="0.95" /><ellipse cx="0.00" cy="26.31" rx="16.91" ry="26.31" fill="#f7ede0" fill-opacity="0.95" /><ellipse cx="-18.60" cy="18.60" rx="16.91" ry="26.31" fill="#f7ede0" fill-opacity="0.95" /><ellipse cx="-26.31" cy="0.00" rx="16.91" ry="26.31" fill="#f7ede0" fill-opacity="0.95" /><ellipse cx="-18.60" cy="-18.60" rx="16.91" ry="26.31" fill="#f7ede0" fill-opacity="0.95" /><ellipse cx="-0.00" cy="-26.31" rx="16.91" ry="26.31" fill="#f7ede0" fill-opacity="0.95" /><ellipse cx="18.60" cy="-18.60" rx="16.91" ry="26.31" fill="#f7ede0" fill-opacity="0.95" />
        <circle cx="0" cy="0" r="16.91" fill="#8d6959" />
        <circle cx="0" cy="0" r="8.46" fill="#fff7f0" fill-opacity="0.72" />
      </g>
    </g>
    
    <g transform="translate(623.44 452.55) rotate(-9.42)">
      <path d="M 0 0 C -8 90.88, 10 151.46, -6 222.14" stroke="#6f8b70" stroke-width="12.12" fill="none" stroke-linecap="round" />
      <ellipse cx="-20" cy="111.07" rx="22.21" ry="42.41" fill="#6f8b70" fill-opacity="0.75" transform="rotate(-24)" />
      <ellipse cx="28" cy="137.33" rx="20.19" ry="38.37" fill="#6f8b70" fill-opacity="0.66" transform="rotate(20)" />
      <g transform="translate(0 0)">
        <ellipse cx="28.27" cy="0.00" rx="18.18" ry="28.27" fill="#d7cabf" fill-opacity="0.95" /><ellipse cx="19.99" cy="19.99" rx="18.18" ry="28.27" fill="#d7cabf" fill-opacity="0.95" /><ellipse cx="0.00" cy="28.27" rx="18.18" ry="28.27" fill="#d7cabf" fill-opacity="0.95" /><ellipse cx="-19.99" cy="19.99" rx="18.18" ry="28.27" fill="#d7cabf" fill-opacity="0.95" /><ellipse cx="-28.27" cy="0.00" rx="18.18" ry="28.27" fill="#d7cabf" fill-opacity="0.95" /><ellipse cx="-19.99" cy="-19.99" rx="18.18" ry="28.27" fill="#d7cabf" fill-opacity="0.95" /><ellipse cx="-0.00" cy="-28.27" rx="18.18" ry="28.27" fill="#d7cabf" fill-opacity="0.95" /><ellipse cx="19.99" cy="-19.99" rx="18.18" ry="28.27" fill="#d7cabf" fill-opacity="0.95" />
        <circle cx="0" cy="0" r="18.18" fill="#8d6959" />
        <circle cx="0" cy="0" r="9.09" fill="#fff7f0" fill-opacity="0.72" />
      </g>
    </g>
    
    <g transform="translate(217.17 344.48) rotate(-3.46)">
      <path d="M 0 0 C -8 100.47, 10 167.44, -6 245.58" stroke="#8ba08a" stroke-width="13.40" fill="none" stroke-linecap="round" />
      <ellipse cx="-20" cy="122.79" rx="24.56" ry="46.88" fill="#8ba08a" fill-opacity="0.75" transform="rotate(-24)" />
      <ellipse cx="28" cy="151.81" rx="22.33" ry="42.42" fill="#8ba08a" fill-opacity="0.66" transform="rotate(20)" />
      <g transform="translate(0 0)">
        <ellipse cx="31.26" cy="0.00" rx="20.09" ry="31.26" fill="#b58d76" fill-opacity="0.95" /><ellipse cx="22.10" cy="22.10" rx="20.09" ry="31.26" fill="#b58d76" fill-opacity="0.95" /><ellipse cx="0.00" cy="31.26" rx="20.09" ry="31.26" fill="#b58d76" fill-opacity="0.95" /><ellipse cx="-22.10" cy="22.10" rx="20.09" ry="31.26" fill="#b58d76" fill-opacity="0.95" /><ellipse cx="-31.26" cy="0.00" rx="20.09" ry="31.26" fill="#b58d76" fill-opacity="0.95" /><ellipse cx="-22.10" cy="-22.10" rx="20.09" ry="31.26" fill="#b58d76" fill-opacity="0.95" /><ellipse cx="-0.00" cy="-31.26" rx="20.09" ry="31.26" fill="#b58d76" fill-opacity="0.95" /><ellipse cx="22.10" cy="-22.10" rx="20.09" ry="31.26" fill="#b58d76" fill-opacity="0.95" />
        <circle cx="0" cy="0" r="20.09" fill="#8d6959" />
        <circle cx="0" cy="0" r="10.05" fill="#fff7f0" fill-opacity="0.72" />
      </g>
    </g>
    
    <g transform="translate(206.50 395.81) rotate(17.86)">
      <path d="M 0 0 C -8 73.39, 10 122.32, -6 179.40" stroke="#536d57" stroke-width="9.79" fill="none" stroke-linecap="round" />
      <ellipse cx="-20" cy="89.70" rx="17.94" ry="34.25" fill="#536d57" fill-opacity="0.75" transform="rotate(-24)" />
      <ellipse cx="28" cy="110.90" rx="16.31" ry="30.99" fill="#536d57" fill-opacity="0.66" transform="rotate(20)" />
      <g transform="translate(0 0)">
        <ellipse cx="22.83" cy="0.00" rx="14.68" ry="22.83" fill="#f1dccf" fill-opacity="0.95" /><ellipse cx="16.15" cy="16.15" rx="14.68" ry="22.83" fill="#f1dccf" fill-opacity="0.95" /><ellipse cx="0.00" cy="22.83" rx="14.68" ry="22.83" fill="#f1dccf" fill-opacity="0.95" /><ellipse cx="-16.15" cy="16.15" rx="14.68" ry="22.83" fill="#f1dccf" fill-opacity="0.95" /><ellipse cx="-22.83" cy="0.00" rx="14.68" ry="22.83" fill="#f1dccf" fill-opacity="0.95" /><ellipse cx="-16.15" cy="-16.15" rx="14.68" ry="22.83" fill="#f1dccf" fill-opacity="0.95" /><ellipse cx="-0.00" cy="-22.83" rx="14.68" ry="22.83" fill="#f1dccf" fill-opacity="0.95" /><ellipse cx="16.15" cy="-16.15" rx="14.68" ry="22.83" fill="#f1dccf" fill-opacity="0.95" />
        <circle cx="0" cy="0" r="14.68" fill="#8d6959" />
        <circle cx="0" cy="0" r="7.34" fill="#fff7f0" fill-opacity="0.72" />
      </g>
    </g>
    
    <g transform="translate(326.35 328.06) rotate(16.18)">
      <path d="M 0 0 C -8 73.60, 10 122.67, -6 179.92" stroke="#6f8b70" stroke-width="9.81" fill="none" stroke-linecap="round" />
      <ellipse cx="-20" cy="89.96" rx="17.99" ry="34.35" fill="#6f8b70" fill-opacity="0.75" transform="rotate(-24)" />
      <ellipse cx="28" cy="111.22" rx="16.36" ry="31.08" fill="#6f8b70" fill-opacity="0.66" transform="rotate(20)" />
      <g transform="translate(0 0)">
        <ellipse cx="22.90" cy="0.00" rx="14.72" ry="22.90" fill="#f7ede0" fill-opacity="0.95" /><ellipse cx="16.19" cy="16.19" rx="14.72" ry="22.90" fill="#f7ede0" fill-opacity="0.95" /><ellipse cx="0.00" cy="22.90" rx="14.72" ry="22.90" fill="#f7ede0" fill-opacity="0.95" /><ellipse cx="-16.19" cy="16.19" rx="14.72" ry="22.90" fill="#f7ede0" fill-opacity="0.95" /><ellipse cx="-22.90" cy="0.00" rx="14.72" ry="22.90" fill="#f7ede0" fill-opacity="0.95" /><ellipse cx="-16.19" cy="-16.19" rx="14.72" ry="22.90" fill="#f7ede0" fill-opacity="0.95" /><ellipse cx="-0.00" cy="-22.90" rx="14.72" ry="22.90" fill="#f7ede0" fill-opacity="0.95" /><ellipse cx="16.19" cy="-16.19" rx="14.72" ry="22.90" fill="#f7ede0" fill-opacity="0.95" />
        <circle cx="0" cy="0" r="14.72" fill="#8d6959" />
        <circle cx="0" cy="0" r="7.36" fill="#fff7f0" fill-opacity="0.72" />
      </g>
    </g>
    
    <g transform="translate(288.08 393.05) rotate(4.10)">
      <path d="M 0 0 C -8 94.43, 10 157.39, -6 230.83" stroke="#8ba08a" stroke-width="12.59" fill="none" stroke-linecap="round" />
      <ellipse cx="-20" cy="115.42" rx="23.08" ry="44.07" fill="#8ba08a" fill-opacity="0.75" transform="rotate(-24)" />
      <ellipse cx="28" cy="142.70" rx="20.98" ry="39.87" fill="#8ba08a" fill-opacity="0.66" transform="rotate(20)" />
      <g transform="translate(0 0)">
        <ellipse cx="29.38" cy="0.00" rx="18.89" ry="29.38" fill="#d7cabf" fill-opacity="0.95" /><ellipse cx="20.77" cy="20.77" rx="18.89" ry="29.38" fill="#d7cabf" fill-opacity="0.95" /><ellipse cx="0.00" cy="29.38" rx="18.89" ry="29.38" fill="#d7cabf" fill-opacity="0.95" /><ellipse cx="-20.77" cy="20.77" rx="18.89" ry="29.38" fill="#d7cabf" fill-opacity="0.95" /><ellipse cx="-29.38" cy="0.00" rx="18.89" ry="29.38" fill="#d7cabf" fill-opacity="0.95" /><ellipse cx="-20.77" cy="-20.77" rx="18.89" ry="29.38" fill="#d7cabf" fill-opacity="0.95" /><ellipse cx="-0.00" cy="-29.38" rx="18.89" ry="29.38" fill="#d7cabf" fill-opacity="0.95" /><ellipse cx="20.77" cy="-20.77" rx="18.89" ry="29.38" fill="#d7cabf" fill-opacity="0.95" />
        <circle cx="0" cy="0" r="18.89" fill="#8d6959" />
        <circle cx="0" cy="0" r="9.44" fill="#fff7f0" fill-opacity="0.72" />
      </g>
    </g>
    
    <g transform="translate(664.11 366.66) rotate(24.58)">
      <path d="M 0 0 C -8 75.94, 10 126.57, -6 185.63" stroke="#536d57" stroke-width="10.13" fill="none" stroke-linecap="round" />
      <ellipse cx="-20" cy="92.82" rx="18.56" ry="35.44" fill="#536d57" fill-opacity="0.75" transform="rotate(-24)" />
      <ellipse cx="28" cy="114.75" rx="16.88" ry="32.06" fill="#536d57" fill-opacity="0.66" transform="rotate(20)" />
      <g transform="translate(0 0)">
        <ellipse cx="23.63" cy="0.00" rx="15.19" ry="23.63" fill="#b58d76" fill-opacity="0.95" /><ellipse cx="16.71" cy="16.71" rx="15.19" ry="23.63" fill="#b58d76" fill-opacity="0.95" /><ellipse cx="0.00" cy="23.63" rx="15.19" ry="23.63" fill="#b58d76" fill-opacity="0.95" /><ellipse cx="-16.71" cy="16.71" rx="15.19" ry="23.63" fill="#b58d76" fill-opacity="0.95" /><ellipse cx="-23.63" cy="0.00" rx="15.19" ry="23.63" fill="#b58d76" fill-opacity="0.95" /><ellipse cx="-16.71" cy="-16.71" rx="15.19" ry="23.63" fill="#b58d76" fill-opacity="0.95" /><ellipse cx="-0.00" cy="-23.63" rx="15.19" ry="23.63" fill="#b58d76" fill-opacity="0.95" /><ellipse cx="16.71" cy="-16.71" rx="15.19" ry="23.63" fill="#b58d76" fill-opacity="0.95" />
        <circle cx="0" cy="0" r="15.19" fill="#8d6959" />
        <circle cx="0" cy="0" r="7.59" fill="#fff7f0" fill-opacity="0.72" />
      </g>
    </g>
    
  </g>
  <path d="M0 980 C220 920, 420 1030, 900 930 L900 1100 L0 1100 Z" fill="#ffffff" fill-opacity="0.22" />
</svg>
