<svg xmlns="http://www.w3.org/2000/svg" width="900" height="1100" viewBox="0 0 900 1100">
  <defs>
    <linearGradient id="bg" x1="0" y1="0" x2="0" y2="1">
      <stop offset="0%" stop-color="#f3f0ea" />
      <stop offset="100%" stop-color="#e8ece7" />
    </linearGradient>
    <filter id="shadow" x="-20%" y="-20%" width="140%" height="140%">
      <feDropShadow dx="0" dy="22" stdDeviation="24" flood-color="#6c5d4f" flood-opacity="0.12" />
    </filter>
  </defs>
  <rect width="100%" height="100%" fill="url(#bg)" />
  <circle cx="730" cy="180" r="140" fill="#ffffff" fill-opacity="0.18" />
  <circle cx="150" cy="260" r="90" fill="#ffffff" fill-opacity="0.12" />
  
      <rect x="70" y="72" width="300" height="92" rx="24" fill="#ffffff" fill-opacity="0.34" />
      <text x="98" y="120" fill="#2f3a31" font-size="32" font-family="'PingFang SC','Microsoft YaHei',sans-serif" font-weight="600">橱窗留白</text>
      <text x="98" y="152" fill="#4e6152" font-size="18" font-family="'PingFang SC','Microsoft YaHei',sans-serif">宴会 · 餐桌花艺</text>
    
  <g filter="url(#shadow)">
    <ellipse cx="450" cy="955" rx="280" ry="90" fill="#d9cec2" fill-opacity="0.55" /><rect x="220" y="820" width="460" height="170" rx="18" fill="#f2ece5" fill-opacity="0.65" />
  </g>
  <g>
    
    <g transform="translate(656.70 346.98) rotate(8.34)">
      <path d="M 0 0 C -8 78.53, 10 130.89, -6 191.97" stroke="#536d57" stroke-width="10.47" fill="none" stroke-linecap="round" />
      <ellipse cx="-20" cy="95.99" rx="19.20" ry="36.65" fill="#536d57" fill-opacity="0.75" transform="rotate(-24)" />
      <ellipse cx="28" cy="118.67" rx="17.45" ry="33.16" fill="#536d57" fill-opacity="0.66" transform="rotate(20)" />
      <g transform="translate(0 0)">
        <ellipse cx="24.43" cy="0.00" rx="15.71" ry="24.43" fill="#f7ede0" fill-opacity="0.95" /><ellipse cx="17.28" cy="17.28" rx="15.71" ry="24.43" fill="#f7ede0" fill-opacity="0.95" /><ellipse cx="0.00" cy="24.43" rx="15.71" ry="24.43" fill="#f7ede0" fill-opacity="0.95" /><ellipse cx="-17.28" cy="17.28" rx="15.71" ry="24.43" fill="#f7ede0" fill-opacity="0.95" /><ellipse cx="-24.43" cy="0.00" rx="15.71" ry="24.43" fill="#f7ede0" fill-opacity="0.95" /><ellipse cx="-17.28" cy="-17.28" rx="15.71" ry="24.43" fill="#f7ede0" fill-opacity="0.95" /><ellipse cx="-0.00" cy="-24.43" rx="15.71" ry="24.43" fill="#f7ede0" fill-opacity="0.95" /><ellipse cx="17.28" cy="-17.28" rx="15.71" ry="24.43" fill="#f7ede0" fill-opacity="0.95" />
        <circle cx="0" cy="0" r="15.71" fill="#8d6959" />
        <circle cx="0" cy="0" r="7.85" fill="#fff7f0" fill-opacity="0.72" />
      </g>
    </g>
    
    <g transform="translate(653.51 536.63) rotate(-11.82)">
      <path d="M 0 0 C -8 85.61, 10 142.69, -6 209.27" stroke="#6f8b70" stroke-width="11.41" fill="none" stroke-linecap="round" />
      <ellipse cx="-20" cy="104.64" rx="20.93" ry="39.95" fill="#6f8b70" fill-opacity="0.75" transform="rotate(-24)" />
      <ellipse cx="28" cy="129.37" rx="19.02" ry="36.15" fill="#6f8b70" fill-opacity="0.66" transform="rotate(20)" />
      <g transform="translate(0 0)">
        <ellipse cx="26.63" cy="0.00" rx="17.12" ry="26.63" fill="#d7cabf" fill-opacity="0.95" /><ellipse cx="18.83" cy="18.83" rx="17.12" ry="26.63" fill="#d7cabf" fill-opacity="0.95" /><ellipse cx="0.00" cy="26.63" rx="17.12" ry="26.63" fill="#d7cabf" fill-opacity="0.95" /><ellipse cx="-18.83" cy="18.83" rx="17.12" ry="26.63" fill="#d7cabf" fill-opacity="0.95" /><ellipse cx="-26.63" cy="0.00" rx="17.12" ry="26.63" fill="#d7cabf" fill-opacity="0.95" /><ellipse cx="-18.83" cy="-18.83" rx="17.12" ry="26.63" fill="#d7cabf" fill-opacity="0.95" /><ellipse cx="-0.00" cy="-26.63" rx="17.12" ry="26.63" fill="#d7cabf" fill-opacity="0.95" /><ellipse cx="18.83" cy="-18.83" rx="17.12" ry="26.63" fill="#d7cabf" fill-opacity="0.95" />
        <circle cx="0" cy="0" r="17.12" fill="#8d6959" />
        <circle cx="0" cy="0" r="8.56" fill="#fff7f0" fill-opacity="0.72" />
      </g>
    </g>
    
    <g transform="translate(318.60 344.66) rotate(23.69)">
      <path d="M 0 0 C -8 71.18, 10 118.63, -6 173.98" stroke="#8ba08a" stroke-width="9.49" fill="none" stroke-linecap="round" />
      <ellipse cx="-20" cy="86.99" rx="17.40" ry="33.22" fill="#8ba08a" fill-opacity="0.75" transform="rotate(-24)" />
      <ellipse cx="28" cy="107.55" rx="15.82" ry="30.05" fill="#8ba08a" fill-opacity="0.66" transform="rotate(20)" />
      <g transform="translate(0 0)">
        <ellipse cx="22.14" cy="0.00" rx="14.24" ry="22.14" fill="#b58d76" fill-opacity="0.95" /><ellipse cx="15.66" cy="15.66" rx="14.24" ry="22.14" fill="#b58d76" fill-opacity="0.95" /><ellipse cx="0.00" cy="22.14" rx="14.24" ry="22.14" fill="#b58d76" fill-opacity="0.95" /><ellipse cx="-15.66" cy="15.66" rx="14.24" ry="22.14" fill="#b58d76" fill-opacity="0.95" /><ellipse cx="-22.14" cy="0.00" rx="14.24" ry="22.14" fill="#b58d76" fill-opacity="0.95" /><ellipse cx="-15.66" cy="-15.66" rx="14.24" ry="22.14" fill="#b58d76" fill-opacity="0.95" /><ellipse cx="-0.00" cy="-22.14" rx="14.24" ry="22.14" fill="#b58d76" fill-opacity="0.95" /><ellipse cx="15.66" cy="-15.66" rx="14.24" ry="22.14" fill="#b58d76" fill-opacity="0.95" />
        <circle cx="0" cy="0" r="14.24" fill="#8d6959" />
        <circle cx="0" cy="0" r="7.12" fill="#fff7f0" fill-opacity="0.72" />
      </g>
    </g>
    
    <g transform="translate(466.95 470.84) rotate(-9.36)">
      <path d="M 0 0 C -8 77.59, 10 129.31, -6 189.66" stroke="#536d57" stroke-width="10.35" fill="none" stroke-linecap="round" />
      <ellipse cx="-20" cy="94.83" rx="18.97" ry="36.21" fill="#536d57" fill-opacity="0.75" transform="rotate(-24)" />
      <ellipse cx="28" cy="117.24" rx="17.24" ry="32.76" fill="#536d57" fill-opacity="0.66" transform="rotate(20)" />
      <g transform="translate(0 0)">
        <ellipse cx="24.14" cy="0.00" rx="15.52" ry="24.14" fill="#f1dccf" fill-opacity="0.95" /><ellipse cx="17.07" cy="17.07" rx="15.52" ry="24.14" fill="#f1dccf" fill-opacity="0.95" /><ellipse cx="0.00" cy="24.14" rx="15.52" ry="24.14" fill="#f1dccf" fill-opacity="0.95" /><ellipse cx="-17.07" cy="17.07" rx="15.52" ry="24.14" fill="#f1dccf" fill-opacity="0.95" /><ellipse cx="-24.14" cy="0.00" rx="15.52" ry="24.14" fill="#f1dccf" fill-opacity="0.95" /><ellipse cx="-17.07" cy="-17.07" rx="15.52" ry="24.14" fill="#f1dccf" fill-opacity="0.95" /><ellipse cx="-0.00" cy="-24.14" rx="15.52" ry="24.14" fill="#f1dccf" fill-opacity="0.95" /><ellipse cx="17.07" cy="-17.07" rx="15.52" ry="24.14" fill="#f1dccf" fill-opacity="0.95" />
        <circle cx="0" cy="0" r="15.52" fill="#8d6959" />
        <circle cx="0" cy="0" r="7.76" fill="#fff7f0" fill-opacity="0.72" />
      </g>
    </g>
    
    <g transform="translate(622.11 517.36) rotate(-22.09)">
      <path d="M 0 0 C -8 112.12, 10 186.86, -6 274.06" stroke="#6f8b70" stroke-width="14.95" fill="none" stroke-linecap="round" />
      <ellipse cx="-20" cy="137.03" rx="27.41" ry="52.32" fill="#6f8b70" fill-opacity="0.75" transform="rotate(-24)" />
      <ellipse cx="28" cy="169.42" rx="24.91" ry="47.34" fill="#6f8b70" fill-opacity="0.66" transform="rotate(20)" />
      <g transform="translate(0 0)">
        <ellipse cx="34.88" cy="0.00" rx="22.42" ry="34.88" fill="#f7ede0" fill-opacity="0.95" /><ellipse cx="24.66" cy="24.66" rx="22.42" ry="34.88" fill="#f7ede0" fill-opacity="0.95" /><ellipse cx="0.00" cy="34.88" rx="22.42" ry="34.88" fill="#f7ede0" fill-opacity="0.95" /><ellipse cx="-24.66" cy="24.66" rx="22.42" ry="34.88" fill="#f7ede0" fill-opacity="0.95" /><ellipse cx="-34.88" cy="0.00" rx="22.42" ry="34.88" fill="#f7ede0" fill-opacity="0.95" /><ellipse cx="-24.66" cy="-24.66" rx="22.42" ry="34.88" fill="#f7ede0" fill-opacity="0.95" /><ellipse cx="-0.00" cy="-34.88" rx="22.42" ry="34.88" fill="#f7ede0" fill-opacity="0.95" /><ellipse cx="24.66" cy="-24.66" rx="22.42" ry="34.88" fill="#f7ede0" fill-opacity="0.95" />
        <circle cx="0" cy="0" r="22.42" fill="#8d6959" />
        <circle cx="0" cy="0" r="11.21" fill="#fff7f0" fill-opacity="0.72" />
      </g>
    </g>
    
    <g transform="translate(406.96 438.48) rotate(4.34)">
      <path d="M 0 0 C -8 111.43, 10 185.72, -6 272.39" stroke="#8ba08a" stroke-width="14.86" fill="none" stroke-linecap="round" />
      <ellipse cx="-20" cy="136.19" rx="27.24" ry="52.00" fill="#8ba08a" fill-opacity="0.75" transform="rotate(-24)" />
      <ellipse cx="28" cy="168.39" rx="24.76" ry="47.05" fill="#8ba08a" fill-opacity="0.66" transform="rotate(20)" />
      <g transform="translate(0 0)">
        <ellipse cx="34.67" cy="0.00" rx="22.29" ry="34.67" fill="#d7cabf" fill-opacity="0.95" /><ellipse cx="24.51" cy="24.51" rx="22.29" ry="34.67" fill="#d7cabf" fill-opacity="0.95" /><ellipse cx="0.00" cy="34.67" rx="22.29" ry="34.67" fill="#d7cabf" fill-opacity="0.95" /><ellipse cx="-24.51" cy="24.51" rx="22.29" ry="34.67" fill="#d7cabf" fill-opacity="0.95" /><ellipse cx="-34.67" cy="0.00" rx="22.29" ry="34.67" fill="#d7cabf" fill-opacity="0.95" /><ellipse cx="-24.51" cy="-24.51" rx="22.29" ry="34.67" fill="#d7cabf" fill-opacity="0.95" /><ellipse cx="-0.00" cy="-34.67" rx="22.29" ry="34.67" fill="#d7cabf" fill-opacity="0.95" /><ellipse cx="24.51" cy="-24.51" rx="22.29" ry="34.67" fill="#d7cabf" fill-opacity="0.95" />
        <circle cx="0" cy="0" r="22.29" fill="#8d6959" />
        <circle cx="0" cy="0" r="11.14" fill="#fff7f0" fill-opacity="0.72" />
      </g>
    </g>
    
    <g transform="translate(631.67 354.12) rotate(5.78)">
      <path d="M 0 0 C -8 104.50, 10 174.17, -6 255.45" stroke="#536d57" stroke-width="13.93" fill="none" stroke-linecap="round" />
      <ellipse cx="-20" cy="127.72" rx="25.54" ry="48.77" fill="#536d57" fill-opacity="0.75" transform="rotate(-24)" />
      <ellipse cx="28" cy="157.91" rx="23.22" ry="44.12" fill="#536d57" fill-opacity="0.66" transform="rotate(20)" />
      <g transform="translate(0 0)">
        <ellipse cx="32.51" cy="0.00" rx="20.90" ry="32.51" fill="#b58d76" fill-opacity="0.95" /><ellipse cx="22.99" cy="22.99" rx="20.90" ry="32.51" fill="#b58d76" fill-opacity="0.95" /><ellipse cx="0.00" cy="32.51" rx="20.90" ry="32.51" fill="#b58d76" fill-opacity="0.95" /><ellipse cx="-22.99" cy="22.99" rx="20.90" ry="32.51" fill="#b58d76" fill-opacity="0.95" /><ellipse cx="-32.51" cy="0.00" rx="20.90" ry="32.51" fill="#b58d76" fill-opacity="0.95" /><ellipse cx="-22.99" cy="-22.99" rx="20.90" ry="32.51" fill="#b58d76" fill-opacity="0.95" /><ellipse cx="-0.00" cy="-32.51" rx="20.90" ry="32.51" fill="#b58d76" fill-opacity="0.95" /><ellipse cx="22.99" cy="-22.99" rx="20.90" ry="32.51" fill="#b58d76" fill-opacity="0.95" />
        <circle cx="0" cy="0" r="20.90" fill="#8d6959" />
        <circle cx="0" cy="0" r="10.45" fill="#fff7f0" fill-opacity="0.72" />
      </g>
    </g>
    
    <g transform="translate(258.55 548.59) rotate(7.03)">
      <path d="M 0 0 C -8 80.42, 10 134.03, -6 196.58" stroke="#6f8b70" stroke-width="10.72" fill="none" stroke-linecap="round" />
      <ellipse cx="-20" cy="98.29" rx="19.66" ry="37.53" fill="#6f8b70" fill-opacity="0.75" transform="rotate(-24)" />
      <ellipse cx="28" cy="121.52" rx="17.87" ry="33.95" fill="#6f8b70" fill-opacity="0.66" transform="rotate(20)" />
      <g transform="translate(0 0)">
        <ellipse cx="25.02" cy="0.00" rx="16.08" ry="25.02" fill="#f1dccf" fill-opacity="0.95" /><ellipse cx="17.69" cy="17.69" rx="16.08" ry="25.02" fill="#f1dccf" fill-opacity="0.95" /><ellipse cx="0.00" cy="25.02" rx="16.08" ry="25.02" fill="#f1dccf" fill-opacity="0.95" /><ellipse cx="-17.69" cy="17.69" rx="16.08" ry="25.02" fill="#f1dccf" fill-opacity="0.95" /><ellipse cx="-25.02" cy="0.00" rx="16.08" ry="25.02" fill="#f1dccf" fill-opacity="0.95" /><ellipse cx="-17.69" cy="-17.69" rx="16.08" ry="25.02" fill="#f1dccf" fill-opacity="0.95" /><ellipse cx="-0.00" cy="-25.02" rx="16.08" ry="25.02" fill="#f1dccf" fill-opacity="0.95" /><ellipse cx="17.69" cy="-17.69" rx="16.08" ry="25.02" fill="#f1dccf" fill-opacity="0.95" />
        <circle cx="0" cy="0" r="16.08" fill="#8d6959" />
        <circle cx="0" cy="0" r="8.04" fill="#fff7f0" fill-opacity="0.72" />
      </g>
    </g>
    
  </g>
  <path d="M0 980 C220 920, 420 1030, 900 930 L900 1100 L0 1100 Z" fill="#ffffff" fill-opacity="0.22" />
</svg>
