<svg xmlns="http://www.w3.org/2000/svg" width="900" height="1100" viewBox="0 0 900 1100">
  <defs>
    <linearGradient id="bg" x1="0" y1="0" x2="0" y2="1">
      <stop offset="0%" stop-color="#f3f0ea" />
      <stop offset="100%" stop-color="#e8ece7" />
    </linearGradient>
    <filter id="shadow" x="-20%" y="-20%" width="140%" height="140%">
      <feDropShadow dx="0" dy="22" stdDeviation="24" flood-color="#6c5d4f" flood-opacity="0.12" />
    </filter>
  </defs>
  <rect width="100%" height="100%" fill="url(#bg)" />
  <circle cx="730" cy="180" r="140" fill="#ffffff" fill-opacity="0.18" />
  <circle cx="150" cy="260" r="90" fill="#ffffff" fill-opacity="0.12" />
  
      <rect x="70" y="72" width="300" height="92" rx="24" fill="#ffffff" fill-opacity="0.34" />
      <text x="98" y="120" fill="#2f3a31" font-size="32" font-family="'PingFang SC','Microsoft YaHei',sans-serif" font-weight="600">展台微光</text>
      <text x="98" y="152" fill="#4e6152" font-size="18" font-family="'PingFang SC','Microsoft YaHei',sans-serif">沙龙 · 会场</text>
    
  <g filter="url(#shadow)">
    <ellipse cx="450" cy="955" rx="280" ry="90" fill="#d9cec2" fill-opacity="0.55" /><rect x="220" y="820" width="460" height="170" rx="18" fill="#f2ece5" fill-opacity="0.65" />
  </g>
  <g>
    
    <g transform="translate(305.58 443.69) rotate(15.34)">
      <path d="M 0 0 C -8 70.36, 10 117.27, -6 172.00" stroke="#536d57" stroke-width="9.38" fill="none" stroke-linecap="round" />
      <ellipse cx="-20" cy="86.00" rx="17.20" ry="32.84" fill="#536d57" fill-opacity="0.75" transform="rotate(-24)" />
      <ellipse cx="28" cy="106.33" rx="15.64" ry="29.71" fill="#536d57" fill-opacity="0.66" transform="rotate(20)" />
      <g transform="translate(0 0)">
        <ellipse cx="21.89" cy="0.00" rx="14.07" ry="21.89" fill="#f7ede0" fill-opacity="0.95" /><ellipse cx="15.48" cy="15.48" rx="14.07" ry="21.89" fill="#f7ede0" fill-opacity="0.95" /><ellipse cx="0.00" cy="21.89" rx="14.07" ry="21.89" fill="#f7ede0" fill-opacity="0.95" /><ellipse cx="-15.48" cy="15.48" rx="14.07" ry="21.89" fill="#f7ede0" fill-opacity="0.95" /><ellipse cx="-21.89" cy="0.00" rx="14.07" ry="21.89" fill="#f7ede0" fill-opacity="0.95" /><ellipse cx="-15.48" cy="-15.48" rx="14.07" ry="21.89" fill="#f7ede0" fill-opacity="0.95" /><ellipse cx="-0.00" cy="-21.89" rx="14.07" ry="21.89" fill="#f7ede0" fill-opacity="0.95" /><ellipse cx="15.48" cy="-15.48" rx="14.07" ry="21.89" fill="#f7ede0" fill-opacity="0.95" />
        <circle cx="0" cy="0" r="14.07" fill="#8d6959" />
        <circle cx="0" cy="0" r="7.04" fill="#fff7f0" fill-opacity="0.72" />
      </g>
    </g>
    
    <g transform="translate(703.04 502.33) rotate(-24.53)">
      <path d="M 0 0 C -8 112.08, 10 186.80, -6 273.97" stroke="#6f8b70" stroke-width="14.94" fill="none" stroke-linecap="round" />
      <ellipse cx="-20" cy="136.99" rx="27.40" ry="52.30" fill="#6f8b70" fill-opacity="0.75" transform="rotate(-24)" />
      <ellipse cx="28" cy="169.36" rx="24.91" ry="47.32" fill="#6f8b70" fill-opacity="0.66" transform="rotate(20)" />
      <g transform="translate(0 0)">
        <ellipse cx="34.87" cy="0.00" rx="22.42" ry="34.87" fill="#d7cabf" fill-opacity="0.95" /><ellipse cx="24.66" cy="24.66" rx="22.42" ry="34.87" fill="#d7cabf" fill-opacity="0.95" /><ellipse cx="0.00" cy="34.87" rx="22.42" ry="34.87" fill="#d7cabf" fill-opacity="0.95" /><ellipse cx="-24.66" cy="24.66" rx="22.42" ry="34.87" fill="#d7cabf" fill-opacity="0.95" /><ellipse cx="-34.87" cy="0.00" rx="22.42" ry="34.87" fill="#d7cabf" fill-opacity="0.95" /><ellipse cx="-24.66" cy="-24.66" rx="22.42" ry="34.87" fill="#d7cabf" fill-opacity="0.95" /><ellipse cx="-0.00" cy="-34.87" rx="22.42" ry="34.87" fill="#d7cabf" fill-opacity="0.95" /><ellipse cx="24.66" cy="-24.66" rx="22.42" ry="34.87" fill="#d7cabf" fill-opacity="0.95" />
        <circle cx="0" cy="0" r="22.42" fill="#8d6959" />
        <circle cx="0" cy="0" r="11.21" fill="#fff7f0" fill-opacity="0.72" />
      </g>
    </g>
    
    <g transform="translate(634.09 476.47) rotate(22.05)">
      <path d="M 0 0 C -8 97.22, 10 162.03, -6 237.65" stroke="#8ba08a" stroke-width="12.96" fill="none" stroke-linecap="round" />
      <ellipse cx="-20" cy="118.82" rx="23.76" ry="45.37" fill="#8ba08a" fill-opacity="0.75" transform="rotate(-24)" />
      <ellipse cx="28" cy="146.91" rx="21.60" ry="41.05" fill="#8ba08a" fill-opacity="0.66" transform="rotate(20)" />
      <g transform="translate(0 0)">
        <ellipse cx="30.25" cy="0.00" rx="19.44" ry="30.25" fill="#b58d76" fill-opacity="0.95" /><ellipse cx="21.39" cy="21.39" rx="19.44" ry="30.25" fill="#b58d76" fill-opacity="0.95" /><ellipse cx="0.00" cy="30.25" rx="19.44" ry="30.25" fill="#b58d76" fill-opacity="0.95" /><ellipse cx="-21.39" cy="21.39" rx="19.44" ry="30.25" fill="#b58d76" fill-opacity="0.95" /><ellipse cx="-30.25" cy="0.00" rx="19.44" ry="30.25" fill="#b58d76" fill-opacity="0.95" /><ellipse cx="-21.39" cy="-21.39" rx="19.44" ry="30.25" fill="#b58d76" fill-opacity="0.95" /><ellipse cx="-0.00" cy="-30.25" rx="19.44" ry="30.25" fill="#b58d76" fill-opacity="0.95" /><ellipse cx="21.39" cy="-21.39" rx="19.44" ry="30.25" fill="#b58d76" fill-opacity="0.95" />
        <circle cx="0" cy="0" r="19.44" fill="#8d6959" />
        <circle cx="0" cy="0" r="9.72" fill="#fff7f0" fill-opacity="0.72" />
      </g>
    </g>
    
    <g transform="translate(580.81 515.51) rotate(-7.95)">
      <path d="M 0 0 C -8 71.70, 10 119.50, -6 175.26" stroke="#536d57" stroke-width="9.56" fill="none" stroke-linecap="round" />
      <ellipse cx="-20" cy="87.63" rx="17.53" ry="33.46" fill="#536d57" fill-opacity="0.75" transform="rotate(-24)" />
      <ellipse cx="28" cy="108.34" rx="15.93" ry="30.27" fill="#536d57" fill-opacity="0.66" transform="rotate(20)" />
      <g transform="translate(0 0)">
        <ellipse cx="22.31" cy="0.00" rx="14.34" ry="22.31" fill="#f1dccf" fill-opacity="0.95" /><ellipse cx="15.77" cy="15.77" rx="14.34" ry="22.31" fill="#f1dccf" fill-opacity="0.95" /><ellipse cx="0.00" cy="22.31" rx="14.34" ry="22.31" fill="#f1dccf" fill-opacity="0.95" /><ellipse cx="-15.77" cy="15.77" rx="14.34" ry="22.31" fill="#f1dccf" fill-opacity="0.95" /><ellipse cx="-22.31" cy="0.00" rx="14.34" ry="22.31" fill="#f1dccf" fill-opacity="0.95" /><ellipse cx="-15.77" cy="-15.77" rx="14.34" ry="22.31" fill="#f1dccf" fill-opacity="0.95" /><ellipse cx="-0.00" cy="-22.31" rx="14.34" ry="22.31" fill="#f1dccf" fill-opacity="0.95" /><ellipse cx="15.77" cy="-15.77" rx="14.34" ry="22.31" fill="#f1dccf" fill-opacity="0.95" />
        <circle cx="0" cy="0" r="14.34" fill="#8d6959" />
        <circle cx="0" cy="0" r="7.17" fill="#fff7f0" fill-opacity="0.72" />
      </g>
    </g>
    
    <g transform="translate(464.72 407.05) rotate(24.38)">
      <path d="M 0 0 C -8 77.68, 10 129.46, -6 189.88" stroke="#6f8b70" stroke-width="10.36" fill="none" stroke-linecap="round" />
      <ellipse cx="-20" cy="94.94" rx="18.99" ry="36.25" fill="#6f8b70" fill-opacity="0.75" transform="rotate(-24)" />
      <ellipse cx="28" cy="117.38" rx="17.26" ry="32.80" fill="#6f8b70" fill-opacity="0.66" transform="rotate(20)" />
      <g transform="translate(0 0)">
        <ellipse cx="24.17" cy="0.00" rx="15.54" ry="24.17" fill="#f7ede0" fill-opacity="0.95" /><ellipse cx="17.09" cy="17.09" rx="15.54" ry="24.17" fill="#f7ede0" fill-opacity="0.95" /><ellipse cx="0.00" cy="24.17" rx="15.54" ry="24.17" fill="#f7ede0" fill-opacity="0.95" /><ellipse cx="-17.09" cy="17.09" rx="15.54" ry="24.17" fill="#f7ede0" fill-opacity="0.95" /><ellipse cx="-24.17" cy="0.00" rx="15.54" ry="24.17" fill="#f7ede0" fill-opacity="0.95" /><ellipse cx="-17.09" cy="-17.09" rx="15.54" ry="24.17" fill="#f7ede0" fill-opacity="0.95" /><ellipse cx="-0.00" cy="-24.17" rx="15.54" ry="24.17" fill="#f7ede0" fill-opacity="0.95" /><ellipse cx="17.09" cy="-17.09" rx="15.54" ry="24.17" fill="#f7ede0" fill-opacity="0.95" />
        <circle cx="0" cy="0" r="15.54" fill="#8d6959" />
        <circle cx="0" cy="0" r="7.77" fill="#fff7f0" fill-opacity="0.72" />
      </g>
    </g>
    
    <g transform="translate(405.00 507.28) rotate(10.83)">
      <path d="M 0 0 C -8 105.25, 10 175.42, -6 257.28" stroke="#8ba08a" stroke-width="14.03" fill="none" stroke-linecap="round" />
      <ellipse cx="-20" cy="128.64" rx="25.73" ry="49.12" fill="#8ba08a" fill-opacity="0.75" transform="rotate(-24)" />
      <ellipse cx="28" cy="159.05" rx="23.39" ry="44.44" fill="#8ba08a" fill-opacity="0.66" transform="rotate(20)" />
      <g transform="translate(0 0)">
        <ellipse cx="32.74" cy="0.00" rx="21.05" ry="32.74" fill="#d7cabf" fill-opacity="0.95" /><ellipse cx="23.15" cy="23.15" rx="21.05" ry="32.74" fill="#d7cabf" fill-opacity="0.95" /><ellipse cx="0.00" cy="32.74" rx="21.05" ry="32.74" fill="#d7cabf" fill-opacity="0.95" /><ellipse cx="-23.15" cy="23.15" rx="21.05" ry="32.74" fill="#d7cabf" fill-opacity="0.95" /><ellipse cx="-32.74" cy="0.00" rx="21.05" ry="32.74" fill="#d7cabf" fill-opacity="0.95" /><ellipse cx="-23.15" cy="-23.15" rx="21.05" ry="32.74" fill="#d7cabf" fill-opacity="0.95" /><ellipse cx="-0.00" cy="-32.74" rx="21.05" ry="32.74" fill="#d7cabf" fill-opacity="0.95" /><ellipse cx="23.15" cy="-23.15" rx="21.05" ry="32.74" fill="#d7cabf" fill-opacity="0.95" />
        <circle cx="0" cy="0" r="21.05" fill="#8d6959" />
        <circle cx="0" cy="0" r="10.53" fill="#fff7f0" fill-opacity="0.72" />
      </g>
    </g>
    
    <g transform="translate(427.18 437.00) rotate(-5.74)">
      <path d="M 0 0 C -8 83.46, 10 139.10, -6 204.02" stroke="#536d57" stroke-width="11.13" fill="none" stroke-linecap="round" />
      <ellipse cx="-20" cy="102.01" rx="20.40" ry="38.95" fill="#536d57" fill-opacity="0.75" transform="rotate(-24)" />
      <ellipse cx="28" cy="126.12" rx="18.55" ry="35.24" fill="#536d57" fill-opacity="0.66" transform="rotate(20)" />
      <g transform="translate(0 0)">
        <ellipse cx="25.97" cy="0.00" rx="16.69" ry="25.97" fill="#b58d76" fill-opacity="0.95" /><ellipse cx="18.36" cy="18.36" rx="16.69" ry="25.97" fill="#b58d76" fill-opacity="0.95" /><ellipse cx="0.00" cy="25.97" rx="16.69" ry="25.97" fill="#b58d76" fill-opacity="0.95" /><ellipse cx="-18.36" cy="18.36" rx="16.69" ry="25.97" fill="#b58d76" fill-opacity="0.95" /><ellipse cx="-25.97" cy="0.00" rx="16.69" ry="25.97" fill="#b58d76" fill-opacity="0.95" /><ellipse cx="-18.36" cy="-18.36" rx="16.69" ry="25.97" fill="#b58d76" fill-opacity="0.95" /><ellipse cx="-0.00" cy="-25.97" rx="16.69" ry="25.97" fill="#b58d76" fill-opacity="0.95" /><ellipse cx="18.36" cy="-18.36" rx="16.69" ry="25.97" fill="#b58d76" fill-opacity="0.95" />
        <circle cx="0" cy="0" r="16.69" fill="#8d6959" />
        <circle cx="0" cy="0" r="8.35" fill="#fff7f0" fill-opacity="0.72" />
      </g>
    </g>
    
  </g>
  <path d="M0 980 C220 920, 420 1030, 900 930 L900 1100 L0 1100 Z" fill="#ffffff" fill-opacity="0.22" />
</svg>
