<svg xmlns="http://www.w3.org/2000/svg" width="900" height="1100" viewBox="0 0 900 1100">
  <defs>
    <linearGradient id="bg" x1="0" y1="0" x2="0" y2="1">
      <stop offset="0%" stop-color="#f3f0ea" />
      <stop offset="100%" stop-color="#e8ece7" />
    </linearGradient>
    <filter id="shadow" x="-20%" y="-20%" width="140%" height="140%">
      <feDropShadow dx="0" dy="22" stdDeviation="24" flood-color="#6c5d4f" flood-opacity="0.12" />
    </filter>
  </defs>
  <rect width="100%" height="100%" fill="url(#bg)" />
  <circle cx="730" cy="180" r="140" fill="#ffffff" fill-opacity="0.18" />
  <circle cx="150" cy="260" r="90" fill="#ffffff" fill-opacity="0.12" />
  
      <rect x="70" y="72" width="300" height="92" rx="24" fill="#ffffff" fill-opacity="0.34" />
      <text x="98" y="120" fill="#2f3a31" font-size="32" font-family="'PingFang SC','Microsoft YaHei',sans-serif" font-weight="600">枝影陈设</text>
      <text x="98" y="152" fill="#4e6152" font-size="18" font-family="'PingFang SC','Microsoft YaHei',sans-serif">橱窗 · 展陈</text>
    
  <g filter="url(#shadow)">
    <ellipse cx="450" cy="955" rx="280" ry="90" fill="#d9cec2" fill-opacity="0.55" /><rect x="220" y="820" width="460" height="170" rx="18" fill="#f2ece5" fill-opacity="0.65" />
  </g>
  <g>
    
    <g transform="translate(403.33 338.79) rotate(5.88)">
      <path d="M 0 0 C -8 113.05, 10 188.41, -6 276.34" stroke="#536d57" stroke-width="15.07" fill="none" stroke-linecap="round" />
      <ellipse cx="-20" cy="138.17" rx="27.63" ry="52.76" fill="#536d57" fill-opacity="0.75" transform="rotate(-24)" />
      <ellipse cx="28" cy="170.83" rx="25.12" ry="47.73" fill="#536d57" fill-opacity="0.66" transform="rotate(20)" />
      <g transform="translate(0 0)">
        <ellipse cx="35.17" cy="0.00" rx="22.61" ry="35.17" fill="#f7ede0" fill-opacity="0.95" /><ellipse cx="24.87" cy="24.87" rx="22.61" ry="35.17" fill="#f7ede0" fill-opacity="0.95" /><ellipse cx="0.00" cy="35.17" rx="22.61" ry="35.17" fill="#f7ede0" fill-opacity="0.95" /><ellipse cx="-24.87" cy="24.87" rx="22.61" ry="35.17" fill="#f7ede0" fill-opacity="0.95" /><ellipse cx="-35.17" cy="0.00" rx="22.61" ry="35.17" fill="#f7ede0" fill-opacity="0.95" /><ellipse cx="-24.87" cy="-24.87" rx="22.61" ry="35.17" fill="#f7ede0" fill-opacity="0.95" /><ellipse cx="-0.00" cy="-35.17" rx="22.61" ry="35.17" fill="#f7ede0" fill-opacity="0.95" /><ellipse cx="24.87" cy="-24.87" rx="22.61" ry="35.17" fill="#f7ede0" fill-opacity="0.95" />
        <circle cx="0" cy="0" r="22.61" fill="#8d6959" />
        <circle cx="0" cy="0" r="11.30" fill="#fff7f0" fill-opacity="0.72" />
      </g>
    </g>
    
    <g transform="translate(409.61 347.67) rotate(-7.83)">
      <path d="M 0 0 C -8 107.37, 10 178.95, -6 262.46" stroke="#6f8b70" stroke-width="14.32" fill="none" stroke-linecap="round" />
      <ellipse cx="-20" cy="131.23" rx="26.25" ry="50.11" fill="#6f8b70" fill-opacity="0.75" transform="rotate(-24)" />
      <ellipse cx="28" cy="162.25" rx="23.86" ry="45.33" fill="#6f8b70" fill-opacity="0.66" transform="rotate(20)" />
      <g transform="translate(0 0)">
        <ellipse cx="33.40" cy="0.00" rx="21.47" ry="33.40" fill="#d7cabf" fill-opacity="0.95" /><ellipse cx="23.62" cy="23.62" rx="21.47" ry="33.40" fill="#d7cabf" fill-opacity="0.95" /><ellipse cx="0.00" cy="33.40" rx="21.47" ry="33.40" fill="#d7cabf" fill-opacity="0.95" /><ellipse cx="-23.62" cy="23.62" rx="21.47" ry="33.40" fill="#d7cabf" fill-opacity="0.95" /><ellipse cx="-33.40" cy="0.00" rx="21.47" ry="33.40" fill="#d7cabf" fill-opacity="0.95" /><ellipse cx="-23.62" cy="-23.62" rx="21.47" ry="33.40" fill="#d7cabf" fill-opacity="0.95" /><ellipse cx="-0.00" cy="-33.40" rx="21.47" ry="33.40" fill="#d7cabf" fill-opacity="0.95" /><ellipse cx="23.62" cy="-23.62" rx="21.47" ry="33.40" fill="#d7cabf" fill-opacity="0.95" />
        <circle cx="0" cy="0" r="21.47" fill="#8d6959" />
        <circle cx="0" cy="0" r="10.74" fill="#fff7f0" fill-opacity="0.72" />
      </g>
    </g>
    
    <g transform="translate(535.93 477.86) rotate(11.91)">
      <path d="M 0 0 C -8 111.45, 10 185.75, -6 272.44" stroke="#8ba08a" stroke-width="14.86" fill="none" stroke-linecap="round" />
      <ellipse cx="-20" cy="136.22" rx="27.24" ry="52.01" fill="#8ba08a" fill-opacity="0.75" transform="rotate(-24)" />
      <ellipse cx="28" cy="168.42" rx="24.77" ry="47.06" fill="#8ba08a" fill-opacity="0.66" transform="rotate(20)" />
      <g transform="translate(0 0)">
        <ellipse cx="34.67" cy="0.00" rx="22.29" ry="34.67" fill="#b58d76" fill-opacity="0.95" /><ellipse cx="24.52" cy="24.52" rx="22.29" ry="34.67" fill="#b58d76" fill-opacity="0.95" /><ellipse cx="0.00" cy="34.67" rx="22.29" ry="34.67" fill="#b58d76" fill-opacity="0.95" /><ellipse cx="-24.52" cy="24.52" rx="22.29" ry="34.67" fill="#b58d76" fill-opacity="0.95" /><ellipse cx="-34.67" cy="0.00" rx="22.29" ry="34.67" fill="#b58d76" fill-opacity="0.95" /><ellipse cx="-24.52" cy="-24.52" rx="22.29" ry="34.67" fill="#b58d76" fill-opacity="0.95" /><ellipse cx="-0.00" cy="-34.67" rx="22.29" ry="34.67" fill="#b58d76" fill-opacity="0.95" /><ellipse cx="24.52" cy="-24.52" rx="22.29" ry="34.67" fill="#b58d76" fill-opacity="0.95" />
        <circle cx="0" cy="0" r="22.29" fill="#8d6959" />
        <circle cx="0" cy="0" r="11.15" fill="#fff7f0" fill-opacity="0.72" />
      </g>
    </g>
    
    <g transform="translate(392.01 404.47) rotate(-20.15)">
      <path d="M 0 0 C -8 91.13, 10 151.88, -6 222.76" stroke="#536d57" stroke-width="12.15" fill="none" stroke-linecap="round" />
      <ellipse cx="-20" cy="111.38" rx="22.28" ry="42.53" fill="#536d57" fill-opacity="0.75" transform="rotate(-24)" />
      <ellipse cx="28" cy="137.70" rx="20.25" ry="38.48" fill="#536d57" fill-opacity="0.66" transform="rotate(20)" />
      <g transform="translate(0 0)">
        <ellipse cx="28.35" cy="0.00" rx="18.23" ry="28.35" fill="#f1dccf" fill-opacity="0.95" /><ellipse cx="20.05" cy="20.05" rx="18.23" ry="28.35" fill="#f1dccf" fill-opacity="0.95" /><ellipse cx="0.00" cy="28.35" rx="18.23" ry="28.35" fill="#f1dccf" fill-opacity="0.95" /><ellipse cx="-20.05" cy="20.05" rx="18.23" ry="28.35" fill="#f1dccf" fill-opacity="0.95" /><ellipse cx="-28.35" cy="0.00" rx="18.23" ry="28.35" fill="#f1dccf" fill-opacity="0.95" /><ellipse cx="-20.05" cy="-20.05" rx="18.23" ry="28.35" fill="#f1dccf" fill-opacity="0.95" /><ellipse cx="-0.00" cy="-28.35" rx="18.23" ry="28.35" fill="#f1dccf" fill-opacity="0.95" /><ellipse cx="20.05" cy="-20.05" rx="18.23" ry="28.35" fill="#f1dccf" fill-opacity="0.95" />
        <circle cx="0" cy="0" r="18.23" fill="#8d6959" />
        <circle cx="0" cy="0" r="9.11" fill="#fff7f0" fill-opacity="0.72" />
      </g>
    </g>
    
    <g transform="translate(531.86 384.17) rotate(24.18)">
      <path d="M 0 0 C -8 93.18, 10 155.30, -6 227.78" stroke="#6f8b70" stroke-width="12.42" fill="none" stroke-linecap="round" />
      <ellipse cx="-20" cy="113.89" rx="22.78" ry="43.48" fill="#6f8b70" fill-opacity="0.75" transform="rotate(-24)" />
      <ellipse cx="28" cy="140.81" rx="20.71" ry="39.34" fill="#6f8b70" fill-opacity="0.66" transform="rotate(20)" />
      <g transform="translate(0 0)">
        <ellipse cx="28.99" cy="0.00" rx="18.64" ry="28.99" fill="#f7ede0" fill-opacity="0.95" /><ellipse cx="20.50" cy="20.50" rx="18.64" ry="28.99" fill="#f7ede0" fill-opacity="0.95" /><ellipse cx="0.00" cy="28.99" rx="18.64" ry="28.99" fill="#f7ede0" fill-opacity="0.95" /><ellipse cx="-20.50" cy="20.50" rx="18.64" ry="28.99" fill="#f7ede0" fill-opacity="0.95" /><ellipse cx="-28.99" cy="0.00" rx="18.64" ry="28.99" fill="#f7ede0" fill-opacity="0.95" /><ellipse cx="-20.50" cy="-20.50" rx="18.64" ry="28.99" fill="#f7ede0" fill-opacity="0.95" /><ellipse cx="-0.00" cy="-28.99" rx="18.64" ry="28.99" fill="#f7ede0" fill-opacity="0.95" /><ellipse cx="20.50" cy="-20.50" rx="18.64" ry="28.99" fill="#f7ede0" fill-opacity="0.95" />
        <circle cx="0" cy="0" r="18.64" fill="#8d6959" />
        <circle cx="0" cy="0" r="9.32" fill="#fff7f0" fill-opacity="0.72" />
      </g>
    </g>
    
    <g transform="translate(219.84 498.53) rotate(3.18)">
      <path d="M 0 0 C -8 71.02, 10 118.36, -6 173.59" stroke="#8ba08a" stroke-width="9.47" fill="none" stroke-linecap="round" />
      <ellipse cx="-20" cy="86.80" rx="17.36" ry="33.14" fill="#8ba08a" fill-opacity="0.75" transform="rotate(-24)" />
      <ellipse cx="28" cy="107.31" rx="15.78" ry="29.98" fill="#8ba08a" fill-opacity="0.66" transform="rotate(20)" />
      <g transform="translate(0 0)">
        <ellipse cx="22.09" cy="0.00" rx="14.20" ry="22.09" fill="#d7cabf" fill-opacity="0.95" /><ellipse cx="15.62" cy="15.62" rx="14.20" ry="22.09" fill="#d7cabf" fill-opacity="0.95" /><ellipse cx="0.00" cy="22.09" rx="14.20" ry="22.09" fill="#d7cabf" fill-opacity="0.95" /><ellipse cx="-15.62" cy="15.62" rx="14.20" ry="22.09" fill="#d7cabf" fill-opacity="0.95" /><ellipse cx="-22.09" cy="0.00" rx="14.20" ry="22.09" fill="#d7cabf" fill-opacity="0.95" /><ellipse cx="-15.62" cy="-15.62" rx="14.20" ry="22.09" fill="#d7cabf" fill-opacity="0.95" /><ellipse cx="-0.00" cy="-22.09" rx="14.20" ry="22.09" fill="#d7cabf" fill-opacity="0.95" /><ellipse cx="15.62" cy="-15.62" rx="14.20" ry="22.09" fill="#d7cabf" fill-opacity="0.95" />
        <circle cx="0" cy="0" r="14.20" fill="#8d6959" />
        <circle cx="0" cy="0" r="7.10" fill="#fff7f0" fill-opacity="0.72" />
      </g>
    </g>
    
    <g transform="translate(624.62 446.46) rotate(14.80)">
      <path d="M 0 0 C -8 73.04, 10 121.73, -6 178.54" stroke="#536d57" stroke-width="9.74" fill="none" stroke-linecap="round" />
      <ellipse cx="-20" cy="89.27" rx="17.85" ry="34.09" fill="#536d57" fill-opacity="0.75" transform="rotate(-24)" />
      <ellipse cx="28" cy="110.37" rx="16.23" ry="30.84" fill="#536d57" fill-opacity="0.66" transform="rotate(20)" />
      <g transform="translate(0 0)">
        <ellipse cx="22.72" cy="0.00" rx="14.61" ry="22.72" fill="#b58d76" fill-opacity="0.95" /><ellipse cx="16.07" cy="16.07" rx="14.61" ry="22.72" fill="#b58d76" fill-opacity="0.95" /><ellipse cx="0.00" cy="22.72" rx="14.61" ry="22.72" fill="#b58d76" fill-opacity="0.95" /><ellipse cx="-16.07" cy="16.07" rx="14.61" ry="22.72" fill="#b58d76" fill-opacity="0.95" /><ellipse cx="-22.72" cy="0.00" rx="14.61" ry="22.72" fill="#b58d76" fill-opacity="0.95" /><ellipse cx="-16.07" cy="-16.07" rx="14.61" ry="22.72" fill="#b58d76" fill-opacity="0.95" /><ellipse cx="-0.00" cy="-22.72" rx="14.61" ry="22.72" fill="#b58d76" fill-opacity="0.95" /><ellipse cx="16.07" cy="-16.07" rx="14.61" ry="22.72" fill="#b58d76" fill-opacity="0.95" />
        <circle cx="0" cy="0" r="14.61" fill="#8d6959" />
        <circle cx="0" cy="0" r="7.30" fill="#fff7f0" fill-opacity="0.72" />
      </g>
    </g>
    
    <g transform="translate(293.44 453.17) rotate(-17.59)">
      <path d="M 0 0 C -8 111.64, 10 186.06, -6 272.89" stroke="#6f8b70" stroke-width="14.88" fill="none" stroke-linecap="round" />
      <ellipse cx="-20" cy="136.45" rx="27.29" ry="52.10" fill="#6f8b70" fill-opacity="0.75" transform="rotate(-24)" />
      <ellipse cx="28" cy="168.70" rx="24.81" ry="47.14" fill="#6f8b70" fill-opacity="0.66" transform="rotate(20)" />
      <g transform="translate(0 0)">
        <ellipse cx="34.73" cy="0.00" rx="22.33" ry="34.73" fill="#f1dccf" fill-opacity="0.95" /><ellipse cx="24.56" cy="24.56" rx="22.33" ry="34.73" fill="#f1dccf" fill-opacity="0.95" /><ellipse cx="0.00" cy="34.73" rx="22.33" ry="34.73" fill="#f1dccf" fill-opacity="0.95" /><ellipse cx="-24.56" cy="24.56" rx="22.33" ry="34.73" fill="#f1dccf" fill-opacity="0.95" /><ellipse cx="-34.73" cy="0.00" rx="22.33" ry="34.73" fill="#f1dccf" fill-opacity="0.95" /><ellipse cx="-24.56" cy="-24.56" rx="22.33" ry="34.73" fill="#f1dccf" fill-opacity="0.95" /><ellipse cx="-0.00" cy="-34.73" rx="22.33" ry="34.73" fill="#f1dccf" fill-opacity="0.95" /><ellipse cx="24.56" cy="-24.56" rx="22.33" ry="34.73" fill="#f1dccf" fill-opacity="0.95" />
        <circle cx="0" cy="0" r="22.33" fill="#8d6959" />
        <circle cx="0" cy="0" r="11.16" fill="#fff7f0" fill-opacity="0.72" />
      </g>
    </g>
    
  </g>
  <path d="M0 980 C220 920, 420 1030, 900 930 L900 1100 L0 1100 Z" fill="#ffffff" fill-opacity="0.22" />
</svg>
