<svg xmlns="http://www.w3.org/2000/svg" width="900" height="1100" viewBox="0 0 900 1100">
  <defs>
    <linearGradient id="bg" x1="0" y1="0" x2="0" y2="1">
      <stop offset="0%" stop-color="#f3f0ea" />
      <stop offset="100%" stop-color="#e8ece7" />
    </linearGradient>
    <filter id="shadow" x="-20%" y="-20%" width="140%" height="140%">
      <feDropShadow dx="0" dy="22" stdDeviation="24" flood-color="#6c5d4f" flood-opacity="0.12" />
    </filter>
  </defs>
  <rect width="100%" height="100%" fill="url(#bg)" />
  <circle cx="730" cy="180" r="140" fill="#ffffff" fill-opacity="0.18" />
  <circle cx="150" cy="260" r="90" fill="#ffffff" fill-opacity="0.12" />
  
      <rect x="70" y="72" width="300" height="92" rx="24" fill="#ffffff" fill-opacity="0.34" />
      <text x="98" y="120" fill="#2f3a31" font-size="32" font-family="'PingFang SC','Microsoft YaHei',sans-serif" font-weight="600">暮色装置</text>
      <text x="98" y="152" fill="#4e6152" font-size="18" font-family="'PingFang SC','Microsoft YaHei',sans-serif">宴会 · 餐桌花艺</text>
    
  <g filter="url(#shadow)">
    <ellipse cx="450" cy="955" rx="280" ry="90" fill="#d9cec2" fill-opacity="0.55" /><rect x="220" y="820" width="460" height="170" rx="18" fill="#f2ece5" fill-opacity="0.65" />
  </g>
  <g>
    
    <g transform="translate(237.26 355.56) rotate(3.32)">
      <path d="M 0 0 C -8 107.82, 10 179.71, -6 263.57" stroke="#536d57" stroke-width="14.38" fill="none" stroke-linecap="round" />
      <ellipse cx="-20" cy="131.78" rx="26.36" ry="50.32" fill="#536d57" fill-opacity="0.75" transform="rotate(-24)" />
      <ellipse cx="28" cy="162.93" rx="23.96" ry="45.53" fill="#536d57" fill-opacity="0.66" transform="rotate(20)" />
      <g transform="translate(0 0)">
        <ellipse cx="33.55" cy="0.00" rx="21.56" ry="33.55" fill="#f7ede0" fill-opacity="0.95" /><ellipse cx="23.72" cy="23.72" rx="21.56" ry="33.55" fill="#f7ede0" fill-opacity="0.95" /><ellipse cx="0.00" cy="33.55" rx="21.56" ry="33.55" fill="#f7ede0" fill-opacity="0.95" /><ellipse cx="-23.72" cy="23.72" rx="21.56" ry="33.55" fill="#f7ede0" fill-opacity="0.95" /><ellipse cx="-33.55" cy="0.00" rx="21.56" ry="33.55" fill="#f7ede0" fill-opacity="0.95" /><ellipse cx="-23.72" cy="-23.72" rx="21.56" ry="33.55" fill="#f7ede0" fill-opacity="0.95" /><ellipse cx="-0.00" cy="-33.55" rx="21.56" ry="33.55" fill="#f7ede0" fill-opacity="0.95" /><ellipse cx="23.72" cy="-23.72" rx="21.56" ry="33.55" fill="#f7ede0" fill-opacity="0.95" />
        <circle cx="0" cy="0" r="21.56" fill="#8d6959" />
        <circle cx="0" cy="0" r="10.78" fill="#fff7f0" fill-opacity="0.72" />
      </g>
    </g>
    
    <g transform="translate(513.28 528.58) rotate(4.44)">
      <path d="M 0 0 C -8 94.32, 10 157.20, -6 230.55" stroke="#6f8b70" stroke-width="12.58" fill="none" stroke-linecap="round" />
      <ellipse cx="-20" cy="115.28" rx="23.06" ry="44.01" fill="#6f8b70" fill-opacity="0.75" transform="rotate(-24)" />
      <ellipse cx="28" cy="142.52" rx="20.96" ry="39.82" fill="#6f8b70" fill-opacity="0.66" transform="rotate(20)" />
      <g transform="translate(0 0)">
        <ellipse cx="29.34" cy="0.00" rx="18.86" ry="29.34" fill="#d7cabf" fill-opacity="0.95" /><ellipse cx="20.75" cy="20.75" rx="18.86" ry="29.34" fill="#d7cabf" fill-opacity="0.95" /><ellipse cx="0.00" cy="29.34" rx="18.86" ry="29.34" fill="#d7cabf" fill-opacity="0.95" /><ellipse cx="-20.75" cy="20.75" rx="18.86" ry="29.34" fill="#d7cabf" fill-opacity="0.95" /><ellipse cx="-29.34" cy="0.00" rx="18.86" ry="29.34" fill="#d7cabf" fill-opacity="0.95" /><ellipse cx="-20.75" cy="-20.75" rx="18.86" ry="29.34" fill="#d7cabf" fill-opacity="0.95" /><ellipse cx="-0.00" cy="-29.34" rx="18.86" ry="29.34" fill="#d7cabf" fill-opacity="0.95" /><ellipse cx="20.75" cy="-20.75" rx="18.86" ry="29.34" fill="#d7cabf" fill-opacity="0.95" />
        <circle cx="0" cy="0" r="18.86" fill="#8d6959" />
        <circle cx="0" cy="0" r="9.43" fill="#fff7f0" fill-opacity="0.72" />
      </g>
    </g>
    
    <g transform="translate(383.12 514.54) rotate(10.87)">
      <path d="M 0 0 C -8 89.58, 10 149.30, -6 218.98" stroke="#8ba08a" stroke-width="11.94" fill="none" stroke-linecap="round" />
      <ellipse cx="-20" cy="109.49" rx="21.90" ry="41.81" fill="#8ba08a" fill-opacity="0.75" transform="rotate(-24)" />
      <ellipse cx="28" cy="135.37" rx="19.91" ry="37.82" fill="#8ba08a" fill-opacity="0.66" transform="rotate(20)" />
      <g transform="translate(0 0)">
        <ellipse cx="27.87" cy="0.00" rx="17.92" ry="27.87" fill="#b58d76" fill-opacity="0.95" /><ellipse cx="19.71" cy="19.71" rx="17.92" ry="27.87" fill="#b58d76" fill-opacity="0.95" /><ellipse cx="0.00" cy="27.87" rx="17.92" ry="27.87" fill="#b58d76" fill-opacity="0.95" /><ellipse cx="-19.71" cy="19.71" rx="17.92" ry="27.87" fill="#b58d76" fill-opacity="0.95" /><ellipse cx="-27.87" cy="0.00" rx="17.92" ry="27.87" fill="#b58d76" fill-opacity="0.95" /><ellipse cx="-19.71" cy="-19.71" rx="17.92" ry="27.87" fill="#b58d76" fill-opacity="0.95" /><ellipse cx="-0.00" cy="-27.87" rx="17.92" ry="27.87" fill="#b58d76" fill-opacity="0.95" /><ellipse cx="19.71" cy="-19.71" rx="17.92" ry="27.87" fill="#b58d76" fill-opacity="0.95" />
        <circle cx="0" cy="0" r="17.92" fill="#8d6959" />
        <circle cx="0" cy="0" r="8.96" fill="#fff7f0" fill-opacity="0.72" />
      </g>
    </g>
    
    <g transform="translate(439.41 384.84) rotate(-16.69)">
      <path d="M 0 0 C -8 79.08, 10 131.80, -6 193.31" stroke="#536d57" stroke-width="10.54" fill="none" stroke-linecap="round" />
      <ellipse cx="-20" cy="96.65" rx="19.33" ry="36.90" fill="#536d57" fill-opacity="0.75" transform="rotate(-24)" />
      <ellipse cx="28" cy="119.50" rx="17.57" ry="33.39" fill="#536d57" fill-opacity="0.66" transform="rotate(20)" />
      <g transform="translate(0 0)">
        <ellipse cx="24.60" cy="0.00" rx="15.82" ry="24.60" fill="#f1dccf" fill-opacity="0.95" /><ellipse cx="17.40" cy="17.40" rx="15.82" ry="24.60" fill="#f1dccf" fill-opacity="0.95" /><ellipse cx="0.00" cy="24.60" rx="15.82" ry="24.60" fill="#f1dccf" fill-opacity="0.95" /><ellipse cx="-17.40" cy="17.40" rx="15.82" ry="24.60" fill="#f1dccf" fill-opacity="0.95" /><ellipse cx="-24.60" cy="0.00" rx="15.82" ry="24.60" fill="#f1dccf" fill-opacity="0.95" /><ellipse cx="-17.40" cy="-17.40" rx="15.82" ry="24.60" fill="#f1dccf" fill-opacity="0.95" /><ellipse cx="-0.00" cy="-24.60" rx="15.82" ry="24.60" fill="#f1dccf" fill-opacity="0.95" /><ellipse cx="17.40" cy="-17.40" rx="15.82" ry="24.60" fill="#f1dccf" fill-opacity="0.95" />
        <circle cx="0" cy="0" r="15.82" fill="#8d6959" />
        <circle cx="0" cy="0" r="7.91" fill="#fff7f0" fill-opacity="0.72" />
      </g>
    </g>
    
    <g transform="translate(242.38 378.55) rotate(8.05)">
      <path d="M 0 0 C -8 74.96, 10 124.94, -6 183.24" stroke="#6f8b70" stroke-width="9.99" fill="none" stroke-linecap="round" />
      <ellipse cx="-20" cy="91.62" rx="18.32" ry="34.98" fill="#6f8b70" fill-opacity="0.75" transform="rotate(-24)" />
      <ellipse cx="28" cy="113.28" rx="16.66" ry="31.65" fill="#6f8b70" fill-opacity="0.66" transform="rotate(20)" />
      <g transform="translate(0 0)">
        <ellipse cx="23.32" cy="0.00" rx="14.99" ry="23.32" fill="#f7ede0" fill-opacity="0.95" /><ellipse cx="16.49" cy="16.49" rx="14.99" ry="23.32" fill="#f7ede0" fill-opacity="0.95" /><ellipse cx="0.00" cy="23.32" rx="14.99" ry="23.32" fill="#f7ede0" fill-opacity="0.95" /><ellipse cx="-16.49" cy="16.49" rx="14.99" ry="23.32" fill="#f7ede0" fill-opacity="0.95" /><ellipse cx="-23.32" cy="0.00" rx="14.99" ry="23.32" fill="#f7ede0" fill-opacity="0.95" /><ellipse cx="-16.49" cy="-16.49" rx="14.99" ry="23.32" fill="#f7ede0" fill-opacity="0.95" /><ellipse cx="-0.00" cy="-23.32" rx="14.99" ry="23.32" fill="#f7ede0" fill-opacity="0.95" /><ellipse cx="16.49" cy="-16.49" rx="14.99" ry="23.32" fill="#f7ede0" fill-opacity="0.95" />
        <circle cx="0" cy="0" r="14.99" fill="#8d6959" />
        <circle cx="0" cy="0" r="7.50" fill="#fff7f0" fill-opacity="0.72" />
      </g>
    </g>
    
    <g transform="translate(338.55 367.11) rotate(3.61)">
      <path d="M 0 0 C -8 85.89, 10 143.15, -6 209.96" stroke="#8ba08a" stroke-width="11.45" fill="none" stroke-linecap="round" />
      <ellipse cx="-20" cy="104.98" rx="21.00" ry="40.08" fill="#8ba08a" fill-opacity="0.75" transform="rotate(-24)" />
      <ellipse cx="28" cy="129.79" rx="19.09" ry="36.27" fill="#8ba08a" fill-opacity="0.66" transform="rotate(20)" />
      <g transform="translate(0 0)">
        <ellipse cx="26.72" cy="0.00" rx="17.18" ry="26.72" fill="#d7cabf" fill-opacity="0.95" /><ellipse cx="18.90" cy="18.90" rx="17.18" ry="26.72" fill="#d7cabf" fill-opacity="0.95" /><ellipse cx="0.00" cy="26.72" rx="17.18" ry="26.72" fill="#d7cabf" fill-opacity="0.95" /><ellipse cx="-18.90" cy="18.90" rx="17.18" ry="26.72" fill="#d7cabf" fill-opacity="0.95" /><ellipse cx="-26.72" cy="0.00" rx="17.18" ry="26.72" fill="#d7cabf" fill-opacity="0.95" /><ellipse cx="-18.90" cy="-18.90" rx="17.18" ry="26.72" fill="#d7cabf" fill-opacity="0.95" /><ellipse cx="-0.00" cy="-26.72" rx="17.18" ry="26.72" fill="#d7cabf" fill-opacity="0.95" /><ellipse cx="18.90" cy="-18.90" rx="17.18" ry="26.72" fill="#d7cabf" fill-opacity="0.95" />
        <circle cx="0" cy="0" r="17.18" fill="#8d6959" />
        <circle cx="0" cy="0" r="8.59" fill="#fff7f0" fill-opacity="0.72" />
      </g>
    </g>
    
    <g transform="translate(232.78 432.10) rotate(-3.51)">
      <path d="M 0 0 C -8 72.32, 10 120.53, -6 176.78" stroke="#536d57" stroke-width="9.64" fill="none" stroke-linecap="round" />
      <ellipse cx="-20" cy="88.39" rx="17.68" ry="33.75" fill="#536d57" fill-opacity="0.75" transform="rotate(-24)" />
      <ellipse cx="28" cy="109.28" rx="16.07" ry="30.53" fill="#536d57" fill-opacity="0.66" transform="rotate(20)" />
      <g transform="translate(0 0)">
        <ellipse cx="22.50" cy="0.00" rx="14.46" ry="22.50" fill="#b58d76" fill-opacity="0.95" /><ellipse cx="15.91" cy="15.91" rx="14.46" ry="22.50" fill="#b58d76" fill-opacity="0.95" /><ellipse cx="0.00" cy="22.50" rx="14.46" ry="22.50" fill="#b58d76" fill-opacity="0.95" /><ellipse cx="-15.91" cy="15.91" rx="14.46" ry="22.50" fill="#b58d76" fill-opacity="0.95" /><ellipse cx="-22.50" cy="0.00" rx="14.46" ry="22.50" fill="#b58d76" fill-opacity="0.95" /><ellipse cx="-15.91" cy="-15.91" rx="14.46" ry="22.50" fill="#b58d76" fill-opacity="0.95" /><ellipse cx="-0.00" cy="-22.50" rx="14.46" ry="22.50" fill="#b58d76" fill-opacity="0.95" /><ellipse cx="15.91" cy="-15.91" rx="14.46" ry="22.50" fill="#b58d76" fill-opacity="0.95" />
        <circle cx="0" cy="0" r="14.46" fill="#8d6959" />
        <circle cx="0" cy="0" r="7.23" fill="#fff7f0" fill-opacity="0.72" />
      </g>
    </g>
    
  </g>
  <path d="M0 980 C220 920, 420 1030, 900 930 L900 1100 L0 1100 Z" fill="#ffffff" fill-opacity="0.22" />
</svg>
