<svg xmlns="http://www.w3.org/2000/svg" width="900" height="1100" viewBox="0 0 900 1100">
  <defs>
    <linearGradient id="bg" x1="0" y1="0" x2="0" y2="1">
      <stop offset="0%" stop-color="#f3f0ea" />
      <stop offset="100%" stop-color="#e8ece7" />
    </linearGradient>
    <filter id="shadow" x="-20%" y="-20%" width="140%" height="140%">
      <feDropShadow dx="0" dy="22" stdDeviation="24" flood-color="#6c5d4f" flood-opacity="0.12" />
    </filter>
  </defs>
  <rect width="100%" height="100%" fill="url(#bg)" />
  <circle cx="730" cy="180" r="140" fill="#ffffff" fill-opacity="0.18" />
  <circle cx="150" cy="260" r="90" fill="#ffffff" fill-opacity="0.12" />
  
      <rect x="70" y="72" width="300" height="92" rx="24" fill="#ffffff" fill-opacity="0.34" />
      <text x="98" y="120" fill="#2f3a31" font-size="32" font-family="'PingFang SC','Microsoft YaHei',sans-serif" font-weight="600">林感桌景</text>
      <text x="98" y="152" fill="#4e6152" font-size="18" font-family="'PingFang SC','Microsoft YaHei',sans-serif">定制 · 品牌活动</text>
    
  <g filter="url(#shadow)">
    <ellipse cx="450" cy="955" rx="280" ry="90" fill="#d9cec2" fill-opacity="0.55" /><rect x="220" y="820" width="460" height="170" rx="18" fill="#f2ece5" fill-opacity="0.65" />
  </g>
  <g>
    
    <g transform="translate(439.27 466.56) rotate(23.78)">
      <path d="M 0 0 C -8 103.78, 10 172.97, -6 253.68" stroke="#536d57" stroke-width="13.84" fill="none" stroke-linecap="round" />
      <ellipse cx="-20" cy="126.84" rx="25.37" ry="48.43" fill="#536d57" fill-opacity="0.75" transform="rotate(-24)" />
      <ellipse cx="28" cy="156.82" rx="23.06" ry="43.82" fill="#536d57" fill-opacity="0.66" transform="rotate(20)" />
      <g transform="translate(0 0)">
        <ellipse cx="32.29" cy="0.00" rx="20.76" ry="32.29" fill="#f7ede0" fill-opacity="0.95" /><ellipse cx="22.83" cy="22.83" rx="20.76" ry="32.29" fill="#f7ede0" fill-opacity="0.95" /><ellipse cx="0.00" cy="32.29" rx="20.76" ry="32.29" fill="#f7ede0" fill-opacity="0.95" /><ellipse cx="-22.83" cy="22.83" rx="20.76" ry="32.29" fill="#f7ede0" fill-opacity="0.95" /><ellipse cx="-32.29" cy="0.00" rx="20.76" ry="32.29" fill="#f7ede0" fill-opacity="0.95" /><ellipse cx="-22.83" cy="-22.83" rx="20.76" ry="32.29" fill="#f7ede0" fill-opacity="0.95" /><ellipse cx="-0.00" cy="-32.29" rx="20.76" ry="32.29" fill="#f7ede0" fill-opacity="0.95" /><ellipse cx="22.83" cy="-22.83" rx="20.76" ry="32.29" fill="#f7ede0" fill-opacity="0.95" />
        <circle cx="0" cy="0" r="20.76" fill="#8d6959" />
        <circle cx="0" cy="0" r="10.38" fill="#fff7f0" fill-opacity="0.72" />
      </g>
    </g>
    
    <g transform="translate(304.42 505.64) rotate(1.20)">
      <path d="M 0 0 C -8 89.68, 10 149.46, -6 219.21" stroke="#6f8b70" stroke-width="11.96" fill="none" stroke-linecap="round" />
      <ellipse cx="-20" cy="109.61" rx="21.92" ry="41.85" fill="#6f8b70" fill-opacity="0.75" transform="rotate(-24)" />
      <ellipse cx="28" cy="135.51" rx="19.93" ry="37.86" fill="#6f8b70" fill-opacity="0.66" transform="rotate(20)" />
      <g transform="translate(0 0)">
        <ellipse cx="27.90" cy="0.00" rx="17.94" ry="27.90" fill="#d7cabf" fill-opacity="0.95" /><ellipse cx="19.73" cy="19.73" rx="17.94" ry="27.90" fill="#d7cabf" fill-opacity="0.95" /><ellipse cx="0.00" cy="27.90" rx="17.94" ry="27.90" fill="#d7cabf" fill-opacity="0.95" /><ellipse cx="-19.73" cy="19.73" rx="17.94" ry="27.90" fill="#d7cabf" fill-opacity="0.95" /><ellipse cx="-27.90" cy="0.00" rx="17.94" ry="27.90" fill="#d7cabf" fill-opacity="0.95" /><ellipse cx="-19.73" cy="-19.73" rx="17.94" ry="27.90" fill="#d7cabf" fill-opacity="0.95" /><ellipse cx="-0.00" cy="-27.90" rx="17.94" ry="27.90" fill="#d7cabf" fill-opacity="0.95" /><ellipse cx="19.73" cy="-19.73" rx="17.94" ry="27.90" fill="#d7cabf" fill-opacity="0.95" />
        <circle cx="0" cy="0" r="17.94" fill="#8d6959" />
        <circle cx="0" cy="0" r="8.97" fill="#fff7f0" fill-opacity="0.72" />
      </g>
    </g>
    
    <g transform="translate(245.15 390.02) rotate(-23.33)">
      <path d="M 0 0 C -8 88.87, 10 148.11, -6 217.23" stroke="#8ba08a" stroke-width="11.85" fill="none" stroke-linecap="round" />
      <ellipse cx="-20" cy="108.61" rx="21.72" ry="41.47" fill="#8ba08a" fill-opacity="0.75" transform="rotate(-24)" />
      <ellipse cx="28" cy="134.29" rx="19.75" ry="37.52" fill="#8ba08a" fill-opacity="0.66" transform="rotate(20)" />
      <g transform="translate(0 0)">
        <ellipse cx="27.65" cy="0.00" rx="17.77" ry="27.65" fill="#b58d76" fill-opacity="0.95" /><ellipse cx="19.55" cy="19.55" rx="17.77" ry="27.65" fill="#b58d76" fill-opacity="0.95" /><ellipse cx="0.00" cy="27.65" rx="17.77" ry="27.65" fill="#b58d76" fill-opacity="0.95" /><ellipse cx="-19.55" cy="19.55" rx="17.77" ry="27.65" fill="#b58d76" fill-opacity="0.95" /><ellipse cx="-27.65" cy="0.00" rx="17.77" ry="27.65" fill="#b58d76" fill-opacity="0.95" /><ellipse cx="-19.55" cy="-19.55" rx="17.77" ry="27.65" fill="#b58d76" fill-opacity="0.95" /><ellipse cx="-0.00" cy="-27.65" rx="17.77" ry="27.65" fill="#b58d76" fill-opacity="0.95" /><ellipse cx="19.55" cy="-19.55" rx="17.77" ry="27.65" fill="#b58d76" fill-opacity="0.95" />
        <circle cx="0" cy="0" r="17.77" fill="#8d6959" />
        <circle cx="0" cy="0" r="8.89" fill="#fff7f0" fill-opacity="0.72" />
      </g>
    </g>
    
    <g transform="translate(495.25 376.42) rotate(17.43)">
      <path d="M 0 0 C -8 110.20, 10 183.66, -6 269.37" stroke="#536d57" stroke-width="14.69" fill="none" stroke-linecap="round" />
      <ellipse cx="-20" cy="134.68" rx="26.94" ry="51.42" fill="#536d57" fill-opacity="0.75" transform="rotate(-24)" />
      <ellipse cx="28" cy="166.52" rx="24.49" ry="46.53" fill="#536d57" fill-opacity="0.66" transform="rotate(20)" />
      <g transform="translate(0 0)">
        <ellipse cx="34.28" cy="0.00" rx="22.04" ry="34.28" fill="#f1dccf" fill-opacity="0.95" /><ellipse cx="24.24" cy="24.24" rx="22.04" ry="34.28" fill="#f1dccf" fill-opacity="0.95" /><ellipse cx="0.00" cy="34.28" rx="22.04" ry="34.28" fill="#f1dccf" fill-opacity="0.95" /><ellipse cx="-24.24" cy="24.24" rx="22.04" ry="34.28" fill="#f1dccf" fill-opacity="0.95" /><ellipse cx="-34.28" cy="0.00" rx="22.04" ry="34.28" fill="#f1dccf" fill-opacity="0.95" /><ellipse cx="-24.24" cy="-24.24" rx="22.04" ry="34.28" fill="#f1dccf" fill-opacity="0.95" /><ellipse cx="-0.00" cy="-34.28" rx="22.04" ry="34.28" fill="#f1dccf" fill-opacity="0.95" /><ellipse cx="24.24" cy="-24.24" rx="22.04" ry="34.28" fill="#f1dccf" fill-opacity="0.95" />
        <circle cx="0" cy="0" r="22.04" fill="#8d6959" />
        <circle cx="0" cy="0" r="11.02" fill="#fff7f0" fill-opacity="0.72" />
      </g>
    </g>
    
    <g transform="translate(283.95 486.15) rotate(-11.94)">
      <path d="M 0 0 C -8 86.05, 10 143.42, -6 210.35" stroke="#6f8b70" stroke-width="11.47" fill="none" stroke-linecap="round" />
      <ellipse cx="-20" cy="105.17" rx="21.03" ry="40.16" fill="#6f8b70" fill-opacity="0.75" transform="rotate(-24)" />
      <ellipse cx="28" cy="130.03" rx="19.12" ry="36.33" fill="#6f8b70" fill-opacity="0.66" transform="rotate(20)" />
      <g transform="translate(0 0)">
        <ellipse cx="26.77" cy="0.00" rx="17.21" ry="26.77" fill="#f7ede0" fill-opacity="0.95" /><ellipse cx="18.93" cy="18.93" rx="17.21" ry="26.77" fill="#f7ede0" fill-opacity="0.95" /><ellipse cx="0.00" cy="26.77" rx="17.21" ry="26.77" fill="#f7ede0" fill-opacity="0.95" /><ellipse cx="-18.93" cy="18.93" rx="17.21" ry="26.77" fill="#f7ede0" fill-opacity="0.95" /><ellipse cx="-26.77" cy="0.00" rx="17.21" ry="26.77" fill="#f7ede0" fill-opacity="0.95" /><ellipse cx="-18.93" cy="-18.93" rx="17.21" ry="26.77" fill="#f7ede0" fill-opacity="0.95" /><ellipse cx="-0.00" cy="-26.77" rx="17.21" ry="26.77" fill="#f7ede0" fill-opacity="0.95" /><ellipse cx="18.93" cy="-18.93" rx="17.21" ry="26.77" fill="#f7ede0" fill-opacity="0.95" />
        <circle cx="0" cy="0" r="17.21" fill="#8d6959" />
        <circle cx="0" cy="0" r="8.61" fill="#fff7f0" fill-opacity="0.72" />
      </g>
    </g>
    
    <g transform="translate(314.14 522.09) rotate(-8.42)">
      <path d="M 0 0 C -8 104.09, 10 173.49, -6 254.45" stroke="#8ba08a" stroke-width="13.88" fill="none" stroke-linecap="round" />
      <ellipse cx="-20" cy="127.22" rx="25.44" ry="48.58" fill="#8ba08a" fill-opacity="0.75" transform="rotate(-24)" />
      <ellipse cx="28" cy="157.30" rx="23.13" ry="43.95" fill="#8ba08a" fill-opacity="0.66" transform="rotate(20)" />
      <g transform="translate(0 0)">
        <ellipse cx="32.38" cy="0.00" rx="20.82" ry="32.38" fill="#d7cabf" fill-opacity="0.95" /><ellipse cx="22.90" cy="22.90" rx="20.82" ry="32.38" fill="#d7cabf" fill-opacity="0.95" /><ellipse cx="0.00" cy="32.38" rx="20.82" ry="32.38" fill="#d7cabf" fill-opacity="0.95" /><ellipse cx="-22.90" cy="22.90" rx="20.82" ry="32.38" fill="#d7cabf" fill-opacity="0.95" /><ellipse cx="-32.38" cy="0.00" rx="20.82" ry="32.38" fill="#d7cabf" fill-opacity="0.95" /><ellipse cx="-22.90" cy="-22.90" rx="20.82" ry="32.38" fill="#d7cabf" fill-opacity="0.95" /><ellipse cx="-0.00" cy="-32.38" rx="20.82" ry="32.38" fill="#d7cabf" fill-opacity="0.95" /><ellipse cx="22.90" cy="-22.90" rx="20.82" ry="32.38" fill="#d7cabf" fill-opacity="0.95" />
        <circle cx="0" cy="0" r="20.82" fill="#8d6959" />
        <circle cx="0" cy="0" r="10.41" fill="#fff7f0" fill-opacity="0.72" />
      </g>
    </g>
    
    <g transform="translate(302.80 492.29) rotate(-24.80)">
      <path d="M 0 0 C -8 113.52, 10 189.20, -6 277.49" stroke="#536d57" stroke-width="15.14" fill="none" stroke-linecap="round" />
      <ellipse cx="-20" cy="138.75" rx="27.75" ry="52.98" fill="#536d57" fill-opacity="0.75" transform="rotate(-24)" />
      <ellipse cx="28" cy="171.54" rx="25.23" ry="47.93" fill="#536d57" fill-opacity="0.66" transform="rotate(20)" />
      <g transform="translate(0 0)">
        <ellipse cx="35.32" cy="0.00" rx="22.70" ry="35.32" fill="#b58d76" fill-opacity="0.95" /><ellipse cx="24.97" cy="24.97" rx="22.70" ry="35.32" fill="#b58d76" fill-opacity="0.95" /><ellipse cx="0.00" cy="35.32" rx="22.70" ry="35.32" fill="#b58d76" fill-opacity="0.95" /><ellipse cx="-24.97" cy="24.97" rx="22.70" ry="35.32" fill="#b58d76" fill-opacity="0.95" /><ellipse cx="-35.32" cy="0.00" rx="22.70" ry="35.32" fill="#b58d76" fill-opacity="0.95" /><ellipse cx="-24.97" cy="-24.97" rx="22.70" ry="35.32" fill="#b58d76" fill-opacity="0.95" /><ellipse cx="-0.00" cy="-35.32" rx="22.70" ry="35.32" fill="#b58d76" fill-opacity="0.95" /><ellipse cx="24.97" cy="-24.97" rx="22.70" ry="35.32" fill="#b58d76" fill-opacity="0.95" />
        <circle cx="0" cy="0" r="22.70" fill="#8d6959" />
        <circle cx="0" cy="0" r="11.35" fill="#fff7f0" fill-opacity="0.72" />
      </g>
    </g>
    
  </g>
  <path d="M0 980 C220 920, 420 1030, 900 930 L900 1100 L0 1100 Z" fill="#ffffff" fill-opacity="0.22" />
</svg>
