<svg xmlns="http://www.w3.org/2000/svg" width="900" height="1100" viewBox="0 0 900 1100">
  <defs>
    <linearGradient id="bg" x1="0" y1="0" x2="0" y2="1">
      <stop offset="0%" stop-color="#f3f0ea" />
      <stop offset="100%" stop-color="#e8ece7" />
    </linearGradient>
    <filter id="shadow" x="-20%" y="-20%" width="140%" height="140%">
      <feDropShadow dx="0" dy="22" stdDeviation="24" flood-color="#6c5d4f" flood-opacity="0.12" />
    </filter>
  </defs>
  <rect width="100%" height="100%" fill="url(#bg)" />
  <circle cx="730" cy="180" r="140" fill="#ffffff" fill-opacity="0.18" />
  <circle cx="150" cy="260" r="90" fill="#ffffff" fill-opacity="0.12" />
  
      <rect x="70" y="72" width="300" height="92" rx="24" fill="#ffffff" fill-opacity="0.34" />
      <text x="98" y="120" fill="#2f3a31" font-size="32" font-family="'PingFang SC','Microsoft YaHei',sans-serif" font-weight="600">林感桌景</text>
      <text x="98" y="152" fill="#4e6152" font-size="18" font-family="'PingFang SC','Microsoft YaHei',sans-serif">定制 · 品牌活动</text>
    
  <g filter="url(#shadow)">
    <ellipse cx="450" cy="955" rx="280" ry="90" fill="#d9cec2" fill-opacity="0.55" /><rect x="220" y="820" width="460" height="170" rx="18" fill="#f2ece5" fill-opacity="0.65" />
  </g>
  <g>
    
    <g transform="translate(571.83 487.77) rotate(-17.10)">
      <path d="M 0 0 C -8 99.65, 10 166.08, -6 243.58" stroke="#536d57" stroke-width="13.29" fill="none" stroke-linecap="round" />
      <ellipse cx="-20" cy="121.79" rx="24.36" ry="46.50" fill="#536d57" fill-opacity="0.75" transform="rotate(-24)" />
      <ellipse cx="28" cy="150.58" rx="22.14" ry="42.07" fill="#536d57" fill-opacity="0.66" transform="rotate(20)" />
      <g transform="translate(0 0)">
        <ellipse cx="31.00" cy="0.00" rx="19.93" ry="31.00" fill="#f7ede0" fill-opacity="0.95" /><ellipse cx="21.92" cy="21.92" rx="19.93" ry="31.00" fill="#f7ede0" fill-opacity="0.95" /><ellipse cx="0.00" cy="31.00" rx="19.93" ry="31.00" fill="#f7ede0" fill-opacity="0.95" /><ellipse cx="-21.92" cy="21.92" rx="19.93" ry="31.00" fill="#f7ede0" fill-opacity="0.95" /><ellipse cx="-31.00" cy="0.00" rx="19.93" ry="31.00" fill="#f7ede0" fill-opacity="0.95" /><ellipse cx="-21.92" cy="-21.92" rx="19.93" ry="31.00" fill="#f7ede0" fill-opacity="0.95" /><ellipse cx="-0.00" cy="-31.00" rx="19.93" ry="31.00" fill="#f7ede0" fill-opacity="0.95" /><ellipse cx="21.92" cy="-21.92" rx="19.93" ry="31.00" fill="#f7ede0" fill-opacity="0.95" />
        <circle cx="0" cy="0" r="19.93" fill="#8d6959" />
        <circle cx="0" cy="0" r="9.96" fill="#fff7f0" fill-opacity="0.72" />
      </g>
    </g>
    
    <g transform="translate(321.96 362.45) rotate(-13.46)">
      <path d="M 0 0 C -8 82.44, 10 137.40, -6 201.52" stroke="#6f8b70" stroke-width="10.99" fill="none" stroke-linecap="round" />
      <ellipse cx="-20" cy="100.76" rx="20.15" ry="38.47" fill="#6f8b70" fill-opacity="0.75" transform="rotate(-24)" />
      <ellipse cx="28" cy="124.58" rx="18.32" ry="34.81" fill="#6f8b70" fill-opacity="0.66" transform="rotate(20)" />
      <g transform="translate(0 0)">
        <ellipse cx="25.65" cy="0.00" rx="16.49" ry="25.65" fill="#d7cabf" fill-opacity="0.95" /><ellipse cx="18.14" cy="18.14" rx="16.49" ry="25.65" fill="#d7cabf" fill-opacity="0.95" /><ellipse cx="0.00" cy="25.65" rx="16.49" ry="25.65" fill="#d7cabf" fill-opacity="0.95" /><ellipse cx="-18.14" cy="18.14" rx="16.49" ry="25.65" fill="#d7cabf" fill-opacity="0.95" /><ellipse cx="-25.65" cy="0.00" rx="16.49" ry="25.65" fill="#d7cabf" fill-opacity="0.95" /><ellipse cx="-18.14" cy="-18.14" rx="16.49" ry="25.65" fill="#d7cabf" fill-opacity="0.95" /><ellipse cx="-0.00" cy="-25.65" rx="16.49" ry="25.65" fill="#d7cabf" fill-opacity="0.95" /><ellipse cx="18.14" cy="-18.14" rx="16.49" ry="25.65" fill="#d7cabf" fill-opacity="0.95" />
        <circle cx="0" cy="0" r="16.49" fill="#8d6959" />
        <circle cx="0" cy="0" r="8.24" fill="#fff7f0" fill-opacity="0.72" />
      </g>
    </g>
    
    <g transform="translate(252.75 497.29) rotate(8.06)">
      <path d="M 0 0 C -8 80.36, 10 133.93, -6 196.43" stroke="#8ba08a" stroke-width="10.71" fill="none" stroke-linecap="round" />
      <ellipse cx="-20" cy="98.22" rx="19.64" ry="37.50" fill="#8ba08a" fill-opacity="0.75" transform="rotate(-24)" />
      <ellipse cx="28" cy="121.43" rx="17.86" ry="33.93" fill="#8ba08a" fill-opacity="0.66" transform="rotate(20)" />
      <g transform="translate(0 0)">
        <ellipse cx="25.00" cy="0.00" rx="16.07" ry="25.00" fill="#b58d76" fill-opacity="0.95" /><ellipse cx="17.68" cy="17.68" rx="16.07" ry="25.00" fill="#b58d76" fill-opacity="0.95" /><ellipse cx="0.00" cy="25.00" rx="16.07" ry="25.00" fill="#b58d76" fill-opacity="0.95" /><ellipse cx="-17.68" cy="17.68" rx="16.07" ry="25.00" fill="#b58d76" fill-opacity="0.95" /><ellipse cx="-25.00" cy="0.00" rx="16.07" ry="25.00" fill="#b58d76" fill-opacity="0.95" /><ellipse cx="-17.68" cy="-17.68" rx="16.07" ry="25.00" fill="#b58d76" fill-opacity="0.95" /><ellipse cx="-0.00" cy="-25.00" rx="16.07" ry="25.00" fill="#b58d76" fill-opacity="0.95" /><ellipse cx="17.68" cy="-17.68" rx="16.07" ry="25.00" fill="#b58d76" fill-opacity="0.95" />
        <circle cx="0" cy="0" r="16.07" fill="#8d6959" />
        <circle cx="0" cy="0" r="8.04" fill="#fff7f0" fill-opacity="0.72" />
      </g>
    </g>
    
    <g transform="translate(211.71 486.98) rotate(-1.89)">
      <path d="M 0 0 C -8 76.43, 10 127.38, -6 186.83" stroke="#536d57" stroke-width="10.19" fill="none" stroke-linecap="round" />
      <ellipse cx="-20" cy="93.41" rx="18.68" ry="35.67" fill="#536d57" fill-opacity="0.75" transform="rotate(-24)" />
      <ellipse cx="28" cy="115.49" rx="16.98" ry="32.27" fill="#536d57" fill-opacity="0.66" transform="rotate(20)" />
      <g transform="translate(0 0)">
        <ellipse cx="23.78" cy="0.00" rx="15.29" ry="23.78" fill="#f1dccf" fill-opacity="0.95" /><ellipse cx="16.81" cy="16.81" rx="15.29" ry="23.78" fill="#f1dccf" fill-opacity="0.95" /><ellipse cx="0.00" cy="23.78" rx="15.29" ry="23.78" fill="#f1dccf" fill-opacity="0.95" /><ellipse cx="-16.81" cy="16.81" rx="15.29" ry="23.78" fill="#f1dccf" fill-opacity="0.95" /><ellipse cx="-23.78" cy="0.00" rx="15.29" ry="23.78" fill="#f1dccf" fill-opacity="0.95" /><ellipse cx="-16.81" cy="-16.81" rx="15.29" ry="23.78" fill="#f1dccf" fill-opacity="0.95" /><ellipse cx="-0.00" cy="-23.78" rx="15.29" ry="23.78" fill="#f1dccf" fill-opacity="0.95" /><ellipse cx="16.81" cy="-16.81" rx="15.29" ry="23.78" fill="#f1dccf" fill-opacity="0.95" />
        <circle cx="0" cy="0" r="15.29" fill="#8d6959" />
        <circle cx="0" cy="0" r="7.64" fill="#fff7f0" fill-opacity="0.72" />
      </g>
    </g>
    
    <g transform="translate(564.09 526.85) rotate(11.10)">
      <path d="M 0 0 C -8 86.19, 10 143.65, -6 210.69" stroke="#6f8b70" stroke-width="11.49" fill="none" stroke-linecap="round" />
      <ellipse cx="-20" cy="105.34" rx="21.07" ry="40.22" fill="#6f8b70" fill-opacity="0.75" transform="rotate(-24)" />
      <ellipse cx="28" cy="130.24" rx="19.15" ry="36.39" fill="#6f8b70" fill-opacity="0.66" transform="rotate(20)" />
      <g transform="translate(0 0)">
        <ellipse cx="26.81" cy="0.00" rx="17.24" ry="26.81" fill="#f7ede0" fill-opacity="0.95" /><ellipse cx="18.96" cy="18.96" rx="17.24" ry="26.81" fill="#f7ede0" fill-opacity="0.95" /><ellipse cx="0.00" cy="26.81" rx="17.24" ry="26.81" fill="#f7ede0" fill-opacity="0.95" /><ellipse cx="-18.96" cy="18.96" rx="17.24" ry="26.81" fill="#f7ede0" fill-opacity="0.95" /><ellipse cx="-26.81" cy="0.00" rx="17.24" ry="26.81" fill="#f7ede0" fill-opacity="0.95" /><ellipse cx="-18.96" cy="-18.96" rx="17.24" ry="26.81" fill="#f7ede0" fill-opacity="0.95" /><ellipse cx="-0.00" cy="-26.81" rx="17.24" ry="26.81" fill="#f7ede0" fill-opacity="0.95" /><ellipse cx="18.96" cy="-18.96" rx="17.24" ry="26.81" fill="#f7ede0" fill-opacity="0.95" />
        <circle cx="0" cy="0" r="17.24" fill="#8d6959" />
        <circle cx="0" cy="0" r="8.62" fill="#fff7f0" fill-opacity="0.72" />
      </g>
    </g>
    
    <g transform="translate(485.58 429.96) rotate(-21.62)">
      <path d="M 0 0 C -8 92.06, 10 153.43, -6 225.04" stroke="#8ba08a" stroke-width="12.27" fill="none" stroke-linecap="round" />
      <ellipse cx="-20" cy="112.52" rx="22.50" ry="42.96" fill="#8ba08a" fill-opacity="0.75" transform="rotate(-24)" />
      <ellipse cx="28" cy="139.11" rx="20.46" ry="38.87" fill="#8ba08a" fill-opacity="0.66" transform="rotate(20)" />
      <g transform="translate(0 0)">
        <ellipse cx="28.64" cy="0.00" rx="18.41" ry="28.64" fill="#d7cabf" fill-opacity="0.95" /><ellipse cx="20.25" cy="20.25" rx="18.41" ry="28.64" fill="#d7cabf" fill-opacity="0.95" /><ellipse cx="0.00" cy="28.64" rx="18.41" ry="28.64" fill="#d7cabf" fill-opacity="0.95" /><ellipse cx="-20.25" cy="20.25" rx="18.41" ry="28.64" fill="#d7cabf" fill-opacity="0.95" /><ellipse cx="-28.64" cy="0.00" rx="18.41" ry="28.64" fill="#d7cabf" fill-opacity="0.95" /><ellipse cx="-20.25" cy="-20.25" rx="18.41" ry="28.64" fill="#d7cabf" fill-opacity="0.95" /><ellipse cx="-0.00" cy="-28.64" rx="18.41" ry="28.64" fill="#d7cabf" fill-opacity="0.95" /><ellipse cx="20.25" cy="-20.25" rx="18.41" ry="28.64" fill="#d7cabf" fill-opacity="0.95" />
        <circle cx="0" cy="0" r="18.41" fill="#8d6959" />
        <circle cx="0" cy="0" r="9.21" fill="#fff7f0" fill-opacity="0.72" />
      </g>
    </g>
    
    <g transform="translate(584.84 525.41) rotate(19.83)">
      <path d="M 0 0 C -8 105.83, 10 176.39, -6 258.70" stroke="#536d57" stroke-width="14.11" fill="none" stroke-linecap="round" />
      <ellipse cx="-20" cy="129.35" rx="25.87" ry="49.39" fill="#536d57" fill-opacity="0.75" transform="rotate(-24)" />
      <ellipse cx="28" cy="159.92" rx="23.52" ry="44.68" fill="#536d57" fill-opacity="0.66" transform="rotate(20)" />
      <g transform="translate(0 0)">
        <ellipse cx="32.93" cy="0.00" rx="21.17" ry="32.93" fill="#b58d76" fill-opacity="0.95" /><ellipse cx="23.28" cy="23.28" rx="21.17" ry="32.93" fill="#b58d76" fill-opacity="0.95" /><ellipse cx="0.00" cy="32.93" rx="21.17" ry="32.93" fill="#b58d76" fill-opacity="0.95" /><ellipse cx="-23.28" cy="23.28" rx="21.17" ry="32.93" fill="#b58d76" fill-opacity="0.95" /><ellipse cx="-32.93" cy="0.00" rx="21.17" ry="32.93" fill="#b58d76" fill-opacity="0.95" /><ellipse cx="-23.28" cy="-23.28" rx="21.17" ry="32.93" fill="#b58d76" fill-opacity="0.95" /><ellipse cx="-0.00" cy="-32.93" rx="21.17" ry="32.93" fill="#b58d76" fill-opacity="0.95" /><ellipse cx="23.28" cy="-23.28" rx="21.17" ry="32.93" fill="#b58d76" fill-opacity="0.95" />
        <circle cx="0" cy="0" r="21.17" fill="#8d6959" />
        <circle cx="0" cy="0" r="10.58" fill="#fff7f0" fill-opacity="0.72" />
      </g>
    </g>
    
  </g>
  <path d="M0 980 C220 920, 420 1030, 900 930 L900 1100 L0 1100 Z" fill="#ffffff" fill-opacity="0.22" />
</svg>
