<svg xmlns="http://www.w3.org/2000/svg" width="900" height="1100" viewBox="0 0 900 1100">
  <defs>
    <linearGradient id="bg" x1="0" y1="0" x2="0" y2="1">
      <stop offset="0%" stop-color="#f3f0ea" />
      <stop offset="100%" stop-color="#e8ece7" />
    </linearGradient>
    <filter id="shadow" x="-20%" y="-20%" width="140%" height="140%">
      <feDropShadow dx="0" dy="22" stdDeviation="24" flood-color="#6c5d4f" flood-opacity="0.12" />
    </filter>
  </defs>
  <rect width="100%" height="100%" fill="url(#bg)" />
  <circle cx="730" cy="180" r="140" fill="#ffffff" fill-opacity="0.18" />
  <circle cx="150" cy="260" r="90" fill="#ffffff" fill-opacity="0.12" />
  
      <rect x="70" y="72" width="300" height="92" rx="24" fill="#ffffff" fill-opacity="0.34" />
      <text x="98" y="120" fill="#2f3a31" font-size="32" font-family="'PingFang SC','Microsoft YaHei',sans-serif" font-weight="600">餐桌回廊</text>
      <text x="98" y="152" fill="#4e6152" font-size="18" font-family="'PingFang SC','Microsoft YaHei',sans-serif">沙龙 · 会场</text>
    
  <g filter="url(#shadow)">
    <ellipse cx="450" cy="955" rx="280" ry="90" fill="#d9cec2" fill-opacity="0.55" /><rect x="220" y="820" width="460" height="170" rx="18" fill="#f2ece5" fill-opacity="0.65" />
  </g>
  <g>
    
    <g transform="translate(552.06 508.85) rotate(22.98)">
      <path d="M 0 0 C -8 112.03, 10 186.71, -6 273.85" stroke="#536d57" stroke-width="14.94" fill="none" stroke-linecap="round" />
      <ellipse cx="-20" cy="136.92" rx="27.38" ry="52.28" fill="#536d57" fill-opacity="0.75" transform="rotate(-24)" />
      <ellipse cx="28" cy="169.29" rx="24.90" ry="47.30" fill="#536d57" fill-opacity="0.66" transform="rotate(20)" />
      <g transform="translate(0 0)">
        <ellipse cx="34.85" cy="0.00" rx="22.41" ry="34.85" fill="#f7ede0" fill-opacity="0.95" /><ellipse cx="24.64" cy="24.64" rx="22.41" ry="34.85" fill="#f7ede0" fill-opacity="0.95" /><ellipse cx="0.00" cy="34.85" rx="22.41" ry="34.85" fill="#f7ede0" fill-opacity="0.95" /><ellipse cx="-24.64" cy="24.64" rx="22.41" ry="34.85" fill="#f7ede0" fill-opacity="0.95" /><ellipse cx="-34.85" cy="0.00" rx="22.41" ry="34.85" fill="#f7ede0" fill-opacity="0.95" /><ellipse cx="-24.64" cy="-24.64" rx="22.41" ry="34.85" fill="#f7ede0" fill-opacity="0.95" /><ellipse cx="-0.00" cy="-34.85" rx="22.41" ry="34.85" fill="#f7ede0" fill-opacity="0.95" /><ellipse cx="24.64" cy="-24.64" rx="22.41" ry="34.85" fill="#f7ede0" fill-opacity="0.95" />
        <circle cx="0" cy="0" r="22.41" fill="#8d6959" />
        <circle cx="0" cy="0" r="11.20" fill="#fff7f0" fill-opacity="0.72" />
      </g>
    </g>
    
    <g transform="translate(223.27 338.24) rotate(-14.01)">
      <path d="M 0 0 C -8 71.73, 10 119.56, -6 175.35" stroke="#6f8b70" stroke-width="9.56" fill="none" stroke-linecap="round" />
      <ellipse cx="-20" cy="87.68" rx="17.54" ry="33.48" fill="#6f8b70" fill-opacity="0.75" transform="rotate(-24)" />
      <ellipse cx="28" cy="108.40" rx="15.94" ry="30.29" fill="#6f8b70" fill-opacity="0.66" transform="rotate(20)" />
      <g transform="translate(0 0)">
        <ellipse cx="22.32" cy="0.00" rx="14.35" ry="22.32" fill="#d7cabf" fill-opacity="0.95" /><ellipse cx="15.78" cy="15.78" rx="14.35" ry="22.32" fill="#d7cabf" fill-opacity="0.95" /><ellipse cx="0.00" cy="22.32" rx="14.35" ry="22.32" fill="#d7cabf" fill-opacity="0.95" /><ellipse cx="-15.78" cy="15.78" rx="14.35" ry="22.32" fill="#d7cabf" fill-opacity="0.95" /><ellipse cx="-22.32" cy="0.00" rx="14.35" ry="22.32" fill="#d7cabf" fill-opacity="0.95" /><ellipse cx="-15.78" cy="-15.78" rx="14.35" ry="22.32" fill="#d7cabf" fill-opacity="0.95" /><ellipse cx="-0.00" cy="-22.32" rx="14.35" ry="22.32" fill="#d7cabf" fill-opacity="0.95" /><ellipse cx="15.78" cy="-15.78" rx="14.35" ry="22.32" fill="#d7cabf" fill-opacity="0.95" />
        <circle cx="0" cy="0" r="14.35" fill="#8d6959" />
        <circle cx="0" cy="0" r="7.17" fill="#fff7f0" fill-opacity="0.72" />
      </g>
    </g>
    
    <g transform="translate(534.73 521.08) rotate(0.81)">
      <path d="M 0 0 C -8 82.08, 10 136.80, -6 200.63" stroke="#8ba08a" stroke-width="10.94" fill="none" stroke-linecap="round" />
      <ellipse cx="-20" cy="100.32" rx="20.06" ry="38.30" fill="#8ba08a" fill-opacity="0.75" transform="rotate(-24)" />
      <ellipse cx="28" cy="124.03" rx="18.24" ry="34.65" fill="#8ba08a" fill-opacity="0.66" transform="rotate(20)" />
      <g transform="translate(0 0)">
        <ellipse cx="25.54" cy="0.00" rx="16.42" ry="25.54" fill="#b58d76" fill-opacity="0.95" /><ellipse cx="18.06" cy="18.06" rx="16.42" ry="25.54" fill="#b58d76" fill-opacity="0.95" /><ellipse cx="0.00" cy="25.54" rx="16.42" ry="25.54" fill="#b58d76" fill-opacity="0.95" /><ellipse cx="-18.06" cy="18.06" rx="16.42" ry="25.54" fill="#b58d76" fill-opacity="0.95" /><ellipse cx="-25.54" cy="0.00" rx="16.42" ry="25.54" fill="#b58d76" fill-opacity="0.95" /><ellipse cx="-18.06" cy="-18.06" rx="16.42" ry="25.54" fill="#b58d76" fill-opacity="0.95" /><ellipse cx="-0.00" cy="-25.54" rx="16.42" ry="25.54" fill="#b58d76" fill-opacity="0.95" /><ellipse cx="18.06" cy="-18.06" rx="16.42" ry="25.54" fill="#b58d76" fill-opacity="0.95" />
        <circle cx="0" cy="0" r="16.42" fill="#8d6959" />
        <circle cx="0" cy="0" r="8.21" fill="#fff7f0" fill-opacity="0.72" />
      </g>
    </g>
    
    <g transform="translate(393.17 363.08) rotate(-20.94)">
      <path d="M 0 0 C -8 100.43, 10 167.38, -6 245.49" stroke="#536d57" stroke-width="13.39" fill="none" stroke-linecap="round" />
      <ellipse cx="-20" cy="122.74" rx="24.55" ry="46.87" fill="#536d57" fill-opacity="0.75" transform="rotate(-24)" />
      <ellipse cx="28" cy="151.76" rx="22.32" ry="42.40" fill="#536d57" fill-opacity="0.66" transform="rotate(20)" />
      <g transform="translate(0 0)">
        <ellipse cx="31.24" cy="0.00" rx="20.09" ry="31.24" fill="#f1dccf" fill-opacity="0.95" /><ellipse cx="22.09" cy="22.09" rx="20.09" ry="31.24" fill="#f1dccf" fill-opacity="0.95" /><ellipse cx="0.00" cy="31.24" rx="20.09" ry="31.24" fill="#f1dccf" fill-opacity="0.95" /><ellipse cx="-22.09" cy="22.09" rx="20.09" ry="31.24" fill="#f1dccf" fill-opacity="0.95" /><ellipse cx="-31.24" cy="0.00" rx="20.09" ry="31.24" fill="#f1dccf" fill-opacity="0.95" /><ellipse cx="-22.09" cy="-22.09" rx="20.09" ry="31.24" fill="#f1dccf" fill-opacity="0.95" /><ellipse cx="-0.00" cy="-31.24" rx="20.09" ry="31.24" fill="#f1dccf" fill-opacity="0.95" /><ellipse cx="22.09" cy="-22.09" rx="20.09" ry="31.24" fill="#f1dccf" fill-opacity="0.95" />
        <circle cx="0" cy="0" r="20.09" fill="#8d6959" />
        <circle cx="0" cy="0" r="10.04" fill="#fff7f0" fill-opacity="0.72" />
      </g>
    </g>
    
    <g transform="translate(565.91 514.94) rotate(13.38)">
      <path d="M 0 0 C -8 92.04, 10 153.39, -6 224.98" stroke="#6f8b70" stroke-width="12.27" fill="none" stroke-linecap="round" />
      <ellipse cx="-20" cy="112.49" rx="22.50" ry="42.95" fill="#6f8b70" fill-opacity="0.75" transform="rotate(-24)" />
      <ellipse cx="28" cy="139.08" rx="20.45" ry="38.86" fill="#6f8b70" fill-opacity="0.66" transform="rotate(20)" />
      <g transform="translate(0 0)">
        <ellipse cx="28.63" cy="0.00" rx="18.41" ry="28.63" fill="#f7ede0" fill-opacity="0.95" /><ellipse cx="20.25" cy="20.25" rx="18.41" ry="28.63" fill="#f7ede0" fill-opacity="0.95" /><ellipse cx="0.00" cy="28.63" rx="18.41" ry="28.63" fill="#f7ede0" fill-opacity="0.95" /><ellipse cx="-20.25" cy="20.25" rx="18.41" ry="28.63" fill="#f7ede0" fill-opacity="0.95" /><ellipse cx="-28.63" cy="0.00" rx="18.41" ry="28.63" fill="#f7ede0" fill-opacity="0.95" /><ellipse cx="-20.25" cy="-20.25" rx="18.41" ry="28.63" fill="#f7ede0" fill-opacity="0.95" /><ellipse cx="-0.00" cy="-28.63" rx="18.41" ry="28.63" fill="#f7ede0" fill-opacity="0.95" /><ellipse cx="20.25" cy="-20.25" rx="18.41" ry="28.63" fill="#f7ede0" fill-opacity="0.95" />
        <circle cx="0" cy="0" r="18.41" fill="#8d6959" />
        <circle cx="0" cy="0" r="9.20" fill="#fff7f0" fill-opacity="0.72" />
      </g>
    </g>
    
    <g transform="translate(645.84 415.09) rotate(18.52)">
      <path d="M 0 0 C -8 98.96, 10 164.93, -6 241.90" stroke="#8ba08a" stroke-width="13.19" fill="none" stroke-linecap="round" />
      <ellipse cx="-20" cy="120.95" rx="24.19" ry="46.18" fill="#8ba08a" fill-opacity="0.75" transform="rotate(-24)" />
      <ellipse cx="28" cy="149.54" rx="21.99" ry="41.78" fill="#8ba08a" fill-opacity="0.66" transform="rotate(20)" />
      <g transform="translate(0 0)">
        <ellipse cx="30.79" cy="0.00" rx="19.79" ry="30.79" fill="#d7cabf" fill-opacity="0.95" /><ellipse cx="21.77" cy="21.77" rx="19.79" ry="30.79" fill="#d7cabf" fill-opacity="0.95" /><ellipse cx="0.00" cy="30.79" rx="19.79" ry="30.79" fill="#d7cabf" fill-opacity="0.95" /><ellipse cx="-21.77" cy="21.77" rx="19.79" ry="30.79" fill="#d7cabf" fill-opacity="0.95" /><ellipse cx="-30.79" cy="0.00" rx="19.79" ry="30.79" fill="#d7cabf" fill-opacity="0.95" /><ellipse cx="-21.77" cy="-21.77" rx="19.79" ry="30.79" fill="#d7cabf" fill-opacity="0.95" /><ellipse cx="-0.00" cy="-30.79" rx="19.79" ry="30.79" fill="#d7cabf" fill-opacity="0.95" /><ellipse cx="21.77" cy="-21.77" rx="19.79" ry="30.79" fill="#d7cabf" fill-opacity="0.95" />
        <circle cx="0" cy="0" r="19.79" fill="#8d6959" />
        <circle cx="0" cy="0" r="9.90" fill="#fff7f0" fill-opacity="0.72" />
      </g>
    </g>
    
    <g transform="translate(508.47 355.73) rotate(14.58)">
      <path d="M 0 0 C -8 104.48, 10 174.13, -6 255.39" stroke="#536d57" stroke-width="13.93" fill="none" stroke-linecap="round" />
      <ellipse cx="-20" cy="127.70" rx="25.54" ry="48.76" fill="#536d57" fill-opacity="0.75" transform="rotate(-24)" />
      <ellipse cx="28" cy="157.88" rx="23.22" ry="44.11" fill="#536d57" fill-opacity="0.66" transform="rotate(20)" />
      <g transform="translate(0 0)">
        <ellipse cx="32.50" cy="0.00" rx="20.90" ry="32.50" fill="#b58d76" fill-opacity="0.95" /><ellipse cx="22.98" cy="22.98" rx="20.90" ry="32.50" fill="#b58d76" fill-opacity="0.95" /><ellipse cx="0.00" cy="32.50" rx="20.90" ry="32.50" fill="#b58d76" fill-opacity="0.95" /><ellipse cx="-22.98" cy="22.98" rx="20.90" ry="32.50" fill="#b58d76" fill-opacity="0.95" /><ellipse cx="-32.50" cy="0.00" rx="20.90" ry="32.50" fill="#b58d76" fill-opacity="0.95" /><ellipse cx="-22.98" cy="-22.98" rx="20.90" ry="32.50" fill="#b58d76" fill-opacity="0.95" /><ellipse cx="-0.00" cy="-32.50" rx="20.90" ry="32.50" fill="#b58d76" fill-opacity="0.95" /><ellipse cx="22.98" cy="-22.98" rx="20.90" ry="32.50" fill="#b58d76" fill-opacity="0.95" />
        <circle cx="0" cy="0" r="20.90" fill="#8d6959" />
        <circle cx="0" cy="0" r="10.45" fill="#fff7f0" fill-opacity="0.72" />
      </g>
    </g>
    
  </g>
  <path d="M0 980 C220 920, 420 1030, 900 930 L900 1100 L0 1100 Z" fill="#ffffff" fill-opacity="0.22" />
</svg>
