<svg xmlns="http://www.w3.org/2000/svg" width="900" height="1100" viewBox="0 0 900 1100">
  <defs>
    <linearGradient id="bg" x1="0" y1="0" x2="0" y2="1">
      <stop offset="0%" stop-color="#f3f0ea" />
      <stop offset="100%" stop-color="#e8ece7" />
    </linearGradient>
    <filter id="shadow" x="-20%" y="-20%" width="140%" height="140%">
      <feDropShadow dx="0" dy="22" stdDeviation="24" flood-color="#6c5d4f" flood-opacity="0.12" />
    </filter>
  </defs>
  <rect width="100%" height="100%" fill="url(#bg)" />
  <circle cx="730" cy="180" r="140" fill="#ffffff" fill-opacity="0.18" />
  <circle cx="150" cy="260" r="90" fill="#ffffff" fill-opacity="0.12" />
  
      <rect x="70" y="72" width="300" height="92" rx="24" fill="#ffffff" fill-opacity="0.34" />
      <text x="98" y="120" fill="#2f3a31" font-size="32" font-family="'PingFang SC','Microsoft YaHei',sans-serif" font-weight="600">沙龙雾境</text>
      <text x="98" y="152" fill="#4e6152" font-size="18" font-family="'PingFang SC','Microsoft YaHei',sans-serif">定制 · 品牌活动</text>
    
  <g filter="url(#shadow)">
    <ellipse cx="450" cy="955" rx="280" ry="90" fill="#d9cec2" fill-opacity="0.55" /><rect x="220" y="820" width="460" height="170" rx="18" fill="#f2ece5" fill-opacity="0.65" />
  </g>
  <g>
    
    <g transform="translate(591.39 428.76) rotate(13.20)">
      <path d="M 0 0 C -8 114.42, 10 190.71, -6 279.70" stroke="#536d57" stroke-width="15.26" fill="none" stroke-linecap="round" />
      <ellipse cx="-20" cy="139.85" rx="27.97" ry="53.40" fill="#536d57" fill-opacity="0.75" transform="rotate(-24)" />
      <ellipse cx="28" cy="172.91" rx="25.43" ry="48.31" fill="#536d57" fill-opacity="0.66" transform="rotate(20)" />
      <g transform="translate(0 0)">
        <ellipse cx="35.60" cy="0.00" rx="22.88" ry="35.60" fill="#f7ede0" fill-opacity="0.95" /><ellipse cx="25.17" cy="25.17" rx="22.88" ry="35.60" fill="#f7ede0" fill-opacity="0.95" /><ellipse cx="0.00" cy="35.60" rx="22.88" ry="35.60" fill="#f7ede0" fill-opacity="0.95" /><ellipse cx="-25.17" cy="25.17" rx="22.88" ry="35.60" fill="#f7ede0" fill-opacity="0.95" /><ellipse cx="-35.60" cy="0.00" rx="22.88" ry="35.60" fill="#f7ede0" fill-opacity="0.95" /><ellipse cx="-25.17" cy="-25.17" rx="22.88" ry="35.60" fill="#f7ede0" fill-opacity="0.95" /><ellipse cx="-0.00" cy="-35.60" rx="22.88" ry="35.60" fill="#f7ede0" fill-opacity="0.95" /><ellipse cx="25.17" cy="-25.17" rx="22.88" ry="35.60" fill="#f7ede0" fill-opacity="0.95" />
        <circle cx="0" cy="0" r="22.88" fill="#8d6959" />
        <circle cx="0" cy="0" r="11.44" fill="#fff7f0" fill-opacity="0.72" />
      </g>
    </g>
    
    <g transform="translate(356.42 387.07) rotate(-13.57)">
      <path d="M 0 0 C -8 101.90, 10 169.84, -6 249.09" stroke="#6f8b70" stroke-width="13.59" fill="none" stroke-linecap="round" />
      <ellipse cx="-20" cy="124.55" rx="24.91" ry="47.55" fill="#6f8b70" fill-opacity="0.75" transform="rotate(-24)" />
      <ellipse cx="28" cy="153.99" rx="22.64" ry="43.03" fill="#6f8b70" fill-opacity="0.66" transform="rotate(20)" />
      <g transform="translate(0 0)">
        <ellipse cx="31.70" cy="0.00" rx="20.38" ry="31.70" fill="#d7cabf" fill-opacity="0.95" /><ellipse cx="22.42" cy="22.42" rx="20.38" ry="31.70" fill="#d7cabf" fill-opacity="0.95" /><ellipse cx="0.00" cy="31.70" rx="20.38" ry="31.70" fill="#d7cabf" fill-opacity="0.95" /><ellipse cx="-22.42" cy="22.42" rx="20.38" ry="31.70" fill="#d7cabf" fill-opacity="0.95" /><ellipse cx="-31.70" cy="0.00" rx="20.38" ry="31.70" fill="#d7cabf" fill-opacity="0.95" /><ellipse cx="-22.42" cy="-22.42" rx="20.38" ry="31.70" fill="#d7cabf" fill-opacity="0.95" /><ellipse cx="-0.00" cy="-31.70" rx="20.38" ry="31.70" fill="#d7cabf" fill-opacity="0.95" /><ellipse cx="22.42" cy="-22.42" rx="20.38" ry="31.70" fill="#d7cabf" fill-opacity="0.95" />
        <circle cx="0" cy="0" r="20.38" fill="#8d6959" />
        <circle cx="0" cy="0" r="10.19" fill="#fff7f0" fill-opacity="0.72" />
      </g>
    </g>
    
    <g transform="translate(534.92 392.93) rotate(3.83)">
      <path d="M 0 0 C -8 95.55, 10 159.25, -6 233.57" stroke="#8ba08a" stroke-width="12.74" fill="none" stroke-linecap="round" />
      <ellipse cx="-20" cy="116.79" rx="23.36" ry="44.59" fill="#8ba08a" fill-opacity="0.75" transform="rotate(-24)" />
      <ellipse cx="28" cy="144.39" rx="21.23" ry="40.34" fill="#8ba08a" fill-opacity="0.66" transform="rotate(20)" />
      <g transform="translate(0 0)">
        <ellipse cx="29.73" cy="0.00" rx="19.11" ry="29.73" fill="#b58d76" fill-opacity="0.95" /><ellipse cx="21.02" cy="21.02" rx="19.11" ry="29.73" fill="#b58d76" fill-opacity="0.95" /><ellipse cx="0.00" cy="29.73" rx="19.11" ry="29.73" fill="#b58d76" fill-opacity="0.95" /><ellipse cx="-21.02" cy="21.02" rx="19.11" ry="29.73" fill="#b58d76" fill-opacity="0.95" /><ellipse cx="-29.73" cy="0.00" rx="19.11" ry="29.73" fill="#b58d76" fill-opacity="0.95" /><ellipse cx="-21.02" cy="-21.02" rx="19.11" ry="29.73" fill="#b58d76" fill-opacity="0.95" /><ellipse cx="-0.00" cy="-29.73" rx="19.11" ry="29.73" fill="#b58d76" fill-opacity="0.95" /><ellipse cx="21.02" cy="-21.02" rx="19.11" ry="29.73" fill="#b58d76" fill-opacity="0.95" />
        <circle cx="0" cy="0" r="19.11" fill="#8d6959" />
        <circle cx="0" cy="0" r="9.56" fill="#fff7f0" fill-opacity="0.72" />
      </g>
    </g>
    
    <g transform="translate(367.10 330.92) rotate(7.37)">
      <path d="M 0 0 C -8 108.51, 10 180.85, -6 265.25" stroke="#536d57" stroke-width="14.47" fill="none" stroke-linecap="round" />
      <ellipse cx="-20" cy="132.63" rx="26.53" ry="50.64" fill="#536d57" fill-opacity="0.75" transform="rotate(-24)" />
      <ellipse cx="28" cy="163.97" rx="24.11" ry="45.82" fill="#536d57" fill-opacity="0.66" transform="rotate(20)" />
      <g transform="translate(0 0)">
        <ellipse cx="33.76" cy="0.00" rx="21.70" ry="33.76" fill="#f1dccf" fill-opacity="0.95" /><ellipse cx="23.87" cy="23.87" rx="21.70" ry="33.76" fill="#f1dccf" fill-opacity="0.95" /><ellipse cx="0.00" cy="33.76" rx="21.70" ry="33.76" fill="#f1dccf" fill-opacity="0.95" /><ellipse cx="-23.87" cy="23.87" rx="21.70" ry="33.76" fill="#f1dccf" fill-opacity="0.95" /><ellipse cx="-33.76" cy="0.00" rx="21.70" ry="33.76" fill="#f1dccf" fill-opacity="0.95" /><ellipse cx="-23.87" cy="-23.87" rx="21.70" ry="33.76" fill="#f1dccf" fill-opacity="0.95" /><ellipse cx="-0.00" cy="-33.76" rx="21.70" ry="33.76" fill="#f1dccf" fill-opacity="0.95" /><ellipse cx="23.87" cy="-23.87" rx="21.70" ry="33.76" fill="#f1dccf" fill-opacity="0.95" />
        <circle cx="0" cy="0" r="21.70" fill="#8d6959" />
        <circle cx="0" cy="0" r="10.85" fill="#fff7f0" fill-opacity="0.72" />
      </g>
    </g>
    
    <g transform="translate(599.55 322.16) rotate(-18.92)">
      <path d="M 0 0 C -8 87.09, 10 145.15, -6 212.88" stroke="#6f8b70" stroke-width="11.61" fill="none" stroke-linecap="round" />
      <ellipse cx="-20" cy="106.44" rx="21.29" ry="40.64" fill="#6f8b70" fill-opacity="0.75" transform="rotate(-24)" />
      <ellipse cx="28" cy="131.60" rx="19.35" ry="36.77" fill="#6f8b70" fill-opacity="0.66" transform="rotate(20)" />
      <g transform="translate(0 0)">
        <ellipse cx="27.09" cy="0.00" rx="17.42" ry="27.09" fill="#f7ede0" fill-opacity="0.95" /><ellipse cx="19.16" cy="19.16" rx="17.42" ry="27.09" fill="#f7ede0" fill-opacity="0.95" /><ellipse cx="0.00" cy="27.09" rx="17.42" ry="27.09" fill="#f7ede0" fill-opacity="0.95" /><ellipse cx="-19.16" cy="19.16" rx="17.42" ry="27.09" fill="#f7ede0" fill-opacity="0.95" /><ellipse cx="-27.09" cy="0.00" rx="17.42" ry="27.09" fill="#f7ede0" fill-opacity="0.95" /><ellipse cx="-19.16" cy="-19.16" rx="17.42" ry="27.09" fill="#f7ede0" fill-opacity="0.95" /><ellipse cx="-0.00" cy="-27.09" rx="17.42" ry="27.09" fill="#f7ede0" fill-opacity="0.95" /><ellipse cx="19.16" cy="-19.16" rx="17.42" ry="27.09" fill="#f7ede0" fill-opacity="0.95" />
        <circle cx="0" cy="0" r="17.42" fill="#8d6959" />
        <circle cx="0" cy="0" r="8.71" fill="#fff7f0" fill-opacity="0.72" />
      </g>
    </g>
    
    <g transform="translate(558.21 532.80) rotate(-19.11)">
      <path d="M 0 0 C -8 105.16, 10 175.27, -6 257.06" stroke="#8ba08a" stroke-width="14.02" fill="none" stroke-linecap="round" />
      <ellipse cx="-20" cy="128.53" rx="25.71" ry="49.08" fill="#8ba08a" fill-opacity="0.75" transform="rotate(-24)" />
      <ellipse cx="28" cy="158.91" rx="23.37" ry="44.40" fill="#8ba08a" fill-opacity="0.66" transform="rotate(20)" />
      <g transform="translate(0 0)">
        <ellipse cx="32.72" cy="0.00" rx="21.03" ry="32.72" fill="#d7cabf" fill-opacity="0.95" /><ellipse cx="23.13" cy="23.13" rx="21.03" ry="32.72" fill="#d7cabf" fill-opacity="0.95" /><ellipse cx="0.00" cy="32.72" rx="21.03" ry="32.72" fill="#d7cabf" fill-opacity="0.95" /><ellipse cx="-23.13" cy="23.13" rx="21.03" ry="32.72" fill="#d7cabf" fill-opacity="0.95" /><ellipse cx="-32.72" cy="0.00" rx="21.03" ry="32.72" fill="#d7cabf" fill-opacity="0.95" /><ellipse cx="-23.13" cy="-23.13" rx="21.03" ry="32.72" fill="#d7cabf" fill-opacity="0.95" /><ellipse cx="-0.00" cy="-32.72" rx="21.03" ry="32.72" fill="#d7cabf" fill-opacity="0.95" /><ellipse cx="23.13" cy="-23.13" rx="21.03" ry="32.72" fill="#d7cabf" fill-opacity="0.95" />
        <circle cx="0" cy="0" r="21.03" fill="#8d6959" />
        <circle cx="0" cy="0" r="10.52" fill="#fff7f0" fill-opacity="0.72" />
      </g>
    </g>
    
    <g transform="translate(392.63 450.35) rotate(20.23)">
      <path d="M 0 0 C -8 97.86, 10 163.10, -6 239.21" stroke="#536d57" stroke-width="13.05" fill="none" stroke-linecap="round" />
      <ellipse cx="-20" cy="119.60" rx="23.92" ry="45.67" fill="#536d57" fill-opacity="0.75" transform="rotate(-24)" />
      <ellipse cx="28" cy="147.87" rx="21.75" ry="41.32" fill="#536d57" fill-opacity="0.66" transform="rotate(20)" />
      <g transform="translate(0 0)">
        <ellipse cx="30.44" cy="0.00" rx="19.57" ry="30.44" fill="#b58d76" fill-opacity="0.95" /><ellipse cx="21.53" cy="21.53" rx="19.57" ry="30.44" fill="#b58d76" fill-opacity="0.95" /><ellipse cx="0.00" cy="30.44" rx="19.57" ry="30.44" fill="#b58d76" fill-opacity="0.95" /><ellipse cx="-21.53" cy="21.53" rx="19.57" ry="30.44" fill="#b58d76" fill-opacity="0.95" /><ellipse cx="-30.44" cy="0.00" rx="19.57" ry="30.44" fill="#b58d76" fill-opacity="0.95" /><ellipse cx="-21.53" cy="-21.53" rx="19.57" ry="30.44" fill="#b58d76" fill-opacity="0.95" /><ellipse cx="-0.00" cy="-30.44" rx="19.57" ry="30.44" fill="#b58d76" fill-opacity="0.95" /><ellipse cx="21.53" cy="-21.53" rx="19.57" ry="30.44" fill="#b58d76" fill-opacity="0.95" />
        <circle cx="0" cy="0" r="19.57" fill="#8d6959" />
        <circle cx="0" cy="0" r="9.79" fill="#fff7f0" fill-opacity="0.72" />
      </g>
    </g>
    
  </g>
  <path d="M0 980 C220 920, 420 1030, 900 930 L900 1100 L0 1100 Z" fill="#ffffff" fill-opacity="0.22" />
</svg>
