<svg xmlns="http://www.w3.org/2000/svg" width="900" height="1100" viewBox="0 0 900 1100">
  <defs>
    <linearGradient id="bg" x1="0" y1="0" x2="0" y2="1">
      <stop offset="0%" stop-color="#f3f0ea" />
      <stop offset="100%" stop-color="#e8ece7" />
    </linearGradient>
    <filter id="shadow" x="-20%" y="-20%" width="140%" height="140%">
      <feDropShadow dx="0" dy="22" stdDeviation="24" flood-color="#6c5d4f" flood-opacity="0.12" />
    </filter>
  </defs>
  <rect width="100%" height="100%" fill="url(#bg)" />
  <circle cx="730" cy="180" r="140" fill="#ffffff" fill-opacity="0.18" />
  <circle cx="150" cy="260" r="90" fill="#ffffff" fill-opacity="0.12" />
  
      <rect x="70" y="72" width="300" height="92" rx="24" fill="#ffffff" fill-opacity="0.34" />
      <text x="98" y="120" fill="#2f3a31" font-size="32" font-family="'PingFang SC','Microsoft YaHei',sans-serif" font-weight="600">空间序列</text>
      <text x="98" y="152" fill="#4e6152" font-size="18" font-family="'PingFang SC','Microsoft YaHei',sans-serif">宴会 · 餐桌花艺</text>
    
  <g filter="url(#shadow)">
    <ellipse cx="450" cy="955" rx="280" ry="90" fill="#d9cec2" fill-opacity="0.55" /><rect x="220" y="820" width="460" height="170" rx="18" fill="#f2ece5" fill-opacity="0.65" />
  </g>
  <g>
    
    <g transform="translate(569.38 346.86) rotate(5.93)">
      <path d="M 0 0 C -8 107.78, 10 179.64, -6 263.47" stroke="#536d57" stroke-width="14.37" fill="none" stroke-linecap="round" />
      <ellipse cx="-20" cy="131.74" rx="26.35" ry="50.30" fill="#536d57" fill-opacity="0.75" transform="rotate(-24)" />
      <ellipse cx="28" cy="162.87" rx="23.95" ry="45.51" fill="#536d57" fill-opacity="0.66" transform="rotate(20)" />
      <g transform="translate(0 0)">
        <ellipse cx="33.53" cy="0.00" rx="21.56" ry="33.53" fill="#f7ede0" fill-opacity="0.95" /><ellipse cx="23.71" cy="23.71" rx="21.56" ry="33.53" fill="#f7ede0" fill-opacity="0.95" /><ellipse cx="0.00" cy="33.53" rx="21.56" ry="33.53" fill="#f7ede0" fill-opacity="0.95" /><ellipse cx="-23.71" cy="23.71" rx="21.56" ry="33.53" fill="#f7ede0" fill-opacity="0.95" /><ellipse cx="-33.53" cy="0.00" rx="21.56" ry="33.53" fill="#f7ede0" fill-opacity="0.95" /><ellipse cx="-23.71" cy="-23.71" rx="21.56" ry="33.53" fill="#f7ede0" fill-opacity="0.95" /><ellipse cx="-0.00" cy="-33.53" rx="21.56" ry="33.53" fill="#f7ede0" fill-opacity="0.95" /><ellipse cx="23.71" cy="-23.71" rx="21.56" ry="33.53" fill="#f7ede0" fill-opacity="0.95" />
        <circle cx="0" cy="0" r="21.56" fill="#8d6959" />
        <circle cx="0" cy="0" r="10.78" fill="#fff7f0" fill-opacity="0.72" />
      </g>
    </g>
    
    <g transform="translate(208.35 487.78) rotate(16.29)">
      <path d="M 0 0 C -8 103.62, 10 172.69, -6 253.28" stroke="#6f8b70" stroke-width="13.82" fill="none" stroke-linecap="round" />
      <ellipse cx="-20" cy="126.64" rx="25.33" ry="48.35" fill="#6f8b70" fill-opacity="0.75" transform="rotate(-24)" />
      <ellipse cx="28" cy="156.57" rx="23.03" ry="43.75" fill="#6f8b70" fill-opacity="0.66" transform="rotate(20)" />
      <g transform="translate(0 0)">
        <ellipse cx="32.24" cy="0.00" rx="20.72" ry="32.24" fill="#d7cabf" fill-opacity="0.95" /><ellipse cx="22.79" cy="22.79" rx="20.72" ry="32.24" fill="#d7cabf" fill-opacity="0.95" /><ellipse cx="0.00" cy="32.24" rx="20.72" ry="32.24" fill="#d7cabf" fill-opacity="0.95" /><ellipse cx="-22.79" cy="22.79" rx="20.72" ry="32.24" fill="#d7cabf" fill-opacity="0.95" /><ellipse cx="-32.24" cy="0.00" rx="20.72" ry="32.24" fill="#d7cabf" fill-opacity="0.95" /><ellipse cx="-22.79" cy="-22.79" rx="20.72" ry="32.24" fill="#d7cabf" fill-opacity="0.95" /><ellipse cx="-0.00" cy="-32.24" rx="20.72" ry="32.24" fill="#d7cabf" fill-opacity="0.95" /><ellipse cx="22.79" cy="-22.79" rx="20.72" ry="32.24" fill="#d7cabf" fill-opacity="0.95" />
        <circle cx="0" cy="0" r="20.72" fill="#8d6959" />
        <circle cx="0" cy="0" r="10.36" fill="#fff7f0" fill-opacity="0.72" />
      </g>
    </g>
    
    <g transform="translate(224.93 448.34) rotate(-1.65)">
      <path d="M 0 0 C -8 98.20, 10 163.66, -6 240.03" stroke="#8ba08a" stroke-width="13.09" fill="none" stroke-linecap="round" />
      <ellipse cx="-20" cy="120.02" rx="24.00" ry="45.82" fill="#8ba08a" fill-opacity="0.75" transform="rotate(-24)" />
      <ellipse cx="28" cy="148.38" rx="21.82" ry="41.46" fill="#8ba08a" fill-opacity="0.66" transform="rotate(20)" />
      <g transform="translate(0 0)">
        <ellipse cx="30.55" cy="0.00" rx="19.64" ry="30.55" fill="#b58d76" fill-opacity="0.95" /><ellipse cx="21.60" cy="21.60" rx="19.64" ry="30.55" fill="#b58d76" fill-opacity="0.95" /><ellipse cx="0.00" cy="30.55" rx="19.64" ry="30.55" fill="#b58d76" fill-opacity="0.95" /><ellipse cx="-21.60" cy="21.60" rx="19.64" ry="30.55" fill="#b58d76" fill-opacity="0.95" /><ellipse cx="-30.55" cy="0.00" rx="19.64" ry="30.55" fill="#b58d76" fill-opacity="0.95" /><ellipse cx="-21.60" cy="-21.60" rx="19.64" ry="30.55" fill="#b58d76" fill-opacity="0.95" /><ellipse cx="-0.00" cy="-30.55" rx="19.64" ry="30.55" fill="#b58d76" fill-opacity="0.95" /><ellipse cx="21.60" cy="-21.60" rx="19.64" ry="30.55" fill="#b58d76" fill-opacity="0.95" />
        <circle cx="0" cy="0" r="19.64" fill="#8d6959" />
        <circle cx="0" cy="0" r="9.82" fill="#fff7f0" fill-opacity="0.72" />
      </g>
    </g>
    
    <g transform="translate(585.28 342.23) rotate(3.15)">
      <path d="M 0 0 C -8 106.64, 10 177.74, -6 260.68" stroke="#536d57" stroke-width="14.22" fill="none" stroke-linecap="round" />
      <ellipse cx="-20" cy="130.34" rx="26.07" ry="49.77" fill="#536d57" fill-opacity="0.75" transform="rotate(-24)" />
      <ellipse cx="28" cy="161.15" rx="23.70" ry="45.03" fill="#536d57" fill-opacity="0.66" transform="rotate(20)" />
      <g transform="translate(0 0)">
        <ellipse cx="33.18" cy="0.00" rx="21.33" ry="33.18" fill="#f1dccf" fill-opacity="0.95" /><ellipse cx="23.46" cy="23.46" rx="21.33" ry="33.18" fill="#f1dccf" fill-opacity="0.95" /><ellipse cx="0.00" cy="33.18" rx="21.33" ry="33.18" fill="#f1dccf" fill-opacity="0.95" /><ellipse cx="-23.46" cy="23.46" rx="21.33" ry="33.18" fill="#f1dccf" fill-opacity="0.95" /><ellipse cx="-33.18" cy="0.00" rx="21.33" ry="33.18" fill="#f1dccf" fill-opacity="0.95" /><ellipse cx="-23.46" cy="-23.46" rx="21.33" ry="33.18" fill="#f1dccf" fill-opacity="0.95" /><ellipse cx="-0.00" cy="-33.18" rx="21.33" ry="33.18" fill="#f1dccf" fill-opacity="0.95" /><ellipse cx="23.46" cy="-23.46" rx="21.33" ry="33.18" fill="#f1dccf" fill-opacity="0.95" />
        <circle cx="0" cy="0" r="21.33" fill="#8d6959" />
        <circle cx="0" cy="0" r="10.66" fill="#fff7f0" fill-opacity="0.72" />
      </g>
    </g>
    
    <g transform="translate(293.92 518.20) rotate(-1.88)">
      <path d="M 0 0 C -8 95.28, 10 158.80, -6 232.91" stroke="#6f8b70" stroke-width="12.70" fill="none" stroke-linecap="round" />
      <ellipse cx="-20" cy="116.46" rx="23.29" ry="44.46" fill="#6f8b70" fill-opacity="0.75" transform="rotate(-24)" />
      <ellipse cx="28" cy="143.98" rx="21.17" ry="40.23" fill="#6f8b70" fill-opacity="0.66" transform="rotate(20)" />
      <g transform="translate(0 0)">
        <ellipse cx="29.64" cy="0.00" rx="19.06" ry="29.64" fill="#f7ede0" fill-opacity="0.95" /><ellipse cx="20.96" cy="20.96" rx="19.06" ry="29.64" fill="#f7ede0" fill-opacity="0.95" /><ellipse cx="0.00" cy="29.64" rx="19.06" ry="29.64" fill="#f7ede0" fill-opacity="0.95" /><ellipse cx="-20.96" cy="20.96" rx="19.06" ry="29.64" fill="#f7ede0" fill-opacity="0.95" /><ellipse cx="-29.64" cy="0.00" rx="19.06" ry="29.64" fill="#f7ede0" fill-opacity="0.95" /><ellipse cx="-20.96" cy="-20.96" rx="19.06" ry="29.64" fill="#f7ede0" fill-opacity="0.95" /><ellipse cx="-0.00" cy="-29.64" rx="19.06" ry="29.64" fill="#f7ede0" fill-opacity="0.95" /><ellipse cx="20.96" cy="-20.96" rx="19.06" ry="29.64" fill="#f7ede0" fill-opacity="0.95" />
        <circle cx="0" cy="0" r="19.06" fill="#8d6959" />
        <circle cx="0" cy="0" r="9.53" fill="#fff7f0" fill-opacity="0.72" />
      </g>
    </g>
    
    <g transform="translate(342.67 519.86) rotate(4.73)">
      <path d="M 0 0 C -8 85.25, 10 142.08, -6 208.38" stroke="#8ba08a" stroke-width="11.37" fill="none" stroke-linecap="round" />
      <ellipse cx="-20" cy="104.19" rx="20.84" ry="39.78" fill="#8ba08a" fill-opacity="0.75" transform="rotate(-24)" />
      <ellipse cx="28" cy="128.82" rx="18.94" ry="35.99" fill="#8ba08a" fill-opacity="0.66" transform="rotate(20)" />
      <g transform="translate(0 0)">
        <ellipse cx="26.52" cy="0.00" rx="17.05" ry="26.52" fill="#d7cabf" fill-opacity="0.95" /><ellipse cx="18.75" cy="18.75" rx="17.05" ry="26.52" fill="#d7cabf" fill-opacity="0.95" /><ellipse cx="0.00" cy="26.52" rx="17.05" ry="26.52" fill="#d7cabf" fill-opacity="0.95" /><ellipse cx="-18.75" cy="18.75" rx="17.05" ry="26.52" fill="#d7cabf" fill-opacity="0.95" /><ellipse cx="-26.52" cy="0.00" rx="17.05" ry="26.52" fill="#d7cabf" fill-opacity="0.95" /><ellipse cx="-18.75" cy="-18.75" rx="17.05" ry="26.52" fill="#d7cabf" fill-opacity="0.95" /><ellipse cx="-0.00" cy="-26.52" rx="17.05" ry="26.52" fill="#d7cabf" fill-opacity="0.95" /><ellipse cx="18.75" cy="-18.75" rx="17.05" ry="26.52" fill="#d7cabf" fill-opacity="0.95" />
        <circle cx="0" cy="0" r="17.05" fill="#8d6959" />
        <circle cx="0" cy="0" r="8.52" fill="#fff7f0" fill-opacity="0.72" />
      </g>
    </g>
    
    <g transform="translate(459.56 324.60) rotate(-21.20)">
      <path d="M 0 0 C -8 103.50, 10 172.49, -6 252.99" stroke="#536d57" stroke-width="13.80" fill="none" stroke-linecap="round" />
      <ellipse cx="-20" cy="126.50" rx="25.30" ry="48.30" fill="#536d57" fill-opacity="0.75" transform="rotate(-24)" />
      <ellipse cx="28" cy="156.39" rx="23.00" ry="43.70" fill="#536d57" fill-opacity="0.66" transform="rotate(20)" />
      <g transform="translate(0 0)">
        <ellipse cx="32.20" cy="0.00" rx="20.70" ry="32.20" fill="#b58d76" fill-opacity="0.95" /><ellipse cx="22.77" cy="22.77" rx="20.70" ry="32.20" fill="#b58d76" fill-opacity="0.95" /><ellipse cx="0.00" cy="32.20" rx="20.70" ry="32.20" fill="#b58d76" fill-opacity="0.95" /><ellipse cx="-22.77" cy="22.77" rx="20.70" ry="32.20" fill="#b58d76" fill-opacity="0.95" /><ellipse cx="-32.20" cy="0.00" rx="20.70" ry="32.20" fill="#b58d76" fill-opacity="0.95" /><ellipse cx="-22.77" cy="-22.77" rx="20.70" ry="32.20" fill="#b58d76" fill-opacity="0.95" /><ellipse cx="-0.00" cy="-32.20" rx="20.70" ry="32.20" fill="#b58d76" fill-opacity="0.95" /><ellipse cx="22.77" cy="-22.77" rx="20.70" ry="32.20" fill="#b58d76" fill-opacity="0.95" />
        <circle cx="0" cy="0" r="20.70" fill="#8d6959" />
        <circle cx="0" cy="0" r="10.35" fill="#fff7f0" fill-opacity="0.72" />
      </g>
    </g>
    
  </g>
  <path d="M0 980 C220 920, 420 1030, 900 930 L900 1100 L0 1100 Z" fill="#ffffff" fill-opacity="0.22" />
</svg>
