<svg xmlns="http://www.w3.org/2000/svg" width="900" height="1100" viewBox="0 0 900 1100">
  <defs>
    <linearGradient id="bg" x1="0" y1="0" x2="0" y2="1">
      <stop offset="0%" stop-color="#f3f0ea" />
      <stop offset="100%" stop-color="#e8ece7" />
    </linearGradient>
    <filter id="shadow" x="-20%" y="-20%" width="140%" height="140%">
      <feDropShadow dx="0" dy="22" stdDeviation="24" flood-color="#6c5d4f" flood-opacity="0.12" />
    </filter>
  </defs>
  <rect width="100%" height="100%" fill="url(#bg)" />
  <circle cx="730" cy="180" r="140" fill="#ffffff" fill-opacity="0.18" />
  <circle cx="150" cy="260" r="90" fill="#ffffff" fill-opacity="0.12" />
  
      <rect x="70" y="72" width="300" height="92" rx="24" fill="#ffffff" fill-opacity="0.34" />
      <text x="98" y="120" fill="#2f3a31" font-size="32" font-family="'PingFang SC','Microsoft YaHei',sans-serif" font-weight="600">沙龙雾境</text>
      <text x="98" y="152" fill="#4e6152" font-size="18" font-family="'PingFang SC','Microsoft YaHei',sans-serif">定制 · 品牌活动</text>
    
  <g filter="url(#shadow)">
    <ellipse cx="450" cy="955" rx="280" ry="90" fill="#d9cec2" fill-opacity="0.55" /><rect x="220" y="820" width="460" height="170" rx="18" fill="#f2ece5" fill-opacity="0.65" />
  </g>
  <g>
    
    <g transform="translate(534.23 400.99) rotate(-14.27)">
      <path d="M 0 0 C -8 70.73, 10 117.88, -6 172.90" stroke="#536d57" stroke-width="9.43" fill="none" stroke-linecap="round" />
      <ellipse cx="-20" cy="86.45" rx="17.29" ry="33.01" fill="#536d57" fill-opacity="0.75" transform="rotate(-24)" />
      <ellipse cx="28" cy="106.88" rx="15.72" ry="29.86" fill="#536d57" fill-opacity="0.66" transform="rotate(20)" />
      <g transform="translate(0 0)">
        <ellipse cx="22.00" cy="0.00" rx="14.15" ry="22.00" fill="#f7ede0" fill-opacity="0.95" /><ellipse cx="15.56" cy="15.56" rx="14.15" ry="22.00" fill="#f7ede0" fill-opacity="0.95" /><ellipse cx="0.00" cy="22.00" rx="14.15" ry="22.00" fill="#f7ede0" fill-opacity="0.95" /><ellipse cx="-15.56" cy="15.56" rx="14.15" ry="22.00" fill="#f7ede0" fill-opacity="0.95" /><ellipse cx="-22.00" cy="0.00" rx="14.15" ry="22.00" fill="#f7ede0" fill-opacity="0.95" /><ellipse cx="-15.56" cy="-15.56" rx="14.15" ry="22.00" fill="#f7ede0" fill-opacity="0.95" /><ellipse cx="-0.00" cy="-22.00" rx="14.15" ry="22.00" fill="#f7ede0" fill-opacity="0.95" /><ellipse cx="15.56" cy="-15.56" rx="14.15" ry="22.00" fill="#f7ede0" fill-opacity="0.95" />
        <circle cx="0" cy="0" r="14.15" fill="#8d6959" />
        <circle cx="0" cy="0" r="7.07" fill="#fff7f0" fill-opacity="0.72" />
      </g>
    </g>
    
    <g transform="translate(301.11 337.64) rotate(-4.78)">
      <path d="M 0 0 C -8 102.65, 10 171.08, -6 250.92" stroke="#6f8b70" stroke-width="13.69" fill="none" stroke-linecap="round" />
      <ellipse cx="-20" cy="125.46" rx="25.09" ry="47.90" fill="#6f8b70" fill-opacity="0.75" transform="rotate(-24)" />
      <ellipse cx="28" cy="155.11" rx="22.81" ry="43.34" fill="#6f8b70" fill-opacity="0.66" transform="rotate(20)" />
      <g transform="translate(0 0)">
        <ellipse cx="31.93" cy="0.00" rx="20.53" ry="31.93" fill="#d7cabf" fill-opacity="0.95" /><ellipse cx="22.58" cy="22.58" rx="20.53" ry="31.93" fill="#d7cabf" fill-opacity="0.95" /><ellipse cx="0.00" cy="31.93" rx="20.53" ry="31.93" fill="#d7cabf" fill-opacity="0.95" /><ellipse cx="-22.58" cy="22.58" rx="20.53" ry="31.93" fill="#d7cabf" fill-opacity="0.95" /><ellipse cx="-31.93" cy="0.00" rx="20.53" ry="31.93" fill="#d7cabf" fill-opacity="0.95" /><ellipse cx="-22.58" cy="-22.58" rx="20.53" ry="31.93" fill="#d7cabf" fill-opacity="0.95" /><ellipse cx="-0.00" cy="-31.93" rx="20.53" ry="31.93" fill="#d7cabf" fill-opacity="0.95" /><ellipse cx="22.58" cy="-22.58" rx="20.53" ry="31.93" fill="#d7cabf" fill-opacity="0.95" />
        <circle cx="0" cy="0" r="20.53" fill="#8d6959" />
        <circle cx="0" cy="0" r="10.26" fill="#fff7f0" fill-opacity="0.72" />
      </g>
    </g>
    
    <g transform="translate(566.83 523.72) rotate(9.52)">
      <path d="M 0 0 C -8 97.05, 10 161.75, -6 237.24" stroke="#8ba08a" stroke-width="12.94" fill="none" stroke-linecap="round" />
      <ellipse cx="-20" cy="118.62" rx="23.72" ry="45.29" fill="#8ba08a" fill-opacity="0.75" transform="rotate(-24)" />
      <ellipse cx="28" cy="146.65" rx="21.57" ry="40.98" fill="#8ba08a" fill-opacity="0.66" transform="rotate(20)" />
      <g transform="translate(0 0)">
        <ellipse cx="30.19" cy="0.00" rx="19.41" ry="30.19" fill="#b58d76" fill-opacity="0.95" /><ellipse cx="21.35" cy="21.35" rx="19.41" ry="30.19" fill="#b58d76" fill-opacity="0.95" /><ellipse cx="0.00" cy="30.19" rx="19.41" ry="30.19" fill="#b58d76" fill-opacity="0.95" /><ellipse cx="-21.35" cy="21.35" rx="19.41" ry="30.19" fill="#b58d76" fill-opacity="0.95" /><ellipse cx="-30.19" cy="0.00" rx="19.41" ry="30.19" fill="#b58d76" fill-opacity="0.95" /><ellipse cx="-21.35" cy="-21.35" rx="19.41" ry="30.19" fill="#b58d76" fill-opacity="0.95" /><ellipse cx="-0.00" cy="-30.19" rx="19.41" ry="30.19" fill="#b58d76" fill-opacity="0.95" /><ellipse cx="21.35" cy="-21.35" rx="19.41" ry="30.19" fill="#b58d76" fill-opacity="0.95" />
        <circle cx="0" cy="0" r="19.41" fill="#8d6959" />
        <circle cx="0" cy="0" r="9.71" fill="#fff7f0" fill-opacity="0.72" />
      </g>
    </g>
    
    <g transform="translate(462.55 369.72) rotate(22.99)">
      <path d="M 0 0 C -8 82.81, 10 138.01, -6 202.42" stroke="#536d57" stroke-width="11.04" fill="none" stroke-linecap="round" />
      <ellipse cx="-20" cy="101.21" rx="20.24" ry="38.64" fill="#536d57" fill-opacity="0.75" transform="rotate(-24)" />
      <ellipse cx="28" cy="125.13" rx="18.40" ry="34.96" fill="#536d57" fill-opacity="0.66" transform="rotate(20)" />
      <g transform="translate(0 0)">
        <ellipse cx="25.76" cy="0.00" rx="16.56" ry="25.76" fill="#f1dccf" fill-opacity="0.95" /><ellipse cx="18.22" cy="18.22" rx="16.56" ry="25.76" fill="#f1dccf" fill-opacity="0.95" /><ellipse cx="0.00" cy="25.76" rx="16.56" ry="25.76" fill="#f1dccf" fill-opacity="0.95" /><ellipse cx="-18.22" cy="18.22" rx="16.56" ry="25.76" fill="#f1dccf" fill-opacity="0.95" /><ellipse cx="-25.76" cy="0.00" rx="16.56" ry="25.76" fill="#f1dccf" fill-opacity="0.95" /><ellipse cx="-18.22" cy="-18.22" rx="16.56" ry="25.76" fill="#f1dccf" fill-opacity="0.95" /><ellipse cx="-0.00" cy="-25.76" rx="16.56" ry="25.76" fill="#f1dccf" fill-opacity="0.95" /><ellipse cx="18.22" cy="-18.22" rx="16.56" ry="25.76" fill="#f1dccf" fill-opacity="0.95" />
        <circle cx="0" cy="0" r="16.56" fill="#8d6959" />
        <circle cx="0" cy="0" r="8.28" fill="#fff7f0" fill-opacity="0.72" />
      </g>
    </g>
    
    <g transform="translate(573.58 461.03) rotate(-23.52)">
      <path d="M 0 0 C -8 78.36, 10 130.59, -6 191.54" stroke="#6f8b70" stroke-width="10.45" fill="none" stroke-linecap="round" />
      <ellipse cx="-20" cy="95.77" rx="19.15" ry="36.57" fill="#6f8b70" fill-opacity="0.75" transform="rotate(-24)" />
      <ellipse cx="28" cy="118.41" rx="17.41" ry="33.08" fill="#6f8b70" fill-opacity="0.66" transform="rotate(20)" />
      <g transform="translate(0 0)">
        <ellipse cx="24.38" cy="0.00" rx="15.67" ry="24.38" fill="#f7ede0" fill-opacity="0.95" /><ellipse cx="17.24" cy="17.24" rx="15.67" ry="24.38" fill="#f7ede0" fill-opacity="0.95" /><ellipse cx="0.00" cy="24.38" rx="15.67" ry="24.38" fill="#f7ede0" fill-opacity="0.95" /><ellipse cx="-17.24" cy="17.24" rx="15.67" ry="24.38" fill="#f7ede0" fill-opacity="0.95" /><ellipse cx="-24.38" cy="0.00" rx="15.67" ry="24.38" fill="#f7ede0" fill-opacity="0.95" /><ellipse cx="-17.24" cy="-17.24" rx="15.67" ry="24.38" fill="#f7ede0" fill-opacity="0.95" /><ellipse cx="-0.00" cy="-24.38" rx="15.67" ry="24.38" fill="#f7ede0" fill-opacity="0.95" /><ellipse cx="17.24" cy="-17.24" rx="15.67" ry="24.38" fill="#f7ede0" fill-opacity="0.95" />
        <circle cx="0" cy="0" r="15.67" fill="#8d6959" />
        <circle cx="0" cy="0" r="7.84" fill="#fff7f0" fill-opacity="0.72" />
      </g>
    </g>
    
    <g transform="translate(370.27 476.78) rotate(-17.81)">
      <path d="M 0 0 C -8 77.90, 10 129.83, -6 190.42" stroke="#8ba08a" stroke-width="10.39" fill="none" stroke-linecap="round" />
      <ellipse cx="-20" cy="95.21" rx="19.04" ry="36.35" fill="#8ba08a" fill-opacity="0.75" transform="rotate(-24)" />
      <ellipse cx="28" cy="117.71" rx="17.31" ry="32.89" fill="#8ba08a" fill-opacity="0.66" transform="rotate(20)" />
      <g transform="translate(0 0)">
        <ellipse cx="24.24" cy="0.00" rx="15.58" ry="24.24" fill="#d7cabf" fill-opacity="0.95" /><ellipse cx="17.14" cy="17.14" rx="15.58" ry="24.24" fill="#d7cabf" fill-opacity="0.95" /><ellipse cx="0.00" cy="24.24" rx="15.58" ry="24.24" fill="#d7cabf" fill-opacity="0.95" /><ellipse cx="-17.14" cy="17.14" rx="15.58" ry="24.24" fill="#d7cabf" fill-opacity="0.95" /><ellipse cx="-24.24" cy="0.00" rx="15.58" ry="24.24" fill="#d7cabf" fill-opacity="0.95" /><ellipse cx="-17.14" cy="-17.14" rx="15.58" ry="24.24" fill="#d7cabf" fill-opacity="0.95" /><ellipse cx="-0.00" cy="-24.24" rx="15.58" ry="24.24" fill="#d7cabf" fill-opacity="0.95" /><ellipse cx="17.14" cy="-17.14" rx="15.58" ry="24.24" fill="#d7cabf" fill-opacity="0.95" />
        <circle cx="0" cy="0" r="15.58" fill="#8d6959" />
        <circle cx="0" cy="0" r="7.79" fill="#fff7f0" fill-opacity="0.72" />
      </g>
    </g>
    
    <g transform="translate(340.91 379.65) rotate(3.04)">
      <path d="M 0 0 C -8 96.69, 10 161.15, -6 236.35" stroke="#536d57" stroke-width="12.89" fill="none" stroke-linecap="round" />
      <ellipse cx="-20" cy="118.17" rx="23.63" ry="45.12" fill="#536d57" fill-opacity="0.75" transform="rotate(-24)" />
      <ellipse cx="28" cy="146.11" rx="21.49" ry="40.82" fill="#536d57" fill-opacity="0.66" transform="rotate(20)" />
      <g transform="translate(0 0)">
        <ellipse cx="30.08" cy="0.00" rx="19.34" ry="30.08" fill="#b58d76" fill-opacity="0.95" /><ellipse cx="21.27" cy="21.27" rx="19.34" ry="30.08" fill="#b58d76" fill-opacity="0.95" /><ellipse cx="0.00" cy="30.08" rx="19.34" ry="30.08" fill="#b58d76" fill-opacity="0.95" /><ellipse cx="-21.27" cy="21.27" rx="19.34" ry="30.08" fill="#b58d76" fill-opacity="0.95" /><ellipse cx="-30.08" cy="0.00" rx="19.34" ry="30.08" fill="#b58d76" fill-opacity="0.95" /><ellipse cx="-21.27" cy="-21.27" rx="19.34" ry="30.08" fill="#b58d76" fill-opacity="0.95" /><ellipse cx="-0.00" cy="-30.08" rx="19.34" ry="30.08" fill="#b58d76" fill-opacity="0.95" /><ellipse cx="21.27" cy="-21.27" rx="19.34" ry="30.08" fill="#b58d76" fill-opacity="0.95" />
        <circle cx="0" cy="0" r="19.34" fill="#8d6959" />
        <circle cx="0" cy="0" r="9.67" fill="#fff7f0" fill-opacity="0.72" />
      </g>
    </g>
    
  </g>
  <path d="M0 980 C220 920, 420 1030, 900 930 L900 1100 L0 1100 Z" fill="#ffffff" fill-opacity="0.22" />
</svg>
