<svg xmlns="http://www.w3.org/2000/svg" width="900" height="1100" viewBox="0 0 900 1100">
  <defs>
    <linearGradient id="bg" x1="0" y1="0" x2="0" y2="1">
      <stop offset="0%" stop-color="#f3f0ea" />
      <stop offset="100%" stop-color="#e8ece7" />
    </linearGradient>
    <filter id="shadow" x="-20%" y="-20%" width="140%" height="140%">
      <feDropShadow dx="0" dy="22" stdDeviation="24" flood-color="#6c5d4f" flood-opacity="0.12" />
    </filter>
  </defs>
  <rect width="100%" height="100%" fill="url(#bg)" />
  <circle cx="730" cy="180" r="140" fill="#ffffff" fill-opacity="0.18" />
  <circle cx="150" cy="260" r="90" fill="#ffffff" fill-opacity="0.12" />
  
      <rect x="70" y="72" width="300" height="92" rx="24" fill="#ffffff" fill-opacity="0.34" />
      <text x="98" y="120" fill="#2f3a31" font-size="32" font-family="'PingFang SC','Microsoft YaHei',sans-serif" font-weight="600">品牌花幕</text>
      <text x="98" y="152" fill="#4e6152" font-size="18" font-family="'PingFang SC','Microsoft YaHei',sans-serif">橱窗 · 展陈</text>
    
  <g filter="url(#shadow)">
    <ellipse cx="450" cy="955" rx="280" ry="90" fill="#d9cec2" fill-opacity="0.55" /><rect x="220" y="820" width="460" height="170" rx="18" fill="#f2ece5" fill-opacity="0.65" />
  </g>
  <g>
    
    <g transform="translate(233.92 347.02) rotate(2.26)">
      <path d="M 0 0 C -8 107.29, 10 178.82, -6 262.27" stroke="#536d57" stroke-width="14.31" fill="none" stroke-linecap="round" />
      <ellipse cx="-20" cy="131.13" rx="26.23" ry="50.07" fill="#536d57" fill-opacity="0.75" transform="rotate(-24)" />
      <ellipse cx="28" cy="162.13" rx="23.84" ry="45.30" fill="#536d57" fill-opacity="0.66" transform="rotate(20)" />
      <g transform="translate(0 0)">
        <ellipse cx="33.38" cy="0.00" rx="21.46" ry="33.38" fill="#f7ede0" fill-opacity="0.95" /><ellipse cx="23.60" cy="23.60" rx="21.46" ry="33.38" fill="#f7ede0" fill-opacity="0.95" /><ellipse cx="0.00" cy="33.38" rx="21.46" ry="33.38" fill="#f7ede0" fill-opacity="0.95" /><ellipse cx="-23.60" cy="23.60" rx="21.46" ry="33.38" fill="#f7ede0" fill-opacity="0.95" /><ellipse cx="-33.38" cy="0.00" rx="21.46" ry="33.38" fill="#f7ede0" fill-opacity="0.95" /><ellipse cx="-23.60" cy="-23.60" rx="21.46" ry="33.38" fill="#f7ede0" fill-opacity="0.95" /><ellipse cx="-0.00" cy="-33.38" rx="21.46" ry="33.38" fill="#f7ede0" fill-opacity="0.95" /><ellipse cx="23.60" cy="-23.60" rx="21.46" ry="33.38" fill="#f7ede0" fill-opacity="0.95" />
        <circle cx="0" cy="0" r="21.46" fill="#8d6959" />
        <circle cx="0" cy="0" r="10.73" fill="#fff7f0" fill-opacity="0.72" />
      </g>
    </g>
    
    <g transform="translate(599.18 504.76) rotate(20.12)">
      <path d="M 0 0 C -8 95.69, 10 159.48, -6 233.90" stroke="#6f8b70" stroke-width="12.76" fill="none" stroke-linecap="round" />
      <ellipse cx="-20" cy="116.95" rx="23.39" ry="44.65" fill="#6f8b70" fill-opacity="0.75" transform="rotate(-24)" />
      <ellipse cx="28" cy="144.60" rx="21.26" ry="40.40" fill="#6f8b70" fill-opacity="0.66" transform="rotate(20)" />
      <g transform="translate(0 0)">
        <ellipse cx="29.77" cy="0.00" rx="19.14" ry="29.77" fill="#d7cabf" fill-opacity="0.95" /><ellipse cx="21.05" cy="21.05" rx="19.14" ry="29.77" fill="#d7cabf" fill-opacity="0.95" /><ellipse cx="0.00" cy="29.77" rx="19.14" ry="29.77" fill="#d7cabf" fill-opacity="0.95" /><ellipse cx="-21.05" cy="21.05" rx="19.14" ry="29.77" fill="#d7cabf" fill-opacity="0.95" /><ellipse cx="-29.77" cy="0.00" rx="19.14" ry="29.77" fill="#d7cabf" fill-opacity="0.95" /><ellipse cx="-21.05" cy="-21.05" rx="19.14" ry="29.77" fill="#d7cabf" fill-opacity="0.95" /><ellipse cx="-0.00" cy="-29.77" rx="19.14" ry="29.77" fill="#d7cabf" fill-opacity="0.95" /><ellipse cx="21.05" cy="-21.05" rx="19.14" ry="29.77" fill="#d7cabf" fill-opacity="0.95" />
        <circle cx="0" cy="0" r="19.14" fill="#8d6959" />
        <circle cx="0" cy="0" r="9.57" fill="#fff7f0" fill-opacity="0.72" />
      </g>
    </g>
    
    <g transform="translate(652.50 426.99) rotate(5.66)">
      <path d="M 0 0 C -8 99.16, 10 165.27, -6 242.40" stroke="#8ba08a" stroke-width="13.22" fill="none" stroke-linecap="round" />
      <ellipse cx="-20" cy="121.20" rx="24.24" ry="46.28" fill="#8ba08a" fill-opacity="0.75" transform="rotate(-24)" />
      <ellipse cx="28" cy="149.85" rx="22.04" ry="41.87" fill="#8ba08a" fill-opacity="0.66" transform="rotate(20)" />
      <g transform="translate(0 0)">
        <ellipse cx="30.85" cy="0.00" rx="19.83" ry="30.85" fill="#b58d76" fill-opacity="0.95" /><ellipse cx="21.81" cy="21.81" rx="19.83" ry="30.85" fill="#b58d76" fill-opacity="0.95" /><ellipse cx="0.00" cy="30.85" rx="19.83" ry="30.85" fill="#b58d76" fill-opacity="0.95" /><ellipse cx="-21.81" cy="21.81" rx="19.83" ry="30.85" fill="#b58d76" fill-opacity="0.95" /><ellipse cx="-30.85" cy="0.00" rx="19.83" ry="30.85" fill="#b58d76" fill-opacity="0.95" /><ellipse cx="-21.81" cy="-21.81" rx="19.83" ry="30.85" fill="#b58d76" fill-opacity="0.95" /><ellipse cx="-0.00" cy="-30.85" rx="19.83" ry="30.85" fill="#b58d76" fill-opacity="0.95" /><ellipse cx="21.81" cy="-21.81" rx="19.83" ry="30.85" fill="#b58d76" fill-opacity="0.95" />
        <circle cx="0" cy="0" r="19.83" fill="#8d6959" />
        <circle cx="0" cy="0" r="9.92" fill="#fff7f0" fill-opacity="0.72" />
      </g>
    </g>
    
    <g transform="translate(326.21 430.23) rotate(-0.60)">
      <path d="M 0 0 C -8 71.66, 10 119.44, -6 175.18" stroke="#536d57" stroke-width="9.56" fill="none" stroke-linecap="round" />
      <ellipse cx="-20" cy="87.59" rx="17.52" ry="33.44" fill="#536d57" fill-opacity="0.75" transform="rotate(-24)" />
      <ellipse cx="28" cy="108.29" rx="15.93" ry="30.26" fill="#536d57" fill-opacity="0.66" transform="rotate(20)" />
      <g transform="translate(0 0)">
        <ellipse cx="22.30" cy="0.00" rx="14.33" ry="22.30" fill="#f1dccf" fill-opacity="0.95" /><ellipse cx="15.77" cy="15.77" rx="14.33" ry="22.30" fill="#f1dccf" fill-opacity="0.95" /><ellipse cx="0.00" cy="22.30" rx="14.33" ry="22.30" fill="#f1dccf" fill-opacity="0.95" /><ellipse cx="-15.77" cy="15.77" rx="14.33" ry="22.30" fill="#f1dccf" fill-opacity="0.95" /><ellipse cx="-22.30" cy="0.00" rx="14.33" ry="22.30" fill="#f1dccf" fill-opacity="0.95" /><ellipse cx="-15.77" cy="-15.77" rx="14.33" ry="22.30" fill="#f1dccf" fill-opacity="0.95" /><ellipse cx="-0.00" cy="-22.30" rx="14.33" ry="22.30" fill="#f1dccf" fill-opacity="0.95" /><ellipse cx="15.77" cy="-15.77" rx="14.33" ry="22.30" fill="#f1dccf" fill-opacity="0.95" />
        <circle cx="0" cy="0" r="14.33" fill="#8d6959" />
        <circle cx="0" cy="0" r="7.17" fill="#fff7f0" fill-opacity="0.72" />
      </g>
    </g>
    
    <g transform="translate(671.60 525.95) rotate(6.96)">
      <path d="M 0 0 C -8 110.78, 10 184.63, -6 270.79" stroke="#6f8b70" stroke-width="14.77" fill="none" stroke-linecap="round" />
      <ellipse cx="-20" cy="135.39" rx="27.08" ry="51.70" fill="#6f8b70" fill-opacity="0.75" transform="rotate(-24)" />
      <ellipse cx="28" cy="167.39" rx="24.62" ry="46.77" fill="#6f8b70" fill-opacity="0.66" transform="rotate(20)" />
      <g transform="translate(0 0)">
        <ellipse cx="34.46" cy="0.00" rx="22.16" ry="34.46" fill="#f7ede0" fill-opacity="0.95" /><ellipse cx="24.37" cy="24.37" rx="22.16" ry="34.46" fill="#f7ede0" fill-opacity="0.95" /><ellipse cx="0.00" cy="34.46" rx="22.16" ry="34.46" fill="#f7ede0" fill-opacity="0.95" /><ellipse cx="-24.37" cy="24.37" rx="22.16" ry="34.46" fill="#f7ede0" fill-opacity="0.95" /><ellipse cx="-34.46" cy="0.00" rx="22.16" ry="34.46" fill="#f7ede0" fill-opacity="0.95" /><ellipse cx="-24.37" cy="-24.37" rx="22.16" ry="34.46" fill="#f7ede0" fill-opacity="0.95" /><ellipse cx="-0.00" cy="-34.46" rx="22.16" ry="34.46" fill="#f7ede0" fill-opacity="0.95" /><ellipse cx="24.37" cy="-24.37" rx="22.16" ry="34.46" fill="#f7ede0" fill-opacity="0.95" />
        <circle cx="0" cy="0" r="22.16" fill="#8d6959" />
        <circle cx="0" cy="0" r="11.08" fill="#fff7f0" fill-opacity="0.72" />
      </g>
    </g>
    
    <g transform="translate(291.05 428.86) rotate(-8.06)">
      <path d="M 0 0 C -8 83.55, 10 139.25, -6 204.23" stroke="#8ba08a" stroke-width="11.14" fill="none" stroke-linecap="round" />
      <ellipse cx="-20" cy="102.11" rx="20.42" ry="38.99" fill="#8ba08a" fill-opacity="0.75" transform="rotate(-24)" />
      <ellipse cx="28" cy="126.25" rx="18.57" ry="35.28" fill="#8ba08a" fill-opacity="0.66" transform="rotate(20)" />
      <g transform="translate(0 0)">
        <ellipse cx="25.99" cy="0.00" rx="16.71" ry="25.99" fill="#d7cabf" fill-opacity="0.95" /><ellipse cx="18.38" cy="18.38" rx="16.71" ry="25.99" fill="#d7cabf" fill-opacity="0.95" /><ellipse cx="0.00" cy="25.99" rx="16.71" ry="25.99" fill="#d7cabf" fill-opacity="0.95" /><ellipse cx="-18.38" cy="18.38" rx="16.71" ry="25.99" fill="#d7cabf" fill-opacity="0.95" /><ellipse cx="-25.99" cy="0.00" rx="16.71" ry="25.99" fill="#d7cabf" fill-opacity="0.95" /><ellipse cx="-18.38" cy="-18.38" rx="16.71" ry="25.99" fill="#d7cabf" fill-opacity="0.95" /><ellipse cx="-0.00" cy="-25.99" rx="16.71" ry="25.99" fill="#d7cabf" fill-opacity="0.95" /><ellipse cx="18.38" cy="-18.38" rx="16.71" ry="25.99" fill="#d7cabf" fill-opacity="0.95" />
        <circle cx="0" cy="0" r="16.71" fill="#8d6959" />
        <circle cx="0" cy="0" r="8.35" fill="#fff7f0" fill-opacity="0.72" />
      </g>
    </g>
    
    <g transform="translate(220.91 396.38) rotate(-11.36)">
      <path d="M 0 0 C -8 76.24, 10 127.06, -6 186.36" stroke="#536d57" stroke-width="10.16" fill="none" stroke-linecap="round" />
      <ellipse cx="-20" cy="93.18" rx="18.64" ry="35.58" fill="#536d57" fill-opacity="0.75" transform="rotate(-24)" />
      <ellipse cx="28" cy="115.20" rx="16.94" ry="32.19" fill="#536d57" fill-opacity="0.66" transform="rotate(20)" />
      <g transform="translate(0 0)">
        <ellipse cx="23.72" cy="0.00" rx="15.25" ry="23.72" fill="#b58d76" fill-opacity="0.95" /><ellipse cx="16.77" cy="16.77" rx="15.25" ry="23.72" fill="#b58d76" fill-opacity="0.95" /><ellipse cx="0.00" cy="23.72" rx="15.25" ry="23.72" fill="#b58d76" fill-opacity="0.95" /><ellipse cx="-16.77" cy="16.77" rx="15.25" ry="23.72" fill="#b58d76" fill-opacity="0.95" /><ellipse cx="-23.72" cy="0.00" rx="15.25" ry="23.72" fill="#b58d76" fill-opacity="0.95" /><ellipse cx="-16.77" cy="-16.77" rx="15.25" ry="23.72" fill="#b58d76" fill-opacity="0.95" /><ellipse cx="-0.00" cy="-23.72" rx="15.25" ry="23.72" fill="#b58d76" fill-opacity="0.95" /><ellipse cx="16.77" cy="-16.77" rx="15.25" ry="23.72" fill="#b58d76" fill-opacity="0.95" />
        <circle cx="0" cy="0" r="15.25" fill="#8d6959" />
        <circle cx="0" cy="0" r="7.62" fill="#fff7f0" fill-opacity="0.72" />
      </g>
    </g>
    
    <g transform="translate(434.06 489.40) rotate(25.25)">
      <path d="M 0 0 C -8 113.76, 10 189.60, -6 278.09" stroke="#6f8b70" stroke-width="15.17" fill="none" stroke-linecap="round" />
      <ellipse cx="-20" cy="139.04" rx="27.81" ry="53.09" fill="#6f8b70" fill-opacity="0.75" transform="rotate(-24)" />
      <ellipse cx="28" cy="171.91" rx="25.28" ry="48.03" fill="#6f8b70" fill-opacity="0.66" transform="rotate(20)" />
      <g transform="translate(0 0)">
        <ellipse cx="35.39" cy="0.00" rx="22.75" ry="35.39" fill="#f1dccf" fill-opacity="0.95" /><ellipse cx="25.03" cy="25.03" rx="22.75" ry="35.39" fill="#f1dccf" fill-opacity="0.95" /><ellipse cx="0.00" cy="35.39" rx="22.75" ry="35.39" fill="#f1dccf" fill-opacity="0.95" /><ellipse cx="-25.03" cy="25.03" rx="22.75" ry="35.39" fill="#f1dccf" fill-opacity="0.95" /><ellipse cx="-35.39" cy="0.00" rx="22.75" ry="35.39" fill="#f1dccf" fill-opacity="0.95" /><ellipse cx="-25.03" cy="-25.03" rx="22.75" ry="35.39" fill="#f1dccf" fill-opacity="0.95" /><ellipse cx="-0.00" cy="-35.39" rx="22.75" ry="35.39" fill="#f1dccf" fill-opacity="0.95" /><ellipse cx="25.03" cy="-25.03" rx="22.75" ry="35.39" fill="#f1dccf" fill-opacity="0.95" />
        <circle cx="0" cy="0" r="22.75" fill="#8d6959" />
        <circle cx="0" cy="0" r="11.38" fill="#fff7f0" fill-opacity="0.72" />
      </g>
    </g>
    
  </g>
  <path d="M0 980 C220 920, 420 1030, 900 930 L900 1100 L0 1100 Z" fill="#ffffff" fill-opacity="0.22" />
</svg>
