<svg xmlns="http://www.w3.org/2000/svg" width="900" height="1100" viewBox="0 0 900 1100">
  <defs>
    <linearGradient id="bg" x1="0" y1="0" x2="0" y2="1">
      <stop offset="0%" stop-color="#f3f0ea" />
      <stop offset="100%" stop-color="#e8ece7" />
    </linearGradient>
    <filter id="shadow" x="-20%" y="-20%" width="140%" height="140%">
      <feDropShadow dx="0" dy="22" stdDeviation="24" flood-color="#6c5d4f" flood-opacity="0.12" />
    </filter>
  </defs>
  <rect width="100%" height="100%" fill="url(#bg)" />
  <circle cx="730" cy="180" r="140" fill="#ffffff" fill-opacity="0.18" />
  <circle cx="150" cy="260" r="90" fill="#ffffff" fill-opacity="0.12" />
  
      <rect x="70" y="72" width="300" height="92" rx="24" fill="#ffffff" fill-opacity="0.34" />
      <text x="98" y="120" fill="#2f3a31" font-size="32" font-family="'PingFang SC','Microsoft YaHei',sans-serif" font-weight="600">展台微光</text>
      <text x="98" y="152" fill="#4e6152" font-size="18" font-family="'PingFang SC','Microsoft YaHei',sans-serif">沙龙 · 会场</text>
    
  <g filter="url(#shadow)">
    <ellipse cx="450" cy="955" rx="280" ry="90" fill="#d9cec2" fill-opacity="0.55" /><rect x="220" y="820" width="460" height="170" rx="18" fill="#f2ece5" fill-opacity="0.65" />
  </g>
  <g>
    
    <g transform="translate(400.10 333.17) rotate(9.43)">
      <path d="M 0 0 C -8 76.50, 10 127.50, -6 187.01" stroke="#536d57" stroke-width="10.20" fill="none" stroke-linecap="round" />
      <ellipse cx="-20" cy="93.50" rx="18.70" ry="35.70" fill="#536d57" fill-opacity="0.75" transform="rotate(-24)" />
      <ellipse cx="28" cy="115.60" rx="17.00" ry="32.30" fill="#536d57" fill-opacity="0.66" transform="rotate(20)" />
      <g transform="translate(0 0)">
        <ellipse cx="23.80" cy="0.00" rx="15.30" ry="23.80" fill="#f7ede0" fill-opacity="0.95" /><ellipse cx="16.83" cy="16.83" rx="15.30" ry="23.80" fill="#f7ede0" fill-opacity="0.95" /><ellipse cx="0.00" cy="23.80" rx="15.30" ry="23.80" fill="#f7ede0" fill-opacity="0.95" /><ellipse cx="-16.83" cy="16.83" rx="15.30" ry="23.80" fill="#f7ede0" fill-opacity="0.95" /><ellipse cx="-23.80" cy="0.00" rx="15.30" ry="23.80" fill="#f7ede0" fill-opacity="0.95" /><ellipse cx="-16.83" cy="-16.83" rx="15.30" ry="23.80" fill="#f7ede0" fill-opacity="0.95" /><ellipse cx="-0.00" cy="-23.80" rx="15.30" ry="23.80" fill="#f7ede0" fill-opacity="0.95" /><ellipse cx="16.83" cy="-16.83" rx="15.30" ry="23.80" fill="#f7ede0" fill-opacity="0.95" />
        <circle cx="0" cy="0" r="15.30" fill="#8d6959" />
        <circle cx="0" cy="0" r="7.65" fill="#fff7f0" fill-opacity="0.72" />
      </g>
    </g>
    
    <g transform="translate(369.29 484.82) rotate(-0.75)">
      <path d="M 0 0 C -8 97.77, 10 162.95, -6 238.99" stroke="#6f8b70" stroke-width="13.04" fill="none" stroke-linecap="round" />
      <ellipse cx="-20" cy="119.49" rx="23.90" ry="45.62" fill="#6f8b70" fill-opacity="0.75" transform="rotate(-24)" />
      <ellipse cx="28" cy="147.74" rx="21.73" ry="41.28" fill="#6f8b70" fill-opacity="0.66" transform="rotate(20)" />
      <g transform="translate(0 0)">
        <ellipse cx="30.42" cy="0.00" rx="19.55" ry="30.42" fill="#d7cabf" fill-opacity="0.95" /><ellipse cx="21.51" cy="21.51" rx="19.55" ry="30.42" fill="#d7cabf" fill-opacity="0.95" /><ellipse cx="0.00" cy="30.42" rx="19.55" ry="30.42" fill="#d7cabf" fill-opacity="0.95" /><ellipse cx="-21.51" cy="21.51" rx="19.55" ry="30.42" fill="#d7cabf" fill-opacity="0.95" /><ellipse cx="-30.42" cy="0.00" rx="19.55" ry="30.42" fill="#d7cabf" fill-opacity="0.95" /><ellipse cx="-21.51" cy="-21.51" rx="19.55" ry="30.42" fill="#d7cabf" fill-opacity="0.95" /><ellipse cx="-0.00" cy="-30.42" rx="19.55" ry="30.42" fill="#d7cabf" fill-opacity="0.95" /><ellipse cx="21.51" cy="-21.51" rx="19.55" ry="30.42" fill="#d7cabf" fill-opacity="0.95" />
        <circle cx="0" cy="0" r="19.55" fill="#8d6959" />
        <circle cx="0" cy="0" r="9.78" fill="#fff7f0" fill-opacity="0.72" />
      </g>
    </g>
    
    <g transform="translate(558.65 479.21) rotate(7.58)">
      <path d="M 0 0 C -8 71.05, 10 118.41, -6 173.67" stroke="#8ba08a" stroke-width="9.47" fill="none" stroke-linecap="round" />
      <ellipse cx="-20" cy="86.84" rx="17.37" ry="33.16" fill="#8ba08a" fill-opacity="0.75" transform="rotate(-24)" />
      <ellipse cx="28" cy="107.36" rx="15.79" ry="30.00" fill="#8ba08a" fill-opacity="0.66" transform="rotate(20)" />
      <g transform="translate(0 0)">
        <ellipse cx="22.10" cy="0.00" rx="14.21" ry="22.10" fill="#b58d76" fill-opacity="0.95" /><ellipse cx="15.63" cy="15.63" rx="14.21" ry="22.10" fill="#b58d76" fill-opacity="0.95" /><ellipse cx="0.00" cy="22.10" rx="14.21" ry="22.10" fill="#b58d76" fill-opacity="0.95" /><ellipse cx="-15.63" cy="15.63" rx="14.21" ry="22.10" fill="#b58d76" fill-opacity="0.95" /><ellipse cx="-22.10" cy="0.00" rx="14.21" ry="22.10" fill="#b58d76" fill-opacity="0.95" /><ellipse cx="-15.63" cy="-15.63" rx="14.21" ry="22.10" fill="#b58d76" fill-opacity="0.95" /><ellipse cx="-0.00" cy="-22.10" rx="14.21" ry="22.10" fill="#b58d76" fill-opacity="0.95" /><ellipse cx="15.63" cy="-15.63" rx="14.21" ry="22.10" fill="#b58d76" fill-opacity="0.95" />
        <circle cx="0" cy="0" r="14.21" fill="#8d6959" />
        <circle cx="0" cy="0" r="7.10" fill="#fff7f0" fill-opacity="0.72" />
      </g>
    </g>
    
    <g transform="translate(606.24 545.66) rotate(-9.88)">
      <path d="M 0 0 C -8 96.17, 10 160.29, -6 235.09" stroke="#536d57" stroke-width="12.82" fill="none" stroke-linecap="round" />
      <ellipse cx="-20" cy="117.54" rx="23.51" ry="44.88" fill="#536d57" fill-opacity="0.75" transform="rotate(-24)" />
      <ellipse cx="28" cy="145.33" rx="21.37" ry="40.61" fill="#536d57" fill-opacity="0.66" transform="rotate(20)" />
      <g transform="translate(0 0)">
        <ellipse cx="29.92" cy="0.00" rx="19.23" ry="29.92" fill="#f1dccf" fill-opacity="0.95" /><ellipse cx="21.16" cy="21.16" rx="19.23" ry="29.92" fill="#f1dccf" fill-opacity="0.95" /><ellipse cx="0.00" cy="29.92" rx="19.23" ry="29.92" fill="#f1dccf" fill-opacity="0.95" /><ellipse cx="-21.16" cy="21.16" rx="19.23" ry="29.92" fill="#f1dccf" fill-opacity="0.95" /><ellipse cx="-29.92" cy="0.00" rx="19.23" ry="29.92" fill="#f1dccf" fill-opacity="0.95" /><ellipse cx="-21.16" cy="-21.16" rx="19.23" ry="29.92" fill="#f1dccf" fill-opacity="0.95" /><ellipse cx="-0.00" cy="-29.92" rx="19.23" ry="29.92" fill="#f1dccf" fill-opacity="0.95" /><ellipse cx="21.16" cy="-21.16" rx="19.23" ry="29.92" fill="#f1dccf" fill-opacity="0.95" />
        <circle cx="0" cy="0" r="19.23" fill="#8d6959" />
        <circle cx="0" cy="0" r="9.62" fill="#fff7f0" fill-opacity="0.72" />
      </g>
    </g>
    
    <g transform="translate(686.90 451.51) rotate(3.58)">
      <path d="M 0 0 C -8 101.44, 10 169.07, -6 247.97" stroke="#6f8b70" stroke-width="13.53" fill="none" stroke-linecap="round" />
      <ellipse cx="-20" cy="123.99" rx="24.80" ry="47.34" fill="#6f8b70" fill-opacity="0.75" transform="rotate(-24)" />
      <ellipse cx="28" cy="153.29" rx="22.54" ry="42.83" fill="#6f8b70" fill-opacity="0.66" transform="rotate(20)" />
      <g transform="translate(0 0)">
        <ellipse cx="31.56" cy="0.00" rx="20.29" ry="31.56" fill="#f7ede0" fill-opacity="0.95" /><ellipse cx="22.32" cy="22.32" rx="20.29" ry="31.56" fill="#f7ede0" fill-opacity="0.95" /><ellipse cx="0.00" cy="31.56" rx="20.29" ry="31.56" fill="#f7ede0" fill-opacity="0.95" /><ellipse cx="-22.32" cy="22.32" rx="20.29" ry="31.56" fill="#f7ede0" fill-opacity="0.95" /><ellipse cx="-31.56" cy="0.00" rx="20.29" ry="31.56" fill="#f7ede0" fill-opacity="0.95" /><ellipse cx="-22.32" cy="-22.32" rx="20.29" ry="31.56" fill="#f7ede0" fill-opacity="0.95" /><ellipse cx="-0.00" cy="-31.56" rx="20.29" ry="31.56" fill="#f7ede0" fill-opacity="0.95" /><ellipse cx="22.32" cy="-22.32" rx="20.29" ry="31.56" fill="#f7ede0" fill-opacity="0.95" />
        <circle cx="0" cy="0" r="20.29" fill="#8d6959" />
        <circle cx="0" cy="0" r="10.14" fill="#fff7f0" fill-opacity="0.72" />
      </g>
    </g>
    
    <g transform="translate(274.04 458.89) rotate(3.83)">
      <path d="M 0 0 C -8 98.06, 10 163.43, -6 239.69" stroke="#8ba08a" stroke-width="13.07" fill="none" stroke-linecap="round" />
      <ellipse cx="-20" cy="119.85" rx="23.97" ry="45.76" fill="#8ba08a" fill-opacity="0.75" transform="rotate(-24)" />
      <ellipse cx="28" cy="148.17" rx="21.79" ry="41.40" fill="#8ba08a" fill-opacity="0.66" transform="rotate(20)" />
      <g transform="translate(0 0)">
        <ellipse cx="30.51" cy="0.00" rx="19.61" ry="30.51" fill="#d7cabf" fill-opacity="0.95" /><ellipse cx="21.57" cy="21.57" rx="19.61" ry="30.51" fill="#d7cabf" fill-opacity="0.95" /><ellipse cx="0.00" cy="30.51" rx="19.61" ry="30.51" fill="#d7cabf" fill-opacity="0.95" /><ellipse cx="-21.57" cy="21.57" rx="19.61" ry="30.51" fill="#d7cabf" fill-opacity="0.95" /><ellipse cx="-30.51" cy="0.00" rx="19.61" ry="30.51" fill="#d7cabf" fill-opacity="0.95" /><ellipse cx="-21.57" cy="-21.57" rx="19.61" ry="30.51" fill="#d7cabf" fill-opacity="0.95" /><ellipse cx="-0.00" cy="-30.51" rx="19.61" ry="30.51" fill="#d7cabf" fill-opacity="0.95" /><ellipse cx="21.57" cy="-21.57" rx="19.61" ry="30.51" fill="#d7cabf" fill-opacity="0.95" />
        <circle cx="0" cy="0" r="19.61" fill="#8d6959" />
        <circle cx="0" cy="0" r="9.81" fill="#fff7f0" fill-opacity="0.72" />
      </g>
    </g>
    
    <g transform="translate(299.57 495.16) rotate(24.13)">
      <path d="M 0 0 C -8 103.70, 10 172.83, -6 253.49" stroke="#536d57" stroke-width="13.83" fill="none" stroke-linecap="round" />
      <ellipse cx="-20" cy="126.74" rx="25.35" ry="48.39" fill="#536d57" fill-opacity="0.75" transform="rotate(-24)" />
      <ellipse cx="28" cy="156.70" rx="23.04" ry="43.78" fill="#536d57" fill-opacity="0.66" transform="rotate(20)" />
      <g transform="translate(0 0)">
        <ellipse cx="32.26" cy="0.00" rx="20.74" ry="32.26" fill="#b58d76" fill-opacity="0.95" /><ellipse cx="22.81" cy="22.81" rx="20.74" ry="32.26" fill="#b58d76" fill-opacity="0.95" /><ellipse cx="0.00" cy="32.26" rx="20.74" ry="32.26" fill="#b58d76" fill-opacity="0.95" /><ellipse cx="-22.81" cy="22.81" rx="20.74" ry="32.26" fill="#b58d76" fill-opacity="0.95" /><ellipse cx="-32.26" cy="0.00" rx="20.74" ry="32.26" fill="#b58d76" fill-opacity="0.95" /><ellipse cx="-22.81" cy="-22.81" rx="20.74" ry="32.26" fill="#b58d76" fill-opacity="0.95" /><ellipse cx="-0.00" cy="-32.26" rx="20.74" ry="32.26" fill="#b58d76" fill-opacity="0.95" /><ellipse cx="22.81" cy="-22.81" rx="20.74" ry="32.26" fill="#b58d76" fill-opacity="0.95" />
        <circle cx="0" cy="0" r="20.74" fill="#8d6959" />
        <circle cx="0" cy="0" r="10.37" fill="#fff7f0" fill-opacity="0.72" />
      </g>
    </g>
    
  </g>
  <path d="M0 980 C220 920, 420 1030, 900 930 L900 1100 L0 1100 Z" fill="#ffffff" fill-opacity="0.22" />
</svg>
