<svg xmlns="http://www.w3.org/2000/svg" width="900" height="1100" viewBox="0 0 900 1100">
  <defs>
    <linearGradient id="bg" x1="0" y1="0" x2="0" y2="1">
      <stop offset="0%" stop-color="#f3f0ea" />
      <stop offset="100%" stop-color="#e8ece7" />
    </linearGradient>
    <filter id="shadow" x="-20%" y="-20%" width="140%" height="140%">
      <feDropShadow dx="0" dy="22" stdDeviation="24" flood-color="#6c5d4f" flood-opacity="0.12" />
    </filter>
  </defs>
  <rect width="100%" height="100%" fill="url(#bg)" />
  <circle cx="730" cy="180" r="140" fill="#ffffff" fill-opacity="0.18" />
  <circle cx="150" cy="260" r="90" fill="#ffffff" fill-opacity="0.12" />
  
      <rect x="70" y="72" width="300" height="92" rx="24" fill="#ffffff" fill-opacity="0.34" />
      <text x="98" y="120" fill="#2f3a31" font-size="32" font-family="'PingFang SC','Microsoft YaHei',sans-serif" font-weight="600">品牌花幕</text>
      <text x="98" y="152" fill="#4e6152" font-size="18" font-family="'PingFang SC','Microsoft YaHei',sans-serif">橱窗 · 展陈</text>
    
  <g filter="url(#shadow)">
    <ellipse cx="450" cy="955" rx="280" ry="90" fill="#d9cec2" fill-opacity="0.55" /><rect x="220" y="820" width="460" height="170" rx="18" fill="#f2ece5" fill-opacity="0.65" />
  </g>
  <g>
    
    <g transform="translate(705.74 539.66) rotate(15.39)">
      <path d="M 0 0 C -8 94.87, 10 158.12, -6 231.91" stroke="#536d57" stroke-width="12.65" fill="none" stroke-linecap="round" />
      <ellipse cx="-20" cy="115.95" rx="23.19" ry="44.27" fill="#536d57" fill-opacity="0.75" transform="rotate(-24)" />
      <ellipse cx="28" cy="143.36" rx="21.08" ry="40.06" fill="#536d57" fill-opacity="0.66" transform="rotate(20)" />
      <g transform="translate(0 0)">
        <ellipse cx="29.52" cy="0.00" rx="18.97" ry="29.52" fill="#f7ede0" fill-opacity="0.95" /><ellipse cx="20.87" cy="20.87" rx="18.97" ry="29.52" fill="#f7ede0" fill-opacity="0.95" /><ellipse cx="0.00" cy="29.52" rx="18.97" ry="29.52" fill="#f7ede0" fill-opacity="0.95" /><ellipse cx="-20.87" cy="20.87" rx="18.97" ry="29.52" fill="#f7ede0" fill-opacity="0.95" /><ellipse cx="-29.52" cy="0.00" rx="18.97" ry="29.52" fill="#f7ede0" fill-opacity="0.95" /><ellipse cx="-20.87" cy="-20.87" rx="18.97" ry="29.52" fill="#f7ede0" fill-opacity="0.95" /><ellipse cx="-0.00" cy="-29.52" rx="18.97" ry="29.52" fill="#f7ede0" fill-opacity="0.95" /><ellipse cx="20.87" cy="-20.87" rx="18.97" ry="29.52" fill="#f7ede0" fill-opacity="0.95" />
        <circle cx="0" cy="0" r="18.97" fill="#8d6959" />
        <circle cx="0" cy="0" r="9.49" fill="#fff7f0" fill-opacity="0.72" />
      </g>
    </g>
    
    <g transform="translate(508.61 343.20) rotate(-8.98)">
      <path d="M 0 0 C -8 86.63, 10 144.38, -6 211.76" stroke="#6f8b70" stroke-width="11.55" fill="none" stroke-linecap="round" />
      <ellipse cx="-20" cy="105.88" rx="21.18" ry="40.43" fill="#6f8b70" fill-opacity="0.75" transform="rotate(-24)" />
      <ellipse cx="28" cy="130.90" rx="19.25" ry="36.58" fill="#6f8b70" fill-opacity="0.66" transform="rotate(20)" />
      <g transform="translate(0 0)">
        <ellipse cx="26.95" cy="0.00" rx="17.33" ry="26.95" fill="#d7cabf" fill-opacity="0.95" /><ellipse cx="19.06" cy="19.06" rx="17.33" ry="26.95" fill="#d7cabf" fill-opacity="0.95" /><ellipse cx="0.00" cy="26.95" rx="17.33" ry="26.95" fill="#d7cabf" fill-opacity="0.95" /><ellipse cx="-19.06" cy="19.06" rx="17.33" ry="26.95" fill="#d7cabf" fill-opacity="0.95" /><ellipse cx="-26.95" cy="0.00" rx="17.33" ry="26.95" fill="#d7cabf" fill-opacity="0.95" /><ellipse cx="-19.06" cy="-19.06" rx="17.33" ry="26.95" fill="#d7cabf" fill-opacity="0.95" /><ellipse cx="-0.00" cy="-26.95" rx="17.33" ry="26.95" fill="#d7cabf" fill-opacity="0.95" /><ellipse cx="19.06" cy="-19.06" rx="17.33" ry="26.95" fill="#d7cabf" fill-opacity="0.95" />
        <circle cx="0" cy="0" r="17.33" fill="#8d6959" />
        <circle cx="0" cy="0" r="8.66" fill="#fff7f0" fill-opacity="0.72" />
      </g>
    </g>
    
    <g transform="translate(336.87 414.65) rotate(-25.58)">
      <path d="M 0 0 C -8 72.91, 10 121.51, -6 178.22" stroke="#8ba08a" stroke-width="9.72" fill="none" stroke-linecap="round" />
      <ellipse cx="-20" cy="89.11" rx="17.82" ry="34.02" fill="#8ba08a" fill-opacity="0.75" transform="rotate(-24)" />
      <ellipse cx="28" cy="110.17" rx="16.20" ry="30.78" fill="#8ba08a" fill-opacity="0.66" transform="rotate(20)" />
      <g transform="translate(0 0)">
        <ellipse cx="22.68" cy="0.00" rx="14.58" ry="22.68" fill="#b58d76" fill-opacity="0.95" /><ellipse cx="16.04" cy="16.04" rx="14.58" ry="22.68" fill="#b58d76" fill-opacity="0.95" /><ellipse cx="0.00" cy="22.68" rx="14.58" ry="22.68" fill="#b58d76" fill-opacity="0.95" /><ellipse cx="-16.04" cy="16.04" rx="14.58" ry="22.68" fill="#b58d76" fill-opacity="0.95" /><ellipse cx="-22.68" cy="0.00" rx="14.58" ry="22.68" fill="#b58d76" fill-opacity="0.95" /><ellipse cx="-16.04" cy="-16.04" rx="14.58" ry="22.68" fill="#b58d76" fill-opacity="0.95" /><ellipse cx="-0.00" cy="-22.68" rx="14.58" ry="22.68" fill="#b58d76" fill-opacity="0.95" /><ellipse cx="16.04" cy="-16.04" rx="14.58" ry="22.68" fill="#b58d76" fill-opacity="0.95" />
        <circle cx="0" cy="0" r="14.58" fill="#8d6959" />
        <circle cx="0" cy="0" r="7.29" fill="#fff7f0" fill-opacity="0.72" />
      </g>
    </g>
    
    <g transform="translate(275.26 413.39) rotate(1.75)">
      <path d="M 0 0 C -8 98.87, 10 164.78, -6 241.68" stroke="#536d57" stroke-width="13.18" fill="none" stroke-linecap="round" />
      <ellipse cx="-20" cy="120.84" rx="24.17" ry="46.14" fill="#536d57" fill-opacity="0.75" transform="rotate(-24)" />
      <ellipse cx="28" cy="149.40" rx="21.97" ry="41.74" fill="#536d57" fill-opacity="0.66" transform="rotate(20)" />
      <g transform="translate(0 0)">
        <ellipse cx="30.76" cy="0.00" rx="19.77" ry="30.76" fill="#f1dccf" fill-opacity="0.95" /><ellipse cx="21.75" cy="21.75" rx="19.77" ry="30.76" fill="#f1dccf" fill-opacity="0.95" /><ellipse cx="0.00" cy="30.76" rx="19.77" ry="30.76" fill="#f1dccf" fill-opacity="0.95" /><ellipse cx="-21.75" cy="21.75" rx="19.77" ry="30.76" fill="#f1dccf" fill-opacity="0.95" /><ellipse cx="-30.76" cy="0.00" rx="19.77" ry="30.76" fill="#f1dccf" fill-opacity="0.95" /><ellipse cx="-21.75" cy="-21.75" rx="19.77" ry="30.76" fill="#f1dccf" fill-opacity="0.95" /><ellipse cx="-0.00" cy="-30.76" rx="19.77" ry="30.76" fill="#f1dccf" fill-opacity="0.95" /><ellipse cx="21.75" cy="-21.75" rx="19.77" ry="30.76" fill="#f1dccf" fill-opacity="0.95" />
        <circle cx="0" cy="0" r="19.77" fill="#8d6959" />
        <circle cx="0" cy="0" r="9.89" fill="#fff7f0" fill-opacity="0.72" />
      </g>
    </g>
    
    <g transform="translate(316.40 487.64) rotate(-4.75)">
      <path d="M 0 0 C -8 114.43, 10 190.72, -6 279.72" stroke="#6f8b70" stroke-width="15.26" fill="none" stroke-linecap="round" />
      <ellipse cx="-20" cy="139.86" rx="27.97" ry="53.40" fill="#6f8b70" fill-opacity="0.75" transform="rotate(-24)" />
      <ellipse cx="28" cy="172.92" rx="25.43" ry="48.32" fill="#6f8b70" fill-opacity="0.66" transform="rotate(20)" />
      <g transform="translate(0 0)">
        <ellipse cx="35.60" cy="0.00" rx="22.89" ry="35.60" fill="#f7ede0" fill-opacity="0.95" /><ellipse cx="25.17" cy="25.17" rx="22.89" ry="35.60" fill="#f7ede0" fill-opacity="0.95" /><ellipse cx="0.00" cy="35.60" rx="22.89" ry="35.60" fill="#f7ede0" fill-opacity="0.95" /><ellipse cx="-25.17" cy="25.17" rx="22.89" ry="35.60" fill="#f7ede0" fill-opacity="0.95" /><ellipse cx="-35.60" cy="0.00" rx="22.89" ry="35.60" fill="#f7ede0" fill-opacity="0.95" /><ellipse cx="-25.17" cy="-25.17" rx="22.89" ry="35.60" fill="#f7ede0" fill-opacity="0.95" /><ellipse cx="-0.00" cy="-35.60" rx="22.89" ry="35.60" fill="#f7ede0" fill-opacity="0.95" /><ellipse cx="25.17" cy="-25.17" rx="22.89" ry="35.60" fill="#f7ede0" fill-opacity="0.95" />
        <circle cx="0" cy="0" r="22.89" fill="#8d6959" />
        <circle cx="0" cy="0" r="11.44" fill="#fff7f0" fill-opacity="0.72" />
      </g>
    </g>
    
    <g transform="translate(375.24 501.10) rotate(4.46)">
      <path d="M 0 0 C -8 98.04, 10 163.41, -6 239.66" stroke="#8ba08a" stroke-width="13.07" fill="none" stroke-linecap="round" />
      <ellipse cx="-20" cy="119.83" rx="23.97" ry="45.75" fill="#8ba08a" fill-opacity="0.75" transform="rotate(-24)" />
      <ellipse cx="28" cy="148.16" rx="21.79" ry="41.40" fill="#8ba08a" fill-opacity="0.66" transform="rotate(20)" />
      <g transform="translate(0 0)">
        <ellipse cx="30.50" cy="0.00" rx="19.61" ry="30.50" fill="#d7cabf" fill-opacity="0.95" /><ellipse cx="21.57" cy="21.57" rx="19.61" ry="30.50" fill="#d7cabf" fill-opacity="0.95" /><ellipse cx="0.00" cy="30.50" rx="19.61" ry="30.50" fill="#d7cabf" fill-opacity="0.95" /><ellipse cx="-21.57" cy="21.57" rx="19.61" ry="30.50" fill="#d7cabf" fill-opacity="0.95" /><ellipse cx="-30.50" cy="0.00" rx="19.61" ry="30.50" fill="#d7cabf" fill-opacity="0.95" /><ellipse cx="-21.57" cy="-21.57" rx="19.61" ry="30.50" fill="#d7cabf" fill-opacity="0.95" /><ellipse cx="-0.00" cy="-30.50" rx="19.61" ry="30.50" fill="#d7cabf" fill-opacity="0.95" /><ellipse cx="21.57" cy="-21.57" rx="19.61" ry="30.50" fill="#d7cabf" fill-opacity="0.95" />
        <circle cx="0" cy="0" r="19.61" fill="#8d6959" />
        <circle cx="0" cy="0" r="9.80" fill="#fff7f0" fill-opacity="0.72" />
      </g>
    </g>
    
    <g transform="translate(690.86 494.68) rotate(-18.74)">
      <path d="M 0 0 C -8 101.44, 10 169.07, -6 247.96" stroke="#536d57" stroke-width="13.53" fill="none" stroke-linecap="round" />
      <ellipse cx="-20" cy="123.98" rx="24.80" ry="47.34" fill="#536d57" fill-opacity="0.75" transform="rotate(-24)" />
      <ellipse cx="28" cy="153.29" rx="22.54" ry="42.83" fill="#536d57" fill-opacity="0.66" transform="rotate(20)" />
      <g transform="translate(0 0)">
        <ellipse cx="31.56" cy="0.00" rx="20.29" ry="31.56" fill="#b58d76" fill-opacity="0.95" /><ellipse cx="22.32" cy="22.32" rx="20.29" ry="31.56" fill="#b58d76" fill-opacity="0.95" /><ellipse cx="0.00" cy="31.56" rx="20.29" ry="31.56" fill="#b58d76" fill-opacity="0.95" /><ellipse cx="-22.32" cy="22.32" rx="20.29" ry="31.56" fill="#b58d76" fill-opacity="0.95" /><ellipse cx="-31.56" cy="0.00" rx="20.29" ry="31.56" fill="#b58d76" fill-opacity="0.95" /><ellipse cx="-22.32" cy="-22.32" rx="20.29" ry="31.56" fill="#b58d76" fill-opacity="0.95" /><ellipse cx="-0.00" cy="-31.56" rx="20.29" ry="31.56" fill="#b58d76" fill-opacity="0.95" /><ellipse cx="22.32" cy="-22.32" rx="20.29" ry="31.56" fill="#b58d76" fill-opacity="0.95" />
        <circle cx="0" cy="0" r="20.29" fill="#8d6959" />
        <circle cx="0" cy="0" r="10.14" fill="#fff7f0" fill-opacity="0.72" />
      </g>
    </g>
    
  </g>
  <path d="M0 980 C220 920, 420 1030, 900 930 L900 1100 L0 1100 Z" fill="#ffffff" fill-opacity="0.22" />
</svg>
