<svg xmlns="http://www.w3.org/2000/svg" width="900" height="1100" viewBox="0 0 900 1100">
  <defs>
    <linearGradient id="bg" x1="0" y1="0" x2="0" y2="1">
      <stop offset="0%" stop-color="#f3f0ea" />
      <stop offset="100%" stop-color="#e8ece7" />
    </linearGradient>
    <filter id="shadow" x="-20%" y="-20%" width="140%" height="140%">
      <feDropShadow dx="0" dy="22" stdDeviation="24" flood-color="#6c5d4f" flood-opacity="0.12" />
    </filter>
  </defs>
  <rect width="100%" height="100%" fill="url(#bg)" />
  <circle cx="730" cy="180" r="140" fill="#ffffff" fill-opacity="0.18" />
  <circle cx="150" cy="260" r="90" fill="#ffffff" fill-opacity="0.12" />
  
      <rect x="70" y="72" width="300" height="92" rx="24" fill="#ffffff" fill-opacity="0.34" />
      <text x="98" y="120" fill="#2f3a31" font-size="32" font-family="'PingFang SC','Microsoft YaHei',sans-serif" font-weight="600">空间序列</text>
      <text x="98" y="152" fill="#4e6152" font-size="18" font-family="'PingFang SC','Microsoft YaHei',sans-serif">宴会 · 餐桌花艺</text>
    
  <g filter="url(#shadow)">
    <ellipse cx="450" cy="955" rx="280" ry="90" fill="#d9cec2" fill-opacity="0.55" /><rect x="220" y="820" width="460" height="170" rx="18" fill="#f2ece5" fill-opacity="0.65" />
  </g>
  <g>
    
    <g transform="translate(644.44 425.30) rotate(12.39)">
      <path d="M 0 0 C -8 90.96, 10 151.59, -6 222.34" stroke="#536d57" stroke-width="12.13" fill="none" stroke-linecap="round" />
      <ellipse cx="-20" cy="111.17" rx="22.23" ry="42.45" fill="#536d57" fill-opacity="0.75" transform="rotate(-24)" />
      <ellipse cx="28" cy="137.45" rx="20.21" ry="38.40" fill="#536d57" fill-opacity="0.66" transform="rotate(20)" />
      <g transform="translate(0 0)">
        <ellipse cx="28.30" cy="0.00" rx="18.19" ry="28.30" fill="#f7ede0" fill-opacity="0.95" /><ellipse cx="20.01" cy="20.01" rx="18.19" ry="28.30" fill="#f7ede0" fill-opacity="0.95" /><ellipse cx="0.00" cy="28.30" rx="18.19" ry="28.30" fill="#f7ede0" fill-opacity="0.95" /><ellipse cx="-20.01" cy="20.01" rx="18.19" ry="28.30" fill="#f7ede0" fill-opacity="0.95" /><ellipse cx="-28.30" cy="0.00" rx="18.19" ry="28.30" fill="#f7ede0" fill-opacity="0.95" /><ellipse cx="-20.01" cy="-20.01" rx="18.19" ry="28.30" fill="#f7ede0" fill-opacity="0.95" /><ellipse cx="-0.00" cy="-28.30" rx="18.19" ry="28.30" fill="#f7ede0" fill-opacity="0.95" /><ellipse cx="20.01" cy="-20.01" rx="18.19" ry="28.30" fill="#f7ede0" fill-opacity="0.95" />
        <circle cx="0" cy="0" r="18.19" fill="#8d6959" />
        <circle cx="0" cy="0" r="9.10" fill="#fff7f0" fill-opacity="0.72" />
      </g>
    </g>
    
    <g transform="translate(431.48 532.26) rotate(20.34)">
      <path d="M 0 0 C -8 113.84, 10 189.73, -6 278.27" stroke="#6f8b70" stroke-width="15.18" fill="none" stroke-linecap="round" />
      <ellipse cx="-20" cy="139.14" rx="27.83" ry="53.12" fill="#6f8b70" fill-opacity="0.75" transform="rotate(-24)" />
      <ellipse cx="28" cy="172.02" rx="25.30" ry="48.07" fill="#6f8b70" fill-opacity="0.66" transform="rotate(20)" />
      <g transform="translate(0 0)">
        <ellipse cx="35.42" cy="0.00" rx="22.77" ry="35.42" fill="#d7cabf" fill-opacity="0.95" /><ellipse cx="25.04" cy="25.04" rx="22.77" ry="35.42" fill="#d7cabf" fill-opacity="0.95" /><ellipse cx="0.00" cy="35.42" rx="22.77" ry="35.42" fill="#d7cabf" fill-opacity="0.95" /><ellipse cx="-25.04" cy="25.04" rx="22.77" ry="35.42" fill="#d7cabf" fill-opacity="0.95" /><ellipse cx="-35.42" cy="0.00" rx="22.77" ry="35.42" fill="#d7cabf" fill-opacity="0.95" /><ellipse cx="-25.04" cy="-25.04" rx="22.77" ry="35.42" fill="#d7cabf" fill-opacity="0.95" /><ellipse cx="-0.00" cy="-35.42" rx="22.77" ry="35.42" fill="#d7cabf" fill-opacity="0.95" /><ellipse cx="25.04" cy="-25.04" rx="22.77" ry="35.42" fill="#d7cabf" fill-opacity="0.95" />
        <circle cx="0" cy="0" r="22.77" fill="#8d6959" />
        <circle cx="0" cy="0" r="11.38" fill="#fff7f0" fill-opacity="0.72" />
      </g>
    </g>
    
    <g transform="translate(237.67 517.56) rotate(15.96)">
      <path d="M 0 0 C -8 82.11, 10 136.85, -6 200.72" stroke="#8ba08a" stroke-width="10.95" fill="none" stroke-linecap="round" />
      <ellipse cx="-20" cy="100.36" rx="20.07" ry="38.32" fill="#8ba08a" fill-opacity="0.75" transform="rotate(-24)" />
      <ellipse cx="28" cy="124.08" rx="18.25" ry="34.67" fill="#8ba08a" fill-opacity="0.66" transform="rotate(20)" />
      <g transform="translate(0 0)">
        <ellipse cx="25.55" cy="0.00" rx="16.42" ry="25.55" fill="#b58d76" fill-opacity="0.95" /><ellipse cx="18.06" cy="18.06" rx="16.42" ry="25.55" fill="#b58d76" fill-opacity="0.95" /><ellipse cx="0.00" cy="25.55" rx="16.42" ry="25.55" fill="#b58d76" fill-opacity="0.95" /><ellipse cx="-18.06" cy="18.06" rx="16.42" ry="25.55" fill="#b58d76" fill-opacity="0.95" /><ellipse cx="-25.55" cy="0.00" rx="16.42" ry="25.55" fill="#b58d76" fill-opacity="0.95" /><ellipse cx="-18.06" cy="-18.06" rx="16.42" ry="25.55" fill="#b58d76" fill-opacity="0.95" /><ellipse cx="-0.00" cy="-25.55" rx="16.42" ry="25.55" fill="#b58d76" fill-opacity="0.95" /><ellipse cx="18.06" cy="-18.06" rx="16.42" ry="25.55" fill="#b58d76" fill-opacity="0.95" />
        <circle cx="0" cy="0" r="16.42" fill="#8d6959" />
        <circle cx="0" cy="0" r="8.21" fill="#fff7f0" fill-opacity="0.72" />
      </g>
    </g>
    
    <g transform="translate(283.41 520.57) rotate(22.90)">
      <path d="M 0 0 C -8 104.45, 10 174.08, -6 255.31" stroke="#536d57" stroke-width="13.93" fill="none" stroke-linecap="round" />
      <ellipse cx="-20" cy="127.66" rx="25.53" ry="48.74" fill="#536d57" fill-opacity="0.75" transform="rotate(-24)" />
      <ellipse cx="28" cy="157.83" rx="23.21" ry="44.10" fill="#536d57" fill-opacity="0.66" transform="rotate(20)" />
      <g transform="translate(0 0)">
        <ellipse cx="32.49" cy="0.00" rx="20.89" ry="32.49" fill="#f1dccf" fill-opacity="0.95" /><ellipse cx="22.98" cy="22.98" rx="20.89" ry="32.49" fill="#f1dccf" fill-opacity="0.95" /><ellipse cx="0.00" cy="32.49" rx="20.89" ry="32.49" fill="#f1dccf" fill-opacity="0.95" /><ellipse cx="-22.98" cy="22.98" rx="20.89" ry="32.49" fill="#f1dccf" fill-opacity="0.95" /><ellipse cx="-32.49" cy="0.00" rx="20.89" ry="32.49" fill="#f1dccf" fill-opacity="0.95" /><ellipse cx="-22.98" cy="-22.98" rx="20.89" ry="32.49" fill="#f1dccf" fill-opacity="0.95" /><ellipse cx="-0.00" cy="-32.49" rx="20.89" ry="32.49" fill="#f1dccf" fill-opacity="0.95" /><ellipse cx="22.98" cy="-22.98" rx="20.89" ry="32.49" fill="#f1dccf" fill-opacity="0.95" />
        <circle cx="0" cy="0" r="20.89" fill="#8d6959" />
        <circle cx="0" cy="0" r="10.44" fill="#fff7f0" fill-opacity="0.72" />
      </g>
    </g>
    
    <g transform="translate(466.64 446.04) rotate(24.68)">
      <path d="M 0 0 C -8 107.89, 10 179.82, -6 263.74" stroke="#6f8b70" stroke-width="14.39" fill="none" stroke-linecap="round" />
      <ellipse cx="-20" cy="131.87" rx="26.37" ry="50.35" fill="#6f8b70" fill-opacity="0.75" transform="rotate(-24)" />
      <ellipse cx="28" cy="163.04" rx="23.98" ry="45.56" fill="#6f8b70" fill-opacity="0.66" transform="rotate(20)" />
      <g transform="translate(0 0)">
        <ellipse cx="33.57" cy="0.00" rx="21.58" ry="33.57" fill="#f7ede0" fill-opacity="0.95" /><ellipse cx="23.74" cy="23.74" rx="21.58" ry="33.57" fill="#f7ede0" fill-opacity="0.95" /><ellipse cx="0.00" cy="33.57" rx="21.58" ry="33.57" fill="#f7ede0" fill-opacity="0.95" /><ellipse cx="-23.74" cy="23.74" rx="21.58" ry="33.57" fill="#f7ede0" fill-opacity="0.95" /><ellipse cx="-33.57" cy="0.00" rx="21.58" ry="33.57" fill="#f7ede0" fill-opacity="0.95" /><ellipse cx="-23.74" cy="-23.74" rx="21.58" ry="33.57" fill="#f7ede0" fill-opacity="0.95" /><ellipse cx="-0.00" cy="-33.57" rx="21.58" ry="33.57" fill="#f7ede0" fill-opacity="0.95" /><ellipse cx="23.74" cy="-23.74" rx="21.58" ry="33.57" fill="#f7ede0" fill-opacity="0.95" />
        <circle cx="0" cy="0" r="21.58" fill="#8d6959" />
        <circle cx="0" cy="0" r="10.79" fill="#fff7f0" fill-opacity="0.72" />
      </g>
    </g>
    
    <g transform="translate(666.23 408.07) rotate(-14.43)">
      <path d="M 0 0 C -8 108.39, 10 180.65, -6 264.96" stroke="#8ba08a" stroke-width="14.45" fill="none" stroke-linecap="round" />
      <ellipse cx="-20" cy="132.48" rx="26.50" ry="50.58" fill="#8ba08a" fill-opacity="0.75" transform="rotate(-24)" />
      <ellipse cx="28" cy="163.79" rx="24.09" ry="45.77" fill="#8ba08a" fill-opacity="0.66" transform="rotate(20)" />
      <g transform="translate(0 0)">
        <ellipse cx="33.72" cy="0.00" rx="21.68" ry="33.72" fill="#d7cabf" fill-opacity="0.95" /><ellipse cx="23.85" cy="23.85" rx="21.68" ry="33.72" fill="#d7cabf" fill-opacity="0.95" /><ellipse cx="0.00" cy="33.72" rx="21.68" ry="33.72" fill="#d7cabf" fill-opacity="0.95" /><ellipse cx="-23.85" cy="23.85" rx="21.68" ry="33.72" fill="#d7cabf" fill-opacity="0.95" /><ellipse cx="-33.72" cy="0.00" rx="21.68" ry="33.72" fill="#d7cabf" fill-opacity="0.95" /><ellipse cx="-23.85" cy="-23.85" rx="21.68" ry="33.72" fill="#d7cabf" fill-opacity="0.95" /><ellipse cx="-0.00" cy="-33.72" rx="21.68" ry="33.72" fill="#d7cabf" fill-opacity="0.95" /><ellipse cx="23.85" cy="-23.85" rx="21.68" ry="33.72" fill="#d7cabf" fill-opacity="0.95" />
        <circle cx="0" cy="0" r="21.68" fill="#8d6959" />
        <circle cx="0" cy="0" r="10.84" fill="#fff7f0" fill-opacity="0.72" />
      </g>
    </g>
    
    <g transform="translate(661.45 430.98) rotate(11.15)">
      <path d="M 0 0 C -8 71.61, 10 119.36, -6 175.06" stroke="#536d57" stroke-width="9.55" fill="none" stroke-linecap="round" />
      <ellipse cx="-20" cy="87.53" rx="17.51" ry="33.42" fill="#536d57" fill-opacity="0.75" transform="rotate(-24)" />
      <ellipse cx="28" cy="108.22" rx="15.91" ry="30.24" fill="#536d57" fill-opacity="0.66" transform="rotate(20)" />
      <g transform="translate(0 0)">
        <ellipse cx="22.28" cy="0.00" rx="14.32" ry="22.28" fill="#b58d76" fill-opacity="0.95" /><ellipse cx="15.75" cy="15.75" rx="14.32" ry="22.28" fill="#b58d76" fill-opacity="0.95" /><ellipse cx="0.00" cy="22.28" rx="14.32" ry="22.28" fill="#b58d76" fill-opacity="0.95" /><ellipse cx="-15.75" cy="15.75" rx="14.32" ry="22.28" fill="#b58d76" fill-opacity="0.95" /><ellipse cx="-22.28" cy="0.00" rx="14.32" ry="22.28" fill="#b58d76" fill-opacity="0.95" /><ellipse cx="-15.75" cy="-15.75" rx="14.32" ry="22.28" fill="#b58d76" fill-opacity="0.95" /><ellipse cx="-0.00" cy="-22.28" rx="14.32" ry="22.28" fill="#b58d76" fill-opacity="0.95" /><ellipse cx="15.75" cy="-15.75" rx="14.32" ry="22.28" fill="#b58d76" fill-opacity="0.95" />
        <circle cx="0" cy="0" r="14.32" fill="#8d6959" />
        <circle cx="0" cy="0" r="7.16" fill="#fff7f0" fill-opacity="0.72" />
      </g>
    </g>
    
  </g>
  <path d="M0 980 C220 920, 420 1030, 900 930 L900 1100 L0 1100 Z" fill="#ffffff" fill-opacity="0.22" />
</svg>
