<svg xmlns="http://www.w3.org/2000/svg" width="900" height="1100" viewBox="0 0 900 1100">
  <defs>
    <linearGradient id="bg" x1="0" y1="0" x2="0" y2="1">
      <stop offset="0%" stop-color="#f3f0ea" />
      <stop offset="100%" stop-color="#e8ece7" />
    </linearGradient>
    <filter id="shadow" x="-20%" y="-20%" width="140%" height="140%">
      <feDropShadow dx="0" dy="22" stdDeviation="24" flood-color="#6c5d4f" flood-opacity="0.12" />
    </filter>
  </defs>
  <rect width="100%" height="100%" fill="url(#bg)" />
  <circle cx="730" cy="180" r="140" fill="#ffffff" fill-opacity="0.18" />
  <circle cx="150" cy="260" r="90" fill="#ffffff" fill-opacity="0.12" />
  
      <rect x="70" y="72" width="300" height="92" rx="24" fill="#ffffff" fill-opacity="0.34" />
      <text x="98" y="120" fill="#2f3a31" font-size="32" font-family="'PingFang SC','Microsoft YaHei',sans-serif" font-weight="600">宴庭森叙</text>
      <text x="98" y="152" fill="#4e6152" font-size="18" font-family="'PingFang SC','Microsoft YaHei',sans-serif">定制 · 品牌活动</text>
    
  <g filter="url(#shadow)">
    <ellipse cx="450" cy="955" rx="280" ry="90" fill="#d9cec2" fill-opacity="0.55" /><rect x="220" y="820" width="460" height="170" rx="18" fill="#f2ece5" fill-opacity="0.65" />
  </g>
  <g>
    
    <g transform="translate(519.59 451.09) rotate(15.22)">
      <path d="M 0 0 C -8 74.60, 10 124.33, -6 182.35" stroke="#536d57" stroke-width="9.95" fill="none" stroke-linecap="round" />
      <ellipse cx="-20" cy="91.18" rx="18.24" ry="34.81" fill="#536d57" fill-opacity="0.75" transform="rotate(-24)" />
      <ellipse cx="28" cy="112.73" rx="16.58" ry="31.50" fill="#536d57" fill-opacity="0.66" transform="rotate(20)" />
      <g transform="translate(0 0)">
        <ellipse cx="23.21" cy="0.00" rx="14.92" ry="23.21" fill="#f7ede0" fill-opacity="0.95" /><ellipse cx="16.41" cy="16.41" rx="14.92" ry="23.21" fill="#f7ede0" fill-opacity="0.95" /><ellipse cx="0.00" cy="23.21" rx="14.92" ry="23.21" fill="#f7ede0" fill-opacity="0.95" /><ellipse cx="-16.41" cy="16.41" rx="14.92" ry="23.21" fill="#f7ede0" fill-opacity="0.95" /><ellipse cx="-23.21" cy="0.00" rx="14.92" ry="23.21" fill="#f7ede0" fill-opacity="0.95" /><ellipse cx="-16.41" cy="-16.41" rx="14.92" ry="23.21" fill="#f7ede0" fill-opacity="0.95" /><ellipse cx="-0.00" cy="-23.21" rx="14.92" ry="23.21" fill="#f7ede0" fill-opacity="0.95" /><ellipse cx="16.41" cy="-16.41" rx="14.92" ry="23.21" fill="#f7ede0" fill-opacity="0.95" />
        <circle cx="0" cy="0" r="14.92" fill="#8d6959" />
        <circle cx="0" cy="0" r="7.46" fill="#fff7f0" fill-opacity="0.72" />
      </g>
    </g>
    
    <g transform="translate(709.66 527.01) rotate(2.47)">
      <path d="M 0 0 C -8 100.78, 10 167.96, -6 246.34" stroke="#6f8b70" stroke-width="13.44" fill="none" stroke-linecap="round" />
      <ellipse cx="-20" cy="123.17" rx="24.63" ry="47.03" fill="#6f8b70" fill-opacity="0.75" transform="rotate(-24)" />
      <ellipse cx="28" cy="152.28" rx="22.39" ry="42.55" fill="#6f8b70" fill-opacity="0.66" transform="rotate(20)" />
      <g transform="translate(0 0)">
        <ellipse cx="31.35" cy="0.00" rx="20.16" ry="31.35" fill="#d7cabf" fill-opacity="0.95" /><ellipse cx="22.17" cy="22.17" rx="20.16" ry="31.35" fill="#d7cabf" fill-opacity="0.95" /><ellipse cx="0.00" cy="31.35" rx="20.16" ry="31.35" fill="#d7cabf" fill-opacity="0.95" /><ellipse cx="-22.17" cy="22.17" rx="20.16" ry="31.35" fill="#d7cabf" fill-opacity="0.95" /><ellipse cx="-31.35" cy="0.00" rx="20.16" ry="31.35" fill="#d7cabf" fill-opacity="0.95" /><ellipse cx="-22.17" cy="-22.17" rx="20.16" ry="31.35" fill="#d7cabf" fill-opacity="0.95" /><ellipse cx="-0.00" cy="-31.35" rx="20.16" ry="31.35" fill="#d7cabf" fill-opacity="0.95" /><ellipse cx="22.17" cy="-22.17" rx="20.16" ry="31.35" fill="#d7cabf" fill-opacity="0.95" />
        <circle cx="0" cy="0" r="20.16" fill="#8d6959" />
        <circle cx="0" cy="0" r="10.08" fill="#fff7f0" fill-opacity="0.72" />
      </g>
    </g>
    
    <g transform="translate(421.99 438.66) rotate(-9.72)">
      <path d="M 0 0 C -8 78.29, 10 130.49, -6 191.38" stroke="#8ba08a" stroke-width="10.44" fill="none" stroke-linecap="round" />
      <ellipse cx="-20" cy="95.69" rx="19.14" ry="36.54" fill="#8ba08a" fill-opacity="0.75" transform="rotate(-24)" />
      <ellipse cx="28" cy="118.31" rx="17.40" ry="33.06" fill="#8ba08a" fill-opacity="0.66" transform="rotate(20)" />
      <g transform="translate(0 0)">
        <ellipse cx="24.36" cy="0.00" rx="15.66" ry="24.36" fill="#b58d76" fill-opacity="0.95" /><ellipse cx="17.22" cy="17.22" rx="15.66" ry="24.36" fill="#b58d76" fill-opacity="0.95" /><ellipse cx="0.00" cy="24.36" rx="15.66" ry="24.36" fill="#b58d76" fill-opacity="0.95" /><ellipse cx="-17.22" cy="17.22" rx="15.66" ry="24.36" fill="#b58d76" fill-opacity="0.95" /><ellipse cx="-24.36" cy="0.00" rx="15.66" ry="24.36" fill="#b58d76" fill-opacity="0.95" /><ellipse cx="-17.22" cy="-17.22" rx="15.66" ry="24.36" fill="#b58d76" fill-opacity="0.95" /><ellipse cx="-0.00" cy="-24.36" rx="15.66" ry="24.36" fill="#b58d76" fill-opacity="0.95" /><ellipse cx="17.22" cy="-17.22" rx="15.66" ry="24.36" fill="#b58d76" fill-opacity="0.95" />
        <circle cx="0" cy="0" r="15.66" fill="#8d6959" />
        <circle cx="0" cy="0" r="7.83" fill="#fff7f0" fill-opacity="0.72" />
      </g>
    </g>
    
    <g transform="translate(586.61 330.37) rotate(7.15)">
      <path d="M 0 0 C -8 111.44, 10 185.73, -6 272.40" stroke="#536d57" stroke-width="14.86" fill="none" stroke-linecap="round" />
      <ellipse cx="-20" cy="136.20" rx="27.24" ry="52.00" fill="#536d57" fill-opacity="0.75" transform="rotate(-24)" />
      <ellipse cx="28" cy="168.39" rx="24.76" ry="47.05" fill="#536d57" fill-opacity="0.66" transform="rotate(20)" />
      <g transform="translate(0 0)">
        <ellipse cx="34.67" cy="0.00" rx="22.29" ry="34.67" fill="#f1dccf" fill-opacity="0.95" /><ellipse cx="24.51" cy="24.51" rx="22.29" ry="34.67" fill="#f1dccf" fill-opacity="0.95" /><ellipse cx="0.00" cy="34.67" rx="22.29" ry="34.67" fill="#f1dccf" fill-opacity="0.95" /><ellipse cx="-24.51" cy="24.51" rx="22.29" ry="34.67" fill="#f1dccf" fill-opacity="0.95" /><ellipse cx="-34.67" cy="0.00" rx="22.29" ry="34.67" fill="#f1dccf" fill-opacity="0.95" /><ellipse cx="-24.51" cy="-24.51" rx="22.29" ry="34.67" fill="#f1dccf" fill-opacity="0.95" /><ellipse cx="-0.00" cy="-34.67" rx="22.29" ry="34.67" fill="#f1dccf" fill-opacity="0.95" /><ellipse cx="24.51" cy="-24.51" rx="22.29" ry="34.67" fill="#f1dccf" fill-opacity="0.95" />
        <circle cx="0" cy="0" r="22.29" fill="#8d6959" />
        <circle cx="0" cy="0" r="11.14" fill="#fff7f0" fill-opacity="0.72" />
      </g>
    </g>
    
    <g transform="translate(365.51 434.25) rotate(24.62)">
      <path d="M 0 0 C -8 79.03, 10 131.71, -6 193.17" stroke="#6f8b70" stroke-width="10.54" fill="none" stroke-linecap="round" />
      <ellipse cx="-20" cy="96.59" rx="19.32" ry="36.88" fill="#6f8b70" fill-opacity="0.75" transform="rotate(-24)" />
      <ellipse cx="28" cy="119.42" rx="17.56" ry="33.37" fill="#6f8b70" fill-opacity="0.66" transform="rotate(20)" />
      <g transform="translate(0 0)">
        <ellipse cx="24.59" cy="0.00" rx="15.81" ry="24.59" fill="#f7ede0" fill-opacity="0.95" /><ellipse cx="17.38" cy="17.38" rx="15.81" ry="24.59" fill="#f7ede0" fill-opacity="0.95" /><ellipse cx="0.00" cy="24.59" rx="15.81" ry="24.59" fill="#f7ede0" fill-opacity="0.95" /><ellipse cx="-17.38" cy="17.38" rx="15.81" ry="24.59" fill="#f7ede0" fill-opacity="0.95" /><ellipse cx="-24.59" cy="0.00" rx="15.81" ry="24.59" fill="#f7ede0" fill-opacity="0.95" /><ellipse cx="-17.38" cy="-17.38" rx="15.81" ry="24.59" fill="#f7ede0" fill-opacity="0.95" /><ellipse cx="-0.00" cy="-24.59" rx="15.81" ry="24.59" fill="#f7ede0" fill-opacity="0.95" /><ellipse cx="17.38" cy="-17.38" rx="15.81" ry="24.59" fill="#f7ede0" fill-opacity="0.95" />
        <circle cx="0" cy="0" r="15.81" fill="#8d6959" />
        <circle cx="0" cy="0" r="7.90" fill="#fff7f0" fill-opacity="0.72" />
      </g>
    </g>
    
    <g transform="translate(428.20 328.84) rotate(-11.85)">
      <path d="M 0 0 C -8 95.95, 10 159.92, -6 234.55" stroke="#8ba08a" stroke-width="12.79" fill="none" stroke-linecap="round" />
      <ellipse cx="-20" cy="117.28" rx="23.46" ry="44.78" fill="#8ba08a" fill-opacity="0.75" transform="rotate(-24)" />
      <ellipse cx="28" cy="145.00" rx="21.32" ry="40.51" fill="#8ba08a" fill-opacity="0.66" transform="rotate(20)" />
      <g transform="translate(0 0)">
        <ellipse cx="29.85" cy="0.00" rx="19.19" ry="29.85" fill="#d7cabf" fill-opacity="0.95" /><ellipse cx="21.11" cy="21.11" rx="19.19" ry="29.85" fill="#d7cabf" fill-opacity="0.95" /><ellipse cx="0.00" cy="29.85" rx="19.19" ry="29.85" fill="#d7cabf" fill-opacity="0.95" /><ellipse cx="-21.11" cy="21.11" rx="19.19" ry="29.85" fill="#d7cabf" fill-opacity="0.95" /><ellipse cx="-29.85" cy="0.00" rx="19.19" ry="29.85" fill="#d7cabf" fill-opacity="0.95" /><ellipse cx="-21.11" cy="-21.11" rx="19.19" ry="29.85" fill="#d7cabf" fill-opacity="0.95" /><ellipse cx="-0.00" cy="-29.85" rx="19.19" ry="29.85" fill="#d7cabf" fill-opacity="0.95" /><ellipse cx="21.11" cy="-21.11" rx="19.19" ry="29.85" fill="#d7cabf" fill-opacity="0.95" />
        <circle cx="0" cy="0" r="19.19" fill="#8d6959" />
        <circle cx="0" cy="0" r="9.60" fill="#fff7f0" fill-opacity="0.72" />
      </g>
    </g>
    
    <g transform="translate(403.34 528.64) rotate(-12.02)">
      <path d="M 0 0 C -8 113.60, 10 189.33, -6 277.68" stroke="#536d57" stroke-width="15.15" fill="none" stroke-linecap="round" />
      <ellipse cx="-20" cy="138.84" rx="27.77" ry="53.01" fill="#536d57" fill-opacity="0.75" transform="rotate(-24)" />
      <ellipse cx="28" cy="171.66" rx="25.24" ry="47.96" fill="#536d57" fill-opacity="0.66" transform="rotate(20)" />
      <g transform="translate(0 0)">
        <ellipse cx="35.34" cy="0.00" rx="22.72" ry="35.34" fill="#b58d76" fill-opacity="0.95" /><ellipse cx="24.99" cy="24.99" rx="22.72" ry="35.34" fill="#b58d76" fill-opacity="0.95" /><ellipse cx="0.00" cy="35.34" rx="22.72" ry="35.34" fill="#b58d76" fill-opacity="0.95" /><ellipse cx="-24.99" cy="24.99" rx="22.72" ry="35.34" fill="#b58d76" fill-opacity="0.95" /><ellipse cx="-35.34" cy="0.00" rx="22.72" ry="35.34" fill="#b58d76" fill-opacity="0.95" /><ellipse cx="-24.99" cy="-24.99" rx="22.72" ry="35.34" fill="#b58d76" fill-opacity="0.95" /><ellipse cx="-0.00" cy="-35.34" rx="22.72" ry="35.34" fill="#b58d76" fill-opacity="0.95" /><ellipse cx="24.99" cy="-24.99" rx="22.72" ry="35.34" fill="#b58d76" fill-opacity="0.95" />
        <circle cx="0" cy="0" r="22.72" fill="#8d6959" />
        <circle cx="0" cy="0" r="11.36" fill="#fff7f0" fill-opacity="0.72" />
      </g>
    </g>
    
    <g transform="translate(619.35 376.37) rotate(-18.10)">
      <path d="M 0 0 C -8 73.59, 10 122.65, -6 179.89" stroke="#6f8b70" stroke-width="9.81" fill="none" stroke-linecap="round" />
      <ellipse cx="-20" cy="89.95" rx="17.99" ry="34.34" fill="#6f8b70" fill-opacity="0.75" transform="rotate(-24)" />
      <ellipse cx="28" cy="111.21" rx="16.35" ry="31.07" fill="#6f8b70" fill-opacity="0.66" transform="rotate(20)" />
      <g transform="translate(0 0)">
        <ellipse cx="22.90" cy="0.00" rx="14.72" ry="22.90" fill="#f1dccf" fill-opacity="0.95" /><ellipse cx="16.19" cy="16.19" rx="14.72" ry="22.90" fill="#f1dccf" fill-opacity="0.95" /><ellipse cx="0.00" cy="22.90" rx="14.72" ry="22.90" fill="#f1dccf" fill-opacity="0.95" /><ellipse cx="-16.19" cy="16.19" rx="14.72" ry="22.90" fill="#f1dccf" fill-opacity="0.95" /><ellipse cx="-22.90" cy="0.00" rx="14.72" ry="22.90" fill="#f1dccf" fill-opacity="0.95" /><ellipse cx="-16.19" cy="-16.19" rx="14.72" ry="22.90" fill="#f1dccf" fill-opacity="0.95" /><ellipse cx="-0.00" cy="-22.90" rx="14.72" ry="22.90" fill="#f1dccf" fill-opacity="0.95" /><ellipse cx="16.19" cy="-16.19" rx="14.72" ry="22.90" fill="#f1dccf" fill-opacity="0.95" />
        <circle cx="0" cy="0" r="14.72" fill="#8d6959" />
        <circle cx="0" cy="0" r="7.36" fill="#fff7f0" fill-opacity="0.72" />
      </g>
    </g>
    
  </g>
  <path d="M0 980 C220 920, 420 1030, 900 930 L900 1100 L0 1100 Z" fill="#ffffff" fill-opacity="0.22" />
</svg>
