<svg xmlns="http://www.w3.org/2000/svg" width="900" height="1100" viewBox="0 0 900 1100">
  <defs>
    <linearGradient id="bg" x1="0" y1="0" x2="0" y2="1">
      <stop offset="0%" stop-color="#f3f0ea" />
      <stop offset="100%" stop-color="#e8ece7" />
    </linearGradient>
    <filter id="shadow" x="-20%" y="-20%" width="140%" height="140%">
      <feDropShadow dx="0" dy="22" stdDeviation="24" flood-color="#6c5d4f" flood-opacity="0.12" />
    </filter>
  </defs>
  <rect width="100%" height="100%" fill="url(#bg)" />
  <circle cx="730" cy="180" r="140" fill="#ffffff" fill-opacity="0.18" />
  <circle cx="150" cy="260" r="90" fill="#ffffff" fill-opacity="0.12" />
  
      <rect x="70" y="72" width="300" height="92" rx="24" fill="#ffffff" fill-opacity="0.34" />
      <text x="98" y="120" fill="#2f3a31" font-size="32" font-family="'PingFang SC','Microsoft YaHei',sans-serif" font-weight="600">宴庭森叙</text>
      <text x="98" y="152" fill="#4e6152" font-size="18" font-family="'PingFang SC','Microsoft YaHei',sans-serif">定制 · 品牌活动</text>
    
  <g filter="url(#shadow)">
    <ellipse cx="450" cy="955" rx="280" ry="90" fill="#d9cec2" fill-opacity="0.55" /><rect x="220" y="820" width="460" height="170" rx="18" fill="#f2ece5" fill-opacity="0.65" />
  </g>
  <g>
    
    <g transform="translate(689.09 487.39) rotate(4.74)">
      <path d="M 0 0 C -8 90.04, 10 150.07, -6 220.11" stroke="#536d57" stroke-width="12.01" fill="none" stroke-linecap="round" />
      <ellipse cx="-20" cy="110.05" rx="22.01" ry="42.02" fill="#536d57" fill-opacity="0.75" transform="rotate(-24)" />
      <ellipse cx="28" cy="136.07" rx="20.01" ry="38.02" fill="#536d57" fill-opacity="0.66" transform="rotate(20)" />
      <g transform="translate(0 0)">
        <ellipse cx="28.01" cy="0.00" rx="18.01" ry="28.01" fill="#f7ede0" fill-opacity="0.95" /><ellipse cx="19.81" cy="19.81" rx="18.01" ry="28.01" fill="#f7ede0" fill-opacity="0.95" /><ellipse cx="0.00" cy="28.01" rx="18.01" ry="28.01" fill="#f7ede0" fill-opacity="0.95" /><ellipse cx="-19.81" cy="19.81" rx="18.01" ry="28.01" fill="#f7ede0" fill-opacity="0.95" /><ellipse cx="-28.01" cy="0.00" rx="18.01" ry="28.01" fill="#f7ede0" fill-opacity="0.95" /><ellipse cx="-19.81" cy="-19.81" rx="18.01" ry="28.01" fill="#f7ede0" fill-opacity="0.95" /><ellipse cx="-0.00" cy="-28.01" rx="18.01" ry="28.01" fill="#f7ede0" fill-opacity="0.95" /><ellipse cx="19.81" cy="-19.81" rx="18.01" ry="28.01" fill="#f7ede0" fill-opacity="0.95" />
        <circle cx="0" cy="0" r="18.01" fill="#8d6959" />
        <circle cx="0" cy="0" r="9.00" fill="#fff7f0" fill-opacity="0.72" />
      </g>
    </g>
    
    <g transform="translate(453.05 347.83) rotate(2.13)">
      <path d="M 0 0 C -8 96.70, 10 161.17, -6 236.39" stroke="#6f8b70" stroke-width="12.89" fill="none" stroke-linecap="round" />
      <ellipse cx="-20" cy="118.19" rx="23.64" ry="45.13" fill="#6f8b70" fill-opacity="0.75" transform="rotate(-24)" />
      <ellipse cx="28" cy="146.13" rx="21.49" ry="40.83" fill="#6f8b70" fill-opacity="0.66" transform="rotate(20)" />
      <g transform="translate(0 0)">
        <ellipse cx="30.09" cy="0.00" rx="19.34" ry="30.09" fill="#d7cabf" fill-opacity="0.95" /><ellipse cx="21.27" cy="21.27" rx="19.34" ry="30.09" fill="#d7cabf" fill-opacity="0.95" /><ellipse cx="0.00" cy="30.09" rx="19.34" ry="30.09" fill="#d7cabf" fill-opacity="0.95" /><ellipse cx="-21.27" cy="21.27" rx="19.34" ry="30.09" fill="#d7cabf" fill-opacity="0.95" /><ellipse cx="-30.09" cy="0.00" rx="19.34" ry="30.09" fill="#d7cabf" fill-opacity="0.95" /><ellipse cx="-21.27" cy="-21.27" rx="19.34" ry="30.09" fill="#d7cabf" fill-opacity="0.95" /><ellipse cx="-0.00" cy="-30.09" rx="19.34" ry="30.09" fill="#d7cabf" fill-opacity="0.95" /><ellipse cx="21.27" cy="-21.27" rx="19.34" ry="30.09" fill="#d7cabf" fill-opacity="0.95" />
        <circle cx="0" cy="0" r="19.34" fill="#8d6959" />
        <circle cx="0" cy="0" r="9.67" fill="#fff7f0" fill-opacity="0.72" />
      </g>
    </g>
    
    <g transform="translate(495.41 367.83) rotate(9.28)">
      <path d="M 0 0 C -8 114.94, 10 191.56, -6 280.96" stroke="#8ba08a" stroke-width="15.33" fill="none" stroke-linecap="round" />
      <ellipse cx="-20" cy="140.48" rx="28.10" ry="53.64" fill="#8ba08a" fill-opacity="0.75" transform="rotate(-24)" />
      <ellipse cx="28" cy="173.68" rx="25.54" ry="48.53" fill="#8ba08a" fill-opacity="0.66" transform="rotate(20)" />
      <g transform="translate(0 0)">
        <ellipse cx="35.76" cy="0.00" rx="22.99" ry="35.76" fill="#b58d76" fill-opacity="0.95" /><ellipse cx="25.28" cy="25.28" rx="22.99" ry="35.76" fill="#b58d76" fill-opacity="0.95" /><ellipse cx="0.00" cy="35.76" rx="22.99" ry="35.76" fill="#b58d76" fill-opacity="0.95" /><ellipse cx="-25.28" cy="25.28" rx="22.99" ry="35.76" fill="#b58d76" fill-opacity="0.95" /><ellipse cx="-35.76" cy="0.00" rx="22.99" ry="35.76" fill="#b58d76" fill-opacity="0.95" /><ellipse cx="-25.28" cy="-25.28" rx="22.99" ry="35.76" fill="#b58d76" fill-opacity="0.95" /><ellipse cx="-0.00" cy="-35.76" rx="22.99" ry="35.76" fill="#b58d76" fill-opacity="0.95" /><ellipse cx="25.28" cy="-25.28" rx="22.99" ry="35.76" fill="#b58d76" fill-opacity="0.95" />
        <circle cx="0" cy="0" r="22.99" fill="#8d6959" />
        <circle cx="0" cy="0" r="11.49" fill="#fff7f0" fill-opacity="0.72" />
      </g>
    </g>
    
    <g transform="translate(511.05 334.74) rotate(11.77)">
      <path d="M 0 0 C -8 89.84, 10 149.73, -6 219.61" stroke="#536d57" stroke-width="11.98" fill="none" stroke-linecap="round" />
      <ellipse cx="-20" cy="109.80" rx="21.96" ry="41.93" fill="#536d57" fill-opacity="0.75" transform="rotate(-24)" />
      <ellipse cx="28" cy="135.76" rx="19.96" ry="37.93" fill="#536d57" fill-opacity="0.66" transform="rotate(20)" />
      <g transform="translate(0 0)">
        <ellipse cx="27.95" cy="0.00" rx="17.97" ry="27.95" fill="#f1dccf" fill-opacity="0.95" /><ellipse cx="19.76" cy="19.76" rx="17.97" ry="27.95" fill="#f1dccf" fill-opacity="0.95" /><ellipse cx="0.00" cy="27.95" rx="17.97" ry="27.95" fill="#f1dccf" fill-opacity="0.95" /><ellipse cx="-19.76" cy="19.76" rx="17.97" ry="27.95" fill="#f1dccf" fill-opacity="0.95" /><ellipse cx="-27.95" cy="0.00" rx="17.97" ry="27.95" fill="#f1dccf" fill-opacity="0.95" /><ellipse cx="-19.76" cy="-19.76" rx="17.97" ry="27.95" fill="#f1dccf" fill-opacity="0.95" /><ellipse cx="-0.00" cy="-27.95" rx="17.97" ry="27.95" fill="#f1dccf" fill-opacity="0.95" /><ellipse cx="19.76" cy="-19.76" rx="17.97" ry="27.95" fill="#f1dccf" fill-opacity="0.95" />
        <circle cx="0" cy="0" r="17.97" fill="#8d6959" />
        <circle cx="0" cy="0" r="8.98" fill="#fff7f0" fill-opacity="0.72" />
      </g>
    </g>
    
    <g transform="translate(282.16 500.07) rotate(5.56)">
      <path d="M 0 0 C -8 76.70, 10 127.84, -6 187.50" stroke="#6f8b70" stroke-width="10.23" fill="none" stroke-linecap="round" />
      <ellipse cx="-20" cy="93.75" rx="18.75" ry="35.79" fill="#6f8b70" fill-opacity="0.75" transform="rotate(-24)" />
      <ellipse cx="28" cy="115.91" rx="17.05" ry="32.39" fill="#6f8b70" fill-opacity="0.66" transform="rotate(20)" />
      <g transform="translate(0 0)">
        <ellipse cx="23.86" cy="0.00" rx="15.34" ry="23.86" fill="#f7ede0" fill-opacity="0.95" /><ellipse cx="16.87" cy="16.87" rx="15.34" ry="23.86" fill="#f7ede0" fill-opacity="0.95" /><ellipse cx="0.00" cy="23.86" rx="15.34" ry="23.86" fill="#f7ede0" fill-opacity="0.95" /><ellipse cx="-16.87" cy="16.87" rx="15.34" ry="23.86" fill="#f7ede0" fill-opacity="0.95" /><ellipse cx="-23.86" cy="0.00" rx="15.34" ry="23.86" fill="#f7ede0" fill-opacity="0.95" /><ellipse cx="-16.87" cy="-16.87" rx="15.34" ry="23.86" fill="#f7ede0" fill-opacity="0.95" /><ellipse cx="-0.00" cy="-23.86" rx="15.34" ry="23.86" fill="#f7ede0" fill-opacity="0.95" /><ellipse cx="16.87" cy="-16.87" rx="15.34" ry="23.86" fill="#f7ede0" fill-opacity="0.95" />
        <circle cx="0" cy="0" r="15.34" fill="#8d6959" />
        <circle cx="0" cy="0" r="7.67" fill="#fff7f0" fill-opacity="0.72" />
      </g>
    </g>
    
    <g transform="translate(293.24 392.28) rotate(-14.33)">
      <path d="M 0 0 C -8 95.14, 10 158.57, -6 232.56" stroke="#8ba08a" stroke-width="12.69" fill="none" stroke-linecap="round" />
      <ellipse cx="-20" cy="116.28" rx="23.26" ry="44.40" fill="#8ba08a" fill-opacity="0.75" transform="rotate(-24)" />
      <ellipse cx="28" cy="143.77" rx="21.14" ry="40.17" fill="#8ba08a" fill-opacity="0.66" transform="rotate(20)" />
      <g transform="translate(0 0)">
        <ellipse cx="29.60" cy="0.00" rx="19.03" ry="29.60" fill="#d7cabf" fill-opacity="0.95" /><ellipse cx="20.93" cy="20.93" rx="19.03" ry="29.60" fill="#d7cabf" fill-opacity="0.95" /><ellipse cx="0.00" cy="29.60" rx="19.03" ry="29.60" fill="#d7cabf" fill-opacity="0.95" /><ellipse cx="-20.93" cy="20.93" rx="19.03" ry="29.60" fill="#d7cabf" fill-opacity="0.95" /><ellipse cx="-29.60" cy="0.00" rx="19.03" ry="29.60" fill="#d7cabf" fill-opacity="0.95" /><ellipse cx="-20.93" cy="-20.93" rx="19.03" ry="29.60" fill="#d7cabf" fill-opacity="0.95" /><ellipse cx="-0.00" cy="-29.60" rx="19.03" ry="29.60" fill="#d7cabf" fill-opacity="0.95" /><ellipse cx="20.93" cy="-20.93" rx="19.03" ry="29.60" fill="#d7cabf" fill-opacity="0.95" />
        <circle cx="0" cy="0" r="19.03" fill="#8d6959" />
        <circle cx="0" cy="0" r="9.51" fill="#fff7f0" fill-opacity="0.72" />
      </g>
    </g>
    
    <g transform="translate(533.47 519.68) rotate(-6.93)">
      <path d="M 0 0 C -8 85.67, 10 142.78, -6 209.41" stroke="#536d57" stroke-width="11.42" fill="none" stroke-linecap="round" />
      <ellipse cx="-20" cy="104.70" rx="20.94" ry="39.98" fill="#536d57" fill-opacity="0.75" transform="rotate(-24)" />
      <ellipse cx="28" cy="129.45" rx="19.04" ry="36.17" fill="#536d57" fill-opacity="0.66" transform="rotate(20)" />
      <g transform="translate(0 0)">
        <ellipse cx="26.65" cy="0.00" rx="17.13" ry="26.65" fill="#b58d76" fill-opacity="0.95" /><ellipse cx="18.85" cy="18.85" rx="17.13" ry="26.65" fill="#b58d76" fill-opacity="0.95" /><ellipse cx="0.00" cy="26.65" rx="17.13" ry="26.65" fill="#b58d76" fill-opacity="0.95" /><ellipse cx="-18.85" cy="18.85" rx="17.13" ry="26.65" fill="#b58d76" fill-opacity="0.95" /><ellipse cx="-26.65" cy="0.00" rx="17.13" ry="26.65" fill="#b58d76" fill-opacity="0.95" /><ellipse cx="-18.85" cy="-18.85" rx="17.13" ry="26.65" fill="#b58d76" fill-opacity="0.95" /><ellipse cx="-0.00" cy="-26.65" rx="17.13" ry="26.65" fill="#b58d76" fill-opacity="0.95" /><ellipse cx="18.85" cy="-18.85" rx="17.13" ry="26.65" fill="#b58d76" fill-opacity="0.95" />
        <circle cx="0" cy="0" r="17.13" fill="#8d6959" />
        <circle cx="0" cy="0" r="8.57" fill="#fff7f0" fill-opacity="0.72" />
      </g>
    </g>
    
  </g>
  <path d="M0 980 C220 920, 420 1030, 900 930 L900 1100 L0 1100 Z" fill="#ffffff" fill-opacity="0.22" />
</svg>
