<svg xmlns="http://www.w3.org/2000/svg" width="900" height="1100" viewBox="0 0 900 1100">
  <defs>
    <linearGradient id="bg" x1="0" y1="0" x2="0" y2="1">
      <stop offset="0%" stop-color="#f3f0ea" />
      <stop offset="100%" stop-color="#e8ece7" />
    </linearGradient>
    <filter id="shadow" x="-20%" y="-20%" width="140%" height="140%">
      <feDropShadow dx="0" dy="22" stdDeviation="24" flood-color="#6c5d4f" flood-opacity="0.12" />
    </filter>
  </defs>
  <rect width="100%" height="100%" fill="url(#bg)" />
  <circle cx="730" cy="180" r="140" fill="#ffffff" fill-opacity="0.18" />
  <circle cx="150" cy="260" r="90" fill="#ffffff" fill-opacity="0.12" />
  
      <rect x="70" y="72" width="300" height="92" rx="24" fill="#ffffff" fill-opacity="0.34" />
      <text x="98" y="120" fill="#2f3a31" font-size="32" font-family="'PingFang SC','Microsoft YaHei',sans-serif" font-weight="600">沙龙雾境</text>
      <text x="98" y="152" fill="#4e6152" font-size="18" font-family="'PingFang SC','Microsoft YaHei',sans-serif">定制 · 品牌活动</text>
    
  <g filter="url(#shadow)">
    <ellipse cx="450" cy="955" rx="280" ry="90" fill="#d9cec2" fill-opacity="0.55" /><rect x="220" y="820" width="460" height="170" rx="18" fill="#f2ece5" fill-opacity="0.65" />
  </g>
  <g>
    
    <g transform="translate(458.84 538.74) rotate(6.54)">
      <path d="M 0 0 C -8 86.79, 10 144.64, -6 212.14" stroke="#536d57" stroke-width="11.57" fill="none" stroke-linecap="round" />
      <ellipse cx="-20" cy="106.07" rx="21.21" ry="40.50" fill="#536d57" fill-opacity="0.75" transform="rotate(-24)" />
      <ellipse cx="28" cy="131.14" rx="19.29" ry="36.64" fill="#536d57" fill-opacity="0.66" transform="rotate(20)" />
      <g transform="translate(0 0)">
        <ellipse cx="27.00" cy="0.00" rx="17.36" ry="27.00" fill="#f7ede0" fill-opacity="0.95" /><ellipse cx="19.09" cy="19.09" rx="17.36" ry="27.00" fill="#f7ede0" fill-opacity="0.95" /><ellipse cx="0.00" cy="27.00" rx="17.36" ry="27.00" fill="#f7ede0" fill-opacity="0.95" /><ellipse cx="-19.09" cy="19.09" rx="17.36" ry="27.00" fill="#f7ede0" fill-opacity="0.95" /><ellipse cx="-27.00" cy="0.00" rx="17.36" ry="27.00" fill="#f7ede0" fill-opacity="0.95" /><ellipse cx="-19.09" cy="-19.09" rx="17.36" ry="27.00" fill="#f7ede0" fill-opacity="0.95" /><ellipse cx="-0.00" cy="-27.00" rx="17.36" ry="27.00" fill="#f7ede0" fill-opacity="0.95" /><ellipse cx="19.09" cy="-19.09" rx="17.36" ry="27.00" fill="#f7ede0" fill-opacity="0.95" />
        <circle cx="0" cy="0" r="17.36" fill="#8d6959" />
        <circle cx="0" cy="0" r="8.68" fill="#fff7f0" fill-opacity="0.72" />
      </g>
    </g>
    
    <g transform="translate(653.89 523.26) rotate(-13.95)">
      <path d="M 0 0 C -8 88.13, 10 146.88, -6 215.42" stroke="#6f8b70" stroke-width="11.75" fill="none" stroke-linecap="round" />
      <ellipse cx="-20" cy="107.71" rx="21.54" ry="41.13" fill="#6f8b70" fill-opacity="0.75" transform="rotate(-24)" />
      <ellipse cx="28" cy="133.17" rx="19.58" ry="37.21" fill="#6f8b70" fill-opacity="0.66" transform="rotate(20)" />
      <g transform="translate(0 0)">
        <ellipse cx="27.42" cy="0.00" rx="17.63" ry="27.42" fill="#d7cabf" fill-opacity="0.95" /><ellipse cx="19.39" cy="19.39" rx="17.63" ry="27.42" fill="#d7cabf" fill-opacity="0.95" /><ellipse cx="0.00" cy="27.42" rx="17.63" ry="27.42" fill="#d7cabf" fill-opacity="0.95" /><ellipse cx="-19.39" cy="19.39" rx="17.63" ry="27.42" fill="#d7cabf" fill-opacity="0.95" /><ellipse cx="-27.42" cy="0.00" rx="17.63" ry="27.42" fill="#d7cabf" fill-opacity="0.95" /><ellipse cx="-19.39" cy="-19.39" rx="17.63" ry="27.42" fill="#d7cabf" fill-opacity="0.95" /><ellipse cx="-0.00" cy="-27.42" rx="17.63" ry="27.42" fill="#d7cabf" fill-opacity="0.95" /><ellipse cx="19.39" cy="-19.39" rx="17.63" ry="27.42" fill="#d7cabf" fill-opacity="0.95" />
        <circle cx="0" cy="0" r="17.63" fill="#8d6959" />
        <circle cx="0" cy="0" r="8.81" fill="#fff7f0" fill-opacity="0.72" />
      </g>
    </g>
    
    <g transform="translate(577.33 404.22) rotate(17.23)">
      <path d="M 0 0 C -8 92.63, 10 154.38, -6 226.42" stroke="#8ba08a" stroke-width="12.35" fill="none" stroke-linecap="round" />
      <ellipse cx="-20" cy="113.21" rx="22.64" ry="43.23" fill="#8ba08a" fill-opacity="0.75" transform="rotate(-24)" />
      <ellipse cx="28" cy="139.97" rx="20.58" ry="39.11" fill="#8ba08a" fill-opacity="0.66" transform="rotate(20)" />
      <g transform="translate(0 0)">
        <ellipse cx="28.82" cy="0.00" rx="18.53" ry="28.82" fill="#b58d76" fill-opacity="0.95" /><ellipse cx="20.38" cy="20.38" rx="18.53" ry="28.82" fill="#b58d76" fill-opacity="0.95" /><ellipse cx="0.00" cy="28.82" rx="18.53" ry="28.82" fill="#b58d76" fill-opacity="0.95" /><ellipse cx="-20.38" cy="20.38" rx="18.53" ry="28.82" fill="#b58d76" fill-opacity="0.95" /><ellipse cx="-28.82" cy="0.00" rx="18.53" ry="28.82" fill="#b58d76" fill-opacity="0.95" /><ellipse cx="-20.38" cy="-20.38" rx="18.53" ry="28.82" fill="#b58d76" fill-opacity="0.95" /><ellipse cx="-0.00" cy="-28.82" rx="18.53" ry="28.82" fill="#b58d76" fill-opacity="0.95" /><ellipse cx="20.38" cy="-20.38" rx="18.53" ry="28.82" fill="#b58d76" fill-opacity="0.95" />
        <circle cx="0" cy="0" r="18.53" fill="#8d6959" />
        <circle cx="0" cy="0" r="9.26" fill="#fff7f0" fill-opacity="0.72" />
      </g>
    </g>
    
    <g transform="translate(677.39 394.13) rotate(2.02)">
      <path d="M 0 0 C -8 93.22, 10 155.37, -6 227.88" stroke="#536d57" stroke-width="12.43" fill="none" stroke-linecap="round" />
      <ellipse cx="-20" cy="113.94" rx="22.79" ry="43.50" fill="#536d57" fill-opacity="0.75" transform="rotate(-24)" />
      <ellipse cx="28" cy="140.87" rx="20.72" ry="39.36" fill="#536d57" fill-opacity="0.66" transform="rotate(20)" />
      <g transform="translate(0 0)">
        <ellipse cx="29.00" cy="0.00" rx="18.64" ry="29.00" fill="#f1dccf" fill-opacity="0.95" /><ellipse cx="20.51" cy="20.51" rx="18.64" ry="29.00" fill="#f1dccf" fill-opacity="0.95" /><ellipse cx="0.00" cy="29.00" rx="18.64" ry="29.00" fill="#f1dccf" fill-opacity="0.95" /><ellipse cx="-20.51" cy="20.51" rx="18.64" ry="29.00" fill="#f1dccf" fill-opacity="0.95" /><ellipse cx="-29.00" cy="0.00" rx="18.64" ry="29.00" fill="#f1dccf" fill-opacity="0.95" /><ellipse cx="-20.51" cy="-20.51" rx="18.64" ry="29.00" fill="#f1dccf" fill-opacity="0.95" /><ellipse cx="-0.00" cy="-29.00" rx="18.64" ry="29.00" fill="#f1dccf" fill-opacity="0.95" /><ellipse cx="20.51" cy="-20.51" rx="18.64" ry="29.00" fill="#f1dccf" fill-opacity="0.95" />
        <circle cx="0" cy="0" r="18.64" fill="#8d6959" />
        <circle cx="0" cy="0" r="9.32" fill="#fff7f0" fill-opacity="0.72" />
      </g>
    </g>
    
    <g transform="translate(201.77 440.73) rotate(-4.43)">
      <path d="M 0 0 C -8 112.17, 10 186.96, -6 274.20" stroke="#6f8b70" stroke-width="14.96" fill="none" stroke-linecap="round" />
      <ellipse cx="-20" cy="137.10" rx="27.42" ry="52.35" fill="#6f8b70" fill-opacity="0.75" transform="rotate(-24)" />
      <ellipse cx="28" cy="169.51" rx="24.93" ry="47.36" fill="#6f8b70" fill-opacity="0.66" transform="rotate(20)" />
      <g transform="translate(0 0)">
        <ellipse cx="34.90" cy="0.00" rx="22.43" ry="34.90" fill="#f7ede0" fill-opacity="0.95" /><ellipse cx="24.68" cy="24.68" rx="22.43" ry="34.90" fill="#f7ede0" fill-opacity="0.95" /><ellipse cx="0.00" cy="34.90" rx="22.43" ry="34.90" fill="#f7ede0" fill-opacity="0.95" /><ellipse cx="-24.68" cy="24.68" rx="22.43" ry="34.90" fill="#f7ede0" fill-opacity="0.95" /><ellipse cx="-34.90" cy="0.00" rx="22.43" ry="34.90" fill="#f7ede0" fill-opacity="0.95" /><ellipse cx="-24.68" cy="-24.68" rx="22.43" ry="34.90" fill="#f7ede0" fill-opacity="0.95" /><ellipse cx="-0.00" cy="-34.90" rx="22.43" ry="34.90" fill="#f7ede0" fill-opacity="0.95" /><ellipse cx="24.68" cy="-24.68" rx="22.43" ry="34.90" fill="#f7ede0" fill-opacity="0.95" />
        <circle cx="0" cy="0" r="22.43" fill="#8d6959" />
        <circle cx="0" cy="0" r="11.22" fill="#fff7f0" fill-opacity="0.72" />
      </g>
    </g>
    
    <g transform="translate(531.33 431.14) rotate(7.27)">
      <path d="M 0 0 C -8 107.12, 10 178.53, -6 261.84" stroke="#8ba08a" stroke-width="14.28" fill="none" stroke-linecap="round" />
      <ellipse cx="-20" cy="130.92" rx="26.18" ry="49.99" fill="#8ba08a" fill-opacity="0.75" transform="rotate(-24)" />
      <ellipse cx="28" cy="161.86" rx="23.80" ry="45.23" fill="#8ba08a" fill-opacity="0.66" transform="rotate(20)" />
      <g transform="translate(0 0)">
        <ellipse cx="33.32" cy="0.00" rx="21.42" ry="33.32" fill="#d7cabf" fill-opacity="0.95" /><ellipse cx="23.56" cy="23.56" rx="21.42" ry="33.32" fill="#d7cabf" fill-opacity="0.95" /><ellipse cx="0.00" cy="33.32" rx="21.42" ry="33.32" fill="#d7cabf" fill-opacity="0.95" /><ellipse cx="-23.56" cy="23.56" rx="21.42" ry="33.32" fill="#d7cabf" fill-opacity="0.95" /><ellipse cx="-33.32" cy="0.00" rx="21.42" ry="33.32" fill="#d7cabf" fill-opacity="0.95" /><ellipse cx="-23.56" cy="-23.56" rx="21.42" ry="33.32" fill="#d7cabf" fill-opacity="0.95" /><ellipse cx="-0.00" cy="-33.32" rx="21.42" ry="33.32" fill="#d7cabf" fill-opacity="0.95" /><ellipse cx="23.56" cy="-23.56" rx="21.42" ry="33.32" fill="#d7cabf" fill-opacity="0.95" />
        <circle cx="0" cy="0" r="21.42" fill="#8d6959" />
        <circle cx="0" cy="0" r="10.71" fill="#fff7f0" fill-opacity="0.72" />
      </g>
    </g>
    
    <g transform="translate(565.45 541.60) rotate(-20.85)">
      <path d="M 0 0 C -8 97.23, 10 162.05, -6 237.67" stroke="#536d57" stroke-width="12.96" fill="none" stroke-linecap="round" />
      <ellipse cx="-20" cy="118.83" rx="23.77" ry="45.37" fill="#536d57" fill-opacity="0.75" transform="rotate(-24)" />
      <ellipse cx="28" cy="146.92" rx="21.61" ry="41.05" fill="#536d57" fill-opacity="0.66" transform="rotate(20)" />
      <g transform="translate(0 0)">
        <ellipse cx="30.25" cy="0.00" rx="19.45" ry="30.25" fill="#b58d76" fill-opacity="0.95" /><ellipse cx="21.39" cy="21.39" rx="19.45" ry="30.25" fill="#b58d76" fill-opacity="0.95" /><ellipse cx="0.00" cy="30.25" rx="19.45" ry="30.25" fill="#b58d76" fill-opacity="0.95" /><ellipse cx="-21.39" cy="21.39" rx="19.45" ry="30.25" fill="#b58d76" fill-opacity="0.95" /><ellipse cx="-30.25" cy="0.00" rx="19.45" ry="30.25" fill="#b58d76" fill-opacity="0.95" /><ellipse cx="-21.39" cy="-21.39" rx="19.45" ry="30.25" fill="#b58d76" fill-opacity="0.95" /><ellipse cx="-0.00" cy="-30.25" rx="19.45" ry="30.25" fill="#b58d76" fill-opacity="0.95" /><ellipse cx="21.39" cy="-21.39" rx="19.45" ry="30.25" fill="#b58d76" fill-opacity="0.95" />
        <circle cx="0" cy="0" r="19.45" fill="#8d6959" />
        <circle cx="0" cy="0" r="9.72" fill="#fff7f0" fill-opacity="0.72" />
      </g>
    </g>
    
    <g transform="translate(567.32 363.57) rotate(-7.09)">
      <path d="M 0 0 C -8 78.95, 10 131.58, -6 192.99" stroke="#6f8b70" stroke-width="10.53" fill="none" stroke-linecap="round" />
      <ellipse cx="-20" cy="96.49" rx="19.30" ry="36.84" fill="#6f8b70" fill-opacity="0.75" transform="rotate(-24)" />
      <ellipse cx="28" cy="119.30" rx="17.54" ry="33.33" fill="#6f8b70" fill-opacity="0.66" transform="rotate(20)" />
      <g transform="translate(0 0)">
        <ellipse cx="24.56" cy="0.00" rx="15.79" ry="24.56" fill="#f1dccf" fill-opacity="0.95" /><ellipse cx="17.37" cy="17.37" rx="15.79" ry="24.56" fill="#f1dccf" fill-opacity="0.95" /><ellipse cx="0.00" cy="24.56" rx="15.79" ry="24.56" fill="#f1dccf" fill-opacity="0.95" /><ellipse cx="-17.37" cy="17.37" rx="15.79" ry="24.56" fill="#f1dccf" fill-opacity="0.95" /><ellipse cx="-24.56" cy="0.00" rx="15.79" ry="24.56" fill="#f1dccf" fill-opacity="0.95" /><ellipse cx="-17.37" cy="-17.37" rx="15.79" ry="24.56" fill="#f1dccf" fill-opacity="0.95" /><ellipse cx="-0.00" cy="-24.56" rx="15.79" ry="24.56" fill="#f1dccf" fill-opacity="0.95" /><ellipse cx="17.37" cy="-17.37" rx="15.79" ry="24.56" fill="#f1dccf" fill-opacity="0.95" />
        <circle cx="0" cy="0" r="15.79" fill="#8d6959" />
        <circle cx="0" cy="0" r="7.89" fill="#fff7f0" fill-opacity="0.72" />
      </g>
    </g>
    
  </g>
  <path d="M0 980 C220 920, 420 1030, 900 930 L900 1100 L0 1100 Z" fill="#ffffff" fill-opacity="0.22" />
</svg>
