<svg xmlns="http://www.w3.org/2000/svg" width="900" height="1100" viewBox="0 0 900 1100">
  <defs>
    <linearGradient id="bg" x1="0" y1="0" x2="0" y2="1">
      <stop offset="0%" stop-color="#f3f0ea" />
      <stop offset="100%" stop-color="#e8ece7" />
    </linearGradient>
    <filter id="shadow" x="-20%" y="-20%" width="140%" height="140%">
      <feDropShadow dx="0" dy="22" stdDeviation="24" flood-color="#6c5d4f" flood-opacity="0.12" />
    </filter>
  </defs>
  <rect width="100%" height="100%" fill="url(#bg)" />
  <circle cx="730" cy="180" r="140" fill="#ffffff" fill-opacity="0.18" />
  <circle cx="150" cy="260" r="90" fill="#ffffff" fill-opacity="0.12" />
  
      <rect x="70" y="72" width="300" height="92" rx="24" fill="#ffffff" fill-opacity="0.34" />
      <text x="98" y="120" fill="#2f3a31" font-size="32" font-family="'PingFang SC','Microsoft YaHei',sans-serif" font-weight="600">餐桌回廊</text>
      <text x="98" y="152" fill="#4e6152" font-size="18" font-family="'PingFang SC','Microsoft YaHei',sans-serif">沙龙 · 会场</text>
    
  <g filter="url(#shadow)">
    <ellipse cx="450" cy="955" rx="280" ry="90" fill="#d9cec2" fill-opacity="0.55" /><rect x="220" y="820" width="460" height="170" rx="18" fill="#f2ece5" fill-opacity="0.65" />
  </g>
  <g>
    
    <g transform="translate(207.16 454.10) rotate(11.74)">
      <path d="M 0 0 C -8 82.51, 10 137.52, -6 201.70" stroke="#536d57" stroke-width="11.00" fill="none" stroke-linecap="round" />
      <ellipse cx="-20" cy="100.85" rx="20.17" ry="38.51" fill="#536d57" fill-opacity="0.75" transform="rotate(-24)" />
      <ellipse cx="28" cy="124.69" rx="18.34" ry="34.84" fill="#536d57" fill-opacity="0.66" transform="rotate(20)" />
      <g transform="translate(0 0)">
        <ellipse cx="25.67" cy="0.00" rx="16.50" ry="25.67" fill="#f7ede0" fill-opacity="0.95" /><ellipse cx="18.15" cy="18.15" rx="16.50" ry="25.67" fill="#f7ede0" fill-opacity="0.95" /><ellipse cx="0.00" cy="25.67" rx="16.50" ry="25.67" fill="#f7ede0" fill-opacity="0.95" /><ellipse cx="-18.15" cy="18.15" rx="16.50" ry="25.67" fill="#f7ede0" fill-opacity="0.95" /><ellipse cx="-25.67" cy="0.00" rx="16.50" ry="25.67" fill="#f7ede0" fill-opacity="0.95" /><ellipse cx="-18.15" cy="-18.15" rx="16.50" ry="25.67" fill="#f7ede0" fill-opacity="0.95" /><ellipse cx="-0.00" cy="-25.67" rx="16.50" ry="25.67" fill="#f7ede0" fill-opacity="0.95" /><ellipse cx="18.15" cy="-18.15" rx="16.50" ry="25.67" fill="#f7ede0" fill-opacity="0.95" />
        <circle cx="0" cy="0" r="16.50" fill="#8d6959" />
        <circle cx="0" cy="0" r="8.25" fill="#fff7f0" fill-opacity="0.72" />
      </g>
    </g>
    
    <g transform="translate(416.54 348.89) rotate(12.68)">
      <path d="M 0 0 C -8 103.85, 10 173.09, -6 253.86" stroke="#6f8b70" stroke-width="13.85" fill="none" stroke-linecap="round" />
      <ellipse cx="-20" cy="126.93" rx="25.39" ry="48.46" fill="#6f8b70" fill-opacity="0.75" transform="rotate(-24)" />
      <ellipse cx="28" cy="156.93" rx="23.08" ry="43.85" fill="#6f8b70" fill-opacity="0.66" transform="rotate(20)" />
      <g transform="translate(0 0)">
        <ellipse cx="32.31" cy="0.00" rx="20.77" ry="32.31" fill="#d7cabf" fill-opacity="0.95" /><ellipse cx="22.85" cy="22.85" rx="20.77" ry="32.31" fill="#d7cabf" fill-opacity="0.95" /><ellipse cx="0.00" cy="32.31" rx="20.77" ry="32.31" fill="#d7cabf" fill-opacity="0.95" /><ellipse cx="-22.85" cy="22.85" rx="20.77" ry="32.31" fill="#d7cabf" fill-opacity="0.95" /><ellipse cx="-32.31" cy="0.00" rx="20.77" ry="32.31" fill="#d7cabf" fill-opacity="0.95" /><ellipse cx="-22.85" cy="-22.85" rx="20.77" ry="32.31" fill="#d7cabf" fill-opacity="0.95" /><ellipse cx="-0.00" cy="-32.31" rx="20.77" ry="32.31" fill="#d7cabf" fill-opacity="0.95" /><ellipse cx="22.85" cy="-22.85" rx="20.77" ry="32.31" fill="#d7cabf" fill-opacity="0.95" />
        <circle cx="0" cy="0" r="20.77" fill="#8d6959" />
        <circle cx="0" cy="0" r="10.39" fill="#fff7f0" fill-opacity="0.72" />
      </g>
    </g>
    
    <g transform="translate(647.63 347.46) rotate(15.80)">
      <path d="M 0 0 C -8 89.58, 10 149.30, -6 218.97" stroke="#8ba08a" stroke-width="11.94" fill="none" stroke-linecap="round" />
      <ellipse cx="-20" cy="109.48" rx="21.90" ry="41.80" fill="#8ba08a" fill-opacity="0.75" transform="rotate(-24)" />
      <ellipse cx="28" cy="135.36" rx="19.91" ry="37.82" fill="#8ba08a" fill-opacity="0.66" transform="rotate(20)" />
      <g transform="translate(0 0)">
        <ellipse cx="27.87" cy="0.00" rx="17.92" ry="27.87" fill="#b58d76" fill-opacity="0.95" /><ellipse cx="19.71" cy="19.71" rx="17.92" ry="27.87" fill="#b58d76" fill-opacity="0.95" /><ellipse cx="0.00" cy="27.87" rx="17.92" ry="27.87" fill="#b58d76" fill-opacity="0.95" /><ellipse cx="-19.71" cy="19.71" rx="17.92" ry="27.87" fill="#b58d76" fill-opacity="0.95" /><ellipse cx="-27.87" cy="0.00" rx="17.92" ry="27.87" fill="#b58d76" fill-opacity="0.95" /><ellipse cx="-19.71" cy="-19.71" rx="17.92" ry="27.87" fill="#b58d76" fill-opacity="0.95" /><ellipse cx="-0.00" cy="-27.87" rx="17.92" ry="27.87" fill="#b58d76" fill-opacity="0.95" /><ellipse cx="19.71" cy="-19.71" rx="17.92" ry="27.87" fill="#b58d76" fill-opacity="0.95" />
        <circle cx="0" cy="0" r="17.92" fill="#8d6959" />
        <circle cx="0" cy="0" r="8.96" fill="#fff7f0" fill-opacity="0.72" />
      </g>
    </g>
    
    <g transform="translate(313.47 556.38) rotate(25.19)">
      <path d="M 0 0 C -8 83.56, 10 139.27, -6 204.26" stroke="#536d57" stroke-width="11.14" fill="none" stroke-linecap="round" />
      <ellipse cx="-20" cy="102.13" rx="20.43" ry="38.99" fill="#536d57" fill-opacity="0.75" transform="rotate(-24)" />
      <ellipse cx="28" cy="126.27" rx="18.57" ry="35.28" fill="#536d57" fill-opacity="0.66" transform="rotate(20)" />
      <g transform="translate(0 0)">
        <ellipse cx="26.00" cy="0.00" rx="16.71" ry="26.00" fill="#f1dccf" fill-opacity="0.95" /><ellipse cx="18.38" cy="18.38" rx="16.71" ry="26.00" fill="#f1dccf" fill-opacity="0.95" /><ellipse cx="0.00" cy="26.00" rx="16.71" ry="26.00" fill="#f1dccf" fill-opacity="0.95" /><ellipse cx="-18.38" cy="18.38" rx="16.71" ry="26.00" fill="#f1dccf" fill-opacity="0.95" /><ellipse cx="-26.00" cy="0.00" rx="16.71" ry="26.00" fill="#f1dccf" fill-opacity="0.95" /><ellipse cx="-18.38" cy="-18.38" rx="16.71" ry="26.00" fill="#f1dccf" fill-opacity="0.95" /><ellipse cx="-0.00" cy="-26.00" rx="16.71" ry="26.00" fill="#f1dccf" fill-opacity="0.95" /><ellipse cx="18.38" cy="-18.38" rx="16.71" ry="26.00" fill="#f1dccf" fill-opacity="0.95" />
        <circle cx="0" cy="0" r="16.71" fill="#8d6959" />
        <circle cx="0" cy="0" r="8.36" fill="#fff7f0" fill-opacity="0.72" />
      </g>
    </g>
    
    <g transform="translate(687.29 329.68) rotate(6.19)">
      <path d="M 0 0 C -8 76.37, 10 127.28, -6 186.68" stroke="#6f8b70" stroke-width="10.18" fill="none" stroke-linecap="round" />
      <ellipse cx="-20" cy="93.34" rx="18.67" ry="35.64" fill="#6f8b70" fill-opacity="0.75" transform="rotate(-24)" />
      <ellipse cx="28" cy="115.40" rx="16.97" ry="32.25" fill="#6f8b70" fill-opacity="0.66" transform="rotate(20)" />
      <g transform="translate(0 0)">
        <ellipse cx="23.76" cy="0.00" rx="15.27" ry="23.76" fill="#f7ede0" fill-opacity="0.95" /><ellipse cx="16.80" cy="16.80" rx="15.27" ry="23.76" fill="#f7ede0" fill-opacity="0.95" /><ellipse cx="0.00" cy="23.76" rx="15.27" ry="23.76" fill="#f7ede0" fill-opacity="0.95" /><ellipse cx="-16.80" cy="16.80" rx="15.27" ry="23.76" fill="#f7ede0" fill-opacity="0.95" /><ellipse cx="-23.76" cy="0.00" rx="15.27" ry="23.76" fill="#f7ede0" fill-opacity="0.95" /><ellipse cx="-16.80" cy="-16.80" rx="15.27" ry="23.76" fill="#f7ede0" fill-opacity="0.95" /><ellipse cx="-0.00" cy="-23.76" rx="15.27" ry="23.76" fill="#f7ede0" fill-opacity="0.95" /><ellipse cx="16.80" cy="-16.80" rx="15.27" ry="23.76" fill="#f7ede0" fill-opacity="0.95" />
        <circle cx="0" cy="0" r="15.27" fill="#8d6959" />
        <circle cx="0" cy="0" r="7.64" fill="#fff7f0" fill-opacity="0.72" />
      </g>
    </g>
    
    <g transform="translate(301.75 513.81) rotate(16.08)">
      <path d="M 0 0 C -8 111.93, 10 186.55, -6 273.61" stroke="#8ba08a" stroke-width="14.92" fill="none" stroke-linecap="round" />
      <ellipse cx="-20" cy="136.80" rx="27.36" ry="52.23" fill="#8ba08a" fill-opacity="0.75" transform="rotate(-24)" />
      <ellipse cx="28" cy="169.14" rx="24.87" ry="47.26" fill="#8ba08a" fill-opacity="0.66" transform="rotate(20)" />
      <g transform="translate(0 0)">
        <ellipse cx="34.82" cy="0.00" rx="22.39" ry="34.82" fill="#d7cabf" fill-opacity="0.95" /><ellipse cx="24.62" cy="24.62" rx="22.39" ry="34.82" fill="#d7cabf" fill-opacity="0.95" /><ellipse cx="0.00" cy="34.82" rx="22.39" ry="34.82" fill="#d7cabf" fill-opacity="0.95" /><ellipse cx="-24.62" cy="24.62" rx="22.39" ry="34.82" fill="#d7cabf" fill-opacity="0.95" /><ellipse cx="-34.82" cy="0.00" rx="22.39" ry="34.82" fill="#d7cabf" fill-opacity="0.95" /><ellipse cx="-24.62" cy="-24.62" rx="22.39" ry="34.82" fill="#d7cabf" fill-opacity="0.95" /><ellipse cx="-0.00" cy="-34.82" rx="22.39" ry="34.82" fill="#d7cabf" fill-opacity="0.95" /><ellipse cx="24.62" cy="-24.62" rx="22.39" ry="34.82" fill="#d7cabf" fill-opacity="0.95" />
        <circle cx="0" cy="0" r="22.39" fill="#8d6959" />
        <circle cx="0" cy="0" r="11.19" fill="#fff7f0" fill-opacity="0.72" />
      </g>
    </g>
    
    <g transform="translate(706.40 494.68) rotate(-24.53)">
      <path d="M 0 0 C -8 75.95, 10 126.58, -6 185.65" stroke="#536d57" stroke-width="10.13" fill="none" stroke-linecap="round" />
      <ellipse cx="-20" cy="92.82" rx="18.56" ry="35.44" fill="#536d57" fill-opacity="0.75" transform="rotate(-24)" />
      <ellipse cx="28" cy="114.77" rx="16.88" ry="32.07" fill="#536d57" fill-opacity="0.66" transform="rotate(20)" />
      <g transform="translate(0 0)">
        <ellipse cx="23.63" cy="0.00" rx="15.19" ry="23.63" fill="#b58d76" fill-opacity="0.95" /><ellipse cx="16.71" cy="16.71" rx="15.19" ry="23.63" fill="#b58d76" fill-opacity="0.95" /><ellipse cx="0.00" cy="23.63" rx="15.19" ry="23.63" fill="#b58d76" fill-opacity="0.95" /><ellipse cx="-16.71" cy="16.71" rx="15.19" ry="23.63" fill="#b58d76" fill-opacity="0.95" /><ellipse cx="-23.63" cy="0.00" rx="15.19" ry="23.63" fill="#b58d76" fill-opacity="0.95" /><ellipse cx="-16.71" cy="-16.71" rx="15.19" ry="23.63" fill="#b58d76" fill-opacity="0.95" /><ellipse cx="-0.00" cy="-23.63" rx="15.19" ry="23.63" fill="#b58d76" fill-opacity="0.95" /><ellipse cx="16.71" cy="-16.71" rx="15.19" ry="23.63" fill="#b58d76" fill-opacity="0.95" />
        <circle cx="0" cy="0" r="15.19" fill="#8d6959" />
        <circle cx="0" cy="0" r="7.59" fill="#fff7f0" fill-opacity="0.72" />
      </g>
    </g>
    
  </g>
  <path d="M0 980 C220 920, 420 1030, 900 930 L900 1100 L0 1100 Z" fill="#ffffff" fill-opacity="0.22" />
</svg>
