<svg xmlns="http://www.w3.org/2000/svg" width="900" height="1100" viewBox="0 0 900 1100">
  <defs>
    <linearGradient id="bg" x1="0" y1="0" x2="0" y2="1">
      <stop offset="0%" stop-color="#fff5f1" />
      <stop offset="100%" stop-color="#f7efe4" />
    </linearGradient>
    <filter id="shadow" x="-20%" y="-20%" width="140%" height="140%">
      <feDropShadow dx="0" dy="22" stdDeviation="24" flood-color="#6c5d4f" flood-opacity="0.12" />
    </filter>
  </defs>
  <rect width="100%" height="100%" fill="url(#bg)" />
  <circle cx="730" cy="180" r="140" fill="#ffffff" fill-opacity="0.18" />
  <circle cx="150" cy="260" r="90" fill="#ffffff" fill-opacity="0.12" />
  
      <rect x="70" y="72" width="300" height="92" rx="24" fill="#ffffff" fill-opacity="0.34" />
      <text x="98" y="120" fill="#2f3a31" font-size="32" font-family="'PingFang SC','Microsoft YaHei',sans-serif" font-weight="600">粉雾来信</text>
      <text x="98" y="152" fill="#4e6152" font-size="18" font-family="'PingFang SC','Microsoft YaHei',sans-serif">探望 · 粉白系</text>
    
  <g filter="url(#shadow)">
    <path d="M250 780 L650 780 L730 1080 L170 1080 Z" fill="#ece2d6" fill-opacity="0.88" />
  </g>
  <g>
    
    <g transform="translate(333.32 354.00) rotate(23.18)">
      <path d="M 0 0 C -8 114.10, 10 190.17, -6 278.91" stroke="#93aa86" stroke-width="15.21" fill="none" stroke-linecap="round" />
      <ellipse cx="-20" cy="139.46" rx="27.89" ry="53.25" fill="#93aa86" fill-opacity="0.75" transform="rotate(-24)" />
      <ellipse cx="28" cy="172.42" rx="25.36" ry="48.18" fill="#93aa86" fill-opacity="0.66" transform="rotate(20)" />
      <g transform="translate(0 0)">
        <ellipse cx="35.50" cy="0.00" rx="22.82" ry="35.50" fill="#f7d7d8" fill-opacity="0.95" /><ellipse cx="25.10" cy="25.10" rx="22.82" ry="35.50" fill="#f7d7d8" fill-opacity="0.95" /><ellipse cx="0.00" cy="35.50" rx="22.82" ry="35.50" fill="#f7d7d8" fill-opacity="0.95" /><ellipse cx="-25.10" cy="25.10" rx="22.82" ry="35.50" fill="#f7d7d8" fill-opacity="0.95" /><ellipse cx="-35.50" cy="0.00" rx="22.82" ry="35.50" fill="#f7d7d8" fill-opacity="0.95" /><ellipse cx="-25.10" cy="-25.10" rx="22.82" ry="35.50" fill="#f7d7d8" fill-opacity="0.95" /><ellipse cx="-0.00" cy="-35.50" rx="22.82" ry="35.50" fill="#f7d7d8" fill-opacity="0.95" /><ellipse cx="25.10" cy="-25.10" rx="22.82" ry="35.50" fill="#f7d7d8" fill-opacity="0.95" />
        <circle cx="0" cy="0" r="22.82" fill="#f0b8a4" />
        <circle cx="0" cy="0" r="11.41" fill="#fff7f0" fill-opacity="0.72" />
      </g>
    </g>
    
    <g transform="translate(299.37 293.10) rotate(11.55)">
      <path d="M 0 0 C -8 110.12, 10 183.54, -6 269.19" stroke="#7c9573" stroke-width="14.68" fill="none" stroke-linecap="round" />
      <ellipse cx="-20" cy="134.59" rx="26.92" ry="51.39" fill="#7c9573" fill-opacity="0.75" transform="rotate(-24)" />
      <ellipse cx="28" cy="166.41" rx="24.47" ry="46.50" fill="#7c9573" fill-opacity="0.66" transform="rotate(20)" />
      <g transform="translate(0 0)">
        <ellipse cx="34.26" cy="0.00" rx="22.02" ry="34.26" fill="#f4e4ca" fill-opacity="0.95" /><ellipse cx="24.23" cy="24.23" rx="22.02" ry="34.26" fill="#f4e4ca" fill-opacity="0.95" /><ellipse cx="0.00" cy="34.26" rx="22.02" ry="34.26" fill="#f4e4ca" fill-opacity="0.95" /><ellipse cx="-24.23" cy="24.23" rx="22.02" ry="34.26" fill="#f4e4ca" fill-opacity="0.95" /><ellipse cx="-34.26" cy="0.00" rx="22.02" ry="34.26" fill="#f4e4ca" fill-opacity="0.95" /><ellipse cx="-24.23" cy="-24.23" rx="22.02" ry="34.26" fill="#f4e4ca" fill-opacity="0.95" /><ellipse cx="-0.00" cy="-34.26" rx="22.02" ry="34.26" fill="#f4e4ca" fill-opacity="0.95" /><ellipse cx="24.23" cy="-24.23" rx="22.02" ry="34.26" fill="#f4e4ca" fill-opacity="0.95" />
        <circle cx="0" cy="0" r="22.02" fill="#f0b8a4" />
        <circle cx="0" cy="0" r="11.01" fill="#fff7f0" fill-opacity="0.72" />
      </g>
    </g>
    
    <g transform="translate(519.88 501.04) rotate(-25.86)">
      <path d="M 0 0 C -8 100.66, 10 167.76, -6 246.05" stroke="#aebc9f" stroke-width="13.42" fill="none" stroke-linecap="round" />
      <ellipse cx="-20" cy="123.02" rx="24.60" ry="46.97" fill="#aebc9f" fill-opacity="0.75" transform="rotate(-24)" />
      <ellipse cx="28" cy="152.10" rx="22.37" ry="42.50" fill="#aebc9f" fill-opacity="0.66" transform="rotate(20)" />
      <g transform="translate(0 0)">
        <ellipse cx="31.32" cy="0.00" rx="20.13" ry="31.32" fill="#f7efe8" fill-opacity="0.95" /><ellipse cx="22.14" cy="22.14" rx="20.13" ry="31.32" fill="#f7efe8" fill-opacity="0.95" /><ellipse cx="0.00" cy="31.32" rx="20.13" ry="31.32" fill="#f7efe8" fill-opacity="0.95" /><ellipse cx="-22.14" cy="22.14" rx="20.13" ry="31.32" fill="#f7efe8" fill-opacity="0.95" /><ellipse cx="-31.32" cy="0.00" rx="20.13" ry="31.32" fill="#f7efe8" fill-opacity="0.95" /><ellipse cx="-22.14" cy="-22.14" rx="20.13" ry="31.32" fill="#f7efe8" fill-opacity="0.95" /><ellipse cx="-0.00" cy="-31.32" rx="20.13" ry="31.32" fill="#f7efe8" fill-opacity="0.95" /><ellipse cx="22.14" cy="-22.14" rx="20.13" ry="31.32" fill="#f7efe8" fill-opacity="0.95" />
        <circle cx="0" cy="0" r="20.13" fill="#f0b8a4" />
        <circle cx="0" cy="0" r="10.07" fill="#fff7f0" fill-opacity="0.72" />
      </g>
    </g>
    
    <g transform="translate(303.53 368.80) rotate(15.40)">
      <path d="M 0 0 C -8 79.28, 10 132.13, -6 193.79" stroke="#93aa86" stroke-width="10.57" fill="none" stroke-linecap="round" />
      <ellipse cx="-20" cy="96.89" rx="19.38" ry="37.00" fill="#93aa86" fill-opacity="0.75" transform="rotate(-24)" />
      <ellipse cx="28" cy="119.80" rx="17.62" ry="33.47" fill="#93aa86" fill-opacity="0.66" transform="rotate(20)" />
      <g transform="translate(0 0)">
        <ellipse cx="24.66" cy="0.00" rx="15.86" ry="24.66" fill="#efc7ce" fill-opacity="0.95" /><ellipse cx="17.44" cy="17.44" rx="15.86" ry="24.66" fill="#efc7ce" fill-opacity="0.95" /><ellipse cx="0.00" cy="24.66" rx="15.86" ry="24.66" fill="#efc7ce" fill-opacity="0.95" /><ellipse cx="-17.44" cy="17.44" rx="15.86" ry="24.66" fill="#efc7ce" fill-opacity="0.95" /><ellipse cx="-24.66" cy="0.00" rx="15.86" ry="24.66" fill="#efc7ce" fill-opacity="0.95" /><ellipse cx="-17.44" cy="-17.44" rx="15.86" ry="24.66" fill="#efc7ce" fill-opacity="0.95" /><ellipse cx="-0.00" cy="-24.66" rx="15.86" ry="24.66" fill="#efc7ce" fill-opacity="0.95" /><ellipse cx="17.44" cy="-17.44" rx="15.86" ry="24.66" fill="#efc7ce" fill-opacity="0.95" />
        <circle cx="0" cy="0" r="15.86" fill="#f0b8a4" />
        <circle cx="0" cy="0" r="7.93" fill="#fff7f0" fill-opacity="0.72" />
      </g>
    </g>
    
    <g transform="translate(340.30 551.09) rotate(-12.92)">
      <path d="M 0 0 C -8 110.82, 10 184.70, -6 270.89" stroke="#7c9573" stroke-width="14.78" fill="none" stroke-linecap="round" />
      <ellipse cx="-20" cy="135.45" rx="27.09" ry="51.72" fill="#7c9573" fill-opacity="0.75" transform="rotate(-24)" />
      <ellipse cx="28" cy="167.46" rx="24.63" ry="46.79" fill="#7c9573" fill-opacity="0.66" transform="rotate(20)" />
      <g transform="translate(0 0)">
        <ellipse cx="34.48" cy="0.00" rx="22.16" ry="34.48" fill="#f7d7d8" fill-opacity="0.95" /><ellipse cx="24.38" cy="24.38" rx="22.16" ry="34.48" fill="#f7d7d8" fill-opacity="0.95" /><ellipse cx="0.00" cy="34.48" rx="22.16" ry="34.48" fill="#f7d7d8" fill-opacity="0.95" /><ellipse cx="-24.38" cy="24.38" rx="22.16" ry="34.48" fill="#f7d7d8" fill-opacity="0.95" /><ellipse cx="-34.48" cy="0.00" rx="22.16" ry="34.48" fill="#f7d7d8" fill-opacity="0.95" /><ellipse cx="-24.38" cy="-24.38" rx="22.16" ry="34.48" fill="#f7d7d8" fill-opacity="0.95" /><ellipse cx="-0.00" cy="-34.48" rx="22.16" ry="34.48" fill="#f7d7d8" fill-opacity="0.95" /><ellipse cx="24.38" cy="-24.38" rx="22.16" ry="34.48" fill="#f7d7d8" fill-opacity="0.95" />
        <circle cx="0" cy="0" r="22.16" fill="#f0b8a4" />
        <circle cx="0" cy="0" r="11.08" fill="#fff7f0" fill-opacity="0.72" />
      </g>
    </g>
    
    <g transform="translate(481.99 533.64) rotate(-22.55)">
      <path d="M 0 0 C -8 101.79, 10 169.65, -6 248.82" stroke="#aebc9f" stroke-width="13.57" fill="none" stroke-linecap="round" />
      <ellipse cx="-20" cy="124.41" rx="24.88" ry="47.50" fill="#aebc9f" fill-opacity="0.75" transform="rotate(-24)" />
      <ellipse cx="28" cy="153.82" rx="22.62" ry="42.98" fill="#aebc9f" fill-opacity="0.66" transform="rotate(20)" />
      <g transform="translate(0 0)">
        <ellipse cx="31.67" cy="0.00" rx="20.36" ry="31.67" fill="#f4e4ca" fill-opacity="0.95" /><ellipse cx="22.39" cy="22.39" rx="20.36" ry="31.67" fill="#f4e4ca" fill-opacity="0.95" /><ellipse cx="0.00" cy="31.67" rx="20.36" ry="31.67" fill="#f4e4ca" fill-opacity="0.95" /><ellipse cx="-22.39" cy="22.39" rx="20.36" ry="31.67" fill="#f4e4ca" fill-opacity="0.95" /><ellipse cx="-31.67" cy="0.00" rx="20.36" ry="31.67" fill="#f4e4ca" fill-opacity="0.95" /><ellipse cx="-22.39" cy="-22.39" rx="20.36" ry="31.67" fill="#f4e4ca" fill-opacity="0.95" /><ellipse cx="-0.00" cy="-31.67" rx="20.36" ry="31.67" fill="#f4e4ca" fill-opacity="0.95" /><ellipse cx="22.39" cy="-22.39" rx="20.36" ry="31.67" fill="#f4e4ca" fill-opacity="0.95" />
        <circle cx="0" cy="0" r="20.36" fill="#f0b8a4" />
        <circle cx="0" cy="0" r="10.18" fill="#fff7f0" fill-opacity="0.72" />
      </g>
    </g>
    
  </g>
  <path d="M0 980 C220 920, 420 1030, 900 930 L900 1100 L0 1100 Z" fill="#ffffff" fill-opacity="0.22" />
</svg>
