<svg xmlns="http://www.w3.org/2000/svg" width="900" height="1100" viewBox="0 0 900 1100">
  <defs>
    <linearGradient id="bg" x1="0" y1="0" x2="0" y2="1">
      <stop offset="0%" stop-color="#fff5f1" />
      <stop offset="100%" stop-color="#f7efe4" />
    </linearGradient>
    <filter id="shadow" x="-20%" y="-20%" width="140%" height="140%">
      <feDropShadow dx="0" dy="22" stdDeviation="24" flood-color="#6c5d4f" flood-opacity="0.12" />
    </filter>
  </defs>
  <rect width="100%" height="100%" fill="url(#bg)" />
  <circle cx="730" cy="180" r="140" fill="#ffffff" fill-opacity="0.18" />
  <circle cx="150" cy="260" r="90" fill="#ffffff" fill-opacity="0.12" />
  
      <rect x="70" y="72" width="300" height="92" rx="24" fill="#ffffff" fill-opacity="0.34" />
      <text x="98" y="120" fill="#2f3a31" font-size="32" font-family="'PingFang SC','Microsoft YaHei',sans-serif" font-weight="600">暖风留声</text>
      <text x="98" y="152" fill="#4e6152" font-size="18" font-family="'PingFang SC','Microsoft YaHei',sans-serif">送礼 · 日常花礼</text>
    
  <g filter="url(#shadow)">
    <path d="M250 780 L650 780 L730 1080 L170 1080 Z" fill="#ece2d6" fill-opacity="0.88" />
  </g>
  <g>
    
    <g transform="translate(601.08 319.87) rotate(-7.14)">
      <path d="M 0 0 C -8 79.55, 10 132.59, -6 194.46" stroke="#93aa86" stroke-width="10.61" fill="none" stroke-linecap="round" />
      <ellipse cx="-20" cy="97.23" rx="19.45" ry="37.12" fill="#93aa86" fill-opacity="0.75" transform="rotate(-24)" />
      <ellipse cx="28" cy="120.21" rx="17.68" ry="33.59" fill="#93aa86" fill-opacity="0.66" transform="rotate(20)" />
      <g transform="translate(0 0)">
        <ellipse cx="24.75" cy="0.00" rx="15.91" ry="24.75" fill="#f7d7d8" fill-opacity="0.95" /><ellipse cx="17.50" cy="17.50" rx="15.91" ry="24.75" fill="#f7d7d8" fill-opacity="0.95" /><ellipse cx="0.00" cy="24.75" rx="15.91" ry="24.75" fill="#f7d7d8" fill-opacity="0.95" /><ellipse cx="-17.50" cy="17.50" rx="15.91" ry="24.75" fill="#f7d7d8" fill-opacity="0.95" /><ellipse cx="-24.75" cy="0.00" rx="15.91" ry="24.75" fill="#f7d7d8" fill-opacity="0.95" /><ellipse cx="-17.50" cy="-17.50" rx="15.91" ry="24.75" fill="#f7d7d8" fill-opacity="0.95" /><ellipse cx="-0.00" cy="-24.75" rx="15.91" ry="24.75" fill="#f7d7d8" fill-opacity="0.95" /><ellipse cx="17.50" cy="-17.50" rx="15.91" ry="24.75" fill="#f7d7d8" fill-opacity="0.95" />
        <circle cx="0" cy="0" r="15.91" fill="#f0b8a4" />
        <circle cx="0" cy="0" r="7.96" fill="#fff7f0" fill-opacity="0.72" />
      </g>
    </g>
    
    <g transform="translate(680.40 384.31) rotate(-17.32)">
      <path d="M 0 0 C -8 71.98, 10 119.97, -6 175.96" stroke="#7c9573" stroke-width="9.60" fill="none" stroke-linecap="round" />
      <ellipse cx="-20" cy="87.98" rx="17.60" ry="33.59" fill="#7c9573" fill-opacity="0.75" transform="rotate(-24)" />
      <ellipse cx="28" cy="108.77" rx="16.00" ry="30.39" fill="#7c9573" fill-opacity="0.66" transform="rotate(20)" />
      <g transform="translate(0 0)">
        <ellipse cx="22.39" cy="0.00" rx="14.40" ry="22.39" fill="#f4e4ca" fill-opacity="0.95" /><ellipse cx="15.84" cy="15.84" rx="14.40" ry="22.39" fill="#f4e4ca" fill-opacity="0.95" /><ellipse cx="0.00" cy="22.39" rx="14.40" ry="22.39" fill="#f4e4ca" fill-opacity="0.95" /><ellipse cx="-15.84" cy="15.84" rx="14.40" ry="22.39" fill="#f4e4ca" fill-opacity="0.95" /><ellipse cx="-22.39" cy="0.00" rx="14.40" ry="22.39" fill="#f4e4ca" fill-opacity="0.95" /><ellipse cx="-15.84" cy="-15.84" rx="14.40" ry="22.39" fill="#f4e4ca" fill-opacity="0.95" /><ellipse cx="-0.00" cy="-22.39" rx="14.40" ry="22.39" fill="#f4e4ca" fill-opacity="0.95" /><ellipse cx="15.84" cy="-15.84" rx="14.40" ry="22.39" fill="#f4e4ca" fill-opacity="0.95" />
        <circle cx="0" cy="0" r="14.40" fill="#f0b8a4" />
        <circle cx="0" cy="0" r="7.20" fill="#fff7f0" fill-opacity="0.72" />
      </g>
    </g>
    
    <g transform="translate(235.19 490.03) rotate(-23.99)">
      <path d="M 0 0 C -8 81.45, 10 135.76, -6 199.11" stroke="#aebc9f" stroke-width="10.86" fill="none" stroke-linecap="round" />
      <ellipse cx="-20" cy="99.56" rx="19.91" ry="38.01" fill="#aebc9f" fill-opacity="0.75" transform="rotate(-24)" />
      <ellipse cx="28" cy="123.09" rx="18.10" ry="34.39" fill="#aebc9f" fill-opacity="0.66" transform="rotate(20)" />
      <g transform="translate(0 0)">
        <ellipse cx="25.34" cy="0.00" rx="16.29" ry="25.34" fill="#f7efe8" fill-opacity="0.95" /><ellipse cx="17.92" cy="17.92" rx="16.29" ry="25.34" fill="#f7efe8" fill-opacity="0.95" /><ellipse cx="0.00" cy="25.34" rx="16.29" ry="25.34" fill="#f7efe8" fill-opacity="0.95" /><ellipse cx="-17.92" cy="17.92" rx="16.29" ry="25.34" fill="#f7efe8" fill-opacity="0.95" /><ellipse cx="-25.34" cy="0.00" rx="16.29" ry="25.34" fill="#f7efe8" fill-opacity="0.95" /><ellipse cx="-17.92" cy="-17.92" rx="16.29" ry="25.34" fill="#f7efe8" fill-opacity="0.95" /><ellipse cx="-0.00" cy="-25.34" rx="16.29" ry="25.34" fill="#f7efe8" fill-opacity="0.95" /><ellipse cx="17.92" cy="-17.92" rx="16.29" ry="25.34" fill="#f7efe8" fill-opacity="0.95" />
        <circle cx="0" cy="0" r="16.29" fill="#f0b8a4" />
        <circle cx="0" cy="0" r="8.15" fill="#fff7f0" fill-opacity="0.72" />
      </g>
    </g>
    
    <g transform="translate(480.68 534.34) rotate(8.05)">
      <path d="M 0 0 C -8 87.01, 10 145.02, -6 212.70" stroke="#93aa86" stroke-width="11.60" fill="none" stroke-linecap="round" />
      <ellipse cx="-20" cy="106.35" rx="21.27" ry="40.61" fill="#93aa86" fill-opacity="0.75" transform="rotate(-24)" />
      <ellipse cx="28" cy="131.48" rx="19.34" ry="36.74" fill="#93aa86" fill-opacity="0.66" transform="rotate(20)" />
      <g transform="translate(0 0)">
        <ellipse cx="27.07" cy="0.00" rx="17.40" ry="27.07" fill="#efc7ce" fill-opacity="0.95" /><ellipse cx="19.14" cy="19.14" rx="17.40" ry="27.07" fill="#efc7ce" fill-opacity="0.95" /><ellipse cx="0.00" cy="27.07" rx="17.40" ry="27.07" fill="#efc7ce" fill-opacity="0.95" /><ellipse cx="-19.14" cy="19.14" rx="17.40" ry="27.07" fill="#efc7ce" fill-opacity="0.95" /><ellipse cx="-27.07" cy="0.00" rx="17.40" ry="27.07" fill="#efc7ce" fill-opacity="0.95" /><ellipse cx="-19.14" cy="-19.14" rx="17.40" ry="27.07" fill="#efc7ce" fill-opacity="0.95" /><ellipse cx="-0.00" cy="-27.07" rx="17.40" ry="27.07" fill="#efc7ce" fill-opacity="0.95" /><ellipse cx="19.14" cy="-19.14" rx="17.40" ry="27.07" fill="#efc7ce" fill-opacity="0.95" />
        <circle cx="0" cy="0" r="17.40" fill="#f0b8a4" />
        <circle cx="0" cy="0" r="8.70" fill="#fff7f0" fill-opacity="0.72" />
      </g>
    </g>
    
    <g transform="translate(352.72 477.26) rotate(18.23)">
      <path d="M 0 0 C -8 100.78, 10 167.97, -6 246.36" stroke="#7c9573" stroke-width="13.44" fill="none" stroke-linecap="round" />
      <ellipse cx="-20" cy="123.18" rx="24.64" ry="47.03" fill="#7c9573" fill-opacity="0.75" transform="rotate(-24)" />
      <ellipse cx="28" cy="152.30" rx="22.40" ry="42.55" fill="#7c9573" fill-opacity="0.66" transform="rotate(20)" />
      <g transform="translate(0 0)">
        <ellipse cx="31.35" cy="0.00" rx="20.16" ry="31.35" fill="#f7d7d8" fill-opacity="0.95" /><ellipse cx="22.17" cy="22.17" rx="20.16" ry="31.35" fill="#f7d7d8" fill-opacity="0.95" /><ellipse cx="0.00" cy="31.35" rx="20.16" ry="31.35" fill="#f7d7d8" fill-opacity="0.95" /><ellipse cx="-22.17" cy="22.17" rx="20.16" ry="31.35" fill="#f7d7d8" fill-opacity="0.95" /><ellipse cx="-31.35" cy="0.00" rx="20.16" ry="31.35" fill="#f7d7d8" fill-opacity="0.95" /><ellipse cx="-22.17" cy="-22.17" rx="20.16" ry="31.35" fill="#f7d7d8" fill-opacity="0.95" /><ellipse cx="-0.00" cy="-31.35" rx="20.16" ry="31.35" fill="#f7d7d8" fill-opacity="0.95" /><ellipse cx="22.17" cy="-22.17" rx="20.16" ry="31.35" fill="#f7d7d8" fill-opacity="0.95" />
        <circle cx="0" cy="0" r="20.16" fill="#f0b8a4" />
        <circle cx="0" cy="0" r="10.08" fill="#fff7f0" fill-opacity="0.72" />
      </g>
    </g>
    
    <g transform="translate(247.90 333.67) rotate(-17.94)">
      <path d="M 0 0 C -8 71.72, 10 119.53, -6 175.31" stroke="#aebc9f" stroke-width="9.56" fill="none" stroke-linecap="round" />
      <ellipse cx="-20" cy="87.65" rx="17.53" ry="33.47" fill="#aebc9f" fill-opacity="0.75" transform="rotate(-24)" />
      <ellipse cx="28" cy="108.37" rx="15.94" ry="30.28" fill="#aebc9f" fill-opacity="0.66" transform="rotate(20)" />
      <g transform="translate(0 0)">
        <ellipse cx="22.31" cy="0.00" rx="14.34" ry="22.31" fill="#f4e4ca" fill-opacity="0.95" /><ellipse cx="15.78" cy="15.78" rx="14.34" ry="22.31" fill="#f4e4ca" fill-opacity="0.95" /><ellipse cx="0.00" cy="22.31" rx="14.34" ry="22.31" fill="#f4e4ca" fill-opacity="0.95" /><ellipse cx="-15.78" cy="15.78" rx="14.34" ry="22.31" fill="#f4e4ca" fill-opacity="0.95" /><ellipse cx="-22.31" cy="0.00" rx="14.34" ry="22.31" fill="#f4e4ca" fill-opacity="0.95" /><ellipse cx="-15.78" cy="-15.78" rx="14.34" ry="22.31" fill="#f4e4ca" fill-opacity="0.95" /><ellipse cx="-0.00" cy="-22.31" rx="14.34" ry="22.31" fill="#f4e4ca" fill-opacity="0.95" /><ellipse cx="15.78" cy="-15.78" rx="14.34" ry="22.31" fill="#f4e4ca" fill-opacity="0.95" />
        <circle cx="0" cy="0" r="14.34" fill="#f0b8a4" />
        <circle cx="0" cy="0" r="7.17" fill="#fff7f0" fill-opacity="0.72" />
      </g>
    </g>
    
  </g>
  <path d="M0 980 C220 920, 420 1030, 900 930 L900 1100 L0 1100 Z" fill="#ffffff" fill-opacity="0.22" />
</svg>
