<svg xmlns="http://www.w3.org/2000/svg" width="900" height="1100" viewBox="0 0 900 1100">
  <defs>
    <linearGradient id="bg" x1="0" y1="0" x2="0" y2="1">
      <stop offset="0%" stop-color="#fff5f1" />
      <stop offset="100%" stop-color="#f7efe4" />
    </linearGradient>
    <filter id="shadow" x="-20%" y="-20%" width="140%" height="140%">
      <feDropShadow dx="0" dy="22" stdDeviation="24" flood-color="#6c5d4f" flood-opacity="0.12" />
    </filter>
  </defs>
  <rect width="100%" height="100%" fill="url(#bg)" />
  <circle cx="730" cy="180" r="140" fill="#ffffff" fill-opacity="0.18" />
  <circle cx="150" cy="260" r="90" fill="#ffffff" fill-opacity="0.12" />
  
      <rect x="70" y="72" width="300" height="92" rx="24" fill="#ffffff" fill-opacity="0.34" />
      <text x="98" y="120" fill="#2f3a31" font-size="32" font-family="'PingFang SC','Microsoft YaHei',sans-serif" font-weight="600">柔白陪伴</text>
      <text x="98" y="152" fill="#4e6152" font-size="18" font-family="'PingFang SC','Microsoft YaHei',sans-serif">送礼 · 日常花礼</text>
    
  <g filter="url(#shadow)">
    <path d="M250 780 L650 780 L730 1080 L170 1080 Z" fill="#ece2d6" fill-opacity="0.88" />
  </g>
  <g>
    
    <g transform="translate(199.62 334.10) rotate(20.05)">
      <path d="M 0 0 C -8 71.28, 10 118.79, -6 174.23" stroke="#93aa86" stroke-width="9.50" fill="none" stroke-linecap="round" />
      <ellipse cx="-20" cy="87.12" rx="17.42" ry="33.26" fill="#93aa86" fill-opacity="0.75" transform="rotate(-24)" />
      <ellipse cx="28" cy="107.71" rx="15.84" ry="30.09" fill="#93aa86" fill-opacity="0.66" transform="rotate(20)" />
      <g transform="translate(0 0)">
        <ellipse cx="22.17" cy="0.00" rx="14.26" ry="22.17" fill="#f7d7d8" fill-opacity="0.95" /><ellipse cx="15.68" cy="15.68" rx="14.26" ry="22.17" fill="#f7d7d8" fill-opacity="0.95" /><ellipse cx="0.00" cy="22.17" rx="14.26" ry="22.17" fill="#f7d7d8" fill-opacity="0.95" /><ellipse cx="-15.68" cy="15.68" rx="14.26" ry="22.17" fill="#f7d7d8" fill-opacity="0.95" /><ellipse cx="-22.17" cy="0.00" rx="14.26" ry="22.17" fill="#f7d7d8" fill-opacity="0.95" /><ellipse cx="-15.68" cy="-15.68" rx="14.26" ry="22.17" fill="#f7d7d8" fill-opacity="0.95" /><ellipse cx="-0.00" cy="-22.17" rx="14.26" ry="22.17" fill="#f7d7d8" fill-opacity="0.95" /><ellipse cx="15.68" cy="-15.68" rx="14.26" ry="22.17" fill="#f7d7d8" fill-opacity="0.95" />
        <circle cx="0" cy="0" r="14.26" fill="#f0b8a4" />
        <circle cx="0" cy="0" r="7.13" fill="#fff7f0" fill-opacity="0.72" />
      </g>
    </g>
    
    <g transform="translate(444.74 460.76) rotate(-10.10)">
      <path d="M 0 0 C -8 90.93, 10 151.55, -6 222.27" stroke="#7c9573" stroke-width="12.12" fill="none" stroke-linecap="round" />
      <ellipse cx="-20" cy="111.13" rx="22.23" ry="42.43" fill="#7c9573" fill-opacity="0.75" transform="rotate(-24)" />
      <ellipse cx="28" cy="137.40" rx="20.21" ry="38.39" fill="#7c9573" fill-opacity="0.66" transform="rotate(20)" />
      <g transform="translate(0 0)">
        <ellipse cx="28.29" cy="0.00" rx="18.19" ry="28.29" fill="#f4e4ca" fill-opacity="0.95" /><ellipse cx="20.00" cy="20.00" rx="18.19" ry="28.29" fill="#f4e4ca" fill-opacity="0.95" /><ellipse cx="0.00" cy="28.29" rx="18.19" ry="28.29" fill="#f4e4ca" fill-opacity="0.95" /><ellipse cx="-20.00" cy="20.00" rx="18.19" ry="28.29" fill="#f4e4ca" fill-opacity="0.95" /><ellipse cx="-28.29" cy="0.00" rx="18.19" ry="28.29" fill="#f4e4ca" fill-opacity="0.95" /><ellipse cx="-20.00" cy="-20.00" rx="18.19" ry="28.29" fill="#f4e4ca" fill-opacity="0.95" /><ellipse cx="-0.00" cy="-28.29" rx="18.19" ry="28.29" fill="#f4e4ca" fill-opacity="0.95" /><ellipse cx="20.00" cy="-20.00" rx="18.19" ry="28.29" fill="#f4e4ca" fill-opacity="0.95" />
        <circle cx="0" cy="0" r="18.19" fill="#f0b8a4" />
        <circle cx="0" cy="0" r="9.09" fill="#fff7f0" fill-opacity="0.72" />
      </g>
    </g>
    
    <g transform="translate(454.77 321.95) rotate(-2.07)">
      <path d="M 0 0 C -8 100.37, 10 167.29, -6 245.35" stroke="#aebc9f" stroke-width="13.38" fill="none" stroke-linecap="round" />
      <ellipse cx="-20" cy="122.68" rx="24.54" ry="46.84" fill="#aebc9f" fill-opacity="0.75" transform="rotate(-24)" />
      <ellipse cx="28" cy="151.67" rx="22.30" ry="42.38" fill="#aebc9f" fill-opacity="0.66" transform="rotate(20)" />
      <g transform="translate(0 0)">
        <ellipse cx="31.23" cy="0.00" rx="20.07" ry="31.23" fill="#f7efe8" fill-opacity="0.95" /><ellipse cx="22.08" cy="22.08" rx="20.07" ry="31.23" fill="#f7efe8" fill-opacity="0.95" /><ellipse cx="0.00" cy="31.23" rx="20.07" ry="31.23" fill="#f7efe8" fill-opacity="0.95" /><ellipse cx="-22.08" cy="22.08" rx="20.07" ry="31.23" fill="#f7efe8" fill-opacity="0.95" /><ellipse cx="-31.23" cy="0.00" rx="20.07" ry="31.23" fill="#f7efe8" fill-opacity="0.95" /><ellipse cx="-22.08" cy="-22.08" rx="20.07" ry="31.23" fill="#f7efe8" fill-opacity="0.95" /><ellipse cx="-0.00" cy="-31.23" rx="20.07" ry="31.23" fill="#f7efe8" fill-opacity="0.95" /><ellipse cx="22.08" cy="-22.08" rx="20.07" ry="31.23" fill="#f7efe8" fill-opacity="0.95" />
        <circle cx="0" cy="0" r="20.07" fill="#f0b8a4" />
        <circle cx="0" cy="0" r="10.04" fill="#fff7f0" fill-opacity="0.72" />
      </g>
    </g>
    
    <g transform="translate(474.76 556.10) rotate(12.48)">
      <path d="M 0 0 C -8 75.33, 10 125.54, -6 184.13" stroke="#93aa86" stroke-width="10.04" fill="none" stroke-linecap="round" />
      <ellipse cx="-20" cy="92.06" rx="18.41" ry="35.15" fill="#93aa86" fill-opacity="0.75" transform="rotate(-24)" />
      <ellipse cx="28" cy="113.83" rx="16.74" ry="31.80" fill="#93aa86" fill-opacity="0.66" transform="rotate(20)" />
      <g transform="translate(0 0)">
        <ellipse cx="23.43" cy="0.00" rx="15.07" ry="23.43" fill="#efc7ce" fill-opacity="0.95" /><ellipse cx="16.57" cy="16.57" rx="15.07" ry="23.43" fill="#efc7ce" fill-opacity="0.95" /><ellipse cx="0.00" cy="23.43" rx="15.07" ry="23.43" fill="#efc7ce" fill-opacity="0.95" /><ellipse cx="-16.57" cy="16.57" rx="15.07" ry="23.43" fill="#efc7ce" fill-opacity="0.95" /><ellipse cx="-23.43" cy="0.00" rx="15.07" ry="23.43" fill="#efc7ce" fill-opacity="0.95" /><ellipse cx="-16.57" cy="-16.57" rx="15.07" ry="23.43" fill="#efc7ce" fill-opacity="0.95" /><ellipse cx="-0.00" cy="-23.43" rx="15.07" ry="23.43" fill="#efc7ce" fill-opacity="0.95" /><ellipse cx="16.57" cy="-16.57" rx="15.07" ry="23.43" fill="#efc7ce" fill-opacity="0.95" />
        <circle cx="0" cy="0" r="15.07" fill="#f0b8a4" />
        <circle cx="0" cy="0" r="7.53" fill="#fff7f0" fill-opacity="0.72" />
      </g>
    </g>
    
    <g transform="translate(677.77 480.35) rotate(11.43)">
      <path d="M 0 0 C -8 91.54, 10 152.56, -6 223.75" stroke="#7c9573" stroke-width="12.20" fill="none" stroke-linecap="round" />
      <ellipse cx="-20" cy="111.88" rx="22.38" ry="42.72" fill="#7c9573" fill-opacity="0.75" transform="rotate(-24)" />
      <ellipse cx="28" cy="138.32" rx="20.34" ry="38.65" fill="#7c9573" fill-opacity="0.66" transform="rotate(20)" />
      <g transform="translate(0 0)">
        <ellipse cx="28.48" cy="0.00" rx="18.31" ry="28.48" fill="#f7d7d8" fill-opacity="0.95" /><ellipse cx="20.14" cy="20.14" rx="18.31" ry="28.48" fill="#f7d7d8" fill-opacity="0.95" /><ellipse cx="0.00" cy="28.48" rx="18.31" ry="28.48" fill="#f7d7d8" fill-opacity="0.95" /><ellipse cx="-20.14" cy="20.14" rx="18.31" ry="28.48" fill="#f7d7d8" fill-opacity="0.95" /><ellipse cx="-28.48" cy="0.00" rx="18.31" ry="28.48" fill="#f7d7d8" fill-opacity="0.95" /><ellipse cx="-20.14" cy="-20.14" rx="18.31" ry="28.48" fill="#f7d7d8" fill-opacity="0.95" /><ellipse cx="-0.00" cy="-28.48" rx="18.31" ry="28.48" fill="#f7d7d8" fill-opacity="0.95" /><ellipse cx="20.14" cy="-20.14" rx="18.31" ry="28.48" fill="#f7d7d8" fill-opacity="0.95" />
        <circle cx="0" cy="0" r="18.31" fill="#f0b8a4" />
        <circle cx="0" cy="0" r="9.15" fill="#fff7f0" fill-opacity="0.72" />
      </g>
    </g>
    
    <g transform="translate(218.67 407.14) rotate(17.78)">
      <path d="M 0 0 C -8 104.74, 10 174.57, -6 256.03" stroke="#aebc9f" stroke-width="13.97" fill="none" stroke-linecap="round" />
      <ellipse cx="-20" cy="128.01" rx="25.60" ry="48.88" fill="#aebc9f" fill-opacity="0.75" transform="rotate(-24)" />
      <ellipse cx="28" cy="158.27" rx="23.28" ry="44.22" fill="#aebc9f" fill-opacity="0.66" transform="rotate(20)" />
      <g transform="translate(0 0)">
        <ellipse cx="32.59" cy="0.00" rx="20.95" ry="32.59" fill="#f4e4ca" fill-opacity="0.95" /><ellipse cx="23.04" cy="23.04" rx="20.95" ry="32.59" fill="#f4e4ca" fill-opacity="0.95" /><ellipse cx="0.00" cy="32.59" rx="20.95" ry="32.59" fill="#f4e4ca" fill-opacity="0.95" /><ellipse cx="-23.04" cy="23.04" rx="20.95" ry="32.59" fill="#f4e4ca" fill-opacity="0.95" /><ellipse cx="-32.59" cy="0.00" rx="20.95" ry="32.59" fill="#f4e4ca" fill-opacity="0.95" /><ellipse cx="-23.04" cy="-23.04" rx="20.95" ry="32.59" fill="#f4e4ca" fill-opacity="0.95" /><ellipse cx="-0.00" cy="-32.59" rx="20.95" ry="32.59" fill="#f4e4ca" fill-opacity="0.95" /><ellipse cx="23.04" cy="-23.04" rx="20.95" ry="32.59" fill="#f4e4ca" fill-opacity="0.95" />
        <circle cx="0" cy="0" r="20.95" fill="#f0b8a4" />
        <circle cx="0" cy="0" r="10.47" fill="#fff7f0" fill-opacity="0.72" />
      </g>
    </g>
    
    <g transform="translate(384.37 381.12) rotate(-20.45)">
      <path d="M 0 0 C -8 75.97, 10 126.62, -6 185.70" stroke="#93aa86" stroke-width="10.13" fill="none" stroke-linecap="round" />
      <ellipse cx="-20" cy="92.85" rx="18.57" ry="35.45" fill="#93aa86" fill-opacity="0.75" transform="rotate(-24)" />
      <ellipse cx="28" cy="114.80" rx="16.88" ry="32.08" fill="#93aa86" fill-opacity="0.66" transform="rotate(20)" />
      <g transform="translate(0 0)">
        <ellipse cx="23.64" cy="0.00" rx="15.19" ry="23.64" fill="#f7efe8" fill-opacity="0.95" /><ellipse cx="16.71" cy="16.71" rx="15.19" ry="23.64" fill="#f7efe8" fill-opacity="0.95" /><ellipse cx="0.00" cy="23.64" rx="15.19" ry="23.64" fill="#f7efe8" fill-opacity="0.95" /><ellipse cx="-16.71" cy="16.71" rx="15.19" ry="23.64" fill="#f7efe8" fill-opacity="0.95" /><ellipse cx="-23.64" cy="0.00" rx="15.19" ry="23.64" fill="#f7efe8" fill-opacity="0.95" /><ellipse cx="-16.71" cy="-16.71" rx="15.19" ry="23.64" fill="#f7efe8" fill-opacity="0.95" /><ellipse cx="-0.00" cy="-23.64" rx="15.19" ry="23.64" fill="#f7efe8" fill-opacity="0.95" /><ellipse cx="16.71" cy="-16.71" rx="15.19" ry="23.64" fill="#f7efe8" fill-opacity="0.95" />
        <circle cx="0" cy="0" r="15.19" fill="#f0b8a4" />
        <circle cx="0" cy="0" r="7.60" fill="#fff7f0" fill-opacity="0.72" />
      </g>
    </g>
    
  </g>
  <path d="M0 980 C220 920, 420 1030, 900 930 L900 1100 L0 1100 Z" fill="#ffffff" fill-opacity="0.22" />
</svg>
