<svg xmlns="http://www.w3.org/2000/svg" width="900" height="1100" viewBox="0 0 900 1100">
  <defs>
    <linearGradient id="bg" x1="0" y1="0" x2="0" y2="1">
      <stop offset="0%" stop-color="#fff5f1" />
      <stop offset="100%" stop-color="#f7efe4" />
    </linearGradient>
    <filter id="shadow" x="-20%" y="-20%" width="140%" height="140%">
      <feDropShadow dx="0" dy="22" stdDeviation="24" flood-color="#6c5d4f" flood-opacity="0.12" />
    </filter>
  </defs>
  <rect width="100%" height="100%" fill="url(#bg)" />
  <circle cx="730" cy="180" r="140" fill="#ffffff" fill-opacity="0.18" />
  <circle cx="150" cy="260" r="90" fill="#ffffff" fill-opacity="0.12" />
  
      <rect x="70" y="72" width="300" height="92" rx="24" fill="#ffffff" fill-opacity="0.34" />
      <text x="98" y="120" fill="#2f3a31" font-size="32" font-family="'PingFang SC','Microsoft YaHei',sans-serif" font-weight="600">柔白陪伴</text>
      <text x="98" y="152" fill="#4e6152" font-size="18" font-family="'PingFang SC','Microsoft YaHei',sans-serif">送礼 · 日常花礼</text>
    
  <g filter="url(#shadow)">
    <path d="M250 780 L650 780 L730 1080 L170 1080 Z" fill="#ece2d6" fill-opacity="0.88" />
  </g>
  <g>
    
    <g transform="translate(536.17 380.47) rotate(-25.00)">
      <path d="M 0 0 C -8 106.65, 10 177.75, -6 260.70" stroke="#93aa86" stroke-width="14.22" fill="none" stroke-linecap="round" />
      <ellipse cx="-20" cy="130.35" rx="26.07" ry="49.77" fill="#93aa86" fill-opacity="0.75" transform="rotate(-24)" />
      <ellipse cx="28" cy="161.16" rx="23.70" ry="45.03" fill="#93aa86" fill-opacity="0.66" transform="rotate(20)" />
      <g transform="translate(0 0)">
        <ellipse cx="33.18" cy="0.00" rx="21.33" ry="33.18" fill="#f7d7d8" fill-opacity="0.95" /><ellipse cx="23.46" cy="23.46" rx="21.33" ry="33.18" fill="#f7d7d8" fill-opacity="0.95" /><ellipse cx="0.00" cy="33.18" rx="21.33" ry="33.18" fill="#f7d7d8" fill-opacity="0.95" /><ellipse cx="-23.46" cy="23.46" rx="21.33" ry="33.18" fill="#f7d7d8" fill-opacity="0.95" /><ellipse cx="-33.18" cy="0.00" rx="21.33" ry="33.18" fill="#f7d7d8" fill-opacity="0.95" /><ellipse cx="-23.46" cy="-23.46" rx="21.33" ry="33.18" fill="#f7d7d8" fill-opacity="0.95" /><ellipse cx="-0.00" cy="-33.18" rx="21.33" ry="33.18" fill="#f7d7d8" fill-opacity="0.95" /><ellipse cx="23.46" cy="-23.46" rx="21.33" ry="33.18" fill="#f7d7d8" fill-opacity="0.95" />
        <circle cx="0" cy="0" r="21.33" fill="#f0b8a4" />
        <circle cx="0" cy="0" r="10.66" fill="#fff7f0" fill-opacity="0.72" />
      </g>
    </g>
    
    <g transform="translate(523.77 398.01) rotate(-20.70)">
      <path d="M 0 0 C -8 110.51, 10 184.18, -6 270.14" stroke="#7c9573" stroke-width="14.73" fill="none" stroke-linecap="round" />
      <ellipse cx="-20" cy="135.07" rx="27.01" ry="51.57" fill="#7c9573" fill-opacity="0.75" transform="rotate(-24)" />
      <ellipse cx="28" cy="166.99" rx="24.56" ry="46.66" fill="#7c9573" fill-opacity="0.66" transform="rotate(20)" />
      <g transform="translate(0 0)">
        <ellipse cx="34.38" cy="0.00" rx="22.10" ry="34.38" fill="#f4e4ca" fill-opacity="0.95" /><ellipse cx="24.31" cy="24.31" rx="22.10" ry="34.38" fill="#f4e4ca" fill-opacity="0.95" /><ellipse cx="0.00" cy="34.38" rx="22.10" ry="34.38" fill="#f4e4ca" fill-opacity="0.95" /><ellipse cx="-24.31" cy="24.31" rx="22.10" ry="34.38" fill="#f4e4ca" fill-opacity="0.95" /><ellipse cx="-34.38" cy="0.00" rx="22.10" ry="34.38" fill="#f4e4ca" fill-opacity="0.95" /><ellipse cx="-24.31" cy="-24.31" rx="22.10" ry="34.38" fill="#f4e4ca" fill-opacity="0.95" /><ellipse cx="-0.00" cy="-34.38" rx="22.10" ry="34.38" fill="#f4e4ca" fill-opacity="0.95" /><ellipse cx="24.31" cy="-24.31" rx="22.10" ry="34.38" fill="#f4e4ca" fill-opacity="0.95" />
        <circle cx="0" cy="0" r="22.10" fill="#f0b8a4" />
        <circle cx="0" cy="0" r="11.05" fill="#fff7f0" fill-opacity="0.72" />
      </g>
    </g>
    
    <g transform="translate(237.89 382.17) rotate(-18.97)">
      <path d="M 0 0 C -8 113.22, 10 188.70, -6 276.76" stroke="#aebc9f" stroke-width="15.10" fill="none" stroke-linecap="round" />
      <ellipse cx="-20" cy="138.38" rx="27.68" ry="52.84" fill="#aebc9f" fill-opacity="0.75" transform="rotate(-24)" />
      <ellipse cx="28" cy="171.09" rx="25.16" ry="47.80" fill="#aebc9f" fill-opacity="0.66" transform="rotate(20)" />
      <g transform="translate(0 0)">
        <ellipse cx="35.22" cy="0.00" rx="22.64" ry="35.22" fill="#f7efe8" fill-opacity="0.95" /><ellipse cx="24.91" cy="24.91" rx="22.64" ry="35.22" fill="#f7efe8" fill-opacity="0.95" /><ellipse cx="0.00" cy="35.22" rx="22.64" ry="35.22" fill="#f7efe8" fill-opacity="0.95" /><ellipse cx="-24.91" cy="24.91" rx="22.64" ry="35.22" fill="#f7efe8" fill-opacity="0.95" /><ellipse cx="-35.22" cy="0.00" rx="22.64" ry="35.22" fill="#f7efe8" fill-opacity="0.95" /><ellipse cx="-24.91" cy="-24.91" rx="22.64" ry="35.22" fill="#f7efe8" fill-opacity="0.95" /><ellipse cx="-0.00" cy="-35.22" rx="22.64" ry="35.22" fill="#f7efe8" fill-opacity="0.95" /><ellipse cx="24.91" cy="-24.91" rx="22.64" ry="35.22" fill="#f7efe8" fill-opacity="0.95" />
        <circle cx="0" cy="0" r="22.64" fill="#f0b8a4" />
        <circle cx="0" cy="0" r="11.32" fill="#fff7f0" fill-opacity="0.72" />
      </g>
    </g>
    
    <g transform="translate(670.87 296.19) rotate(-3.29)">
      <path d="M 0 0 C -8 108.85, 10 181.42, -6 266.08" stroke="#93aa86" stroke-width="14.51" fill="none" stroke-linecap="round" />
      <ellipse cx="-20" cy="133.04" rx="26.61" ry="50.80" fill="#93aa86" fill-opacity="0.75" transform="rotate(-24)" />
      <ellipse cx="28" cy="164.48" rx="24.19" ry="45.96" fill="#93aa86" fill-opacity="0.66" transform="rotate(20)" />
      <g transform="translate(0 0)">
        <ellipse cx="33.86" cy="0.00" rx="21.77" ry="33.86" fill="#efc7ce" fill-opacity="0.95" /><ellipse cx="23.95" cy="23.95" rx="21.77" ry="33.86" fill="#efc7ce" fill-opacity="0.95" /><ellipse cx="0.00" cy="33.86" rx="21.77" ry="33.86" fill="#efc7ce" fill-opacity="0.95" /><ellipse cx="-23.95" cy="23.95" rx="21.77" ry="33.86" fill="#efc7ce" fill-opacity="0.95" /><ellipse cx="-33.86" cy="0.00" rx="21.77" ry="33.86" fill="#efc7ce" fill-opacity="0.95" /><ellipse cx="-23.95" cy="-23.95" rx="21.77" ry="33.86" fill="#efc7ce" fill-opacity="0.95" /><ellipse cx="-0.00" cy="-33.86" rx="21.77" ry="33.86" fill="#efc7ce" fill-opacity="0.95" /><ellipse cx="23.95" cy="-23.95" rx="21.77" ry="33.86" fill="#efc7ce" fill-opacity="0.95" />
        <circle cx="0" cy="0" r="21.77" fill="#f0b8a4" />
        <circle cx="0" cy="0" r="10.88" fill="#fff7f0" fill-opacity="0.72" />
      </g>
    </g>
    
    <g transform="translate(560.73 333.78) rotate(13.05)">
      <path d="M 0 0 C -8 82.48, 10 137.47, -6 201.62" stroke="#7c9573" stroke-width="11.00" fill="none" stroke-linecap="round" />
      <ellipse cx="-20" cy="100.81" rx="20.16" ry="38.49" fill="#7c9573" fill-opacity="0.75" transform="rotate(-24)" />
      <ellipse cx="28" cy="124.64" rx="18.33" ry="34.82" fill="#7c9573" fill-opacity="0.66" transform="rotate(20)" />
      <g transform="translate(0 0)">
        <ellipse cx="25.66" cy="0.00" rx="16.50" ry="25.66" fill="#f7d7d8" fill-opacity="0.95" /><ellipse cx="18.14" cy="18.14" rx="16.50" ry="25.66" fill="#f7d7d8" fill-opacity="0.95" /><ellipse cx="0.00" cy="25.66" rx="16.50" ry="25.66" fill="#f7d7d8" fill-opacity="0.95" /><ellipse cx="-18.14" cy="18.14" rx="16.50" ry="25.66" fill="#f7d7d8" fill-opacity="0.95" /><ellipse cx="-25.66" cy="0.00" rx="16.50" ry="25.66" fill="#f7d7d8" fill-opacity="0.95" /><ellipse cx="-18.14" cy="-18.14" rx="16.50" ry="25.66" fill="#f7d7d8" fill-opacity="0.95" /><ellipse cx="-0.00" cy="-25.66" rx="16.50" ry="25.66" fill="#f7d7d8" fill-opacity="0.95" /><ellipse cx="18.14" cy="-18.14" rx="16.50" ry="25.66" fill="#f7d7d8" fill-opacity="0.95" />
        <circle cx="0" cy="0" r="16.50" fill="#f0b8a4" />
        <circle cx="0" cy="0" r="8.25" fill="#fff7f0" fill-opacity="0.72" />
      </g>
    </g>
    
    <g transform="translate(379.76 342.86) rotate(8.90)">
      <path d="M 0 0 C -8 102.20, 10 170.33, -6 249.81" stroke="#aebc9f" stroke-width="13.63" fill="none" stroke-linecap="round" />
      <ellipse cx="-20" cy="124.91" rx="24.98" ry="47.69" fill="#aebc9f" fill-opacity="0.75" transform="rotate(-24)" />
      <ellipse cx="28" cy="154.43" rx="22.71" ry="43.15" fill="#aebc9f" fill-opacity="0.66" transform="rotate(20)" />
      <g transform="translate(0 0)">
        <ellipse cx="31.79" cy="0.00" rx="20.44" ry="31.79" fill="#f4e4ca" fill-opacity="0.95" /><ellipse cx="22.48" cy="22.48" rx="20.44" ry="31.79" fill="#f4e4ca" fill-opacity="0.95" /><ellipse cx="0.00" cy="31.79" rx="20.44" ry="31.79" fill="#f4e4ca" fill-opacity="0.95" /><ellipse cx="-22.48" cy="22.48" rx="20.44" ry="31.79" fill="#f4e4ca" fill-opacity="0.95" /><ellipse cx="-31.79" cy="0.00" rx="20.44" ry="31.79" fill="#f4e4ca" fill-opacity="0.95" /><ellipse cx="-22.48" cy="-22.48" rx="20.44" ry="31.79" fill="#f4e4ca" fill-opacity="0.95" /><ellipse cx="-0.00" cy="-31.79" rx="20.44" ry="31.79" fill="#f4e4ca" fill-opacity="0.95" /><ellipse cx="22.48" cy="-22.48" rx="20.44" ry="31.79" fill="#f4e4ca" fill-opacity="0.95" />
        <circle cx="0" cy="0" r="20.44" fill="#f0b8a4" />
        <circle cx="0" cy="0" r="10.22" fill="#fff7f0" fill-opacity="0.72" />
      </g>
    </g>
    
  </g>
  <path d="M0 980 C220 920, 420 1030, 900 930 L900 1100 L0 1100 Z" fill="#ffffff" fill-opacity="0.22" />
</svg>
