<svg xmlns="http://www.w3.org/2000/svg" width="900" height="1100" viewBox="0 0 900 1100">
  <defs>
    <linearGradient id="bg" x1="0" y1="0" x2="0" y2="1">
      <stop offset="0%" stop-color="#fff5f1" />
      <stop offset="100%" stop-color="#f7efe4" />
    </linearGradient>
    <filter id="shadow" x="-20%" y="-20%" width="140%" height="140%">
      <feDropShadow dx="0" dy="22" stdDeviation="24" flood-color="#6c5d4f" flood-opacity="0.12" />
    </filter>
  </defs>
  <rect width="100%" height="100%" fill="url(#bg)" />
  <circle cx="730" cy="180" r="140" fill="#ffffff" fill-opacity="0.18" />
  <circle cx="150" cy="260" r="90" fill="#ffffff" fill-opacity="0.12" />
  
      <rect x="70" y="72" width="300" height="92" rx="24" fill="#ffffff" fill-opacity="0.34" />
      <text x="98" y="120" fill="#2f3a31" font-size="32" font-family="'PingFang SC','Microsoft YaHei',sans-serif" font-weight="600">轻氧日常</text>
      <text x="98" y="152" fill="#4e6152" font-size="18" font-family="'PingFang SC','Microsoft YaHei',sans-serif">生日 · 奶油色</text>
    
  <g filter="url(#shadow)">
    <path d="M250 780 L650 780 L730 1080 L170 1080 Z" fill="#ece2d6" fill-opacity="0.88" />
  </g>
  <g>
    
    <g transform="translate(646.66 479.73) rotate(-14.52)">
      <path d="M 0 0 C -8 79.68, 10 132.80, -6 194.78" stroke="#93aa86" stroke-width="10.62" fill="none" stroke-linecap="round" />
      <ellipse cx="-20" cy="97.39" rx="19.48" ry="37.19" fill="#93aa86" fill-opacity="0.75" transform="rotate(-24)" />
      <ellipse cx="28" cy="120.41" rx="17.71" ry="33.64" fill="#93aa86" fill-opacity="0.66" transform="rotate(20)" />
      <g transform="translate(0 0)">
        <ellipse cx="24.79" cy="0.00" rx="15.94" ry="24.79" fill="#f7d7d8" fill-opacity="0.95" /><ellipse cx="17.53" cy="17.53" rx="15.94" ry="24.79" fill="#f7d7d8" fill-opacity="0.95" /><ellipse cx="0.00" cy="24.79" rx="15.94" ry="24.79" fill="#f7d7d8" fill-opacity="0.95" /><ellipse cx="-17.53" cy="17.53" rx="15.94" ry="24.79" fill="#f7d7d8" fill-opacity="0.95" /><ellipse cx="-24.79" cy="0.00" rx="15.94" ry="24.79" fill="#f7d7d8" fill-opacity="0.95" /><ellipse cx="-17.53" cy="-17.53" rx="15.94" ry="24.79" fill="#f7d7d8" fill-opacity="0.95" /><ellipse cx="-0.00" cy="-24.79" rx="15.94" ry="24.79" fill="#f7d7d8" fill-opacity="0.95" /><ellipse cx="17.53" cy="-17.53" rx="15.94" ry="24.79" fill="#f7d7d8" fill-opacity="0.95" />
        <circle cx="0" cy="0" r="15.94" fill="#f0b8a4" />
        <circle cx="0" cy="0" r="7.97" fill="#fff7f0" fill-opacity="0.72" />
      </g>
    </g>
    
    <g transform="translate(289.49 532.05) rotate(11.35)">
      <path d="M 0 0 C -8 83.03, 10 138.38, -6 202.95" stroke="#7c9573" stroke-width="11.07" fill="none" stroke-linecap="round" />
      <ellipse cx="-20" cy="101.48" rx="20.30" ry="38.75" fill="#7c9573" fill-opacity="0.75" transform="rotate(-24)" />
      <ellipse cx="28" cy="125.46" rx="18.45" ry="35.06" fill="#7c9573" fill-opacity="0.66" transform="rotate(20)" />
      <g transform="translate(0 0)">
        <ellipse cx="25.83" cy="0.00" rx="16.61" ry="25.83" fill="#f4e4ca" fill-opacity="0.95" /><ellipse cx="18.26" cy="18.26" rx="16.61" ry="25.83" fill="#f4e4ca" fill-opacity="0.95" /><ellipse cx="0.00" cy="25.83" rx="16.61" ry="25.83" fill="#f4e4ca" fill-opacity="0.95" /><ellipse cx="-18.26" cy="18.26" rx="16.61" ry="25.83" fill="#f4e4ca" fill-opacity="0.95" /><ellipse cx="-25.83" cy="0.00" rx="16.61" ry="25.83" fill="#f4e4ca" fill-opacity="0.95" /><ellipse cx="-18.26" cy="-18.26" rx="16.61" ry="25.83" fill="#f4e4ca" fill-opacity="0.95" /><ellipse cx="-0.00" cy="-25.83" rx="16.61" ry="25.83" fill="#f4e4ca" fill-opacity="0.95" /><ellipse cx="18.26" cy="-18.26" rx="16.61" ry="25.83" fill="#f4e4ca" fill-opacity="0.95" />
        <circle cx="0" cy="0" r="16.61" fill="#f0b8a4" />
        <circle cx="0" cy="0" r="8.30" fill="#fff7f0" fill-opacity="0.72" />
      </g>
    </g>
    
    <g transform="translate(629.34 479.32) rotate(14.45)">
      <path d="M 0 0 C -8 85.96, 10 143.27, -6 210.12" stroke="#aebc9f" stroke-width="11.46" fill="none" stroke-linecap="round" />
      <ellipse cx="-20" cy="105.06" rx="21.01" ry="40.11" fill="#aebc9f" fill-opacity="0.75" transform="rotate(-24)" />
      <ellipse cx="28" cy="129.90" rx="19.10" ry="36.29" fill="#aebc9f" fill-opacity="0.66" transform="rotate(20)" />
      <g transform="translate(0 0)">
        <ellipse cx="26.74" cy="0.00" rx="17.19" ry="26.74" fill="#f7efe8" fill-opacity="0.95" /><ellipse cx="18.91" cy="18.91" rx="17.19" ry="26.74" fill="#f7efe8" fill-opacity="0.95" /><ellipse cx="0.00" cy="26.74" rx="17.19" ry="26.74" fill="#f7efe8" fill-opacity="0.95" /><ellipse cx="-18.91" cy="18.91" rx="17.19" ry="26.74" fill="#f7efe8" fill-opacity="0.95" /><ellipse cx="-26.74" cy="0.00" rx="17.19" ry="26.74" fill="#f7efe8" fill-opacity="0.95" /><ellipse cx="-18.91" cy="-18.91" rx="17.19" ry="26.74" fill="#f7efe8" fill-opacity="0.95" /><ellipse cx="-0.00" cy="-26.74" rx="17.19" ry="26.74" fill="#f7efe8" fill-opacity="0.95" /><ellipse cx="18.91" cy="-18.91" rx="17.19" ry="26.74" fill="#f7efe8" fill-opacity="0.95" />
        <circle cx="0" cy="0" r="17.19" fill="#f0b8a4" />
        <circle cx="0" cy="0" r="8.60" fill="#fff7f0" fill-opacity="0.72" />
      </g>
    </g>
    
    <g transform="translate(476.50 475.99) rotate(16.50)">
      <path d="M 0 0 C -8 94.97, 10 158.28, -6 232.15" stroke="#93aa86" stroke-width="12.66" fill="none" stroke-linecap="round" />
      <ellipse cx="-20" cy="116.07" rx="23.21" ry="44.32" fill="#93aa86" fill-opacity="0.75" transform="rotate(-24)" />
      <ellipse cx="28" cy="143.51" rx="21.10" ry="40.10" fill="#93aa86" fill-opacity="0.66" transform="rotate(20)" />
      <g transform="translate(0 0)">
        <ellipse cx="29.55" cy="0.00" rx="18.99" ry="29.55" fill="#efc7ce" fill-opacity="0.95" /><ellipse cx="20.89" cy="20.89" rx="18.99" ry="29.55" fill="#efc7ce" fill-opacity="0.95" /><ellipse cx="0.00" cy="29.55" rx="18.99" ry="29.55" fill="#efc7ce" fill-opacity="0.95" /><ellipse cx="-20.89" cy="20.89" rx="18.99" ry="29.55" fill="#efc7ce" fill-opacity="0.95" /><ellipse cx="-29.55" cy="0.00" rx="18.99" ry="29.55" fill="#efc7ce" fill-opacity="0.95" /><ellipse cx="-20.89" cy="-20.89" rx="18.99" ry="29.55" fill="#efc7ce" fill-opacity="0.95" /><ellipse cx="-0.00" cy="-29.55" rx="18.99" ry="29.55" fill="#efc7ce" fill-opacity="0.95" /><ellipse cx="20.89" cy="-20.89" rx="18.99" ry="29.55" fill="#efc7ce" fill-opacity="0.95" />
        <circle cx="0" cy="0" r="18.99" fill="#f0b8a4" />
        <circle cx="0" cy="0" r="9.50" fill="#fff7f0" fill-opacity="0.72" />
      </g>
    </g>
    
    <g transform="translate(411.35 462.20) rotate(-6.96)">
      <path d="M 0 0 C -8 96.24, 10 160.39, -6 235.24" stroke="#7c9573" stroke-width="12.83" fill="none" stroke-linecap="round" />
      <ellipse cx="-20" cy="117.62" rx="23.52" ry="44.91" fill="#7c9573" fill-opacity="0.75" transform="rotate(-24)" />
      <ellipse cx="28" cy="145.42" rx="21.39" ry="40.63" fill="#7c9573" fill-opacity="0.66" transform="rotate(20)" />
      <g transform="translate(0 0)">
        <ellipse cx="29.94" cy="0.00" rx="19.25" ry="29.94" fill="#f7d7d8" fill-opacity="0.95" /><ellipse cx="21.17" cy="21.17" rx="19.25" ry="29.94" fill="#f7d7d8" fill-opacity="0.95" /><ellipse cx="0.00" cy="29.94" rx="19.25" ry="29.94" fill="#f7d7d8" fill-opacity="0.95" /><ellipse cx="-21.17" cy="21.17" rx="19.25" ry="29.94" fill="#f7d7d8" fill-opacity="0.95" /><ellipse cx="-29.94" cy="0.00" rx="19.25" ry="29.94" fill="#f7d7d8" fill-opacity="0.95" /><ellipse cx="-21.17" cy="-21.17" rx="19.25" ry="29.94" fill="#f7d7d8" fill-opacity="0.95" /><ellipse cx="-0.00" cy="-29.94" rx="19.25" ry="29.94" fill="#f7d7d8" fill-opacity="0.95" /><ellipse cx="21.17" cy="-21.17" rx="19.25" ry="29.94" fill="#f7d7d8" fill-opacity="0.95" />
        <circle cx="0" cy="0" r="19.25" fill="#f0b8a4" />
        <circle cx="0" cy="0" r="9.62" fill="#fff7f0" fill-opacity="0.72" />
      </g>
    </g>
    
    <g transform="translate(681.49 499.95) rotate(-25.05)">
      <path d="M 0 0 C -8 100.94, 10 168.23, -6 246.73" stroke="#aebc9f" stroke-width="13.46" fill="none" stroke-linecap="round" />
      <ellipse cx="-20" cy="123.37" rx="24.67" ry="47.10" fill="#aebc9f" fill-opacity="0.75" transform="rotate(-24)" />
      <ellipse cx="28" cy="152.53" rx="22.43" ry="42.62" fill="#aebc9f" fill-opacity="0.66" transform="rotate(20)" />
      <g transform="translate(0 0)">
        <ellipse cx="31.40" cy="0.00" rx="20.19" ry="31.40" fill="#f4e4ca" fill-opacity="0.95" /><ellipse cx="22.20" cy="22.20" rx="20.19" ry="31.40" fill="#f4e4ca" fill-opacity="0.95" /><ellipse cx="0.00" cy="31.40" rx="20.19" ry="31.40" fill="#f4e4ca" fill-opacity="0.95" /><ellipse cx="-22.20" cy="22.20" rx="20.19" ry="31.40" fill="#f4e4ca" fill-opacity="0.95" /><ellipse cx="-31.40" cy="0.00" rx="20.19" ry="31.40" fill="#f4e4ca" fill-opacity="0.95" /><ellipse cx="-22.20" cy="-22.20" rx="20.19" ry="31.40" fill="#f4e4ca" fill-opacity="0.95" /><ellipse cx="-0.00" cy="-31.40" rx="20.19" ry="31.40" fill="#f4e4ca" fill-opacity="0.95" /><ellipse cx="22.20" cy="-22.20" rx="20.19" ry="31.40" fill="#f4e4ca" fill-opacity="0.95" />
        <circle cx="0" cy="0" r="20.19" fill="#f0b8a4" />
        <circle cx="0" cy="0" r="10.09" fill="#fff7f0" fill-opacity="0.72" />
      </g>
    </g>
    
  </g>
  <path d="M0 980 C220 920, 420 1030, 900 930 L900 1100 L0 1100 Z" fill="#ffffff" fill-opacity="0.22" />
</svg>
