<svg xmlns="http://www.w3.org/2000/svg" width="900" height="1100" viewBox="0 0 900 1100">
  <defs>
    <linearGradient id="bg" x1="0" y1="0" x2="0" y2="1">
      <stop offset="0%" stop-color="#fff5f1" />
      <stop offset="100%" stop-color="#f7efe4" />
    </linearGradient>
    <filter id="shadow" x="-20%" y="-20%" width="140%" height="140%">
      <feDropShadow dx="0" dy="22" stdDeviation="24" flood-color="#6c5d4f" flood-opacity="0.12" />
    </filter>
  </defs>
  <rect width="100%" height="100%" fill="url(#bg)" />
  <circle cx="730" cy="180" r="140" fill="#ffffff" fill-opacity="0.18" />
  <circle cx="150" cy="260" r="90" fill="#ffffff" fill-opacity="0.12" />
  
      <rect x="70" y="72" width="300" height="92" rx="24" fill="#ffffff" fill-opacity="0.34" />
      <text x="98" y="120" fill="#2f3a31" font-size="32" font-family="'PingFang SC','Microsoft YaHei',sans-serif" font-weight="600">小满告白</text>
      <text x="98" y="152" fill="#4e6152" font-size="18" font-family="'PingFang SC','Microsoft YaHei',sans-serif">探望 · 粉白系</text>
    
  <g filter="url(#shadow)">
    <path d="M250 780 L650 780 L730 1080 L170 1080 Z" fill="#ece2d6" fill-opacity="0.88" />
  </g>
  <g>
    
    <g transform="translate(337.30 351.86) rotate(-23.58)">
      <path d="M 0 0 C -8 92.33, 10 153.89, -6 225.70" stroke="#93aa86" stroke-width="12.31" fill="none" stroke-linecap="round" />
      <ellipse cx="-20" cy="112.85" rx="22.57" ry="43.09" fill="#93aa86" fill-opacity="0.75" transform="rotate(-24)" />
      <ellipse cx="28" cy="139.52" rx="20.52" ry="38.98" fill="#93aa86" fill-opacity="0.66" transform="rotate(20)" />
      <g transform="translate(0 0)">
        <ellipse cx="28.73" cy="0.00" rx="18.47" ry="28.73" fill="#f7d7d8" fill-opacity="0.95" /><ellipse cx="20.31" cy="20.31" rx="18.47" ry="28.73" fill="#f7d7d8" fill-opacity="0.95" /><ellipse cx="0.00" cy="28.73" rx="18.47" ry="28.73" fill="#f7d7d8" fill-opacity="0.95" /><ellipse cx="-20.31" cy="20.31" rx="18.47" ry="28.73" fill="#f7d7d8" fill-opacity="0.95" /><ellipse cx="-28.73" cy="0.00" rx="18.47" ry="28.73" fill="#f7d7d8" fill-opacity="0.95" /><ellipse cx="-20.31" cy="-20.31" rx="18.47" ry="28.73" fill="#f7d7d8" fill-opacity="0.95" /><ellipse cx="-0.00" cy="-28.73" rx="18.47" ry="28.73" fill="#f7d7d8" fill-opacity="0.95" /><ellipse cx="20.31" cy="-20.31" rx="18.47" ry="28.73" fill="#f7d7d8" fill-opacity="0.95" />
        <circle cx="0" cy="0" r="18.47" fill="#f0b8a4" />
        <circle cx="0" cy="0" r="9.23" fill="#fff7f0" fill-opacity="0.72" />
      </g>
    </g>
    
    <g transform="translate(617.09 358.97) rotate(13.13)">
      <path d="M 0 0 C -8 95.89, 10 159.81, -6 234.39" stroke="#7c9573" stroke-width="12.79" fill="none" stroke-linecap="round" />
      <ellipse cx="-20" cy="117.20" rx="23.44" ry="44.75" fill="#7c9573" fill-opacity="0.75" transform="rotate(-24)" />
      <ellipse cx="28" cy="144.90" rx="21.31" ry="40.49" fill="#7c9573" fill-opacity="0.66" transform="rotate(20)" />
      <g transform="translate(0 0)">
        <ellipse cx="29.83" cy="0.00" rx="19.18" ry="29.83" fill="#f4e4ca" fill-opacity="0.95" /><ellipse cx="21.09" cy="21.09" rx="19.18" ry="29.83" fill="#f4e4ca" fill-opacity="0.95" /><ellipse cx="0.00" cy="29.83" rx="19.18" ry="29.83" fill="#f4e4ca" fill-opacity="0.95" /><ellipse cx="-21.09" cy="21.09" rx="19.18" ry="29.83" fill="#f4e4ca" fill-opacity="0.95" /><ellipse cx="-29.83" cy="0.00" rx="19.18" ry="29.83" fill="#f4e4ca" fill-opacity="0.95" /><ellipse cx="-21.09" cy="-21.09" rx="19.18" ry="29.83" fill="#f4e4ca" fill-opacity="0.95" /><ellipse cx="-0.00" cy="-29.83" rx="19.18" ry="29.83" fill="#f4e4ca" fill-opacity="0.95" /><ellipse cx="21.09" cy="-21.09" rx="19.18" ry="29.83" fill="#f4e4ca" fill-opacity="0.95" />
        <circle cx="0" cy="0" r="19.18" fill="#f0b8a4" />
        <circle cx="0" cy="0" r="9.59" fill="#fff7f0" fill-opacity="0.72" />
      </g>
    </g>
    
    <g transform="translate(634.29 310.87) rotate(-8.19)">
      <path d="M 0 0 C -8 100.96, 10 168.27, -6 246.79" stroke="#aebc9f" stroke-width="13.46" fill="none" stroke-linecap="round" />
      <ellipse cx="-20" cy="123.40" rx="24.68" ry="47.12" fill="#aebc9f" fill-opacity="0.75" transform="rotate(-24)" />
      <ellipse cx="28" cy="152.56" rx="22.44" ry="42.63" fill="#aebc9f" fill-opacity="0.66" transform="rotate(20)" />
      <g transform="translate(0 0)">
        <ellipse cx="31.41" cy="0.00" rx="20.19" ry="31.41" fill="#f7efe8" fill-opacity="0.95" /><ellipse cx="22.21" cy="22.21" rx="20.19" ry="31.41" fill="#f7efe8" fill-opacity="0.95" /><ellipse cx="0.00" cy="31.41" rx="20.19" ry="31.41" fill="#f7efe8" fill-opacity="0.95" /><ellipse cx="-22.21" cy="22.21" rx="20.19" ry="31.41" fill="#f7efe8" fill-opacity="0.95" /><ellipse cx="-31.41" cy="0.00" rx="20.19" ry="31.41" fill="#f7efe8" fill-opacity="0.95" /><ellipse cx="-22.21" cy="-22.21" rx="20.19" ry="31.41" fill="#f7efe8" fill-opacity="0.95" /><ellipse cx="-0.00" cy="-31.41" rx="20.19" ry="31.41" fill="#f7efe8" fill-opacity="0.95" /><ellipse cx="22.21" cy="-22.21" rx="20.19" ry="31.41" fill="#f7efe8" fill-opacity="0.95" />
        <circle cx="0" cy="0" r="20.19" fill="#f0b8a4" />
        <circle cx="0" cy="0" r="10.10" fill="#fff7f0" fill-opacity="0.72" />
      </g>
    </g>
    
    <g transform="translate(272.63 384.20) rotate(4.40)">
      <path d="M 0 0 C -8 102.41, 10 170.68, -6 250.32" stroke="#93aa86" stroke-width="13.65" fill="none" stroke-linecap="round" />
      <ellipse cx="-20" cy="125.16" rx="25.03" ry="47.79" fill="#93aa86" fill-opacity="0.75" transform="rotate(-24)" />
      <ellipse cx="28" cy="154.75" rx="22.76" ry="43.24" fill="#93aa86" fill-opacity="0.66" transform="rotate(20)" />
      <g transform="translate(0 0)">
        <ellipse cx="31.86" cy="0.00" rx="20.48" ry="31.86" fill="#efc7ce" fill-opacity="0.95" /><ellipse cx="22.53" cy="22.53" rx="20.48" ry="31.86" fill="#efc7ce" fill-opacity="0.95" /><ellipse cx="0.00" cy="31.86" rx="20.48" ry="31.86" fill="#efc7ce" fill-opacity="0.95" /><ellipse cx="-22.53" cy="22.53" rx="20.48" ry="31.86" fill="#efc7ce" fill-opacity="0.95" /><ellipse cx="-31.86" cy="0.00" rx="20.48" ry="31.86" fill="#efc7ce" fill-opacity="0.95" /><ellipse cx="-22.53" cy="-22.53" rx="20.48" ry="31.86" fill="#efc7ce" fill-opacity="0.95" /><ellipse cx="-0.00" cy="-31.86" rx="20.48" ry="31.86" fill="#efc7ce" fill-opacity="0.95" /><ellipse cx="22.53" cy="-22.53" rx="20.48" ry="31.86" fill="#efc7ce" fill-opacity="0.95" />
        <circle cx="0" cy="0" r="20.48" fill="#f0b8a4" />
        <circle cx="0" cy="0" r="10.24" fill="#fff7f0" fill-opacity="0.72" />
      </g>
    </g>
    
    <g transform="translate(707.78 385.89) rotate(22.99)">
      <path d="M 0 0 C -8 94.59, 10 157.65, -6 231.22" stroke="#7c9573" stroke-width="12.61" fill="none" stroke-linecap="round" />
      <ellipse cx="-20" cy="115.61" rx="23.12" ry="44.14" fill="#7c9573" fill-opacity="0.75" transform="rotate(-24)" />
      <ellipse cx="28" cy="142.93" rx="21.02" ry="39.94" fill="#7c9573" fill-opacity="0.66" transform="rotate(20)" />
      <g transform="translate(0 0)">
        <ellipse cx="29.43" cy="0.00" rx="18.92" ry="29.43" fill="#f7d7d8" fill-opacity="0.95" /><ellipse cx="20.81" cy="20.81" rx="18.92" ry="29.43" fill="#f7d7d8" fill-opacity="0.95" /><ellipse cx="0.00" cy="29.43" rx="18.92" ry="29.43" fill="#f7d7d8" fill-opacity="0.95" /><ellipse cx="-20.81" cy="20.81" rx="18.92" ry="29.43" fill="#f7d7d8" fill-opacity="0.95" /><ellipse cx="-29.43" cy="0.00" rx="18.92" ry="29.43" fill="#f7d7d8" fill-opacity="0.95" /><ellipse cx="-20.81" cy="-20.81" rx="18.92" ry="29.43" fill="#f7d7d8" fill-opacity="0.95" /><ellipse cx="-0.00" cy="-29.43" rx="18.92" ry="29.43" fill="#f7d7d8" fill-opacity="0.95" /><ellipse cx="20.81" cy="-20.81" rx="18.92" ry="29.43" fill="#f7d7d8" fill-opacity="0.95" />
        <circle cx="0" cy="0" r="18.92" fill="#f0b8a4" />
        <circle cx="0" cy="0" r="9.46" fill="#fff7f0" fill-opacity="0.72" />
      </g>
    </g>
    
    <g transform="translate(437.48 542.34) rotate(2.65)">
      <path d="M 0 0 C -8 70.38, 10 117.30, -6 172.04" stroke="#aebc9f" stroke-width="9.38" fill="none" stroke-linecap="round" />
      <ellipse cx="-20" cy="86.02" rx="17.20" ry="32.84" fill="#aebc9f" fill-opacity="0.75" transform="rotate(-24)" />
      <ellipse cx="28" cy="106.35" rx="15.64" ry="29.72" fill="#aebc9f" fill-opacity="0.66" transform="rotate(20)" />
      <g transform="translate(0 0)">
        <ellipse cx="21.90" cy="0.00" rx="14.08" ry="21.90" fill="#f4e4ca" fill-opacity="0.95" /><ellipse cx="15.48" cy="15.48" rx="14.08" ry="21.90" fill="#f4e4ca" fill-opacity="0.95" /><ellipse cx="0.00" cy="21.90" rx="14.08" ry="21.90" fill="#f4e4ca" fill-opacity="0.95" /><ellipse cx="-15.48" cy="15.48" rx="14.08" ry="21.90" fill="#f4e4ca" fill-opacity="0.95" /><ellipse cx="-21.90" cy="0.00" rx="14.08" ry="21.90" fill="#f4e4ca" fill-opacity="0.95" /><ellipse cx="-15.48" cy="-15.48" rx="14.08" ry="21.90" fill="#f4e4ca" fill-opacity="0.95" /><ellipse cx="-0.00" cy="-21.90" rx="14.08" ry="21.90" fill="#f4e4ca" fill-opacity="0.95" /><ellipse cx="15.48" cy="-15.48" rx="14.08" ry="21.90" fill="#f4e4ca" fill-opacity="0.95" />
        <circle cx="0" cy="0" r="14.08" fill="#f0b8a4" />
        <circle cx="0" cy="0" r="7.04" fill="#fff7f0" fill-opacity="0.72" />
      </g>
    </g>
    
  </g>
  <path d="M0 980 C220 920, 420 1030, 900 930 L900 1100 L0 1100 Z" fill="#ffffff" fill-opacity="0.22" />
</svg>
