<svg xmlns="http://www.w3.org/2000/svg" width="900" height="1100" viewBox="0 0 900 1100">
  <defs>
    <linearGradient id="bg" x1="0" y1="0" x2="0" y2="1">
      <stop offset="0%" stop-color="#fff5f1" />
      <stop offset="100%" stop-color="#f7efe4" />
    </linearGradient>
    <filter id="shadow" x="-20%" y="-20%" width="140%" height="140%">
      <feDropShadow dx="0" dy="22" stdDeviation="24" flood-color="#6c5d4f" flood-opacity="0.12" />
    </filter>
  </defs>
  <rect width="100%" height="100%" fill="url(#bg)" />
  <circle cx="730" cy="180" r="140" fill="#ffffff" fill-opacity="0.18" />
  <circle cx="150" cy="260" r="90" fill="#ffffff" fill-opacity="0.12" />
  
      <rect x="70" y="72" width="300" height="92" rx="24" fill="#ffffff" fill-opacity="0.34" />
      <text x="98" y="120" fill="#2f3a31" font-size="32" font-family="'PingFang SC','Microsoft YaHei',sans-serif" font-weight="600">暖风留声</text>
      <text x="98" y="152" fill="#4e6152" font-size="18" font-family="'PingFang SC','Microsoft YaHei',sans-serif">送礼 · 日常花礼</text>
    
  <g filter="url(#shadow)">
    <path d="M250 780 L650 780 L730 1080 L170 1080 Z" fill="#ece2d6" fill-opacity="0.88" />
  </g>
  <g>
    
    <g transform="translate(226.53 316.37) rotate(-21.21)">
      <path d="M 0 0 C -8 83.51, 10 139.18, -6 204.13" stroke="#93aa86" stroke-width="11.13" fill="none" stroke-linecap="round" />
      <ellipse cx="-20" cy="102.06" rx="20.41" ry="38.97" fill="#93aa86" fill-opacity="0.75" transform="rotate(-24)" />
      <ellipse cx="28" cy="126.19" rx="18.56" ry="35.26" fill="#93aa86" fill-opacity="0.66" transform="rotate(20)" />
      <g transform="translate(0 0)">
        <ellipse cx="25.98" cy="0.00" rx="16.70" ry="25.98" fill="#f7d7d8" fill-opacity="0.95" /><ellipse cx="18.37" cy="18.37" rx="16.70" ry="25.98" fill="#f7d7d8" fill-opacity="0.95" /><ellipse cx="0.00" cy="25.98" rx="16.70" ry="25.98" fill="#f7d7d8" fill-opacity="0.95" /><ellipse cx="-18.37" cy="18.37" rx="16.70" ry="25.98" fill="#f7d7d8" fill-opacity="0.95" /><ellipse cx="-25.98" cy="0.00" rx="16.70" ry="25.98" fill="#f7d7d8" fill-opacity="0.95" /><ellipse cx="-18.37" cy="-18.37" rx="16.70" ry="25.98" fill="#f7d7d8" fill-opacity="0.95" /><ellipse cx="-0.00" cy="-25.98" rx="16.70" ry="25.98" fill="#f7d7d8" fill-opacity="0.95" /><ellipse cx="18.37" cy="-18.37" rx="16.70" ry="25.98" fill="#f7d7d8" fill-opacity="0.95" />
        <circle cx="0" cy="0" r="16.70" fill="#f0b8a4" />
        <circle cx="0" cy="0" r="8.35" fill="#fff7f0" fill-opacity="0.72" />
      </g>
    </g>
    
    <g transform="translate(481.84 508.19) rotate(14.76)">
      <path d="M 0 0 C -8 101.47, 10 169.12, -6 248.04" stroke="#7c9573" stroke-width="13.53" fill="none" stroke-linecap="round" />
      <ellipse cx="-20" cy="124.02" rx="24.80" ry="47.35" fill="#7c9573" fill-opacity="0.75" transform="rotate(-24)" />
      <ellipse cx="28" cy="153.33" rx="22.55" ry="42.84" fill="#7c9573" fill-opacity="0.66" transform="rotate(20)" />
      <g transform="translate(0 0)">
        <ellipse cx="31.57" cy="0.00" rx="20.29" ry="31.57" fill="#f4e4ca" fill-opacity="0.95" /><ellipse cx="22.32" cy="22.32" rx="20.29" ry="31.57" fill="#f4e4ca" fill-opacity="0.95" /><ellipse cx="0.00" cy="31.57" rx="20.29" ry="31.57" fill="#f4e4ca" fill-opacity="0.95" /><ellipse cx="-22.32" cy="22.32" rx="20.29" ry="31.57" fill="#f4e4ca" fill-opacity="0.95" /><ellipse cx="-31.57" cy="0.00" rx="20.29" ry="31.57" fill="#f4e4ca" fill-opacity="0.95" /><ellipse cx="-22.32" cy="-22.32" rx="20.29" ry="31.57" fill="#f4e4ca" fill-opacity="0.95" /><ellipse cx="-0.00" cy="-31.57" rx="20.29" ry="31.57" fill="#f4e4ca" fill-opacity="0.95" /><ellipse cx="22.32" cy="-22.32" rx="20.29" ry="31.57" fill="#f4e4ca" fill-opacity="0.95" />
        <circle cx="0" cy="0" r="20.29" fill="#f0b8a4" />
        <circle cx="0" cy="0" r="10.15" fill="#fff7f0" fill-opacity="0.72" />
      </g>
    </g>
    
    <g transform="translate(227.09 403.45) rotate(20.15)">
      <path d="M 0 0 C -8 76.55, 10 127.58, -6 187.12" stroke="#aebc9f" stroke-width="10.21" fill="none" stroke-linecap="round" />
      <ellipse cx="-20" cy="93.56" rx="18.71" ry="35.72" fill="#aebc9f" fill-opacity="0.75" transform="rotate(-24)" />
      <ellipse cx="28" cy="115.67" rx="17.01" ry="32.32" fill="#aebc9f" fill-opacity="0.66" transform="rotate(20)" />
      <g transform="translate(0 0)">
        <ellipse cx="23.82" cy="0.00" rx="15.31" ry="23.82" fill="#f7efe8" fill-opacity="0.95" /><ellipse cx="16.84" cy="16.84" rx="15.31" ry="23.82" fill="#f7efe8" fill-opacity="0.95" /><ellipse cx="0.00" cy="23.82" rx="15.31" ry="23.82" fill="#f7efe8" fill-opacity="0.95" /><ellipse cx="-16.84" cy="16.84" rx="15.31" ry="23.82" fill="#f7efe8" fill-opacity="0.95" /><ellipse cx="-23.82" cy="0.00" rx="15.31" ry="23.82" fill="#f7efe8" fill-opacity="0.95" /><ellipse cx="-16.84" cy="-16.84" rx="15.31" ry="23.82" fill="#f7efe8" fill-opacity="0.95" /><ellipse cx="-0.00" cy="-23.82" rx="15.31" ry="23.82" fill="#f7efe8" fill-opacity="0.95" /><ellipse cx="16.84" cy="-16.84" rx="15.31" ry="23.82" fill="#f7efe8" fill-opacity="0.95" />
        <circle cx="0" cy="0" r="15.31" fill="#f0b8a4" />
        <circle cx="0" cy="0" r="7.65" fill="#fff7f0" fill-opacity="0.72" />
      </g>
    </g>
    
    <g transform="translate(392.15 502.05) rotate(0.41)">
      <path d="M 0 0 C -8 91.46, 10 152.43, -6 223.57" stroke="#93aa86" stroke-width="12.19" fill="none" stroke-linecap="round" />
      <ellipse cx="-20" cy="111.78" rx="22.36" ry="42.68" fill="#93aa86" fill-opacity="0.75" transform="rotate(-24)" />
      <ellipse cx="28" cy="138.20" rx="20.32" ry="38.62" fill="#93aa86" fill-opacity="0.66" transform="rotate(20)" />
      <g transform="translate(0 0)">
        <ellipse cx="28.45" cy="0.00" rx="18.29" ry="28.45" fill="#efc7ce" fill-opacity="0.95" /><ellipse cx="20.12" cy="20.12" rx="18.29" ry="28.45" fill="#efc7ce" fill-opacity="0.95" /><ellipse cx="0.00" cy="28.45" rx="18.29" ry="28.45" fill="#efc7ce" fill-opacity="0.95" /><ellipse cx="-20.12" cy="20.12" rx="18.29" ry="28.45" fill="#efc7ce" fill-opacity="0.95" /><ellipse cx="-28.45" cy="0.00" rx="18.29" ry="28.45" fill="#efc7ce" fill-opacity="0.95" /><ellipse cx="-20.12" cy="-20.12" rx="18.29" ry="28.45" fill="#efc7ce" fill-opacity="0.95" /><ellipse cx="-0.00" cy="-28.45" rx="18.29" ry="28.45" fill="#efc7ce" fill-opacity="0.95" /><ellipse cx="20.12" cy="-20.12" rx="18.29" ry="28.45" fill="#efc7ce" fill-opacity="0.95" />
        <circle cx="0" cy="0" r="18.29" fill="#f0b8a4" />
        <circle cx="0" cy="0" r="9.15" fill="#fff7f0" fill-opacity="0.72" />
      </g>
    </g>
    
    <g transform="translate(398.56 433.00) rotate(-11.11)">
      <path d="M 0 0 C -8 97.63, 10 162.72, -6 238.66" stroke="#7c9573" stroke-width="13.02" fill="none" stroke-linecap="round" />
      <ellipse cx="-20" cy="119.33" rx="23.87" ry="45.56" fill="#7c9573" fill-opacity="0.75" transform="rotate(-24)" />
      <ellipse cx="28" cy="147.53" rx="21.70" ry="41.22" fill="#7c9573" fill-opacity="0.66" transform="rotate(20)" />
      <g transform="translate(0 0)">
        <ellipse cx="30.37" cy="0.00" rx="19.53" ry="30.37" fill="#f7d7d8" fill-opacity="0.95" /><ellipse cx="21.48" cy="21.48" rx="19.53" ry="30.37" fill="#f7d7d8" fill-opacity="0.95" /><ellipse cx="0.00" cy="30.37" rx="19.53" ry="30.37" fill="#f7d7d8" fill-opacity="0.95" /><ellipse cx="-21.48" cy="21.48" rx="19.53" ry="30.37" fill="#f7d7d8" fill-opacity="0.95" /><ellipse cx="-30.37" cy="0.00" rx="19.53" ry="30.37" fill="#f7d7d8" fill-opacity="0.95" /><ellipse cx="-21.48" cy="-21.48" rx="19.53" ry="30.37" fill="#f7d7d8" fill-opacity="0.95" /><ellipse cx="-0.00" cy="-30.37" rx="19.53" ry="30.37" fill="#f7d7d8" fill-opacity="0.95" /><ellipse cx="21.48" cy="-21.48" rx="19.53" ry="30.37" fill="#f7d7d8" fill-opacity="0.95" />
        <circle cx="0" cy="0" r="19.53" fill="#f0b8a4" />
        <circle cx="0" cy="0" r="9.76" fill="#fff7f0" fill-opacity="0.72" />
      </g>
    </g>
    
    <g transform="translate(381.75 348.47) rotate(-5.98)">
      <path d="M 0 0 C -8 91.62, 10 152.69, -6 223.95" stroke="#aebc9f" stroke-width="12.22" fill="none" stroke-linecap="round" />
      <ellipse cx="-20" cy="111.98" rx="22.40" ry="42.75" fill="#aebc9f" fill-opacity="0.75" transform="rotate(-24)" />
      <ellipse cx="28" cy="138.44" rx="20.36" ry="38.68" fill="#aebc9f" fill-opacity="0.66" transform="rotate(20)" />
      <g transform="translate(0 0)">
        <ellipse cx="28.50" cy="0.00" rx="18.32" ry="28.50" fill="#f4e4ca" fill-opacity="0.95" /><ellipse cx="20.15" cy="20.15" rx="18.32" ry="28.50" fill="#f4e4ca" fill-opacity="0.95" /><ellipse cx="0.00" cy="28.50" rx="18.32" ry="28.50" fill="#f4e4ca" fill-opacity="0.95" /><ellipse cx="-20.15" cy="20.15" rx="18.32" ry="28.50" fill="#f4e4ca" fill-opacity="0.95" /><ellipse cx="-28.50" cy="0.00" rx="18.32" ry="28.50" fill="#f4e4ca" fill-opacity="0.95" /><ellipse cx="-20.15" cy="-20.15" rx="18.32" ry="28.50" fill="#f4e4ca" fill-opacity="0.95" /><ellipse cx="-0.00" cy="-28.50" rx="18.32" ry="28.50" fill="#f4e4ca" fill-opacity="0.95" /><ellipse cx="20.15" cy="-20.15" rx="18.32" ry="28.50" fill="#f4e4ca" fill-opacity="0.95" />
        <circle cx="0" cy="0" r="18.32" fill="#f0b8a4" />
        <circle cx="0" cy="0" r="9.16" fill="#fff7f0" fill-opacity="0.72" />
      </g>
    </g>
    
    <g transform="translate(661.17 415.50) rotate(15.36)">
      <path d="M 0 0 C -8 101.45, 10 169.08, -6 247.99" stroke="#93aa86" stroke-width="13.53" fill="none" stroke-linecap="round" />
      <ellipse cx="-20" cy="124.00" rx="24.80" ry="47.34" fill="#93aa86" fill-opacity="0.75" transform="rotate(-24)" />
      <ellipse cx="28" cy="153.30" rx="22.54" ry="42.83" fill="#93aa86" fill-opacity="0.66" transform="rotate(20)" />
      <g transform="translate(0 0)">
        <ellipse cx="31.56" cy="0.00" rx="20.29" ry="31.56" fill="#f7efe8" fill-opacity="0.95" /><ellipse cx="22.32" cy="22.32" rx="20.29" ry="31.56" fill="#f7efe8" fill-opacity="0.95" /><ellipse cx="0.00" cy="31.56" rx="20.29" ry="31.56" fill="#f7efe8" fill-opacity="0.95" /><ellipse cx="-22.32" cy="22.32" rx="20.29" ry="31.56" fill="#f7efe8" fill-opacity="0.95" /><ellipse cx="-31.56" cy="0.00" rx="20.29" ry="31.56" fill="#f7efe8" fill-opacity="0.95" /><ellipse cx="-22.32" cy="-22.32" rx="20.29" ry="31.56" fill="#f7efe8" fill-opacity="0.95" /><ellipse cx="-0.00" cy="-31.56" rx="20.29" ry="31.56" fill="#f7efe8" fill-opacity="0.95" /><ellipse cx="22.32" cy="-22.32" rx="20.29" ry="31.56" fill="#f7efe8" fill-opacity="0.95" />
        <circle cx="0" cy="0" r="20.29" fill="#f0b8a4" />
        <circle cx="0" cy="0" r="10.15" fill="#fff7f0" fill-opacity="0.72" />
      </g>
    </g>
    
  </g>
  <path d="M0 980 C220 920, 420 1030, 900 930 L900 1100 L0 1100 Z" fill="#ffffff" fill-opacity="0.22" />
</svg>
