<svg xmlns="http://www.w3.org/2000/svg" width="900" height="1100" viewBox="0 0 900 1100">
  <defs>
    <linearGradient id="bg" x1="0" y1="0" x2="0" y2="1">
      <stop offset="0%" stop-color="#fff5f1" />
      <stop offset="100%" stop-color="#f7efe4" />
    </linearGradient>
    <filter id="shadow" x="-20%" y="-20%" width="140%" height="140%">
      <feDropShadow dx="0" dy="22" stdDeviation="24" flood-color="#6c5d4f" flood-opacity="0.12" />
    </filter>
  </defs>
  <rect width="100%" height="100%" fill="url(#bg)" />
  <circle cx="730" cy="180" r="140" fill="#ffffff" fill-opacity="0.18" />
  <circle cx="150" cy="260" r="90" fill="#ffffff" fill-opacity="0.12" />
  
      <rect x="70" y="72" width="300" height="92" rx="24" fill="#ffffff" fill-opacity="0.34" />
      <text x="98" y="120" fill="#2f3a31" font-size="32" font-family="'PingFang SC','Microsoft YaHei',sans-serif" font-weight="600">治愈周末</text>
      <text x="98" y="152" fill="#4e6152" font-size="18" font-family="'PingFang SC','Microsoft YaHei',sans-serif">送礼 · 日常花礼</text>
    
  <g filter="url(#shadow)">
    <path d="M250 780 L650 780 L730 1080 L170 1080 Z" fill="#ece2d6" fill-opacity="0.88" />
  </g>
  <g>
    
    <g transform="translate(399.36 499.28) rotate(-20.71)">
      <path d="M 0 0 C -8 88.86, 10 148.10, -6 217.21" stroke="#93aa86" stroke-width="11.85" fill="none" stroke-linecap="round" />
      <ellipse cx="-20" cy="108.60" rx="21.72" ry="41.47" fill="#93aa86" fill-opacity="0.75" transform="rotate(-24)" />
      <ellipse cx="28" cy="134.27" rx="19.75" ry="37.52" fill="#93aa86" fill-opacity="0.66" transform="rotate(20)" />
      <g transform="translate(0 0)">
        <ellipse cx="27.64" cy="0.00" rx="17.77" ry="27.64" fill="#f7d7d8" fill-opacity="0.95" /><ellipse cx="19.55" cy="19.55" rx="17.77" ry="27.64" fill="#f7d7d8" fill-opacity="0.95" /><ellipse cx="0.00" cy="27.64" rx="17.77" ry="27.64" fill="#f7d7d8" fill-opacity="0.95" /><ellipse cx="-19.55" cy="19.55" rx="17.77" ry="27.64" fill="#f7d7d8" fill-opacity="0.95" /><ellipse cx="-27.64" cy="0.00" rx="17.77" ry="27.64" fill="#f7d7d8" fill-opacity="0.95" /><ellipse cx="-19.55" cy="-19.55" rx="17.77" ry="27.64" fill="#f7d7d8" fill-opacity="0.95" /><ellipse cx="-0.00" cy="-27.64" rx="17.77" ry="27.64" fill="#f7d7d8" fill-opacity="0.95" /><ellipse cx="19.55" cy="-19.55" rx="17.77" ry="27.64" fill="#f7d7d8" fill-opacity="0.95" />
        <circle cx="0" cy="0" r="17.77" fill="#f0b8a4" />
        <circle cx="0" cy="0" r="8.89" fill="#fff7f0" fill-opacity="0.72" />
      </g>
    </g>
    
    <g transform="translate(214.92 522.63) rotate(15.17)">
      <path d="M 0 0 C -8 102.19, 10 170.31, -6 249.80" stroke="#7c9573" stroke-width="13.63" fill="none" stroke-linecap="round" />
      <ellipse cx="-20" cy="124.90" rx="24.98" ry="47.69" fill="#7c9573" fill-opacity="0.75" transform="rotate(-24)" />
      <ellipse cx="28" cy="154.42" rx="22.71" ry="43.15" fill="#7c9573" fill-opacity="0.66" transform="rotate(20)" />
      <g transform="translate(0 0)">
        <ellipse cx="31.79" cy="0.00" rx="20.44" ry="31.79" fill="#f4e4ca" fill-opacity="0.95" /><ellipse cx="22.48" cy="22.48" rx="20.44" ry="31.79" fill="#f4e4ca" fill-opacity="0.95" /><ellipse cx="0.00" cy="31.79" rx="20.44" ry="31.79" fill="#f4e4ca" fill-opacity="0.95" /><ellipse cx="-22.48" cy="22.48" rx="20.44" ry="31.79" fill="#f4e4ca" fill-opacity="0.95" /><ellipse cx="-31.79" cy="0.00" rx="20.44" ry="31.79" fill="#f4e4ca" fill-opacity="0.95" /><ellipse cx="-22.48" cy="-22.48" rx="20.44" ry="31.79" fill="#f4e4ca" fill-opacity="0.95" /><ellipse cx="-0.00" cy="-31.79" rx="20.44" ry="31.79" fill="#f4e4ca" fill-opacity="0.95" /><ellipse cx="22.48" cy="-22.48" rx="20.44" ry="31.79" fill="#f4e4ca" fill-opacity="0.95" />
        <circle cx="0" cy="0" r="20.44" fill="#f0b8a4" />
        <circle cx="0" cy="0" r="10.22" fill="#fff7f0" fill-opacity="0.72" />
      </g>
    </g>
    
    <g transform="translate(656.89 537.46) rotate(25.82)">
      <path d="M 0 0 C -8 101.04, 10 168.40, -6 246.99" stroke="#aebc9f" stroke-width="13.47" fill="none" stroke-linecap="round" />
      <ellipse cx="-20" cy="123.50" rx="24.70" ry="47.15" fill="#aebc9f" fill-opacity="0.75" transform="rotate(-24)" />
      <ellipse cx="28" cy="152.69" rx="22.45" ry="42.66" fill="#aebc9f" fill-opacity="0.66" transform="rotate(20)" />
      <g transform="translate(0 0)">
        <ellipse cx="31.44" cy="0.00" rx="20.21" ry="31.44" fill="#f7efe8" fill-opacity="0.95" /><ellipse cx="22.23" cy="22.23" rx="20.21" ry="31.44" fill="#f7efe8" fill-opacity="0.95" /><ellipse cx="0.00" cy="31.44" rx="20.21" ry="31.44" fill="#f7efe8" fill-opacity="0.95" /><ellipse cx="-22.23" cy="22.23" rx="20.21" ry="31.44" fill="#f7efe8" fill-opacity="0.95" /><ellipse cx="-31.44" cy="0.00" rx="20.21" ry="31.44" fill="#f7efe8" fill-opacity="0.95" /><ellipse cx="-22.23" cy="-22.23" rx="20.21" ry="31.44" fill="#f7efe8" fill-opacity="0.95" /><ellipse cx="-0.00" cy="-31.44" rx="20.21" ry="31.44" fill="#f7efe8" fill-opacity="0.95" /><ellipse cx="22.23" cy="-22.23" rx="20.21" ry="31.44" fill="#f7efe8" fill-opacity="0.95" />
        <circle cx="0" cy="0" r="20.21" fill="#f0b8a4" />
        <circle cx="0" cy="0" r="10.10" fill="#fff7f0" fill-opacity="0.72" />
      </g>
    </g>
    
    <g transform="translate(323.11 559.41) rotate(-24.42)">
      <path d="M 0 0 C -8 103.20, 10 172.00, -6 252.27" stroke="#93aa86" stroke-width="13.76" fill="none" stroke-linecap="round" />
      <ellipse cx="-20" cy="126.13" rx="25.23" ry="48.16" fill="#93aa86" fill-opacity="0.75" transform="rotate(-24)" />
      <ellipse cx="28" cy="155.95" rx="22.93" ry="43.57" fill="#93aa86" fill-opacity="0.66" transform="rotate(20)" />
      <g transform="translate(0 0)">
        <ellipse cx="32.11" cy="0.00" rx="20.64" ry="32.11" fill="#efc7ce" fill-opacity="0.95" /><ellipse cx="22.70" cy="22.70" rx="20.64" ry="32.11" fill="#efc7ce" fill-opacity="0.95" /><ellipse cx="0.00" cy="32.11" rx="20.64" ry="32.11" fill="#efc7ce" fill-opacity="0.95" /><ellipse cx="-22.70" cy="22.70" rx="20.64" ry="32.11" fill="#efc7ce" fill-opacity="0.95" /><ellipse cx="-32.11" cy="0.00" rx="20.64" ry="32.11" fill="#efc7ce" fill-opacity="0.95" /><ellipse cx="-22.70" cy="-22.70" rx="20.64" ry="32.11" fill="#efc7ce" fill-opacity="0.95" /><ellipse cx="-0.00" cy="-32.11" rx="20.64" ry="32.11" fill="#efc7ce" fill-opacity="0.95" /><ellipse cx="22.70" cy="-22.70" rx="20.64" ry="32.11" fill="#efc7ce" fill-opacity="0.95" />
        <circle cx="0" cy="0" r="20.64" fill="#f0b8a4" />
        <circle cx="0" cy="0" r="10.32" fill="#fff7f0" fill-opacity="0.72" />
      </g>
    </g>
    
    <g transform="translate(644.04 446.11) rotate(0.52)">
      <path d="M 0 0 C -8 98.05, 10 163.42, -6 239.68" stroke="#7c9573" stroke-width="13.07" fill="none" stroke-linecap="round" />
      <ellipse cx="-20" cy="119.84" rx="23.97" ry="45.76" fill="#7c9573" fill-opacity="0.75" transform="rotate(-24)" />
      <ellipse cx="28" cy="148.16" rx="21.79" ry="41.40" fill="#7c9573" fill-opacity="0.66" transform="rotate(20)" />
      <g transform="translate(0 0)">
        <ellipse cx="30.50" cy="0.00" rx="19.61" ry="30.50" fill="#f7d7d8" fill-opacity="0.95" /><ellipse cx="21.57" cy="21.57" rx="19.61" ry="30.50" fill="#f7d7d8" fill-opacity="0.95" /><ellipse cx="0.00" cy="30.50" rx="19.61" ry="30.50" fill="#f7d7d8" fill-opacity="0.95" /><ellipse cx="-21.57" cy="21.57" rx="19.61" ry="30.50" fill="#f7d7d8" fill-opacity="0.95" /><ellipse cx="-30.50" cy="0.00" rx="19.61" ry="30.50" fill="#f7d7d8" fill-opacity="0.95" /><ellipse cx="-21.57" cy="-21.57" rx="19.61" ry="30.50" fill="#f7d7d8" fill-opacity="0.95" /><ellipse cx="-0.00" cy="-30.50" rx="19.61" ry="30.50" fill="#f7d7d8" fill-opacity="0.95" /><ellipse cx="21.57" cy="-21.57" rx="19.61" ry="30.50" fill="#f7d7d8" fill-opacity="0.95" />
        <circle cx="0" cy="0" r="19.61" fill="#f0b8a4" />
        <circle cx="0" cy="0" r="9.81" fill="#fff7f0" fill-opacity="0.72" />
      </g>
    </g>
    
    <g transform="translate(689.40 551.07) rotate(3.35)">
      <path d="M 0 0 C -8 80.91, 10 134.85, -6 197.77" stroke="#aebc9f" stroke-width="10.79" fill="none" stroke-linecap="round" />
      <ellipse cx="-20" cy="98.89" rx="19.78" ry="37.76" fill="#aebc9f" fill-opacity="0.75" transform="rotate(-24)" />
      <ellipse cx="28" cy="122.26" rx="17.98" ry="34.16" fill="#aebc9f" fill-opacity="0.66" transform="rotate(20)" />
      <g transform="translate(0 0)">
        <ellipse cx="25.17" cy="0.00" rx="16.18" ry="25.17" fill="#f4e4ca" fill-opacity="0.95" /><ellipse cx="17.80" cy="17.80" rx="16.18" ry="25.17" fill="#f4e4ca" fill-opacity="0.95" /><ellipse cx="0.00" cy="25.17" rx="16.18" ry="25.17" fill="#f4e4ca" fill-opacity="0.95" /><ellipse cx="-17.80" cy="17.80" rx="16.18" ry="25.17" fill="#f4e4ca" fill-opacity="0.95" /><ellipse cx="-25.17" cy="0.00" rx="16.18" ry="25.17" fill="#f4e4ca" fill-opacity="0.95" /><ellipse cx="-17.80" cy="-17.80" rx="16.18" ry="25.17" fill="#f4e4ca" fill-opacity="0.95" /><ellipse cx="-0.00" cy="-25.17" rx="16.18" ry="25.17" fill="#f4e4ca" fill-opacity="0.95" /><ellipse cx="17.80" cy="-17.80" rx="16.18" ry="25.17" fill="#f4e4ca" fill-opacity="0.95" />
        <circle cx="0" cy="0" r="16.18" fill="#f0b8a4" />
        <circle cx="0" cy="0" r="8.09" fill="#fff7f0" fill-opacity="0.72" />
      </g>
    </g>
    
    <g transform="translate(249.66 544.87) rotate(-22.06)">
      <path d="M 0 0 C -8 112.08, 10 186.81, -6 273.98" stroke="#93aa86" stroke-width="14.94" fill="none" stroke-linecap="round" />
      <ellipse cx="-20" cy="136.99" rx="27.40" ry="52.31" fill="#93aa86" fill-opacity="0.75" transform="rotate(-24)" />
      <ellipse cx="28" cy="169.37" rx="24.91" ry="47.32" fill="#93aa86" fill-opacity="0.66" transform="rotate(20)" />
      <g transform="translate(0 0)">
        <ellipse cx="34.87" cy="0.00" rx="22.42" ry="34.87" fill="#f7efe8" fill-opacity="0.95" /><ellipse cx="24.66" cy="24.66" rx="22.42" ry="34.87" fill="#f7efe8" fill-opacity="0.95" /><ellipse cx="0.00" cy="34.87" rx="22.42" ry="34.87" fill="#f7efe8" fill-opacity="0.95" /><ellipse cx="-24.66" cy="24.66" rx="22.42" ry="34.87" fill="#f7efe8" fill-opacity="0.95" /><ellipse cx="-34.87" cy="0.00" rx="22.42" ry="34.87" fill="#f7efe8" fill-opacity="0.95" /><ellipse cx="-24.66" cy="-24.66" rx="22.42" ry="34.87" fill="#f7efe8" fill-opacity="0.95" /><ellipse cx="-0.00" cy="-34.87" rx="22.42" ry="34.87" fill="#f7efe8" fill-opacity="0.95" /><ellipse cx="24.66" cy="-24.66" rx="22.42" ry="34.87" fill="#f7efe8" fill-opacity="0.95" />
        <circle cx="0" cy="0" r="22.42" fill="#f0b8a4" />
        <circle cx="0" cy="0" r="11.21" fill="#fff7f0" fill-opacity="0.72" />
      </g>
    </g>
    
  </g>
  <path d="M0 980 C220 920, 420 1030, 900 930 L900 1100 L0 1100 Z" fill="#ffffff" fill-opacity="0.22" />
</svg>
