<svg xmlns="http://www.w3.org/2000/svg" width="900" height="1100" viewBox="0 0 900 1100">
  <defs>
    <linearGradient id="bg" x1="0" y1="0" x2="0" y2="1">
      <stop offset="0%" stop-color="#fff5f1" />
      <stop offset="100%" stop-color="#f7efe4" />
    </linearGradient>
    <filter id="shadow" x="-20%" y="-20%" width="140%" height="140%">
      <feDropShadow dx="0" dy="22" stdDeviation="24" flood-color="#6c5d4f" flood-opacity="0.12" />
    </filter>
  </defs>
  <rect width="100%" height="100%" fill="url(#bg)" />
  <circle cx="730" cy="180" r="140" fill="#ffffff" fill-opacity="0.18" />
  <circle cx="150" cy="260" r="90" fill="#ffffff" fill-opacity="0.12" />
  
      <rect x="70" y="72" width="300" height="92" rx="24" fill="#ffffff" fill-opacity="0.34" />
      <text x="98" y="120" fill="#2f3a31" font-size="32" font-family="'PingFang SC','Microsoft YaHei',sans-serif" font-weight="600">粉雾来信</text>
      <text x="98" y="152" fill="#4e6152" font-size="18" font-family="'PingFang SC','Microsoft YaHei',sans-serif">探望 · 粉白系</text>
    
  <g filter="url(#shadow)">
    <path d="M250 780 L650 780 L730 1080 L170 1080 Z" fill="#ece2d6" fill-opacity="0.88" />
  </g>
  <g>
    
    <g transform="translate(387.65 351.78) rotate(-21.14)">
      <path d="M 0 0 C -8 109.37, 10 182.29, -6 267.36" stroke="#93aa86" stroke-width="14.58" fill="none" stroke-linecap="round" />
      <ellipse cx="-20" cy="133.68" rx="26.74" ry="51.04" fill="#93aa86" fill-opacity="0.75" transform="rotate(-24)" />
      <ellipse cx="28" cy="165.27" rx="24.31" ry="46.18" fill="#93aa86" fill-opacity="0.66" transform="rotate(20)" />
      <g transform="translate(0 0)">
        <ellipse cx="34.03" cy="0.00" rx="21.87" ry="34.03" fill="#f7d7d8" fill-opacity="0.95" /><ellipse cx="24.06" cy="24.06" rx="21.87" ry="34.03" fill="#f7d7d8" fill-opacity="0.95" /><ellipse cx="0.00" cy="34.03" rx="21.87" ry="34.03" fill="#f7d7d8" fill-opacity="0.95" /><ellipse cx="-24.06" cy="24.06" rx="21.87" ry="34.03" fill="#f7d7d8" fill-opacity="0.95" /><ellipse cx="-34.03" cy="0.00" rx="21.87" ry="34.03" fill="#f7d7d8" fill-opacity="0.95" /><ellipse cx="-24.06" cy="-24.06" rx="21.87" ry="34.03" fill="#f7d7d8" fill-opacity="0.95" /><ellipse cx="-0.00" cy="-34.03" rx="21.87" ry="34.03" fill="#f7d7d8" fill-opacity="0.95" /><ellipse cx="24.06" cy="-24.06" rx="21.87" ry="34.03" fill="#f7d7d8" fill-opacity="0.95" />
        <circle cx="0" cy="0" r="21.87" fill="#f0b8a4" />
        <circle cx="0" cy="0" r="10.94" fill="#fff7f0" fill-opacity="0.72" />
      </g>
    </g>
    
    <g transform="translate(578.90 503.03) rotate(10.74)">
      <path d="M 0 0 C -8 110.25, 10 183.75, -6 269.50" stroke="#7c9573" stroke-width="14.70" fill="none" stroke-linecap="round" />
      <ellipse cx="-20" cy="134.75" rx="26.95" ry="51.45" fill="#7c9573" fill-opacity="0.75" transform="rotate(-24)" />
      <ellipse cx="28" cy="166.60" rx="24.50" ry="46.55" fill="#7c9573" fill-opacity="0.66" transform="rotate(20)" />
      <g transform="translate(0 0)">
        <ellipse cx="34.30" cy="0.00" rx="22.05" ry="34.30" fill="#f4e4ca" fill-opacity="0.95" /><ellipse cx="24.25" cy="24.25" rx="22.05" ry="34.30" fill="#f4e4ca" fill-opacity="0.95" /><ellipse cx="0.00" cy="34.30" rx="22.05" ry="34.30" fill="#f4e4ca" fill-opacity="0.95" /><ellipse cx="-24.25" cy="24.25" rx="22.05" ry="34.30" fill="#f4e4ca" fill-opacity="0.95" /><ellipse cx="-34.30" cy="0.00" rx="22.05" ry="34.30" fill="#f4e4ca" fill-opacity="0.95" /><ellipse cx="-24.25" cy="-24.25" rx="22.05" ry="34.30" fill="#f4e4ca" fill-opacity="0.95" /><ellipse cx="-0.00" cy="-34.30" rx="22.05" ry="34.30" fill="#f4e4ca" fill-opacity="0.95" /><ellipse cx="24.25" cy="-24.25" rx="22.05" ry="34.30" fill="#f4e4ca" fill-opacity="0.95" />
        <circle cx="0" cy="0" r="22.05" fill="#f0b8a4" />
        <circle cx="0" cy="0" r="11.02" fill="#fff7f0" fill-opacity="0.72" />
      </g>
    </g>
    
    <g transform="translate(253.53 411.62) rotate(17.89)">
      <path d="M 0 0 C -8 81.57, 10 135.95, -6 199.39" stroke="#aebc9f" stroke-width="10.88" fill="none" stroke-linecap="round" />
      <ellipse cx="-20" cy="99.70" rx="19.94" ry="38.07" fill="#aebc9f" fill-opacity="0.75" transform="rotate(-24)" />
      <ellipse cx="28" cy="123.26" rx="18.13" ry="34.44" fill="#aebc9f" fill-opacity="0.66" transform="rotate(20)" />
      <g transform="translate(0 0)">
        <ellipse cx="25.38" cy="0.00" rx="16.31" ry="25.38" fill="#f7efe8" fill-opacity="0.95" /><ellipse cx="17.94" cy="17.94" rx="16.31" ry="25.38" fill="#f7efe8" fill-opacity="0.95" /><ellipse cx="0.00" cy="25.38" rx="16.31" ry="25.38" fill="#f7efe8" fill-opacity="0.95" /><ellipse cx="-17.94" cy="17.94" rx="16.31" ry="25.38" fill="#f7efe8" fill-opacity="0.95" /><ellipse cx="-25.38" cy="0.00" rx="16.31" ry="25.38" fill="#f7efe8" fill-opacity="0.95" /><ellipse cx="-17.94" cy="-17.94" rx="16.31" ry="25.38" fill="#f7efe8" fill-opacity="0.95" /><ellipse cx="-0.00" cy="-25.38" rx="16.31" ry="25.38" fill="#f7efe8" fill-opacity="0.95" /><ellipse cx="17.94" cy="-17.94" rx="16.31" ry="25.38" fill="#f7efe8" fill-opacity="0.95" />
        <circle cx="0" cy="0" r="16.31" fill="#f0b8a4" />
        <circle cx="0" cy="0" r="8.16" fill="#fff7f0" fill-opacity="0.72" />
      </g>
    </g>
    
    <g transform="translate(706.74 376.58) rotate(2.02)">
      <path d="M 0 0 C -8 87.54, 10 145.90, -6 213.98" stroke="#93aa86" stroke-width="11.67" fill="none" stroke-linecap="round" />
      <ellipse cx="-20" cy="106.99" rx="21.40" ry="40.85" fill="#93aa86" fill-opacity="0.75" transform="rotate(-24)" />
      <ellipse cx="28" cy="132.28" rx="19.45" ry="36.96" fill="#93aa86" fill-opacity="0.66" transform="rotate(20)" />
      <g transform="translate(0 0)">
        <ellipse cx="27.23" cy="0.00" rx="17.51" ry="27.23" fill="#efc7ce" fill-opacity="0.95" /><ellipse cx="19.26" cy="19.26" rx="17.51" ry="27.23" fill="#efc7ce" fill-opacity="0.95" /><ellipse cx="0.00" cy="27.23" rx="17.51" ry="27.23" fill="#efc7ce" fill-opacity="0.95" /><ellipse cx="-19.26" cy="19.26" rx="17.51" ry="27.23" fill="#efc7ce" fill-opacity="0.95" /><ellipse cx="-27.23" cy="0.00" rx="17.51" ry="27.23" fill="#efc7ce" fill-opacity="0.95" /><ellipse cx="-19.26" cy="-19.26" rx="17.51" ry="27.23" fill="#efc7ce" fill-opacity="0.95" /><ellipse cx="-0.00" cy="-27.23" rx="17.51" ry="27.23" fill="#efc7ce" fill-opacity="0.95" /><ellipse cx="19.26" cy="-19.26" rx="17.51" ry="27.23" fill="#efc7ce" fill-opacity="0.95" />
        <circle cx="0" cy="0" r="17.51" fill="#f0b8a4" />
        <circle cx="0" cy="0" r="8.75" fill="#fff7f0" fill-opacity="0.72" />
      </g>
    </g>
    
    <g transform="translate(291.37 486.80) rotate(23.37)">
      <path d="M 0 0 C -8 93.73, 10 156.21, -6 229.11" stroke="#7c9573" stroke-width="12.50" fill="none" stroke-linecap="round" />
      <ellipse cx="-20" cy="114.56" rx="22.91" ry="43.74" fill="#7c9573" fill-opacity="0.75" transform="rotate(-24)" />
      <ellipse cx="28" cy="141.63" rx="20.83" ry="39.57" fill="#7c9573" fill-opacity="0.66" transform="rotate(20)" />
      <g transform="translate(0 0)">
        <ellipse cx="29.16" cy="0.00" rx="18.75" ry="29.16" fill="#f7d7d8" fill-opacity="0.95" /><ellipse cx="20.62" cy="20.62" rx="18.75" ry="29.16" fill="#f7d7d8" fill-opacity="0.95" /><ellipse cx="0.00" cy="29.16" rx="18.75" ry="29.16" fill="#f7d7d8" fill-opacity="0.95" /><ellipse cx="-20.62" cy="20.62" rx="18.75" ry="29.16" fill="#f7d7d8" fill-opacity="0.95" /><ellipse cx="-29.16" cy="0.00" rx="18.75" ry="29.16" fill="#f7d7d8" fill-opacity="0.95" /><ellipse cx="-20.62" cy="-20.62" rx="18.75" ry="29.16" fill="#f7d7d8" fill-opacity="0.95" /><ellipse cx="-0.00" cy="-29.16" rx="18.75" ry="29.16" fill="#f7d7d8" fill-opacity="0.95" /><ellipse cx="20.62" cy="-20.62" rx="18.75" ry="29.16" fill="#f7d7d8" fill-opacity="0.95" />
        <circle cx="0" cy="0" r="18.75" fill="#f0b8a4" />
        <circle cx="0" cy="0" r="9.37" fill="#fff7f0" fill-opacity="0.72" />
      </g>
    </g>
    
    <g transform="translate(191.10 375.46) rotate(-12.62)">
      <path d="M 0 0 C -8 89.99, 10 149.98, -6 219.97" stroke="#aebc9f" stroke-width="12.00" fill="none" stroke-linecap="round" />
      <ellipse cx="-20" cy="109.99" rx="22.00" ry="41.99" fill="#aebc9f" fill-opacity="0.75" transform="rotate(-24)" />
      <ellipse cx="28" cy="135.98" rx="20.00" ry="37.99" fill="#aebc9f" fill-opacity="0.66" transform="rotate(20)" />
      <g transform="translate(0 0)">
        <ellipse cx="28.00" cy="0.00" rx="18.00" ry="28.00" fill="#f4e4ca" fill-opacity="0.95" /><ellipse cx="19.80" cy="19.80" rx="18.00" ry="28.00" fill="#f4e4ca" fill-opacity="0.95" /><ellipse cx="0.00" cy="28.00" rx="18.00" ry="28.00" fill="#f4e4ca" fill-opacity="0.95" /><ellipse cx="-19.80" cy="19.80" rx="18.00" ry="28.00" fill="#f4e4ca" fill-opacity="0.95" /><ellipse cx="-28.00" cy="0.00" rx="18.00" ry="28.00" fill="#f4e4ca" fill-opacity="0.95" /><ellipse cx="-19.80" cy="-19.80" rx="18.00" ry="28.00" fill="#f4e4ca" fill-opacity="0.95" /><ellipse cx="-0.00" cy="-28.00" rx="18.00" ry="28.00" fill="#f4e4ca" fill-opacity="0.95" /><ellipse cx="19.80" cy="-19.80" rx="18.00" ry="28.00" fill="#f4e4ca" fill-opacity="0.95" />
        <circle cx="0" cy="0" r="18.00" fill="#f0b8a4" />
        <circle cx="0" cy="0" r="9.00" fill="#fff7f0" fill-opacity="0.72" />
      </g>
    </g>
    
    <g transform="translate(528.49 459.19) rotate(-6.97)">
      <path d="M 0 0 C -8 95.61, 10 159.36, -6 233.72" stroke="#93aa86" stroke-width="12.75" fill="none" stroke-linecap="round" />
      <ellipse cx="-20" cy="116.86" rx="23.37" ry="44.62" fill="#93aa86" fill-opacity="0.75" transform="rotate(-24)" />
      <ellipse cx="28" cy="144.48" rx="21.25" ry="40.37" fill="#93aa86" fill-opacity="0.66" transform="rotate(20)" />
      <g transform="translate(0 0)">
        <ellipse cx="29.75" cy="0.00" rx="19.12" ry="29.75" fill="#f7efe8" fill-opacity="0.95" /><ellipse cx="21.03" cy="21.03" rx="19.12" ry="29.75" fill="#f7efe8" fill-opacity="0.95" /><ellipse cx="0.00" cy="29.75" rx="19.12" ry="29.75" fill="#f7efe8" fill-opacity="0.95" /><ellipse cx="-21.03" cy="21.03" rx="19.12" ry="29.75" fill="#f7efe8" fill-opacity="0.95" /><ellipse cx="-29.75" cy="0.00" rx="19.12" ry="29.75" fill="#f7efe8" fill-opacity="0.95" /><ellipse cx="-21.03" cy="-21.03" rx="19.12" ry="29.75" fill="#f7efe8" fill-opacity="0.95" /><ellipse cx="-0.00" cy="-29.75" rx="19.12" ry="29.75" fill="#f7efe8" fill-opacity="0.95" /><ellipse cx="21.03" cy="-21.03" rx="19.12" ry="29.75" fill="#f7efe8" fill-opacity="0.95" />
        <circle cx="0" cy="0" r="19.12" fill="#f0b8a4" />
        <circle cx="0" cy="0" r="9.56" fill="#fff7f0" fill-opacity="0.72" />
      </g>
    </g>
    
  </g>
  <path d="M0 980 C220 920, 420 1030, 900 930 L900 1100 L0 1100 Z" fill="#ffffff" fill-opacity="0.22" />
</svg>
