<svg xmlns="http://www.w3.org/2000/svg" width="900" height="1100" viewBox="0 0 900 1100">
  <defs>
    <linearGradient id="bg" x1="0" y1="0" x2="0" y2="1">
      <stop offset="0%" stop-color="#fff5f1" />
      <stop offset="100%" stop-color="#f7efe4" />
    </linearGradient>
    <filter id="shadow" x="-20%" y="-20%" width="140%" height="140%">
      <feDropShadow dx="0" dy="22" stdDeviation="24" flood-color="#6c5d4f" flood-opacity="0.12" />
    </filter>
  </defs>
  <rect width="100%" height="100%" fill="url(#bg)" />
  <circle cx="730" cy="180" r="140" fill="#ffffff" fill-opacity="0.18" />
  <circle cx="150" cy="260" r="90" fill="#ffffff" fill-opacity="0.12" />
  
      <rect x="70" y="72" width="300" height="92" rx="24" fill="#ffffff" fill-opacity="0.34" />
      <text x="98" y="120" fill="#2f3a31" font-size="32" font-family="'PingFang SC','Microsoft YaHei',sans-serif" font-weight="600">温柔回信</text>
      <text x="98" y="152" fill="#4e6152" font-size="18" font-family="'PingFang SC','Microsoft YaHei',sans-serif">探望 · 粉白系</text>
    
  <g filter="url(#shadow)">
    <path d="M250 780 L650 780 L730 1080 L170 1080 Z" fill="#ece2d6" fill-opacity="0.88" />
  </g>
  <g>
    
    <g transform="translate(455.84 370.59) rotate(-3.84)">
      <path d="M 0 0 C -8 91.91, 10 153.19, -6 224.68" stroke="#93aa86" stroke-width="12.26" fill="none" stroke-linecap="round" />
      <ellipse cx="-20" cy="112.34" rx="22.47" ry="42.89" fill="#93aa86" fill-opacity="0.75" transform="rotate(-24)" />
      <ellipse cx="28" cy="138.89" rx="20.43" ry="38.81" fill="#93aa86" fill-opacity="0.66" transform="rotate(20)" />
      <g transform="translate(0 0)">
        <ellipse cx="28.60" cy="0.00" rx="18.38" ry="28.60" fill="#f7d7d8" fill-opacity="0.95" /><ellipse cx="20.22" cy="20.22" rx="18.38" ry="28.60" fill="#f7d7d8" fill-opacity="0.95" /><ellipse cx="0.00" cy="28.60" rx="18.38" ry="28.60" fill="#f7d7d8" fill-opacity="0.95" /><ellipse cx="-20.22" cy="20.22" rx="18.38" ry="28.60" fill="#f7d7d8" fill-opacity="0.95" /><ellipse cx="-28.60" cy="0.00" rx="18.38" ry="28.60" fill="#f7d7d8" fill-opacity="0.95" /><ellipse cx="-20.22" cy="-20.22" rx="18.38" ry="28.60" fill="#f7d7d8" fill-opacity="0.95" /><ellipse cx="-0.00" cy="-28.60" rx="18.38" ry="28.60" fill="#f7d7d8" fill-opacity="0.95" /><ellipse cx="20.22" cy="-20.22" rx="18.38" ry="28.60" fill="#f7d7d8" fill-opacity="0.95" />
        <circle cx="0" cy="0" r="18.38" fill="#f0b8a4" />
        <circle cx="0" cy="0" r="9.19" fill="#fff7f0" fill-opacity="0.72" />
      </g>
    </g>
    
    <g transform="translate(682.62 386.17) rotate(-1.88)">
      <path d="M 0 0 C -8 88.70, 10 147.83, -6 216.82" stroke="#7c9573" stroke-width="11.83" fill="none" stroke-linecap="round" />
      <ellipse cx="-20" cy="108.41" rx="21.68" ry="41.39" fill="#7c9573" fill-opacity="0.75" transform="rotate(-24)" />
      <ellipse cx="28" cy="134.04" rx="19.71" ry="37.45" fill="#7c9573" fill-opacity="0.66" transform="rotate(20)" />
      <g transform="translate(0 0)">
        <ellipse cx="27.60" cy="0.00" rx="17.74" ry="27.60" fill="#f4e4ca" fill-opacity="0.95" /><ellipse cx="19.51" cy="19.51" rx="17.74" ry="27.60" fill="#f4e4ca" fill-opacity="0.95" /><ellipse cx="0.00" cy="27.60" rx="17.74" ry="27.60" fill="#f4e4ca" fill-opacity="0.95" /><ellipse cx="-19.51" cy="19.51" rx="17.74" ry="27.60" fill="#f4e4ca" fill-opacity="0.95" /><ellipse cx="-27.60" cy="0.00" rx="17.74" ry="27.60" fill="#f4e4ca" fill-opacity="0.95" /><ellipse cx="-19.51" cy="-19.51" rx="17.74" ry="27.60" fill="#f4e4ca" fill-opacity="0.95" /><ellipse cx="-0.00" cy="-27.60" rx="17.74" ry="27.60" fill="#f4e4ca" fill-opacity="0.95" /><ellipse cx="19.51" cy="-19.51" rx="17.74" ry="27.60" fill="#f4e4ca" fill-opacity="0.95" />
        <circle cx="0" cy="0" r="17.74" fill="#f0b8a4" />
        <circle cx="0" cy="0" r="8.87" fill="#fff7f0" fill-opacity="0.72" />
      </g>
    </g>
    
    <g transform="translate(655.09 372.63) rotate(17.75)">
      <path d="M 0 0 C -8 80.70, 10 134.50, -6 197.26" stroke="#aebc9f" stroke-width="10.76" fill="none" stroke-linecap="round" />
      <ellipse cx="-20" cy="98.63" rx="19.73" ry="37.66" fill="#aebc9f" fill-opacity="0.75" transform="rotate(-24)" />
      <ellipse cx="28" cy="121.94" rx="17.93" ry="34.07" fill="#aebc9f" fill-opacity="0.66" transform="rotate(20)" />
      <g transform="translate(0 0)">
        <ellipse cx="25.11" cy="0.00" rx="16.14" ry="25.11" fill="#f7efe8" fill-opacity="0.95" /><ellipse cx="17.75" cy="17.75" rx="16.14" ry="25.11" fill="#f7efe8" fill-opacity="0.95" /><ellipse cx="0.00" cy="25.11" rx="16.14" ry="25.11" fill="#f7efe8" fill-opacity="0.95" /><ellipse cx="-17.75" cy="17.75" rx="16.14" ry="25.11" fill="#f7efe8" fill-opacity="0.95" /><ellipse cx="-25.11" cy="0.00" rx="16.14" ry="25.11" fill="#f7efe8" fill-opacity="0.95" /><ellipse cx="-17.75" cy="-17.75" rx="16.14" ry="25.11" fill="#f7efe8" fill-opacity="0.95" /><ellipse cx="-0.00" cy="-25.11" rx="16.14" ry="25.11" fill="#f7efe8" fill-opacity="0.95" /><ellipse cx="17.75" cy="-17.75" rx="16.14" ry="25.11" fill="#f7efe8" fill-opacity="0.95" />
        <circle cx="0" cy="0" r="16.14" fill="#f0b8a4" />
        <circle cx="0" cy="0" r="8.07" fill="#fff7f0" fill-opacity="0.72" />
      </g>
    </g>
    
    <g transform="translate(681.50 411.67) rotate(17.32)">
      <path d="M 0 0 C -8 85.16, 10 141.93, -6 208.16" stroke="#93aa86" stroke-width="11.35" fill="none" stroke-linecap="round" />
      <ellipse cx="-20" cy="104.08" rx="20.82" ry="39.74" fill="#93aa86" fill-opacity="0.75" transform="rotate(-24)" />
      <ellipse cx="28" cy="128.68" rx="18.92" ry="35.96" fill="#93aa86" fill-opacity="0.66" transform="rotate(20)" />
      <g transform="translate(0 0)">
        <ellipse cx="26.49" cy="0.00" rx="17.03" ry="26.49" fill="#efc7ce" fill-opacity="0.95" /><ellipse cx="18.73" cy="18.73" rx="17.03" ry="26.49" fill="#efc7ce" fill-opacity="0.95" /><ellipse cx="0.00" cy="26.49" rx="17.03" ry="26.49" fill="#efc7ce" fill-opacity="0.95" /><ellipse cx="-18.73" cy="18.73" rx="17.03" ry="26.49" fill="#efc7ce" fill-opacity="0.95" /><ellipse cx="-26.49" cy="0.00" rx="17.03" ry="26.49" fill="#efc7ce" fill-opacity="0.95" /><ellipse cx="-18.73" cy="-18.73" rx="17.03" ry="26.49" fill="#efc7ce" fill-opacity="0.95" /><ellipse cx="-0.00" cy="-26.49" rx="17.03" ry="26.49" fill="#efc7ce" fill-opacity="0.95" /><ellipse cx="18.73" cy="-18.73" rx="17.03" ry="26.49" fill="#efc7ce" fill-opacity="0.95" />
        <circle cx="0" cy="0" r="17.03" fill="#f0b8a4" />
        <circle cx="0" cy="0" r="8.52" fill="#fff7f0" fill-opacity="0.72" />
      </g>
    </g>
    
    <g transform="translate(495.24 462.57) rotate(25.55)">
      <path d="M 0 0 C -8 87.86, 10 146.44, -6 214.78" stroke="#7c9573" stroke-width="11.72" fill="none" stroke-linecap="round" />
      <ellipse cx="-20" cy="107.39" rx="21.48" ry="41.00" fill="#7c9573" fill-opacity="0.75" transform="rotate(-24)" />
      <ellipse cx="28" cy="132.77" rx="19.53" ry="37.10" fill="#7c9573" fill-opacity="0.66" transform="rotate(20)" />
      <g transform="translate(0 0)">
        <ellipse cx="27.34" cy="0.00" rx="17.57" ry="27.34" fill="#f7d7d8" fill-opacity="0.95" /><ellipse cx="19.33" cy="19.33" rx="17.57" ry="27.34" fill="#f7d7d8" fill-opacity="0.95" /><ellipse cx="0.00" cy="27.34" rx="17.57" ry="27.34" fill="#f7d7d8" fill-opacity="0.95" /><ellipse cx="-19.33" cy="19.33" rx="17.57" ry="27.34" fill="#f7d7d8" fill-opacity="0.95" /><ellipse cx="-27.34" cy="0.00" rx="17.57" ry="27.34" fill="#f7d7d8" fill-opacity="0.95" /><ellipse cx="-19.33" cy="-19.33" rx="17.57" ry="27.34" fill="#f7d7d8" fill-opacity="0.95" /><ellipse cx="-0.00" cy="-27.34" rx="17.57" ry="27.34" fill="#f7d7d8" fill-opacity="0.95" /><ellipse cx="19.33" cy="-19.33" rx="17.57" ry="27.34" fill="#f7d7d8" fill-opacity="0.95" />
        <circle cx="0" cy="0" r="17.57" fill="#f0b8a4" />
        <circle cx="0" cy="0" r="8.79" fill="#fff7f0" fill-opacity="0.72" />
      </g>
    </g>
    
    <g transform="translate(656.36 538.22) rotate(-23.36)">
      <path d="M 0 0 C -8 88.05, 10 146.75, -6 215.24" stroke="#aebc9f" stroke-width="11.74" fill="none" stroke-linecap="round" />
      <ellipse cx="-20" cy="107.62" rx="21.52" ry="41.09" fill="#aebc9f" fill-opacity="0.75" transform="rotate(-24)" />
      <ellipse cx="28" cy="133.06" rx="19.57" ry="37.18" fill="#aebc9f" fill-opacity="0.66" transform="rotate(20)" />
      <g transform="translate(0 0)">
        <ellipse cx="27.39" cy="0.00" rx="17.61" ry="27.39" fill="#f4e4ca" fill-opacity="0.95" /><ellipse cx="19.37" cy="19.37" rx="17.61" ry="27.39" fill="#f4e4ca" fill-opacity="0.95" /><ellipse cx="0.00" cy="27.39" rx="17.61" ry="27.39" fill="#f4e4ca" fill-opacity="0.95" /><ellipse cx="-19.37" cy="19.37" rx="17.61" ry="27.39" fill="#f4e4ca" fill-opacity="0.95" /><ellipse cx="-27.39" cy="0.00" rx="17.61" ry="27.39" fill="#f4e4ca" fill-opacity="0.95" /><ellipse cx="-19.37" cy="-19.37" rx="17.61" ry="27.39" fill="#f4e4ca" fill-opacity="0.95" /><ellipse cx="-0.00" cy="-27.39" rx="17.61" ry="27.39" fill="#f4e4ca" fill-opacity="0.95" /><ellipse cx="19.37" cy="-19.37" rx="17.61" ry="27.39" fill="#f4e4ca" fill-opacity="0.95" />
        <circle cx="0" cy="0" r="17.61" fill="#f0b8a4" />
        <circle cx="0" cy="0" r="8.81" fill="#fff7f0" fill-opacity="0.72" />
      </g>
    </g>
    
  </g>
  <path d="M0 980 C220 920, 420 1030, 900 930 L900 1100 L0 1100 Z" fill="#ffffff" fill-opacity="0.22" />
</svg>
