<svg xmlns="http://www.w3.org/2000/svg" width="900" height="1100" viewBox="0 0 900 1100">
  <defs>
    <linearGradient id="bg" x1="0" y1="0" x2="0" y2="1">
      <stop offset="0%" stop-color="#fff5f1" />
      <stop offset="100%" stop-color="#f7efe4" />
    </linearGradient>
    <filter id="shadow" x="-20%" y="-20%" width="140%" height="140%">
      <feDropShadow dx="0" dy="22" stdDeviation="24" flood-color="#6c5d4f" flood-opacity="0.12" />
    </filter>
  </defs>
  <rect width="100%" height="100%" fill="url(#bg)" />
  <circle cx="730" cy="180" r="140" fill="#ffffff" fill-opacity="0.18" />
  <circle cx="150" cy="260" r="90" fill="#ffffff" fill-opacity="0.12" />
  
      <rect x="70" y="72" width="300" height="92" rx="24" fill="#ffffff" fill-opacity="0.34" />
      <text x="98" y="120" fill="#2f3a31" font-size="32" font-family="'PingFang SC','Microsoft YaHei',sans-serif" font-weight="600">初甜心意</text>
      <text x="98" y="152" fill="#4e6152" font-size="18" font-family="'PingFang SC','Microsoft YaHei',sans-serif">生日 · 奶油色</text>
    
  <g filter="url(#shadow)">
    <path d="M250 780 L650 780 L730 1080 L170 1080 Z" fill="#ece2d6" fill-opacity="0.88" />
  </g>
  <g>
    
    <g transform="translate(378.56 408.67) rotate(7.48)">
      <path d="M 0 0 C -8 70.93, 10 118.22, -6 173.39" stroke="#93aa86" stroke-width="9.46" fill="none" stroke-linecap="round" />
      <ellipse cx="-20" cy="86.69" rx="17.34" ry="33.10" fill="#93aa86" fill-opacity="0.75" transform="rotate(-24)" />
      <ellipse cx="28" cy="107.19" rx="15.76" ry="29.95" fill="#93aa86" fill-opacity="0.66" transform="rotate(20)" />
      <g transform="translate(0 0)">
        <ellipse cx="22.07" cy="0.00" rx="14.19" ry="22.07" fill="#f7d7d8" fill-opacity="0.95" /><ellipse cx="15.60" cy="15.60" rx="14.19" ry="22.07" fill="#f7d7d8" fill-opacity="0.95" /><ellipse cx="0.00" cy="22.07" rx="14.19" ry="22.07" fill="#f7d7d8" fill-opacity="0.95" /><ellipse cx="-15.60" cy="15.60" rx="14.19" ry="22.07" fill="#f7d7d8" fill-opacity="0.95" /><ellipse cx="-22.07" cy="0.00" rx="14.19" ry="22.07" fill="#f7d7d8" fill-opacity="0.95" /><ellipse cx="-15.60" cy="-15.60" rx="14.19" ry="22.07" fill="#f7d7d8" fill-opacity="0.95" /><ellipse cx="-0.00" cy="-22.07" rx="14.19" ry="22.07" fill="#f7d7d8" fill-opacity="0.95" /><ellipse cx="15.60" cy="-15.60" rx="14.19" ry="22.07" fill="#f7d7d8" fill-opacity="0.95" />
        <circle cx="0" cy="0" r="14.19" fill="#f0b8a4" />
        <circle cx="0" cy="0" r="7.09" fill="#fff7f0" fill-opacity="0.72" />
      </g>
    </g>
    
    <g transform="translate(601.45 322.15) rotate(-25.38)">
      <path d="M 0 0 C -8 80.61, 10 134.36, -6 197.06" stroke="#7c9573" stroke-width="10.75" fill="none" stroke-linecap="round" />
      <ellipse cx="-20" cy="98.53" rx="19.71" ry="37.62" fill="#7c9573" fill-opacity="0.75" transform="rotate(-24)" />
      <ellipse cx="28" cy="121.82" rx="17.91" ry="34.04" fill="#7c9573" fill-opacity="0.66" transform="rotate(20)" />
      <g transform="translate(0 0)">
        <ellipse cx="25.08" cy="0.00" rx="16.12" ry="25.08" fill="#f4e4ca" fill-opacity="0.95" /><ellipse cx="17.73" cy="17.73" rx="16.12" ry="25.08" fill="#f4e4ca" fill-opacity="0.95" /><ellipse cx="0.00" cy="25.08" rx="16.12" ry="25.08" fill="#f4e4ca" fill-opacity="0.95" /><ellipse cx="-17.73" cy="17.73" rx="16.12" ry="25.08" fill="#f4e4ca" fill-opacity="0.95" /><ellipse cx="-25.08" cy="0.00" rx="16.12" ry="25.08" fill="#f4e4ca" fill-opacity="0.95" /><ellipse cx="-17.73" cy="-17.73" rx="16.12" ry="25.08" fill="#f4e4ca" fill-opacity="0.95" /><ellipse cx="-0.00" cy="-25.08" rx="16.12" ry="25.08" fill="#f4e4ca" fill-opacity="0.95" /><ellipse cx="17.73" cy="-17.73" rx="16.12" ry="25.08" fill="#f4e4ca" fill-opacity="0.95" />
        <circle cx="0" cy="0" r="16.12" fill="#f0b8a4" />
        <circle cx="0" cy="0" r="8.06" fill="#fff7f0" fill-opacity="0.72" />
      </g>
    </g>
    
    <g transform="translate(362.29 466.50) rotate(12.77)">
      <path d="M 0 0 C -8 80.14, 10 133.57, -6 195.90" stroke="#aebc9f" stroke-width="10.69" fill="none" stroke-linecap="round" />
      <ellipse cx="-20" cy="97.95" rx="19.59" ry="37.40" fill="#aebc9f" fill-opacity="0.75" transform="rotate(-24)" />
      <ellipse cx="28" cy="121.10" rx="17.81" ry="33.84" fill="#aebc9f" fill-opacity="0.66" transform="rotate(20)" />
      <g transform="translate(0 0)">
        <ellipse cx="24.93" cy="0.00" rx="16.03" ry="24.93" fill="#f7efe8" fill-opacity="0.95" /><ellipse cx="17.63" cy="17.63" rx="16.03" ry="24.93" fill="#f7efe8" fill-opacity="0.95" /><ellipse cx="0.00" cy="24.93" rx="16.03" ry="24.93" fill="#f7efe8" fill-opacity="0.95" /><ellipse cx="-17.63" cy="17.63" rx="16.03" ry="24.93" fill="#f7efe8" fill-opacity="0.95" /><ellipse cx="-24.93" cy="0.00" rx="16.03" ry="24.93" fill="#f7efe8" fill-opacity="0.95" /><ellipse cx="-17.63" cy="-17.63" rx="16.03" ry="24.93" fill="#f7efe8" fill-opacity="0.95" /><ellipse cx="-0.00" cy="-24.93" rx="16.03" ry="24.93" fill="#f7efe8" fill-opacity="0.95" /><ellipse cx="17.63" cy="-17.63" rx="16.03" ry="24.93" fill="#f7efe8" fill-opacity="0.95" />
        <circle cx="0" cy="0" r="16.03" fill="#f0b8a4" />
        <circle cx="0" cy="0" r="8.01" fill="#fff7f0" fill-opacity="0.72" />
      </g>
    </g>
    
    <g transform="translate(285.97 336.73) rotate(-13.98)">
      <path d="M 0 0 C -8 101.51, 10 169.19, -6 248.15" stroke="#93aa86" stroke-width="13.54" fill="none" stroke-linecap="round" />
      <ellipse cx="-20" cy="124.07" rx="24.81" ry="47.37" fill="#93aa86" fill-opacity="0.75" transform="rotate(-24)" />
      <ellipse cx="28" cy="153.40" rx="22.56" ry="42.86" fill="#93aa86" fill-opacity="0.66" transform="rotate(20)" />
      <g transform="translate(0 0)">
        <ellipse cx="31.58" cy="0.00" rx="20.30" ry="31.58" fill="#efc7ce" fill-opacity="0.95" /><ellipse cx="22.33" cy="22.33" rx="20.30" ry="31.58" fill="#efc7ce" fill-opacity="0.95" /><ellipse cx="0.00" cy="31.58" rx="20.30" ry="31.58" fill="#efc7ce" fill-opacity="0.95" /><ellipse cx="-22.33" cy="22.33" rx="20.30" ry="31.58" fill="#efc7ce" fill-opacity="0.95" /><ellipse cx="-31.58" cy="0.00" rx="20.30" ry="31.58" fill="#efc7ce" fill-opacity="0.95" /><ellipse cx="-22.33" cy="-22.33" rx="20.30" ry="31.58" fill="#efc7ce" fill-opacity="0.95" /><ellipse cx="-0.00" cy="-31.58" rx="20.30" ry="31.58" fill="#efc7ce" fill-opacity="0.95" /><ellipse cx="22.33" cy="-22.33" rx="20.30" ry="31.58" fill="#efc7ce" fill-opacity="0.95" />
        <circle cx="0" cy="0" r="20.30" fill="#f0b8a4" />
        <circle cx="0" cy="0" r="10.15" fill="#fff7f0" fill-opacity="0.72" />
      </g>
    </g>
    
    <g transform="translate(425.87 431.97) rotate(8.85)">
      <path d="M 0 0 C -8 83.85, 10 139.75, -6 204.97" stroke="#7c9573" stroke-width="11.18" fill="none" stroke-linecap="round" />
      <ellipse cx="-20" cy="102.49" rx="20.50" ry="39.13" fill="#7c9573" fill-opacity="0.75" transform="rotate(-24)" />
      <ellipse cx="28" cy="126.71" rx="18.63" ry="35.40" fill="#7c9573" fill-opacity="0.66" transform="rotate(20)" />
      <g transform="translate(0 0)">
        <ellipse cx="26.09" cy="0.00" rx="16.77" ry="26.09" fill="#f7d7d8" fill-opacity="0.95" /><ellipse cx="18.45" cy="18.45" rx="16.77" ry="26.09" fill="#f7d7d8" fill-opacity="0.95" /><ellipse cx="0.00" cy="26.09" rx="16.77" ry="26.09" fill="#f7d7d8" fill-opacity="0.95" /><ellipse cx="-18.45" cy="18.45" rx="16.77" ry="26.09" fill="#f7d7d8" fill-opacity="0.95" /><ellipse cx="-26.09" cy="0.00" rx="16.77" ry="26.09" fill="#f7d7d8" fill-opacity="0.95" /><ellipse cx="-18.45" cy="-18.45" rx="16.77" ry="26.09" fill="#f7d7d8" fill-opacity="0.95" /><ellipse cx="-0.00" cy="-26.09" rx="16.77" ry="26.09" fill="#f7d7d8" fill-opacity="0.95" /><ellipse cx="18.45" cy="-18.45" rx="16.77" ry="26.09" fill="#f7d7d8" fill-opacity="0.95" />
        <circle cx="0" cy="0" r="16.77" fill="#f0b8a4" />
        <circle cx="0" cy="0" r="8.39" fill="#fff7f0" fill-opacity="0.72" />
      </g>
    </g>
    
    <g transform="translate(606.25 309.96) rotate(-8.65)">
      <path d="M 0 0 C -8 89.79, 10 149.65, -6 219.49" stroke="#aebc9f" stroke-width="11.97" fill="none" stroke-linecap="round" />
      <ellipse cx="-20" cy="109.75" rx="21.95" ry="41.90" fill="#aebc9f" fill-opacity="0.75" transform="rotate(-24)" />
      <ellipse cx="28" cy="135.69" rx="19.95" ry="37.91" fill="#aebc9f" fill-opacity="0.66" transform="rotate(20)" />
      <g transform="translate(0 0)">
        <ellipse cx="27.94" cy="0.00" rx="17.96" ry="27.94" fill="#f4e4ca" fill-opacity="0.95" /><ellipse cx="19.75" cy="19.75" rx="17.96" ry="27.94" fill="#f4e4ca" fill-opacity="0.95" /><ellipse cx="0.00" cy="27.94" rx="17.96" ry="27.94" fill="#f4e4ca" fill-opacity="0.95" /><ellipse cx="-19.75" cy="19.75" rx="17.96" ry="27.94" fill="#f4e4ca" fill-opacity="0.95" /><ellipse cx="-27.94" cy="0.00" rx="17.96" ry="27.94" fill="#f4e4ca" fill-opacity="0.95" /><ellipse cx="-19.75" cy="-19.75" rx="17.96" ry="27.94" fill="#f4e4ca" fill-opacity="0.95" /><ellipse cx="-0.00" cy="-27.94" rx="17.96" ry="27.94" fill="#f4e4ca" fill-opacity="0.95" /><ellipse cx="19.75" cy="-19.75" rx="17.96" ry="27.94" fill="#f4e4ca" fill-opacity="0.95" />
        <circle cx="0" cy="0" r="17.96" fill="#f0b8a4" />
        <circle cx="0" cy="0" r="8.98" fill="#fff7f0" fill-opacity="0.72" />
      </g>
    </g>
    
    <g transform="translate(311.49 497.81) rotate(5.56)">
      <path d="M 0 0 C -8 93.34, 10 155.56, -6 228.16" stroke="#93aa86" stroke-width="12.44" fill="none" stroke-linecap="round" />
      <ellipse cx="-20" cy="114.08" rx="22.82" ry="43.56" fill="#93aa86" fill-opacity="0.75" transform="rotate(-24)" />
      <ellipse cx="28" cy="141.04" rx="20.74" ry="39.41" fill="#93aa86" fill-opacity="0.66" transform="rotate(20)" />
      <g transform="translate(0 0)">
        <ellipse cx="29.04" cy="0.00" rx="18.67" ry="29.04" fill="#f7efe8" fill-opacity="0.95" /><ellipse cx="20.53" cy="20.53" rx="18.67" ry="29.04" fill="#f7efe8" fill-opacity="0.95" /><ellipse cx="0.00" cy="29.04" rx="18.67" ry="29.04" fill="#f7efe8" fill-opacity="0.95" /><ellipse cx="-20.53" cy="20.53" rx="18.67" ry="29.04" fill="#f7efe8" fill-opacity="0.95" /><ellipse cx="-29.04" cy="0.00" rx="18.67" ry="29.04" fill="#f7efe8" fill-opacity="0.95" /><ellipse cx="-20.53" cy="-20.53" rx="18.67" ry="29.04" fill="#f7efe8" fill-opacity="0.95" /><ellipse cx="-0.00" cy="-29.04" rx="18.67" ry="29.04" fill="#f7efe8" fill-opacity="0.95" /><ellipse cx="20.53" cy="-20.53" rx="18.67" ry="29.04" fill="#f7efe8" fill-opacity="0.95" />
        <circle cx="0" cy="0" r="18.67" fill="#f0b8a4" />
        <circle cx="0" cy="0" r="9.33" fill="#fff7f0" fill-opacity="0.72" />
      </g>
    </g>
    
  </g>
  <path d="M0 980 C220 920, 420 1030, 900 930 L900 1100 L0 1100 Z" fill="#ffffff" fill-opacity="0.22" />
</svg>
