<svg xmlns="http://www.w3.org/2000/svg" width="900" height="1100" viewBox="0 0 900 1100">
  <defs>
    <linearGradient id="bg" x1="0" y1="0" x2="0" y2="1">
      <stop offset="0%" stop-color="#fff5f1" />
      <stop offset="100%" stop-color="#f7efe4" />
    </linearGradient>
    <filter id="shadow" x="-20%" y="-20%" width="140%" height="140%">
      <feDropShadow dx="0" dy="22" stdDeviation="24" flood-color="#6c5d4f" flood-opacity="0.12" />
    </filter>
  </defs>
  <rect width="100%" height="100%" fill="url(#bg)" />
  <circle cx="730" cy="180" r="140" fill="#ffffff" fill-opacity="0.18" />
  <circle cx="150" cy="260" r="90" fill="#ffffff" fill-opacity="0.12" />
  
      <rect x="70" y="72" width="300" height="92" rx="24" fill="#ffffff" fill-opacity="0.34" />
      <text x="98" y="120" fill="#2f3a31" font-size="32" font-family="'PingFang SC','Microsoft YaHei',sans-serif" font-weight="600">治愈周末</text>
      <text x="98" y="152" fill="#4e6152" font-size="18" font-family="'PingFang SC','Microsoft YaHei',sans-serif">送礼 · 日常花礼</text>
    
  <g filter="url(#shadow)">
    <path d="M250 780 L650 780 L730 1080 L170 1080 Z" fill="#ece2d6" fill-opacity="0.88" />
  </g>
  <g>
    
    <g transform="translate(310.97 492.30) rotate(23.03)">
      <path d="M 0 0 C -8 104.73, 10 174.54, -6 256.00" stroke="#93aa86" stroke-width="13.96" fill="none" stroke-linecap="round" />
      <ellipse cx="-20" cy="128.00" rx="25.60" ry="48.87" fill="#93aa86" fill-opacity="0.75" transform="rotate(-24)" />
      <ellipse cx="28" cy="158.25" rx="23.27" ry="44.22" fill="#93aa86" fill-opacity="0.66" transform="rotate(20)" />
      <g transform="translate(0 0)">
        <ellipse cx="32.58" cy="0.00" rx="20.95" ry="32.58" fill="#f7d7d8" fill-opacity="0.95" /><ellipse cx="23.04" cy="23.04" rx="20.95" ry="32.58" fill="#f7d7d8" fill-opacity="0.95" /><ellipse cx="0.00" cy="32.58" rx="20.95" ry="32.58" fill="#f7d7d8" fill-opacity="0.95" /><ellipse cx="-23.04" cy="23.04" rx="20.95" ry="32.58" fill="#f7d7d8" fill-opacity="0.95" /><ellipse cx="-32.58" cy="0.00" rx="20.95" ry="32.58" fill="#f7d7d8" fill-opacity="0.95" /><ellipse cx="-23.04" cy="-23.04" rx="20.95" ry="32.58" fill="#f7d7d8" fill-opacity="0.95" /><ellipse cx="-0.00" cy="-32.58" rx="20.95" ry="32.58" fill="#f7d7d8" fill-opacity="0.95" /><ellipse cx="23.04" cy="-23.04" rx="20.95" ry="32.58" fill="#f7d7d8" fill-opacity="0.95" />
        <circle cx="0" cy="0" r="20.95" fill="#f0b8a4" />
        <circle cx="0" cy="0" r="10.47" fill="#fff7f0" fill-opacity="0.72" />
      </g>
    </g>
    
    <g transform="translate(491.39 323.96) rotate(-6.39)">
      <path d="M 0 0 C -8 105.33, 10 175.54, -6 257.46" stroke="#7c9573" stroke-width="14.04" fill="none" stroke-linecap="round" />
      <ellipse cx="-20" cy="128.73" rx="25.75" ry="49.15" fill="#7c9573" fill-opacity="0.75" transform="rotate(-24)" />
      <ellipse cx="28" cy="159.16" rx="23.41" ry="44.47" fill="#7c9573" fill-opacity="0.66" transform="rotate(20)" />
      <g transform="translate(0 0)">
        <ellipse cx="32.77" cy="0.00" rx="21.07" ry="32.77" fill="#f4e4ca" fill-opacity="0.95" /><ellipse cx="23.17" cy="23.17" rx="21.07" ry="32.77" fill="#f4e4ca" fill-opacity="0.95" /><ellipse cx="0.00" cy="32.77" rx="21.07" ry="32.77" fill="#f4e4ca" fill-opacity="0.95" /><ellipse cx="-23.17" cy="23.17" rx="21.07" ry="32.77" fill="#f4e4ca" fill-opacity="0.95" /><ellipse cx="-32.77" cy="0.00" rx="21.07" ry="32.77" fill="#f4e4ca" fill-opacity="0.95" /><ellipse cx="-23.17" cy="-23.17" rx="21.07" ry="32.77" fill="#f4e4ca" fill-opacity="0.95" /><ellipse cx="-0.00" cy="-32.77" rx="21.07" ry="32.77" fill="#f4e4ca" fill-opacity="0.95" /><ellipse cx="23.17" cy="-23.17" rx="21.07" ry="32.77" fill="#f4e4ca" fill-opacity="0.95" />
        <circle cx="0" cy="0" r="21.07" fill="#f0b8a4" />
        <circle cx="0" cy="0" r="10.53" fill="#fff7f0" fill-opacity="0.72" />
      </g>
    </g>
    
    <g transform="translate(567.22 326.38) rotate(14.40)">
      <path d="M 0 0 C -8 103.81, 10 173.02, -6 253.76" stroke="#aebc9f" stroke-width="13.84" fill="none" stroke-linecap="round" />
      <ellipse cx="-20" cy="126.88" rx="25.38" ry="48.45" fill="#aebc9f" fill-opacity="0.75" transform="rotate(-24)" />
      <ellipse cx="28" cy="156.87" rx="23.07" ry="43.83" fill="#aebc9f" fill-opacity="0.66" transform="rotate(20)" />
      <g transform="translate(0 0)">
        <ellipse cx="32.30" cy="0.00" rx="20.76" ry="32.30" fill="#f7efe8" fill-opacity="0.95" /><ellipse cx="22.84" cy="22.84" rx="20.76" ry="32.30" fill="#f7efe8" fill-opacity="0.95" /><ellipse cx="0.00" cy="32.30" rx="20.76" ry="32.30" fill="#f7efe8" fill-opacity="0.95" /><ellipse cx="-22.84" cy="22.84" rx="20.76" ry="32.30" fill="#f7efe8" fill-opacity="0.95" /><ellipse cx="-32.30" cy="0.00" rx="20.76" ry="32.30" fill="#f7efe8" fill-opacity="0.95" /><ellipse cx="-22.84" cy="-22.84" rx="20.76" ry="32.30" fill="#f7efe8" fill-opacity="0.95" /><ellipse cx="-0.00" cy="-32.30" rx="20.76" ry="32.30" fill="#f7efe8" fill-opacity="0.95" /><ellipse cx="22.84" cy="-22.84" rx="20.76" ry="32.30" fill="#f7efe8" fill-opacity="0.95" />
        <circle cx="0" cy="0" r="20.76" fill="#f0b8a4" />
        <circle cx="0" cy="0" r="10.38" fill="#fff7f0" fill-opacity="0.72" />
      </g>
    </g>
    
    <g transform="translate(668.41 477.59) rotate(-19.91)">
      <path d="M 0 0 C -8 101.72, 10 169.54, -6 248.66" stroke="#93aa86" stroke-width="13.56" fill="none" stroke-linecap="round" />
      <ellipse cx="-20" cy="124.33" rx="24.87" ry="47.47" fill="#93aa86" fill-opacity="0.75" transform="rotate(-24)" />
      <ellipse cx="28" cy="153.72" rx="22.61" ry="42.95" fill="#93aa86" fill-opacity="0.66" transform="rotate(20)" />
      <g transform="translate(0 0)">
        <ellipse cx="31.65" cy="0.00" rx="20.34" ry="31.65" fill="#efc7ce" fill-opacity="0.95" /><ellipse cx="22.38" cy="22.38" rx="20.34" ry="31.65" fill="#efc7ce" fill-opacity="0.95" /><ellipse cx="0.00" cy="31.65" rx="20.34" ry="31.65" fill="#efc7ce" fill-opacity="0.95" /><ellipse cx="-22.38" cy="22.38" rx="20.34" ry="31.65" fill="#efc7ce" fill-opacity="0.95" /><ellipse cx="-31.65" cy="0.00" rx="20.34" ry="31.65" fill="#efc7ce" fill-opacity="0.95" /><ellipse cx="-22.38" cy="-22.38" rx="20.34" ry="31.65" fill="#efc7ce" fill-opacity="0.95" /><ellipse cx="-0.00" cy="-31.65" rx="20.34" ry="31.65" fill="#efc7ce" fill-opacity="0.95" /><ellipse cx="22.38" cy="-22.38" rx="20.34" ry="31.65" fill="#efc7ce" fill-opacity="0.95" />
        <circle cx="0" cy="0" r="20.34" fill="#f0b8a4" />
        <circle cx="0" cy="0" r="10.17" fill="#fff7f0" fill-opacity="0.72" />
      </g>
    </g>
    
    <g transform="translate(389.41 428.37) rotate(0.54)">
      <path d="M 0 0 C -8 96.62, 10 161.03, -6 236.17" stroke="#7c9573" stroke-width="12.88" fill="none" stroke-linecap="round" />
      <ellipse cx="-20" cy="118.09" rx="23.62" ry="45.09" fill="#7c9573" fill-opacity="0.75" transform="rotate(-24)" />
      <ellipse cx="28" cy="146.00" rx="21.47" ry="40.79" fill="#7c9573" fill-opacity="0.66" transform="rotate(20)" />
      <g transform="translate(0 0)">
        <ellipse cx="30.06" cy="0.00" rx="19.32" ry="30.06" fill="#f7d7d8" fill-opacity="0.95" /><ellipse cx="21.25" cy="21.25" rx="19.32" ry="30.06" fill="#f7d7d8" fill-opacity="0.95" /><ellipse cx="0.00" cy="30.06" rx="19.32" ry="30.06" fill="#f7d7d8" fill-opacity="0.95" /><ellipse cx="-21.25" cy="21.25" rx="19.32" ry="30.06" fill="#f7d7d8" fill-opacity="0.95" /><ellipse cx="-30.06" cy="0.00" rx="19.32" ry="30.06" fill="#f7d7d8" fill-opacity="0.95" /><ellipse cx="-21.25" cy="-21.25" rx="19.32" ry="30.06" fill="#f7d7d8" fill-opacity="0.95" /><ellipse cx="-0.00" cy="-30.06" rx="19.32" ry="30.06" fill="#f7d7d8" fill-opacity="0.95" /><ellipse cx="21.25" cy="-21.25" rx="19.32" ry="30.06" fill="#f7d7d8" fill-opacity="0.95" />
        <circle cx="0" cy="0" r="19.32" fill="#f0b8a4" />
        <circle cx="0" cy="0" r="9.66" fill="#fff7f0" fill-opacity="0.72" />
      </g>
    </g>
    
    <g transform="translate(506.45 481.28) rotate(5.89)">
      <path d="M 0 0 C -8 99.15, 10 165.24, -6 242.36" stroke="#aebc9f" stroke-width="13.22" fill="none" stroke-linecap="round" />
      <ellipse cx="-20" cy="121.18" rx="24.24" ry="46.27" fill="#aebc9f" fill-opacity="0.75" transform="rotate(-24)" />
      <ellipse cx="28" cy="149.82" rx="22.03" ry="41.86" fill="#aebc9f" fill-opacity="0.66" transform="rotate(20)" />
      <g transform="translate(0 0)">
        <ellipse cx="30.85" cy="0.00" rx="19.83" ry="30.85" fill="#f4e4ca" fill-opacity="0.95" /><ellipse cx="21.81" cy="21.81" rx="19.83" ry="30.85" fill="#f4e4ca" fill-opacity="0.95" /><ellipse cx="0.00" cy="30.85" rx="19.83" ry="30.85" fill="#f4e4ca" fill-opacity="0.95" /><ellipse cx="-21.81" cy="21.81" rx="19.83" ry="30.85" fill="#f4e4ca" fill-opacity="0.95" /><ellipse cx="-30.85" cy="0.00" rx="19.83" ry="30.85" fill="#f4e4ca" fill-opacity="0.95" /><ellipse cx="-21.81" cy="-21.81" rx="19.83" ry="30.85" fill="#f4e4ca" fill-opacity="0.95" /><ellipse cx="-0.00" cy="-30.85" rx="19.83" ry="30.85" fill="#f4e4ca" fill-opacity="0.95" /><ellipse cx="21.81" cy="-21.81" rx="19.83" ry="30.85" fill="#f4e4ca" fill-opacity="0.95" />
        <circle cx="0" cy="0" r="19.83" fill="#f0b8a4" />
        <circle cx="0" cy="0" r="9.91" fill="#fff7f0" fill-opacity="0.72" />
      </g>
    </g>
    
  </g>
  <path d="M0 980 C220 920, 420 1030, 900 930 L900 1100 L0 1100 Z" fill="#ffffff" fill-opacity="0.22" />
</svg>
