<svg xmlns="http://www.w3.org/2000/svg" width="900" height="1100" viewBox="0 0 900 1100">
  <defs>
    <linearGradient id="bg" x1="0" y1="0" x2="0" y2="1">
      <stop offset="0%" stop-color="#fff5f1" />
      <stop offset="100%" stop-color="#f7efe4" />
    </linearGradient>
    <filter id="shadow" x="-20%" y="-20%" width="140%" height="140%">
      <feDropShadow dx="0" dy="22" stdDeviation="24" flood-color="#6c5d4f" flood-opacity="0.12" />
    </filter>
  </defs>
  <rect width="100%" height="100%" fill="url(#bg)" />
  <circle cx="730" cy="180" r="140" fill="#ffffff" fill-opacity="0.18" />
  <circle cx="150" cy="260" r="90" fill="#ffffff" fill-opacity="0.12" />
  
      <rect x="70" y="72" width="300" height="92" rx="24" fill="#ffffff" fill-opacity="0.34" />
      <text x="98" y="120" fill="#2f3a31" font-size="32" font-family="'PingFang SC','Microsoft YaHei',sans-serif" font-weight="600">午后晴光</text>
      <text x="98" y="152" fill="#4e6152" font-size="18" font-family="'PingFang SC','Microsoft YaHei',sans-serif">告白 · 小花束</text>
    
  <g filter="url(#shadow)">
    <path d="M250 780 L650 780 L730 1080 L170 1080 Z" fill="#ece2d6" fill-opacity="0.88" />
  </g>
  <g>
    
    <g transform="translate(359.26 380.15) rotate(12.02)">
      <path d="M 0 0 C -8 98.67, 10 164.45, -6 241.20" stroke="#93aa86" stroke-width="13.16" fill="none" stroke-linecap="round" />
      <ellipse cx="-20" cy="120.60" rx="24.12" ry="46.05" fill="#93aa86" fill-opacity="0.75" transform="rotate(-24)" />
      <ellipse cx="28" cy="149.10" rx="21.93" ry="41.66" fill="#93aa86" fill-opacity="0.66" transform="rotate(20)" />
      <g transform="translate(0 0)">
        <ellipse cx="30.70" cy="0.00" rx="19.73" ry="30.70" fill="#f7d7d8" fill-opacity="0.95" /><ellipse cx="21.71" cy="21.71" rx="19.73" ry="30.70" fill="#f7d7d8" fill-opacity="0.95" /><ellipse cx="0.00" cy="30.70" rx="19.73" ry="30.70" fill="#f7d7d8" fill-opacity="0.95" /><ellipse cx="-21.71" cy="21.71" rx="19.73" ry="30.70" fill="#f7d7d8" fill-opacity="0.95" /><ellipse cx="-30.70" cy="0.00" rx="19.73" ry="30.70" fill="#f7d7d8" fill-opacity="0.95" /><ellipse cx="-21.71" cy="-21.71" rx="19.73" ry="30.70" fill="#f7d7d8" fill-opacity="0.95" /><ellipse cx="-0.00" cy="-30.70" rx="19.73" ry="30.70" fill="#f7d7d8" fill-opacity="0.95" /><ellipse cx="21.71" cy="-21.71" rx="19.73" ry="30.70" fill="#f7d7d8" fill-opacity="0.95" />
        <circle cx="0" cy="0" r="19.73" fill="#f0b8a4" />
        <circle cx="0" cy="0" r="9.87" fill="#fff7f0" fill-opacity="0.72" />
      </g>
    </g>
    
    <g transform="translate(238.62 430.27) rotate(20.31)">
      <path d="M 0 0 C -8 74.76, 10 124.60, -6 182.74" stroke="#7c9573" stroke-width="9.97" fill="none" stroke-linecap="round" />
      <ellipse cx="-20" cy="91.37" rx="18.27" ry="34.89" fill="#7c9573" fill-opacity="0.75" transform="rotate(-24)" />
      <ellipse cx="28" cy="112.97" rx="16.61" ry="31.56" fill="#7c9573" fill-opacity="0.66" transform="rotate(20)" />
      <g transform="translate(0 0)">
        <ellipse cx="23.26" cy="0.00" rx="14.95" ry="23.26" fill="#f4e4ca" fill-opacity="0.95" /><ellipse cx="16.45" cy="16.45" rx="14.95" ry="23.26" fill="#f4e4ca" fill-opacity="0.95" /><ellipse cx="0.00" cy="23.26" rx="14.95" ry="23.26" fill="#f4e4ca" fill-opacity="0.95" /><ellipse cx="-16.45" cy="16.45" rx="14.95" ry="23.26" fill="#f4e4ca" fill-opacity="0.95" /><ellipse cx="-23.26" cy="0.00" rx="14.95" ry="23.26" fill="#f4e4ca" fill-opacity="0.95" /><ellipse cx="-16.45" cy="-16.45" rx="14.95" ry="23.26" fill="#f4e4ca" fill-opacity="0.95" /><ellipse cx="-0.00" cy="-23.26" rx="14.95" ry="23.26" fill="#f4e4ca" fill-opacity="0.95" /><ellipse cx="16.45" cy="-16.45" rx="14.95" ry="23.26" fill="#f4e4ca" fill-opacity="0.95" />
        <circle cx="0" cy="0" r="14.95" fill="#f0b8a4" />
        <circle cx="0" cy="0" r="7.48" fill="#fff7f0" fill-opacity="0.72" />
      </g>
    </g>
    
    <g transform="translate(556.79 480.74) rotate(21.54)">
      <path d="M 0 0 C -8 93.78, 10 156.31, -6 229.25" stroke="#aebc9f" stroke-width="12.50" fill="none" stroke-linecap="round" />
      <ellipse cx="-20" cy="114.63" rx="22.93" ry="43.77" fill="#aebc9f" fill-opacity="0.75" transform="rotate(-24)" />
      <ellipse cx="28" cy="141.72" rx="20.84" ry="39.60" fill="#aebc9f" fill-opacity="0.66" transform="rotate(20)" />
      <g transform="translate(0 0)">
        <ellipse cx="29.18" cy="0.00" rx="18.76" ry="29.18" fill="#f7efe8" fill-opacity="0.95" /><ellipse cx="20.63" cy="20.63" rx="18.76" ry="29.18" fill="#f7efe8" fill-opacity="0.95" /><ellipse cx="0.00" cy="29.18" rx="18.76" ry="29.18" fill="#f7efe8" fill-opacity="0.95" /><ellipse cx="-20.63" cy="20.63" rx="18.76" ry="29.18" fill="#f7efe8" fill-opacity="0.95" /><ellipse cx="-29.18" cy="0.00" rx="18.76" ry="29.18" fill="#f7efe8" fill-opacity="0.95" /><ellipse cx="-20.63" cy="-20.63" rx="18.76" ry="29.18" fill="#f7efe8" fill-opacity="0.95" /><ellipse cx="-0.00" cy="-29.18" rx="18.76" ry="29.18" fill="#f7efe8" fill-opacity="0.95" /><ellipse cx="20.63" cy="-20.63" rx="18.76" ry="29.18" fill="#f7efe8" fill-opacity="0.95" />
        <circle cx="0" cy="0" r="18.76" fill="#f0b8a4" />
        <circle cx="0" cy="0" r="9.38" fill="#fff7f0" fill-opacity="0.72" />
      </g>
    </g>
    
    <g transform="translate(539.43 403.06) rotate(25.47)">
      <path d="M 0 0 C -8 96.15, 10 160.26, -6 235.04" stroke="#93aa86" stroke-width="12.82" fill="none" stroke-linecap="round" />
      <ellipse cx="-20" cy="117.52" rx="23.50" ry="44.87" fill="#93aa86" fill-opacity="0.75" transform="rotate(-24)" />
      <ellipse cx="28" cy="145.30" rx="21.37" ry="40.60" fill="#93aa86" fill-opacity="0.66" transform="rotate(20)" />
      <g transform="translate(0 0)">
        <ellipse cx="29.91" cy="0.00" rx="19.23" ry="29.91" fill="#efc7ce" fill-opacity="0.95" /><ellipse cx="21.15" cy="21.15" rx="19.23" ry="29.91" fill="#efc7ce" fill-opacity="0.95" /><ellipse cx="0.00" cy="29.91" rx="19.23" ry="29.91" fill="#efc7ce" fill-opacity="0.95" /><ellipse cx="-21.15" cy="21.15" rx="19.23" ry="29.91" fill="#efc7ce" fill-opacity="0.95" /><ellipse cx="-29.91" cy="0.00" rx="19.23" ry="29.91" fill="#efc7ce" fill-opacity="0.95" /><ellipse cx="-21.15" cy="-21.15" rx="19.23" ry="29.91" fill="#efc7ce" fill-opacity="0.95" /><ellipse cx="-0.00" cy="-29.91" rx="19.23" ry="29.91" fill="#efc7ce" fill-opacity="0.95" /><ellipse cx="21.15" cy="-21.15" rx="19.23" ry="29.91" fill="#efc7ce" fill-opacity="0.95" />
        <circle cx="0" cy="0" r="19.23" fill="#f0b8a4" />
        <circle cx="0" cy="0" r="9.62" fill="#fff7f0" fill-opacity="0.72" />
      </g>
    </g>
    
    <g transform="translate(616.95 529.39) rotate(-17.50)">
      <path d="M 0 0 C -8 93.26, 10 155.43, -6 227.96" stroke="#7c9573" stroke-width="12.43" fill="none" stroke-linecap="round" />
      <ellipse cx="-20" cy="113.98" rx="22.80" ry="43.52" fill="#7c9573" fill-opacity="0.75" transform="rotate(-24)" />
      <ellipse cx="28" cy="140.92" rx="20.72" ry="39.38" fill="#7c9573" fill-opacity="0.66" transform="rotate(20)" />
      <g transform="translate(0 0)">
        <ellipse cx="29.01" cy="0.00" rx="18.65" ry="29.01" fill="#f7d7d8" fill-opacity="0.95" /><ellipse cx="20.52" cy="20.52" rx="18.65" ry="29.01" fill="#f7d7d8" fill-opacity="0.95" /><ellipse cx="0.00" cy="29.01" rx="18.65" ry="29.01" fill="#f7d7d8" fill-opacity="0.95" /><ellipse cx="-20.52" cy="20.52" rx="18.65" ry="29.01" fill="#f7d7d8" fill-opacity="0.95" /><ellipse cx="-29.01" cy="0.00" rx="18.65" ry="29.01" fill="#f7d7d8" fill-opacity="0.95" /><ellipse cx="-20.52" cy="-20.52" rx="18.65" ry="29.01" fill="#f7d7d8" fill-opacity="0.95" /><ellipse cx="-0.00" cy="-29.01" rx="18.65" ry="29.01" fill="#f7d7d8" fill-opacity="0.95" /><ellipse cx="20.52" cy="-20.52" rx="18.65" ry="29.01" fill="#f7d7d8" fill-opacity="0.95" />
        <circle cx="0" cy="0" r="18.65" fill="#f0b8a4" />
        <circle cx="0" cy="0" r="9.33" fill="#fff7f0" fill-opacity="0.72" />
      </g>
    </g>
    
    <g transform="translate(200.81 517.70) rotate(-3.36)">
      <path d="M 0 0 C -8 106.65, 10 177.76, -6 260.71" stroke="#aebc9f" stroke-width="14.22" fill="none" stroke-linecap="round" />
      <ellipse cx="-20" cy="130.36" rx="26.07" ry="49.77" fill="#aebc9f" fill-opacity="0.75" transform="rotate(-24)" />
      <ellipse cx="28" cy="161.17" rx="23.70" ry="45.03" fill="#aebc9f" fill-opacity="0.66" transform="rotate(20)" />
      <g transform="translate(0 0)">
        <ellipse cx="33.18" cy="0.00" rx="21.33" ry="33.18" fill="#f4e4ca" fill-opacity="0.95" /><ellipse cx="23.46" cy="23.46" rx="21.33" ry="33.18" fill="#f4e4ca" fill-opacity="0.95" /><ellipse cx="0.00" cy="33.18" rx="21.33" ry="33.18" fill="#f4e4ca" fill-opacity="0.95" /><ellipse cx="-23.46" cy="23.46" rx="21.33" ry="33.18" fill="#f4e4ca" fill-opacity="0.95" /><ellipse cx="-33.18" cy="0.00" rx="21.33" ry="33.18" fill="#f4e4ca" fill-opacity="0.95" /><ellipse cx="-23.46" cy="-23.46" rx="21.33" ry="33.18" fill="#f4e4ca" fill-opacity="0.95" /><ellipse cx="-0.00" cy="-33.18" rx="21.33" ry="33.18" fill="#f4e4ca" fill-opacity="0.95" /><ellipse cx="23.46" cy="-23.46" rx="21.33" ry="33.18" fill="#f4e4ca" fill-opacity="0.95" />
        <circle cx="0" cy="0" r="21.33" fill="#f0b8a4" />
        <circle cx="0" cy="0" r="10.67" fill="#fff7f0" fill-opacity="0.72" />
      </g>
    </g>
    
  </g>
  <path d="M0 980 C220 920, 420 1030, 900 930 L900 1100 L0 1100 Z" fill="#ffffff" fill-opacity="0.22" />
</svg>
