<svg xmlns="http://www.w3.org/2000/svg" width="900" height="1100" viewBox="0 0 900 1100">
  <defs>
    <linearGradient id="bg" x1="0" y1="0" x2="0" y2="1">
      <stop offset="0%" stop-color="#fff5f1" />
      <stop offset="100%" stop-color="#f7efe4" />
    </linearGradient>
    <filter id="shadow" x="-20%" y="-20%" width="140%" height="140%">
      <feDropShadow dx="0" dy="22" stdDeviation="24" flood-color="#6c5d4f" flood-opacity="0.12" />
    </filter>
  </defs>
  <rect width="100%" height="100%" fill="url(#bg)" />
  <circle cx="730" cy="180" r="140" fill="#ffffff" fill-opacity="0.18" />
  <circle cx="150" cy="260" r="90" fill="#ffffff" fill-opacity="0.12" />
  
      <rect x="70" y="72" width="300" height="92" rx="24" fill="#ffffff" fill-opacity="0.34" />
      <text x="98" y="120" fill="#2f3a31" font-size="32" font-family="'PingFang SC','Microsoft YaHei',sans-serif" font-weight="600">奶油早安</text>
      <text x="98" y="152" fill="#4e6152" font-size="18" font-family="'PingFang SC','Microsoft YaHei',sans-serif">生日 · 奶油色</text>
    
  <g filter="url(#shadow)">
    <path d="M250 780 L650 780 L730 1080 L170 1080 Z" fill="#ece2d6" fill-opacity="0.88" />
  </g>
  <g>
    
    <g transform="translate(264.75 523.24) rotate(0.08)">
      <path d="M 0 0 C -8 112.35, 10 187.25, -6 274.63" stroke="#93aa86" stroke-width="14.98" fill="none" stroke-linecap="round" />
      <ellipse cx="-20" cy="137.31" rx="27.46" ry="52.43" fill="#93aa86" fill-opacity="0.75" transform="rotate(-24)" />
      <ellipse cx="28" cy="169.77" rx="24.97" ry="47.44" fill="#93aa86" fill-opacity="0.66" transform="rotate(20)" />
      <g transform="translate(0 0)">
        <ellipse cx="34.95" cy="0.00" rx="22.47" ry="34.95" fill="#f7d7d8" fill-opacity="0.95" /><ellipse cx="24.72" cy="24.72" rx="22.47" ry="34.95" fill="#f7d7d8" fill-opacity="0.95" /><ellipse cx="0.00" cy="34.95" rx="22.47" ry="34.95" fill="#f7d7d8" fill-opacity="0.95" /><ellipse cx="-24.72" cy="24.72" rx="22.47" ry="34.95" fill="#f7d7d8" fill-opacity="0.95" /><ellipse cx="-34.95" cy="0.00" rx="22.47" ry="34.95" fill="#f7d7d8" fill-opacity="0.95" /><ellipse cx="-24.72" cy="-24.72" rx="22.47" ry="34.95" fill="#f7d7d8" fill-opacity="0.95" /><ellipse cx="-0.00" cy="-34.95" rx="22.47" ry="34.95" fill="#f7d7d8" fill-opacity="0.95" /><ellipse cx="24.72" cy="-24.72" rx="22.47" ry="34.95" fill="#f7d7d8" fill-opacity="0.95" />
        <circle cx="0" cy="0" r="22.47" fill="#f0b8a4" />
        <circle cx="0" cy="0" r="11.23" fill="#fff7f0" fill-opacity="0.72" />
      </g>
    </g>
    
    <g transform="translate(435.67 490.73) rotate(-6.94)">
      <path d="M 0 0 C -8 87.34, 10 145.57, -6 213.50" stroke="#7c9573" stroke-width="11.65" fill="none" stroke-linecap="round" />
      <ellipse cx="-20" cy="106.75" rx="21.35" ry="40.76" fill="#7c9573" fill-opacity="0.75" transform="rotate(-24)" />
      <ellipse cx="28" cy="131.98" rx="19.41" ry="36.88" fill="#7c9573" fill-opacity="0.66" transform="rotate(20)" />
      <g transform="translate(0 0)">
        <ellipse cx="27.17" cy="0.00" rx="17.47" ry="27.17" fill="#f4e4ca" fill-opacity="0.95" /><ellipse cx="19.21" cy="19.21" rx="17.47" ry="27.17" fill="#f4e4ca" fill-opacity="0.95" /><ellipse cx="0.00" cy="27.17" rx="17.47" ry="27.17" fill="#f4e4ca" fill-opacity="0.95" /><ellipse cx="-19.21" cy="19.21" rx="17.47" ry="27.17" fill="#f4e4ca" fill-opacity="0.95" /><ellipse cx="-27.17" cy="0.00" rx="17.47" ry="27.17" fill="#f4e4ca" fill-opacity="0.95" /><ellipse cx="-19.21" cy="-19.21" rx="17.47" ry="27.17" fill="#f4e4ca" fill-opacity="0.95" /><ellipse cx="-0.00" cy="-27.17" rx="17.47" ry="27.17" fill="#f4e4ca" fill-opacity="0.95" /><ellipse cx="19.21" cy="-19.21" rx="17.47" ry="27.17" fill="#f4e4ca" fill-opacity="0.95" />
        <circle cx="0" cy="0" r="17.47" fill="#f0b8a4" />
        <circle cx="0" cy="0" r="8.73" fill="#fff7f0" fill-opacity="0.72" />
      </g>
    </g>
    
    <g transform="translate(284.17 558.29) rotate(-2.48)">
      <path d="M 0 0 C -8 83.23, 10 138.72, -6 203.46" stroke="#aebc9f" stroke-width="11.10" fill="none" stroke-linecap="round" />
      <ellipse cx="-20" cy="101.73" rx="20.35" ry="38.84" fill="#aebc9f" fill-opacity="0.75" transform="rotate(-24)" />
      <ellipse cx="28" cy="125.77" rx="18.50" ry="35.14" fill="#aebc9f" fill-opacity="0.66" transform="rotate(20)" />
      <g transform="translate(0 0)">
        <ellipse cx="25.89" cy="0.00" rx="16.65" ry="25.89" fill="#f7efe8" fill-opacity="0.95" /><ellipse cx="18.31" cy="18.31" rx="16.65" ry="25.89" fill="#f7efe8" fill-opacity="0.95" /><ellipse cx="0.00" cy="25.89" rx="16.65" ry="25.89" fill="#f7efe8" fill-opacity="0.95" /><ellipse cx="-18.31" cy="18.31" rx="16.65" ry="25.89" fill="#f7efe8" fill-opacity="0.95" /><ellipse cx="-25.89" cy="0.00" rx="16.65" ry="25.89" fill="#f7efe8" fill-opacity="0.95" /><ellipse cx="-18.31" cy="-18.31" rx="16.65" ry="25.89" fill="#f7efe8" fill-opacity="0.95" /><ellipse cx="-0.00" cy="-25.89" rx="16.65" ry="25.89" fill="#f7efe8" fill-opacity="0.95" /><ellipse cx="18.31" cy="-18.31" rx="16.65" ry="25.89" fill="#f7efe8" fill-opacity="0.95" />
        <circle cx="0" cy="0" r="16.65" fill="#f0b8a4" />
        <circle cx="0" cy="0" r="8.32" fill="#fff7f0" fill-opacity="0.72" />
      </g>
    </g>
    
    <g transform="translate(472.80 530.15) rotate(2.74)">
      <path d="M 0 0 C -8 111.53, 10 185.89, -6 272.64" stroke="#93aa86" stroke-width="14.87" fill="none" stroke-linecap="round" />
      <ellipse cx="-20" cy="136.32" rx="27.26" ry="52.05" fill="#93aa86" fill-opacity="0.75" transform="rotate(-24)" />
      <ellipse cx="28" cy="168.54" rx="24.79" ry="47.09" fill="#93aa86" fill-opacity="0.66" transform="rotate(20)" />
      <g transform="translate(0 0)">
        <ellipse cx="34.70" cy="0.00" rx="22.31" ry="34.70" fill="#efc7ce" fill-opacity="0.95" /><ellipse cx="24.54" cy="24.54" rx="22.31" ry="34.70" fill="#efc7ce" fill-opacity="0.95" /><ellipse cx="0.00" cy="34.70" rx="22.31" ry="34.70" fill="#efc7ce" fill-opacity="0.95" /><ellipse cx="-24.54" cy="24.54" rx="22.31" ry="34.70" fill="#efc7ce" fill-opacity="0.95" /><ellipse cx="-34.70" cy="0.00" rx="22.31" ry="34.70" fill="#efc7ce" fill-opacity="0.95" /><ellipse cx="-24.54" cy="-24.54" rx="22.31" ry="34.70" fill="#efc7ce" fill-opacity="0.95" /><ellipse cx="-0.00" cy="-34.70" rx="22.31" ry="34.70" fill="#efc7ce" fill-opacity="0.95" /><ellipse cx="24.54" cy="-24.54" rx="22.31" ry="34.70" fill="#efc7ce" fill-opacity="0.95" />
        <circle cx="0" cy="0" r="22.31" fill="#f0b8a4" />
        <circle cx="0" cy="0" r="11.15" fill="#fff7f0" fill-opacity="0.72" />
      </g>
    </g>
    
    <g transform="translate(385.11 447.04) rotate(16.00)">
      <path d="M 0 0 C -8 88.23, 10 147.04, -6 215.67" stroke="#7c9573" stroke-width="11.76" fill="none" stroke-linecap="round" />
      <ellipse cx="-20" cy="107.83" rx="21.57" ry="41.17" fill="#7c9573" fill-opacity="0.75" transform="rotate(-24)" />
      <ellipse cx="28" cy="133.32" rx="19.61" ry="37.25" fill="#7c9573" fill-opacity="0.66" transform="rotate(20)" />
      <g transform="translate(0 0)">
        <ellipse cx="27.45" cy="0.00" rx="17.65" ry="27.45" fill="#f7d7d8" fill-opacity="0.95" /><ellipse cx="19.41" cy="19.41" rx="17.65" ry="27.45" fill="#f7d7d8" fill-opacity="0.95" /><ellipse cx="0.00" cy="27.45" rx="17.65" ry="27.45" fill="#f7d7d8" fill-opacity="0.95" /><ellipse cx="-19.41" cy="19.41" rx="17.65" ry="27.45" fill="#f7d7d8" fill-opacity="0.95" /><ellipse cx="-27.45" cy="0.00" rx="17.65" ry="27.45" fill="#f7d7d8" fill-opacity="0.95" /><ellipse cx="-19.41" cy="-19.41" rx="17.65" ry="27.45" fill="#f7d7d8" fill-opacity="0.95" /><ellipse cx="-0.00" cy="-27.45" rx="17.65" ry="27.45" fill="#f7d7d8" fill-opacity="0.95" /><ellipse cx="19.41" cy="-19.41" rx="17.65" ry="27.45" fill="#f7d7d8" fill-opacity="0.95" />
        <circle cx="0" cy="0" r="17.65" fill="#f0b8a4" />
        <circle cx="0" cy="0" r="8.82" fill="#fff7f0" fill-opacity="0.72" />
      </g>
    </g>
    
    <g transform="translate(403.75 323.39) rotate(-3.33)">
      <path d="M 0 0 C -8 82.30, 10 137.17, -6 201.18" stroke="#aebc9f" stroke-width="10.97" fill="none" stroke-linecap="round" />
      <ellipse cx="-20" cy="100.59" rx="20.12" ry="38.41" fill="#aebc9f" fill-opacity="0.75" transform="rotate(-24)" />
      <ellipse cx="28" cy="124.37" rx="18.29" ry="34.75" fill="#aebc9f" fill-opacity="0.66" transform="rotate(20)" />
      <g transform="translate(0 0)">
        <ellipse cx="25.60" cy="0.00" rx="16.46" ry="25.60" fill="#f4e4ca" fill-opacity="0.95" /><ellipse cx="18.11" cy="18.11" rx="16.46" ry="25.60" fill="#f4e4ca" fill-opacity="0.95" /><ellipse cx="0.00" cy="25.60" rx="16.46" ry="25.60" fill="#f4e4ca" fill-opacity="0.95" /><ellipse cx="-18.11" cy="18.11" rx="16.46" ry="25.60" fill="#f4e4ca" fill-opacity="0.95" /><ellipse cx="-25.60" cy="0.00" rx="16.46" ry="25.60" fill="#f4e4ca" fill-opacity="0.95" /><ellipse cx="-18.11" cy="-18.11" rx="16.46" ry="25.60" fill="#f4e4ca" fill-opacity="0.95" /><ellipse cx="-0.00" cy="-25.60" rx="16.46" ry="25.60" fill="#f4e4ca" fill-opacity="0.95" /><ellipse cx="18.11" cy="-18.11" rx="16.46" ry="25.60" fill="#f4e4ca" fill-opacity="0.95" />
        <circle cx="0" cy="0" r="16.46" fill="#f0b8a4" />
        <circle cx="0" cy="0" r="8.23" fill="#fff7f0" fill-opacity="0.72" />
      </g>
    </g>
    
    <g transform="translate(435.23 363.00) rotate(-4.43)">
      <path d="M 0 0 C -8 70.45, 10 117.42, -6 172.21" stroke="#93aa86" stroke-width="9.39" fill="none" stroke-linecap="round" />
      <ellipse cx="-20" cy="86.10" rx="17.22" ry="32.88" fill="#93aa86" fill-opacity="0.75" transform="rotate(-24)" />
      <ellipse cx="28" cy="106.46" rx="15.66" ry="29.75" fill="#93aa86" fill-opacity="0.66" transform="rotate(20)" />
      <g transform="translate(0 0)">
        <ellipse cx="21.92" cy="0.00" rx="14.09" ry="21.92" fill="#f7efe8" fill-opacity="0.95" /><ellipse cx="15.50" cy="15.50" rx="14.09" ry="21.92" fill="#f7efe8" fill-opacity="0.95" /><ellipse cx="0.00" cy="21.92" rx="14.09" ry="21.92" fill="#f7efe8" fill-opacity="0.95" /><ellipse cx="-15.50" cy="15.50" rx="14.09" ry="21.92" fill="#f7efe8" fill-opacity="0.95" /><ellipse cx="-21.92" cy="0.00" rx="14.09" ry="21.92" fill="#f7efe8" fill-opacity="0.95" /><ellipse cx="-15.50" cy="-15.50" rx="14.09" ry="21.92" fill="#f7efe8" fill-opacity="0.95" /><ellipse cx="-0.00" cy="-21.92" rx="14.09" ry="21.92" fill="#f7efe8" fill-opacity="0.95" /><ellipse cx="15.50" cy="-15.50" rx="14.09" ry="21.92" fill="#f7efe8" fill-opacity="0.95" />
        <circle cx="0" cy="0" r="14.09" fill="#f0b8a4" />
        <circle cx="0" cy="0" r="7.04" fill="#fff7f0" fill-opacity="0.72" />
      </g>
    </g>
    
  </g>
  <path d="M0 980 C220 920, 420 1030, 900 930 L900 1100 L0 1100 Z" fill="#ffffff" fill-opacity="0.22" />
</svg>
