<svg xmlns="http://www.w3.org/2000/svg" width="900" height="1100" viewBox="0 0 900 1100">
  <defs>
    <linearGradient id="bg" x1="0" y1="0" x2="0" y2="1">
      <stop offset="0%" stop-color="#fff5f1" />
      <stop offset="100%" stop-color="#f7efe4" />
    </linearGradient>
    <filter id="shadow" x="-20%" y="-20%" width="140%" height="140%">
      <feDropShadow dx="0" dy="22" stdDeviation="24" flood-color="#6c5d4f" flood-opacity="0.12" />
    </filter>
  </defs>
  <rect width="100%" height="100%" fill="url(#bg)" />
  <circle cx="730" cy="180" r="140" fill="#ffffff" fill-opacity="0.18" />
  <circle cx="150" cy="260" r="90" fill="#ffffff" fill-opacity="0.12" />
  
      <rect x="70" y="72" width="300" height="92" rx="24" fill="#ffffff" fill-opacity="0.34" />
      <text x="98" y="120" fill="#2f3a31" font-size="32" font-family="'PingFang SC','Microsoft YaHei',sans-serif" font-weight="600">奶油早安</text>
      <text x="98" y="152" fill="#4e6152" font-size="18" font-family="'PingFang SC','Microsoft YaHei',sans-serif">生日 · 奶油色</text>
    
  <g filter="url(#shadow)">
    <path d="M250 780 L650 780 L730 1080 L170 1080 Z" fill="#ece2d6" fill-opacity="0.88" />
  </g>
  <g>
    
    <g transform="translate(228.82 366.89) rotate(-4.54)">
      <path d="M 0 0 C -8 76.20, 10 126.99, -6 186.26" stroke="#93aa86" stroke-width="10.16" fill="none" stroke-linecap="round" />
      <ellipse cx="-20" cy="93.13" rx="18.63" ry="35.56" fill="#93aa86" fill-opacity="0.75" transform="rotate(-24)" />
      <ellipse cx="28" cy="115.14" rx="16.93" ry="32.17" fill="#93aa86" fill-opacity="0.66" transform="rotate(20)" />
      <g transform="translate(0 0)">
        <ellipse cx="23.71" cy="0.00" rx="15.24" ry="23.71" fill="#f7d7d8" fill-opacity="0.95" /><ellipse cx="16.76" cy="16.76" rx="15.24" ry="23.71" fill="#f7d7d8" fill-opacity="0.95" /><ellipse cx="0.00" cy="23.71" rx="15.24" ry="23.71" fill="#f7d7d8" fill-opacity="0.95" /><ellipse cx="-16.76" cy="16.76" rx="15.24" ry="23.71" fill="#f7d7d8" fill-opacity="0.95" /><ellipse cx="-23.71" cy="0.00" rx="15.24" ry="23.71" fill="#f7d7d8" fill-opacity="0.95" /><ellipse cx="-16.76" cy="-16.76" rx="15.24" ry="23.71" fill="#f7d7d8" fill-opacity="0.95" /><ellipse cx="-0.00" cy="-23.71" rx="15.24" ry="23.71" fill="#f7d7d8" fill-opacity="0.95" /><ellipse cx="16.76" cy="-16.76" rx="15.24" ry="23.71" fill="#f7d7d8" fill-opacity="0.95" />
        <circle cx="0" cy="0" r="15.24" fill="#f0b8a4" />
        <circle cx="0" cy="0" r="7.62" fill="#fff7f0" fill-opacity="0.72" />
      </g>
    </g>
    
    <g transform="translate(617.12 481.79) rotate(-15.88)">
      <path d="M 0 0 C -8 89.16, 10 148.59, -6 217.93" stroke="#7c9573" stroke-width="11.89" fill="none" stroke-linecap="round" />
      <ellipse cx="-20" cy="108.97" rx="21.79" ry="41.61" fill="#7c9573" fill-opacity="0.75" transform="rotate(-24)" />
      <ellipse cx="28" cy="134.72" rx="19.81" ry="37.64" fill="#7c9573" fill-opacity="0.66" transform="rotate(20)" />
      <g transform="translate(0 0)">
        <ellipse cx="27.74" cy="0.00" rx="17.83" ry="27.74" fill="#f4e4ca" fill-opacity="0.95" /><ellipse cx="19.61" cy="19.61" rx="17.83" ry="27.74" fill="#f4e4ca" fill-opacity="0.95" /><ellipse cx="0.00" cy="27.74" rx="17.83" ry="27.74" fill="#f4e4ca" fill-opacity="0.95" /><ellipse cx="-19.61" cy="19.61" rx="17.83" ry="27.74" fill="#f4e4ca" fill-opacity="0.95" /><ellipse cx="-27.74" cy="0.00" rx="17.83" ry="27.74" fill="#f4e4ca" fill-opacity="0.95" /><ellipse cx="-19.61" cy="-19.61" rx="17.83" ry="27.74" fill="#f4e4ca" fill-opacity="0.95" /><ellipse cx="-0.00" cy="-27.74" rx="17.83" ry="27.74" fill="#f4e4ca" fill-opacity="0.95" /><ellipse cx="19.61" cy="-19.61" rx="17.83" ry="27.74" fill="#f4e4ca" fill-opacity="0.95" />
        <circle cx="0" cy="0" r="17.83" fill="#f0b8a4" />
        <circle cx="0" cy="0" r="8.92" fill="#fff7f0" fill-opacity="0.72" />
      </g>
    </g>
    
    <g transform="translate(256.94 420.28) rotate(-12.49)">
      <path d="M 0 0 C -8 110.41, 10 184.01, -6 269.88" stroke="#aebc9f" stroke-width="14.72" fill="none" stroke-linecap="round" />
      <ellipse cx="-20" cy="134.94" rx="26.99" ry="51.52" fill="#aebc9f" fill-opacity="0.75" transform="rotate(-24)" />
      <ellipse cx="28" cy="166.84" rx="24.53" ry="46.62" fill="#aebc9f" fill-opacity="0.66" transform="rotate(20)" />
      <g transform="translate(0 0)">
        <ellipse cx="34.35" cy="0.00" rx="22.08" ry="34.35" fill="#f7efe8" fill-opacity="0.95" /><ellipse cx="24.29" cy="24.29" rx="22.08" ry="34.35" fill="#f7efe8" fill-opacity="0.95" /><ellipse cx="0.00" cy="34.35" rx="22.08" ry="34.35" fill="#f7efe8" fill-opacity="0.95" /><ellipse cx="-24.29" cy="24.29" rx="22.08" ry="34.35" fill="#f7efe8" fill-opacity="0.95" /><ellipse cx="-34.35" cy="0.00" rx="22.08" ry="34.35" fill="#f7efe8" fill-opacity="0.95" /><ellipse cx="-24.29" cy="-24.29" rx="22.08" ry="34.35" fill="#f7efe8" fill-opacity="0.95" /><ellipse cx="-0.00" cy="-34.35" rx="22.08" ry="34.35" fill="#f7efe8" fill-opacity="0.95" /><ellipse cx="24.29" cy="-24.29" rx="22.08" ry="34.35" fill="#f7efe8" fill-opacity="0.95" />
        <circle cx="0" cy="0" r="22.08" fill="#f0b8a4" />
        <circle cx="0" cy="0" r="11.04" fill="#fff7f0" fill-opacity="0.72" />
      </g>
    </g>
    
    <g transform="translate(330.18 401.73) rotate(-0.66)">
      <path d="M 0 0 C -8 86.69, 10 144.49, -6 211.91" stroke="#93aa86" stroke-width="11.56" fill="none" stroke-linecap="round" />
      <ellipse cx="-20" cy="105.96" rx="21.19" ry="40.46" fill="#93aa86" fill-opacity="0.75" transform="rotate(-24)" />
      <ellipse cx="28" cy="131.00" rx="19.26" ry="36.60" fill="#93aa86" fill-opacity="0.66" transform="rotate(20)" />
      <g transform="translate(0 0)">
        <ellipse cx="26.97" cy="0.00" rx="17.34" ry="26.97" fill="#efc7ce" fill-opacity="0.95" /><ellipse cx="19.07" cy="19.07" rx="17.34" ry="26.97" fill="#efc7ce" fill-opacity="0.95" /><ellipse cx="0.00" cy="26.97" rx="17.34" ry="26.97" fill="#efc7ce" fill-opacity="0.95" /><ellipse cx="-19.07" cy="19.07" rx="17.34" ry="26.97" fill="#efc7ce" fill-opacity="0.95" /><ellipse cx="-26.97" cy="0.00" rx="17.34" ry="26.97" fill="#efc7ce" fill-opacity="0.95" /><ellipse cx="-19.07" cy="-19.07" rx="17.34" ry="26.97" fill="#efc7ce" fill-opacity="0.95" /><ellipse cx="-0.00" cy="-26.97" rx="17.34" ry="26.97" fill="#efc7ce" fill-opacity="0.95" /><ellipse cx="19.07" cy="-19.07" rx="17.34" ry="26.97" fill="#efc7ce" fill-opacity="0.95" />
        <circle cx="0" cy="0" r="17.34" fill="#f0b8a4" />
        <circle cx="0" cy="0" r="8.67" fill="#fff7f0" fill-opacity="0.72" />
      </g>
    </g>
    
    <g transform="translate(381.35 417.53) rotate(-22.04)">
      <path d="M 0 0 C -8 85.94, 10 143.23, -6 210.08" stroke="#7c9573" stroke-width="11.46" fill="none" stroke-linecap="round" />
      <ellipse cx="-20" cy="105.04" rx="21.01" ry="40.11" fill="#7c9573" fill-opacity="0.75" transform="rotate(-24)" />
      <ellipse cx="28" cy="129.87" rx="19.10" ry="36.29" fill="#7c9573" fill-opacity="0.66" transform="rotate(20)" />
      <g transform="translate(0 0)">
        <ellipse cx="26.74" cy="0.00" rx="17.19" ry="26.74" fill="#f7d7d8" fill-opacity="0.95" /><ellipse cx="18.91" cy="18.91" rx="17.19" ry="26.74" fill="#f7d7d8" fill-opacity="0.95" /><ellipse cx="0.00" cy="26.74" rx="17.19" ry="26.74" fill="#f7d7d8" fill-opacity="0.95" /><ellipse cx="-18.91" cy="18.91" rx="17.19" ry="26.74" fill="#f7d7d8" fill-opacity="0.95" /><ellipse cx="-26.74" cy="0.00" rx="17.19" ry="26.74" fill="#f7d7d8" fill-opacity="0.95" /><ellipse cx="-18.91" cy="-18.91" rx="17.19" ry="26.74" fill="#f7d7d8" fill-opacity="0.95" /><ellipse cx="-0.00" cy="-26.74" rx="17.19" ry="26.74" fill="#f7d7d8" fill-opacity="0.95" /><ellipse cx="18.91" cy="-18.91" rx="17.19" ry="26.74" fill="#f7d7d8" fill-opacity="0.95" />
        <circle cx="0" cy="0" r="17.19" fill="#f0b8a4" />
        <circle cx="0" cy="0" r="8.59" fill="#fff7f0" fill-opacity="0.72" />
      </g>
    </g>
    
    <g transform="translate(625.29 315.35) rotate(-11.13)">
      <path d="M 0 0 C -8 105.67, 10 176.11, -6 258.30" stroke="#aebc9f" stroke-width="14.09" fill="none" stroke-linecap="round" />
      <ellipse cx="-20" cy="129.15" rx="25.83" ry="49.31" fill="#aebc9f" fill-opacity="0.75" transform="rotate(-24)" />
      <ellipse cx="28" cy="159.68" rx="23.48" ry="44.62" fill="#aebc9f" fill-opacity="0.66" transform="rotate(20)" />
      <g transform="translate(0 0)">
        <ellipse cx="32.87" cy="0.00" rx="21.13" ry="32.87" fill="#f4e4ca" fill-opacity="0.95" /><ellipse cx="23.25" cy="23.25" rx="21.13" ry="32.87" fill="#f4e4ca" fill-opacity="0.95" /><ellipse cx="0.00" cy="32.87" rx="21.13" ry="32.87" fill="#f4e4ca" fill-opacity="0.95" /><ellipse cx="-23.25" cy="23.25" rx="21.13" ry="32.87" fill="#f4e4ca" fill-opacity="0.95" /><ellipse cx="-32.87" cy="0.00" rx="21.13" ry="32.87" fill="#f4e4ca" fill-opacity="0.95" /><ellipse cx="-23.25" cy="-23.25" rx="21.13" ry="32.87" fill="#f4e4ca" fill-opacity="0.95" /><ellipse cx="-0.00" cy="-32.87" rx="21.13" ry="32.87" fill="#f4e4ca" fill-opacity="0.95" /><ellipse cx="23.25" cy="-23.25" rx="21.13" ry="32.87" fill="#f4e4ca" fill-opacity="0.95" />
        <circle cx="0" cy="0" r="21.13" fill="#f0b8a4" />
        <circle cx="0" cy="0" r="10.57" fill="#fff7f0" fill-opacity="0.72" />
      </g>
    </g>
    
  </g>
  <path d="M0 980 C220 920, 420 1030, 900 930 L900 1100 L0 1100 Z" fill="#ffffff" fill-opacity="0.22" />
</svg>
