<svg xmlns="http://www.w3.org/2000/svg" width="900" height="1100" viewBox="0 0 900 1100">
  <defs>
    <linearGradient id="bg" x1="0" y1="0" x2="0" y2="1">
      <stop offset="0%" stop-color="#fff5f1" />
      <stop offset="100%" stop-color="#f7efe4" />
    </linearGradient>
    <filter id="shadow" x="-20%" y="-20%" width="140%" height="140%">
      <feDropShadow dx="0" dy="22" stdDeviation="24" flood-color="#6c5d4f" flood-opacity="0.12" />
    </filter>
  </defs>
  <rect width="100%" height="100%" fill="url(#bg)" />
  <circle cx="730" cy="180" r="140" fill="#ffffff" fill-opacity="0.18" />
  <circle cx="150" cy="260" r="90" fill="#ffffff" fill-opacity="0.12" />
  
      <rect x="70" y="72" width="300" height="92" rx="24" fill="#ffffff" fill-opacity="0.34" />
      <text x="98" y="120" fill="#2f3a31" font-size="32" font-family="'PingFang SC','Microsoft YaHei',sans-serif" font-weight="600">微糖花束</text>
      <text x="98" y="152" fill="#4e6152" font-size="18" font-family="'PingFang SC','Microsoft YaHei',sans-serif">告白 · 小花束</text>
    
  <g filter="url(#shadow)">
    <path d="M250 780 L650 780 L730 1080 L170 1080 Z" fill="#ece2d6" fill-opacity="0.88" />
  </g>
  <g>
    
    <g transform="translate(512.07 419.89) rotate(-10.17)">
      <path d="M 0 0 C -8 100.65, 10 167.76, -6 246.04" stroke="#93aa86" stroke-width="13.42" fill="none" stroke-linecap="round" />
      <ellipse cx="-20" cy="123.02" rx="24.60" ry="46.97" fill="#93aa86" fill-opacity="0.75" transform="rotate(-24)" />
      <ellipse cx="28" cy="152.10" rx="22.37" ry="42.50" fill="#93aa86" fill-opacity="0.66" transform="rotate(20)" />
      <g transform="translate(0 0)">
        <ellipse cx="31.31" cy="0.00" rx="20.13" ry="31.31" fill="#f7d7d8" fill-opacity="0.95" /><ellipse cx="22.14" cy="22.14" rx="20.13" ry="31.31" fill="#f7d7d8" fill-opacity="0.95" /><ellipse cx="0.00" cy="31.31" rx="20.13" ry="31.31" fill="#f7d7d8" fill-opacity="0.95" /><ellipse cx="-22.14" cy="22.14" rx="20.13" ry="31.31" fill="#f7d7d8" fill-opacity="0.95" /><ellipse cx="-31.31" cy="0.00" rx="20.13" ry="31.31" fill="#f7d7d8" fill-opacity="0.95" /><ellipse cx="-22.14" cy="-22.14" rx="20.13" ry="31.31" fill="#f7d7d8" fill-opacity="0.95" /><ellipse cx="-0.00" cy="-31.31" rx="20.13" ry="31.31" fill="#f7d7d8" fill-opacity="0.95" /><ellipse cx="22.14" cy="-22.14" rx="20.13" ry="31.31" fill="#f7d7d8" fill-opacity="0.95" />
        <circle cx="0" cy="0" r="20.13" fill="#f0b8a4" />
        <circle cx="0" cy="0" r="10.07" fill="#fff7f0" fill-opacity="0.72" />
      </g>
    </g>
    
    <g transform="translate(240.72 407.29) rotate(-6.17)">
      <path d="M 0 0 C -8 78.19, 10 130.32, -6 191.13" stroke="#7c9573" stroke-width="10.43" fill="none" stroke-linecap="round" />
      <ellipse cx="-20" cy="95.57" rx="19.11" ry="36.49" fill="#7c9573" fill-opacity="0.75" transform="rotate(-24)" />
      <ellipse cx="28" cy="118.16" rx="17.38" ry="33.01" fill="#7c9573" fill-opacity="0.66" transform="rotate(20)" />
      <g transform="translate(0 0)">
        <ellipse cx="24.33" cy="0.00" rx="15.64" ry="24.33" fill="#f4e4ca" fill-opacity="0.95" /><ellipse cx="17.20" cy="17.20" rx="15.64" ry="24.33" fill="#f4e4ca" fill-opacity="0.95" /><ellipse cx="0.00" cy="24.33" rx="15.64" ry="24.33" fill="#f4e4ca" fill-opacity="0.95" /><ellipse cx="-17.20" cy="17.20" rx="15.64" ry="24.33" fill="#f4e4ca" fill-opacity="0.95" /><ellipse cx="-24.33" cy="0.00" rx="15.64" ry="24.33" fill="#f4e4ca" fill-opacity="0.95" /><ellipse cx="-17.20" cy="-17.20" rx="15.64" ry="24.33" fill="#f4e4ca" fill-opacity="0.95" /><ellipse cx="-0.00" cy="-24.33" rx="15.64" ry="24.33" fill="#f4e4ca" fill-opacity="0.95" /><ellipse cx="17.20" cy="-17.20" rx="15.64" ry="24.33" fill="#f4e4ca" fill-opacity="0.95" />
        <circle cx="0" cy="0" r="15.64" fill="#f0b8a4" />
        <circle cx="0" cy="0" r="7.82" fill="#fff7f0" fill-opacity="0.72" />
      </g>
    </g>
    
    <g transform="translate(328.16 473.90) rotate(-21.65)">
      <path d="M 0 0 C -8 103.73, 10 172.89, -6 253.57" stroke="#aebc9f" stroke-width="13.83" fill="none" stroke-linecap="round" />
      <ellipse cx="-20" cy="126.78" rx="25.36" ry="48.41" fill="#aebc9f" fill-opacity="0.75" transform="rotate(-24)" />
      <ellipse cx="28" cy="156.75" rx="23.05" ry="43.80" fill="#aebc9f" fill-opacity="0.66" transform="rotate(20)" />
      <g transform="translate(0 0)">
        <ellipse cx="32.27" cy="0.00" rx="20.75" ry="32.27" fill="#f7efe8" fill-opacity="0.95" /><ellipse cx="22.82" cy="22.82" rx="20.75" ry="32.27" fill="#f7efe8" fill-opacity="0.95" /><ellipse cx="0.00" cy="32.27" rx="20.75" ry="32.27" fill="#f7efe8" fill-opacity="0.95" /><ellipse cx="-22.82" cy="22.82" rx="20.75" ry="32.27" fill="#f7efe8" fill-opacity="0.95" /><ellipse cx="-32.27" cy="0.00" rx="20.75" ry="32.27" fill="#f7efe8" fill-opacity="0.95" /><ellipse cx="-22.82" cy="-22.82" rx="20.75" ry="32.27" fill="#f7efe8" fill-opacity="0.95" /><ellipse cx="-0.00" cy="-32.27" rx="20.75" ry="32.27" fill="#f7efe8" fill-opacity="0.95" /><ellipse cx="22.82" cy="-22.82" rx="20.75" ry="32.27" fill="#f7efe8" fill-opacity="0.95" />
        <circle cx="0" cy="0" r="20.75" fill="#f0b8a4" />
        <circle cx="0" cy="0" r="10.37" fill="#fff7f0" fill-opacity="0.72" />
      </g>
    </g>
    
    <g transform="translate(417.40 369.99) rotate(-3.87)">
      <path d="M 0 0 C -8 84.52, 10 140.87, -6 206.60" stroke="#93aa86" stroke-width="11.27" fill="none" stroke-linecap="round" />
      <ellipse cx="-20" cy="103.30" rx="20.66" ry="39.44" fill="#93aa86" fill-opacity="0.75" transform="rotate(-24)" />
      <ellipse cx="28" cy="127.72" rx="18.78" ry="35.69" fill="#93aa86" fill-opacity="0.66" transform="rotate(20)" />
      <g transform="translate(0 0)">
        <ellipse cx="26.30" cy="0.00" rx="16.90" ry="26.30" fill="#efc7ce" fill-opacity="0.95" /><ellipse cx="18.59" cy="18.59" rx="16.90" ry="26.30" fill="#efc7ce" fill-opacity="0.95" /><ellipse cx="0.00" cy="26.30" rx="16.90" ry="26.30" fill="#efc7ce" fill-opacity="0.95" /><ellipse cx="-18.59" cy="18.59" rx="16.90" ry="26.30" fill="#efc7ce" fill-opacity="0.95" /><ellipse cx="-26.30" cy="0.00" rx="16.90" ry="26.30" fill="#efc7ce" fill-opacity="0.95" /><ellipse cx="-18.59" cy="-18.59" rx="16.90" ry="26.30" fill="#efc7ce" fill-opacity="0.95" /><ellipse cx="-0.00" cy="-26.30" rx="16.90" ry="26.30" fill="#efc7ce" fill-opacity="0.95" /><ellipse cx="18.59" cy="-18.59" rx="16.90" ry="26.30" fill="#efc7ce" fill-opacity="0.95" />
        <circle cx="0" cy="0" r="16.90" fill="#f0b8a4" />
        <circle cx="0" cy="0" r="8.45" fill="#fff7f0" fill-opacity="0.72" />
      </g>
    </g>
    
    <g transform="translate(378.73 301.00) rotate(2.36)">
      <path d="M 0 0 C -8 91.27, 10 152.12, -6 223.10" stroke="#7c9573" stroke-width="12.17" fill="none" stroke-linecap="round" />
      <ellipse cx="-20" cy="111.55" rx="22.31" ry="42.59" fill="#7c9573" fill-opacity="0.75" transform="rotate(-24)" />
      <ellipse cx="28" cy="137.92" rx="20.28" ry="38.54" fill="#7c9573" fill-opacity="0.66" transform="rotate(20)" />
      <g transform="translate(0 0)">
        <ellipse cx="28.40" cy="0.00" rx="18.25" ry="28.40" fill="#f7d7d8" fill-opacity="0.95" /><ellipse cx="20.08" cy="20.08" rx="18.25" ry="28.40" fill="#f7d7d8" fill-opacity="0.95" /><ellipse cx="0.00" cy="28.40" rx="18.25" ry="28.40" fill="#f7d7d8" fill-opacity="0.95" /><ellipse cx="-20.08" cy="20.08" rx="18.25" ry="28.40" fill="#f7d7d8" fill-opacity="0.95" /><ellipse cx="-28.40" cy="0.00" rx="18.25" ry="28.40" fill="#f7d7d8" fill-opacity="0.95" /><ellipse cx="-20.08" cy="-20.08" rx="18.25" ry="28.40" fill="#f7d7d8" fill-opacity="0.95" /><ellipse cx="-0.00" cy="-28.40" rx="18.25" ry="28.40" fill="#f7d7d8" fill-opacity="0.95" /><ellipse cx="20.08" cy="-20.08" rx="18.25" ry="28.40" fill="#f7d7d8" fill-opacity="0.95" />
        <circle cx="0" cy="0" r="18.25" fill="#f0b8a4" />
        <circle cx="0" cy="0" r="9.13" fill="#fff7f0" fill-opacity="0.72" />
      </g>
    </g>
    
    <g transform="translate(371.32 442.84) rotate(24.08)">
      <path d="M 0 0 C -8 73.51, 10 122.51, -6 179.68" stroke="#aebc9f" stroke-width="9.80" fill="none" stroke-linecap="round" />
      <ellipse cx="-20" cy="89.84" rx="17.97" ry="34.30" fill="#aebc9f" fill-opacity="0.75" transform="rotate(-24)" />
      <ellipse cx="28" cy="111.07" rx="16.33" ry="31.04" fill="#aebc9f" fill-opacity="0.66" transform="rotate(20)" />
      <g transform="translate(0 0)">
        <ellipse cx="22.87" cy="0.00" rx="14.70" ry="22.87" fill="#f4e4ca" fill-opacity="0.95" /><ellipse cx="16.17" cy="16.17" rx="14.70" ry="22.87" fill="#f4e4ca" fill-opacity="0.95" /><ellipse cx="0.00" cy="22.87" rx="14.70" ry="22.87" fill="#f4e4ca" fill-opacity="0.95" /><ellipse cx="-16.17" cy="16.17" rx="14.70" ry="22.87" fill="#f4e4ca" fill-opacity="0.95" /><ellipse cx="-22.87" cy="0.00" rx="14.70" ry="22.87" fill="#f4e4ca" fill-opacity="0.95" /><ellipse cx="-16.17" cy="-16.17" rx="14.70" ry="22.87" fill="#f4e4ca" fill-opacity="0.95" /><ellipse cx="-0.00" cy="-22.87" rx="14.70" ry="22.87" fill="#f4e4ca" fill-opacity="0.95" /><ellipse cx="16.17" cy="-16.17" rx="14.70" ry="22.87" fill="#f4e4ca" fill-opacity="0.95" />
        <circle cx="0" cy="0" r="14.70" fill="#f0b8a4" />
        <circle cx="0" cy="0" r="7.35" fill="#fff7f0" fill-opacity="0.72" />
      </g>
    </g>
    
    <g transform="translate(263.38 375.17) rotate(14.82)">
      <path d="M 0 0 C -8 102.85, 10 171.42, -6 251.42" stroke="#93aa86" stroke-width="13.71" fill="none" stroke-linecap="round" />
      <ellipse cx="-20" cy="125.71" rx="25.14" ry="48.00" fill="#93aa86" fill-opacity="0.75" transform="rotate(-24)" />
      <ellipse cx="28" cy="155.42" rx="22.86" ry="43.43" fill="#93aa86" fill-opacity="0.66" transform="rotate(20)" />
      <g transform="translate(0 0)">
        <ellipse cx="32.00" cy="0.00" rx="20.57" ry="32.00" fill="#f7efe8" fill-opacity="0.95" /><ellipse cx="22.63" cy="22.63" rx="20.57" ry="32.00" fill="#f7efe8" fill-opacity="0.95" /><ellipse cx="0.00" cy="32.00" rx="20.57" ry="32.00" fill="#f7efe8" fill-opacity="0.95" /><ellipse cx="-22.63" cy="22.63" rx="20.57" ry="32.00" fill="#f7efe8" fill-opacity="0.95" /><ellipse cx="-32.00" cy="0.00" rx="20.57" ry="32.00" fill="#f7efe8" fill-opacity="0.95" /><ellipse cx="-22.63" cy="-22.63" rx="20.57" ry="32.00" fill="#f7efe8" fill-opacity="0.95" /><ellipse cx="-0.00" cy="-32.00" rx="20.57" ry="32.00" fill="#f7efe8" fill-opacity="0.95" /><ellipse cx="22.63" cy="-22.63" rx="20.57" ry="32.00" fill="#f7efe8" fill-opacity="0.95" />
        <circle cx="0" cy="0" r="20.57" fill="#f0b8a4" />
        <circle cx="0" cy="0" r="10.29" fill="#fff7f0" fill-opacity="0.72" />
      </g>
    </g>
    
  </g>
  <path d="M0 980 C220 920, 420 1030, 900 930 L900 1100 L0 1100 Z" fill="#ffffff" fill-opacity="0.22" />
</svg>
