<svg xmlns="http://www.w3.org/2000/svg" width="900" height="1100" viewBox="0 0 900 1100">
  <defs>
    <linearGradient id="bg" x1="0" y1="0" x2="0" y2="1">
      <stop offset="0%" stop-color="#fff5f1" />
      <stop offset="100%" stop-color="#f7efe4" />
    </linearGradient>
    <filter id="shadow" x="-20%" y="-20%" width="140%" height="140%">
      <feDropShadow dx="0" dy="22" stdDeviation="24" flood-color="#6c5d4f" flood-opacity="0.12" />
    </filter>
  </defs>
  <rect width="100%" height="100%" fill="url(#bg)" />
  <circle cx="730" cy="180" r="140" fill="#ffffff" fill-opacity="0.18" />
  <circle cx="150" cy="260" r="90" fill="#ffffff" fill-opacity="0.12" />
  
      <rect x="70" y="72" width="300" height="92" rx="24" fill="#ffffff" fill-opacity="0.34" />
      <text x="98" y="120" fill="#2f3a31" font-size="32" font-family="'PingFang SC','Microsoft YaHei',sans-serif" font-weight="600">初甜心意</text>
      <text x="98" y="152" fill="#4e6152" font-size="18" font-family="'PingFang SC','Microsoft YaHei',sans-serif">生日 · 奶油色</text>
    
  <g filter="url(#shadow)">
    <path d="M250 780 L650 780 L730 1080 L170 1080 Z" fill="#ece2d6" fill-opacity="0.88" />
  </g>
  <g>
    
    <g transform="translate(324.00 546.09) rotate(10.03)">
      <path d="M 0 0 C -8 81.17, 10 135.28, -6 198.41" stroke="#93aa86" stroke-width="10.82" fill="none" stroke-linecap="round" />
      <ellipse cx="-20" cy="99.20" rx="19.84" ry="37.88" fill="#93aa86" fill-opacity="0.75" transform="rotate(-24)" />
      <ellipse cx="28" cy="122.65" rx="18.04" ry="34.27" fill="#93aa86" fill-opacity="0.66" transform="rotate(20)" />
      <g transform="translate(0 0)">
        <ellipse cx="25.25" cy="0.00" rx="16.23" ry="25.25" fill="#f7d7d8" fill-opacity="0.95" /><ellipse cx="17.86" cy="17.86" rx="16.23" ry="25.25" fill="#f7d7d8" fill-opacity="0.95" /><ellipse cx="0.00" cy="25.25" rx="16.23" ry="25.25" fill="#f7d7d8" fill-opacity="0.95" /><ellipse cx="-17.86" cy="17.86" rx="16.23" ry="25.25" fill="#f7d7d8" fill-opacity="0.95" /><ellipse cx="-25.25" cy="0.00" rx="16.23" ry="25.25" fill="#f7d7d8" fill-opacity="0.95" /><ellipse cx="-17.86" cy="-17.86" rx="16.23" ry="25.25" fill="#f7d7d8" fill-opacity="0.95" /><ellipse cx="-0.00" cy="-25.25" rx="16.23" ry="25.25" fill="#f7d7d8" fill-opacity="0.95" /><ellipse cx="17.86" cy="-17.86" rx="16.23" ry="25.25" fill="#f7d7d8" fill-opacity="0.95" />
        <circle cx="0" cy="0" r="16.23" fill="#f0b8a4" />
        <circle cx="0" cy="0" r="8.12" fill="#fff7f0" fill-opacity="0.72" />
      </g>
    </g>
    
    <g transform="translate(260.85 489.85) rotate(-7.96)">
      <path d="M 0 0 C -8 92.33, 10 153.89, -6 225.70" stroke="#7c9573" stroke-width="12.31" fill="none" stroke-linecap="round" />
      <ellipse cx="-20" cy="112.85" rx="22.57" ry="43.09" fill="#7c9573" fill-opacity="0.75" transform="rotate(-24)" />
      <ellipse cx="28" cy="139.53" rx="20.52" ry="38.99" fill="#7c9573" fill-opacity="0.66" transform="rotate(20)" />
      <g transform="translate(0 0)">
        <ellipse cx="28.73" cy="0.00" rx="18.47" ry="28.73" fill="#f4e4ca" fill-opacity="0.95" /><ellipse cx="20.31" cy="20.31" rx="18.47" ry="28.73" fill="#f4e4ca" fill-opacity="0.95" /><ellipse cx="0.00" cy="28.73" rx="18.47" ry="28.73" fill="#f4e4ca" fill-opacity="0.95" /><ellipse cx="-20.31" cy="20.31" rx="18.47" ry="28.73" fill="#f4e4ca" fill-opacity="0.95" /><ellipse cx="-28.73" cy="0.00" rx="18.47" ry="28.73" fill="#f4e4ca" fill-opacity="0.95" /><ellipse cx="-20.31" cy="-20.31" rx="18.47" ry="28.73" fill="#f4e4ca" fill-opacity="0.95" /><ellipse cx="-0.00" cy="-28.73" rx="18.47" ry="28.73" fill="#f4e4ca" fill-opacity="0.95" /><ellipse cx="20.31" cy="-20.31" rx="18.47" ry="28.73" fill="#f4e4ca" fill-opacity="0.95" />
        <circle cx="0" cy="0" r="18.47" fill="#f0b8a4" />
        <circle cx="0" cy="0" r="9.23" fill="#fff7f0" fill-opacity="0.72" />
      </g>
    </g>
    
    <g transform="translate(556.34 443.88) rotate(14.52)">
      <path d="M 0 0 C -8 82.17, 10 136.96, -6 200.87" stroke="#aebc9f" stroke-width="10.96" fill="none" stroke-linecap="round" />
      <ellipse cx="-20" cy="100.44" rx="20.09" ry="38.35" fill="#aebc9f" fill-opacity="0.75" transform="rotate(-24)" />
      <ellipse cx="28" cy="124.18" rx="18.26" ry="34.70" fill="#aebc9f" fill-opacity="0.66" transform="rotate(20)" />
      <g transform="translate(0 0)">
        <ellipse cx="25.57" cy="0.00" rx="16.43" ry="25.57" fill="#f7efe8" fill-opacity="0.95" /><ellipse cx="18.08" cy="18.08" rx="16.43" ry="25.57" fill="#f7efe8" fill-opacity="0.95" /><ellipse cx="0.00" cy="25.57" rx="16.43" ry="25.57" fill="#f7efe8" fill-opacity="0.95" /><ellipse cx="-18.08" cy="18.08" rx="16.43" ry="25.57" fill="#f7efe8" fill-opacity="0.95" /><ellipse cx="-25.57" cy="0.00" rx="16.43" ry="25.57" fill="#f7efe8" fill-opacity="0.95" /><ellipse cx="-18.08" cy="-18.08" rx="16.43" ry="25.57" fill="#f7efe8" fill-opacity="0.95" /><ellipse cx="-0.00" cy="-25.57" rx="16.43" ry="25.57" fill="#f7efe8" fill-opacity="0.95" /><ellipse cx="18.08" cy="-18.08" rx="16.43" ry="25.57" fill="#f7efe8" fill-opacity="0.95" />
        <circle cx="0" cy="0" r="16.43" fill="#f0b8a4" />
        <circle cx="0" cy="0" r="8.22" fill="#fff7f0" fill-opacity="0.72" />
      </g>
    </g>
    
    <g transform="translate(437.30 302.48) rotate(3.20)">
      <path d="M 0 0 C -8 83.06, 10 138.43, -6 203.03" stroke="#93aa86" stroke-width="11.07" fill="none" stroke-linecap="round" />
      <ellipse cx="-20" cy="101.51" rx="20.30" ry="38.76" fill="#93aa86" fill-opacity="0.75" transform="rotate(-24)" />
      <ellipse cx="28" cy="125.51" rx="18.46" ry="35.07" fill="#93aa86" fill-opacity="0.66" transform="rotate(20)" />
      <g transform="translate(0 0)">
        <ellipse cx="25.84" cy="0.00" rx="16.61" ry="25.84" fill="#efc7ce" fill-opacity="0.95" /><ellipse cx="18.27" cy="18.27" rx="16.61" ry="25.84" fill="#efc7ce" fill-opacity="0.95" /><ellipse cx="0.00" cy="25.84" rx="16.61" ry="25.84" fill="#efc7ce" fill-opacity="0.95" /><ellipse cx="-18.27" cy="18.27" rx="16.61" ry="25.84" fill="#efc7ce" fill-opacity="0.95" /><ellipse cx="-25.84" cy="0.00" rx="16.61" ry="25.84" fill="#efc7ce" fill-opacity="0.95" /><ellipse cx="-18.27" cy="-18.27" rx="16.61" ry="25.84" fill="#efc7ce" fill-opacity="0.95" /><ellipse cx="-0.00" cy="-25.84" rx="16.61" ry="25.84" fill="#efc7ce" fill-opacity="0.95" /><ellipse cx="18.27" cy="-18.27" rx="16.61" ry="25.84" fill="#efc7ce" fill-opacity="0.95" />
        <circle cx="0" cy="0" r="16.61" fill="#f0b8a4" />
        <circle cx="0" cy="0" r="8.31" fill="#fff7f0" fill-opacity="0.72" />
      </g>
    </g>
    
    <g transform="translate(260.74 524.12) rotate(-2.84)">
      <path d="M 0 0 C -8 72.02, 10 120.04, -6 176.05" stroke="#7c9573" stroke-width="9.60" fill="none" stroke-linecap="round" />
      <ellipse cx="-20" cy="88.03" rx="17.61" ry="33.61" fill="#7c9573" fill-opacity="0.75" transform="rotate(-24)" />
      <ellipse cx="28" cy="108.83" rx="16.00" ry="30.41" fill="#7c9573" fill-opacity="0.66" transform="rotate(20)" />
      <g transform="translate(0 0)">
        <ellipse cx="22.41" cy="0.00" rx="14.40" ry="22.41" fill="#f7d7d8" fill-opacity="0.95" /><ellipse cx="15.84" cy="15.84" rx="14.40" ry="22.41" fill="#f7d7d8" fill-opacity="0.95" /><ellipse cx="0.00" cy="22.41" rx="14.40" ry="22.41" fill="#f7d7d8" fill-opacity="0.95" /><ellipse cx="-15.84" cy="15.84" rx="14.40" ry="22.41" fill="#f7d7d8" fill-opacity="0.95" /><ellipse cx="-22.41" cy="0.00" rx="14.40" ry="22.41" fill="#f7d7d8" fill-opacity="0.95" /><ellipse cx="-15.84" cy="-15.84" rx="14.40" ry="22.41" fill="#f7d7d8" fill-opacity="0.95" /><ellipse cx="-0.00" cy="-22.41" rx="14.40" ry="22.41" fill="#f7d7d8" fill-opacity="0.95" /><ellipse cx="15.84" cy="-15.84" rx="14.40" ry="22.41" fill="#f7d7d8" fill-opacity="0.95" />
        <circle cx="0" cy="0" r="14.40" fill="#f0b8a4" />
        <circle cx="0" cy="0" r="7.20" fill="#fff7f0" fill-opacity="0.72" />
      </g>
    </g>
    
    <g transform="translate(252.99 528.92) rotate(-11.26)">
      <path d="M 0 0 C -8 78.66, 10 131.10, -6 192.28" stroke="#aebc9f" stroke-width="10.49" fill="none" stroke-linecap="round" />
      <ellipse cx="-20" cy="96.14" rx="19.23" ry="36.71" fill="#aebc9f" fill-opacity="0.75" transform="rotate(-24)" />
      <ellipse cx="28" cy="118.86" rx="17.48" ry="33.21" fill="#aebc9f" fill-opacity="0.66" transform="rotate(20)" />
      <g transform="translate(0 0)">
        <ellipse cx="24.47" cy="0.00" rx="15.73" ry="24.47" fill="#f4e4ca" fill-opacity="0.95" /><ellipse cx="17.30" cy="17.30" rx="15.73" ry="24.47" fill="#f4e4ca" fill-opacity="0.95" /><ellipse cx="0.00" cy="24.47" rx="15.73" ry="24.47" fill="#f4e4ca" fill-opacity="0.95" /><ellipse cx="-17.30" cy="17.30" rx="15.73" ry="24.47" fill="#f4e4ca" fill-opacity="0.95" /><ellipse cx="-24.47" cy="0.00" rx="15.73" ry="24.47" fill="#f4e4ca" fill-opacity="0.95" /><ellipse cx="-17.30" cy="-17.30" rx="15.73" ry="24.47" fill="#f4e4ca" fill-opacity="0.95" /><ellipse cx="-0.00" cy="-24.47" rx="15.73" ry="24.47" fill="#f4e4ca" fill-opacity="0.95" /><ellipse cx="17.30" cy="-17.30" rx="15.73" ry="24.47" fill="#f4e4ca" fill-opacity="0.95" />
        <circle cx="0" cy="0" r="15.73" fill="#f0b8a4" />
        <circle cx="0" cy="0" r="7.87" fill="#fff7f0" fill-opacity="0.72" />
      </g>
    </g>
    
  </g>
  <path d="M0 980 C220 920, 420 1030, 900 930 L900 1100 L0 1100 Z" fill="#ffffff" fill-opacity="0.22" />
</svg>
