<svg xmlns="http://www.w3.org/2000/svg" width="900" height="1100" viewBox="0 0 900 1100">
  <defs>
    <linearGradient id="bg" x1="0" y1="0" x2="0" y2="1">
      <stop offset="0%" stop-color="#fff5f1" />
      <stop offset="100%" stop-color="#f7efe4" />
    </linearGradient>
    <filter id="shadow" x="-20%" y="-20%" width="140%" height="140%">
      <feDropShadow dx="0" dy="22" stdDeviation="24" flood-color="#6c5d4f" flood-opacity="0.12" />
    </filter>
  </defs>
  <rect width="100%" height="100%" fill="url(#bg)" />
  <circle cx="730" cy="180" r="140" fill="#ffffff" fill-opacity="0.18" />
  <circle cx="150" cy="260" r="90" fill="#ffffff" fill-opacity="0.12" />
  
      <rect x="70" y="72" width="300" height="92" rx="24" fill="#ffffff" fill-opacity="0.34" />
      <text x="98" y="120" fill="#2f3a31" font-size="32" font-family="'PingFang SC','Microsoft YaHei',sans-serif" font-weight="600">微糖花束</text>
      <text x="98" y="152" fill="#4e6152" font-size="18" font-family="'PingFang SC','Microsoft YaHei',sans-serif">告白 · 小花束</text>
    
  <g filter="url(#shadow)">
    <path d="M250 780 L650 780 L730 1080 L170 1080 Z" fill="#ece2d6" fill-opacity="0.88" />
  </g>
  <g>
    
    <g transform="translate(509.47 327.53) rotate(10.42)">
      <path d="M 0 0 C -8 71.62, 10 119.37, -6 175.08" stroke="#93aa86" stroke-width="9.55" fill="none" stroke-linecap="round" />
      <ellipse cx="-20" cy="87.54" rx="17.51" ry="33.42" fill="#93aa86" fill-opacity="0.75" transform="rotate(-24)" />
      <ellipse cx="28" cy="108.23" rx="15.92" ry="30.24" fill="#93aa86" fill-opacity="0.66" transform="rotate(20)" />
      <g transform="translate(0 0)">
        <ellipse cx="22.28" cy="0.00" rx="14.32" ry="22.28" fill="#f7d7d8" fill-opacity="0.95" /><ellipse cx="15.76" cy="15.76" rx="14.32" ry="22.28" fill="#f7d7d8" fill-opacity="0.95" /><ellipse cx="0.00" cy="22.28" rx="14.32" ry="22.28" fill="#f7d7d8" fill-opacity="0.95" /><ellipse cx="-15.76" cy="15.76" rx="14.32" ry="22.28" fill="#f7d7d8" fill-opacity="0.95" /><ellipse cx="-22.28" cy="0.00" rx="14.32" ry="22.28" fill="#f7d7d8" fill-opacity="0.95" /><ellipse cx="-15.76" cy="-15.76" rx="14.32" ry="22.28" fill="#f7d7d8" fill-opacity="0.95" /><ellipse cx="-0.00" cy="-22.28" rx="14.32" ry="22.28" fill="#f7d7d8" fill-opacity="0.95" /><ellipse cx="15.76" cy="-15.76" rx="14.32" ry="22.28" fill="#f7d7d8" fill-opacity="0.95" />
        <circle cx="0" cy="0" r="14.32" fill="#f0b8a4" />
        <circle cx="0" cy="0" r="7.16" fill="#fff7f0" fill-opacity="0.72" />
      </g>
    </g>
    
    <g transform="translate(320.20 341.36) rotate(1.76)">
      <path d="M 0 0 C -8 113.38, 10 188.97, -6 277.15" stroke="#7c9573" stroke-width="15.12" fill="none" stroke-linecap="round" />
      <ellipse cx="-20" cy="138.58" rx="27.72" ry="52.91" fill="#7c9573" fill-opacity="0.75" transform="rotate(-24)" />
      <ellipse cx="28" cy="171.33" rx="25.20" ry="47.87" fill="#7c9573" fill-opacity="0.66" transform="rotate(20)" />
      <g transform="translate(0 0)">
        <ellipse cx="35.27" cy="0.00" rx="22.68" ry="35.27" fill="#f4e4ca" fill-opacity="0.95" /><ellipse cx="24.94" cy="24.94" rx="22.68" ry="35.27" fill="#f4e4ca" fill-opacity="0.95" /><ellipse cx="0.00" cy="35.27" rx="22.68" ry="35.27" fill="#f4e4ca" fill-opacity="0.95" /><ellipse cx="-24.94" cy="24.94" rx="22.68" ry="35.27" fill="#f4e4ca" fill-opacity="0.95" /><ellipse cx="-35.27" cy="0.00" rx="22.68" ry="35.27" fill="#f4e4ca" fill-opacity="0.95" /><ellipse cx="-24.94" cy="-24.94" rx="22.68" ry="35.27" fill="#f4e4ca" fill-opacity="0.95" /><ellipse cx="-0.00" cy="-35.27" rx="22.68" ry="35.27" fill="#f4e4ca" fill-opacity="0.95" /><ellipse cx="24.94" cy="-24.94" rx="22.68" ry="35.27" fill="#f4e4ca" fill-opacity="0.95" />
        <circle cx="0" cy="0" r="22.68" fill="#f0b8a4" />
        <circle cx="0" cy="0" r="11.34" fill="#fff7f0" fill-opacity="0.72" />
      </g>
    </g>
    
    <g transform="translate(546.31 366.57) rotate(0.61)">
      <path d="M 0 0 C -8 103.10, 10 171.83, -6 252.01" stroke="#aebc9f" stroke-width="13.75" fill="none" stroke-linecap="round" />
      <ellipse cx="-20" cy="126.01" rx="25.20" ry="48.11" fill="#aebc9f" fill-opacity="0.75" transform="rotate(-24)" />
      <ellipse cx="28" cy="155.79" rx="22.91" ry="43.53" fill="#aebc9f" fill-opacity="0.66" transform="rotate(20)" />
      <g transform="translate(0 0)">
        <ellipse cx="32.07" cy="0.00" rx="20.62" ry="32.07" fill="#f7efe8" fill-opacity="0.95" /><ellipse cx="22.68" cy="22.68" rx="20.62" ry="32.07" fill="#f7efe8" fill-opacity="0.95" /><ellipse cx="0.00" cy="32.07" rx="20.62" ry="32.07" fill="#f7efe8" fill-opacity="0.95" /><ellipse cx="-22.68" cy="22.68" rx="20.62" ry="32.07" fill="#f7efe8" fill-opacity="0.95" /><ellipse cx="-32.07" cy="0.00" rx="20.62" ry="32.07" fill="#f7efe8" fill-opacity="0.95" /><ellipse cx="-22.68" cy="-22.68" rx="20.62" ry="32.07" fill="#f7efe8" fill-opacity="0.95" /><ellipse cx="-0.00" cy="-32.07" rx="20.62" ry="32.07" fill="#f7efe8" fill-opacity="0.95" /><ellipse cx="22.68" cy="-22.68" rx="20.62" ry="32.07" fill="#f7efe8" fill-opacity="0.95" />
        <circle cx="0" cy="0" r="20.62" fill="#f0b8a4" />
        <circle cx="0" cy="0" r="10.31" fill="#fff7f0" fill-opacity="0.72" />
      </g>
    </g>
    
    <g transform="translate(590.93 349.69) rotate(-8.83)">
      <path d="M 0 0 C -8 94.67, 10 157.78, -6 231.41" stroke="#93aa86" stroke-width="12.62" fill="none" stroke-linecap="round" />
      <ellipse cx="-20" cy="115.71" rx="23.14" ry="44.18" fill="#93aa86" fill-opacity="0.75" transform="rotate(-24)" />
      <ellipse cx="28" cy="143.05" rx="21.04" ry="39.97" fill="#93aa86" fill-opacity="0.66" transform="rotate(20)" />
      <g transform="translate(0 0)">
        <ellipse cx="29.45" cy="0.00" rx="18.93" ry="29.45" fill="#efc7ce" fill-opacity="0.95" /><ellipse cx="20.83" cy="20.83" rx="18.93" ry="29.45" fill="#efc7ce" fill-opacity="0.95" /><ellipse cx="0.00" cy="29.45" rx="18.93" ry="29.45" fill="#efc7ce" fill-opacity="0.95" /><ellipse cx="-20.83" cy="20.83" rx="18.93" ry="29.45" fill="#efc7ce" fill-opacity="0.95" /><ellipse cx="-29.45" cy="0.00" rx="18.93" ry="29.45" fill="#efc7ce" fill-opacity="0.95" /><ellipse cx="-20.83" cy="-20.83" rx="18.93" ry="29.45" fill="#efc7ce" fill-opacity="0.95" /><ellipse cx="-0.00" cy="-29.45" rx="18.93" ry="29.45" fill="#efc7ce" fill-opacity="0.95" /><ellipse cx="20.83" cy="-20.83" rx="18.93" ry="29.45" fill="#efc7ce" fill-opacity="0.95" />
        <circle cx="0" cy="0" r="18.93" fill="#f0b8a4" />
        <circle cx="0" cy="0" r="9.47" fill="#fff7f0" fill-opacity="0.72" />
      </g>
    </g>
    
    <g transform="translate(484.69 333.13) rotate(-13.67)">
      <path d="M 0 0 C -8 92.64, 10 154.41, -6 226.46" stroke="#7c9573" stroke-width="12.35" fill="none" stroke-linecap="round" />
      <ellipse cx="-20" cy="113.23" rx="22.65" ry="43.23" fill="#7c9573" fill-opacity="0.75" transform="rotate(-24)" />
      <ellipse cx="28" cy="140.00" rx="20.59" ry="39.12" fill="#7c9573" fill-opacity="0.66" transform="rotate(20)" />
      <g transform="translate(0 0)">
        <ellipse cx="28.82" cy="0.00" rx="18.53" ry="28.82" fill="#f7d7d8" fill-opacity="0.95" /><ellipse cx="20.38" cy="20.38" rx="18.53" ry="28.82" fill="#f7d7d8" fill-opacity="0.95" /><ellipse cx="0.00" cy="28.82" rx="18.53" ry="28.82" fill="#f7d7d8" fill-opacity="0.95" /><ellipse cx="-20.38" cy="20.38" rx="18.53" ry="28.82" fill="#f7d7d8" fill-opacity="0.95" /><ellipse cx="-28.82" cy="0.00" rx="18.53" ry="28.82" fill="#f7d7d8" fill-opacity="0.95" /><ellipse cx="-20.38" cy="-20.38" rx="18.53" ry="28.82" fill="#f7d7d8" fill-opacity="0.95" /><ellipse cx="-0.00" cy="-28.82" rx="18.53" ry="28.82" fill="#f7d7d8" fill-opacity="0.95" /><ellipse cx="20.38" cy="-20.38" rx="18.53" ry="28.82" fill="#f7d7d8" fill-opacity="0.95" />
        <circle cx="0" cy="0" r="18.53" fill="#f0b8a4" />
        <circle cx="0" cy="0" r="9.26" fill="#fff7f0" fill-opacity="0.72" />
      </g>
    </g>
    
    <g transform="translate(292.29 524.65) rotate(-18.33)">
      <path d="M 0 0 C -8 93.11, 10 155.18, -6 227.60" stroke="#aebc9f" stroke-width="12.41" fill="none" stroke-linecap="round" />
      <ellipse cx="-20" cy="113.80" rx="22.76" ry="43.45" fill="#aebc9f" fill-opacity="0.75" transform="rotate(-24)" />
      <ellipse cx="28" cy="140.70" rx="20.69" ry="39.31" fill="#aebc9f" fill-opacity="0.66" transform="rotate(20)" />
      <g transform="translate(0 0)">
        <ellipse cx="28.97" cy="0.00" rx="18.62" ry="28.97" fill="#f4e4ca" fill-opacity="0.95" /><ellipse cx="20.48" cy="20.48" rx="18.62" ry="28.97" fill="#f4e4ca" fill-opacity="0.95" /><ellipse cx="0.00" cy="28.97" rx="18.62" ry="28.97" fill="#f4e4ca" fill-opacity="0.95" /><ellipse cx="-20.48" cy="20.48" rx="18.62" ry="28.97" fill="#f4e4ca" fill-opacity="0.95" /><ellipse cx="-28.97" cy="0.00" rx="18.62" ry="28.97" fill="#f4e4ca" fill-opacity="0.95" /><ellipse cx="-20.48" cy="-20.48" rx="18.62" ry="28.97" fill="#f4e4ca" fill-opacity="0.95" /><ellipse cx="-0.00" cy="-28.97" rx="18.62" ry="28.97" fill="#f4e4ca" fill-opacity="0.95" /><ellipse cx="20.48" cy="-20.48" rx="18.62" ry="28.97" fill="#f4e4ca" fill-opacity="0.95" />
        <circle cx="0" cy="0" r="18.62" fill="#f0b8a4" />
        <circle cx="0" cy="0" r="9.31" fill="#fff7f0" fill-opacity="0.72" />
      </g>
    </g>
    
  </g>
  <path d="M0 980 C220 920, 420 1030, 900 930 L900 1100 L0 1100 Z" fill="#ffffff" fill-opacity="0.22" />
</svg>
