<svg xmlns="http://www.w3.org/2000/svg" width="900" height="1100" viewBox="0 0 900 1100">
  <defs>
    <linearGradient id="bg" x1="0" y1="0" x2="0" y2="1">
      <stop offset="0%" stop-color="#fff5f1" />
      <stop offset="100%" stop-color="#f7efe4" />
    </linearGradient>
    <filter id="shadow" x="-20%" y="-20%" width="140%" height="140%">
      <feDropShadow dx="0" dy="22" stdDeviation="24" flood-color="#6c5d4f" flood-opacity="0.12" />
    </filter>
  </defs>
  <rect width="100%" height="100%" fill="url(#bg)" />
  <circle cx="730" cy="180" r="140" fill="#ffffff" fill-opacity="0.18" />
  <circle cx="150" cy="260" r="90" fill="#ffffff" fill-opacity="0.12" />
  
      <rect x="70" y="72" width="300" height="92" rx="24" fill="#ffffff" fill-opacity="0.34" />
      <text x="98" y="120" fill="#2f3a31" font-size="32" font-family="'PingFang SC','Microsoft YaHei',sans-serif" font-weight="600">温柔回信</text>
      <text x="98" y="152" fill="#4e6152" font-size="18" font-family="'PingFang SC','Microsoft YaHei',sans-serif">探望 · 粉白系</text>
    
  <g filter="url(#shadow)">
    <path d="M250 780 L650 780 L730 1080 L170 1080 Z" fill="#ece2d6" fill-opacity="0.88" />
  </g>
  <g>
    
    <g transform="translate(301.81 469.02) rotate(-11.68)">
      <path d="M 0 0 C -8 79.13, 10 131.88, -6 193.43" stroke="#93aa86" stroke-width="10.55" fill="none" stroke-linecap="round" />
      <ellipse cx="-20" cy="96.72" rx="19.34" ry="36.93" fill="#93aa86" fill-opacity="0.75" transform="rotate(-24)" />
      <ellipse cx="28" cy="119.58" rx="17.58" ry="33.41" fill="#93aa86" fill-opacity="0.66" transform="rotate(20)" />
      <g transform="translate(0 0)">
        <ellipse cx="24.62" cy="0.00" rx="15.83" ry="24.62" fill="#f7d7d8" fill-opacity="0.95" /><ellipse cx="17.41" cy="17.41" rx="15.83" ry="24.62" fill="#f7d7d8" fill-opacity="0.95" /><ellipse cx="0.00" cy="24.62" rx="15.83" ry="24.62" fill="#f7d7d8" fill-opacity="0.95" /><ellipse cx="-17.41" cy="17.41" rx="15.83" ry="24.62" fill="#f7d7d8" fill-opacity="0.95" /><ellipse cx="-24.62" cy="0.00" rx="15.83" ry="24.62" fill="#f7d7d8" fill-opacity="0.95" /><ellipse cx="-17.41" cy="-17.41" rx="15.83" ry="24.62" fill="#f7d7d8" fill-opacity="0.95" /><ellipse cx="-0.00" cy="-24.62" rx="15.83" ry="24.62" fill="#f7d7d8" fill-opacity="0.95" /><ellipse cx="17.41" cy="-17.41" rx="15.83" ry="24.62" fill="#f7d7d8" fill-opacity="0.95" />
        <circle cx="0" cy="0" r="15.83" fill="#f0b8a4" />
        <circle cx="0" cy="0" r="7.91" fill="#fff7f0" fill-opacity="0.72" />
      </g>
    </g>
    
    <g transform="translate(551.43 478.99) rotate(-15.57)">
      <path d="M 0 0 C -8 92.55, 10 154.26, -6 226.24" stroke="#7c9573" stroke-width="12.34" fill="none" stroke-linecap="round" />
      <ellipse cx="-20" cy="113.12" rx="22.62" ry="43.19" fill="#7c9573" fill-opacity="0.75" transform="rotate(-24)" />
      <ellipse cx="28" cy="139.86" rx="20.57" ry="39.08" fill="#7c9573" fill-opacity="0.66" transform="rotate(20)" />
      <g transform="translate(0 0)">
        <ellipse cx="28.79" cy="0.00" rx="18.51" ry="28.79" fill="#f4e4ca" fill-opacity="0.95" /><ellipse cx="20.36" cy="20.36" rx="18.51" ry="28.79" fill="#f4e4ca" fill-opacity="0.95" /><ellipse cx="0.00" cy="28.79" rx="18.51" ry="28.79" fill="#f4e4ca" fill-opacity="0.95" /><ellipse cx="-20.36" cy="20.36" rx="18.51" ry="28.79" fill="#f4e4ca" fill-opacity="0.95" /><ellipse cx="-28.79" cy="0.00" rx="18.51" ry="28.79" fill="#f4e4ca" fill-opacity="0.95" /><ellipse cx="-20.36" cy="-20.36" rx="18.51" ry="28.79" fill="#f4e4ca" fill-opacity="0.95" /><ellipse cx="-0.00" cy="-28.79" rx="18.51" ry="28.79" fill="#f4e4ca" fill-opacity="0.95" /><ellipse cx="20.36" cy="-20.36" rx="18.51" ry="28.79" fill="#f4e4ca" fill-opacity="0.95" />
        <circle cx="0" cy="0" r="18.51" fill="#f0b8a4" />
        <circle cx="0" cy="0" r="9.26" fill="#fff7f0" fill-opacity="0.72" />
      </g>
    </g>
    
    <g transform="translate(255.68 536.42) rotate(-9.23)">
      <path d="M 0 0 C -8 107.93, 10 179.88, -6 263.83" stroke="#aebc9f" stroke-width="14.39" fill="none" stroke-linecap="round" />
      <ellipse cx="-20" cy="131.92" rx="26.38" ry="50.37" fill="#aebc9f" fill-opacity="0.75" transform="rotate(-24)" />
      <ellipse cx="28" cy="163.10" rx="23.98" ry="45.57" fill="#aebc9f" fill-opacity="0.66" transform="rotate(20)" />
      <g transform="translate(0 0)">
        <ellipse cx="33.58" cy="0.00" rx="21.59" ry="33.58" fill="#f7efe8" fill-opacity="0.95" /><ellipse cx="23.74" cy="23.74" rx="21.59" ry="33.58" fill="#f7efe8" fill-opacity="0.95" /><ellipse cx="0.00" cy="33.58" rx="21.59" ry="33.58" fill="#f7efe8" fill-opacity="0.95" /><ellipse cx="-23.74" cy="23.74" rx="21.59" ry="33.58" fill="#f7efe8" fill-opacity="0.95" /><ellipse cx="-33.58" cy="0.00" rx="21.59" ry="33.58" fill="#f7efe8" fill-opacity="0.95" /><ellipse cx="-23.74" cy="-23.74" rx="21.59" ry="33.58" fill="#f7efe8" fill-opacity="0.95" /><ellipse cx="-0.00" cy="-33.58" rx="21.59" ry="33.58" fill="#f7efe8" fill-opacity="0.95" /><ellipse cx="23.74" cy="-23.74" rx="21.59" ry="33.58" fill="#f7efe8" fill-opacity="0.95" />
        <circle cx="0" cy="0" r="21.59" fill="#f0b8a4" />
        <circle cx="0" cy="0" r="10.79" fill="#fff7f0" fill-opacity="0.72" />
      </g>
    </g>
    
    <g transform="translate(695.13 531.33) rotate(6.53)">
      <path d="M 0 0 C -8 80.22, 10 133.71, -6 196.10" stroke="#93aa86" stroke-width="10.70" fill="none" stroke-linecap="round" />
      <ellipse cx="-20" cy="98.05" rx="19.61" ry="37.44" fill="#93aa86" fill-opacity="0.75" transform="rotate(-24)" />
      <ellipse cx="28" cy="121.23" rx="17.83" ry="33.87" fill="#93aa86" fill-opacity="0.66" transform="rotate(20)" />
      <g transform="translate(0 0)">
        <ellipse cx="24.96" cy="0.00" rx="16.04" ry="24.96" fill="#efc7ce" fill-opacity="0.95" /><ellipse cx="17.65" cy="17.65" rx="16.04" ry="24.96" fill="#efc7ce" fill-opacity="0.95" /><ellipse cx="0.00" cy="24.96" rx="16.04" ry="24.96" fill="#efc7ce" fill-opacity="0.95" /><ellipse cx="-17.65" cy="17.65" rx="16.04" ry="24.96" fill="#efc7ce" fill-opacity="0.95" /><ellipse cx="-24.96" cy="0.00" rx="16.04" ry="24.96" fill="#efc7ce" fill-opacity="0.95" /><ellipse cx="-17.65" cy="-17.65" rx="16.04" ry="24.96" fill="#efc7ce" fill-opacity="0.95" /><ellipse cx="-0.00" cy="-24.96" rx="16.04" ry="24.96" fill="#efc7ce" fill-opacity="0.95" /><ellipse cx="17.65" cy="-17.65" rx="16.04" ry="24.96" fill="#efc7ce" fill-opacity="0.95" />
        <circle cx="0" cy="0" r="16.04" fill="#f0b8a4" />
        <circle cx="0" cy="0" r="8.02" fill="#fff7f0" fill-opacity="0.72" />
      </g>
    </g>
    
    <g transform="translate(238.50 537.58) rotate(23.69)">
      <path d="M 0 0 C -8 98.00, 10 163.34, -6 239.56" stroke="#7c9573" stroke-width="13.07" fill="none" stroke-linecap="round" />
      <ellipse cx="-20" cy="119.78" rx="23.96" ry="45.73" fill="#7c9573" fill-opacity="0.75" transform="rotate(-24)" />
      <ellipse cx="28" cy="148.09" rx="21.78" ry="41.38" fill="#7c9573" fill-opacity="0.66" transform="rotate(20)" />
      <g transform="translate(0 0)">
        <ellipse cx="30.49" cy="0.00" rx="19.60" ry="30.49" fill="#f7d7d8" fill-opacity="0.95" /><ellipse cx="21.56" cy="21.56" rx="19.60" ry="30.49" fill="#f7d7d8" fill-opacity="0.95" /><ellipse cx="0.00" cy="30.49" rx="19.60" ry="30.49" fill="#f7d7d8" fill-opacity="0.95" /><ellipse cx="-21.56" cy="21.56" rx="19.60" ry="30.49" fill="#f7d7d8" fill-opacity="0.95" /><ellipse cx="-30.49" cy="0.00" rx="19.60" ry="30.49" fill="#f7d7d8" fill-opacity="0.95" /><ellipse cx="-21.56" cy="-21.56" rx="19.60" ry="30.49" fill="#f7d7d8" fill-opacity="0.95" /><ellipse cx="-0.00" cy="-30.49" rx="19.60" ry="30.49" fill="#f7d7d8" fill-opacity="0.95" /><ellipse cx="21.56" cy="-21.56" rx="19.60" ry="30.49" fill="#f7d7d8" fill-opacity="0.95" />
        <circle cx="0" cy="0" r="19.60" fill="#f0b8a4" />
        <circle cx="0" cy="0" r="9.80" fill="#fff7f0" fill-opacity="0.72" />
      </g>
    </g>
    
    <g transform="translate(302.82 499.99) rotate(-14.71)">
      <path d="M 0 0 C -8 74.24, 10 123.73, -6 181.47" stroke="#aebc9f" stroke-width="9.90" fill="none" stroke-linecap="round" />
      <ellipse cx="-20" cy="90.74" rx="18.15" ry="34.64" fill="#aebc9f" fill-opacity="0.75" transform="rotate(-24)" />
      <ellipse cx="28" cy="112.18" rx="16.50" ry="31.34" fill="#aebc9f" fill-opacity="0.66" transform="rotate(20)" />
      <g transform="translate(0 0)">
        <ellipse cx="23.10" cy="0.00" rx="14.85" ry="23.10" fill="#f4e4ca" fill-opacity="0.95" /><ellipse cx="16.33" cy="16.33" rx="14.85" ry="23.10" fill="#f4e4ca" fill-opacity="0.95" /><ellipse cx="0.00" cy="23.10" rx="14.85" ry="23.10" fill="#f4e4ca" fill-opacity="0.95" /><ellipse cx="-16.33" cy="16.33" rx="14.85" ry="23.10" fill="#f4e4ca" fill-opacity="0.95" /><ellipse cx="-23.10" cy="0.00" rx="14.85" ry="23.10" fill="#f4e4ca" fill-opacity="0.95" /><ellipse cx="-16.33" cy="-16.33" rx="14.85" ry="23.10" fill="#f4e4ca" fill-opacity="0.95" /><ellipse cx="-0.00" cy="-23.10" rx="14.85" ry="23.10" fill="#f4e4ca" fill-opacity="0.95" /><ellipse cx="16.33" cy="-16.33" rx="14.85" ry="23.10" fill="#f4e4ca" fill-opacity="0.95" />
        <circle cx="0" cy="0" r="14.85" fill="#f0b8a4" />
        <circle cx="0" cy="0" r="7.42" fill="#fff7f0" fill-opacity="0.72" />
      </g>
    </g>
    
    <g transform="translate(486.19 387.57) rotate(16.56)">
      <path d="M 0 0 C -8 101.52, 10 169.19, -6 248.15" stroke="#93aa86" stroke-width="13.54" fill="none" stroke-linecap="round" />
      <ellipse cx="-20" cy="124.07" rx="24.81" ry="47.37" fill="#93aa86" fill-opacity="0.75" transform="rotate(-24)" />
      <ellipse cx="28" cy="153.40" rx="22.56" ry="42.86" fill="#93aa86" fill-opacity="0.66" transform="rotate(20)" />
      <g transform="translate(0 0)">
        <ellipse cx="31.58" cy="0.00" rx="20.30" ry="31.58" fill="#f7efe8" fill-opacity="0.95" /><ellipse cx="22.33" cy="22.33" rx="20.30" ry="31.58" fill="#f7efe8" fill-opacity="0.95" /><ellipse cx="0.00" cy="31.58" rx="20.30" ry="31.58" fill="#f7efe8" fill-opacity="0.95" /><ellipse cx="-22.33" cy="22.33" rx="20.30" ry="31.58" fill="#f7efe8" fill-opacity="0.95" /><ellipse cx="-31.58" cy="0.00" rx="20.30" ry="31.58" fill="#f7efe8" fill-opacity="0.95" /><ellipse cx="-22.33" cy="-22.33" rx="20.30" ry="31.58" fill="#f7efe8" fill-opacity="0.95" /><ellipse cx="-0.00" cy="-31.58" rx="20.30" ry="31.58" fill="#f7efe8" fill-opacity="0.95" /><ellipse cx="22.33" cy="-22.33" rx="20.30" ry="31.58" fill="#f7efe8" fill-opacity="0.95" />
        <circle cx="0" cy="0" r="20.30" fill="#f0b8a4" />
        <circle cx="0" cy="0" r="10.15" fill="#fff7f0" fill-opacity="0.72" />
      </g>
    </g>
    
  </g>
  <path d="M0 980 C220 920, 420 1030, 900 930 L900 1100 L0 1100 Z" fill="#ffffff" fill-opacity="0.22" />
</svg>
