<svg xmlns="http://www.w3.org/2000/svg" width="900" height="1100" viewBox="0 0 900 1100">
  <defs>
    <linearGradient id="bg" x1="0" y1="0" x2="0" y2="1">
      <stop offset="0%" stop-color="#fff5f1" />
      <stop offset="100%" stop-color="#f7efe4" />
    </linearGradient>
    <filter id="shadow" x="-20%" y="-20%" width="140%" height="140%">
      <feDropShadow dx="0" dy="22" stdDeviation="24" flood-color="#6c5d4f" flood-opacity="0.12" />
    </filter>
  </defs>
  <rect width="100%" height="100%" fill="url(#bg)" />
  <circle cx="730" cy="180" r="140" fill="#ffffff" fill-opacity="0.18" />
  <circle cx="150" cy="260" r="90" fill="#ffffff" fill-opacity="0.12" />
  
      <rect x="70" y="72" width="300" height="92" rx="24" fill="#ffffff" fill-opacity="0.34" />
      <text x="98" y="120" fill="#2f3a31" font-size="32" font-family="'PingFang SC','Microsoft YaHei',sans-serif" font-weight="600">晴窗花礼</text>
      <text x="98" y="152" fill="#4e6152" font-size="18" font-family="'PingFang SC','Microsoft YaHei',sans-serif">告白 · 小花束</text>
    
  <g filter="url(#shadow)">
    <path d="M250 780 L650 780 L730 1080 L170 1080 Z" fill="#ece2d6" fill-opacity="0.88" />
  </g>
  <g>
    
    <g transform="translate(383.53 454.40) rotate(19.09)">
      <path d="M 0 0 C -8 80.09, 10 133.48, -6 195.77" stroke="#93aa86" stroke-width="10.68" fill="none" stroke-linecap="round" />
      <ellipse cx="-20" cy="97.88" rx="19.58" ry="37.37" fill="#93aa86" fill-opacity="0.75" transform="rotate(-24)" />
      <ellipse cx="28" cy="121.02" rx="17.80" ry="33.81" fill="#93aa86" fill-opacity="0.66" transform="rotate(20)" />
      <g transform="translate(0 0)">
        <ellipse cx="24.92" cy="0.00" rx="16.02" ry="24.92" fill="#f7d7d8" fill-opacity="0.95" /><ellipse cx="17.62" cy="17.62" rx="16.02" ry="24.92" fill="#f7d7d8" fill-opacity="0.95" /><ellipse cx="0.00" cy="24.92" rx="16.02" ry="24.92" fill="#f7d7d8" fill-opacity="0.95" /><ellipse cx="-17.62" cy="17.62" rx="16.02" ry="24.92" fill="#f7d7d8" fill-opacity="0.95" /><ellipse cx="-24.92" cy="0.00" rx="16.02" ry="24.92" fill="#f7d7d8" fill-opacity="0.95" /><ellipse cx="-17.62" cy="-17.62" rx="16.02" ry="24.92" fill="#f7d7d8" fill-opacity="0.95" /><ellipse cx="-0.00" cy="-24.92" rx="16.02" ry="24.92" fill="#f7d7d8" fill-opacity="0.95" /><ellipse cx="17.62" cy="-17.62" rx="16.02" ry="24.92" fill="#f7d7d8" fill-opacity="0.95" />
        <circle cx="0" cy="0" r="16.02" fill="#f0b8a4" />
        <circle cx="0" cy="0" r="8.01" fill="#fff7f0" fill-opacity="0.72" />
      </g>
    </g>
    
    <g transform="translate(562.64 492.16) rotate(16.69)">
      <path d="M 0 0 C -8 100.18, 10 166.97, -6 244.89" stroke="#7c9573" stroke-width="13.36" fill="none" stroke-linecap="round" />
      <ellipse cx="-20" cy="122.45" rx="24.49" ry="46.75" fill="#7c9573" fill-opacity="0.75" transform="rotate(-24)" />
      <ellipse cx="28" cy="151.39" rx="22.26" ry="42.30" fill="#7c9573" fill-opacity="0.66" transform="rotate(20)" />
      <g transform="translate(0 0)">
        <ellipse cx="31.17" cy="0.00" rx="20.04" ry="31.17" fill="#f4e4ca" fill-opacity="0.95" /><ellipse cx="22.04" cy="22.04" rx="20.04" ry="31.17" fill="#f4e4ca" fill-opacity="0.95" /><ellipse cx="0.00" cy="31.17" rx="20.04" ry="31.17" fill="#f4e4ca" fill-opacity="0.95" /><ellipse cx="-22.04" cy="22.04" rx="20.04" ry="31.17" fill="#f4e4ca" fill-opacity="0.95" /><ellipse cx="-31.17" cy="0.00" rx="20.04" ry="31.17" fill="#f4e4ca" fill-opacity="0.95" /><ellipse cx="-22.04" cy="-22.04" rx="20.04" ry="31.17" fill="#f4e4ca" fill-opacity="0.95" /><ellipse cx="-0.00" cy="-31.17" rx="20.04" ry="31.17" fill="#f4e4ca" fill-opacity="0.95" /><ellipse cx="22.04" cy="-22.04" rx="20.04" ry="31.17" fill="#f4e4ca" fill-opacity="0.95" />
        <circle cx="0" cy="0" r="20.04" fill="#f0b8a4" />
        <circle cx="0" cy="0" r="10.02" fill="#fff7f0" fill-opacity="0.72" />
      </g>
    </g>
    
    <g transform="translate(502.08 409.26) rotate(8.07)">
      <path d="M 0 0 C -8 83.59, 10 139.32, -6 204.34" stroke="#aebc9f" stroke-width="11.15" fill="none" stroke-linecap="round" />
      <ellipse cx="-20" cy="102.17" rx="20.43" ry="39.01" fill="#aebc9f" fill-opacity="0.75" transform="rotate(-24)" />
      <ellipse cx="28" cy="126.32" rx="18.58" ry="35.29" fill="#aebc9f" fill-opacity="0.66" transform="rotate(20)" />
      <g transform="translate(0 0)">
        <ellipse cx="26.01" cy="0.00" rx="16.72" ry="26.01" fill="#f7efe8" fill-opacity="0.95" /><ellipse cx="18.39" cy="18.39" rx="16.72" ry="26.01" fill="#f7efe8" fill-opacity="0.95" /><ellipse cx="0.00" cy="26.01" rx="16.72" ry="26.01" fill="#f7efe8" fill-opacity="0.95" /><ellipse cx="-18.39" cy="18.39" rx="16.72" ry="26.01" fill="#f7efe8" fill-opacity="0.95" /><ellipse cx="-26.01" cy="0.00" rx="16.72" ry="26.01" fill="#f7efe8" fill-opacity="0.95" /><ellipse cx="-18.39" cy="-18.39" rx="16.72" ry="26.01" fill="#f7efe8" fill-opacity="0.95" /><ellipse cx="-0.00" cy="-26.01" rx="16.72" ry="26.01" fill="#f7efe8" fill-opacity="0.95" /><ellipse cx="18.39" cy="-18.39" rx="16.72" ry="26.01" fill="#f7efe8" fill-opacity="0.95" />
        <circle cx="0" cy="0" r="16.72" fill="#f0b8a4" />
        <circle cx="0" cy="0" r="8.36" fill="#fff7f0" fill-opacity="0.72" />
      </g>
    </g>
    
    <g transform="translate(420.12 508.13) rotate(-8.29)">
      <path d="M 0 0 C -8 84.40, 10 140.67, -6 206.32" stroke="#93aa86" stroke-width="11.25" fill="none" stroke-linecap="round" />
      <ellipse cx="-20" cy="103.16" rx="20.63" ry="39.39" fill="#93aa86" fill-opacity="0.75" transform="rotate(-24)" />
      <ellipse cx="28" cy="127.54" rx="18.76" ry="35.64" fill="#93aa86" fill-opacity="0.66" transform="rotate(20)" />
      <g transform="translate(0 0)">
        <ellipse cx="26.26" cy="0.00" rx="16.88" ry="26.26" fill="#efc7ce" fill-opacity="0.95" /><ellipse cx="18.57" cy="18.57" rx="16.88" ry="26.26" fill="#efc7ce" fill-opacity="0.95" /><ellipse cx="0.00" cy="26.26" rx="16.88" ry="26.26" fill="#efc7ce" fill-opacity="0.95" /><ellipse cx="-18.57" cy="18.57" rx="16.88" ry="26.26" fill="#efc7ce" fill-opacity="0.95" /><ellipse cx="-26.26" cy="0.00" rx="16.88" ry="26.26" fill="#efc7ce" fill-opacity="0.95" /><ellipse cx="-18.57" cy="-18.57" rx="16.88" ry="26.26" fill="#efc7ce" fill-opacity="0.95" /><ellipse cx="-0.00" cy="-26.26" rx="16.88" ry="26.26" fill="#efc7ce" fill-opacity="0.95" /><ellipse cx="18.57" cy="-18.57" rx="16.88" ry="26.26" fill="#efc7ce" fill-opacity="0.95" />
        <circle cx="0" cy="0" r="16.88" fill="#f0b8a4" />
        <circle cx="0" cy="0" r="8.44" fill="#fff7f0" fill-opacity="0.72" />
      </g>
    </g>
    
    <g transform="translate(469.50 504.19) rotate(1.02)">
      <path d="M 0 0 C -8 107.48, 10 179.14, -6 262.73" stroke="#7c9573" stroke-width="14.33" fill="none" stroke-linecap="round" />
      <ellipse cx="-20" cy="131.37" rx="26.27" ry="50.16" fill="#7c9573" fill-opacity="0.75" transform="rotate(-24)" />
      <ellipse cx="28" cy="162.42" rx="23.88" ry="45.38" fill="#7c9573" fill-opacity="0.66" transform="rotate(20)" />
      <g transform="translate(0 0)">
        <ellipse cx="33.44" cy="0.00" rx="21.50" ry="33.44" fill="#f7d7d8" fill-opacity="0.95" /><ellipse cx="23.64" cy="23.64" rx="21.50" ry="33.44" fill="#f7d7d8" fill-opacity="0.95" /><ellipse cx="0.00" cy="33.44" rx="21.50" ry="33.44" fill="#f7d7d8" fill-opacity="0.95" /><ellipse cx="-23.64" cy="23.64" rx="21.50" ry="33.44" fill="#f7d7d8" fill-opacity="0.95" /><ellipse cx="-33.44" cy="0.00" rx="21.50" ry="33.44" fill="#f7d7d8" fill-opacity="0.95" /><ellipse cx="-23.64" cy="-23.64" rx="21.50" ry="33.44" fill="#f7d7d8" fill-opacity="0.95" /><ellipse cx="-0.00" cy="-33.44" rx="21.50" ry="33.44" fill="#f7d7d8" fill-opacity="0.95" /><ellipse cx="23.64" cy="-23.64" rx="21.50" ry="33.44" fill="#f7d7d8" fill-opacity="0.95" />
        <circle cx="0" cy="0" r="21.50" fill="#f0b8a4" />
        <circle cx="0" cy="0" r="10.75" fill="#fff7f0" fill-opacity="0.72" />
      </g>
    </g>
    
    <g transform="translate(562.46 293.58) rotate(-15.09)">
      <path d="M 0 0 C -8 113.13, 10 188.55, -6 276.54" stroke="#aebc9f" stroke-width="15.08" fill="none" stroke-linecap="round" />
      <ellipse cx="-20" cy="138.27" rx="27.65" ry="52.79" fill="#aebc9f" fill-opacity="0.75" transform="rotate(-24)" />
      <ellipse cx="28" cy="170.95" rx="25.14" ry="47.77" fill="#aebc9f" fill-opacity="0.66" transform="rotate(20)" />
      <g transform="translate(0 0)">
        <ellipse cx="35.20" cy="0.00" rx="22.63" ry="35.20" fill="#f4e4ca" fill-opacity="0.95" /><ellipse cx="24.89" cy="24.89" rx="22.63" ry="35.20" fill="#f4e4ca" fill-opacity="0.95" /><ellipse cx="0.00" cy="35.20" rx="22.63" ry="35.20" fill="#f4e4ca" fill-opacity="0.95" /><ellipse cx="-24.89" cy="24.89" rx="22.63" ry="35.20" fill="#f4e4ca" fill-opacity="0.95" /><ellipse cx="-35.20" cy="0.00" rx="22.63" ry="35.20" fill="#f4e4ca" fill-opacity="0.95" /><ellipse cx="-24.89" cy="-24.89" rx="22.63" ry="35.20" fill="#f4e4ca" fill-opacity="0.95" /><ellipse cx="-0.00" cy="-35.20" rx="22.63" ry="35.20" fill="#f4e4ca" fill-opacity="0.95" /><ellipse cx="24.89" cy="-24.89" rx="22.63" ry="35.20" fill="#f4e4ca" fill-opacity="0.95" />
        <circle cx="0" cy="0" r="22.63" fill="#f0b8a4" />
        <circle cx="0" cy="0" r="11.31" fill="#fff7f0" fill-opacity="0.72" />
      </g>
    </g>
    
  </g>
  <path d="M0 980 C220 920, 420 1030, 900 930 L900 1100 L0 1100 Z" fill="#ffffff" fill-opacity="0.22" />
</svg>
