<svg xmlns="http://www.w3.org/2000/svg" width="900" height="1100" viewBox="0 0 900 1100">
  <defs>
    <linearGradient id="bg" x1="0" y1="0" x2="0" y2="1">
      <stop offset="0%" stop-color="#fff5f1" />
      <stop offset="100%" stop-color="#f7efe4" />
    </linearGradient>
    <filter id="shadow" x="-20%" y="-20%" width="140%" height="140%">
      <feDropShadow dx="0" dy="22" stdDeviation="24" flood-color="#6c5d4f" flood-opacity="0.12" />
    </filter>
  </defs>
  <rect width="100%" height="100%" fill="url(#bg)" />
  <circle cx="730" cy="180" r="140" fill="#ffffff" fill-opacity="0.18" />
  <circle cx="150" cy="260" r="90" fill="#ffffff" fill-opacity="0.12" />
  
      <rect x="70" y="72" width="300" height="92" rx="24" fill="#ffffff" fill-opacity="0.34" />
      <text x="98" y="120" fill="#2f3a31" font-size="32" font-family="'PingFang SC','Microsoft YaHei',sans-serif" font-weight="600">晴窗花礼</text>
      <text x="98" y="152" fill="#4e6152" font-size="18" font-family="'PingFang SC','Microsoft YaHei',sans-serif">告白 · 小花束</text>
    
  <g filter="url(#shadow)">
    <path d="M250 780 L650 780 L730 1080 L170 1080 Z" fill="#ece2d6" fill-opacity="0.88" />
  </g>
  <g>
    
    <g transform="translate(327.33 334.55) rotate(-21.60)">
      <path d="M 0 0 C -8 87.85, 10 146.41, -6 214.74" stroke="#93aa86" stroke-width="11.71" fill="none" stroke-linecap="round" />
      <ellipse cx="-20" cy="107.37" rx="21.47" ry="41.00" fill="#93aa86" fill-opacity="0.75" transform="rotate(-24)" />
      <ellipse cx="28" cy="132.75" rx="19.52" ry="37.09" fill="#93aa86" fill-opacity="0.66" transform="rotate(20)" />
      <g transform="translate(0 0)">
        <ellipse cx="27.33" cy="0.00" rx="17.57" ry="27.33" fill="#f7d7d8" fill-opacity="0.95" /><ellipse cx="19.33" cy="19.33" rx="17.57" ry="27.33" fill="#f7d7d8" fill-opacity="0.95" /><ellipse cx="0.00" cy="27.33" rx="17.57" ry="27.33" fill="#f7d7d8" fill-opacity="0.95" /><ellipse cx="-19.33" cy="19.33" rx="17.57" ry="27.33" fill="#f7d7d8" fill-opacity="0.95" /><ellipse cx="-27.33" cy="0.00" rx="17.57" ry="27.33" fill="#f7d7d8" fill-opacity="0.95" /><ellipse cx="-19.33" cy="-19.33" rx="17.57" ry="27.33" fill="#f7d7d8" fill-opacity="0.95" /><ellipse cx="-0.00" cy="-27.33" rx="17.57" ry="27.33" fill="#f7d7d8" fill-opacity="0.95" /><ellipse cx="19.33" cy="-19.33" rx="17.57" ry="27.33" fill="#f7d7d8" fill-opacity="0.95" />
        <circle cx="0" cy="0" r="17.57" fill="#f0b8a4" />
        <circle cx="0" cy="0" r="8.78" fill="#fff7f0" fill-opacity="0.72" />
      </g>
    </g>
    
    <g transform="translate(630.59 550.28) rotate(-10.99)">
      <path d="M 0 0 C -8 82.29, 10 137.15, -6 201.15" stroke="#7c9573" stroke-width="10.97" fill="none" stroke-linecap="round" />
      <ellipse cx="-20" cy="100.58" rx="20.12" ry="38.40" fill="#7c9573" fill-opacity="0.75" transform="rotate(-24)" />
      <ellipse cx="28" cy="124.35" rx="18.29" ry="34.74" fill="#7c9573" fill-opacity="0.66" transform="rotate(20)" />
      <g transform="translate(0 0)">
        <ellipse cx="25.60" cy="0.00" rx="16.46" ry="25.60" fill="#f4e4ca" fill-opacity="0.95" /><ellipse cx="18.10" cy="18.10" rx="16.46" ry="25.60" fill="#f4e4ca" fill-opacity="0.95" /><ellipse cx="0.00" cy="25.60" rx="16.46" ry="25.60" fill="#f4e4ca" fill-opacity="0.95" /><ellipse cx="-18.10" cy="18.10" rx="16.46" ry="25.60" fill="#f4e4ca" fill-opacity="0.95" /><ellipse cx="-25.60" cy="0.00" rx="16.46" ry="25.60" fill="#f4e4ca" fill-opacity="0.95" /><ellipse cx="-18.10" cy="-18.10" rx="16.46" ry="25.60" fill="#f4e4ca" fill-opacity="0.95" /><ellipse cx="-0.00" cy="-25.60" rx="16.46" ry="25.60" fill="#f4e4ca" fill-opacity="0.95" /><ellipse cx="18.10" cy="-18.10" rx="16.46" ry="25.60" fill="#f4e4ca" fill-opacity="0.95" />
        <circle cx="0" cy="0" r="16.46" fill="#f0b8a4" />
        <circle cx="0" cy="0" r="8.23" fill="#fff7f0" fill-opacity="0.72" />
      </g>
    </g>
    
    <g transform="translate(553.11 332.63) rotate(13.57)">
      <path d="M 0 0 C -8 77.05, 10 128.42, -6 188.35" stroke="#aebc9f" stroke-width="10.27" fill="none" stroke-linecap="round" />
      <ellipse cx="-20" cy="94.17" rx="18.83" ry="35.96" fill="#aebc9f" fill-opacity="0.75" transform="rotate(-24)" />
      <ellipse cx="28" cy="116.43" rx="17.12" ry="32.53" fill="#aebc9f" fill-opacity="0.66" transform="rotate(20)" />
      <g transform="translate(0 0)">
        <ellipse cx="23.97" cy="0.00" rx="15.41" ry="23.97" fill="#f7efe8" fill-opacity="0.95" /><ellipse cx="16.95" cy="16.95" rx="15.41" ry="23.97" fill="#f7efe8" fill-opacity="0.95" /><ellipse cx="0.00" cy="23.97" rx="15.41" ry="23.97" fill="#f7efe8" fill-opacity="0.95" /><ellipse cx="-16.95" cy="16.95" rx="15.41" ry="23.97" fill="#f7efe8" fill-opacity="0.95" /><ellipse cx="-23.97" cy="0.00" rx="15.41" ry="23.97" fill="#f7efe8" fill-opacity="0.95" /><ellipse cx="-16.95" cy="-16.95" rx="15.41" ry="23.97" fill="#f7efe8" fill-opacity="0.95" /><ellipse cx="-0.00" cy="-23.97" rx="15.41" ry="23.97" fill="#f7efe8" fill-opacity="0.95" /><ellipse cx="16.95" cy="-16.95" rx="15.41" ry="23.97" fill="#f7efe8" fill-opacity="0.95" />
        <circle cx="0" cy="0" r="15.41" fill="#f0b8a4" />
        <circle cx="0" cy="0" r="7.71" fill="#fff7f0" fill-opacity="0.72" />
      </g>
    </g>
    
    <g transform="translate(672.73 314.24) rotate(-14.98)">
      <path d="M 0 0 C -8 79.17, 10 131.95, -6 193.53" stroke="#93aa86" stroke-width="10.56" fill="none" stroke-linecap="round" />
      <ellipse cx="-20" cy="96.76" rx="19.35" ry="36.95" fill="#93aa86" fill-opacity="0.75" transform="rotate(-24)" />
      <ellipse cx="28" cy="119.63" rx="17.59" ry="33.43" fill="#93aa86" fill-opacity="0.66" transform="rotate(20)" />
      <g transform="translate(0 0)">
        <ellipse cx="24.63" cy="0.00" rx="15.83" ry="24.63" fill="#efc7ce" fill-opacity="0.95" /><ellipse cx="17.42" cy="17.42" rx="15.83" ry="24.63" fill="#efc7ce" fill-opacity="0.95" /><ellipse cx="0.00" cy="24.63" rx="15.83" ry="24.63" fill="#efc7ce" fill-opacity="0.95" /><ellipse cx="-17.42" cy="17.42" rx="15.83" ry="24.63" fill="#efc7ce" fill-opacity="0.95" /><ellipse cx="-24.63" cy="0.00" rx="15.83" ry="24.63" fill="#efc7ce" fill-opacity="0.95" /><ellipse cx="-17.42" cy="-17.42" rx="15.83" ry="24.63" fill="#efc7ce" fill-opacity="0.95" /><ellipse cx="-0.00" cy="-24.63" rx="15.83" ry="24.63" fill="#efc7ce" fill-opacity="0.95" /><ellipse cx="17.42" cy="-17.42" rx="15.83" ry="24.63" fill="#efc7ce" fill-opacity="0.95" />
        <circle cx="0" cy="0" r="15.83" fill="#f0b8a4" />
        <circle cx="0" cy="0" r="7.92" fill="#fff7f0" fill-opacity="0.72" />
      </g>
    </g>
    
    <g transform="translate(585.92 547.21) rotate(9.50)">
      <path d="M 0 0 C -8 103.29, 10 172.16, -6 252.50" stroke="#7c9573" stroke-width="13.77" fill="none" stroke-linecap="round" />
      <ellipse cx="-20" cy="126.25" rx="25.25" ry="48.20" fill="#7c9573" fill-opacity="0.75" transform="rotate(-24)" />
      <ellipse cx="28" cy="156.09" rx="22.95" ry="43.61" fill="#7c9573" fill-opacity="0.66" transform="rotate(20)" />
      <g transform="translate(0 0)">
        <ellipse cx="32.14" cy="0.00" rx="20.66" ry="32.14" fill="#f7d7d8" fill-opacity="0.95" /><ellipse cx="22.72" cy="22.72" rx="20.66" ry="32.14" fill="#f7d7d8" fill-opacity="0.95" /><ellipse cx="0.00" cy="32.14" rx="20.66" ry="32.14" fill="#f7d7d8" fill-opacity="0.95" /><ellipse cx="-22.72" cy="22.72" rx="20.66" ry="32.14" fill="#f7d7d8" fill-opacity="0.95" /><ellipse cx="-32.14" cy="0.00" rx="20.66" ry="32.14" fill="#f7d7d8" fill-opacity="0.95" /><ellipse cx="-22.72" cy="-22.72" rx="20.66" ry="32.14" fill="#f7d7d8" fill-opacity="0.95" /><ellipse cx="-0.00" cy="-32.14" rx="20.66" ry="32.14" fill="#f7d7d8" fill-opacity="0.95" /><ellipse cx="22.72" cy="-22.72" rx="20.66" ry="32.14" fill="#f7d7d8" fill-opacity="0.95" />
        <circle cx="0" cy="0" r="20.66" fill="#f0b8a4" />
        <circle cx="0" cy="0" r="10.33" fill="#fff7f0" fill-opacity="0.72" />
      </g>
    </g>
    
    <g transform="translate(682.21 554.20) rotate(-6.82)">
      <path d="M 0 0 C -8 113.83, 10 189.71, -6 278.24" stroke="#aebc9f" stroke-width="15.18" fill="none" stroke-linecap="round" />
      <ellipse cx="-20" cy="139.12" rx="27.82" ry="53.12" fill="#aebc9f" fill-opacity="0.75" transform="rotate(-24)" />
      <ellipse cx="28" cy="172.00" rx="25.29" ry="48.06" fill="#aebc9f" fill-opacity="0.66" transform="rotate(20)" />
      <g transform="translate(0 0)">
        <ellipse cx="35.41" cy="0.00" rx="22.77" ry="35.41" fill="#f4e4ca" fill-opacity="0.95" /><ellipse cx="25.04" cy="25.04" rx="22.77" ry="35.41" fill="#f4e4ca" fill-opacity="0.95" /><ellipse cx="0.00" cy="35.41" rx="22.77" ry="35.41" fill="#f4e4ca" fill-opacity="0.95" /><ellipse cx="-25.04" cy="25.04" rx="22.77" ry="35.41" fill="#f4e4ca" fill-opacity="0.95" /><ellipse cx="-35.41" cy="0.00" rx="22.77" ry="35.41" fill="#f4e4ca" fill-opacity="0.95" /><ellipse cx="-25.04" cy="-25.04" rx="22.77" ry="35.41" fill="#f4e4ca" fill-opacity="0.95" /><ellipse cx="-0.00" cy="-35.41" rx="22.77" ry="35.41" fill="#f4e4ca" fill-opacity="0.95" /><ellipse cx="25.04" cy="-25.04" rx="22.77" ry="35.41" fill="#f4e4ca" fill-opacity="0.95" />
        <circle cx="0" cy="0" r="22.77" fill="#f0b8a4" />
        <circle cx="0" cy="0" r="11.38" fill="#fff7f0" fill-opacity="0.72" />
      </g>
    </g>
    
    <g transform="translate(506.78 396.58) rotate(4.47)">
      <path d="M 0 0 C -8 96.78, 10 161.30, -6 236.57" stroke="#93aa86" stroke-width="12.90" fill="none" stroke-linecap="round" />
      <ellipse cx="-20" cy="118.28" rx="23.66" ry="45.16" fill="#93aa86" fill-opacity="0.75" transform="rotate(-24)" />
      <ellipse cx="28" cy="146.24" rx="21.51" ry="40.86" fill="#93aa86" fill-opacity="0.66" transform="rotate(20)" />
      <g transform="translate(0 0)">
        <ellipse cx="30.11" cy="0.00" rx="19.36" ry="30.11" fill="#f7efe8" fill-opacity="0.95" /><ellipse cx="21.29" cy="21.29" rx="19.36" ry="30.11" fill="#f7efe8" fill-opacity="0.95" /><ellipse cx="0.00" cy="30.11" rx="19.36" ry="30.11" fill="#f7efe8" fill-opacity="0.95" /><ellipse cx="-21.29" cy="21.29" rx="19.36" ry="30.11" fill="#f7efe8" fill-opacity="0.95" /><ellipse cx="-30.11" cy="0.00" rx="19.36" ry="30.11" fill="#f7efe8" fill-opacity="0.95" /><ellipse cx="-21.29" cy="-21.29" rx="19.36" ry="30.11" fill="#f7efe8" fill-opacity="0.95" /><ellipse cx="-0.00" cy="-30.11" rx="19.36" ry="30.11" fill="#f7efe8" fill-opacity="0.95" /><ellipse cx="21.29" cy="-21.29" rx="19.36" ry="30.11" fill="#f7efe8" fill-opacity="0.95" />
        <circle cx="0" cy="0" r="19.36" fill="#f0b8a4" />
        <circle cx="0" cy="0" r="9.68" fill="#fff7f0" fill-opacity="0.72" />
      </g>
    </g>
    
  </g>
  <path d="M0 980 C220 920, 420 1030, 900 930 L900 1100 L0 1100 Z" fill="#ffffff" fill-opacity="0.22" />
</svg>
