<svg xmlns="http://www.w3.org/2000/svg" width="900" height="1100" viewBox="0 0 900 1100">
  <defs>
    <linearGradient id="bg" x1="0" y1="0" x2="0" y2="1">
      <stop offset="0%" stop-color="#fff5f1" />
      <stop offset="100%" stop-color="#f7efe4" />
    </linearGradient>
    <filter id="shadow" x="-20%" y="-20%" width="140%" height="140%">
      <feDropShadow dx="0" dy="22" stdDeviation="24" flood-color="#6c5d4f" flood-opacity="0.12" />
    </filter>
  </defs>
  <rect width="100%" height="100%" fill="url(#bg)" />
  <circle cx="730" cy="180" r="140" fill="#ffffff" fill-opacity="0.18" />
  <circle cx="150" cy="260" r="90" fill="#ffffff" fill-opacity="0.12" />
  
      <rect x="70" y="72" width="300" height="92" rx="24" fill="#ffffff" fill-opacity="0.34" />
      <text x="98" y="120" fill="#2f3a31" font-size="32" font-family="'PingFang SC','Microsoft YaHei',sans-serif" font-weight="600">午后晴光</text>
      <text x="98" y="152" fill="#4e6152" font-size="18" font-family="'PingFang SC','Microsoft YaHei',sans-serif">告白 · 小花束</text>
    
  <g filter="url(#shadow)">
    <path d="M250 780 L650 780 L730 1080 L170 1080 Z" fill="#ece2d6" fill-opacity="0.88" />
  </g>
  <g>
    
    <g transform="translate(692.60 447.52) rotate(-21.22)">
      <path d="M 0 0 C -8 98.07, 10 163.45, -6 239.73" stroke="#93aa86" stroke-width="13.08" fill="none" stroke-linecap="round" />
      <ellipse cx="-20" cy="119.86" rx="23.97" ry="45.77" fill="#93aa86" fill-opacity="0.75" transform="rotate(-24)" />
      <ellipse cx="28" cy="148.20" rx="21.79" ry="41.41" fill="#93aa86" fill-opacity="0.66" transform="rotate(20)" />
      <g transform="translate(0 0)">
        <ellipse cx="30.51" cy="0.00" rx="19.61" ry="30.51" fill="#f7d7d8" fill-opacity="0.95" /><ellipse cx="21.57" cy="21.57" rx="19.61" ry="30.51" fill="#f7d7d8" fill-opacity="0.95" /><ellipse cx="0.00" cy="30.51" rx="19.61" ry="30.51" fill="#f7d7d8" fill-opacity="0.95" /><ellipse cx="-21.57" cy="21.57" rx="19.61" ry="30.51" fill="#f7d7d8" fill-opacity="0.95" /><ellipse cx="-30.51" cy="0.00" rx="19.61" ry="30.51" fill="#f7d7d8" fill-opacity="0.95" /><ellipse cx="-21.57" cy="-21.57" rx="19.61" ry="30.51" fill="#f7d7d8" fill-opacity="0.95" /><ellipse cx="-0.00" cy="-30.51" rx="19.61" ry="30.51" fill="#f7d7d8" fill-opacity="0.95" /><ellipse cx="21.57" cy="-21.57" rx="19.61" ry="30.51" fill="#f7d7d8" fill-opacity="0.95" />
        <circle cx="0" cy="0" r="19.61" fill="#f0b8a4" />
        <circle cx="0" cy="0" r="9.81" fill="#fff7f0" fill-opacity="0.72" />
      </g>
    </g>
    
    <g transform="translate(689.43 497.80) rotate(12.12)">
      <path d="M 0 0 C -8 74.60, 10 124.34, -6 182.37" stroke="#7c9573" stroke-width="9.95" fill="none" stroke-linecap="round" />
      <ellipse cx="-20" cy="91.18" rx="18.24" ry="34.82" fill="#7c9573" fill-opacity="0.75" transform="rotate(-24)" />
      <ellipse cx="28" cy="112.73" rx="16.58" ry="31.50" fill="#7c9573" fill-opacity="0.66" transform="rotate(20)" />
      <g transform="translate(0 0)">
        <ellipse cx="23.21" cy="0.00" rx="14.92" ry="23.21" fill="#f4e4ca" fill-opacity="0.95" /><ellipse cx="16.41" cy="16.41" rx="14.92" ry="23.21" fill="#f4e4ca" fill-opacity="0.95" /><ellipse cx="0.00" cy="23.21" rx="14.92" ry="23.21" fill="#f4e4ca" fill-opacity="0.95" /><ellipse cx="-16.41" cy="16.41" rx="14.92" ry="23.21" fill="#f4e4ca" fill-opacity="0.95" /><ellipse cx="-23.21" cy="0.00" rx="14.92" ry="23.21" fill="#f4e4ca" fill-opacity="0.95" /><ellipse cx="-16.41" cy="-16.41" rx="14.92" ry="23.21" fill="#f4e4ca" fill-opacity="0.95" /><ellipse cx="-0.00" cy="-23.21" rx="14.92" ry="23.21" fill="#f4e4ca" fill-opacity="0.95" /><ellipse cx="16.41" cy="-16.41" rx="14.92" ry="23.21" fill="#f4e4ca" fill-opacity="0.95" />
        <circle cx="0" cy="0" r="14.92" fill="#f0b8a4" />
        <circle cx="0" cy="0" r="7.46" fill="#fff7f0" fill-opacity="0.72" />
      </g>
    </g>
    
    <g transform="translate(285.20 324.52) rotate(-19.10)">
      <path d="M 0 0 C -8 74.96, 10 124.94, -6 183.25" stroke="#aebc9f" stroke-width="10.00" fill="none" stroke-linecap="round" />
      <ellipse cx="-20" cy="91.62" rx="18.32" ry="34.98" fill="#aebc9f" fill-opacity="0.75" transform="rotate(-24)" />
      <ellipse cx="28" cy="113.28" rx="16.66" ry="31.65" fill="#aebc9f" fill-opacity="0.66" transform="rotate(20)" />
      <g transform="translate(0 0)">
        <ellipse cx="23.32" cy="0.00" rx="14.99" ry="23.32" fill="#f7efe8" fill-opacity="0.95" /><ellipse cx="16.49" cy="16.49" rx="14.99" ry="23.32" fill="#f7efe8" fill-opacity="0.95" /><ellipse cx="0.00" cy="23.32" rx="14.99" ry="23.32" fill="#f7efe8" fill-opacity="0.95" /><ellipse cx="-16.49" cy="16.49" rx="14.99" ry="23.32" fill="#f7efe8" fill-opacity="0.95" /><ellipse cx="-23.32" cy="0.00" rx="14.99" ry="23.32" fill="#f7efe8" fill-opacity="0.95" /><ellipse cx="-16.49" cy="-16.49" rx="14.99" ry="23.32" fill="#f7efe8" fill-opacity="0.95" /><ellipse cx="-0.00" cy="-23.32" rx="14.99" ry="23.32" fill="#f7efe8" fill-opacity="0.95" /><ellipse cx="16.49" cy="-16.49" rx="14.99" ry="23.32" fill="#f7efe8" fill-opacity="0.95" />
        <circle cx="0" cy="0" r="14.99" fill="#f0b8a4" />
        <circle cx="0" cy="0" r="7.50" fill="#fff7f0" fill-opacity="0.72" />
      </g>
    </g>
    
    <g transform="translate(227.87 416.42) rotate(-2.97)">
      <path d="M 0 0 C -8 78.30, 10 130.50, -6 191.40" stroke="#93aa86" stroke-width="10.44" fill="none" stroke-linecap="round" />
      <ellipse cx="-20" cy="95.70" rx="19.14" ry="36.54" fill="#93aa86" fill-opacity="0.75" transform="rotate(-24)" />
      <ellipse cx="28" cy="118.32" rx="17.40" ry="33.06" fill="#93aa86" fill-opacity="0.66" transform="rotate(20)" />
      <g transform="translate(0 0)">
        <ellipse cx="24.36" cy="0.00" rx="15.66" ry="24.36" fill="#efc7ce" fill-opacity="0.95" /><ellipse cx="17.23" cy="17.23" rx="15.66" ry="24.36" fill="#efc7ce" fill-opacity="0.95" /><ellipse cx="0.00" cy="24.36" rx="15.66" ry="24.36" fill="#efc7ce" fill-opacity="0.95" /><ellipse cx="-17.23" cy="17.23" rx="15.66" ry="24.36" fill="#efc7ce" fill-opacity="0.95" /><ellipse cx="-24.36" cy="0.00" rx="15.66" ry="24.36" fill="#efc7ce" fill-opacity="0.95" /><ellipse cx="-17.23" cy="-17.23" rx="15.66" ry="24.36" fill="#efc7ce" fill-opacity="0.95" /><ellipse cx="-0.00" cy="-24.36" rx="15.66" ry="24.36" fill="#efc7ce" fill-opacity="0.95" /><ellipse cx="17.23" cy="-17.23" rx="15.66" ry="24.36" fill="#efc7ce" fill-opacity="0.95" />
        <circle cx="0" cy="0" r="15.66" fill="#f0b8a4" />
        <circle cx="0" cy="0" r="7.83" fill="#fff7f0" fill-opacity="0.72" />
      </g>
    </g>
    
    <g transform="translate(310.68 552.23) rotate(-10.55)">
      <path d="M 0 0 C -8 83.90, 10 139.84, -6 205.09" stroke="#7c9573" stroke-width="11.19" fill="none" stroke-linecap="round" />
      <ellipse cx="-20" cy="102.55" rx="20.51" ry="39.15" fill="#7c9573" fill-opacity="0.75" transform="rotate(-24)" />
      <ellipse cx="28" cy="126.79" rx="18.64" ry="35.43" fill="#7c9573" fill-opacity="0.66" transform="rotate(20)" />
      <g transform="translate(0 0)">
        <ellipse cx="26.10" cy="0.00" rx="16.78" ry="26.10" fill="#f7d7d8" fill-opacity="0.95" /><ellipse cx="18.46" cy="18.46" rx="16.78" ry="26.10" fill="#f7d7d8" fill-opacity="0.95" /><ellipse cx="0.00" cy="26.10" rx="16.78" ry="26.10" fill="#f7d7d8" fill-opacity="0.95" /><ellipse cx="-18.46" cy="18.46" rx="16.78" ry="26.10" fill="#f7d7d8" fill-opacity="0.95" /><ellipse cx="-26.10" cy="0.00" rx="16.78" ry="26.10" fill="#f7d7d8" fill-opacity="0.95" /><ellipse cx="-18.46" cy="-18.46" rx="16.78" ry="26.10" fill="#f7d7d8" fill-opacity="0.95" /><ellipse cx="-0.00" cy="-26.10" rx="16.78" ry="26.10" fill="#f7d7d8" fill-opacity="0.95" /><ellipse cx="18.46" cy="-18.46" rx="16.78" ry="26.10" fill="#f7d7d8" fill-opacity="0.95" />
        <circle cx="0" cy="0" r="16.78" fill="#f0b8a4" />
        <circle cx="0" cy="0" r="8.39" fill="#fff7f0" fill-opacity="0.72" />
      </g>
    </g>
    
    <g transform="translate(243.99 392.21) rotate(-19.94)">
      <path d="M 0 0 C -8 101.15, 10 168.59, -6 247.27" stroke="#aebc9f" stroke-width="13.49" fill="none" stroke-linecap="round" />
      <ellipse cx="-20" cy="123.63" rx="24.73" ry="47.21" fill="#aebc9f" fill-opacity="0.75" transform="rotate(-24)" />
      <ellipse cx="28" cy="152.85" rx="22.48" ry="42.71" fill="#aebc9f" fill-opacity="0.66" transform="rotate(20)" />
      <g transform="translate(0 0)">
        <ellipse cx="31.47" cy="0.00" rx="20.23" ry="31.47" fill="#f4e4ca" fill-opacity="0.95" /><ellipse cx="22.25" cy="22.25" rx="20.23" ry="31.47" fill="#f4e4ca" fill-opacity="0.95" /><ellipse cx="0.00" cy="31.47" rx="20.23" ry="31.47" fill="#f4e4ca" fill-opacity="0.95" /><ellipse cx="-22.25" cy="22.25" rx="20.23" ry="31.47" fill="#f4e4ca" fill-opacity="0.95" /><ellipse cx="-31.47" cy="0.00" rx="20.23" ry="31.47" fill="#f4e4ca" fill-opacity="0.95" /><ellipse cx="-22.25" cy="-22.25" rx="20.23" ry="31.47" fill="#f4e4ca" fill-opacity="0.95" /><ellipse cx="-0.00" cy="-31.47" rx="20.23" ry="31.47" fill="#f4e4ca" fill-opacity="0.95" /><ellipse cx="22.25" cy="-22.25" rx="20.23" ry="31.47" fill="#f4e4ca" fill-opacity="0.95" />
        <circle cx="0" cy="0" r="20.23" fill="#f0b8a4" />
        <circle cx="0" cy="0" r="10.12" fill="#fff7f0" fill-opacity="0.72" />
      </g>
    </g>
    
    <g transform="translate(582.96 409.90) rotate(23.86)">
      <path d="M 0 0 C -8 110.77, 10 184.62, -6 270.78" stroke="#93aa86" stroke-width="14.77" fill="none" stroke-linecap="round" />
      <ellipse cx="-20" cy="135.39" rx="27.08" ry="51.69" fill="#93aa86" fill-opacity="0.75" transform="rotate(-24)" />
      <ellipse cx="28" cy="167.39" rx="24.62" ry="46.77" fill="#93aa86" fill-opacity="0.66" transform="rotate(20)" />
      <g transform="translate(0 0)">
        <ellipse cx="34.46" cy="0.00" rx="22.15" ry="34.46" fill="#f7efe8" fill-opacity="0.95" /><ellipse cx="24.37" cy="24.37" rx="22.15" ry="34.46" fill="#f7efe8" fill-opacity="0.95" /><ellipse cx="0.00" cy="34.46" rx="22.15" ry="34.46" fill="#f7efe8" fill-opacity="0.95" /><ellipse cx="-24.37" cy="24.37" rx="22.15" ry="34.46" fill="#f7efe8" fill-opacity="0.95" /><ellipse cx="-34.46" cy="0.00" rx="22.15" ry="34.46" fill="#f7efe8" fill-opacity="0.95" /><ellipse cx="-24.37" cy="-24.37" rx="22.15" ry="34.46" fill="#f7efe8" fill-opacity="0.95" /><ellipse cx="-0.00" cy="-34.46" rx="22.15" ry="34.46" fill="#f7efe8" fill-opacity="0.95" /><ellipse cx="24.37" cy="-24.37" rx="22.15" ry="34.46" fill="#f7efe8" fill-opacity="0.95" />
        <circle cx="0" cy="0" r="22.15" fill="#f0b8a4" />
        <circle cx="0" cy="0" r="11.08" fill="#fff7f0" fill-opacity="0.72" />
      </g>
    </g>
    
  </g>
  <path d="M0 980 C220 920, 420 1030, 900 930 L900 1100 L0 1100 Z" fill="#ffffff" fill-opacity="0.22" />
</svg>
