<svg xmlns="http://www.w3.org/2000/svg" width="900" height="1100" viewBox="0 0 900 1100">
  <defs>
    <linearGradient id="bg" x1="0" y1="0" x2="0" y2="1">
      <stop offset="0%" stop-color="#fff5f1" />
      <stop offset="100%" stop-color="#f7efe4" />
    </linearGradient>
    <filter id="shadow" x="-20%" y="-20%" width="140%" height="140%">
      <feDropShadow dx="0" dy="22" stdDeviation="24" flood-color="#6c5d4f" flood-opacity="0.12" />
    </filter>
  </defs>
  <rect width="100%" height="100%" fill="url(#bg)" />
  <circle cx="730" cy="180" r="140" fill="#ffffff" fill-opacity="0.18" />
  <circle cx="150" cy="260" r="90" fill="#ffffff" fill-opacity="0.12" />
  
      <rect x="70" y="72" width="300" height="92" rx="24" fill="#ffffff" fill-opacity="0.34" />
      <text x="98" y="120" fill="#2f3a31" font-size="32" font-family="'PingFang SC','Microsoft YaHei',sans-serif" font-weight="600">小满告白</text>
      <text x="98" y="152" fill="#4e6152" font-size="18" font-family="'PingFang SC','Microsoft YaHei',sans-serif">探望 · 粉白系</text>
    
  <g filter="url(#shadow)">
    <path d="M250 780 L650 780 L730 1080 L170 1080 Z" fill="#ece2d6" fill-opacity="0.88" />
  </g>
  <g>
    
    <g transform="translate(435.62 557.45) rotate(-3.86)">
      <path d="M 0 0 C -8 84.93, 10 141.55, -6 207.61" stroke="#93aa86" stroke-width="11.32" fill="none" stroke-linecap="round" />
      <ellipse cx="-20" cy="103.80" rx="20.76" ry="39.63" fill="#93aa86" fill-opacity="0.75" transform="rotate(-24)" />
      <ellipse cx="28" cy="128.34" rx="18.87" ry="35.86" fill="#93aa86" fill-opacity="0.66" transform="rotate(20)" />
      <g transform="translate(0 0)">
        <ellipse cx="26.42" cy="0.00" rx="16.99" ry="26.42" fill="#f7d7d8" fill-opacity="0.95" /><ellipse cx="18.68" cy="18.68" rx="16.99" ry="26.42" fill="#f7d7d8" fill-opacity="0.95" /><ellipse cx="0.00" cy="26.42" rx="16.99" ry="26.42" fill="#f7d7d8" fill-opacity="0.95" /><ellipse cx="-18.68" cy="18.68" rx="16.99" ry="26.42" fill="#f7d7d8" fill-opacity="0.95" /><ellipse cx="-26.42" cy="0.00" rx="16.99" ry="26.42" fill="#f7d7d8" fill-opacity="0.95" /><ellipse cx="-18.68" cy="-18.68" rx="16.99" ry="26.42" fill="#f7d7d8" fill-opacity="0.95" /><ellipse cx="-0.00" cy="-26.42" rx="16.99" ry="26.42" fill="#f7d7d8" fill-opacity="0.95" /><ellipse cx="18.68" cy="-18.68" rx="16.99" ry="26.42" fill="#f7d7d8" fill-opacity="0.95" />
        <circle cx="0" cy="0" r="16.99" fill="#f0b8a4" />
        <circle cx="0" cy="0" r="8.49" fill="#fff7f0" fill-opacity="0.72" />
      </g>
    </g>
    
    <g transform="translate(593.95 401.95) rotate(-18.12)">
      <path d="M 0 0 C -8 72.33, 10 120.54, -6 176.80" stroke="#7c9573" stroke-width="9.64" fill="none" stroke-linecap="round" />
      <ellipse cx="-20" cy="88.40" rx="17.68" ry="33.75" fill="#7c9573" fill-opacity="0.75" transform="rotate(-24)" />
      <ellipse cx="28" cy="109.29" rx="16.07" ry="30.54" fill="#7c9573" fill-opacity="0.66" transform="rotate(20)" />
      <g transform="translate(0 0)">
        <ellipse cx="22.50" cy="0.00" rx="14.47" ry="22.50" fill="#f4e4ca" fill-opacity="0.95" /><ellipse cx="15.91" cy="15.91" rx="14.47" ry="22.50" fill="#f4e4ca" fill-opacity="0.95" /><ellipse cx="0.00" cy="22.50" rx="14.47" ry="22.50" fill="#f4e4ca" fill-opacity="0.95" /><ellipse cx="-15.91" cy="15.91" rx="14.47" ry="22.50" fill="#f4e4ca" fill-opacity="0.95" /><ellipse cx="-22.50" cy="0.00" rx="14.47" ry="22.50" fill="#f4e4ca" fill-opacity="0.95" /><ellipse cx="-15.91" cy="-15.91" rx="14.47" ry="22.50" fill="#f4e4ca" fill-opacity="0.95" /><ellipse cx="-0.00" cy="-22.50" rx="14.47" ry="22.50" fill="#f4e4ca" fill-opacity="0.95" /><ellipse cx="15.91" cy="-15.91" rx="14.47" ry="22.50" fill="#f4e4ca" fill-opacity="0.95" />
        <circle cx="0" cy="0" r="14.47" fill="#f0b8a4" />
        <circle cx="0" cy="0" r="7.23" fill="#fff7f0" fill-opacity="0.72" />
      </g>
    </g>
    
    <g transform="translate(651.57 409.87) rotate(-13.62)">
      <path d="M 0 0 C -8 108.23, 10 180.38, -6 264.56" stroke="#aebc9f" stroke-width="14.43" fill="none" stroke-linecap="round" />
      <ellipse cx="-20" cy="132.28" rx="26.46" ry="50.51" fill="#aebc9f" fill-opacity="0.75" transform="rotate(-24)" />
      <ellipse cx="28" cy="163.55" rx="24.05" ry="45.70" fill="#aebc9f" fill-opacity="0.66" transform="rotate(20)" />
      <g transform="translate(0 0)">
        <ellipse cx="33.67" cy="0.00" rx="21.65" ry="33.67" fill="#f7efe8" fill-opacity="0.95" /><ellipse cx="23.81" cy="23.81" rx="21.65" ry="33.67" fill="#f7efe8" fill-opacity="0.95" /><ellipse cx="0.00" cy="33.67" rx="21.65" ry="33.67" fill="#f7efe8" fill-opacity="0.95" /><ellipse cx="-23.81" cy="23.81" rx="21.65" ry="33.67" fill="#f7efe8" fill-opacity="0.95" /><ellipse cx="-33.67" cy="0.00" rx="21.65" ry="33.67" fill="#f7efe8" fill-opacity="0.95" /><ellipse cx="-23.81" cy="-23.81" rx="21.65" ry="33.67" fill="#f7efe8" fill-opacity="0.95" /><ellipse cx="-0.00" cy="-33.67" rx="21.65" ry="33.67" fill="#f7efe8" fill-opacity="0.95" /><ellipse cx="23.81" cy="-23.81" rx="21.65" ry="33.67" fill="#f7efe8" fill-opacity="0.95" />
        <circle cx="0" cy="0" r="21.65" fill="#f0b8a4" />
        <circle cx="0" cy="0" r="10.82" fill="#fff7f0" fill-opacity="0.72" />
      </g>
    </g>
    
    <g transform="translate(698.05 411.05) rotate(24.25)">
      <path d="M 0 0 C -8 85.44, 10 142.40, -6 208.85" stroke="#93aa86" stroke-width="11.39" fill="none" stroke-linecap="round" />
      <ellipse cx="-20" cy="104.43" rx="20.89" ry="39.87" fill="#93aa86" fill-opacity="0.75" transform="rotate(-24)" />
      <ellipse cx="28" cy="129.11" rx="18.99" ry="36.07" fill="#93aa86" fill-opacity="0.66" transform="rotate(20)" />
      <g transform="translate(0 0)">
        <ellipse cx="26.58" cy="0.00" rx="17.09" ry="26.58" fill="#efc7ce" fill-opacity="0.95" /><ellipse cx="18.80" cy="18.80" rx="17.09" ry="26.58" fill="#efc7ce" fill-opacity="0.95" /><ellipse cx="0.00" cy="26.58" rx="17.09" ry="26.58" fill="#efc7ce" fill-opacity="0.95" /><ellipse cx="-18.80" cy="18.80" rx="17.09" ry="26.58" fill="#efc7ce" fill-opacity="0.95" /><ellipse cx="-26.58" cy="0.00" rx="17.09" ry="26.58" fill="#efc7ce" fill-opacity="0.95" /><ellipse cx="-18.80" cy="-18.80" rx="17.09" ry="26.58" fill="#efc7ce" fill-opacity="0.95" /><ellipse cx="-0.00" cy="-26.58" rx="17.09" ry="26.58" fill="#efc7ce" fill-opacity="0.95" /><ellipse cx="18.80" cy="-18.80" rx="17.09" ry="26.58" fill="#efc7ce" fill-opacity="0.95" />
        <circle cx="0" cy="0" r="17.09" fill="#f0b8a4" />
        <circle cx="0" cy="0" r="8.54" fill="#fff7f0" fill-opacity="0.72" />
      </g>
    </g>
    
    <g transform="translate(553.43 431.68) rotate(0.51)">
      <path d="M 0 0 C -8 97.82, 10 163.03, -6 239.11" stroke="#7c9573" stroke-width="13.04" fill="none" stroke-linecap="round" />
      <ellipse cx="-20" cy="119.55" rx="23.91" ry="45.65" fill="#7c9573" fill-opacity="0.75" transform="rotate(-24)" />
      <ellipse cx="28" cy="147.81" rx="21.74" ry="41.30" fill="#7c9573" fill-opacity="0.66" transform="rotate(20)" />
      <g transform="translate(0 0)">
        <ellipse cx="30.43" cy="0.00" rx="19.56" ry="30.43" fill="#f7d7d8" fill-opacity="0.95" /><ellipse cx="21.52" cy="21.52" rx="19.56" ry="30.43" fill="#f7d7d8" fill-opacity="0.95" /><ellipse cx="0.00" cy="30.43" rx="19.56" ry="30.43" fill="#f7d7d8" fill-opacity="0.95" /><ellipse cx="-21.52" cy="21.52" rx="19.56" ry="30.43" fill="#f7d7d8" fill-opacity="0.95" /><ellipse cx="-30.43" cy="0.00" rx="19.56" ry="30.43" fill="#f7d7d8" fill-opacity="0.95" /><ellipse cx="-21.52" cy="-21.52" rx="19.56" ry="30.43" fill="#f7d7d8" fill-opacity="0.95" /><ellipse cx="-0.00" cy="-30.43" rx="19.56" ry="30.43" fill="#f7d7d8" fill-opacity="0.95" /><ellipse cx="21.52" cy="-21.52" rx="19.56" ry="30.43" fill="#f7d7d8" fill-opacity="0.95" />
        <circle cx="0" cy="0" r="19.56" fill="#f0b8a4" />
        <circle cx="0" cy="0" r="9.78" fill="#fff7f0" fill-opacity="0.72" />
      </g>
    </g>
    
    <g transform="translate(647.22 441.49) rotate(-7.14)">
      <path d="M 0 0 C -8 105.04, 10 175.07, -6 256.78" stroke="#aebc9f" stroke-width="14.01" fill="none" stroke-linecap="round" />
      <ellipse cx="-20" cy="128.39" rx="25.68" ry="49.02" fill="#aebc9f" fill-opacity="0.75" transform="rotate(-24)" />
      <ellipse cx="28" cy="158.73" rx="23.34" ry="44.35" fill="#aebc9f" fill-opacity="0.66" transform="rotate(20)" />
      <g transform="translate(0 0)">
        <ellipse cx="32.68" cy="0.00" rx="21.01" ry="32.68" fill="#f4e4ca" fill-opacity="0.95" /><ellipse cx="23.11" cy="23.11" rx="21.01" ry="32.68" fill="#f4e4ca" fill-opacity="0.95" /><ellipse cx="0.00" cy="32.68" rx="21.01" ry="32.68" fill="#f4e4ca" fill-opacity="0.95" /><ellipse cx="-23.11" cy="23.11" rx="21.01" ry="32.68" fill="#f4e4ca" fill-opacity="0.95" /><ellipse cx="-32.68" cy="0.00" rx="21.01" ry="32.68" fill="#f4e4ca" fill-opacity="0.95" /><ellipse cx="-23.11" cy="-23.11" rx="21.01" ry="32.68" fill="#f4e4ca" fill-opacity="0.95" /><ellipse cx="-0.00" cy="-32.68" rx="21.01" ry="32.68" fill="#f4e4ca" fill-opacity="0.95" /><ellipse cx="23.11" cy="-23.11" rx="21.01" ry="32.68" fill="#f4e4ca" fill-opacity="0.95" />
        <circle cx="0" cy="0" r="21.01" fill="#f0b8a4" />
        <circle cx="0" cy="0" r="10.50" fill="#fff7f0" fill-opacity="0.72" />
      </g>
    </g>
    
    <g transform="translate(640.27 514.17) rotate(10.52)">
      <path d="M 0 0 C -8 93.03, 10 155.04, -6 227.40" stroke="#93aa86" stroke-width="12.40" fill="none" stroke-linecap="round" />
      <ellipse cx="-20" cy="113.70" rx="22.74" ry="43.41" fill="#93aa86" fill-opacity="0.75" transform="rotate(-24)" />
      <ellipse cx="28" cy="140.57" rx="20.67" ry="39.28" fill="#93aa86" fill-opacity="0.66" transform="rotate(20)" />
      <g transform="translate(0 0)">
        <ellipse cx="28.94" cy="0.00" rx="18.61" ry="28.94" fill="#f7efe8" fill-opacity="0.95" /><ellipse cx="20.46" cy="20.46" rx="18.61" ry="28.94" fill="#f7efe8" fill-opacity="0.95" /><ellipse cx="0.00" cy="28.94" rx="18.61" ry="28.94" fill="#f7efe8" fill-opacity="0.95" /><ellipse cx="-20.46" cy="20.46" rx="18.61" ry="28.94" fill="#f7efe8" fill-opacity="0.95" /><ellipse cx="-28.94" cy="0.00" rx="18.61" ry="28.94" fill="#f7efe8" fill-opacity="0.95" /><ellipse cx="-20.46" cy="-20.46" rx="18.61" ry="28.94" fill="#f7efe8" fill-opacity="0.95" /><ellipse cx="-0.00" cy="-28.94" rx="18.61" ry="28.94" fill="#f7efe8" fill-opacity="0.95" /><ellipse cx="20.46" cy="-20.46" rx="18.61" ry="28.94" fill="#f7efe8" fill-opacity="0.95" />
        <circle cx="0" cy="0" r="18.61" fill="#f0b8a4" />
        <circle cx="0" cy="0" r="9.30" fill="#fff7f0" fill-opacity="0.72" />
      </g>
    </g>
    
  </g>
  <path d="M0 980 C220 920, 420 1030, 900 930 L900 1100 L0 1100 Z" fill="#ffffff" fill-opacity="0.22" />
</svg>
