<svg xmlns="http://www.w3.org/2000/svg" width="900" height="1100" viewBox="0 0 900 1100">
  <defs>
    <linearGradient id="bg" x1="0" y1="0" x2="0" y2="1">
      <stop offset="0%" stop-color="#f8f3ec" />
      <stop offset="100%" stop-color="#e8efe5" />
    </linearGradient>
    <filter id="shadow" x="-20%" y="-20%" width="140%" height="140%">
      <feDropShadow dx="0" dy="22" stdDeviation="24" flood-color="#6c5d4f" flood-opacity="0.12" />
    </filter>
  </defs>
  <rect width="100%" height="100%" fill="url(#bg)" />
  <circle cx="730" cy="180" r="140" fill="#ffffff" fill-opacity="0.18" />
  <circle cx="150" cy="260" r="90" fill="#ffffff" fill-opacity="0.12" />
  
      <rect x="70" y="72" width="300" height="92" rx="24" fill="#ffffff" fill-opacity="0.34" />
      <text x="98" y="120" fill="#2f3a31" font-size="32" font-family="'PingFang SC','Microsoft YaHei',sans-serif" font-weight="600">薄暮誓言</text>
      <text x="98" y="152" fill="#4e6152" font-size="18" font-family="'PingFang SC','Microsoft YaHei',sans-serif">婚礼 · 迎宾区</text>
    
  <g filter="url(#shadow)">
    <path d="M250 780 L650 780 L730 1080 L170 1080 Z" fill="#ece2d6" fill-opacity="0.88" />
  </g>
  <g>
    
    <g transform="translate(327.00 471.86) rotate(-6.28)">
      <path d="M 0 0 C -8 74.25, 10 123.74, -6 181.49" stroke="#8da78b" stroke-width="9.90" fill="none" stroke-linecap="round" />
      <ellipse cx="-20" cy="90.75" rx="18.15" ry="34.65" fill="#8da78b" fill-opacity="0.75" transform="rotate(-24)" />
      <ellipse cx="28" cy="112.20" rx="16.50" ry="31.35" fill="#8da78b" fill-opacity="0.66" transform="rotate(20)" />
      <g transform="translate(0 0)">
        <ellipse cx="23.10" cy="0.00" rx="14.85" ry="23.10" fill="#f7f5ef" fill-opacity="0.95" /><ellipse cx="16.33" cy="16.33" rx="14.85" ry="23.10" fill="#f7f5ef" fill-opacity="0.95" /><ellipse cx="0.00" cy="23.10" rx="14.85" ry="23.10" fill="#f7f5ef" fill-opacity="0.95" /><ellipse cx="-16.33" cy="16.33" rx="14.85" ry="23.10" fill="#f7f5ef" fill-opacity="0.95" /><ellipse cx="-23.10" cy="0.00" rx="14.85" ry="23.10" fill="#f7f5ef" fill-opacity="0.95" /><ellipse cx="-16.33" cy="-16.33" rx="14.85" ry="23.10" fill="#f7f5ef" fill-opacity="0.95" /><ellipse cx="-0.00" cy="-23.10" rx="14.85" ry="23.10" fill="#f7f5ef" fill-opacity="0.95" /><ellipse cx="16.33" cy="-16.33" rx="14.85" ry="23.10" fill="#f7f5ef" fill-opacity="0.95" />
        <circle cx="0" cy="0" r="14.85" fill="#d5c0a8" />
        <circle cx="0" cy="0" r="7.42" fill="#fff7f0" fill-opacity="0.72" />
      </g>
    </g>
    
    <g transform="translate(455.68 368.55) rotate(11.65)">
      <path d="M 0 0 C -8 98.73, 10 164.55, -6 241.34" stroke="#6f8d6e" stroke-width="13.16" fill="none" stroke-linecap="round" />
      <ellipse cx="-20" cy="120.67" rx="24.13" ry="46.07" fill="#6f8d6e" fill-opacity="0.75" transform="rotate(-24)" />
      <ellipse cx="28" cy="149.19" rx="21.94" ry="41.69" fill="#6f8d6e" fill-opacity="0.66" transform="rotate(20)" />
      <g transform="translate(0 0)">
        <ellipse cx="30.72" cy="0.00" rx="19.75" ry="30.72" fill="#f1e3d4" fill-opacity="0.95" /><ellipse cx="21.72" cy="21.72" rx="19.75" ry="30.72" fill="#f1e3d4" fill-opacity="0.95" /><ellipse cx="0.00" cy="30.72" rx="19.75" ry="30.72" fill="#f1e3d4" fill-opacity="0.95" /><ellipse cx="-21.72" cy="21.72" rx="19.75" ry="30.72" fill="#f1e3d4" fill-opacity="0.95" /><ellipse cx="-30.72" cy="0.00" rx="19.75" ry="30.72" fill="#f1e3d4" fill-opacity="0.95" /><ellipse cx="-21.72" cy="-21.72" rx="19.75" ry="30.72" fill="#f1e3d4" fill-opacity="0.95" /><ellipse cx="-0.00" cy="-30.72" rx="19.75" ry="30.72" fill="#f1e3d4" fill-opacity="0.95" /><ellipse cx="21.72" cy="-21.72" rx="19.75" ry="30.72" fill="#f1e3d4" fill-opacity="0.95" />
        <circle cx="0" cy="0" r="19.75" fill="#d5c0a8" />
        <circle cx="0" cy="0" r="9.87" fill="#fff7f0" fill-opacity="0.72" />
      </g>
    </g>
    
    <g transform="translate(233.42 437.46) rotate(23.00)">
      <path d="M 0 0 C -8 106.70, 10 177.84, -6 260.83" stroke="#a7b99d" stroke-width="14.23" fill="none" stroke-linecap="round" />
      <ellipse cx="-20" cy="130.42" rx="26.08" ry="49.79" fill="#a7b99d" fill-opacity="0.75" transform="rotate(-24)" />
      <ellipse cx="28" cy="161.24" rx="23.71" ry="45.05" fill="#a7b99d" fill-opacity="0.66" transform="rotate(20)" />
      <g transform="translate(0 0)">
        <ellipse cx="33.20" cy="0.00" rx="21.34" ry="33.20" fill="#e7d8cf" fill-opacity="0.95" /><ellipse cx="23.47" cy="23.47" rx="21.34" ry="33.20" fill="#e7d8cf" fill-opacity="0.95" /><ellipse cx="0.00" cy="33.20" rx="21.34" ry="33.20" fill="#e7d8cf" fill-opacity="0.95" /><ellipse cx="-23.47" cy="23.47" rx="21.34" ry="33.20" fill="#e7d8cf" fill-opacity="0.95" /><ellipse cx="-33.20" cy="0.00" rx="21.34" ry="33.20" fill="#e7d8cf" fill-opacity="0.95" /><ellipse cx="-23.47" cy="-23.47" rx="21.34" ry="33.20" fill="#e7d8cf" fill-opacity="0.95" /><ellipse cx="-0.00" cy="-33.20" rx="21.34" ry="33.20" fill="#e7d8cf" fill-opacity="0.95" /><ellipse cx="23.47" cy="-23.47" rx="21.34" ry="33.20" fill="#e7d8cf" fill-opacity="0.95" />
        <circle cx="0" cy="0" r="21.34" fill="#d5c0a8" />
        <circle cx="0" cy="0" r="10.67" fill="#fff7f0" fill-opacity="0.72" />
      </g>
    </g>
    
    <g transform="translate(399.42 394.05) rotate(-21.08)">
      <path d="M 0 0 C -8 87.86, 10 146.44, -6 214.77" stroke="#8da78b" stroke-width="11.71" fill="none" stroke-linecap="round" />
      <ellipse cx="-20" cy="107.39" rx="21.48" ry="41.00" fill="#8da78b" fill-opacity="0.75" transform="rotate(-24)" />
      <ellipse cx="28" cy="132.77" rx="19.52" ry="37.10" fill="#8da78b" fill-opacity="0.66" transform="rotate(20)" />
      <g transform="translate(0 0)">
        <ellipse cx="27.33" cy="0.00" rx="17.57" ry="27.33" fill="#d7e5d5" fill-opacity="0.95" /><ellipse cx="19.33" cy="19.33" rx="17.57" ry="27.33" fill="#d7e5d5" fill-opacity="0.95" /><ellipse cx="0.00" cy="27.33" rx="17.57" ry="27.33" fill="#d7e5d5" fill-opacity="0.95" /><ellipse cx="-19.33" cy="19.33" rx="17.57" ry="27.33" fill="#d7e5d5" fill-opacity="0.95" /><ellipse cx="-27.33" cy="0.00" rx="17.57" ry="27.33" fill="#d7e5d5" fill-opacity="0.95" /><ellipse cx="-19.33" cy="-19.33" rx="17.57" ry="27.33" fill="#d7e5d5" fill-opacity="0.95" /><ellipse cx="-0.00" cy="-27.33" rx="17.57" ry="27.33" fill="#d7e5d5" fill-opacity="0.95" /><ellipse cx="19.33" cy="-19.33" rx="17.57" ry="27.33" fill="#d7e5d5" fill-opacity="0.95" />
        <circle cx="0" cy="0" r="17.57" fill="#d5c0a8" />
        <circle cx="0" cy="0" r="8.79" fill="#fff7f0" fill-opacity="0.72" />
      </g>
    </g>
    
    <g transform="translate(206.36 552.51) rotate(-19.03)">
      <path d="M 0 0 C -8 104.55, 10 174.26, -6 255.58" stroke="#6f8d6e" stroke-width="13.94" fill="none" stroke-linecap="round" />
      <ellipse cx="-20" cy="127.79" rx="25.56" ry="48.79" fill="#6f8d6e" fill-opacity="0.75" transform="rotate(-24)" />
      <ellipse cx="28" cy="157.99" rx="23.23" ry="44.15" fill="#6f8d6e" fill-opacity="0.66" transform="rotate(20)" />
      <g transform="translate(0 0)">
        <ellipse cx="32.53" cy="0.00" rx="20.91" ry="32.53" fill="#f7f5ef" fill-opacity="0.95" /><ellipse cx="23.00" cy="23.00" rx="20.91" ry="32.53" fill="#f7f5ef" fill-opacity="0.95" /><ellipse cx="0.00" cy="32.53" rx="20.91" ry="32.53" fill="#f7f5ef" fill-opacity="0.95" /><ellipse cx="-23.00" cy="23.00" rx="20.91" ry="32.53" fill="#f7f5ef" fill-opacity="0.95" /><ellipse cx="-32.53" cy="0.00" rx="20.91" ry="32.53" fill="#f7f5ef" fill-opacity="0.95" /><ellipse cx="-23.00" cy="-23.00" rx="20.91" ry="32.53" fill="#f7f5ef" fill-opacity="0.95" /><ellipse cx="-0.00" cy="-32.53" rx="20.91" ry="32.53" fill="#f7f5ef" fill-opacity="0.95" /><ellipse cx="23.00" cy="-23.00" rx="20.91" ry="32.53" fill="#f7f5ef" fill-opacity="0.95" />
        <circle cx="0" cy="0" r="20.91" fill="#d5c0a8" />
        <circle cx="0" cy="0" r="10.46" fill="#fff7f0" fill-opacity="0.72" />
      </g>
    </g>
    
    <g transform="translate(275.22 325.06) rotate(-23.07)">
      <path d="M 0 0 C -8 102.46, 10 170.77, -6 250.46" stroke="#a7b99d" stroke-width="13.66" fill="none" stroke-linecap="round" />
      <ellipse cx="-20" cy="125.23" rx="25.05" ry="47.81" fill="#a7b99d" fill-opacity="0.75" transform="rotate(-24)" />
      <ellipse cx="28" cy="154.83" rx="22.77" ry="43.26" fill="#a7b99d" fill-opacity="0.66" transform="rotate(20)" />
      <g transform="translate(0 0)">
        <ellipse cx="31.88" cy="0.00" rx="20.49" ry="31.88" fill="#f1e3d4" fill-opacity="0.95" /><ellipse cx="22.54" cy="22.54" rx="20.49" ry="31.88" fill="#f1e3d4" fill-opacity="0.95" /><ellipse cx="0.00" cy="31.88" rx="20.49" ry="31.88" fill="#f1e3d4" fill-opacity="0.95" /><ellipse cx="-22.54" cy="22.54" rx="20.49" ry="31.88" fill="#f1e3d4" fill-opacity="0.95" /><ellipse cx="-31.88" cy="0.00" rx="20.49" ry="31.88" fill="#f1e3d4" fill-opacity="0.95" /><ellipse cx="-22.54" cy="-22.54" rx="20.49" ry="31.88" fill="#f1e3d4" fill-opacity="0.95" /><ellipse cx="-0.00" cy="-31.88" rx="20.49" ry="31.88" fill="#f1e3d4" fill-opacity="0.95" /><ellipse cx="22.54" cy="-22.54" rx="20.49" ry="31.88" fill="#f1e3d4" fill-opacity="0.95" />
        <circle cx="0" cy="0" r="20.49" fill="#d5c0a8" />
        <circle cx="0" cy="0" r="10.25" fill="#fff7f0" fill-opacity="0.72" />
      </g>
    </g>
    
    <g transform="translate(425.60 401.30) rotate(11.29)">
      <path d="M 0 0 C -8 105.00, 10 174.99, -6 256.66" stroke="#8da78b" stroke-width="14.00" fill="none" stroke-linecap="round" />
      <ellipse cx="-20" cy="128.33" rx="25.67" ry="49.00" fill="#8da78b" fill-opacity="0.75" transform="rotate(-24)" />
      <ellipse cx="28" cy="158.66" rx="23.33" ry="44.33" fill="#8da78b" fill-opacity="0.66" transform="rotate(20)" />
      <g transform="translate(0 0)">
        <ellipse cx="32.67" cy="0.00" rx="21.00" ry="32.67" fill="#e7d8cf" fill-opacity="0.95" /><ellipse cx="23.10" cy="23.10" rx="21.00" ry="32.67" fill="#e7d8cf" fill-opacity="0.95" /><ellipse cx="0.00" cy="32.67" rx="21.00" ry="32.67" fill="#e7d8cf" fill-opacity="0.95" /><ellipse cx="-23.10" cy="23.10" rx="21.00" ry="32.67" fill="#e7d8cf" fill-opacity="0.95" /><ellipse cx="-32.67" cy="0.00" rx="21.00" ry="32.67" fill="#e7d8cf" fill-opacity="0.95" /><ellipse cx="-23.10" cy="-23.10" rx="21.00" ry="32.67" fill="#e7d8cf" fill-opacity="0.95" /><ellipse cx="-0.00" cy="-32.67" rx="21.00" ry="32.67" fill="#e7d8cf" fill-opacity="0.95" /><ellipse cx="23.10" cy="-23.10" rx="21.00" ry="32.67" fill="#e7d8cf" fill-opacity="0.95" />
        <circle cx="0" cy="0" r="21.00" fill="#d5c0a8" />
        <circle cx="0" cy="0" r="10.50" fill="#fff7f0" fill-opacity="0.72" />
      </g>
    </g>
    
  </g>
  <path d="M0 980 C220 920, 420 1030, 900 930 L900 1100 L0 1100 Z" fill="#ffffff" fill-opacity="0.22" />
</svg>
