<svg xmlns="http://www.w3.org/2000/svg" width="900" height="1100" viewBox="0 0 900 1100">
  <defs>
    <linearGradient id="bg" x1="0" y1="0" x2="0" y2="1">
      <stop offset="0%" stop-color="#f8f3ec" />
      <stop offset="100%" stop-color="#e8efe5" />
    </linearGradient>
    <filter id="shadow" x="-20%" y="-20%" width="140%" height="140%">
      <feDropShadow dx="0" dy="22" stdDeviation="24" flood-color="#6c5d4f" flood-opacity="0.12" />
    </filter>
  </defs>
  <rect width="100%" height="100%" fill="url(#bg)" />
  <circle cx="730" cy="180" r="140" fill="#ffffff" fill-opacity="0.18" />
  <circle cx="150" cy="260" r="90" fill="#ffffff" fill-opacity="0.12" />
  
      <rect x="70" y="72" width="300" height="92" rx="24" fill="#ffffff" fill-opacity="0.34" />
      <text x="98" y="120" fill="#2f3a31" font-size="32" font-family="'PingFang SC','Microsoft YaHei',sans-serif" font-weight="600">风铃礼道</text>
      <text x="98" y="152" fill="#4e6152" font-size="18" font-family="'PingFang SC','Microsoft YaHei',sans-serif">婚礼 · 手捧花</text>
    
  <g filter="url(#shadow)">
    <path d="M250 780 L650 780 L730 1080 L170 1080 Z" fill="#ece2d6" fill-opacity="0.88" />
  </g>
  <g>
    
    <g transform="translate(385.46 338.12) rotate(6.34)">
      <path d="M 0 0 C -8 104.17, 10 173.61, -6 254.63" stroke="#8da78b" stroke-width="13.89" fill="none" stroke-linecap="round" />
      <ellipse cx="-20" cy="127.32" rx="25.46" ry="48.61" fill="#8da78b" fill-opacity="0.75" transform="rotate(-24)" />
      <ellipse cx="28" cy="157.41" rx="23.15" ry="43.98" fill="#8da78b" fill-opacity="0.66" transform="rotate(20)" />
      <g transform="translate(0 0)">
        <ellipse cx="32.41" cy="0.00" rx="20.83" ry="32.41" fill="#f7f5ef" fill-opacity="0.95" /><ellipse cx="22.92" cy="22.92" rx="20.83" ry="32.41" fill="#f7f5ef" fill-opacity="0.95" /><ellipse cx="0.00" cy="32.41" rx="20.83" ry="32.41" fill="#f7f5ef" fill-opacity="0.95" /><ellipse cx="-22.92" cy="22.92" rx="20.83" ry="32.41" fill="#f7f5ef" fill-opacity="0.95" /><ellipse cx="-32.41" cy="0.00" rx="20.83" ry="32.41" fill="#f7f5ef" fill-opacity="0.95" /><ellipse cx="-22.92" cy="-22.92" rx="20.83" ry="32.41" fill="#f7f5ef" fill-opacity="0.95" /><ellipse cx="-0.00" cy="-32.41" rx="20.83" ry="32.41" fill="#f7f5ef" fill-opacity="0.95" /><ellipse cx="22.92" cy="-22.92" rx="20.83" ry="32.41" fill="#f7f5ef" fill-opacity="0.95" />
        <circle cx="0" cy="0" r="20.83" fill="#d5c0a8" />
        <circle cx="0" cy="0" r="10.42" fill="#fff7f0" fill-opacity="0.72" />
      </g>
    </g>
    
    <g transform="translate(623.16 477.92) rotate(-7.59)">
      <path d="M 0 0 C -8 93.89, 10 156.48, -6 229.50" stroke="#6f8d6e" stroke-width="12.52" fill="none" stroke-linecap="round" />
      <ellipse cx="-20" cy="114.75" rx="22.95" ry="43.81" fill="#6f8d6e" fill-opacity="0.75" transform="rotate(-24)" />
      <ellipse cx="28" cy="141.87" rx="20.86" ry="39.64" fill="#6f8d6e" fill-opacity="0.66" transform="rotate(20)" />
      <g transform="translate(0 0)">
        <ellipse cx="29.21" cy="0.00" rx="18.78" ry="29.21" fill="#f1e3d4" fill-opacity="0.95" /><ellipse cx="20.65" cy="20.65" rx="18.78" ry="29.21" fill="#f1e3d4" fill-opacity="0.95" /><ellipse cx="0.00" cy="29.21" rx="18.78" ry="29.21" fill="#f1e3d4" fill-opacity="0.95" /><ellipse cx="-20.65" cy="20.65" rx="18.78" ry="29.21" fill="#f1e3d4" fill-opacity="0.95" /><ellipse cx="-29.21" cy="0.00" rx="18.78" ry="29.21" fill="#f1e3d4" fill-opacity="0.95" /><ellipse cx="-20.65" cy="-20.65" rx="18.78" ry="29.21" fill="#f1e3d4" fill-opacity="0.95" /><ellipse cx="-0.00" cy="-29.21" rx="18.78" ry="29.21" fill="#f1e3d4" fill-opacity="0.95" /><ellipse cx="20.65" cy="-20.65" rx="18.78" ry="29.21" fill="#f1e3d4" fill-opacity="0.95" />
        <circle cx="0" cy="0" r="18.78" fill="#d5c0a8" />
        <circle cx="0" cy="0" r="9.39" fill="#fff7f0" fill-opacity="0.72" />
      </g>
    </g>
    
    <g transform="translate(368.09 440.23) rotate(11.43)">
      <path d="M 0 0 C -8 103.25, 10 172.09, -6 252.40" stroke="#a7b99d" stroke-width="13.77" fill="none" stroke-linecap="round" />
      <ellipse cx="-20" cy="126.20" rx="25.24" ry="48.18" fill="#a7b99d" fill-opacity="0.75" transform="rotate(-24)" />
      <ellipse cx="28" cy="156.03" rx="22.95" ry="43.60" fill="#a7b99d" fill-opacity="0.66" transform="rotate(20)" />
      <g transform="translate(0 0)">
        <ellipse cx="32.12" cy="0.00" rx="20.65" ry="32.12" fill="#e7d8cf" fill-opacity="0.95" /><ellipse cx="22.71" cy="22.71" rx="20.65" ry="32.12" fill="#e7d8cf" fill-opacity="0.95" /><ellipse cx="0.00" cy="32.12" rx="20.65" ry="32.12" fill="#e7d8cf" fill-opacity="0.95" /><ellipse cx="-22.71" cy="22.71" rx="20.65" ry="32.12" fill="#e7d8cf" fill-opacity="0.95" /><ellipse cx="-32.12" cy="0.00" rx="20.65" ry="32.12" fill="#e7d8cf" fill-opacity="0.95" /><ellipse cx="-22.71" cy="-22.71" rx="20.65" ry="32.12" fill="#e7d8cf" fill-opacity="0.95" /><ellipse cx="-0.00" cy="-32.12" rx="20.65" ry="32.12" fill="#e7d8cf" fill-opacity="0.95" /><ellipse cx="22.71" cy="-22.71" rx="20.65" ry="32.12" fill="#e7d8cf" fill-opacity="0.95" />
        <circle cx="0" cy="0" r="20.65" fill="#d5c0a8" />
        <circle cx="0" cy="0" r="10.33" fill="#fff7f0" fill-opacity="0.72" />
      </g>
    </g>
    
    <g transform="translate(553.24 358.53) rotate(8.98)">
      <path d="M 0 0 C -8 70.77, 10 117.94, -6 172.98" stroke="#8da78b" stroke-width="9.44" fill="none" stroke-linecap="round" />
      <ellipse cx="-20" cy="86.49" rx="17.30" ry="33.02" fill="#8da78b" fill-opacity="0.75" transform="rotate(-24)" />
      <ellipse cx="28" cy="106.93" rx="15.73" ry="29.88" fill="#8da78b" fill-opacity="0.66" transform="rotate(20)" />
      <g transform="translate(0 0)">
        <ellipse cx="22.02" cy="0.00" rx="14.15" ry="22.02" fill="#d7e5d5" fill-opacity="0.95" /><ellipse cx="15.57" cy="15.57" rx="14.15" ry="22.02" fill="#d7e5d5" fill-opacity="0.95" /><ellipse cx="0.00" cy="22.02" rx="14.15" ry="22.02" fill="#d7e5d5" fill-opacity="0.95" /><ellipse cx="-15.57" cy="15.57" rx="14.15" ry="22.02" fill="#d7e5d5" fill-opacity="0.95" /><ellipse cx="-22.02" cy="0.00" rx="14.15" ry="22.02" fill="#d7e5d5" fill-opacity="0.95" /><ellipse cx="-15.57" cy="-15.57" rx="14.15" ry="22.02" fill="#d7e5d5" fill-opacity="0.95" /><ellipse cx="-0.00" cy="-22.02" rx="14.15" ry="22.02" fill="#d7e5d5" fill-opacity="0.95" /><ellipse cx="15.57" cy="-15.57" rx="14.15" ry="22.02" fill="#d7e5d5" fill-opacity="0.95" />
        <circle cx="0" cy="0" r="14.15" fill="#d5c0a8" />
        <circle cx="0" cy="0" r="7.08" fill="#fff7f0" fill-opacity="0.72" />
      </g>
    </g>
    
    <g transform="translate(695.80 364.42) rotate(8.98)">
      <path d="M 0 0 C -8 95.97, 10 159.94, -6 234.58" stroke="#6f8d6e" stroke-width="12.80" fill="none" stroke-linecap="round" />
      <ellipse cx="-20" cy="117.29" rx="23.46" ry="44.78" fill="#6f8d6e" fill-opacity="0.75" transform="rotate(-24)" />
      <ellipse cx="28" cy="145.02" rx="21.33" ry="40.52" fill="#6f8d6e" fill-opacity="0.66" transform="rotate(20)" />
      <g transform="translate(0 0)">
        <ellipse cx="29.86" cy="0.00" rx="19.19" ry="29.86" fill="#f7f5ef" fill-opacity="0.95" /><ellipse cx="21.11" cy="21.11" rx="19.19" ry="29.86" fill="#f7f5ef" fill-opacity="0.95" /><ellipse cx="0.00" cy="29.86" rx="19.19" ry="29.86" fill="#f7f5ef" fill-opacity="0.95" /><ellipse cx="-21.11" cy="21.11" rx="19.19" ry="29.86" fill="#f7f5ef" fill-opacity="0.95" /><ellipse cx="-29.86" cy="0.00" rx="19.19" ry="29.86" fill="#f7f5ef" fill-opacity="0.95" /><ellipse cx="-21.11" cy="-21.11" rx="19.19" ry="29.86" fill="#f7f5ef" fill-opacity="0.95" /><ellipse cx="-0.00" cy="-29.86" rx="19.19" ry="29.86" fill="#f7f5ef" fill-opacity="0.95" /><ellipse cx="21.11" cy="-21.11" rx="19.19" ry="29.86" fill="#f7f5ef" fill-opacity="0.95" />
        <circle cx="0" cy="0" r="19.19" fill="#d5c0a8" />
        <circle cx="0" cy="0" r="9.60" fill="#fff7f0" fill-opacity="0.72" />
      </g>
    </g>
    
    <g transform="translate(421.87 299.21) rotate(12.47)">
      <path d="M 0 0 C -8 114.71, 10 191.18, -6 280.39" stroke="#a7b99d" stroke-width="15.29" fill="none" stroke-linecap="round" />
      <ellipse cx="-20" cy="140.20" rx="28.04" ry="53.53" fill="#a7b99d" fill-opacity="0.75" transform="rotate(-24)" />
      <ellipse cx="28" cy="173.33" rx="25.49" ry="48.43" fill="#a7b99d" fill-opacity="0.66" transform="rotate(20)" />
      <g transform="translate(0 0)">
        <ellipse cx="35.69" cy="0.00" rx="22.94" ry="35.69" fill="#f1e3d4" fill-opacity="0.95" /><ellipse cx="25.23" cy="25.23" rx="22.94" ry="35.69" fill="#f1e3d4" fill-opacity="0.95" /><ellipse cx="0.00" cy="35.69" rx="22.94" ry="35.69" fill="#f1e3d4" fill-opacity="0.95" /><ellipse cx="-25.23" cy="25.23" rx="22.94" ry="35.69" fill="#f1e3d4" fill-opacity="0.95" /><ellipse cx="-35.69" cy="0.00" rx="22.94" ry="35.69" fill="#f1e3d4" fill-opacity="0.95" /><ellipse cx="-25.23" cy="-25.23" rx="22.94" ry="35.69" fill="#f1e3d4" fill-opacity="0.95" /><ellipse cx="-0.00" cy="-35.69" rx="22.94" ry="35.69" fill="#f1e3d4" fill-opacity="0.95" /><ellipse cx="25.23" cy="-25.23" rx="22.94" ry="35.69" fill="#f1e3d4" fill-opacity="0.95" />
        <circle cx="0" cy="0" r="22.94" fill="#d5c0a8" />
        <circle cx="0" cy="0" r="11.47" fill="#fff7f0" fill-opacity="0.72" />
      </g>
    </g>
    
    <g transform="translate(587.36 347.16) rotate(20.90)">
      <path d="M 0 0 C -8 71.50, 10 119.17, -6 174.78" stroke="#8da78b" stroke-width="9.53" fill="none" stroke-linecap="round" />
      <ellipse cx="-20" cy="87.39" rx="17.48" ry="33.37" fill="#8da78b" fill-opacity="0.75" transform="rotate(-24)" />
      <ellipse cx="28" cy="108.04" rx="15.89" ry="30.19" fill="#8da78b" fill-opacity="0.66" transform="rotate(20)" />
      <g transform="translate(0 0)">
        <ellipse cx="22.24" cy="0.00" rx="14.30" ry="22.24" fill="#e7d8cf" fill-opacity="0.95" /><ellipse cx="15.73" cy="15.73" rx="14.30" ry="22.24" fill="#e7d8cf" fill-opacity="0.95" /><ellipse cx="0.00" cy="22.24" rx="14.30" ry="22.24" fill="#e7d8cf" fill-opacity="0.95" /><ellipse cx="-15.73" cy="15.73" rx="14.30" ry="22.24" fill="#e7d8cf" fill-opacity="0.95" /><ellipse cx="-22.24" cy="0.00" rx="14.30" ry="22.24" fill="#e7d8cf" fill-opacity="0.95" /><ellipse cx="-15.73" cy="-15.73" rx="14.30" ry="22.24" fill="#e7d8cf" fill-opacity="0.95" /><ellipse cx="-0.00" cy="-22.24" rx="14.30" ry="22.24" fill="#e7d8cf" fill-opacity="0.95" /><ellipse cx="15.73" cy="-15.73" rx="14.30" ry="22.24" fill="#e7d8cf" fill-opacity="0.95" />
        <circle cx="0" cy="0" r="14.30" fill="#d5c0a8" />
        <circle cx="0" cy="0" r="7.15" fill="#fff7f0" fill-opacity="0.72" />
      </g>
    </g>
    
  </g>
  <path d="M0 980 C220 920, 420 1030, 900 930 L900 1100 L0 1100 Z" fill="#ffffff" fill-opacity="0.22" />
</svg>
