<svg xmlns="http://www.w3.org/2000/svg" width="900" height="1100" viewBox="0 0 900 1100">
  <defs>
    <linearGradient id="bg" x1="0" y1="0" x2="0" y2="1">
      <stop offset="0%" stop-color="#f8f3ec" />
      <stop offset="100%" stop-color="#e8efe5" />
    </linearGradient>
    <filter id="shadow" x="-20%" y="-20%" width="140%" height="140%">
      <feDropShadow dx="0" dy="22" stdDeviation="24" flood-color="#6c5d4f" flood-opacity="0.12" />
    </filter>
  </defs>
  <rect width="100%" height="100%" fill="url(#bg)" />
  <circle cx="730" cy="180" r="140" fill="#ffffff" fill-opacity="0.18" />
  <circle cx="150" cy="260" r="90" fill="#ffffff" fill-opacity="0.12" />
  
      <rect x="70" y="72" width="300" height="92" rx="24" fill="#ffffff" fill-opacity="0.34" />
      <text x="98" y="120" fill="#2f3a31" font-size="32" font-family="'PingFang SC','Microsoft YaHei',sans-serif" font-weight="600">香槟晨礼</text>
      <text x="98" y="152" fill="#4e6152" font-size="18" font-family="'PingFang SC','Microsoft YaHei',sans-serif">婚礼 · 香槟色</text>
    
  <g filter="url(#shadow)">
    <path d="M250 780 L650 780 L730 1080 L170 1080 Z" fill="#ece2d6" fill-opacity="0.88" />
  </g>
  <g>
    
    <g transform="translate(238.99 377.50) rotate(-11.61)">
      <path d="M 0 0 C -8 76.86, 10 128.10, -6 187.88" stroke="#8da78b" stroke-width="10.25" fill="none" stroke-linecap="round" />
      <ellipse cx="-20" cy="93.94" rx="18.79" ry="35.87" fill="#8da78b" fill-opacity="0.75" transform="rotate(-24)" />
      <ellipse cx="28" cy="116.15" rx="17.08" ry="32.45" fill="#8da78b" fill-opacity="0.66" transform="rotate(20)" />
      <g transform="translate(0 0)">
        <ellipse cx="23.91" cy="0.00" rx="15.37" ry="23.91" fill="#f7f5ef" fill-opacity="0.95" /><ellipse cx="16.91" cy="16.91" rx="15.37" ry="23.91" fill="#f7f5ef" fill-opacity="0.95" /><ellipse cx="0.00" cy="23.91" rx="15.37" ry="23.91" fill="#f7f5ef" fill-opacity="0.95" /><ellipse cx="-16.91" cy="16.91" rx="15.37" ry="23.91" fill="#f7f5ef" fill-opacity="0.95" /><ellipse cx="-23.91" cy="0.00" rx="15.37" ry="23.91" fill="#f7f5ef" fill-opacity="0.95" /><ellipse cx="-16.91" cy="-16.91" rx="15.37" ry="23.91" fill="#f7f5ef" fill-opacity="0.95" /><ellipse cx="-0.00" cy="-23.91" rx="15.37" ry="23.91" fill="#f7f5ef" fill-opacity="0.95" /><ellipse cx="16.91" cy="-16.91" rx="15.37" ry="23.91" fill="#f7f5ef" fill-opacity="0.95" />
        <circle cx="0" cy="0" r="15.37" fill="#d5c0a8" />
        <circle cx="0" cy="0" r="7.69" fill="#fff7f0" fill-opacity="0.72" />
      </g>
    </g>
    
    <g transform="translate(462.90 296.30) rotate(25.91)">
      <path d="M 0 0 C -8 95.95, 10 159.92, -6 234.55" stroke="#6f8d6e" stroke-width="12.79" fill="none" stroke-linecap="round" />
      <ellipse cx="-20" cy="117.28" rx="23.46" ry="44.78" fill="#6f8d6e" fill-opacity="0.75" transform="rotate(-24)" />
      <ellipse cx="28" cy="145.00" rx="21.32" ry="40.51" fill="#6f8d6e" fill-opacity="0.66" transform="rotate(20)" />
      <g transform="translate(0 0)">
        <ellipse cx="29.85" cy="0.00" rx="19.19" ry="29.85" fill="#f1e3d4" fill-opacity="0.95" /><ellipse cx="21.11" cy="21.11" rx="19.19" ry="29.85" fill="#f1e3d4" fill-opacity="0.95" /><ellipse cx="0.00" cy="29.85" rx="19.19" ry="29.85" fill="#f1e3d4" fill-opacity="0.95" /><ellipse cx="-21.11" cy="21.11" rx="19.19" ry="29.85" fill="#f1e3d4" fill-opacity="0.95" /><ellipse cx="-29.85" cy="0.00" rx="19.19" ry="29.85" fill="#f1e3d4" fill-opacity="0.95" /><ellipse cx="-21.11" cy="-21.11" rx="19.19" ry="29.85" fill="#f1e3d4" fill-opacity="0.95" /><ellipse cx="-0.00" cy="-29.85" rx="19.19" ry="29.85" fill="#f1e3d4" fill-opacity="0.95" /><ellipse cx="21.11" cy="-21.11" rx="19.19" ry="29.85" fill="#f1e3d4" fill-opacity="0.95" />
        <circle cx="0" cy="0" r="19.19" fill="#d5c0a8" />
        <circle cx="0" cy="0" r="9.60" fill="#fff7f0" fill-opacity="0.72" />
      </g>
    </g>
    
    <g transform="translate(650.04 460.27) rotate(12.89)">
      <path d="M 0 0 C -8 96.77, 10 161.28, -6 236.55" stroke="#a7b99d" stroke-width="12.90" fill="none" stroke-linecap="round" />
      <ellipse cx="-20" cy="118.28" rx="23.66" ry="45.16" fill="#a7b99d" fill-opacity="0.75" transform="rotate(-24)" />
      <ellipse cx="28" cy="146.23" rx="21.50" ry="40.86" fill="#a7b99d" fill-opacity="0.66" transform="rotate(20)" />
      <g transform="translate(0 0)">
        <ellipse cx="30.11" cy="0.00" rx="19.35" ry="30.11" fill="#e7d8cf" fill-opacity="0.95" /><ellipse cx="21.29" cy="21.29" rx="19.35" ry="30.11" fill="#e7d8cf" fill-opacity="0.95" /><ellipse cx="0.00" cy="30.11" rx="19.35" ry="30.11" fill="#e7d8cf" fill-opacity="0.95" /><ellipse cx="-21.29" cy="21.29" rx="19.35" ry="30.11" fill="#e7d8cf" fill-opacity="0.95" /><ellipse cx="-30.11" cy="0.00" rx="19.35" ry="30.11" fill="#e7d8cf" fill-opacity="0.95" /><ellipse cx="-21.29" cy="-21.29" rx="19.35" ry="30.11" fill="#e7d8cf" fill-opacity="0.95" /><ellipse cx="-0.00" cy="-30.11" rx="19.35" ry="30.11" fill="#e7d8cf" fill-opacity="0.95" /><ellipse cx="21.29" cy="-21.29" rx="19.35" ry="30.11" fill="#e7d8cf" fill-opacity="0.95" />
        <circle cx="0" cy="0" r="19.35" fill="#d5c0a8" />
        <circle cx="0" cy="0" r="9.68" fill="#fff7f0" fill-opacity="0.72" />
      </g>
    </g>
    
    <g transform="translate(575.95 533.06) rotate(-13.24)">
      <path d="M 0 0 C -8 84.96, 10 141.60, -6 207.68" stroke="#8da78b" stroke-width="11.33" fill="none" stroke-linecap="round" />
      <ellipse cx="-20" cy="103.84" rx="20.77" ry="39.65" fill="#8da78b" fill-opacity="0.75" transform="rotate(-24)" />
      <ellipse cx="28" cy="128.39" rx="18.88" ry="35.87" fill="#8da78b" fill-opacity="0.66" transform="rotate(20)" />
      <g transform="translate(0 0)">
        <ellipse cx="26.43" cy="0.00" rx="16.99" ry="26.43" fill="#d7e5d5" fill-opacity="0.95" /><ellipse cx="18.69" cy="18.69" rx="16.99" ry="26.43" fill="#d7e5d5" fill-opacity="0.95" /><ellipse cx="0.00" cy="26.43" rx="16.99" ry="26.43" fill="#d7e5d5" fill-opacity="0.95" /><ellipse cx="-18.69" cy="18.69" rx="16.99" ry="26.43" fill="#d7e5d5" fill-opacity="0.95" /><ellipse cx="-26.43" cy="0.00" rx="16.99" ry="26.43" fill="#d7e5d5" fill-opacity="0.95" /><ellipse cx="-18.69" cy="-18.69" rx="16.99" ry="26.43" fill="#d7e5d5" fill-opacity="0.95" /><ellipse cx="-0.00" cy="-26.43" rx="16.99" ry="26.43" fill="#d7e5d5" fill-opacity="0.95" /><ellipse cx="18.69" cy="-18.69" rx="16.99" ry="26.43" fill="#d7e5d5" fill-opacity="0.95" />
        <circle cx="0" cy="0" r="16.99" fill="#d5c0a8" />
        <circle cx="0" cy="0" r="8.50" fill="#fff7f0" fill-opacity="0.72" />
      </g>
    </g>
    
    <g transform="translate(567.10 437.21) rotate(12.26)">
      <path d="M 0 0 C -8 78.20, 10 130.34, -6 191.17" stroke="#6f8d6e" stroke-width="10.43" fill="none" stroke-linecap="round" />
      <ellipse cx="-20" cy="95.58" rx="19.12" ry="36.50" fill="#6f8d6e" fill-opacity="0.75" transform="rotate(-24)" />
      <ellipse cx="28" cy="118.17" rx="17.38" ry="33.02" fill="#6f8d6e" fill-opacity="0.66" transform="rotate(20)" />
      <g transform="translate(0 0)">
        <ellipse cx="24.33" cy="0.00" rx="15.64" ry="24.33" fill="#f7f5ef" fill-opacity="0.95" /><ellipse cx="17.20" cy="17.20" rx="15.64" ry="24.33" fill="#f7f5ef" fill-opacity="0.95" /><ellipse cx="0.00" cy="24.33" rx="15.64" ry="24.33" fill="#f7f5ef" fill-opacity="0.95" /><ellipse cx="-17.20" cy="17.20" rx="15.64" ry="24.33" fill="#f7f5ef" fill-opacity="0.95" /><ellipse cx="-24.33" cy="0.00" rx="15.64" ry="24.33" fill="#f7f5ef" fill-opacity="0.95" /><ellipse cx="-17.20" cy="-17.20" rx="15.64" ry="24.33" fill="#f7f5ef" fill-opacity="0.95" /><ellipse cx="-0.00" cy="-24.33" rx="15.64" ry="24.33" fill="#f7f5ef" fill-opacity="0.95" /><ellipse cx="17.20" cy="-17.20" rx="15.64" ry="24.33" fill="#f7f5ef" fill-opacity="0.95" />
        <circle cx="0" cy="0" r="15.64" fill="#d5c0a8" />
        <circle cx="0" cy="0" r="7.82" fill="#fff7f0" fill-opacity="0.72" />
      </g>
    </g>
    
    <g transform="translate(375.64 524.61) rotate(-4.23)">
      <path d="M 0 0 C -8 93.85, 10 156.42, -6 229.42" stroke="#a7b99d" stroke-width="12.51" fill="none" stroke-linecap="round" />
      <ellipse cx="-20" cy="114.71" rx="22.94" ry="43.80" fill="#a7b99d" fill-opacity="0.75" transform="rotate(-24)" />
      <ellipse cx="28" cy="141.82" rx="20.86" ry="39.63" fill="#a7b99d" fill-opacity="0.66" transform="rotate(20)" />
      <g transform="translate(0 0)">
        <ellipse cx="29.20" cy="0.00" rx="18.77" ry="29.20" fill="#f1e3d4" fill-opacity="0.95" /><ellipse cx="20.65" cy="20.65" rx="18.77" ry="29.20" fill="#f1e3d4" fill-opacity="0.95" /><ellipse cx="0.00" cy="29.20" rx="18.77" ry="29.20" fill="#f1e3d4" fill-opacity="0.95" /><ellipse cx="-20.65" cy="20.65" rx="18.77" ry="29.20" fill="#f1e3d4" fill-opacity="0.95" /><ellipse cx="-29.20" cy="0.00" rx="18.77" ry="29.20" fill="#f1e3d4" fill-opacity="0.95" /><ellipse cx="-20.65" cy="-20.65" rx="18.77" ry="29.20" fill="#f1e3d4" fill-opacity="0.95" /><ellipse cx="-0.00" cy="-29.20" rx="18.77" ry="29.20" fill="#f1e3d4" fill-opacity="0.95" /><ellipse cx="20.65" cy="-20.65" rx="18.77" ry="29.20" fill="#f1e3d4" fill-opacity="0.95" />
        <circle cx="0" cy="0" r="18.77" fill="#d5c0a8" />
        <circle cx="0" cy="0" r="9.39" fill="#fff7f0" fill-opacity="0.72" />
      </g>
    </g>
    
    <g transform="translate(646.75 396.23) rotate(-25.77)">
      <path d="M 0 0 C -8 77.93, 10 129.89, -6 190.50" stroke="#8da78b" stroke-width="10.39" fill="none" stroke-linecap="round" />
      <ellipse cx="-20" cy="95.25" rx="19.05" ry="36.37" fill="#8da78b" fill-opacity="0.75" transform="rotate(-24)" />
      <ellipse cx="28" cy="117.77" rx="17.32" ry="32.91" fill="#8da78b" fill-opacity="0.66" transform="rotate(20)" />
      <g transform="translate(0 0)">
        <ellipse cx="24.25" cy="0.00" rx="15.59" ry="24.25" fill="#e7d8cf" fill-opacity="0.95" /><ellipse cx="17.14" cy="17.14" rx="15.59" ry="24.25" fill="#e7d8cf" fill-opacity="0.95" /><ellipse cx="0.00" cy="24.25" rx="15.59" ry="24.25" fill="#e7d8cf" fill-opacity="0.95" /><ellipse cx="-17.14" cy="17.14" rx="15.59" ry="24.25" fill="#e7d8cf" fill-opacity="0.95" /><ellipse cx="-24.25" cy="0.00" rx="15.59" ry="24.25" fill="#e7d8cf" fill-opacity="0.95" /><ellipse cx="-17.14" cy="-17.14" rx="15.59" ry="24.25" fill="#e7d8cf" fill-opacity="0.95" /><ellipse cx="-0.00" cy="-24.25" rx="15.59" ry="24.25" fill="#e7d8cf" fill-opacity="0.95" /><ellipse cx="17.14" cy="-17.14" rx="15.59" ry="24.25" fill="#e7d8cf" fill-opacity="0.95" />
        <circle cx="0" cy="0" r="15.59" fill="#d5c0a8" />
        <circle cx="0" cy="0" r="7.79" fill="#fff7f0" fill-opacity="0.72" />
      </g>
    </g>
    
  </g>
  <path d="M0 980 C220 920, 420 1030, 900 930 L900 1100 L0 1100 Z" fill="#ffffff" fill-opacity="0.22" />
</svg>
