<svg xmlns="http://www.w3.org/2000/svg" width="900" height="1100" viewBox="0 0 900 1100">
  <defs>
    <linearGradient id="bg" x1="0" y1="0" x2="0" y2="1">
      <stop offset="0%" stop-color="#f8f3ec" />
      <stop offset="100%" stop-color="#e8efe5" />
    </linearGradient>
    <filter id="shadow" x="-20%" y="-20%" width="140%" height="140%">
      <feDropShadow dx="0" dy="22" stdDeviation="24" flood-color="#6c5d4f" flood-opacity="0.12" />
    </filter>
  </defs>
  <rect width="100%" height="100%" fill="url(#bg)" />
  <circle cx="730" cy="180" r="140" fill="#ffffff" fill-opacity="0.18" />
  <circle cx="150" cy="260" r="90" fill="#ffffff" fill-opacity="0.12" />
  
      <rect x="70" y="72" width="300" height="92" rx="24" fill="#ffffff" fill-opacity="0.34" />
      <text x="98" y="120" fill="#2f3a31" font-size="32" font-family="'PingFang SC','Microsoft YaHei',sans-serif" font-weight="600">雾粉花誓</text>
      <text x="98" y="152" fill="#4e6152" font-size="18" font-family="'PingFang SC','Microsoft YaHei',sans-serif">婚礼 · 手捧花</text>
    
  <g filter="url(#shadow)">
    <path d="M250 780 L650 780 L730 1080 L170 1080 Z" fill="#ece2d6" fill-opacity="0.88" />
  </g>
  <g>
    
    <g transform="translate(291.14 541.97) rotate(5.23)">
      <path d="M 0 0 C -8 73.26, 10 122.10, -6 179.08" stroke="#8da78b" stroke-width="9.77" fill="none" stroke-linecap="round" />
      <ellipse cx="-20" cy="89.54" rx="17.91" ry="34.19" fill="#8da78b" fill-opacity="0.75" transform="rotate(-24)" />
      <ellipse cx="28" cy="110.71" rx="16.28" ry="30.93" fill="#8da78b" fill-opacity="0.66" transform="rotate(20)" />
      <g transform="translate(0 0)">
        <ellipse cx="22.79" cy="0.00" rx="14.65" ry="22.79" fill="#f7f5ef" fill-opacity="0.95" /><ellipse cx="16.12" cy="16.12" rx="14.65" ry="22.79" fill="#f7f5ef" fill-opacity="0.95" /><ellipse cx="0.00" cy="22.79" rx="14.65" ry="22.79" fill="#f7f5ef" fill-opacity="0.95" /><ellipse cx="-16.12" cy="16.12" rx="14.65" ry="22.79" fill="#f7f5ef" fill-opacity="0.95" /><ellipse cx="-22.79" cy="0.00" rx="14.65" ry="22.79" fill="#f7f5ef" fill-opacity="0.95" /><ellipse cx="-16.12" cy="-16.12" rx="14.65" ry="22.79" fill="#f7f5ef" fill-opacity="0.95" /><ellipse cx="-0.00" cy="-22.79" rx="14.65" ry="22.79" fill="#f7f5ef" fill-opacity="0.95" /><ellipse cx="16.12" cy="-16.12" rx="14.65" ry="22.79" fill="#f7f5ef" fill-opacity="0.95" />
        <circle cx="0" cy="0" r="14.65" fill="#d5c0a8" />
        <circle cx="0" cy="0" r="7.33" fill="#fff7f0" fill-opacity="0.72" />
      </g>
    </g>
    
    <g transform="translate(553.20 477.25) rotate(-14.00)">
      <path d="M 0 0 C -8 73.42, 10 122.37, -6 179.48" stroke="#6f8d6e" stroke-width="9.79" fill="none" stroke-linecap="round" />
      <ellipse cx="-20" cy="89.74" rx="17.95" ry="34.26" fill="#6f8d6e" fill-opacity="0.75" transform="rotate(-24)" />
      <ellipse cx="28" cy="110.95" rx="16.32" ry="31.00" fill="#6f8d6e" fill-opacity="0.66" transform="rotate(20)" />
      <g transform="translate(0 0)">
        <ellipse cx="22.84" cy="0.00" rx="14.68" ry="22.84" fill="#f1e3d4" fill-opacity="0.95" /><ellipse cx="16.15" cy="16.15" rx="14.68" ry="22.84" fill="#f1e3d4" fill-opacity="0.95" /><ellipse cx="0.00" cy="22.84" rx="14.68" ry="22.84" fill="#f1e3d4" fill-opacity="0.95" /><ellipse cx="-16.15" cy="16.15" rx="14.68" ry="22.84" fill="#f1e3d4" fill-opacity="0.95" /><ellipse cx="-22.84" cy="0.00" rx="14.68" ry="22.84" fill="#f1e3d4" fill-opacity="0.95" /><ellipse cx="-16.15" cy="-16.15" rx="14.68" ry="22.84" fill="#f1e3d4" fill-opacity="0.95" /><ellipse cx="-0.00" cy="-22.84" rx="14.68" ry="22.84" fill="#f1e3d4" fill-opacity="0.95" /><ellipse cx="16.15" cy="-16.15" rx="14.68" ry="22.84" fill="#f1e3d4" fill-opacity="0.95" />
        <circle cx="0" cy="0" r="14.68" fill="#d5c0a8" />
        <circle cx="0" cy="0" r="7.34" fill="#fff7f0" fill-opacity="0.72" />
      </g>
    </g>
    
    <g transform="translate(252.83 290.24) rotate(7.51)">
      <path d="M 0 0 C -8 103.38, 10 172.30, -6 252.70" stroke="#a7b99d" stroke-width="13.78" fill="none" stroke-linecap="round" />
      <ellipse cx="-20" cy="126.35" rx="25.27" ry="48.24" fill="#a7b99d" fill-opacity="0.75" transform="rotate(-24)" />
      <ellipse cx="28" cy="156.22" rx="22.97" ry="43.65" fill="#a7b99d" fill-opacity="0.66" transform="rotate(20)" />
      <g transform="translate(0 0)">
        <ellipse cx="32.16" cy="0.00" rx="20.68" ry="32.16" fill="#e7d8cf" fill-opacity="0.95" /><ellipse cx="22.74" cy="22.74" rx="20.68" ry="32.16" fill="#e7d8cf" fill-opacity="0.95" /><ellipse cx="0.00" cy="32.16" rx="20.68" ry="32.16" fill="#e7d8cf" fill-opacity="0.95" /><ellipse cx="-22.74" cy="22.74" rx="20.68" ry="32.16" fill="#e7d8cf" fill-opacity="0.95" /><ellipse cx="-32.16" cy="0.00" rx="20.68" ry="32.16" fill="#e7d8cf" fill-opacity="0.95" /><ellipse cx="-22.74" cy="-22.74" rx="20.68" ry="32.16" fill="#e7d8cf" fill-opacity="0.95" /><ellipse cx="-0.00" cy="-32.16" rx="20.68" ry="32.16" fill="#e7d8cf" fill-opacity="0.95" /><ellipse cx="22.74" cy="-22.74" rx="20.68" ry="32.16" fill="#e7d8cf" fill-opacity="0.95" />
        <circle cx="0" cy="0" r="20.68" fill="#d5c0a8" />
        <circle cx="0" cy="0" r="10.34" fill="#fff7f0" fill-opacity="0.72" />
      </g>
    </g>
    
    <g transform="translate(637.05 535.62) rotate(8.57)">
      <path d="M 0 0 C -8 83.35, 10 138.91, -6 203.74" stroke="#8da78b" stroke-width="11.11" fill="none" stroke-linecap="round" />
      <ellipse cx="-20" cy="101.87" rx="20.37" ry="38.90" fill="#8da78b" fill-opacity="0.75" transform="rotate(-24)" />
      <ellipse cx="28" cy="125.95" rx="18.52" ry="35.19" fill="#8da78b" fill-opacity="0.66" transform="rotate(20)" />
      <g transform="translate(0 0)">
        <ellipse cx="25.93" cy="0.00" rx="16.67" ry="25.93" fill="#d7e5d5" fill-opacity="0.95" /><ellipse cx="18.34" cy="18.34" rx="16.67" ry="25.93" fill="#d7e5d5" fill-opacity="0.95" /><ellipse cx="0.00" cy="25.93" rx="16.67" ry="25.93" fill="#d7e5d5" fill-opacity="0.95" /><ellipse cx="-18.34" cy="18.34" rx="16.67" ry="25.93" fill="#d7e5d5" fill-opacity="0.95" /><ellipse cx="-25.93" cy="0.00" rx="16.67" ry="25.93" fill="#d7e5d5" fill-opacity="0.95" /><ellipse cx="-18.34" cy="-18.34" rx="16.67" ry="25.93" fill="#d7e5d5" fill-opacity="0.95" /><ellipse cx="-0.00" cy="-25.93" rx="16.67" ry="25.93" fill="#d7e5d5" fill-opacity="0.95" /><ellipse cx="18.34" cy="-18.34" rx="16.67" ry="25.93" fill="#d7e5d5" fill-opacity="0.95" />
        <circle cx="0" cy="0" r="16.67" fill="#d5c0a8" />
        <circle cx="0" cy="0" r="8.33" fill="#fff7f0" fill-opacity="0.72" />
      </g>
    </g>
    
    <g transform="translate(572.37 554.59) rotate(21.92)">
      <path d="M 0 0 C -8 88.98, 10 148.30, -6 217.50" stroke="#6f8d6e" stroke-width="11.86" fill="none" stroke-linecap="round" />
      <ellipse cx="-20" cy="108.75" rx="21.75" ry="41.52" fill="#6f8d6e" fill-opacity="0.75" transform="rotate(-24)" />
      <ellipse cx="28" cy="134.46" rx="19.77" ry="37.57" fill="#6f8d6e" fill-opacity="0.66" transform="rotate(20)" />
      <g transform="translate(0 0)">
        <ellipse cx="27.68" cy="0.00" rx="17.80" ry="27.68" fill="#f7f5ef" fill-opacity="0.95" /><ellipse cx="19.57" cy="19.57" rx="17.80" ry="27.68" fill="#f7f5ef" fill-opacity="0.95" /><ellipse cx="0.00" cy="27.68" rx="17.80" ry="27.68" fill="#f7f5ef" fill-opacity="0.95" /><ellipse cx="-19.57" cy="19.57" rx="17.80" ry="27.68" fill="#f7f5ef" fill-opacity="0.95" /><ellipse cx="-27.68" cy="0.00" rx="17.80" ry="27.68" fill="#f7f5ef" fill-opacity="0.95" /><ellipse cx="-19.57" cy="-19.57" rx="17.80" ry="27.68" fill="#f7f5ef" fill-opacity="0.95" /><ellipse cx="-0.00" cy="-27.68" rx="17.80" ry="27.68" fill="#f7f5ef" fill-opacity="0.95" /><ellipse cx="19.57" cy="-19.57" rx="17.80" ry="27.68" fill="#f7f5ef" fill-opacity="0.95" />
        <circle cx="0" cy="0" r="17.80" fill="#d5c0a8" />
        <circle cx="0" cy="0" r="8.90" fill="#fff7f0" fill-opacity="0.72" />
      </g>
    </g>
    
    <g transform="translate(492.29 552.67) rotate(-22.26)">
      <path d="M 0 0 C -8 107.47, 10 179.12, -6 262.71" stroke="#a7b99d" stroke-width="14.33" fill="none" stroke-linecap="round" />
      <ellipse cx="-20" cy="131.36" rx="26.27" ry="50.15" fill="#a7b99d" fill-opacity="0.75" transform="rotate(-24)" />
      <ellipse cx="28" cy="162.40" rx="23.88" ry="45.38" fill="#a7b99d" fill-opacity="0.66" transform="rotate(20)" />
      <g transform="translate(0 0)">
        <ellipse cx="33.44" cy="0.00" rx="21.49" ry="33.44" fill="#f1e3d4" fill-opacity="0.95" /><ellipse cx="23.64" cy="23.64" rx="21.49" ry="33.44" fill="#f1e3d4" fill-opacity="0.95" /><ellipse cx="0.00" cy="33.44" rx="21.49" ry="33.44" fill="#f1e3d4" fill-opacity="0.95" /><ellipse cx="-23.64" cy="23.64" rx="21.49" ry="33.44" fill="#f1e3d4" fill-opacity="0.95" /><ellipse cx="-33.44" cy="0.00" rx="21.49" ry="33.44" fill="#f1e3d4" fill-opacity="0.95" /><ellipse cx="-23.64" cy="-23.64" rx="21.49" ry="33.44" fill="#f1e3d4" fill-opacity="0.95" /><ellipse cx="-0.00" cy="-33.44" rx="21.49" ry="33.44" fill="#f1e3d4" fill-opacity="0.95" /><ellipse cx="23.64" cy="-23.64" rx="21.49" ry="33.44" fill="#f1e3d4" fill-opacity="0.95" />
        <circle cx="0" cy="0" r="21.49" fill="#d5c0a8" />
        <circle cx="0" cy="0" r="10.75" fill="#fff7f0" fill-opacity="0.72" />
      </g>
    </g>
    
    <g transform="translate(445.32 421.60) rotate(-6.92)">
      <path d="M 0 0 C -8 108.24, 10 180.40, -6 264.59" stroke="#8da78b" stroke-width="14.43" fill="none" stroke-linecap="round" />
      <ellipse cx="-20" cy="132.30" rx="26.46" ry="50.51" fill="#8da78b" fill-opacity="0.75" transform="rotate(-24)" />
      <ellipse cx="28" cy="163.57" rx="24.05" ry="45.70" fill="#8da78b" fill-opacity="0.66" transform="rotate(20)" />
      <g transform="translate(0 0)">
        <ellipse cx="33.68" cy="0.00" rx="21.65" ry="33.68" fill="#e7d8cf" fill-opacity="0.95" /><ellipse cx="23.81" cy="23.81" rx="21.65" ry="33.68" fill="#e7d8cf" fill-opacity="0.95" /><ellipse cx="0.00" cy="33.68" rx="21.65" ry="33.68" fill="#e7d8cf" fill-opacity="0.95" /><ellipse cx="-23.81" cy="23.81" rx="21.65" ry="33.68" fill="#e7d8cf" fill-opacity="0.95" /><ellipse cx="-33.68" cy="0.00" rx="21.65" ry="33.68" fill="#e7d8cf" fill-opacity="0.95" /><ellipse cx="-23.81" cy="-23.81" rx="21.65" ry="33.68" fill="#e7d8cf" fill-opacity="0.95" /><ellipse cx="-0.00" cy="-33.68" rx="21.65" ry="33.68" fill="#e7d8cf" fill-opacity="0.95" /><ellipse cx="23.81" cy="-23.81" rx="21.65" ry="33.68" fill="#e7d8cf" fill-opacity="0.95" />
        <circle cx="0" cy="0" r="21.65" fill="#d5c0a8" />
        <circle cx="0" cy="0" r="10.82" fill="#fff7f0" fill-opacity="0.72" />
      </g>
    </g>
    
  </g>
  <path d="M0 980 C220 920, 420 1030, 900 930 L900 1100 L0 1100 Z" fill="#ffffff" fill-opacity="0.22" />
</svg>
