<svg xmlns="http://www.w3.org/2000/svg" width="900" height="1100" viewBox="0 0 900 1100">
  <defs>
    <linearGradient id="bg" x1="0" y1="0" x2="0" y2="1">
      <stop offset="0%" stop-color="#f8f3ec" />
      <stop offset="100%" stop-color="#e8efe5" />
    </linearGradient>
    <filter id="shadow" x="-20%" y="-20%" width="140%" height="140%">
      <feDropShadow dx="0" dy="22" stdDeviation="24" flood-color="#6c5d4f" flood-opacity="0.12" />
    </filter>
  </defs>
  <rect width="100%" height="100%" fill="url(#bg)" />
  <circle cx="730" cy="180" r="140" fill="#ffffff" fill-opacity="0.18" />
  <circle cx="150" cy="260" r="90" fill="#ffffff" fill-opacity="0.12" />
  
      <rect x="70" y="72" width="300" height="92" rx="24" fill="#ffffff" fill-opacity="0.34" />
      <text x="98" y="120" fill="#2f3a31" font-size="32" font-family="'PingFang SC','Microsoft YaHei',sans-serif" font-weight="600">晨雾花阶</text>
      <text x="98" y="152" fill="#4e6152" font-size="18" font-family="'PingFang SC','Microsoft YaHei',sans-serif">婚礼 · 白绿系</text>
    
  <g filter="url(#shadow)">
    <path d="M250 780 L650 780 L730 1080 L170 1080 Z" fill="#ece2d6" fill-opacity="0.88" />
  </g>
  <g>
    
    <g transform="translate(402.86 301.76) rotate(-9.65)">
      <path d="M 0 0 C -8 82.31, 10 137.18, -6 201.19" stroke="#8da78b" stroke-width="10.97" fill="none" stroke-linecap="round" />
      <ellipse cx="-20" cy="100.60" rx="20.12" ry="38.41" fill="#8da78b" fill-opacity="0.75" transform="rotate(-24)" />
      <ellipse cx="28" cy="124.37" rx="18.29" ry="34.75" fill="#8da78b" fill-opacity="0.66" transform="rotate(20)" />
      <g transform="translate(0 0)">
        <ellipse cx="25.61" cy="0.00" rx="16.46" ry="25.61" fill="#f7f5ef" fill-opacity="0.95" /><ellipse cx="18.11" cy="18.11" rx="16.46" ry="25.61" fill="#f7f5ef" fill-opacity="0.95" /><ellipse cx="0.00" cy="25.61" rx="16.46" ry="25.61" fill="#f7f5ef" fill-opacity="0.95" /><ellipse cx="-18.11" cy="18.11" rx="16.46" ry="25.61" fill="#f7f5ef" fill-opacity="0.95" /><ellipse cx="-25.61" cy="0.00" rx="16.46" ry="25.61" fill="#f7f5ef" fill-opacity="0.95" /><ellipse cx="-18.11" cy="-18.11" rx="16.46" ry="25.61" fill="#f7f5ef" fill-opacity="0.95" /><ellipse cx="-0.00" cy="-25.61" rx="16.46" ry="25.61" fill="#f7f5ef" fill-opacity="0.95" /><ellipse cx="18.11" cy="-18.11" rx="16.46" ry="25.61" fill="#f7f5ef" fill-opacity="0.95" />
        <circle cx="0" cy="0" r="16.46" fill="#d5c0a8" />
        <circle cx="0" cy="0" r="8.23" fill="#fff7f0" fill-opacity="0.72" />
      </g>
    </g>
    
    <g transform="translate(669.44 472.90) rotate(-7.73)">
      <path d="M 0 0 C -8 91.89, 10 153.16, -6 224.63" stroke="#6f8d6e" stroke-width="12.25" fill="none" stroke-linecap="round" />
      <ellipse cx="-20" cy="112.31" rx="22.46" ry="42.88" fill="#6f8d6e" fill-opacity="0.75" transform="rotate(-24)" />
      <ellipse cx="28" cy="138.86" rx="20.42" ry="38.80" fill="#6f8d6e" fill-opacity="0.66" transform="rotate(20)" />
      <g transform="translate(0 0)">
        <ellipse cx="28.59" cy="0.00" rx="18.38" ry="28.59" fill="#f1e3d4" fill-opacity="0.95" /><ellipse cx="20.22" cy="20.22" rx="18.38" ry="28.59" fill="#f1e3d4" fill-opacity="0.95" /><ellipse cx="0.00" cy="28.59" rx="18.38" ry="28.59" fill="#f1e3d4" fill-opacity="0.95" /><ellipse cx="-20.22" cy="20.22" rx="18.38" ry="28.59" fill="#f1e3d4" fill-opacity="0.95" /><ellipse cx="-28.59" cy="0.00" rx="18.38" ry="28.59" fill="#f1e3d4" fill-opacity="0.95" /><ellipse cx="-20.22" cy="-20.22" rx="18.38" ry="28.59" fill="#f1e3d4" fill-opacity="0.95" /><ellipse cx="-0.00" cy="-28.59" rx="18.38" ry="28.59" fill="#f1e3d4" fill-opacity="0.95" /><ellipse cx="20.22" cy="-20.22" rx="18.38" ry="28.59" fill="#f1e3d4" fill-opacity="0.95" />
        <circle cx="0" cy="0" r="18.38" fill="#d5c0a8" />
        <circle cx="0" cy="0" r="9.19" fill="#fff7f0" fill-opacity="0.72" />
      </g>
    </g>
    
    <g transform="translate(532.36 368.58) rotate(-25.12)">
      <path d="M 0 0 C -8 96.82, 10 161.36, -6 236.66" stroke="#a7b99d" stroke-width="12.91" fill="none" stroke-linecap="round" />
      <ellipse cx="-20" cy="118.33" rx="23.67" ry="45.18" fill="#a7b99d" fill-opacity="0.75" transform="rotate(-24)" />
      <ellipse cx="28" cy="146.30" rx="21.51" ry="40.88" fill="#a7b99d" fill-opacity="0.66" transform="rotate(20)" />
      <g transform="translate(0 0)">
        <ellipse cx="30.12" cy="0.00" rx="19.36" ry="30.12" fill="#e7d8cf" fill-opacity="0.95" /><ellipse cx="21.30" cy="21.30" rx="19.36" ry="30.12" fill="#e7d8cf" fill-opacity="0.95" /><ellipse cx="0.00" cy="30.12" rx="19.36" ry="30.12" fill="#e7d8cf" fill-opacity="0.95" /><ellipse cx="-21.30" cy="21.30" rx="19.36" ry="30.12" fill="#e7d8cf" fill-opacity="0.95" /><ellipse cx="-30.12" cy="0.00" rx="19.36" ry="30.12" fill="#e7d8cf" fill-opacity="0.95" /><ellipse cx="-21.30" cy="-21.30" rx="19.36" ry="30.12" fill="#e7d8cf" fill-opacity="0.95" /><ellipse cx="-0.00" cy="-30.12" rx="19.36" ry="30.12" fill="#e7d8cf" fill-opacity="0.95" /><ellipse cx="21.30" cy="-21.30" rx="19.36" ry="30.12" fill="#e7d8cf" fill-opacity="0.95" />
        <circle cx="0" cy="0" r="19.36" fill="#d5c0a8" />
        <circle cx="0" cy="0" r="9.68" fill="#fff7f0" fill-opacity="0.72" />
      </g>
    </g>
    
    <g transform="translate(596.58 296.32) rotate(-10.80)">
      <path d="M 0 0 C -8 80.88, 10 134.81, -6 197.71" stroke="#8da78b" stroke-width="10.78" fill="none" stroke-linecap="round" />
      <ellipse cx="-20" cy="98.86" rx="19.77" ry="37.75" fill="#8da78b" fill-opacity="0.75" transform="rotate(-24)" />
      <ellipse cx="28" cy="122.22" rx="17.97" ry="34.15" fill="#8da78b" fill-opacity="0.66" transform="rotate(20)" />
      <g transform="translate(0 0)">
        <ellipse cx="25.16" cy="0.00" rx="16.18" ry="25.16" fill="#d7e5d5" fill-opacity="0.95" /><ellipse cx="17.79" cy="17.79" rx="16.18" ry="25.16" fill="#d7e5d5" fill-opacity="0.95" /><ellipse cx="0.00" cy="25.16" rx="16.18" ry="25.16" fill="#d7e5d5" fill-opacity="0.95" /><ellipse cx="-17.79" cy="17.79" rx="16.18" ry="25.16" fill="#d7e5d5" fill-opacity="0.95" /><ellipse cx="-25.16" cy="0.00" rx="16.18" ry="25.16" fill="#d7e5d5" fill-opacity="0.95" /><ellipse cx="-17.79" cy="-17.79" rx="16.18" ry="25.16" fill="#d7e5d5" fill-opacity="0.95" /><ellipse cx="-0.00" cy="-25.16" rx="16.18" ry="25.16" fill="#d7e5d5" fill-opacity="0.95" /><ellipse cx="17.79" cy="-17.79" rx="16.18" ry="25.16" fill="#d7e5d5" fill-opacity="0.95" />
        <circle cx="0" cy="0" r="16.18" fill="#d5c0a8" />
        <circle cx="0" cy="0" r="8.09" fill="#fff7f0" fill-opacity="0.72" />
      </g>
    </g>
    
    <g transform="translate(652.10 511.10) rotate(8.35)">
      <path d="M 0 0 C -8 106.16, 10 176.93, -6 259.50" stroke="#6f8d6e" stroke-width="14.15" fill="none" stroke-linecap="round" />
      <ellipse cx="-20" cy="129.75" rx="25.95" ry="49.54" fill="#6f8d6e" fill-opacity="0.75" transform="rotate(-24)" />
      <ellipse cx="28" cy="160.42" rx="23.59" ry="44.82" fill="#6f8d6e" fill-opacity="0.66" transform="rotate(20)" />
      <g transform="translate(0 0)">
        <ellipse cx="33.03" cy="0.00" rx="21.23" ry="33.03" fill="#f7f5ef" fill-opacity="0.95" /><ellipse cx="23.35" cy="23.35" rx="21.23" ry="33.03" fill="#f7f5ef" fill-opacity="0.95" /><ellipse cx="0.00" cy="33.03" rx="21.23" ry="33.03" fill="#f7f5ef" fill-opacity="0.95" /><ellipse cx="-23.35" cy="23.35" rx="21.23" ry="33.03" fill="#f7f5ef" fill-opacity="0.95" /><ellipse cx="-33.03" cy="0.00" rx="21.23" ry="33.03" fill="#f7f5ef" fill-opacity="0.95" /><ellipse cx="-23.35" cy="-23.35" rx="21.23" ry="33.03" fill="#f7f5ef" fill-opacity="0.95" /><ellipse cx="-0.00" cy="-33.03" rx="21.23" ry="33.03" fill="#f7f5ef" fill-opacity="0.95" /><ellipse cx="23.35" cy="-23.35" rx="21.23" ry="33.03" fill="#f7f5ef" fill-opacity="0.95" />
        <circle cx="0" cy="0" r="21.23" fill="#d5c0a8" />
        <circle cx="0" cy="0" r="10.62" fill="#fff7f0" fill-opacity="0.72" />
      </g>
    </g>
    
    <g transform="translate(485.93 369.55) rotate(-7.37)">
      <path d="M 0 0 C -8 89.29, 10 148.81, -6 218.25" stroke="#a7b99d" stroke-width="11.90" fill="none" stroke-linecap="round" />
      <ellipse cx="-20" cy="109.13" rx="21.83" ry="41.67" fill="#a7b99d" fill-opacity="0.75" transform="rotate(-24)" />
      <ellipse cx="28" cy="134.92" rx="19.84" ry="37.70" fill="#a7b99d" fill-opacity="0.66" transform="rotate(20)" />
      <g transform="translate(0 0)">
        <ellipse cx="27.78" cy="0.00" rx="17.86" ry="27.78" fill="#f1e3d4" fill-opacity="0.95" /><ellipse cx="19.64" cy="19.64" rx="17.86" ry="27.78" fill="#f1e3d4" fill-opacity="0.95" /><ellipse cx="0.00" cy="27.78" rx="17.86" ry="27.78" fill="#f1e3d4" fill-opacity="0.95" /><ellipse cx="-19.64" cy="19.64" rx="17.86" ry="27.78" fill="#f1e3d4" fill-opacity="0.95" /><ellipse cx="-27.78" cy="0.00" rx="17.86" ry="27.78" fill="#f1e3d4" fill-opacity="0.95" /><ellipse cx="-19.64" cy="-19.64" rx="17.86" ry="27.78" fill="#f1e3d4" fill-opacity="0.95" /><ellipse cx="-0.00" cy="-27.78" rx="17.86" ry="27.78" fill="#f1e3d4" fill-opacity="0.95" /><ellipse cx="19.64" cy="-19.64" rx="17.86" ry="27.78" fill="#f1e3d4" fill-opacity="0.95" />
        <circle cx="0" cy="0" r="17.86" fill="#d5c0a8" />
        <circle cx="0" cy="0" r="8.93" fill="#fff7f0" fill-opacity="0.72" />
      </g>
    </g>
    
    <g transform="translate(622.23 432.44) rotate(13.03)">
      <path d="M 0 0 C -8 72.32, 10 120.54, -6 176.79" stroke="#8da78b" stroke-width="9.64" fill="none" stroke-linecap="round" />
      <ellipse cx="-20" cy="88.39" rx="17.68" ry="33.75" fill="#8da78b" fill-opacity="0.75" transform="rotate(-24)" />
      <ellipse cx="28" cy="109.29" rx="16.07" ry="30.54" fill="#8da78b" fill-opacity="0.66" transform="rotate(20)" />
      <g transform="translate(0 0)">
        <ellipse cx="22.50" cy="0.00" rx="14.46" ry="22.50" fill="#e7d8cf" fill-opacity="0.95" /><ellipse cx="15.91" cy="15.91" rx="14.46" ry="22.50" fill="#e7d8cf" fill-opacity="0.95" /><ellipse cx="0.00" cy="22.50" rx="14.46" ry="22.50" fill="#e7d8cf" fill-opacity="0.95" /><ellipse cx="-15.91" cy="15.91" rx="14.46" ry="22.50" fill="#e7d8cf" fill-opacity="0.95" /><ellipse cx="-22.50" cy="0.00" rx="14.46" ry="22.50" fill="#e7d8cf" fill-opacity="0.95" /><ellipse cx="-15.91" cy="-15.91" rx="14.46" ry="22.50" fill="#e7d8cf" fill-opacity="0.95" /><ellipse cx="-0.00" cy="-22.50" rx="14.46" ry="22.50" fill="#e7d8cf" fill-opacity="0.95" /><ellipse cx="15.91" cy="-15.91" rx="14.46" ry="22.50" fill="#e7d8cf" fill-opacity="0.95" />
        <circle cx="0" cy="0" r="14.46" fill="#d5c0a8" />
        <circle cx="0" cy="0" r="7.23" fill="#fff7f0" fill-opacity="0.72" />
      </g>
    </g>
    
    <g transform="translate(218.85 372.60) rotate(-16.88)">
      <path d="M 0 0 C -8 112.96, 10 188.27, -6 276.13" stroke="#6f8d6e" stroke-width="15.06" fill="none" stroke-linecap="round" />
      <ellipse cx="-20" cy="138.06" rx="27.61" ry="52.71" fill="#6f8d6e" fill-opacity="0.75" transform="rotate(-24)" />
      <ellipse cx="28" cy="170.70" rx="25.10" ry="47.69" fill="#6f8d6e" fill-opacity="0.66" transform="rotate(20)" />
      <g transform="translate(0 0)">
        <ellipse cx="35.14" cy="0.00" rx="22.59" ry="35.14" fill="#d7e5d5" fill-opacity="0.95" /><ellipse cx="24.85" cy="24.85" rx="22.59" ry="35.14" fill="#d7e5d5" fill-opacity="0.95" /><ellipse cx="0.00" cy="35.14" rx="22.59" ry="35.14" fill="#d7e5d5" fill-opacity="0.95" /><ellipse cx="-24.85" cy="24.85" rx="22.59" ry="35.14" fill="#d7e5d5" fill-opacity="0.95" /><ellipse cx="-35.14" cy="0.00" rx="22.59" ry="35.14" fill="#d7e5d5" fill-opacity="0.95" /><ellipse cx="-24.85" cy="-24.85" rx="22.59" ry="35.14" fill="#d7e5d5" fill-opacity="0.95" /><ellipse cx="-0.00" cy="-35.14" rx="22.59" ry="35.14" fill="#d7e5d5" fill-opacity="0.95" /><ellipse cx="24.85" cy="-24.85" rx="22.59" ry="35.14" fill="#d7e5d5" fill-opacity="0.95" />
        <circle cx="0" cy="0" r="22.59" fill="#d5c0a8" />
        <circle cx="0" cy="0" r="11.30" fill="#fff7f0" fill-opacity="0.72" />
      </g>
    </g>
    
  </g>
  <path d="M0 980 C220 920, 420 1030, 900 930 L900 1100 L0 1100 Z" fill="#ffffff" fill-opacity="0.22" />
</svg>
