<svg xmlns="http://www.w3.org/2000/svg" width="900" height="1100" viewBox="0 0 900 1100">
  <defs>
    <linearGradient id="bg" x1="0" y1="0" x2="0" y2="1">
      <stop offset="0%" stop-color="#f8f3ec" />
      <stop offset="100%" stop-color="#e8efe5" />
    </linearGradient>
    <filter id="shadow" x="-20%" y="-20%" width="140%" height="140%">
      <feDropShadow dx="0" dy="22" stdDeviation="24" flood-color="#6c5d4f" flood-opacity="0.12" />
    </filter>
  </defs>
  <rect width="100%" height="100%" fill="url(#bg)" />
  <circle cx="730" cy="180" r="140" fill="#ffffff" fill-opacity="0.18" />
  <circle cx="150" cy="260" r="90" fill="#ffffff" fill-opacity="0.12" />
  
      <rect x="70" y="72" width="300" height="92" rx="24" fill="#ffffff" fill-opacity="0.34" />
      <text x="98" y="120" fill="#2f3a31" font-size="32" font-family="'PingFang SC','Microsoft YaHei',sans-serif" font-weight="600">雾粉花誓</text>
      <text x="98" y="152" fill="#4e6152" font-size="18" font-family="'PingFang SC','Microsoft YaHei',sans-serif">婚礼 · 手捧花</text>
    
  <g filter="url(#shadow)">
    <path d="M250 780 L650 780 L730 1080 L170 1080 Z" fill="#ece2d6" fill-opacity="0.88" />
  </g>
  <g>
    
    <g transform="translate(478.32 496.62) rotate(8.99)">
      <path d="M 0 0 C -8 101.80, 10 169.66, -6 248.83" stroke="#8da78b" stroke-width="13.57" fill="none" stroke-linecap="round" />
      <ellipse cx="-20" cy="124.42" rx="24.88" ry="47.50" fill="#8da78b" fill-opacity="0.75" transform="rotate(-24)" />
      <ellipse cx="28" cy="153.82" rx="22.62" ry="42.98" fill="#8da78b" fill-opacity="0.66" transform="rotate(20)" />
      <g transform="translate(0 0)">
        <ellipse cx="31.67" cy="0.00" rx="20.36" ry="31.67" fill="#f7f5ef" fill-opacity="0.95" /><ellipse cx="22.39" cy="22.39" rx="20.36" ry="31.67" fill="#f7f5ef" fill-opacity="0.95" /><ellipse cx="0.00" cy="31.67" rx="20.36" ry="31.67" fill="#f7f5ef" fill-opacity="0.95" /><ellipse cx="-22.39" cy="22.39" rx="20.36" ry="31.67" fill="#f7f5ef" fill-opacity="0.95" /><ellipse cx="-31.67" cy="0.00" rx="20.36" ry="31.67" fill="#f7f5ef" fill-opacity="0.95" /><ellipse cx="-22.39" cy="-22.39" rx="20.36" ry="31.67" fill="#f7f5ef" fill-opacity="0.95" /><ellipse cx="-0.00" cy="-31.67" rx="20.36" ry="31.67" fill="#f7f5ef" fill-opacity="0.95" /><ellipse cx="22.39" cy="-22.39" rx="20.36" ry="31.67" fill="#f7f5ef" fill-opacity="0.95" />
        <circle cx="0" cy="0" r="20.36" fill="#d5c0a8" />
        <circle cx="0" cy="0" r="10.18" fill="#fff7f0" fill-opacity="0.72" />
      </g>
    </g>
    
    <g transform="translate(244.60 356.75) rotate(-5.81)">
      <path d="M 0 0 C -8 90.04, 10 150.07, -6 220.10" stroke="#6f8d6e" stroke-width="12.01" fill="none" stroke-linecap="round" />
      <ellipse cx="-20" cy="110.05" rx="22.01" ry="42.02" fill="#6f8d6e" fill-opacity="0.75" transform="rotate(-24)" />
      <ellipse cx="28" cy="136.06" rx="20.01" ry="38.02" fill="#6f8d6e" fill-opacity="0.66" transform="rotate(20)" />
      <g transform="translate(0 0)">
        <ellipse cx="28.01" cy="0.00" rx="18.01" ry="28.01" fill="#f1e3d4" fill-opacity="0.95" /><ellipse cx="19.81" cy="19.81" rx="18.01" ry="28.01" fill="#f1e3d4" fill-opacity="0.95" /><ellipse cx="0.00" cy="28.01" rx="18.01" ry="28.01" fill="#f1e3d4" fill-opacity="0.95" /><ellipse cx="-19.81" cy="19.81" rx="18.01" ry="28.01" fill="#f1e3d4" fill-opacity="0.95" /><ellipse cx="-28.01" cy="0.00" rx="18.01" ry="28.01" fill="#f1e3d4" fill-opacity="0.95" /><ellipse cx="-19.81" cy="-19.81" rx="18.01" ry="28.01" fill="#f1e3d4" fill-opacity="0.95" /><ellipse cx="-0.00" cy="-28.01" rx="18.01" ry="28.01" fill="#f1e3d4" fill-opacity="0.95" /><ellipse cx="19.81" cy="-19.81" rx="18.01" ry="28.01" fill="#f1e3d4" fill-opacity="0.95" />
        <circle cx="0" cy="0" r="18.01" fill="#d5c0a8" />
        <circle cx="0" cy="0" r="9.00" fill="#fff7f0" fill-opacity="0.72" />
      </g>
    </g>
    
    <g transform="translate(304.35 439.27) rotate(21.45)">
      <path d="M 0 0 C -8 79.56, 10 132.59, -6 194.47" stroke="#a7b99d" stroke-width="10.61" fill="none" stroke-linecap="round" />
      <ellipse cx="-20" cy="97.23" rx="19.45" ry="37.13" fill="#a7b99d" fill-opacity="0.75" transform="rotate(-24)" />
      <ellipse cx="28" cy="120.22" rx="17.68" ry="33.59" fill="#a7b99d" fill-opacity="0.66" transform="rotate(20)" />
      <g transform="translate(0 0)">
        <ellipse cx="24.75" cy="0.00" rx="15.91" ry="24.75" fill="#e7d8cf" fill-opacity="0.95" /><ellipse cx="17.50" cy="17.50" rx="15.91" ry="24.75" fill="#e7d8cf" fill-opacity="0.95" /><ellipse cx="0.00" cy="24.75" rx="15.91" ry="24.75" fill="#e7d8cf" fill-opacity="0.95" /><ellipse cx="-17.50" cy="17.50" rx="15.91" ry="24.75" fill="#e7d8cf" fill-opacity="0.95" /><ellipse cx="-24.75" cy="0.00" rx="15.91" ry="24.75" fill="#e7d8cf" fill-opacity="0.95" /><ellipse cx="-17.50" cy="-17.50" rx="15.91" ry="24.75" fill="#e7d8cf" fill-opacity="0.95" /><ellipse cx="-0.00" cy="-24.75" rx="15.91" ry="24.75" fill="#e7d8cf" fill-opacity="0.95" /><ellipse cx="17.50" cy="-17.50" rx="15.91" ry="24.75" fill="#e7d8cf" fill-opacity="0.95" />
        <circle cx="0" cy="0" r="15.91" fill="#d5c0a8" />
        <circle cx="0" cy="0" r="7.96" fill="#fff7f0" fill-opacity="0.72" />
      </g>
    </g>
    
    <g transform="translate(304.17 351.18) rotate(-22.18)">
      <path d="M 0 0 C -8 70.89, 10 118.15, -6 173.28" stroke="#8da78b" stroke-width="9.45" fill="none" stroke-linecap="round" />
      <ellipse cx="-20" cy="86.64" rx="17.33" ry="33.08" fill="#8da78b" fill-opacity="0.75" transform="rotate(-24)" />
      <ellipse cx="28" cy="107.12" rx="15.75" ry="29.93" fill="#8da78b" fill-opacity="0.66" transform="rotate(20)" />
      <g transform="translate(0 0)">
        <ellipse cx="22.05" cy="0.00" rx="14.18" ry="22.05" fill="#d7e5d5" fill-opacity="0.95" /><ellipse cx="15.59" cy="15.59" rx="14.18" ry="22.05" fill="#d7e5d5" fill-opacity="0.95" /><ellipse cx="0.00" cy="22.05" rx="14.18" ry="22.05" fill="#d7e5d5" fill-opacity="0.95" /><ellipse cx="-15.59" cy="15.59" rx="14.18" ry="22.05" fill="#d7e5d5" fill-opacity="0.95" /><ellipse cx="-22.05" cy="0.00" rx="14.18" ry="22.05" fill="#d7e5d5" fill-opacity="0.95" /><ellipse cx="-15.59" cy="-15.59" rx="14.18" ry="22.05" fill="#d7e5d5" fill-opacity="0.95" /><ellipse cx="-0.00" cy="-22.05" rx="14.18" ry="22.05" fill="#d7e5d5" fill-opacity="0.95" /><ellipse cx="15.59" cy="-15.59" rx="14.18" ry="22.05" fill="#d7e5d5" fill-opacity="0.95" />
        <circle cx="0" cy="0" r="14.18" fill="#d5c0a8" />
        <circle cx="0" cy="0" r="7.09" fill="#fff7f0" fill-opacity="0.72" />
      </g>
    </g>
    
    <g transform="translate(673.11 463.44) rotate(16.09)">
      <path d="M 0 0 C -8 81.89, 10 136.48, -6 200.17" stroke="#6f8d6e" stroke-width="10.92" fill="none" stroke-linecap="round" />
      <ellipse cx="-20" cy="100.09" rx="20.02" ry="38.21" fill="#6f8d6e" fill-opacity="0.75" transform="rotate(-24)" />
      <ellipse cx="28" cy="123.74" rx="18.20" ry="34.57" fill="#6f8d6e" fill-opacity="0.66" transform="rotate(20)" />
      <g transform="translate(0 0)">
        <ellipse cx="25.48" cy="0.00" rx="16.38" ry="25.48" fill="#f7f5ef" fill-opacity="0.95" /><ellipse cx="18.01" cy="18.01" rx="16.38" ry="25.48" fill="#f7f5ef" fill-opacity="0.95" /><ellipse cx="0.00" cy="25.48" rx="16.38" ry="25.48" fill="#f7f5ef" fill-opacity="0.95" /><ellipse cx="-18.01" cy="18.01" rx="16.38" ry="25.48" fill="#f7f5ef" fill-opacity="0.95" /><ellipse cx="-25.48" cy="0.00" rx="16.38" ry="25.48" fill="#f7f5ef" fill-opacity="0.95" /><ellipse cx="-18.01" cy="-18.01" rx="16.38" ry="25.48" fill="#f7f5ef" fill-opacity="0.95" /><ellipse cx="-0.00" cy="-25.48" rx="16.38" ry="25.48" fill="#f7f5ef" fill-opacity="0.95" /><ellipse cx="18.01" cy="-18.01" rx="16.38" ry="25.48" fill="#f7f5ef" fill-opacity="0.95" />
        <circle cx="0" cy="0" r="16.38" fill="#d5c0a8" />
        <circle cx="0" cy="0" r="8.19" fill="#fff7f0" fill-opacity="0.72" />
      </g>
    </g>
    
    <g transform="translate(433.41 337.01) rotate(-16.36)">
      <path d="M 0 0 C -8 83.74, 10 139.56, -6 204.69" stroke="#a7b99d" stroke-width="11.16" fill="none" stroke-linecap="round" />
      <ellipse cx="-20" cy="102.34" rx="20.47" ry="39.08" fill="#a7b99d" fill-opacity="0.75" transform="rotate(-24)" />
      <ellipse cx="28" cy="126.53" rx="18.61" ry="35.36" fill="#a7b99d" fill-opacity="0.66" transform="rotate(20)" />
      <g transform="translate(0 0)">
        <ellipse cx="26.05" cy="0.00" rx="16.75" ry="26.05" fill="#f1e3d4" fill-opacity="0.95" /><ellipse cx="18.42" cy="18.42" rx="16.75" ry="26.05" fill="#f1e3d4" fill-opacity="0.95" /><ellipse cx="0.00" cy="26.05" rx="16.75" ry="26.05" fill="#f1e3d4" fill-opacity="0.95" /><ellipse cx="-18.42" cy="18.42" rx="16.75" ry="26.05" fill="#f1e3d4" fill-opacity="0.95" /><ellipse cx="-26.05" cy="0.00" rx="16.75" ry="26.05" fill="#f1e3d4" fill-opacity="0.95" /><ellipse cx="-18.42" cy="-18.42" rx="16.75" ry="26.05" fill="#f1e3d4" fill-opacity="0.95" /><ellipse cx="-0.00" cy="-26.05" rx="16.75" ry="26.05" fill="#f1e3d4" fill-opacity="0.95" /><ellipse cx="18.42" cy="-18.42" rx="16.75" ry="26.05" fill="#f1e3d4" fill-opacity="0.95" />
        <circle cx="0" cy="0" r="16.75" fill="#d5c0a8" />
        <circle cx="0" cy="0" r="8.37" fill="#fff7f0" fill-opacity="0.72" />
      </g>
    </g>
    
    <g transform="translate(462.42 378.55) rotate(-1.23)">
      <path d="M 0 0 C -8 113.12, 10 188.53, -6 276.50" stroke="#8da78b" stroke-width="15.08" fill="none" stroke-linecap="round" />
      <ellipse cx="-20" cy="138.25" rx="27.65" ry="52.79" fill="#8da78b" fill-opacity="0.75" transform="rotate(-24)" />
      <ellipse cx="28" cy="170.93" rx="25.14" ry="47.76" fill="#8da78b" fill-opacity="0.66" transform="rotate(20)" />
      <g transform="translate(0 0)">
        <ellipse cx="35.19" cy="0.00" rx="22.62" ry="35.19" fill="#e7d8cf" fill-opacity="0.95" /><ellipse cx="24.88" cy="24.88" rx="22.62" ry="35.19" fill="#e7d8cf" fill-opacity="0.95" /><ellipse cx="0.00" cy="35.19" rx="22.62" ry="35.19" fill="#e7d8cf" fill-opacity="0.95" /><ellipse cx="-24.88" cy="24.88" rx="22.62" ry="35.19" fill="#e7d8cf" fill-opacity="0.95" /><ellipse cx="-35.19" cy="0.00" rx="22.62" ry="35.19" fill="#e7d8cf" fill-opacity="0.95" /><ellipse cx="-24.88" cy="-24.88" rx="22.62" ry="35.19" fill="#e7d8cf" fill-opacity="0.95" /><ellipse cx="-0.00" cy="-35.19" rx="22.62" ry="35.19" fill="#e7d8cf" fill-opacity="0.95" /><ellipse cx="24.88" cy="-24.88" rx="22.62" ry="35.19" fill="#e7d8cf" fill-opacity="0.95" />
        <circle cx="0" cy="0" r="22.62" fill="#d5c0a8" />
        <circle cx="0" cy="0" r="11.31" fill="#fff7f0" fill-opacity="0.72" />
      </g>
    </g>
    
  </g>
  <path d="M0 980 C220 920, 420 1030, 900 930 L900 1100 L0 1100 Z" fill="#ffffff" fill-opacity="0.22" />
</svg>
