<svg xmlns="http://www.w3.org/2000/svg" width="900" height="1100" viewBox="0 0 900 1100">
  <defs>
    <linearGradient id="bg" x1="0" y1="0" x2="0" y2="1">
      <stop offset="0%" stop-color="#f8f3ec" />
      <stop offset="100%" stop-color="#e8efe5" />
    </linearGradient>
    <filter id="shadow" x="-20%" y="-20%" width="140%" height="140%">
      <feDropShadow dx="0" dy="22" stdDeviation="24" flood-color="#6c5d4f" flood-opacity="0.12" />
    </filter>
  </defs>
  <rect width="100%" height="100%" fill="url(#bg)" />
  <circle cx="730" cy="180" r="140" fill="#ffffff" fill-opacity="0.18" />
  <circle cx="150" cy="260" r="90" fill="#ffffff" fill-opacity="0.12" />
  
      <rect x="70" y="72" width="300" height="92" rx="24" fill="#ffffff" fill-opacity="0.34" />
      <text x="98" y="120" fill="#2f3a31" font-size="32" font-family="'PingFang SC','Microsoft YaHei',sans-serif" font-weight="600">月白序曲</text>
      <text x="98" y="152" fill="#4e6152" font-size="18" font-family="'PingFang SC','Microsoft YaHei',sans-serif">婚礼 · 香槟色</text>
    
  <g filter="url(#shadow)">
    <path d="M250 780 L650 780 L730 1080 L170 1080 Z" fill="#ece2d6" fill-opacity="0.88" />
  </g>
  <g>
    
    <g transform="translate(662.06 343.16) rotate(0.31)">
      <path d="M 0 0 C -8 90.59, 10 150.99, -6 221.45" stroke="#8da78b" stroke-width="12.08" fill="none" stroke-linecap="round" />
      <ellipse cx="-20" cy="110.72" rx="22.14" ry="42.28" fill="#8da78b" fill-opacity="0.75" transform="rotate(-24)" />
      <ellipse cx="28" cy="136.89" rx="20.13" ry="38.25" fill="#8da78b" fill-opacity="0.66" transform="rotate(20)" />
      <g transform="translate(0 0)">
        <ellipse cx="28.18" cy="0.00" rx="18.12" ry="28.18" fill="#f7f5ef" fill-opacity="0.95" /><ellipse cx="19.93" cy="19.93" rx="18.12" ry="28.18" fill="#f7f5ef" fill-opacity="0.95" /><ellipse cx="0.00" cy="28.18" rx="18.12" ry="28.18" fill="#f7f5ef" fill-opacity="0.95" /><ellipse cx="-19.93" cy="19.93" rx="18.12" ry="28.18" fill="#f7f5ef" fill-opacity="0.95" /><ellipse cx="-28.18" cy="0.00" rx="18.12" ry="28.18" fill="#f7f5ef" fill-opacity="0.95" /><ellipse cx="-19.93" cy="-19.93" rx="18.12" ry="28.18" fill="#f7f5ef" fill-opacity="0.95" /><ellipse cx="-0.00" cy="-28.18" rx="18.12" ry="28.18" fill="#f7f5ef" fill-opacity="0.95" /><ellipse cx="19.93" cy="-19.93" rx="18.12" ry="28.18" fill="#f7f5ef" fill-opacity="0.95" />
        <circle cx="0" cy="0" r="18.12" fill="#d5c0a8" />
        <circle cx="0" cy="0" r="9.06" fill="#fff7f0" fill-opacity="0.72" />
      </g>
    </g>
    
    <g transform="translate(437.99 373.14) rotate(-18.96)">
      <path d="M 0 0 C -8 74.61, 10 124.35, -6 182.39" stroke="#6f8d6e" stroke-width="9.95" fill="none" stroke-linecap="round" />
      <ellipse cx="-20" cy="91.19" rx="18.24" ry="34.82" fill="#6f8d6e" fill-opacity="0.75" transform="rotate(-24)" />
      <ellipse cx="28" cy="112.75" rx="16.58" ry="31.50" fill="#6f8d6e" fill-opacity="0.66" transform="rotate(20)" />
      <g transform="translate(0 0)">
        <ellipse cx="23.21" cy="0.00" rx="14.92" ry="23.21" fill="#f1e3d4" fill-opacity="0.95" /><ellipse cx="16.41" cy="16.41" rx="14.92" ry="23.21" fill="#f1e3d4" fill-opacity="0.95" /><ellipse cx="0.00" cy="23.21" rx="14.92" ry="23.21" fill="#f1e3d4" fill-opacity="0.95" /><ellipse cx="-16.41" cy="16.41" rx="14.92" ry="23.21" fill="#f1e3d4" fill-opacity="0.95" /><ellipse cx="-23.21" cy="0.00" rx="14.92" ry="23.21" fill="#f1e3d4" fill-opacity="0.95" /><ellipse cx="-16.41" cy="-16.41" rx="14.92" ry="23.21" fill="#f1e3d4" fill-opacity="0.95" /><ellipse cx="-0.00" cy="-23.21" rx="14.92" ry="23.21" fill="#f1e3d4" fill-opacity="0.95" /><ellipse cx="16.41" cy="-16.41" rx="14.92" ry="23.21" fill="#f1e3d4" fill-opacity="0.95" />
        <circle cx="0" cy="0" r="14.92" fill="#d5c0a8" />
        <circle cx="0" cy="0" r="7.46" fill="#fff7f0" fill-opacity="0.72" />
      </g>
    </g>
    
    <g transform="translate(356.01 444.46) rotate(-20.50)">
      <path d="M 0 0 C -8 93.68, 10 156.13, -6 228.99" stroke="#a7b99d" stroke-width="12.49" fill="none" stroke-linecap="round" />
      <ellipse cx="-20" cy="114.49" rx="22.90" ry="43.72" fill="#a7b99d" fill-opacity="0.75" transform="rotate(-24)" />
      <ellipse cx="28" cy="141.56" rx="20.82" ry="39.55" fill="#a7b99d" fill-opacity="0.66" transform="rotate(20)" />
      <g transform="translate(0 0)">
        <ellipse cx="29.14" cy="0.00" rx="18.74" ry="29.14" fill="#e7d8cf" fill-opacity="0.95" /><ellipse cx="20.61" cy="20.61" rx="18.74" ry="29.14" fill="#e7d8cf" fill-opacity="0.95" /><ellipse cx="0.00" cy="29.14" rx="18.74" ry="29.14" fill="#e7d8cf" fill-opacity="0.95" /><ellipse cx="-20.61" cy="20.61" rx="18.74" ry="29.14" fill="#e7d8cf" fill-opacity="0.95" /><ellipse cx="-29.14" cy="0.00" rx="18.74" ry="29.14" fill="#e7d8cf" fill-opacity="0.95" /><ellipse cx="-20.61" cy="-20.61" rx="18.74" ry="29.14" fill="#e7d8cf" fill-opacity="0.95" /><ellipse cx="-0.00" cy="-29.14" rx="18.74" ry="29.14" fill="#e7d8cf" fill-opacity="0.95" /><ellipse cx="20.61" cy="-20.61" rx="18.74" ry="29.14" fill="#e7d8cf" fill-opacity="0.95" />
        <circle cx="0" cy="0" r="18.74" fill="#d5c0a8" />
        <circle cx="0" cy="0" r="9.37" fill="#fff7f0" fill-opacity="0.72" />
      </g>
    </g>
    
    <g transform="translate(478.39 324.10) rotate(-7.93)">
      <path d="M 0 0 C -8 106.25, 10 177.08, -6 259.71" stroke="#8da78b" stroke-width="14.17" fill="none" stroke-linecap="round" />
      <ellipse cx="-20" cy="129.86" rx="25.97" ry="49.58" fill="#8da78b" fill-opacity="0.75" transform="rotate(-24)" />
      <ellipse cx="28" cy="160.55" rx="23.61" ry="44.86" fill="#8da78b" fill-opacity="0.66" transform="rotate(20)" />
      <g transform="translate(0 0)">
        <ellipse cx="33.05" cy="0.00" rx="21.25" ry="33.05" fill="#d7e5d5" fill-opacity="0.95" /><ellipse cx="23.37" cy="23.37" rx="21.25" ry="33.05" fill="#d7e5d5" fill-opacity="0.95" /><ellipse cx="0.00" cy="33.05" rx="21.25" ry="33.05" fill="#d7e5d5" fill-opacity="0.95" /><ellipse cx="-23.37" cy="23.37" rx="21.25" ry="33.05" fill="#d7e5d5" fill-opacity="0.95" /><ellipse cx="-33.05" cy="0.00" rx="21.25" ry="33.05" fill="#d7e5d5" fill-opacity="0.95" /><ellipse cx="-23.37" cy="-23.37" rx="21.25" ry="33.05" fill="#d7e5d5" fill-opacity="0.95" /><ellipse cx="-0.00" cy="-33.05" rx="21.25" ry="33.05" fill="#d7e5d5" fill-opacity="0.95" /><ellipse cx="23.37" cy="-23.37" rx="21.25" ry="33.05" fill="#d7e5d5" fill-opacity="0.95" />
        <circle cx="0" cy="0" r="21.25" fill="#d5c0a8" />
        <circle cx="0" cy="0" r="10.62" fill="#fff7f0" fill-opacity="0.72" />
      </g>
    </g>
    
    <g transform="translate(392.24 498.90) rotate(-24.53)">
      <path d="M 0 0 C -8 90.36, 10 150.60, -6 220.88" stroke="#6f8d6e" stroke-width="12.05" fill="none" stroke-linecap="round" />
      <ellipse cx="-20" cy="110.44" rx="22.09" ry="42.17" fill="#6f8d6e" fill-opacity="0.75" transform="rotate(-24)" />
      <ellipse cx="28" cy="136.54" rx="20.08" ry="38.15" fill="#6f8d6e" fill-opacity="0.66" transform="rotate(20)" />
      <g transform="translate(0 0)">
        <ellipse cx="28.11" cy="0.00" rx="18.07" ry="28.11" fill="#f7f5ef" fill-opacity="0.95" /><ellipse cx="19.88" cy="19.88" rx="18.07" ry="28.11" fill="#f7f5ef" fill-opacity="0.95" /><ellipse cx="0.00" cy="28.11" rx="18.07" ry="28.11" fill="#f7f5ef" fill-opacity="0.95" /><ellipse cx="-19.88" cy="19.88" rx="18.07" ry="28.11" fill="#f7f5ef" fill-opacity="0.95" /><ellipse cx="-28.11" cy="0.00" rx="18.07" ry="28.11" fill="#f7f5ef" fill-opacity="0.95" /><ellipse cx="-19.88" cy="-19.88" rx="18.07" ry="28.11" fill="#f7f5ef" fill-opacity="0.95" /><ellipse cx="-0.00" cy="-28.11" rx="18.07" ry="28.11" fill="#f7f5ef" fill-opacity="0.95" /><ellipse cx="19.88" cy="-19.88" rx="18.07" ry="28.11" fill="#f7f5ef" fill-opacity="0.95" />
        <circle cx="0" cy="0" r="18.07" fill="#d5c0a8" />
        <circle cx="0" cy="0" r="9.04" fill="#fff7f0" fill-opacity="0.72" />
      </g>
    </g>
    
    <g transform="translate(338.66 545.83) rotate(6.90)">
      <path d="M 0 0 C -8 86.84, 10 144.73, -6 212.27" stroke="#a7b99d" stroke-width="11.58" fill="none" stroke-linecap="round" />
      <ellipse cx="-20" cy="106.14" rx="21.23" ry="40.52" fill="#a7b99d" fill-opacity="0.75" transform="rotate(-24)" />
      <ellipse cx="28" cy="131.22" rx="19.30" ry="36.67" fill="#a7b99d" fill-opacity="0.66" transform="rotate(20)" />
      <g transform="translate(0 0)">
        <ellipse cx="27.02" cy="0.00" rx="17.37" ry="27.02" fill="#f1e3d4" fill-opacity="0.95" /><ellipse cx="19.10" cy="19.10" rx="17.37" ry="27.02" fill="#f1e3d4" fill-opacity="0.95" /><ellipse cx="0.00" cy="27.02" rx="17.37" ry="27.02" fill="#f1e3d4" fill-opacity="0.95" /><ellipse cx="-19.10" cy="19.10" rx="17.37" ry="27.02" fill="#f1e3d4" fill-opacity="0.95" /><ellipse cx="-27.02" cy="0.00" rx="17.37" ry="27.02" fill="#f1e3d4" fill-opacity="0.95" /><ellipse cx="-19.10" cy="-19.10" rx="17.37" ry="27.02" fill="#f1e3d4" fill-opacity="0.95" /><ellipse cx="-0.00" cy="-27.02" rx="17.37" ry="27.02" fill="#f1e3d4" fill-opacity="0.95" /><ellipse cx="19.10" cy="-19.10" rx="17.37" ry="27.02" fill="#f1e3d4" fill-opacity="0.95" />
        <circle cx="0" cy="0" r="17.37" fill="#d5c0a8" />
        <circle cx="0" cy="0" r="8.68" fill="#fff7f0" fill-opacity="0.72" />
      </g>
    </g>
    
    <g transform="translate(559.33 419.23) rotate(-13.13)">
      <path d="M 0 0 C -8 111.39, 10 185.65, -6 272.29" stroke="#8da78b" stroke-width="14.85" fill="none" stroke-linecap="round" />
      <ellipse cx="-20" cy="136.15" rx="27.23" ry="51.98" fill="#8da78b" fill-opacity="0.75" transform="rotate(-24)" />
      <ellipse cx="28" cy="168.33" rx="24.75" ry="47.03" fill="#8da78b" fill-opacity="0.66" transform="rotate(20)" />
      <g transform="translate(0 0)">
        <ellipse cx="34.66" cy="0.00" rx="22.28" ry="34.66" fill="#e7d8cf" fill-opacity="0.95" /><ellipse cx="24.51" cy="24.51" rx="22.28" ry="34.66" fill="#e7d8cf" fill-opacity="0.95" /><ellipse cx="0.00" cy="34.66" rx="22.28" ry="34.66" fill="#e7d8cf" fill-opacity="0.95" /><ellipse cx="-24.51" cy="24.51" rx="22.28" ry="34.66" fill="#e7d8cf" fill-opacity="0.95" /><ellipse cx="-34.66" cy="0.00" rx="22.28" ry="34.66" fill="#e7d8cf" fill-opacity="0.95" /><ellipse cx="-24.51" cy="-24.51" rx="22.28" ry="34.66" fill="#e7d8cf" fill-opacity="0.95" /><ellipse cx="-0.00" cy="-34.66" rx="22.28" ry="34.66" fill="#e7d8cf" fill-opacity="0.95" /><ellipse cx="24.51" cy="-24.51" rx="22.28" ry="34.66" fill="#e7d8cf" fill-opacity="0.95" />
        <circle cx="0" cy="0" r="22.28" fill="#d5c0a8" />
        <circle cx="0" cy="0" r="11.14" fill="#fff7f0" fill-opacity="0.72" />
      </g>
    </g>
    
    <g transform="translate(218.14 330.80) rotate(11.92)">
      <path d="M 0 0 C -8 79.83, 10 133.05, -6 195.15" stroke="#6f8d6e" stroke-width="10.64" fill="none" stroke-linecap="round" />
      <ellipse cx="-20" cy="97.57" rx="19.51" ry="37.26" fill="#6f8d6e" fill-opacity="0.75" transform="rotate(-24)" />
      <ellipse cx="28" cy="120.64" rx="17.74" ry="33.71" fill="#6f8d6e" fill-opacity="0.66" transform="rotate(20)" />
      <g transform="translate(0 0)">
        <ellipse cx="24.84" cy="0.00" rx="15.97" ry="24.84" fill="#d7e5d5" fill-opacity="0.95" /><ellipse cx="17.56" cy="17.56" rx="15.97" ry="24.84" fill="#d7e5d5" fill-opacity="0.95" /><ellipse cx="0.00" cy="24.84" rx="15.97" ry="24.84" fill="#d7e5d5" fill-opacity="0.95" /><ellipse cx="-17.56" cy="17.56" rx="15.97" ry="24.84" fill="#d7e5d5" fill-opacity="0.95" /><ellipse cx="-24.84" cy="0.00" rx="15.97" ry="24.84" fill="#d7e5d5" fill-opacity="0.95" /><ellipse cx="-17.56" cy="-17.56" rx="15.97" ry="24.84" fill="#d7e5d5" fill-opacity="0.95" /><ellipse cx="-0.00" cy="-24.84" rx="15.97" ry="24.84" fill="#d7e5d5" fill-opacity="0.95" /><ellipse cx="17.56" cy="-17.56" rx="15.97" ry="24.84" fill="#d7e5d5" fill-opacity="0.95" />
        <circle cx="0" cy="0" r="15.97" fill="#d5c0a8" />
        <circle cx="0" cy="0" r="7.98" fill="#fff7f0" fill-opacity="0.72" />
      </g>
    </g>
    
  </g>
  <path d="M0 980 C220 920, 420 1030, 900 930 L900 1100 L0 1100 Z" fill="#ffffff" fill-opacity="0.22" />
</svg>
