<svg xmlns="http://www.w3.org/2000/svg" width="900" height="1100" viewBox="0 0 900 1100">
  <defs>
    <linearGradient id="bg" x1="0" y1="0" x2="0" y2="1">
      <stop offset="0%" stop-color="#f8f3ec" />
      <stop offset="100%" stop-color="#e8efe5" />
    </linearGradient>
    <filter id="shadow" x="-20%" y="-20%" width="140%" height="140%">
      <feDropShadow dx="0" dy="22" stdDeviation="24" flood-color="#6c5d4f" flood-opacity="0.12" />
    </filter>
  </defs>
  <rect width="100%" height="100%" fill="url(#bg)" />
  <circle cx="730" cy="180" r="140" fill="#ffffff" fill-opacity="0.18" />
  <circle cx="150" cy="260" r="90" fill="#ffffff" fill-opacity="0.12" />
  
      <rect x="70" y="72" width="300" height="92" rx="24" fill="#ffffff" fill-opacity="0.34" />
      <text x="98" y="120" fill="#2f3a31" font-size="32" font-family="'PingFang SC','Microsoft YaHei',sans-serif" font-weight="600">宴庭微光</text>
      <text x="98" y="152" fill="#4e6152" font-size="18" font-family="'PingFang SC','Microsoft YaHei',sans-serif">婚礼 · 手捧花</text>
    
  <g filter="url(#shadow)">
    <path d="M250 780 L650 780 L730 1080 L170 1080 Z" fill="#ece2d6" fill-opacity="0.88" />
  </g>
  <g>
    
    <g transform="translate(641.00 526.00) rotate(-0.45)">
      <path d="M 0 0 C -8 114.39, 10 190.65, -6 279.61" stroke="#8da78b" stroke-width="15.25" fill="none" stroke-linecap="round" />
      <ellipse cx="-20" cy="139.81" rx="27.96" ry="53.38" fill="#8da78b" fill-opacity="0.75" transform="rotate(-24)" />
      <ellipse cx="28" cy="172.85" rx="25.42" ry="48.30" fill="#8da78b" fill-opacity="0.66" transform="rotate(20)" />
      <g transform="translate(0 0)">
        <ellipse cx="35.59" cy="0.00" rx="22.88" ry="35.59" fill="#f7f5ef" fill-opacity="0.95" /><ellipse cx="25.16" cy="25.16" rx="22.88" ry="35.59" fill="#f7f5ef" fill-opacity="0.95" /><ellipse cx="0.00" cy="35.59" rx="22.88" ry="35.59" fill="#f7f5ef" fill-opacity="0.95" /><ellipse cx="-25.16" cy="25.16" rx="22.88" ry="35.59" fill="#f7f5ef" fill-opacity="0.95" /><ellipse cx="-35.59" cy="0.00" rx="22.88" ry="35.59" fill="#f7f5ef" fill-opacity="0.95" /><ellipse cx="-25.16" cy="-25.16" rx="22.88" ry="35.59" fill="#f7f5ef" fill-opacity="0.95" /><ellipse cx="-0.00" cy="-35.59" rx="22.88" ry="35.59" fill="#f7f5ef" fill-opacity="0.95" /><ellipse cx="25.16" cy="-25.16" rx="22.88" ry="35.59" fill="#f7f5ef" fill-opacity="0.95" />
        <circle cx="0" cy="0" r="22.88" fill="#d5c0a8" />
        <circle cx="0" cy="0" r="11.44" fill="#fff7f0" fill-opacity="0.72" />
      </g>
    </g>
    
    <g transform="translate(639.48 381.71) rotate(7.07)">
      <path d="M 0 0 C -8 99.38, 10 165.64, -6 242.94" stroke="#6f8d6e" stroke-width="13.25" fill="none" stroke-linecap="round" />
      <ellipse cx="-20" cy="121.47" rx="24.29" ry="46.38" fill="#6f8d6e" fill-opacity="0.75" transform="rotate(-24)" />
      <ellipse cx="28" cy="150.18" rx="22.09" ry="41.96" fill="#6f8d6e" fill-opacity="0.66" transform="rotate(20)" />
      <g transform="translate(0 0)">
        <ellipse cx="30.92" cy="0.00" rx="19.88" ry="30.92" fill="#f1e3d4" fill-opacity="0.95" /><ellipse cx="21.86" cy="21.86" rx="19.88" ry="30.92" fill="#f1e3d4" fill-opacity="0.95" /><ellipse cx="0.00" cy="30.92" rx="19.88" ry="30.92" fill="#f1e3d4" fill-opacity="0.95" /><ellipse cx="-21.86" cy="21.86" rx="19.88" ry="30.92" fill="#f1e3d4" fill-opacity="0.95" /><ellipse cx="-30.92" cy="0.00" rx="19.88" ry="30.92" fill="#f1e3d4" fill-opacity="0.95" /><ellipse cx="-21.86" cy="-21.86" rx="19.88" ry="30.92" fill="#f1e3d4" fill-opacity="0.95" /><ellipse cx="-0.00" cy="-30.92" rx="19.88" ry="30.92" fill="#f1e3d4" fill-opacity="0.95" /><ellipse cx="21.86" cy="-21.86" rx="19.88" ry="30.92" fill="#f1e3d4" fill-opacity="0.95" />
        <circle cx="0" cy="0" r="19.88" fill="#d5c0a8" />
        <circle cx="0" cy="0" r="9.94" fill="#fff7f0" fill-opacity="0.72" />
      </g>
    </g>
    
    <g transform="translate(677.35 368.89) rotate(19.02)">
      <path d="M 0 0 C -8 96.34, 10 160.57, -6 235.50" stroke="#a7b99d" stroke-width="12.85" fill="none" stroke-linecap="round" />
      <ellipse cx="-20" cy="117.75" rx="23.55" ry="44.96" fill="#a7b99d" fill-opacity="0.75" transform="rotate(-24)" />
      <ellipse cx="28" cy="145.58" rx="21.41" ry="40.68" fill="#a7b99d" fill-opacity="0.66" transform="rotate(20)" />
      <g transform="translate(0 0)">
        <ellipse cx="29.97" cy="0.00" rx="19.27" ry="29.97" fill="#e7d8cf" fill-opacity="0.95" /><ellipse cx="21.19" cy="21.19" rx="19.27" ry="29.97" fill="#e7d8cf" fill-opacity="0.95" /><ellipse cx="0.00" cy="29.97" rx="19.27" ry="29.97" fill="#e7d8cf" fill-opacity="0.95" /><ellipse cx="-21.19" cy="21.19" rx="19.27" ry="29.97" fill="#e7d8cf" fill-opacity="0.95" /><ellipse cx="-29.97" cy="0.00" rx="19.27" ry="29.97" fill="#e7d8cf" fill-opacity="0.95" /><ellipse cx="-21.19" cy="-21.19" rx="19.27" ry="29.97" fill="#e7d8cf" fill-opacity="0.95" /><ellipse cx="-0.00" cy="-29.97" rx="19.27" ry="29.97" fill="#e7d8cf" fill-opacity="0.95" /><ellipse cx="21.19" cy="-21.19" rx="19.27" ry="29.97" fill="#e7d8cf" fill-opacity="0.95" />
        <circle cx="0" cy="0" r="19.27" fill="#d5c0a8" />
        <circle cx="0" cy="0" r="9.63" fill="#fff7f0" fill-opacity="0.72" />
      </g>
    </g>
    
    <g transform="translate(480.18 555.21) rotate(1.35)">
      <path d="M 0 0 C -8 100.13, 10 166.88, -6 244.75" stroke="#8da78b" stroke-width="13.35" fill="none" stroke-linecap="round" />
      <ellipse cx="-20" cy="122.38" rx="24.48" ry="46.73" fill="#8da78b" fill-opacity="0.75" transform="rotate(-24)" />
      <ellipse cx="28" cy="151.30" rx="22.25" ry="42.28" fill="#8da78b" fill-opacity="0.66" transform="rotate(20)" />
      <g transform="translate(0 0)">
        <ellipse cx="31.15" cy="0.00" rx="20.03" ry="31.15" fill="#d7e5d5" fill-opacity="0.95" /><ellipse cx="22.03" cy="22.03" rx="20.03" ry="31.15" fill="#d7e5d5" fill-opacity="0.95" /><ellipse cx="0.00" cy="31.15" rx="20.03" ry="31.15" fill="#d7e5d5" fill-opacity="0.95" /><ellipse cx="-22.03" cy="22.03" rx="20.03" ry="31.15" fill="#d7e5d5" fill-opacity="0.95" /><ellipse cx="-31.15" cy="0.00" rx="20.03" ry="31.15" fill="#d7e5d5" fill-opacity="0.95" /><ellipse cx="-22.03" cy="-22.03" rx="20.03" ry="31.15" fill="#d7e5d5" fill-opacity="0.95" /><ellipse cx="-0.00" cy="-31.15" rx="20.03" ry="31.15" fill="#d7e5d5" fill-opacity="0.95" /><ellipse cx="22.03" cy="-22.03" rx="20.03" ry="31.15" fill="#d7e5d5" fill-opacity="0.95" />
        <circle cx="0" cy="0" r="20.03" fill="#d5c0a8" />
        <circle cx="0" cy="0" r="10.01" fill="#fff7f0" fill-opacity="0.72" />
      </g>
    </g>
    
    <g transform="translate(439.55 480.62) rotate(0.88)">
      <path d="M 0 0 C -8 85.37, 10 142.28, -6 208.68" stroke="#6f8d6e" stroke-width="11.38" fill="none" stroke-linecap="round" />
      <ellipse cx="-20" cy="104.34" rx="20.87" ry="39.84" fill="#6f8d6e" fill-opacity="0.75" transform="rotate(-24)" />
      <ellipse cx="28" cy="129.00" rx="18.97" ry="36.04" fill="#6f8d6e" fill-opacity="0.66" transform="rotate(20)" />
      <g transform="translate(0 0)">
        <ellipse cx="26.56" cy="0.00" rx="17.07" ry="26.56" fill="#f7f5ef" fill-opacity="0.95" /><ellipse cx="18.78" cy="18.78" rx="17.07" ry="26.56" fill="#f7f5ef" fill-opacity="0.95" /><ellipse cx="0.00" cy="26.56" rx="17.07" ry="26.56" fill="#f7f5ef" fill-opacity="0.95" /><ellipse cx="-18.78" cy="18.78" rx="17.07" ry="26.56" fill="#f7f5ef" fill-opacity="0.95" /><ellipse cx="-26.56" cy="0.00" rx="17.07" ry="26.56" fill="#f7f5ef" fill-opacity="0.95" /><ellipse cx="-18.78" cy="-18.78" rx="17.07" ry="26.56" fill="#f7f5ef" fill-opacity="0.95" /><ellipse cx="-0.00" cy="-26.56" rx="17.07" ry="26.56" fill="#f7f5ef" fill-opacity="0.95" /><ellipse cx="18.78" cy="-18.78" rx="17.07" ry="26.56" fill="#f7f5ef" fill-opacity="0.95" />
        <circle cx="0" cy="0" r="17.07" fill="#d5c0a8" />
        <circle cx="0" cy="0" r="8.54" fill="#fff7f0" fill-opacity="0.72" />
      </g>
    </g>
    
    <g transform="translate(585.11 495.26) rotate(-24.96)">
      <path d="M 0 0 C -8 99.73, 10 166.22, -6 243.78" stroke="#a7b99d" stroke-width="13.30" fill="none" stroke-linecap="round" />
      <ellipse cx="-20" cy="121.89" rx="24.38" ry="46.54" fill="#a7b99d" fill-opacity="0.75" transform="rotate(-24)" />
      <ellipse cx="28" cy="150.70" rx="22.16" ry="42.11" fill="#a7b99d" fill-opacity="0.66" transform="rotate(20)" />
      <g transform="translate(0 0)">
        <ellipse cx="31.03" cy="0.00" rx="19.95" ry="31.03" fill="#f1e3d4" fill-opacity="0.95" /><ellipse cx="21.94" cy="21.94" rx="19.95" ry="31.03" fill="#f1e3d4" fill-opacity="0.95" /><ellipse cx="0.00" cy="31.03" rx="19.95" ry="31.03" fill="#f1e3d4" fill-opacity="0.95" /><ellipse cx="-21.94" cy="21.94" rx="19.95" ry="31.03" fill="#f1e3d4" fill-opacity="0.95" /><ellipse cx="-31.03" cy="0.00" rx="19.95" ry="31.03" fill="#f1e3d4" fill-opacity="0.95" /><ellipse cx="-21.94" cy="-21.94" rx="19.95" ry="31.03" fill="#f1e3d4" fill-opacity="0.95" /><ellipse cx="-0.00" cy="-31.03" rx="19.95" ry="31.03" fill="#f1e3d4" fill-opacity="0.95" /><ellipse cx="21.94" cy="-21.94" rx="19.95" ry="31.03" fill="#f1e3d4" fill-opacity="0.95" />
        <circle cx="0" cy="0" r="19.95" fill="#d5c0a8" />
        <circle cx="0" cy="0" r="9.97" fill="#fff7f0" fill-opacity="0.72" />
      </g>
    </g>
    
    <g transform="translate(563.44 476.70) rotate(5.68)">
      <path d="M 0 0 C -8 93.73, 10 156.21, -6 229.11" stroke="#8da78b" stroke-width="12.50" fill="none" stroke-linecap="round" />
      <ellipse cx="-20" cy="114.55" rx="22.91" ry="43.74" fill="#8da78b" fill-opacity="0.75" transform="rotate(-24)" />
      <ellipse cx="28" cy="141.63" rx="20.83" ry="39.57" fill="#8da78b" fill-opacity="0.66" transform="rotate(20)" />
      <g transform="translate(0 0)">
        <ellipse cx="29.16" cy="0.00" rx="18.75" ry="29.16" fill="#e7d8cf" fill-opacity="0.95" /><ellipse cx="20.62" cy="20.62" rx="18.75" ry="29.16" fill="#e7d8cf" fill-opacity="0.95" /><ellipse cx="0.00" cy="29.16" rx="18.75" ry="29.16" fill="#e7d8cf" fill-opacity="0.95" /><ellipse cx="-20.62" cy="20.62" rx="18.75" ry="29.16" fill="#e7d8cf" fill-opacity="0.95" /><ellipse cx="-29.16" cy="0.00" rx="18.75" ry="29.16" fill="#e7d8cf" fill-opacity="0.95" /><ellipse cx="-20.62" cy="-20.62" rx="18.75" ry="29.16" fill="#e7d8cf" fill-opacity="0.95" /><ellipse cx="-0.00" cy="-29.16" rx="18.75" ry="29.16" fill="#e7d8cf" fill-opacity="0.95" /><ellipse cx="20.62" cy="-20.62" rx="18.75" ry="29.16" fill="#e7d8cf" fill-opacity="0.95" />
        <circle cx="0" cy="0" r="18.75" fill="#d5c0a8" />
        <circle cx="0" cy="0" r="9.37" fill="#fff7f0" fill-opacity="0.72" />
      </g>
    </g>
    
    <g transform="translate(314.63 438.13) rotate(0.28)">
      <path d="M 0 0 C -8 99.47, 10 165.79, -6 243.16" stroke="#6f8d6e" stroke-width="13.26" fill="none" stroke-linecap="round" />
      <ellipse cx="-20" cy="121.58" rx="24.32" ry="46.42" fill="#6f8d6e" fill-opacity="0.75" transform="rotate(-24)" />
      <ellipse cx="28" cy="150.32" rx="22.11" ry="42.00" fill="#6f8d6e" fill-opacity="0.66" transform="rotate(20)" />
      <g transform="translate(0 0)">
        <ellipse cx="30.95" cy="0.00" rx="19.89" ry="30.95" fill="#d7e5d5" fill-opacity="0.95" /><ellipse cx="21.88" cy="21.88" rx="19.89" ry="30.95" fill="#d7e5d5" fill-opacity="0.95" /><ellipse cx="0.00" cy="30.95" rx="19.89" ry="30.95" fill="#d7e5d5" fill-opacity="0.95" /><ellipse cx="-21.88" cy="21.88" rx="19.89" ry="30.95" fill="#d7e5d5" fill-opacity="0.95" /><ellipse cx="-30.95" cy="0.00" rx="19.89" ry="30.95" fill="#d7e5d5" fill-opacity="0.95" /><ellipse cx="-21.88" cy="-21.88" rx="19.89" ry="30.95" fill="#d7e5d5" fill-opacity="0.95" /><ellipse cx="-0.00" cy="-30.95" rx="19.89" ry="30.95" fill="#d7e5d5" fill-opacity="0.95" /><ellipse cx="21.88" cy="-21.88" rx="19.89" ry="30.95" fill="#d7e5d5" fill-opacity="0.95" />
        <circle cx="0" cy="0" r="19.89" fill="#d5c0a8" />
        <circle cx="0" cy="0" r="9.95" fill="#fff7f0" fill-opacity="0.72" />
      </g>
    </g>
    
  </g>
  <path d="M0 980 C220 920, 420 1030, 900 930 L900 1100 L0 1100 Z" fill="#ffffff" fill-opacity="0.22" />
</svg>
