<svg xmlns="http://www.w3.org/2000/svg" width="900" height="1100" viewBox="0 0 900 1100">
  <defs>
    <linearGradient id="bg" x1="0" y1="0" x2="0" y2="1">
      <stop offset="0%" stop-color="#f8f3ec" />
      <stop offset="100%" stop-color="#e8efe5" />
    </linearGradient>
    <filter id="shadow" x="-20%" y="-20%" width="140%" height="140%">
      <feDropShadow dx="0" dy="22" stdDeviation="24" flood-color="#6c5d4f" flood-opacity="0.12" />
    </filter>
  </defs>
  <rect width="100%" height="100%" fill="url(#bg)" />
  <circle cx="730" cy="180" r="140" fill="#ffffff" fill-opacity="0.18" />
  <circle cx="150" cy="260" r="90" fill="#ffffff" fill-opacity="0.12" />
  
      <rect x="70" y="72" width="300" height="92" rx="24" fill="#ffffff" fill-opacity="0.34" />
      <text x="98" y="120" fill="#2f3a31" font-size="32" font-family="'PingFang SC','Microsoft YaHei',sans-serif" font-weight="600">林间约定</text>
      <text x="98" y="152" fill="#4e6152" font-size="18" font-family="'PingFang SC','Microsoft YaHei',sans-serif">婚礼 · 白绿系</text>
    
  <g filter="url(#shadow)">
    <path d="M250 780 L650 780 L730 1080 L170 1080 Z" fill="#ece2d6" fill-opacity="0.88" />
  </g>
  <g>
    
    <g transform="translate(674.55 501.17) rotate(-6.11)">
      <path d="M 0 0 C -8 101.94, 10 169.90, -6 249.18" stroke="#8da78b" stroke-width="13.59" fill="none" stroke-linecap="round" />
      <ellipse cx="-20" cy="124.59" rx="24.92" ry="47.57" fill="#8da78b" fill-opacity="0.75" transform="rotate(-24)" />
      <ellipse cx="28" cy="154.04" rx="22.65" ry="43.04" fill="#8da78b" fill-opacity="0.66" transform="rotate(20)" />
      <g transform="translate(0 0)">
        <ellipse cx="31.71" cy="0.00" rx="20.39" ry="31.71" fill="#f7f5ef" fill-opacity="0.95" /><ellipse cx="22.43" cy="22.43" rx="20.39" ry="31.71" fill="#f7f5ef" fill-opacity="0.95" /><ellipse cx="0.00" cy="31.71" rx="20.39" ry="31.71" fill="#f7f5ef" fill-opacity="0.95" /><ellipse cx="-22.43" cy="22.43" rx="20.39" ry="31.71" fill="#f7f5ef" fill-opacity="0.95" /><ellipse cx="-31.71" cy="0.00" rx="20.39" ry="31.71" fill="#f7f5ef" fill-opacity="0.95" /><ellipse cx="-22.43" cy="-22.43" rx="20.39" ry="31.71" fill="#f7f5ef" fill-opacity="0.95" /><ellipse cx="-0.00" cy="-31.71" rx="20.39" ry="31.71" fill="#f7f5ef" fill-opacity="0.95" /><ellipse cx="22.43" cy="-22.43" rx="20.39" ry="31.71" fill="#f7f5ef" fill-opacity="0.95" />
        <circle cx="0" cy="0" r="20.39" fill="#d5c0a8" />
        <circle cx="0" cy="0" r="10.19" fill="#fff7f0" fill-opacity="0.72" />
      </g>
    </g>
    
    <g transform="translate(320.32 311.25) rotate(7.53)">
      <path d="M 0 0 C -8 87.39, 10 145.65, -6 213.62" stroke="#6f8d6e" stroke-width="11.65" fill="none" stroke-linecap="round" />
      <ellipse cx="-20" cy="106.81" rx="21.36" ry="40.78" fill="#6f8d6e" fill-opacity="0.75" transform="rotate(-24)" />
      <ellipse cx="28" cy="132.05" rx="19.42" ry="36.90" fill="#6f8d6e" fill-opacity="0.66" transform="rotate(20)" />
      <g transform="translate(0 0)">
        <ellipse cx="27.19" cy="0.00" rx="17.48" ry="27.19" fill="#f1e3d4" fill-opacity="0.95" /><ellipse cx="19.22" cy="19.22" rx="17.48" ry="27.19" fill="#f1e3d4" fill-opacity="0.95" /><ellipse cx="0.00" cy="27.19" rx="17.48" ry="27.19" fill="#f1e3d4" fill-opacity="0.95" /><ellipse cx="-19.22" cy="19.22" rx="17.48" ry="27.19" fill="#f1e3d4" fill-opacity="0.95" /><ellipse cx="-27.19" cy="0.00" rx="17.48" ry="27.19" fill="#f1e3d4" fill-opacity="0.95" /><ellipse cx="-19.22" cy="-19.22" rx="17.48" ry="27.19" fill="#f1e3d4" fill-opacity="0.95" /><ellipse cx="-0.00" cy="-27.19" rx="17.48" ry="27.19" fill="#f1e3d4" fill-opacity="0.95" /><ellipse cx="19.22" cy="-19.22" rx="17.48" ry="27.19" fill="#f1e3d4" fill-opacity="0.95" />
        <circle cx="0" cy="0" r="17.48" fill="#d5c0a8" />
        <circle cx="0" cy="0" r="8.74" fill="#fff7f0" fill-opacity="0.72" />
      </g>
    </g>
    
    <g transform="translate(326.51 510.40) rotate(19.89)">
      <path d="M 0 0 C -8 86.27, 10 143.79, -6 210.89" stroke="#a7b99d" stroke-width="11.50" fill="none" stroke-linecap="round" />
      <ellipse cx="-20" cy="105.44" rx="21.09" ry="40.26" fill="#a7b99d" fill-opacity="0.75" transform="rotate(-24)" />
      <ellipse cx="28" cy="130.37" rx="19.17" ry="36.43" fill="#a7b99d" fill-opacity="0.66" transform="rotate(20)" />
      <g transform="translate(0 0)">
        <ellipse cx="26.84" cy="0.00" rx="17.25" ry="26.84" fill="#e7d8cf" fill-opacity="0.95" /><ellipse cx="18.98" cy="18.98" rx="17.25" ry="26.84" fill="#e7d8cf" fill-opacity="0.95" /><ellipse cx="0.00" cy="26.84" rx="17.25" ry="26.84" fill="#e7d8cf" fill-opacity="0.95" /><ellipse cx="-18.98" cy="18.98" rx="17.25" ry="26.84" fill="#e7d8cf" fill-opacity="0.95" /><ellipse cx="-26.84" cy="0.00" rx="17.25" ry="26.84" fill="#e7d8cf" fill-opacity="0.95" /><ellipse cx="-18.98" cy="-18.98" rx="17.25" ry="26.84" fill="#e7d8cf" fill-opacity="0.95" /><ellipse cx="-0.00" cy="-26.84" rx="17.25" ry="26.84" fill="#e7d8cf" fill-opacity="0.95" /><ellipse cx="18.98" cy="-18.98" rx="17.25" ry="26.84" fill="#e7d8cf" fill-opacity="0.95" />
        <circle cx="0" cy="0" r="17.25" fill="#d5c0a8" />
        <circle cx="0" cy="0" r="8.63" fill="#fff7f0" fill-opacity="0.72" />
      </g>
    </g>
    
    <g transform="translate(707.43 550.08) rotate(-2.89)">
      <path d="M 0 0 C -8 105.38, 10 175.63, -6 257.60" stroke="#8da78b" stroke-width="14.05" fill="none" stroke-linecap="round" />
      <ellipse cx="-20" cy="128.80" rx="25.76" ry="49.18" fill="#8da78b" fill-opacity="0.75" transform="rotate(-24)" />
      <ellipse cx="28" cy="159.24" rx="23.42" ry="44.49" fill="#8da78b" fill-opacity="0.66" transform="rotate(20)" />
      <g transform="translate(0 0)">
        <ellipse cx="32.79" cy="0.00" rx="21.08" ry="32.79" fill="#d7e5d5" fill-opacity="0.95" /><ellipse cx="23.18" cy="23.18" rx="21.08" ry="32.79" fill="#d7e5d5" fill-opacity="0.95" /><ellipse cx="0.00" cy="32.79" rx="21.08" ry="32.79" fill="#d7e5d5" fill-opacity="0.95" /><ellipse cx="-23.18" cy="23.18" rx="21.08" ry="32.79" fill="#d7e5d5" fill-opacity="0.95" /><ellipse cx="-32.79" cy="0.00" rx="21.08" ry="32.79" fill="#d7e5d5" fill-opacity="0.95" /><ellipse cx="-23.18" cy="-23.18" rx="21.08" ry="32.79" fill="#d7e5d5" fill-opacity="0.95" /><ellipse cx="-0.00" cy="-32.79" rx="21.08" ry="32.79" fill="#d7e5d5" fill-opacity="0.95" /><ellipse cx="23.18" cy="-23.18" rx="21.08" ry="32.79" fill="#d7e5d5" fill-opacity="0.95" />
        <circle cx="0" cy="0" r="21.08" fill="#d5c0a8" />
        <circle cx="0" cy="0" r="10.54" fill="#fff7f0" fill-opacity="0.72" />
      </g>
    </g>
    
    <g transform="translate(199.76 520.96) rotate(25.16)">
      <path d="M 0 0 C -8 74.75, 10 124.58, -6 182.72" stroke="#6f8d6e" stroke-width="9.97" fill="none" stroke-linecap="round" />
      <ellipse cx="-20" cy="91.36" rx="18.27" ry="34.88" fill="#6f8d6e" fill-opacity="0.75" transform="rotate(-24)" />
      <ellipse cx="28" cy="112.96" rx="16.61" ry="31.56" fill="#6f8d6e" fill-opacity="0.66" transform="rotate(20)" />
      <g transform="translate(0 0)">
        <ellipse cx="23.26" cy="0.00" rx="14.95" ry="23.26" fill="#f7f5ef" fill-opacity="0.95" /><ellipse cx="16.44" cy="16.44" rx="14.95" ry="23.26" fill="#f7f5ef" fill-opacity="0.95" /><ellipse cx="0.00" cy="23.26" rx="14.95" ry="23.26" fill="#f7f5ef" fill-opacity="0.95" /><ellipse cx="-16.44" cy="16.44" rx="14.95" ry="23.26" fill="#f7f5ef" fill-opacity="0.95" /><ellipse cx="-23.26" cy="0.00" rx="14.95" ry="23.26" fill="#f7f5ef" fill-opacity="0.95" /><ellipse cx="-16.44" cy="-16.44" rx="14.95" ry="23.26" fill="#f7f5ef" fill-opacity="0.95" /><ellipse cx="-0.00" cy="-23.26" rx="14.95" ry="23.26" fill="#f7f5ef" fill-opacity="0.95" /><ellipse cx="16.44" cy="-16.44" rx="14.95" ry="23.26" fill="#f7f5ef" fill-opacity="0.95" />
        <circle cx="0" cy="0" r="14.95" fill="#d5c0a8" />
        <circle cx="0" cy="0" r="7.48" fill="#fff7f0" fill-opacity="0.72" />
      </g>
    </g>
    
    <g transform="translate(249.73 306.01) rotate(-25.93)">
      <path d="M 0 0 C -8 96.28, 10 160.47, -6 235.35" stroke="#a7b99d" stroke-width="12.84" fill="none" stroke-linecap="round" />
      <ellipse cx="-20" cy="117.68" rx="23.54" ry="44.93" fill="#a7b99d" fill-opacity="0.75" transform="rotate(-24)" />
      <ellipse cx="28" cy="145.49" rx="21.40" ry="40.65" fill="#a7b99d" fill-opacity="0.66" transform="rotate(20)" />
      <g transform="translate(0 0)">
        <ellipse cx="29.95" cy="0.00" rx="19.26" ry="29.95" fill="#f1e3d4" fill-opacity="0.95" /><ellipse cx="21.18" cy="21.18" rx="19.26" ry="29.95" fill="#f1e3d4" fill-opacity="0.95" /><ellipse cx="0.00" cy="29.95" rx="19.26" ry="29.95" fill="#f1e3d4" fill-opacity="0.95" /><ellipse cx="-21.18" cy="21.18" rx="19.26" ry="29.95" fill="#f1e3d4" fill-opacity="0.95" /><ellipse cx="-29.95" cy="0.00" rx="19.26" ry="29.95" fill="#f1e3d4" fill-opacity="0.95" /><ellipse cx="-21.18" cy="-21.18" rx="19.26" ry="29.95" fill="#f1e3d4" fill-opacity="0.95" /><ellipse cx="-0.00" cy="-29.95" rx="19.26" ry="29.95" fill="#f1e3d4" fill-opacity="0.95" /><ellipse cx="21.18" cy="-21.18" rx="19.26" ry="29.95" fill="#f1e3d4" fill-opacity="0.95" />
        <circle cx="0" cy="0" r="19.26" fill="#d5c0a8" />
        <circle cx="0" cy="0" r="9.63" fill="#fff7f0" fill-opacity="0.72" />
      </g>
    </g>
    
    <g transform="translate(202.45 465.17) rotate(-1.83)">
      <path d="M 0 0 C -8 114.73, 10 191.22, -6 280.46" stroke="#8da78b" stroke-width="15.30" fill="none" stroke-linecap="round" />
      <ellipse cx="-20" cy="140.23" rx="28.05" ry="53.54" fill="#8da78b" fill-opacity="0.75" transform="rotate(-24)" />
      <ellipse cx="28" cy="173.38" rx="25.50" ry="48.44" fill="#8da78b" fill-opacity="0.66" transform="rotate(20)" />
      <g transform="translate(0 0)">
        <ellipse cx="35.70" cy="0.00" rx="22.95" ry="35.70" fill="#e7d8cf" fill-opacity="0.95" /><ellipse cx="25.24" cy="25.24" rx="22.95" ry="35.70" fill="#e7d8cf" fill-opacity="0.95" /><ellipse cx="0.00" cy="35.70" rx="22.95" ry="35.70" fill="#e7d8cf" fill-opacity="0.95" /><ellipse cx="-25.24" cy="25.24" rx="22.95" ry="35.70" fill="#e7d8cf" fill-opacity="0.95" /><ellipse cx="-35.70" cy="0.00" rx="22.95" ry="35.70" fill="#e7d8cf" fill-opacity="0.95" /><ellipse cx="-25.24" cy="-25.24" rx="22.95" ry="35.70" fill="#e7d8cf" fill-opacity="0.95" /><ellipse cx="-0.00" cy="-35.70" rx="22.95" ry="35.70" fill="#e7d8cf" fill-opacity="0.95" /><ellipse cx="25.24" cy="-25.24" rx="22.95" ry="35.70" fill="#e7d8cf" fill-opacity="0.95" />
        <circle cx="0" cy="0" r="22.95" fill="#d5c0a8" />
        <circle cx="0" cy="0" r="11.47" fill="#fff7f0" fill-opacity="0.72" />
      </g>
    </g>
    
  </g>
  <path d="M0 980 C220 920, 420 1030, 900 930 L900 1100 L0 1100 Z" fill="#ffffff" fill-opacity="0.22" />
</svg>
