<svg xmlns="http://www.w3.org/2000/svg" width="900" height="1100" viewBox="0 0 900 1100">
  <defs>
    <linearGradient id="bg" x1="0" y1="0" x2="0" y2="1">
      <stop offset="0%" stop-color="#f8f3ec" />
      <stop offset="100%" stop-color="#e8efe5" />
    </linearGradient>
    <filter id="shadow" x="-20%" y="-20%" width="140%" height="140%">
      <feDropShadow dx="0" dy="22" stdDeviation="24" flood-color="#6c5d4f" flood-opacity="0.12" />
    </filter>
  </defs>
  <rect width="100%" height="100%" fill="url(#bg)" />
  <circle cx="730" cy="180" r="140" fill="#ffffff" fill-opacity="0.18" />
  <circle cx="150" cy="260" r="90" fill="#ffffff" fill-opacity="0.12" />
  
      <rect x="70" y="72" width="300" height="92" rx="24" fill="#ffffff" fill-opacity="0.34" />
      <text x="98" y="120" fill="#2f3a31" font-size="32" font-family="'PingFang SC','Microsoft YaHei',sans-serif" font-weight="600">月白序曲</text>
      <text x="98" y="152" fill="#4e6152" font-size="18" font-family="'PingFang SC','Microsoft YaHei',sans-serif">婚礼 · 香槟色</text>
    
  <g filter="url(#shadow)">
    <path d="M250 780 L650 780 L730 1080 L170 1080 Z" fill="#ece2d6" fill-opacity="0.88" />
  </g>
  <g>
    
    <g transform="translate(629.29 440.90) rotate(4.52)">
      <path d="M 0 0 C -8 74.21, 10 123.68, -6 181.39" stroke="#8da78b" stroke-width="9.89" fill="none" stroke-linecap="round" />
      <ellipse cx="-20" cy="90.70" rx="18.14" ry="34.63" fill="#8da78b" fill-opacity="0.75" transform="rotate(-24)" />
      <ellipse cx="28" cy="112.13" rx="16.49" ry="31.33" fill="#8da78b" fill-opacity="0.66" transform="rotate(20)" />
      <g transform="translate(0 0)">
        <ellipse cx="23.09" cy="0.00" rx="14.84" ry="23.09" fill="#f7f5ef" fill-opacity="0.95" /><ellipse cx="16.32" cy="16.32" rx="14.84" ry="23.09" fill="#f7f5ef" fill-opacity="0.95" /><ellipse cx="0.00" cy="23.09" rx="14.84" ry="23.09" fill="#f7f5ef" fill-opacity="0.95" /><ellipse cx="-16.32" cy="16.32" rx="14.84" ry="23.09" fill="#f7f5ef" fill-opacity="0.95" /><ellipse cx="-23.09" cy="0.00" rx="14.84" ry="23.09" fill="#f7f5ef" fill-opacity="0.95" /><ellipse cx="-16.32" cy="-16.32" rx="14.84" ry="23.09" fill="#f7f5ef" fill-opacity="0.95" /><ellipse cx="-0.00" cy="-23.09" rx="14.84" ry="23.09" fill="#f7f5ef" fill-opacity="0.95" /><ellipse cx="16.32" cy="-16.32" rx="14.84" ry="23.09" fill="#f7f5ef" fill-opacity="0.95" />
        <circle cx="0" cy="0" r="14.84" fill="#d5c0a8" />
        <circle cx="0" cy="0" r="7.42" fill="#fff7f0" fill-opacity="0.72" />
      </g>
    </g>
    
    <g transform="translate(303.13 521.31) rotate(-17.29)">
      <path d="M 0 0 C -8 104.10, 10 173.50, -6 254.47" stroke="#6f8d6e" stroke-width="13.88" fill="none" stroke-linecap="round" />
      <ellipse cx="-20" cy="127.23" rx="25.45" ry="48.58" fill="#6f8d6e" fill-opacity="0.75" transform="rotate(-24)" />
      <ellipse cx="28" cy="157.31" rx="23.13" ry="43.95" fill="#6f8d6e" fill-opacity="0.66" transform="rotate(20)" />
      <g transform="translate(0 0)">
        <ellipse cx="32.39" cy="0.00" rx="20.82" ry="32.39" fill="#f1e3d4" fill-opacity="0.95" /><ellipse cx="22.90" cy="22.90" rx="20.82" ry="32.39" fill="#f1e3d4" fill-opacity="0.95" /><ellipse cx="0.00" cy="32.39" rx="20.82" ry="32.39" fill="#f1e3d4" fill-opacity="0.95" /><ellipse cx="-22.90" cy="22.90" rx="20.82" ry="32.39" fill="#f1e3d4" fill-opacity="0.95" /><ellipse cx="-32.39" cy="0.00" rx="20.82" ry="32.39" fill="#f1e3d4" fill-opacity="0.95" /><ellipse cx="-22.90" cy="-22.90" rx="20.82" ry="32.39" fill="#f1e3d4" fill-opacity="0.95" /><ellipse cx="-0.00" cy="-32.39" rx="20.82" ry="32.39" fill="#f1e3d4" fill-opacity="0.95" /><ellipse cx="22.90" cy="-22.90" rx="20.82" ry="32.39" fill="#f1e3d4" fill-opacity="0.95" />
        <circle cx="0" cy="0" r="20.82" fill="#d5c0a8" />
        <circle cx="0" cy="0" r="10.41" fill="#fff7f0" fill-opacity="0.72" />
      </g>
    </g>
    
    <g transform="translate(273.28 392.34) rotate(-14.87)">
      <path d="M 0 0 C -8 74.48, 10 124.13, -6 182.06" stroke="#a7b99d" stroke-width="9.93" fill="none" stroke-linecap="round" />
      <ellipse cx="-20" cy="91.03" rx="18.21" ry="34.76" fill="#a7b99d" fill-opacity="0.75" transform="rotate(-24)" />
      <ellipse cx="28" cy="112.55" rx="16.55" ry="31.45" fill="#a7b99d" fill-opacity="0.66" transform="rotate(20)" />
      <g transform="translate(0 0)">
        <ellipse cx="23.17" cy="0.00" rx="14.90" ry="23.17" fill="#e7d8cf" fill-opacity="0.95" /><ellipse cx="16.38" cy="16.38" rx="14.90" ry="23.17" fill="#e7d8cf" fill-opacity="0.95" /><ellipse cx="0.00" cy="23.17" rx="14.90" ry="23.17" fill="#e7d8cf" fill-opacity="0.95" /><ellipse cx="-16.38" cy="16.38" rx="14.90" ry="23.17" fill="#e7d8cf" fill-opacity="0.95" /><ellipse cx="-23.17" cy="0.00" rx="14.90" ry="23.17" fill="#e7d8cf" fill-opacity="0.95" /><ellipse cx="-16.38" cy="-16.38" rx="14.90" ry="23.17" fill="#e7d8cf" fill-opacity="0.95" /><ellipse cx="-0.00" cy="-23.17" rx="14.90" ry="23.17" fill="#e7d8cf" fill-opacity="0.95" /><ellipse cx="16.38" cy="-16.38" rx="14.90" ry="23.17" fill="#e7d8cf" fill-opacity="0.95" />
        <circle cx="0" cy="0" r="14.90" fill="#d5c0a8" />
        <circle cx="0" cy="0" r="7.45" fill="#fff7f0" fill-opacity="0.72" />
      </g>
    </g>
    
    <g transform="translate(448.17 456.34) rotate(18.91)">
      <path d="M 0 0 C -8 111.35, 10 185.58, -6 272.19" stroke="#8da78b" stroke-width="14.85" fill="none" stroke-linecap="round" />
      <ellipse cx="-20" cy="136.09" rx="27.22" ry="51.96" fill="#8da78b" fill-opacity="0.75" transform="rotate(-24)" />
      <ellipse cx="28" cy="168.26" rx="24.74" ry="47.01" fill="#8da78b" fill-opacity="0.66" transform="rotate(20)" />
      <g transform="translate(0 0)">
        <ellipse cx="34.64" cy="0.00" rx="22.27" ry="34.64" fill="#d7e5d5" fill-opacity="0.95" /><ellipse cx="24.50" cy="24.50" rx="22.27" ry="34.64" fill="#d7e5d5" fill-opacity="0.95" /><ellipse cx="0.00" cy="34.64" rx="22.27" ry="34.64" fill="#d7e5d5" fill-opacity="0.95" /><ellipse cx="-24.50" cy="24.50" rx="22.27" ry="34.64" fill="#d7e5d5" fill-opacity="0.95" /><ellipse cx="-34.64" cy="0.00" rx="22.27" ry="34.64" fill="#d7e5d5" fill-opacity="0.95" /><ellipse cx="-24.50" cy="-24.50" rx="22.27" ry="34.64" fill="#d7e5d5" fill-opacity="0.95" /><ellipse cx="-0.00" cy="-34.64" rx="22.27" ry="34.64" fill="#d7e5d5" fill-opacity="0.95" /><ellipse cx="24.50" cy="-24.50" rx="22.27" ry="34.64" fill="#d7e5d5" fill-opacity="0.95" />
        <circle cx="0" cy="0" r="22.27" fill="#d5c0a8" />
        <circle cx="0" cy="0" r="11.14" fill="#fff7f0" fill-opacity="0.72" />
      </g>
    </g>
    
    <g transform="translate(249.03 490.25) rotate(6.51)">
      <path d="M 0 0 C -8 77.40, 10 129.00, -6 189.21" stroke="#6f8d6e" stroke-width="10.32" fill="none" stroke-linecap="round" />
      <ellipse cx="-20" cy="94.60" rx="18.92" ry="36.12" fill="#6f8d6e" fill-opacity="0.75" transform="rotate(-24)" />
      <ellipse cx="28" cy="116.96" rx="17.20" ry="32.68" fill="#6f8d6e" fill-opacity="0.66" transform="rotate(20)" />
      <g transform="translate(0 0)">
        <ellipse cx="24.08" cy="0.00" rx="15.48" ry="24.08" fill="#f7f5ef" fill-opacity="0.95" /><ellipse cx="17.03" cy="17.03" rx="15.48" ry="24.08" fill="#f7f5ef" fill-opacity="0.95" /><ellipse cx="0.00" cy="24.08" rx="15.48" ry="24.08" fill="#f7f5ef" fill-opacity="0.95" /><ellipse cx="-17.03" cy="17.03" rx="15.48" ry="24.08" fill="#f7f5ef" fill-opacity="0.95" /><ellipse cx="-24.08" cy="0.00" rx="15.48" ry="24.08" fill="#f7f5ef" fill-opacity="0.95" /><ellipse cx="-17.03" cy="-17.03" rx="15.48" ry="24.08" fill="#f7f5ef" fill-opacity="0.95" /><ellipse cx="-0.00" cy="-24.08" rx="15.48" ry="24.08" fill="#f7f5ef" fill-opacity="0.95" /><ellipse cx="17.03" cy="-17.03" rx="15.48" ry="24.08" fill="#f7f5ef" fill-opacity="0.95" />
        <circle cx="0" cy="0" r="15.48" fill="#d5c0a8" />
        <circle cx="0" cy="0" r="7.74" fill="#fff7f0" fill-opacity="0.72" />
      </g>
    </g>
    
    <g transform="translate(477.40 469.52) rotate(-0.79)">
      <path d="M 0 0 C -8 110.23, 10 183.71, -6 269.44" stroke="#a7b99d" stroke-width="14.70" fill="none" stroke-linecap="round" />
      <ellipse cx="-20" cy="134.72" rx="26.94" ry="51.44" fill="#a7b99d" fill-opacity="0.75" transform="rotate(-24)" />
      <ellipse cx="28" cy="166.56" rx="24.49" ry="46.54" fill="#a7b99d" fill-opacity="0.66" transform="rotate(20)" />
      <g transform="translate(0 0)">
        <ellipse cx="34.29" cy="0.00" rx="22.05" ry="34.29" fill="#f1e3d4" fill-opacity="0.95" /><ellipse cx="24.25" cy="24.25" rx="22.05" ry="34.29" fill="#f1e3d4" fill-opacity="0.95" /><ellipse cx="0.00" cy="34.29" rx="22.05" ry="34.29" fill="#f1e3d4" fill-opacity="0.95" /><ellipse cx="-24.25" cy="24.25" rx="22.05" ry="34.29" fill="#f1e3d4" fill-opacity="0.95" /><ellipse cx="-34.29" cy="0.00" rx="22.05" ry="34.29" fill="#f1e3d4" fill-opacity="0.95" /><ellipse cx="-24.25" cy="-24.25" rx="22.05" ry="34.29" fill="#f1e3d4" fill-opacity="0.95" /><ellipse cx="-0.00" cy="-34.29" rx="22.05" ry="34.29" fill="#f1e3d4" fill-opacity="0.95" /><ellipse cx="24.25" cy="-24.25" rx="22.05" ry="34.29" fill="#f1e3d4" fill-opacity="0.95" />
        <circle cx="0" cy="0" r="22.05" fill="#d5c0a8" />
        <circle cx="0" cy="0" r="11.02" fill="#fff7f0" fill-opacity="0.72" />
      </g>
    </g>
    
    <g transform="translate(482.68 326.32) rotate(-10.63)">
      <path d="M 0 0 C -8 92.93, 10 154.88, -6 227.16" stroke="#8da78b" stroke-width="12.39" fill="none" stroke-linecap="round" />
      <ellipse cx="-20" cy="113.58" rx="22.72" ry="43.37" fill="#8da78b" fill-opacity="0.75" transform="rotate(-24)" />
      <ellipse cx="28" cy="140.43" rx="20.65" ry="39.24" fill="#8da78b" fill-opacity="0.66" transform="rotate(20)" />
      <g transform="translate(0 0)">
        <ellipse cx="28.91" cy="0.00" rx="18.59" ry="28.91" fill="#e7d8cf" fill-opacity="0.95" /><ellipse cx="20.44" cy="20.44" rx="18.59" ry="28.91" fill="#e7d8cf" fill-opacity="0.95" /><ellipse cx="0.00" cy="28.91" rx="18.59" ry="28.91" fill="#e7d8cf" fill-opacity="0.95" /><ellipse cx="-20.44" cy="20.44" rx="18.59" ry="28.91" fill="#e7d8cf" fill-opacity="0.95" /><ellipse cx="-28.91" cy="0.00" rx="18.59" ry="28.91" fill="#e7d8cf" fill-opacity="0.95" /><ellipse cx="-20.44" cy="-20.44" rx="18.59" ry="28.91" fill="#e7d8cf" fill-opacity="0.95" /><ellipse cx="-0.00" cy="-28.91" rx="18.59" ry="28.91" fill="#e7d8cf" fill-opacity="0.95" /><ellipse cx="20.44" cy="-20.44" rx="18.59" ry="28.91" fill="#e7d8cf" fill-opacity="0.95" />
        <circle cx="0" cy="0" r="18.59" fill="#d5c0a8" />
        <circle cx="0" cy="0" r="9.29" fill="#fff7f0" fill-opacity="0.72" />
      </g>
    </g>
    
  </g>
  <path d="M0 980 C220 920, 420 1030, 900 930 L900 1100 L0 1100 Z" fill="#ffffff" fill-opacity="0.22" />
</svg>
