<svg xmlns="http://www.w3.org/2000/svg" width="900" height="1100" viewBox="0 0 900 1100">
  <defs>
    <linearGradient id="bg" x1="0" y1="0" x2="0" y2="1">
      <stop offset="0%" stop-color="#f8f3ec" />
      <stop offset="100%" stop-color="#e8efe5" />
    </linearGradient>
    <filter id="shadow" x="-20%" y="-20%" width="140%" height="140%">
      <feDropShadow dx="0" dy="22" stdDeviation="24" flood-color="#6c5d4f" flood-opacity="0.12" />
    </filter>
  </defs>
  <rect width="100%" height="100%" fill="url(#bg)" />
  <circle cx="730" cy="180" r="140" fill="#ffffff" fill-opacity="0.18" />
  <circle cx="150" cy="260" r="90" fill="#ffffff" fill-opacity="0.12" />
  
      <rect x="70" y="72" width="300" height="92" rx="24" fill="#ffffff" fill-opacity="0.34" />
      <text x="98" y="120" fill="#2f3a31" font-size="32" font-family="'PingFang SC','Microsoft YaHei',sans-serif" font-weight="600">林间约定</text>
      <text x="98" y="152" fill="#4e6152" font-size="18" font-family="'PingFang SC','Microsoft YaHei',sans-serif">婚礼 · 白绿系</text>
    
  <g filter="url(#shadow)">
    <path d="M250 780 L650 780 L730 1080 L170 1080 Z" fill="#ece2d6" fill-opacity="0.88" />
  </g>
  <g>
    
    <g transform="translate(559.57 345.39) rotate(-19.94)">
      <path d="M 0 0 C -8 106.05, 10 176.74, -6 259.23" stroke="#8da78b" stroke-width="14.14" fill="none" stroke-linecap="round" />
      <ellipse cx="-20" cy="129.61" rx="25.92" ry="49.49" fill="#8da78b" fill-opacity="0.75" transform="rotate(-24)" />
      <ellipse cx="28" cy="160.25" rx="23.57" ry="44.78" fill="#8da78b" fill-opacity="0.66" transform="rotate(20)" />
      <g transform="translate(0 0)">
        <ellipse cx="32.99" cy="0.00" rx="21.21" ry="32.99" fill="#f7f5ef" fill-opacity="0.95" /><ellipse cx="23.33" cy="23.33" rx="21.21" ry="32.99" fill="#f7f5ef" fill-opacity="0.95" /><ellipse cx="0.00" cy="32.99" rx="21.21" ry="32.99" fill="#f7f5ef" fill-opacity="0.95" /><ellipse cx="-23.33" cy="23.33" rx="21.21" ry="32.99" fill="#f7f5ef" fill-opacity="0.95" /><ellipse cx="-32.99" cy="0.00" rx="21.21" ry="32.99" fill="#f7f5ef" fill-opacity="0.95" /><ellipse cx="-23.33" cy="-23.33" rx="21.21" ry="32.99" fill="#f7f5ef" fill-opacity="0.95" /><ellipse cx="-0.00" cy="-32.99" rx="21.21" ry="32.99" fill="#f7f5ef" fill-opacity="0.95" /><ellipse cx="23.33" cy="-23.33" rx="21.21" ry="32.99" fill="#f7f5ef" fill-opacity="0.95" />
        <circle cx="0" cy="0" r="21.21" fill="#d5c0a8" />
        <circle cx="0" cy="0" r="10.60" fill="#fff7f0" fill-opacity="0.72" />
      </g>
    </g>
    
    <g transform="translate(679.09 470.26) rotate(-7.63)">
      <path d="M 0 0 C -8 93.92, 10 156.53, -6 229.58" stroke="#6f8d6e" stroke-width="12.52" fill="none" stroke-linecap="round" />
      <ellipse cx="-20" cy="114.79" rx="22.96" ry="43.83" fill="#6f8d6e" fill-opacity="0.75" transform="rotate(-24)" />
      <ellipse cx="28" cy="141.92" rx="20.87" ry="39.65" fill="#6f8d6e" fill-opacity="0.66" transform="rotate(20)" />
      <g transform="translate(0 0)">
        <ellipse cx="29.22" cy="0.00" rx="18.78" ry="29.22" fill="#f1e3d4" fill-opacity="0.95" /><ellipse cx="20.66" cy="20.66" rx="18.78" ry="29.22" fill="#f1e3d4" fill-opacity="0.95" /><ellipse cx="0.00" cy="29.22" rx="18.78" ry="29.22" fill="#f1e3d4" fill-opacity="0.95" /><ellipse cx="-20.66" cy="20.66" rx="18.78" ry="29.22" fill="#f1e3d4" fill-opacity="0.95" /><ellipse cx="-29.22" cy="0.00" rx="18.78" ry="29.22" fill="#f1e3d4" fill-opacity="0.95" /><ellipse cx="-20.66" cy="-20.66" rx="18.78" ry="29.22" fill="#f1e3d4" fill-opacity="0.95" /><ellipse cx="-0.00" cy="-29.22" rx="18.78" ry="29.22" fill="#f1e3d4" fill-opacity="0.95" /><ellipse cx="20.66" cy="-20.66" rx="18.78" ry="29.22" fill="#f1e3d4" fill-opacity="0.95" />
        <circle cx="0" cy="0" r="18.78" fill="#d5c0a8" />
        <circle cx="0" cy="0" r="9.39" fill="#fff7f0" fill-opacity="0.72" />
      </g>
    </g>
    
    <g transform="translate(237.21 335.06) rotate(14.17)">
      <path d="M 0 0 C -8 94.05, 10 156.74, -6 229.89" stroke="#a7b99d" stroke-width="12.54" fill="none" stroke-linecap="round" />
      <ellipse cx="-20" cy="114.95" rx="22.99" ry="43.89" fill="#a7b99d" fill-opacity="0.75" transform="rotate(-24)" />
      <ellipse cx="28" cy="142.12" rx="20.90" ry="39.71" fill="#a7b99d" fill-opacity="0.66" transform="rotate(20)" />
      <g transform="translate(0 0)">
        <ellipse cx="29.26" cy="0.00" rx="18.81" ry="29.26" fill="#e7d8cf" fill-opacity="0.95" /><ellipse cx="20.69" cy="20.69" rx="18.81" ry="29.26" fill="#e7d8cf" fill-opacity="0.95" /><ellipse cx="0.00" cy="29.26" rx="18.81" ry="29.26" fill="#e7d8cf" fill-opacity="0.95" /><ellipse cx="-20.69" cy="20.69" rx="18.81" ry="29.26" fill="#e7d8cf" fill-opacity="0.95" /><ellipse cx="-29.26" cy="0.00" rx="18.81" ry="29.26" fill="#e7d8cf" fill-opacity="0.95" /><ellipse cx="-20.69" cy="-20.69" rx="18.81" ry="29.26" fill="#e7d8cf" fill-opacity="0.95" /><ellipse cx="-0.00" cy="-29.26" rx="18.81" ry="29.26" fill="#e7d8cf" fill-opacity="0.95" /><ellipse cx="20.69" cy="-20.69" rx="18.81" ry="29.26" fill="#e7d8cf" fill-opacity="0.95" />
        <circle cx="0" cy="0" r="18.81" fill="#d5c0a8" />
        <circle cx="0" cy="0" r="9.40" fill="#fff7f0" fill-opacity="0.72" />
      </g>
    </g>
    
    <g transform="translate(370.01 424.29) rotate(4.30)">
      <path d="M 0 0 C -8 103.19, 10 171.99, -6 252.25" stroke="#8da78b" stroke-width="13.76" fill="none" stroke-linecap="round" />
      <ellipse cx="-20" cy="126.13" rx="25.23" ry="48.16" fill="#8da78b" fill-opacity="0.75" transform="rotate(-24)" />
      <ellipse cx="28" cy="155.94" rx="22.93" ry="43.57" fill="#8da78b" fill-opacity="0.66" transform="rotate(20)" />
      <g transform="translate(0 0)">
        <ellipse cx="32.10" cy="0.00" rx="20.64" ry="32.10" fill="#d7e5d5" fill-opacity="0.95" /><ellipse cx="22.70" cy="22.70" rx="20.64" ry="32.10" fill="#d7e5d5" fill-opacity="0.95" /><ellipse cx="0.00" cy="32.10" rx="20.64" ry="32.10" fill="#d7e5d5" fill-opacity="0.95" /><ellipse cx="-22.70" cy="22.70" rx="20.64" ry="32.10" fill="#d7e5d5" fill-opacity="0.95" /><ellipse cx="-32.10" cy="0.00" rx="20.64" ry="32.10" fill="#d7e5d5" fill-opacity="0.95" /><ellipse cx="-22.70" cy="-22.70" rx="20.64" ry="32.10" fill="#d7e5d5" fill-opacity="0.95" /><ellipse cx="-0.00" cy="-32.10" rx="20.64" ry="32.10" fill="#d7e5d5" fill-opacity="0.95" /><ellipse cx="22.70" cy="-22.70" rx="20.64" ry="32.10" fill="#d7e5d5" fill-opacity="0.95" />
        <circle cx="0" cy="0" r="20.64" fill="#d5c0a8" />
        <circle cx="0" cy="0" r="10.32" fill="#fff7f0" fill-opacity="0.72" />
      </g>
    </g>
    
    <g transform="translate(355.39 333.53) rotate(-7.89)">
      <path d="M 0 0 C -8 96.98, 10 161.64, -6 237.07" stroke="#6f8d6e" stroke-width="12.93" fill="none" stroke-linecap="round" />
      <ellipse cx="-20" cy="118.53" rx="23.71" ry="45.26" fill="#6f8d6e" fill-opacity="0.75" transform="rotate(-24)" />
      <ellipse cx="28" cy="146.55" rx="21.55" ry="40.95" fill="#6f8d6e" fill-opacity="0.66" transform="rotate(20)" />
      <g transform="translate(0 0)">
        <ellipse cx="30.17" cy="0.00" rx="19.40" ry="30.17" fill="#f7f5ef" fill-opacity="0.95" /><ellipse cx="21.34" cy="21.34" rx="19.40" ry="30.17" fill="#f7f5ef" fill-opacity="0.95" /><ellipse cx="0.00" cy="30.17" rx="19.40" ry="30.17" fill="#f7f5ef" fill-opacity="0.95" /><ellipse cx="-21.34" cy="21.34" rx="19.40" ry="30.17" fill="#f7f5ef" fill-opacity="0.95" /><ellipse cx="-30.17" cy="0.00" rx="19.40" ry="30.17" fill="#f7f5ef" fill-opacity="0.95" /><ellipse cx="-21.34" cy="-21.34" rx="19.40" ry="30.17" fill="#f7f5ef" fill-opacity="0.95" /><ellipse cx="-0.00" cy="-30.17" rx="19.40" ry="30.17" fill="#f7f5ef" fill-opacity="0.95" /><ellipse cx="21.34" cy="-21.34" rx="19.40" ry="30.17" fill="#f7f5ef" fill-opacity="0.95" />
        <circle cx="0" cy="0" r="19.40" fill="#d5c0a8" />
        <circle cx="0" cy="0" r="9.70" fill="#fff7f0" fill-opacity="0.72" />
      </g>
    </g>
    
    <g transform="translate(198.87 387.03) rotate(-6.36)">
      <path d="M 0 0 C -8 78.76, 10 131.27, -6 192.53" stroke="#a7b99d" stroke-width="10.50" fill="none" stroke-linecap="round" />
      <ellipse cx="-20" cy="96.26" rx="19.25" ry="36.76" fill="#a7b99d" fill-opacity="0.75" transform="rotate(-24)" />
      <ellipse cx="28" cy="119.02" rx="17.50" ry="33.25" fill="#a7b99d" fill-opacity="0.66" transform="rotate(20)" />
      <g transform="translate(0 0)">
        <ellipse cx="24.50" cy="0.00" rx="15.75" ry="24.50" fill="#f1e3d4" fill-opacity="0.95" /><ellipse cx="17.33" cy="17.33" rx="15.75" ry="24.50" fill="#f1e3d4" fill-opacity="0.95" /><ellipse cx="0.00" cy="24.50" rx="15.75" ry="24.50" fill="#f1e3d4" fill-opacity="0.95" /><ellipse cx="-17.33" cy="17.33" rx="15.75" ry="24.50" fill="#f1e3d4" fill-opacity="0.95" /><ellipse cx="-24.50" cy="0.00" rx="15.75" ry="24.50" fill="#f1e3d4" fill-opacity="0.95" /><ellipse cx="-17.33" cy="-17.33" rx="15.75" ry="24.50" fill="#f1e3d4" fill-opacity="0.95" /><ellipse cx="-0.00" cy="-24.50" rx="15.75" ry="24.50" fill="#f1e3d4" fill-opacity="0.95" /><ellipse cx="17.33" cy="-17.33" rx="15.75" ry="24.50" fill="#f1e3d4" fill-opacity="0.95" />
        <circle cx="0" cy="0" r="15.75" fill="#d5c0a8" />
        <circle cx="0" cy="0" r="7.88" fill="#fff7f0" fill-opacity="0.72" />
      </g>
    </g>
    
    <g transform="translate(559.28 544.79) rotate(-16.32)">
      <path d="M 0 0 C -8 100.63, 10 167.71, -6 245.98" stroke="#8da78b" stroke-width="13.42" fill="none" stroke-linecap="round" />
      <ellipse cx="-20" cy="122.99" rx="24.60" ry="46.96" fill="#8da78b" fill-opacity="0.75" transform="rotate(-24)" />
      <ellipse cx="28" cy="152.06" rx="22.36" ry="42.49" fill="#8da78b" fill-opacity="0.66" transform="rotate(20)" />
      <g transform="translate(0 0)">
        <ellipse cx="31.31" cy="0.00" rx="20.13" ry="31.31" fill="#e7d8cf" fill-opacity="0.95" /><ellipse cx="22.14" cy="22.14" rx="20.13" ry="31.31" fill="#e7d8cf" fill-opacity="0.95" /><ellipse cx="0.00" cy="31.31" rx="20.13" ry="31.31" fill="#e7d8cf" fill-opacity="0.95" /><ellipse cx="-22.14" cy="22.14" rx="20.13" ry="31.31" fill="#e7d8cf" fill-opacity="0.95" /><ellipse cx="-31.31" cy="0.00" rx="20.13" ry="31.31" fill="#e7d8cf" fill-opacity="0.95" /><ellipse cx="-22.14" cy="-22.14" rx="20.13" ry="31.31" fill="#e7d8cf" fill-opacity="0.95" /><ellipse cx="-0.00" cy="-31.31" rx="20.13" ry="31.31" fill="#e7d8cf" fill-opacity="0.95" /><ellipse cx="22.14" cy="-22.14" rx="20.13" ry="31.31" fill="#e7d8cf" fill-opacity="0.95" />
        <circle cx="0" cy="0" r="20.13" fill="#d5c0a8" />
        <circle cx="0" cy="0" r="10.06" fill="#fff7f0" fill-opacity="0.72" />
      </g>
    </g>
    
    <g transform="translate(295.74 518.91) rotate(21.79)">
      <path d="M 0 0 C -8 84.25, 10 140.41, -6 205.94" stroke="#6f8d6e" stroke-width="11.23" fill="none" stroke-linecap="round" />
      <ellipse cx="-20" cy="102.97" rx="20.59" ry="39.32" fill="#6f8d6e" fill-opacity="0.75" transform="rotate(-24)" />
      <ellipse cx="28" cy="127.31" rx="18.72" ry="35.57" fill="#6f8d6e" fill-opacity="0.66" transform="rotate(20)" />
      <g transform="translate(0 0)">
        <ellipse cx="26.21" cy="0.00" rx="16.85" ry="26.21" fill="#d7e5d5" fill-opacity="0.95" /><ellipse cx="18.53" cy="18.53" rx="16.85" ry="26.21" fill="#d7e5d5" fill-opacity="0.95" /><ellipse cx="0.00" cy="26.21" rx="16.85" ry="26.21" fill="#d7e5d5" fill-opacity="0.95" /><ellipse cx="-18.53" cy="18.53" rx="16.85" ry="26.21" fill="#d7e5d5" fill-opacity="0.95" /><ellipse cx="-26.21" cy="0.00" rx="16.85" ry="26.21" fill="#d7e5d5" fill-opacity="0.95" /><ellipse cx="-18.53" cy="-18.53" rx="16.85" ry="26.21" fill="#d7e5d5" fill-opacity="0.95" /><ellipse cx="-0.00" cy="-26.21" rx="16.85" ry="26.21" fill="#d7e5d5" fill-opacity="0.95" /><ellipse cx="18.53" cy="-18.53" rx="16.85" ry="26.21" fill="#d7e5d5" fill-opacity="0.95" />
        <circle cx="0" cy="0" r="16.85" fill="#d5c0a8" />
        <circle cx="0" cy="0" r="8.42" fill="#fff7f0" fill-opacity="0.72" />
      </g>
    </g>
    
  </g>
  <path d="M0 980 C220 920, 420 1030, 900 930 L900 1100 L0 1100 Z" fill="#ffffff" fill-opacity="0.22" />
</svg>
