<svg xmlns="http://www.w3.org/2000/svg" width="900" height="1100" viewBox="0 0 900 1100">
  <defs>
    <linearGradient id="bg" x1="0" y1="0" x2="0" y2="1">
      <stop offset="0%" stop-color="#f8f3ec" />
      <stop offset="100%" stop-color="#e8efe5" />
    </linearGradient>
    <filter id="shadow" x="-20%" y="-20%" width="140%" height="140%">
      <feDropShadow dx="0" dy="22" stdDeviation="24" flood-color="#6c5d4f" flood-opacity="0.12" />
    </filter>
  </defs>
  <rect width="100%" height="100%" fill="url(#bg)" />
  <circle cx="730" cy="180" r="140" fill="#ffffff" fill-opacity="0.18" />
  <circle cx="150" cy="260" r="90" fill="#ffffff" fill-opacity="0.12" />
  
      <rect x="70" y="72" width="300" height="92" rx="24" fill="#ffffff" fill-opacity="0.34" />
      <text x="98" y="120" fill="#2f3a31" font-size="32" font-family="'PingFang SC','Microsoft YaHei',sans-serif" font-weight="600">诗意迎宾</text>
      <text x="98" y="152" fill="#4e6152" font-size="18" font-family="'PingFang SC','Microsoft YaHei',sans-serif">婚礼 · 香槟色</text>
    
  <g filter="url(#shadow)">
    <path d="M250 780 L650 780 L730 1080 L170 1080 Z" fill="#ece2d6" fill-opacity="0.88" />
  </g>
  <g>
    
    <g transform="translate(522.67 514.59) rotate(-14.11)">
      <path d="M 0 0 C -8 110.86, 10 184.77, -6 270.99" stroke="#8da78b" stroke-width="14.78" fill="none" stroke-linecap="round" />
      <ellipse cx="-20" cy="135.50" rx="27.10" ry="51.73" fill="#8da78b" fill-opacity="0.75" transform="rotate(-24)" />
      <ellipse cx="28" cy="167.52" rx="24.64" ry="46.81" fill="#8da78b" fill-opacity="0.66" transform="rotate(20)" />
      <g transform="translate(0 0)">
        <ellipse cx="34.49" cy="0.00" rx="22.17" ry="34.49" fill="#f7f5ef" fill-opacity="0.95" /><ellipse cx="24.39" cy="24.39" rx="22.17" ry="34.49" fill="#f7f5ef" fill-opacity="0.95" /><ellipse cx="0.00" cy="34.49" rx="22.17" ry="34.49" fill="#f7f5ef" fill-opacity="0.95" /><ellipse cx="-24.39" cy="24.39" rx="22.17" ry="34.49" fill="#f7f5ef" fill-opacity="0.95" /><ellipse cx="-34.49" cy="0.00" rx="22.17" ry="34.49" fill="#f7f5ef" fill-opacity="0.95" /><ellipse cx="-24.39" cy="-24.39" rx="22.17" ry="34.49" fill="#f7f5ef" fill-opacity="0.95" /><ellipse cx="-0.00" cy="-34.49" rx="22.17" ry="34.49" fill="#f7f5ef" fill-opacity="0.95" /><ellipse cx="24.39" cy="-24.39" rx="22.17" ry="34.49" fill="#f7f5ef" fill-opacity="0.95" />
        <circle cx="0" cy="0" r="22.17" fill="#d5c0a8" />
        <circle cx="0" cy="0" r="11.09" fill="#fff7f0" fill-opacity="0.72" />
      </g>
    </g>
    
    <g transform="translate(456.77 510.27) rotate(-20.73)">
      <path d="M 0 0 C -8 97.77, 10 162.95, -6 239.00" stroke="#6f8d6e" stroke-width="13.04" fill="none" stroke-linecap="round" />
      <ellipse cx="-20" cy="119.50" rx="23.90" ry="45.63" fill="#6f8d6e" fill-opacity="0.75" transform="rotate(-24)" />
      <ellipse cx="28" cy="147.74" rx="21.73" ry="41.28" fill="#6f8d6e" fill-opacity="0.66" transform="rotate(20)" />
      <g transform="translate(0 0)">
        <ellipse cx="30.42" cy="0.00" rx="19.55" ry="30.42" fill="#f1e3d4" fill-opacity="0.95" /><ellipse cx="21.51" cy="21.51" rx="19.55" ry="30.42" fill="#f1e3d4" fill-opacity="0.95" /><ellipse cx="0.00" cy="30.42" rx="19.55" ry="30.42" fill="#f1e3d4" fill-opacity="0.95" /><ellipse cx="-21.51" cy="21.51" rx="19.55" ry="30.42" fill="#f1e3d4" fill-opacity="0.95" /><ellipse cx="-30.42" cy="0.00" rx="19.55" ry="30.42" fill="#f1e3d4" fill-opacity="0.95" /><ellipse cx="-21.51" cy="-21.51" rx="19.55" ry="30.42" fill="#f1e3d4" fill-opacity="0.95" /><ellipse cx="-0.00" cy="-30.42" rx="19.55" ry="30.42" fill="#f1e3d4" fill-opacity="0.95" /><ellipse cx="21.51" cy="-21.51" rx="19.55" ry="30.42" fill="#f1e3d4" fill-opacity="0.95" />
        <circle cx="0" cy="0" r="19.55" fill="#d5c0a8" />
        <circle cx="0" cy="0" r="9.78" fill="#fff7f0" fill-opacity="0.72" />
      </g>
    </g>
    
    <g transform="translate(695.09 480.30) rotate(16.63)">
      <path d="M 0 0 C -8 89.33, 10 148.89, -6 218.37" stroke="#a7b99d" stroke-width="11.91" fill="none" stroke-linecap="round" />
      <ellipse cx="-20" cy="109.19" rx="21.84" ry="41.69" fill="#a7b99d" fill-opacity="0.75" transform="rotate(-24)" />
      <ellipse cx="28" cy="134.99" rx="19.85" ry="37.72" fill="#a7b99d" fill-opacity="0.66" transform="rotate(20)" />
      <g transform="translate(0 0)">
        <ellipse cx="27.79" cy="0.00" rx="17.87" ry="27.79" fill="#e7d8cf" fill-opacity="0.95" /><ellipse cx="19.65" cy="19.65" rx="17.87" ry="27.79" fill="#e7d8cf" fill-opacity="0.95" /><ellipse cx="0.00" cy="27.79" rx="17.87" ry="27.79" fill="#e7d8cf" fill-opacity="0.95" /><ellipse cx="-19.65" cy="19.65" rx="17.87" ry="27.79" fill="#e7d8cf" fill-opacity="0.95" /><ellipse cx="-27.79" cy="0.00" rx="17.87" ry="27.79" fill="#e7d8cf" fill-opacity="0.95" /><ellipse cx="-19.65" cy="-19.65" rx="17.87" ry="27.79" fill="#e7d8cf" fill-opacity="0.95" /><ellipse cx="-0.00" cy="-27.79" rx="17.87" ry="27.79" fill="#e7d8cf" fill-opacity="0.95" /><ellipse cx="19.65" cy="-19.65" rx="17.87" ry="27.79" fill="#e7d8cf" fill-opacity="0.95" />
        <circle cx="0" cy="0" r="17.87" fill="#d5c0a8" />
        <circle cx="0" cy="0" r="8.93" fill="#fff7f0" fill-opacity="0.72" />
      </g>
    </g>
    
    <g transform="translate(588.68 364.08) rotate(-13.60)">
      <path d="M 0 0 C -8 108.65, 10 181.08, -6 265.58" stroke="#8da78b" stroke-width="14.49" fill="none" stroke-linecap="round" />
      <ellipse cx="-20" cy="132.79" rx="26.56" ry="50.70" fill="#8da78b" fill-opacity="0.75" transform="rotate(-24)" />
      <ellipse cx="28" cy="164.18" rx="24.14" ry="45.87" fill="#8da78b" fill-opacity="0.66" transform="rotate(20)" />
      <g transform="translate(0 0)">
        <ellipse cx="33.80" cy="0.00" rx="21.73" ry="33.80" fill="#d7e5d5" fill-opacity="0.95" /><ellipse cx="23.90" cy="23.90" rx="21.73" ry="33.80" fill="#d7e5d5" fill-opacity="0.95" /><ellipse cx="0.00" cy="33.80" rx="21.73" ry="33.80" fill="#d7e5d5" fill-opacity="0.95" /><ellipse cx="-23.90" cy="23.90" rx="21.73" ry="33.80" fill="#d7e5d5" fill-opacity="0.95" /><ellipse cx="-33.80" cy="0.00" rx="21.73" ry="33.80" fill="#d7e5d5" fill-opacity="0.95" /><ellipse cx="-23.90" cy="-23.90" rx="21.73" ry="33.80" fill="#d7e5d5" fill-opacity="0.95" /><ellipse cx="-0.00" cy="-33.80" rx="21.73" ry="33.80" fill="#d7e5d5" fill-opacity="0.95" /><ellipse cx="23.90" cy="-23.90" rx="21.73" ry="33.80" fill="#d7e5d5" fill-opacity="0.95" />
        <circle cx="0" cy="0" r="21.73" fill="#d5c0a8" />
        <circle cx="0" cy="0" r="10.86" fill="#fff7f0" fill-opacity="0.72" />
      </g>
    </g>
    
    <g transform="translate(410.72 304.10) rotate(-23.70)">
      <path d="M 0 0 C -8 84.26, 10 140.44, -6 205.97" stroke="#6f8d6e" stroke-width="11.23" fill="none" stroke-linecap="round" />
      <ellipse cx="-20" cy="102.99" rx="20.60" ry="39.32" fill="#6f8d6e" fill-opacity="0.75" transform="rotate(-24)" />
      <ellipse cx="28" cy="127.33" rx="18.72" ry="35.58" fill="#6f8d6e" fill-opacity="0.66" transform="rotate(20)" />
      <g transform="translate(0 0)">
        <ellipse cx="26.21" cy="0.00" rx="16.85" ry="26.21" fill="#f7f5ef" fill-opacity="0.95" /><ellipse cx="18.54" cy="18.54" rx="16.85" ry="26.21" fill="#f7f5ef" fill-opacity="0.95" /><ellipse cx="0.00" cy="26.21" rx="16.85" ry="26.21" fill="#f7f5ef" fill-opacity="0.95" /><ellipse cx="-18.54" cy="18.54" rx="16.85" ry="26.21" fill="#f7f5ef" fill-opacity="0.95" /><ellipse cx="-26.21" cy="0.00" rx="16.85" ry="26.21" fill="#f7f5ef" fill-opacity="0.95" /><ellipse cx="-18.54" cy="-18.54" rx="16.85" ry="26.21" fill="#f7f5ef" fill-opacity="0.95" /><ellipse cx="-0.00" cy="-26.21" rx="16.85" ry="26.21" fill="#f7f5ef" fill-opacity="0.95" /><ellipse cx="18.54" cy="-18.54" rx="16.85" ry="26.21" fill="#f7f5ef" fill-opacity="0.95" />
        <circle cx="0" cy="0" r="16.85" fill="#d5c0a8" />
        <circle cx="0" cy="0" r="8.43" fill="#fff7f0" fill-opacity="0.72" />
      </g>
    </g>
    
    <g transform="translate(584.99 491.27) rotate(-22.26)">
      <path d="M 0 0 C -8 87.81, 10 146.35, -6 214.64" stroke="#a7b99d" stroke-width="11.71" fill="none" stroke-linecap="round" />
      <ellipse cx="-20" cy="107.32" rx="21.46" ry="40.98" fill="#a7b99d" fill-opacity="0.75" transform="rotate(-24)" />
      <ellipse cx="28" cy="132.69" rx="19.51" ry="37.07" fill="#a7b99d" fill-opacity="0.66" transform="rotate(20)" />
      <g transform="translate(0 0)">
        <ellipse cx="27.32" cy="0.00" rx="17.56" ry="27.32" fill="#f1e3d4" fill-opacity="0.95" /><ellipse cx="19.32" cy="19.32" rx="17.56" ry="27.32" fill="#f1e3d4" fill-opacity="0.95" /><ellipse cx="0.00" cy="27.32" rx="17.56" ry="27.32" fill="#f1e3d4" fill-opacity="0.95" /><ellipse cx="-19.32" cy="19.32" rx="17.56" ry="27.32" fill="#f1e3d4" fill-opacity="0.95" /><ellipse cx="-27.32" cy="0.00" rx="17.56" ry="27.32" fill="#f1e3d4" fill-opacity="0.95" /><ellipse cx="-19.32" cy="-19.32" rx="17.56" ry="27.32" fill="#f1e3d4" fill-opacity="0.95" /><ellipse cx="-0.00" cy="-27.32" rx="17.56" ry="27.32" fill="#f1e3d4" fill-opacity="0.95" /><ellipse cx="19.32" cy="-19.32" rx="17.56" ry="27.32" fill="#f1e3d4" fill-opacity="0.95" />
        <circle cx="0" cy="0" r="17.56" fill="#d5c0a8" />
        <circle cx="0" cy="0" r="8.78" fill="#fff7f0" fill-opacity="0.72" />
      </g>
    </g>
    
    <g transform="translate(648.64 373.18) rotate(15.02)">
      <path d="M 0 0 C -8 73.68, 10 122.79, -6 180.10" stroke="#8da78b" stroke-width="9.82" fill="none" stroke-linecap="round" />
      <ellipse cx="-20" cy="90.05" rx="18.01" ry="34.38" fill="#8da78b" fill-opacity="0.75" transform="rotate(-24)" />
      <ellipse cx="28" cy="111.33" rx="16.37" ry="31.11" fill="#8da78b" fill-opacity="0.66" transform="rotate(20)" />
      <g transform="translate(0 0)">
        <ellipse cx="22.92" cy="0.00" rx="14.74" ry="22.92" fill="#e7d8cf" fill-opacity="0.95" /><ellipse cx="16.21" cy="16.21" rx="14.74" ry="22.92" fill="#e7d8cf" fill-opacity="0.95" /><ellipse cx="0.00" cy="22.92" rx="14.74" ry="22.92" fill="#e7d8cf" fill-opacity="0.95" /><ellipse cx="-16.21" cy="16.21" rx="14.74" ry="22.92" fill="#e7d8cf" fill-opacity="0.95" /><ellipse cx="-22.92" cy="0.00" rx="14.74" ry="22.92" fill="#e7d8cf" fill-opacity="0.95" /><ellipse cx="-16.21" cy="-16.21" rx="14.74" ry="22.92" fill="#e7d8cf" fill-opacity="0.95" /><ellipse cx="-0.00" cy="-22.92" rx="14.74" ry="22.92" fill="#e7d8cf" fill-opacity="0.95" /><ellipse cx="16.21" cy="-16.21" rx="14.74" ry="22.92" fill="#e7d8cf" fill-opacity="0.95" />
        <circle cx="0" cy="0" r="14.74" fill="#d5c0a8" />
        <circle cx="0" cy="0" r="7.37" fill="#fff7f0" fill-opacity="0.72" />
      </g>
    </g>
    
    <g transform="translate(369.23 544.13) rotate(-2.15)">
      <path d="M 0 0 C -8 84.98, 10 141.63, -6 207.73" stroke="#6f8d6e" stroke-width="11.33" fill="none" stroke-linecap="round" />
      <ellipse cx="-20" cy="103.86" rx="20.77" ry="39.66" fill="#6f8d6e" fill-opacity="0.75" transform="rotate(-24)" />
      <ellipse cx="28" cy="128.41" rx="18.88" ry="35.88" fill="#6f8d6e" fill-opacity="0.66" transform="rotate(20)" />
      <g transform="translate(0 0)">
        <ellipse cx="26.44" cy="0.00" rx="17.00" ry="26.44" fill="#d7e5d5" fill-opacity="0.95" /><ellipse cx="18.69" cy="18.69" rx="17.00" ry="26.44" fill="#d7e5d5" fill-opacity="0.95" /><ellipse cx="0.00" cy="26.44" rx="17.00" ry="26.44" fill="#d7e5d5" fill-opacity="0.95" /><ellipse cx="-18.69" cy="18.69" rx="17.00" ry="26.44" fill="#d7e5d5" fill-opacity="0.95" /><ellipse cx="-26.44" cy="0.00" rx="17.00" ry="26.44" fill="#d7e5d5" fill-opacity="0.95" /><ellipse cx="-18.69" cy="-18.69" rx="17.00" ry="26.44" fill="#d7e5d5" fill-opacity="0.95" /><ellipse cx="-0.00" cy="-26.44" rx="17.00" ry="26.44" fill="#d7e5d5" fill-opacity="0.95" /><ellipse cx="18.69" cy="-18.69" rx="17.00" ry="26.44" fill="#d7e5d5" fill-opacity="0.95" />
        <circle cx="0" cy="0" r="17.00" fill="#d5c0a8" />
        <circle cx="0" cy="0" r="8.50" fill="#fff7f0" fill-opacity="0.72" />
      </g>
    </g>
    
  </g>
  <path d="M0 980 C220 920, 420 1030, 900 930 L900 1100 L0 1100 Z" fill="#ffffff" fill-opacity="0.22" />
</svg>
