<svg xmlns="http://www.w3.org/2000/svg" width="900" height="1100" viewBox="0 0 900 1100">
  <defs>
    <linearGradient id="bg" x1="0" y1="0" x2="0" y2="1">
      <stop offset="0%" stop-color="#f8f3ec" />
      <stop offset="100%" stop-color="#e8efe5" />
    </linearGradient>
    <filter id="shadow" x="-20%" y="-20%" width="140%" height="140%">
      <feDropShadow dx="0" dy="22" stdDeviation="24" flood-color="#6c5d4f" flood-opacity="0.12" />
    </filter>
  </defs>
  <rect width="100%" height="100%" fill="url(#bg)" />
  <circle cx="730" cy="180" r="140" fill="#ffffff" fill-opacity="0.18" />
  <circle cx="150" cy="260" r="90" fill="#ffffff" fill-opacity="0.12" />
  
      <rect x="70" y="72" width="300" height="92" rx="24" fill="#ffffff" fill-opacity="0.34" />
      <text x="98" y="120" fill="#2f3a31" font-size="32" font-family="'PingFang SC','Microsoft YaHei',sans-serif" font-weight="600">风铃礼道</text>
      <text x="98" y="152" fill="#4e6152" font-size="18" font-family="'PingFang SC','Microsoft YaHei',sans-serif">婚礼 · 手捧花</text>
    
  <g filter="url(#shadow)">
    <path d="M250 780 L650 780 L730 1080 L170 1080 Z" fill="#ece2d6" fill-opacity="0.88" />
  </g>
  <g>
    
    <g transform="translate(424.87 431.90) rotate(-9.49)">
      <path d="M 0 0 C -8 71.23, 10 118.72, -6 174.12" stroke="#8da78b" stroke-width="9.50" fill="none" stroke-linecap="round" />
      <ellipse cx="-20" cy="87.06" rx="17.41" ry="33.24" fill="#8da78b" fill-opacity="0.75" transform="rotate(-24)" />
      <ellipse cx="28" cy="107.64" rx="15.83" ry="30.07" fill="#8da78b" fill-opacity="0.66" transform="rotate(20)" />
      <g transform="translate(0 0)">
        <ellipse cx="22.16" cy="0.00" rx="14.25" ry="22.16" fill="#f7f5ef" fill-opacity="0.95" /><ellipse cx="15.67" cy="15.67" rx="14.25" ry="22.16" fill="#f7f5ef" fill-opacity="0.95" /><ellipse cx="0.00" cy="22.16" rx="14.25" ry="22.16" fill="#f7f5ef" fill-opacity="0.95" /><ellipse cx="-15.67" cy="15.67" rx="14.25" ry="22.16" fill="#f7f5ef" fill-opacity="0.95" /><ellipse cx="-22.16" cy="0.00" rx="14.25" ry="22.16" fill="#f7f5ef" fill-opacity="0.95" /><ellipse cx="-15.67" cy="-15.67" rx="14.25" ry="22.16" fill="#f7f5ef" fill-opacity="0.95" /><ellipse cx="-0.00" cy="-22.16" rx="14.25" ry="22.16" fill="#f7f5ef" fill-opacity="0.95" /><ellipse cx="15.67" cy="-15.67" rx="14.25" ry="22.16" fill="#f7f5ef" fill-opacity="0.95" />
        <circle cx="0" cy="0" r="14.25" fill="#d5c0a8" />
        <circle cx="0" cy="0" r="7.12" fill="#fff7f0" fill-opacity="0.72" />
      </g>
    </g>
    
    <g transform="translate(259.59 298.16) rotate(-23.73)">
      <path d="M 0 0 C -8 99.52, 10 165.87, -6 243.27" stroke="#6f8d6e" stroke-width="13.27" fill="none" stroke-linecap="round" />
      <ellipse cx="-20" cy="121.64" rx="24.33" ry="46.44" fill="#6f8d6e" fill-opacity="0.75" transform="rotate(-24)" />
      <ellipse cx="28" cy="150.39" rx="22.12" ry="42.02" fill="#6f8d6e" fill-opacity="0.66" transform="rotate(20)" />
      <g transform="translate(0 0)">
        <ellipse cx="30.96" cy="0.00" rx="19.90" ry="30.96" fill="#f1e3d4" fill-opacity="0.95" /><ellipse cx="21.89" cy="21.89" rx="19.90" ry="30.96" fill="#f1e3d4" fill-opacity="0.95" /><ellipse cx="0.00" cy="30.96" rx="19.90" ry="30.96" fill="#f1e3d4" fill-opacity="0.95" /><ellipse cx="-21.89" cy="21.89" rx="19.90" ry="30.96" fill="#f1e3d4" fill-opacity="0.95" /><ellipse cx="-30.96" cy="0.00" rx="19.90" ry="30.96" fill="#f1e3d4" fill-opacity="0.95" /><ellipse cx="-21.89" cy="-21.89" rx="19.90" ry="30.96" fill="#f1e3d4" fill-opacity="0.95" /><ellipse cx="-0.00" cy="-30.96" rx="19.90" ry="30.96" fill="#f1e3d4" fill-opacity="0.95" /><ellipse cx="21.89" cy="-21.89" rx="19.90" ry="30.96" fill="#f1e3d4" fill-opacity="0.95" />
        <circle cx="0" cy="0" r="19.90" fill="#d5c0a8" />
        <circle cx="0" cy="0" r="9.95" fill="#fff7f0" fill-opacity="0.72" />
      </g>
    </g>
    
    <g transform="translate(655.66 453.65) rotate(0.11)">
      <path d="M 0 0 C -8 102.30, 10 170.50, -6 250.06" stroke="#a7b99d" stroke-width="13.64" fill="none" stroke-linecap="round" />
      <ellipse cx="-20" cy="125.03" rx="25.01" ry="47.74" fill="#a7b99d" fill-opacity="0.75" transform="rotate(-24)" />
      <ellipse cx="28" cy="154.59" rx="22.73" ry="43.19" fill="#a7b99d" fill-opacity="0.66" transform="rotate(20)" />
      <g transform="translate(0 0)">
        <ellipse cx="31.83" cy="0.00" rx="20.46" ry="31.83" fill="#e7d8cf" fill-opacity="0.95" /><ellipse cx="22.50" cy="22.50" rx="20.46" ry="31.83" fill="#e7d8cf" fill-opacity="0.95" /><ellipse cx="0.00" cy="31.83" rx="20.46" ry="31.83" fill="#e7d8cf" fill-opacity="0.95" /><ellipse cx="-22.50" cy="22.50" rx="20.46" ry="31.83" fill="#e7d8cf" fill-opacity="0.95" /><ellipse cx="-31.83" cy="0.00" rx="20.46" ry="31.83" fill="#e7d8cf" fill-opacity="0.95" /><ellipse cx="-22.50" cy="-22.50" rx="20.46" ry="31.83" fill="#e7d8cf" fill-opacity="0.95" /><ellipse cx="-0.00" cy="-31.83" rx="20.46" ry="31.83" fill="#e7d8cf" fill-opacity="0.95" /><ellipse cx="22.50" cy="-22.50" rx="20.46" ry="31.83" fill="#e7d8cf" fill-opacity="0.95" />
        <circle cx="0" cy="0" r="20.46" fill="#d5c0a8" />
        <circle cx="0" cy="0" r="10.23" fill="#fff7f0" fill-opacity="0.72" />
      </g>
    </g>
    
    <g transform="translate(310.43 293.95) rotate(-10.32)">
      <path d="M 0 0 C -8 91.33, 10 152.22, -6 223.26" stroke="#8da78b" stroke-width="12.18" fill="none" stroke-linecap="round" />
      <ellipse cx="-20" cy="111.63" rx="22.33" ry="42.62" fill="#8da78b" fill-opacity="0.75" transform="rotate(-24)" />
      <ellipse cx="28" cy="138.01" rx="20.30" ry="38.56" fill="#8da78b" fill-opacity="0.66" transform="rotate(20)" />
      <g transform="translate(0 0)">
        <ellipse cx="28.41" cy="0.00" rx="18.27" ry="28.41" fill="#d7e5d5" fill-opacity="0.95" /><ellipse cx="20.09" cy="20.09" rx="18.27" ry="28.41" fill="#d7e5d5" fill-opacity="0.95" /><ellipse cx="0.00" cy="28.41" rx="18.27" ry="28.41" fill="#d7e5d5" fill-opacity="0.95" /><ellipse cx="-20.09" cy="20.09" rx="18.27" ry="28.41" fill="#d7e5d5" fill-opacity="0.95" /><ellipse cx="-28.41" cy="0.00" rx="18.27" ry="28.41" fill="#d7e5d5" fill-opacity="0.95" /><ellipse cx="-20.09" cy="-20.09" rx="18.27" ry="28.41" fill="#d7e5d5" fill-opacity="0.95" /><ellipse cx="-0.00" cy="-28.41" rx="18.27" ry="28.41" fill="#d7e5d5" fill-opacity="0.95" /><ellipse cx="20.09" cy="-20.09" rx="18.27" ry="28.41" fill="#d7e5d5" fill-opacity="0.95" />
        <circle cx="0" cy="0" r="18.27" fill="#d5c0a8" />
        <circle cx="0" cy="0" r="9.13" fill="#fff7f0" fill-opacity="0.72" />
      </g>
    </g>
    
    <g transform="translate(563.80 474.77) rotate(3.91)">
      <path d="M 0 0 C -8 109.92, 10 183.19, -6 268.68" stroke="#6f8d6e" stroke-width="14.66" fill="none" stroke-linecap="round" />
      <ellipse cx="-20" cy="134.34" rx="26.87" ry="51.29" fill="#6f8d6e" fill-opacity="0.75" transform="rotate(-24)" />
      <ellipse cx="28" cy="166.09" rx="24.43" ry="46.41" fill="#6f8d6e" fill-opacity="0.66" transform="rotate(20)" />
      <g transform="translate(0 0)">
        <ellipse cx="34.20" cy="0.00" rx="21.98" ry="34.20" fill="#f7f5ef" fill-opacity="0.95" /><ellipse cx="24.18" cy="24.18" rx="21.98" ry="34.20" fill="#f7f5ef" fill-opacity="0.95" /><ellipse cx="0.00" cy="34.20" rx="21.98" ry="34.20" fill="#f7f5ef" fill-opacity="0.95" /><ellipse cx="-24.18" cy="24.18" rx="21.98" ry="34.20" fill="#f7f5ef" fill-opacity="0.95" /><ellipse cx="-34.20" cy="0.00" rx="21.98" ry="34.20" fill="#f7f5ef" fill-opacity="0.95" /><ellipse cx="-24.18" cy="-24.18" rx="21.98" ry="34.20" fill="#f7f5ef" fill-opacity="0.95" /><ellipse cx="-0.00" cy="-34.20" rx="21.98" ry="34.20" fill="#f7f5ef" fill-opacity="0.95" /><ellipse cx="24.18" cy="-24.18" rx="21.98" ry="34.20" fill="#f7f5ef" fill-opacity="0.95" />
        <circle cx="0" cy="0" r="21.98" fill="#d5c0a8" />
        <circle cx="0" cy="0" r="10.99" fill="#fff7f0" fill-opacity="0.72" />
      </g>
    </g>
    
    <g transform="translate(588.64 334.79) rotate(-24.23)">
      <path d="M 0 0 C -8 76.96, 10 128.27, -6 188.12" stroke="#a7b99d" stroke-width="10.26" fill="none" stroke-linecap="round" />
      <ellipse cx="-20" cy="94.06" rx="18.81" ry="35.91" fill="#a7b99d" fill-opacity="0.75" transform="rotate(-24)" />
      <ellipse cx="28" cy="116.29" rx="17.10" ry="32.49" fill="#a7b99d" fill-opacity="0.66" transform="rotate(20)" />
      <g transform="translate(0 0)">
        <ellipse cx="23.94" cy="0.00" rx="15.39" ry="23.94" fill="#f1e3d4" fill-opacity="0.95" /><ellipse cx="16.93" cy="16.93" rx="15.39" ry="23.94" fill="#f1e3d4" fill-opacity="0.95" /><ellipse cx="0.00" cy="23.94" rx="15.39" ry="23.94" fill="#f1e3d4" fill-opacity="0.95" /><ellipse cx="-16.93" cy="16.93" rx="15.39" ry="23.94" fill="#f1e3d4" fill-opacity="0.95" /><ellipse cx="-23.94" cy="0.00" rx="15.39" ry="23.94" fill="#f1e3d4" fill-opacity="0.95" /><ellipse cx="-16.93" cy="-16.93" rx="15.39" ry="23.94" fill="#f1e3d4" fill-opacity="0.95" /><ellipse cx="-0.00" cy="-23.94" rx="15.39" ry="23.94" fill="#f1e3d4" fill-opacity="0.95" /><ellipse cx="16.93" cy="-16.93" rx="15.39" ry="23.94" fill="#f1e3d4" fill-opacity="0.95" />
        <circle cx="0" cy="0" r="15.39" fill="#d5c0a8" />
        <circle cx="0" cy="0" r="7.70" fill="#fff7f0" fill-opacity="0.72" />
      </g>
    </g>
    
    <g transform="translate(635.99 350.06) rotate(9.09)">
      <path d="M 0 0 C -8 81.49, 10 135.82, -6 199.21" stroke="#8da78b" stroke-width="10.87" fill="none" stroke-linecap="round" />
      <ellipse cx="-20" cy="99.60" rx="19.92" ry="38.03" fill="#8da78b" fill-opacity="0.75" transform="rotate(-24)" />
      <ellipse cx="28" cy="123.15" rx="18.11" ry="34.41" fill="#8da78b" fill-opacity="0.66" transform="rotate(20)" />
      <g transform="translate(0 0)">
        <ellipse cx="25.35" cy="0.00" rx="16.30" ry="25.35" fill="#e7d8cf" fill-opacity="0.95" /><ellipse cx="17.93" cy="17.93" rx="16.30" ry="25.35" fill="#e7d8cf" fill-opacity="0.95" /><ellipse cx="0.00" cy="25.35" rx="16.30" ry="25.35" fill="#e7d8cf" fill-opacity="0.95" /><ellipse cx="-17.93" cy="17.93" rx="16.30" ry="25.35" fill="#e7d8cf" fill-opacity="0.95" /><ellipse cx="-25.35" cy="0.00" rx="16.30" ry="25.35" fill="#e7d8cf" fill-opacity="0.95" /><ellipse cx="-17.93" cy="-17.93" rx="16.30" ry="25.35" fill="#e7d8cf" fill-opacity="0.95" /><ellipse cx="-0.00" cy="-25.35" rx="16.30" ry="25.35" fill="#e7d8cf" fill-opacity="0.95" /><ellipse cx="17.93" cy="-17.93" rx="16.30" ry="25.35" fill="#e7d8cf" fill-opacity="0.95" />
        <circle cx="0" cy="0" r="16.30" fill="#d5c0a8" />
        <circle cx="0" cy="0" r="8.15" fill="#fff7f0" fill-opacity="0.72" />
      </g>
    </g>
    
  </g>
  <path d="M0 980 C220 920, 420 1030, 900 930 L900 1100 L0 1100 Z" fill="#ffffff" fill-opacity="0.22" />
</svg>
