<svg xmlns="http://www.w3.org/2000/svg" width="900" height="1100" viewBox="0 0 900 1100">
  <defs>
    <linearGradient id="bg" x1="0" y1="0" x2="0" y2="1">
      <stop offset="0%" stop-color="#f8f3ec" />
      <stop offset="100%" stop-color="#e8efe5" />
    </linearGradient>
    <filter id="shadow" x="-20%" y="-20%" width="140%" height="140%">
      <feDropShadow dx="0" dy="22" stdDeviation="24" flood-color="#6c5d4f" flood-opacity="0.12" />
    </filter>
  </defs>
  <rect width="100%" height="100%" fill="url(#bg)" />
  <circle cx="730" cy="180" r="140" fill="#ffffff" fill-opacity="0.18" />
  <circle cx="150" cy="260" r="90" fill="#ffffff" fill-opacity="0.12" />
  
      <rect x="70" y="72" width="300" height="92" rx="24" fill="#ffffff" fill-opacity="0.34" />
      <text x="98" y="120" fill="#2f3a31" font-size="32" font-family="'PingFang SC','Microsoft YaHei',sans-serif" font-weight="600">诗意迎宾</text>
      <text x="98" y="152" fill="#4e6152" font-size="18" font-family="'PingFang SC','Microsoft YaHei',sans-serif">婚礼 · 香槟色</text>
    
  <g filter="url(#shadow)">
    <path d="M250 780 L650 780 L730 1080 L170 1080 Z" fill="#ece2d6" fill-opacity="0.88" />
  </g>
  <g>
    
    <g transform="translate(338.69 537.10) rotate(21.73)">
      <path d="M 0 0 C -8 95.65, 10 159.41, -6 233.80" stroke="#8da78b" stroke-width="12.75" fill="none" stroke-linecap="round" />
      <ellipse cx="-20" cy="116.90" rx="23.38" ry="44.64" fill="#8da78b" fill-opacity="0.75" transform="rotate(-24)" />
      <ellipse cx="28" cy="144.53" rx="21.25" ry="40.38" fill="#8da78b" fill-opacity="0.66" transform="rotate(20)" />
      <g transform="translate(0 0)">
        <ellipse cx="29.76" cy="0.00" rx="19.13" ry="29.76" fill="#f7f5ef" fill-opacity="0.95" /><ellipse cx="21.04" cy="21.04" rx="19.13" ry="29.76" fill="#f7f5ef" fill-opacity="0.95" /><ellipse cx="0.00" cy="29.76" rx="19.13" ry="29.76" fill="#f7f5ef" fill-opacity="0.95" /><ellipse cx="-21.04" cy="21.04" rx="19.13" ry="29.76" fill="#f7f5ef" fill-opacity="0.95" /><ellipse cx="-29.76" cy="0.00" rx="19.13" ry="29.76" fill="#f7f5ef" fill-opacity="0.95" /><ellipse cx="-21.04" cy="-21.04" rx="19.13" ry="29.76" fill="#f7f5ef" fill-opacity="0.95" /><ellipse cx="-0.00" cy="-29.76" rx="19.13" ry="29.76" fill="#f7f5ef" fill-opacity="0.95" /><ellipse cx="21.04" cy="-21.04" rx="19.13" ry="29.76" fill="#f7f5ef" fill-opacity="0.95" />
        <circle cx="0" cy="0" r="19.13" fill="#d5c0a8" />
        <circle cx="0" cy="0" r="9.56" fill="#fff7f0" fill-opacity="0.72" />
      </g>
    </g>
    
    <g transform="translate(307.31 512.53) rotate(-5.90)">
      <path d="M 0 0 C -8 75.50, 10 125.83, -6 184.55" stroke="#6f8d6e" stroke-width="10.07" fill="none" stroke-linecap="round" />
      <ellipse cx="-20" cy="92.27" rx="18.45" ry="35.23" fill="#6f8d6e" fill-opacity="0.75" transform="rotate(-24)" />
      <ellipse cx="28" cy="114.09" rx="16.78" ry="31.88" fill="#6f8d6e" fill-opacity="0.66" transform="rotate(20)" />
      <g transform="translate(0 0)">
        <ellipse cx="23.49" cy="0.00" rx="15.10" ry="23.49" fill="#f1e3d4" fill-opacity="0.95" /><ellipse cx="16.61" cy="16.61" rx="15.10" ry="23.49" fill="#f1e3d4" fill-opacity="0.95" /><ellipse cx="0.00" cy="23.49" rx="15.10" ry="23.49" fill="#f1e3d4" fill-opacity="0.95" /><ellipse cx="-16.61" cy="16.61" rx="15.10" ry="23.49" fill="#f1e3d4" fill-opacity="0.95" /><ellipse cx="-23.49" cy="0.00" rx="15.10" ry="23.49" fill="#f1e3d4" fill-opacity="0.95" /><ellipse cx="-16.61" cy="-16.61" rx="15.10" ry="23.49" fill="#f1e3d4" fill-opacity="0.95" /><ellipse cx="-0.00" cy="-23.49" rx="15.10" ry="23.49" fill="#f1e3d4" fill-opacity="0.95" /><ellipse cx="16.61" cy="-16.61" rx="15.10" ry="23.49" fill="#f1e3d4" fill-opacity="0.95" />
        <circle cx="0" cy="0" r="15.10" fill="#d5c0a8" />
        <circle cx="0" cy="0" r="7.55" fill="#fff7f0" fill-opacity="0.72" />
      </g>
    </g>
    
    <g transform="translate(432.90 480.10) rotate(-14.91)">
      <path d="M 0 0 C -8 110.87, 10 184.78, -6 271.01" stroke="#a7b99d" stroke-width="14.78" fill="none" stroke-linecap="round" />
      <ellipse cx="-20" cy="135.50" rx="27.10" ry="51.74" fill="#a7b99d" fill-opacity="0.75" transform="rotate(-24)" />
      <ellipse cx="28" cy="167.53" rx="24.64" ry="46.81" fill="#a7b99d" fill-opacity="0.66" transform="rotate(20)" />
      <g transform="translate(0 0)">
        <ellipse cx="34.49" cy="0.00" rx="22.17" ry="34.49" fill="#e7d8cf" fill-opacity="0.95" /><ellipse cx="24.39" cy="24.39" rx="22.17" ry="34.49" fill="#e7d8cf" fill-opacity="0.95" /><ellipse cx="0.00" cy="34.49" rx="22.17" ry="34.49" fill="#e7d8cf" fill-opacity="0.95" /><ellipse cx="-24.39" cy="24.39" rx="22.17" ry="34.49" fill="#e7d8cf" fill-opacity="0.95" /><ellipse cx="-34.49" cy="0.00" rx="22.17" ry="34.49" fill="#e7d8cf" fill-opacity="0.95" /><ellipse cx="-24.39" cy="-24.39" rx="22.17" ry="34.49" fill="#e7d8cf" fill-opacity="0.95" /><ellipse cx="-0.00" cy="-34.49" rx="22.17" ry="34.49" fill="#e7d8cf" fill-opacity="0.95" /><ellipse cx="24.39" cy="-24.39" rx="22.17" ry="34.49" fill="#e7d8cf" fill-opacity="0.95" />
        <circle cx="0" cy="0" r="22.17" fill="#d5c0a8" />
        <circle cx="0" cy="0" r="11.09" fill="#fff7f0" fill-opacity="0.72" />
      </g>
    </g>
    
    <g transform="translate(253.19 472.11) rotate(14.30)">
      <path d="M 0 0 C -8 85.77, 10 142.95, -6 209.66" stroke="#8da78b" stroke-width="11.44" fill="none" stroke-linecap="round" />
      <ellipse cx="-20" cy="104.83" rx="20.97" ry="40.03" fill="#8da78b" fill-opacity="0.75" transform="rotate(-24)" />
      <ellipse cx="28" cy="129.61" rx="19.06" ry="36.21" fill="#8da78b" fill-opacity="0.66" transform="rotate(20)" />
      <g transform="translate(0 0)">
        <ellipse cx="26.68" cy="0.00" rx="17.15" ry="26.68" fill="#d7e5d5" fill-opacity="0.95" /><ellipse cx="18.87" cy="18.87" rx="17.15" ry="26.68" fill="#d7e5d5" fill-opacity="0.95" /><ellipse cx="0.00" cy="26.68" rx="17.15" ry="26.68" fill="#d7e5d5" fill-opacity="0.95" /><ellipse cx="-18.87" cy="18.87" rx="17.15" ry="26.68" fill="#d7e5d5" fill-opacity="0.95" /><ellipse cx="-26.68" cy="0.00" rx="17.15" ry="26.68" fill="#d7e5d5" fill-opacity="0.95" /><ellipse cx="-18.87" cy="-18.87" rx="17.15" ry="26.68" fill="#d7e5d5" fill-opacity="0.95" /><ellipse cx="-0.00" cy="-26.68" rx="17.15" ry="26.68" fill="#d7e5d5" fill-opacity="0.95" /><ellipse cx="18.87" cy="-18.87" rx="17.15" ry="26.68" fill="#d7e5d5" fill-opacity="0.95" />
        <circle cx="0" cy="0" r="17.15" fill="#d5c0a8" />
        <circle cx="0" cy="0" r="8.58" fill="#fff7f0" fill-opacity="0.72" />
      </g>
    </g>
    
    <g transform="translate(267.76 353.78) rotate(25.84)">
      <path d="M 0 0 C -8 103.53, 10 172.55, -6 253.08" stroke="#6f8d6e" stroke-width="13.80" fill="none" stroke-linecap="round" />
      <ellipse cx="-20" cy="126.54" rx="25.31" ry="48.31" fill="#6f8d6e" fill-opacity="0.75" transform="rotate(-24)" />
      <ellipse cx="28" cy="156.45" rx="23.01" ry="43.71" fill="#6f8d6e" fill-opacity="0.66" transform="rotate(20)" />
      <g transform="translate(0 0)">
        <ellipse cx="32.21" cy="0.00" rx="20.71" ry="32.21" fill="#f7f5ef" fill-opacity="0.95" /><ellipse cx="22.78" cy="22.78" rx="20.71" ry="32.21" fill="#f7f5ef" fill-opacity="0.95" /><ellipse cx="0.00" cy="32.21" rx="20.71" ry="32.21" fill="#f7f5ef" fill-opacity="0.95" /><ellipse cx="-22.78" cy="22.78" rx="20.71" ry="32.21" fill="#f7f5ef" fill-opacity="0.95" /><ellipse cx="-32.21" cy="0.00" rx="20.71" ry="32.21" fill="#f7f5ef" fill-opacity="0.95" /><ellipse cx="-22.78" cy="-22.78" rx="20.71" ry="32.21" fill="#f7f5ef" fill-opacity="0.95" /><ellipse cx="-0.00" cy="-32.21" rx="20.71" ry="32.21" fill="#f7f5ef" fill-opacity="0.95" /><ellipse cx="22.78" cy="-22.78" rx="20.71" ry="32.21" fill="#f7f5ef" fill-opacity="0.95" />
        <circle cx="0" cy="0" r="20.71" fill="#d5c0a8" />
        <circle cx="0" cy="0" r="10.35" fill="#fff7f0" fill-opacity="0.72" />
      </g>
    </g>
    
    <g transform="translate(511.62 438.99) rotate(7.17)">
      <path d="M 0 0 C -8 78.12, 10 130.21, -6 190.97" stroke="#a7b99d" stroke-width="10.42" fill="none" stroke-linecap="round" />
      <ellipse cx="-20" cy="95.48" rx="19.10" ry="36.46" fill="#a7b99d" fill-opacity="0.75" transform="rotate(-24)" />
      <ellipse cx="28" cy="118.05" rx="17.36" ry="32.99" fill="#a7b99d" fill-opacity="0.66" transform="rotate(20)" />
      <g transform="translate(0 0)">
        <ellipse cx="24.31" cy="0.00" rx="15.62" ry="24.31" fill="#f1e3d4" fill-opacity="0.95" /><ellipse cx="17.19" cy="17.19" rx="15.62" ry="24.31" fill="#f1e3d4" fill-opacity="0.95" /><ellipse cx="0.00" cy="24.31" rx="15.62" ry="24.31" fill="#f1e3d4" fill-opacity="0.95" /><ellipse cx="-17.19" cy="17.19" rx="15.62" ry="24.31" fill="#f1e3d4" fill-opacity="0.95" /><ellipse cx="-24.31" cy="0.00" rx="15.62" ry="24.31" fill="#f1e3d4" fill-opacity="0.95" /><ellipse cx="-17.19" cy="-17.19" rx="15.62" ry="24.31" fill="#f1e3d4" fill-opacity="0.95" /><ellipse cx="-0.00" cy="-24.31" rx="15.62" ry="24.31" fill="#f1e3d4" fill-opacity="0.95" /><ellipse cx="17.19" cy="-17.19" rx="15.62" ry="24.31" fill="#f1e3d4" fill-opacity="0.95" />
        <circle cx="0" cy="0" r="15.62" fill="#d5c0a8" />
        <circle cx="0" cy="0" r="7.81" fill="#fff7f0" fill-opacity="0.72" />
      </g>
    </g>
    
    <g transform="translate(274.26 319.59) rotate(12.51)">
      <path d="M 0 0 C -8 90.40, 10 150.66, -6 220.97" stroke="#8da78b" stroke-width="12.05" fill="none" stroke-linecap="round" />
      <ellipse cx="-20" cy="110.49" rx="22.10" ry="42.19" fill="#8da78b" fill-opacity="0.75" transform="rotate(-24)" />
      <ellipse cx="28" cy="136.60" rx="20.09" ry="38.17" fill="#8da78b" fill-opacity="0.66" transform="rotate(20)" />
      <g transform="translate(0 0)">
        <ellipse cx="28.12" cy="0.00" rx="18.08" ry="28.12" fill="#e7d8cf" fill-opacity="0.95" /><ellipse cx="19.89" cy="19.89" rx="18.08" ry="28.12" fill="#e7d8cf" fill-opacity="0.95" /><ellipse cx="0.00" cy="28.12" rx="18.08" ry="28.12" fill="#e7d8cf" fill-opacity="0.95" /><ellipse cx="-19.89" cy="19.89" rx="18.08" ry="28.12" fill="#e7d8cf" fill-opacity="0.95" /><ellipse cx="-28.12" cy="0.00" rx="18.08" ry="28.12" fill="#e7d8cf" fill-opacity="0.95" /><ellipse cx="-19.89" cy="-19.89" rx="18.08" ry="28.12" fill="#e7d8cf" fill-opacity="0.95" /><ellipse cx="-0.00" cy="-28.12" rx="18.08" ry="28.12" fill="#e7d8cf" fill-opacity="0.95" /><ellipse cx="19.89" cy="-19.89" rx="18.08" ry="28.12" fill="#e7d8cf" fill-opacity="0.95" />
        <circle cx="0" cy="0" r="18.08" fill="#d5c0a8" />
        <circle cx="0" cy="0" r="9.04" fill="#fff7f0" fill-opacity="0.72" />
      </g>
    </g>
    
  </g>
  <path d="M0 980 C220 920, 420 1030, 900 930 L900 1100 L0 1100 Z" fill="#ffffff" fill-opacity="0.22" />
</svg>
