<svg xmlns="http://www.w3.org/2000/svg" width="900" height="1100" viewBox="0 0 900 1100">
  <defs>
    <linearGradient id="bg" x1="0" y1="0" x2="0" y2="1">
      <stop offset="0%" stop-color="#f8f3ec" />
      <stop offset="100%" stop-color="#e8efe5" />
    </linearGradient>
    <filter id="shadow" x="-20%" y="-20%" width="140%" height="140%">
      <feDropShadow dx="0" dy="22" stdDeviation="24" flood-color="#6c5d4f" flood-opacity="0.12" />
    </filter>
  </defs>
  <rect width="100%" height="100%" fill="url(#bg)" />
  <circle cx="730" cy="180" r="140" fill="#ffffff" fill-opacity="0.18" />
  <circle cx="150" cy="260" r="90" fill="#ffffff" fill-opacity="0.12" />
  
      <rect x="70" y="72" width="300" height="92" rx="24" fill="#ffffff" fill-opacity="0.34" />
      <text x="98" y="120" fill="#2f3a31" font-size="32" font-family="'PingFang SC','Microsoft YaHei',sans-serif" font-weight="600">庄园回响</text>
      <text x="98" y="152" fill="#4e6152" font-size="18" font-family="'PingFang SC','Microsoft YaHei',sans-serif">婚礼 · 迎宾区</text>
    
  <g filter="url(#shadow)">
    <path d="M250 780 L650 780 L730 1080 L170 1080 Z" fill="#ece2d6" fill-opacity="0.88" />
  </g>
  <g>
    
    <g transform="translate(677.95 558.28) rotate(-25.60)">
      <path d="M 0 0 C -8 105.89, 10 176.48, -6 258.84" stroke="#8da78b" stroke-width="14.12" fill="none" stroke-linecap="round" />
      <ellipse cx="-20" cy="129.42" rx="25.88" ry="49.42" fill="#8da78b" fill-opacity="0.75" transform="rotate(-24)" />
      <ellipse cx="28" cy="160.01" rx="23.53" ry="44.71" fill="#8da78b" fill-opacity="0.66" transform="rotate(20)" />
      <g transform="translate(0 0)">
        <ellipse cx="32.94" cy="0.00" rx="21.18" ry="32.94" fill="#f7f5ef" fill-opacity="0.95" /><ellipse cx="23.29" cy="23.29" rx="21.18" ry="32.94" fill="#f7f5ef" fill-opacity="0.95" /><ellipse cx="0.00" cy="32.94" rx="21.18" ry="32.94" fill="#f7f5ef" fill-opacity="0.95" /><ellipse cx="-23.29" cy="23.29" rx="21.18" ry="32.94" fill="#f7f5ef" fill-opacity="0.95" /><ellipse cx="-32.94" cy="0.00" rx="21.18" ry="32.94" fill="#f7f5ef" fill-opacity="0.95" /><ellipse cx="-23.29" cy="-23.29" rx="21.18" ry="32.94" fill="#f7f5ef" fill-opacity="0.95" /><ellipse cx="-0.00" cy="-32.94" rx="21.18" ry="32.94" fill="#f7f5ef" fill-opacity="0.95" /><ellipse cx="23.29" cy="-23.29" rx="21.18" ry="32.94" fill="#f7f5ef" fill-opacity="0.95" />
        <circle cx="0" cy="0" r="21.18" fill="#d5c0a8" />
        <circle cx="0" cy="0" r="10.59" fill="#fff7f0" fill-opacity="0.72" />
      </g>
    </g>
    
    <g transform="translate(618.51 510.49) rotate(13.89)">
      <path d="M 0 0 C -8 89.61, 10 149.35, -6 219.05" stroke="#6f8d6e" stroke-width="11.95" fill="none" stroke-linecap="round" />
      <ellipse cx="-20" cy="109.52" rx="21.90" ry="41.82" fill="#6f8d6e" fill-opacity="0.75" transform="rotate(-24)" />
      <ellipse cx="28" cy="135.41" rx="19.91" ry="37.84" fill="#6f8d6e" fill-opacity="0.66" transform="rotate(20)" />
      <g transform="translate(0 0)">
        <ellipse cx="27.88" cy="0.00" rx="17.92" ry="27.88" fill="#f1e3d4" fill-opacity="0.95" /><ellipse cx="19.71" cy="19.71" rx="17.92" ry="27.88" fill="#f1e3d4" fill-opacity="0.95" /><ellipse cx="0.00" cy="27.88" rx="17.92" ry="27.88" fill="#f1e3d4" fill-opacity="0.95" /><ellipse cx="-19.71" cy="19.71" rx="17.92" ry="27.88" fill="#f1e3d4" fill-opacity="0.95" /><ellipse cx="-27.88" cy="0.00" rx="17.92" ry="27.88" fill="#f1e3d4" fill-opacity="0.95" /><ellipse cx="-19.71" cy="-19.71" rx="17.92" ry="27.88" fill="#f1e3d4" fill-opacity="0.95" /><ellipse cx="-0.00" cy="-27.88" rx="17.92" ry="27.88" fill="#f1e3d4" fill-opacity="0.95" /><ellipse cx="19.71" cy="-19.71" rx="17.92" ry="27.88" fill="#f1e3d4" fill-opacity="0.95" />
        <circle cx="0" cy="0" r="17.92" fill="#d5c0a8" />
        <circle cx="0" cy="0" r="8.96" fill="#fff7f0" fill-opacity="0.72" />
      </g>
    </g>
    
    <g transform="translate(585.38 297.48) rotate(-17.58)">
      <path d="M 0 0 C -8 95.64, 10 159.40, -6 233.78" stroke="#a7b99d" stroke-width="12.75" fill="none" stroke-linecap="round" />
      <ellipse cx="-20" cy="116.89" rx="23.38" ry="44.63" fill="#a7b99d" fill-opacity="0.75" transform="rotate(-24)" />
      <ellipse cx="28" cy="144.52" rx="21.25" ry="40.38" fill="#a7b99d" fill-opacity="0.66" transform="rotate(20)" />
      <g transform="translate(0 0)">
        <ellipse cx="29.75" cy="0.00" rx="19.13" ry="29.75" fill="#e7d8cf" fill-opacity="0.95" /><ellipse cx="21.04" cy="21.04" rx="19.13" ry="29.75" fill="#e7d8cf" fill-opacity="0.95" /><ellipse cx="0.00" cy="29.75" rx="19.13" ry="29.75" fill="#e7d8cf" fill-opacity="0.95" /><ellipse cx="-21.04" cy="21.04" rx="19.13" ry="29.75" fill="#e7d8cf" fill-opacity="0.95" /><ellipse cx="-29.75" cy="0.00" rx="19.13" ry="29.75" fill="#e7d8cf" fill-opacity="0.95" /><ellipse cx="-21.04" cy="-21.04" rx="19.13" ry="29.75" fill="#e7d8cf" fill-opacity="0.95" /><ellipse cx="-0.00" cy="-29.75" rx="19.13" ry="29.75" fill="#e7d8cf" fill-opacity="0.95" /><ellipse cx="21.04" cy="-21.04" rx="19.13" ry="29.75" fill="#e7d8cf" fill-opacity="0.95" />
        <circle cx="0" cy="0" r="19.13" fill="#d5c0a8" />
        <circle cx="0" cy="0" r="9.56" fill="#fff7f0" fill-opacity="0.72" />
      </g>
    </g>
    
    <g transform="translate(239.20 389.97) rotate(-5.09)">
      <path d="M 0 0 C -8 73.86, 10 123.10, -6 180.54" stroke="#8da78b" stroke-width="9.85" fill="none" stroke-linecap="round" />
      <ellipse cx="-20" cy="90.27" rx="18.05" ry="34.47" fill="#8da78b" fill-opacity="0.75" transform="rotate(-24)" />
      <ellipse cx="28" cy="111.61" rx="16.41" ry="31.18" fill="#8da78b" fill-opacity="0.66" transform="rotate(20)" />
      <g transform="translate(0 0)">
        <ellipse cx="22.98" cy="0.00" rx="14.77" ry="22.98" fill="#d7e5d5" fill-opacity="0.95" /><ellipse cx="16.25" cy="16.25" rx="14.77" ry="22.98" fill="#d7e5d5" fill-opacity="0.95" /><ellipse cx="0.00" cy="22.98" rx="14.77" ry="22.98" fill="#d7e5d5" fill-opacity="0.95" /><ellipse cx="-16.25" cy="16.25" rx="14.77" ry="22.98" fill="#d7e5d5" fill-opacity="0.95" /><ellipse cx="-22.98" cy="0.00" rx="14.77" ry="22.98" fill="#d7e5d5" fill-opacity="0.95" /><ellipse cx="-16.25" cy="-16.25" rx="14.77" ry="22.98" fill="#d7e5d5" fill-opacity="0.95" /><ellipse cx="-0.00" cy="-22.98" rx="14.77" ry="22.98" fill="#d7e5d5" fill-opacity="0.95" /><ellipse cx="16.25" cy="-16.25" rx="14.77" ry="22.98" fill="#d7e5d5" fill-opacity="0.95" />
        <circle cx="0" cy="0" r="14.77" fill="#d5c0a8" />
        <circle cx="0" cy="0" r="7.39" fill="#fff7f0" fill-opacity="0.72" />
      </g>
    </g>
    
    <g transform="translate(658.22 297.00) rotate(17.80)">
      <path d="M 0 0 C -8 79.37, 10 132.28, -6 194.01" stroke="#6f8d6e" stroke-width="10.58" fill="none" stroke-linecap="round" />
      <ellipse cx="-20" cy="97.00" rx="19.40" ry="37.04" fill="#6f8d6e" fill-opacity="0.75" transform="rotate(-24)" />
      <ellipse cx="28" cy="119.93" rx="17.64" ry="33.51" fill="#6f8d6e" fill-opacity="0.66" transform="rotate(20)" />
      <g transform="translate(0 0)">
        <ellipse cx="24.69" cy="0.00" rx="15.87" ry="24.69" fill="#f7f5ef" fill-opacity="0.95" /><ellipse cx="17.46" cy="17.46" rx="15.87" ry="24.69" fill="#f7f5ef" fill-opacity="0.95" /><ellipse cx="0.00" cy="24.69" rx="15.87" ry="24.69" fill="#f7f5ef" fill-opacity="0.95" /><ellipse cx="-17.46" cy="17.46" rx="15.87" ry="24.69" fill="#f7f5ef" fill-opacity="0.95" /><ellipse cx="-24.69" cy="0.00" rx="15.87" ry="24.69" fill="#f7f5ef" fill-opacity="0.95" /><ellipse cx="-17.46" cy="-17.46" rx="15.87" ry="24.69" fill="#f7f5ef" fill-opacity="0.95" /><ellipse cx="-0.00" cy="-24.69" rx="15.87" ry="24.69" fill="#f7f5ef" fill-opacity="0.95" /><ellipse cx="17.46" cy="-17.46" rx="15.87" ry="24.69" fill="#f7f5ef" fill-opacity="0.95" />
        <circle cx="0" cy="0" r="15.87" fill="#d5c0a8" />
        <circle cx="0" cy="0" r="7.94" fill="#fff7f0" fill-opacity="0.72" />
      </g>
    </g>
    
    <g transform="translate(631.79 377.90) rotate(-8.87)">
      <path d="M 0 0 C -8 98.63, 10 164.38, -6 241.09" stroke="#a7b99d" stroke-width="13.15" fill="none" stroke-linecap="round" />
      <ellipse cx="-20" cy="120.54" rx="24.11" ry="46.03" fill="#a7b99d" fill-opacity="0.75" transform="rotate(-24)" />
      <ellipse cx="28" cy="149.03" rx="21.92" ry="41.64" fill="#a7b99d" fill-opacity="0.66" transform="rotate(20)" />
      <g transform="translate(0 0)">
        <ellipse cx="30.68" cy="0.00" rx="19.73" ry="30.68" fill="#f1e3d4" fill-opacity="0.95" /><ellipse cx="21.70" cy="21.70" rx="19.73" ry="30.68" fill="#f1e3d4" fill-opacity="0.95" /><ellipse cx="0.00" cy="30.68" rx="19.73" ry="30.68" fill="#f1e3d4" fill-opacity="0.95" /><ellipse cx="-21.70" cy="21.70" rx="19.73" ry="30.68" fill="#f1e3d4" fill-opacity="0.95" /><ellipse cx="-30.68" cy="0.00" rx="19.73" ry="30.68" fill="#f1e3d4" fill-opacity="0.95" /><ellipse cx="-21.70" cy="-21.70" rx="19.73" ry="30.68" fill="#f1e3d4" fill-opacity="0.95" /><ellipse cx="-0.00" cy="-30.68" rx="19.73" ry="30.68" fill="#f1e3d4" fill-opacity="0.95" /><ellipse cx="21.70" cy="-21.70" rx="19.73" ry="30.68" fill="#f1e3d4" fill-opacity="0.95" />
        <circle cx="0" cy="0" r="19.73" fill="#d5c0a8" />
        <circle cx="0" cy="0" r="9.86" fill="#fff7f0" fill-opacity="0.72" />
      </g>
    </g>
    
    <g transform="translate(644.14 468.45) rotate(-1.75)">
      <path d="M 0 0 C -8 106.50, 10 177.51, -6 260.34" stroke="#8da78b" stroke-width="14.20" fill="none" stroke-linecap="round" />
      <ellipse cx="-20" cy="130.17" rx="26.03" ry="49.70" fill="#8da78b" fill-opacity="0.75" transform="rotate(-24)" />
      <ellipse cx="28" cy="160.94" rx="23.67" ry="44.97" fill="#8da78b" fill-opacity="0.66" transform="rotate(20)" />
      <g transform="translate(0 0)">
        <ellipse cx="33.13" cy="0.00" rx="21.30" ry="33.13" fill="#e7d8cf" fill-opacity="0.95" /><ellipse cx="23.43" cy="23.43" rx="21.30" ry="33.13" fill="#e7d8cf" fill-opacity="0.95" /><ellipse cx="0.00" cy="33.13" rx="21.30" ry="33.13" fill="#e7d8cf" fill-opacity="0.95" /><ellipse cx="-23.43" cy="23.43" rx="21.30" ry="33.13" fill="#e7d8cf" fill-opacity="0.95" /><ellipse cx="-33.13" cy="0.00" rx="21.30" ry="33.13" fill="#e7d8cf" fill-opacity="0.95" /><ellipse cx="-23.43" cy="-23.43" rx="21.30" ry="33.13" fill="#e7d8cf" fill-opacity="0.95" /><ellipse cx="-0.00" cy="-33.13" rx="21.30" ry="33.13" fill="#e7d8cf" fill-opacity="0.95" /><ellipse cx="23.43" cy="-23.43" rx="21.30" ry="33.13" fill="#e7d8cf" fill-opacity="0.95" />
        <circle cx="0" cy="0" r="21.30" fill="#d5c0a8" />
        <circle cx="0" cy="0" r="10.65" fill="#fff7f0" fill-opacity="0.72" />
      </g>
    </g>
    
    <g transform="translate(306.03 428.88) rotate(16.89)">
      <path d="M 0 0 C -8 101.36, 10 168.93, -6 247.77" stroke="#6f8d6e" stroke-width="13.51" fill="none" stroke-linecap="round" />
      <ellipse cx="-20" cy="123.88" rx="24.78" ry="47.30" fill="#6f8d6e" fill-opacity="0.75" transform="rotate(-24)" />
      <ellipse cx="28" cy="153.17" rx="22.52" ry="42.80" fill="#6f8d6e" fill-opacity="0.66" transform="rotate(20)" />
      <g transform="translate(0 0)">
        <ellipse cx="31.53" cy="0.00" rx="20.27" ry="31.53" fill="#d7e5d5" fill-opacity="0.95" /><ellipse cx="22.30" cy="22.30" rx="20.27" ry="31.53" fill="#d7e5d5" fill-opacity="0.95" /><ellipse cx="0.00" cy="31.53" rx="20.27" ry="31.53" fill="#d7e5d5" fill-opacity="0.95" /><ellipse cx="-22.30" cy="22.30" rx="20.27" ry="31.53" fill="#d7e5d5" fill-opacity="0.95" /><ellipse cx="-31.53" cy="0.00" rx="20.27" ry="31.53" fill="#d7e5d5" fill-opacity="0.95" /><ellipse cx="-22.30" cy="-22.30" rx="20.27" ry="31.53" fill="#d7e5d5" fill-opacity="0.95" /><ellipse cx="-0.00" cy="-31.53" rx="20.27" ry="31.53" fill="#d7e5d5" fill-opacity="0.95" /><ellipse cx="22.30" cy="-22.30" rx="20.27" ry="31.53" fill="#d7e5d5" fill-opacity="0.95" />
        <circle cx="0" cy="0" r="20.27" fill="#d5c0a8" />
        <circle cx="0" cy="0" r="10.14" fill="#fff7f0" fill-opacity="0.72" />
      </g>
    </g>
    
  </g>
  <path d="M0 980 C220 920, 420 1030, 900 930 L900 1100 L0 1100 Z" fill="#ffffff" fill-opacity="0.22" />
</svg>
