<svg xmlns="http://www.w3.org/2000/svg" width="900" height="1100" viewBox="0 0 900 1100">
  <defs>
    <linearGradient id="bg" x1="0" y1="0" x2="0" y2="1">
      <stop offset="0%" stop-color="#f8f3ec" />
      <stop offset="100%" stop-color="#e8efe5" />
    </linearGradient>
    <filter id="shadow" x="-20%" y="-20%" width="140%" height="140%">
      <feDropShadow dx="0" dy="22" stdDeviation="24" flood-color="#6c5d4f" flood-opacity="0.12" />
    </filter>
  </defs>
  <rect width="100%" height="100%" fill="url(#bg)" />
  <circle cx="730" cy="180" r="140" fill="#ffffff" fill-opacity="0.18" />
  <circle cx="150" cy="260" r="90" fill="#ffffff" fill-opacity="0.12" />
  
      <rect x="70" y="72" width="300" height="92" rx="24" fill="#ffffff" fill-opacity="0.34" />
      <text x="98" y="120" fill="#2f3a31" font-size="32" font-family="'PingFang SC','Microsoft YaHei',sans-serif" font-weight="600">薄暮誓言</text>
      <text x="98" y="152" fill="#4e6152" font-size="18" font-family="'PingFang SC','Microsoft YaHei',sans-serif">婚礼 · 迎宾区</text>
    
  <g filter="url(#shadow)">
    <path d="M250 780 L650 780 L730 1080 L170 1080 Z" fill="#ece2d6" fill-opacity="0.88" />
  </g>
  <g>
    
    <g transform="translate(607.83 523.73) rotate(16.28)">
      <path d="M 0 0 C -8 89.32, 10 148.87, -6 218.34" stroke="#8da78b" stroke-width="11.91" fill="none" stroke-linecap="round" />
      <ellipse cx="-20" cy="109.17" rx="21.83" ry="41.68" fill="#8da78b" fill-opacity="0.75" transform="rotate(-24)" />
      <ellipse cx="28" cy="134.97" rx="19.85" ry="37.71" fill="#8da78b" fill-opacity="0.66" transform="rotate(20)" />
      <g transform="translate(0 0)">
        <ellipse cx="27.79" cy="0.00" rx="17.86" ry="27.79" fill="#f7f5ef" fill-opacity="0.95" /><ellipse cx="19.65" cy="19.65" rx="17.86" ry="27.79" fill="#f7f5ef" fill-opacity="0.95" /><ellipse cx="0.00" cy="27.79" rx="17.86" ry="27.79" fill="#f7f5ef" fill-opacity="0.95" /><ellipse cx="-19.65" cy="19.65" rx="17.86" ry="27.79" fill="#f7f5ef" fill-opacity="0.95" /><ellipse cx="-27.79" cy="0.00" rx="17.86" ry="27.79" fill="#f7f5ef" fill-opacity="0.95" /><ellipse cx="-19.65" cy="-19.65" rx="17.86" ry="27.79" fill="#f7f5ef" fill-opacity="0.95" /><ellipse cx="-0.00" cy="-27.79" rx="17.86" ry="27.79" fill="#f7f5ef" fill-opacity="0.95" /><ellipse cx="19.65" cy="-19.65" rx="17.86" ry="27.79" fill="#f7f5ef" fill-opacity="0.95" />
        <circle cx="0" cy="0" r="17.86" fill="#d5c0a8" />
        <circle cx="0" cy="0" r="8.93" fill="#fff7f0" fill-opacity="0.72" />
      </g>
    </g>
    
    <g transform="translate(261.56 386.84) rotate(-5.13)">
      <path d="M 0 0 C -8 83.86, 10 139.77, -6 205.00" stroke="#6f8d6e" stroke-width="11.18" fill="none" stroke-linecap="round" />
      <ellipse cx="-20" cy="102.50" rx="20.50" ry="39.14" fill="#6f8d6e" fill-opacity="0.75" transform="rotate(-24)" />
      <ellipse cx="28" cy="126.73" rx="18.64" ry="35.41" fill="#6f8d6e" fill-opacity="0.66" transform="rotate(20)" />
      <g transform="translate(0 0)">
        <ellipse cx="26.09" cy="0.00" rx="16.77" ry="26.09" fill="#f1e3d4" fill-opacity="0.95" /><ellipse cx="18.45" cy="18.45" rx="16.77" ry="26.09" fill="#f1e3d4" fill-opacity="0.95" /><ellipse cx="0.00" cy="26.09" rx="16.77" ry="26.09" fill="#f1e3d4" fill-opacity="0.95" /><ellipse cx="-18.45" cy="18.45" rx="16.77" ry="26.09" fill="#f1e3d4" fill-opacity="0.95" /><ellipse cx="-26.09" cy="0.00" rx="16.77" ry="26.09" fill="#f1e3d4" fill-opacity="0.95" /><ellipse cx="-18.45" cy="-18.45" rx="16.77" ry="26.09" fill="#f1e3d4" fill-opacity="0.95" /><ellipse cx="-0.00" cy="-26.09" rx="16.77" ry="26.09" fill="#f1e3d4" fill-opacity="0.95" /><ellipse cx="18.45" cy="-18.45" rx="16.77" ry="26.09" fill="#f1e3d4" fill-opacity="0.95" />
        <circle cx="0" cy="0" r="16.77" fill="#d5c0a8" />
        <circle cx="0" cy="0" r="8.39" fill="#fff7f0" fill-opacity="0.72" />
      </g>
    </g>
    
    <g transform="translate(453.79 307.09) rotate(-0.54)">
      <path d="M 0 0 C -8 101.86, 10 169.76, -6 248.98" stroke="#a7b99d" stroke-width="13.58" fill="none" stroke-linecap="round" />
      <ellipse cx="-20" cy="124.49" rx="24.90" ry="47.53" fill="#a7b99d" fill-opacity="0.75" transform="rotate(-24)" />
      <ellipse cx="28" cy="153.92" rx="22.63" ry="43.01" fill="#a7b99d" fill-opacity="0.66" transform="rotate(20)" />
      <g transform="translate(0 0)">
        <ellipse cx="31.69" cy="0.00" rx="20.37" ry="31.69" fill="#e7d8cf" fill-opacity="0.95" /><ellipse cx="22.41" cy="22.41" rx="20.37" ry="31.69" fill="#e7d8cf" fill-opacity="0.95" /><ellipse cx="0.00" cy="31.69" rx="20.37" ry="31.69" fill="#e7d8cf" fill-opacity="0.95" /><ellipse cx="-22.41" cy="22.41" rx="20.37" ry="31.69" fill="#e7d8cf" fill-opacity="0.95" /><ellipse cx="-31.69" cy="0.00" rx="20.37" ry="31.69" fill="#e7d8cf" fill-opacity="0.95" /><ellipse cx="-22.41" cy="-22.41" rx="20.37" ry="31.69" fill="#e7d8cf" fill-opacity="0.95" /><ellipse cx="-0.00" cy="-31.69" rx="20.37" ry="31.69" fill="#e7d8cf" fill-opacity="0.95" /><ellipse cx="22.41" cy="-22.41" rx="20.37" ry="31.69" fill="#e7d8cf" fill-opacity="0.95" />
        <circle cx="0" cy="0" r="20.37" fill="#d5c0a8" />
        <circle cx="0" cy="0" r="10.19" fill="#fff7f0" fill-opacity="0.72" />
      </g>
    </g>
    
    <g transform="translate(625.47 384.09) rotate(-2.51)">
      <path d="M 0 0 C -8 76.30, 10 127.16, -6 186.51" stroke="#8da78b" stroke-width="10.17" fill="none" stroke-linecap="round" />
      <ellipse cx="-20" cy="93.25" rx="18.65" ry="35.61" fill="#8da78b" fill-opacity="0.75" transform="rotate(-24)" />
      <ellipse cx="28" cy="115.29" rx="16.96" ry="32.21" fill="#8da78b" fill-opacity="0.66" transform="rotate(20)" />
      <g transform="translate(0 0)">
        <ellipse cx="23.74" cy="0.00" rx="15.26" ry="23.74" fill="#d7e5d5" fill-opacity="0.95" /><ellipse cx="16.78" cy="16.78" rx="15.26" ry="23.74" fill="#d7e5d5" fill-opacity="0.95" /><ellipse cx="0.00" cy="23.74" rx="15.26" ry="23.74" fill="#d7e5d5" fill-opacity="0.95" /><ellipse cx="-16.78" cy="16.78" rx="15.26" ry="23.74" fill="#d7e5d5" fill-opacity="0.95" /><ellipse cx="-23.74" cy="0.00" rx="15.26" ry="23.74" fill="#d7e5d5" fill-opacity="0.95" /><ellipse cx="-16.78" cy="-16.78" rx="15.26" ry="23.74" fill="#d7e5d5" fill-opacity="0.95" /><ellipse cx="-0.00" cy="-23.74" rx="15.26" ry="23.74" fill="#d7e5d5" fill-opacity="0.95" /><ellipse cx="16.78" cy="-16.78" rx="15.26" ry="23.74" fill="#d7e5d5" fill-opacity="0.95" />
        <circle cx="0" cy="0" r="15.26" fill="#d5c0a8" />
        <circle cx="0" cy="0" r="7.63" fill="#fff7f0" fill-opacity="0.72" />
      </g>
    </g>
    
    <g transform="translate(549.08 463.94) rotate(-15.47)">
      <path d="M 0 0 C -8 95.25, 10 158.75, -6 232.83" stroke="#6f8d6e" stroke-width="12.70" fill="none" stroke-linecap="round" />
      <ellipse cx="-20" cy="116.41" rx="23.28" ry="44.45" fill="#6f8d6e" fill-opacity="0.75" transform="rotate(-24)" />
      <ellipse cx="28" cy="143.93" rx="21.17" ry="40.22" fill="#6f8d6e" fill-opacity="0.66" transform="rotate(20)" />
      <g transform="translate(0 0)">
        <ellipse cx="29.63" cy="0.00" rx="19.05" ry="29.63" fill="#f7f5ef" fill-opacity="0.95" /><ellipse cx="20.95" cy="20.95" rx="19.05" ry="29.63" fill="#f7f5ef" fill-opacity="0.95" /><ellipse cx="0.00" cy="29.63" rx="19.05" ry="29.63" fill="#f7f5ef" fill-opacity="0.95" /><ellipse cx="-20.95" cy="20.95" rx="19.05" ry="29.63" fill="#f7f5ef" fill-opacity="0.95" /><ellipse cx="-29.63" cy="0.00" rx="19.05" ry="29.63" fill="#f7f5ef" fill-opacity="0.95" /><ellipse cx="-20.95" cy="-20.95" rx="19.05" ry="29.63" fill="#f7f5ef" fill-opacity="0.95" /><ellipse cx="-0.00" cy="-29.63" rx="19.05" ry="29.63" fill="#f7f5ef" fill-opacity="0.95" /><ellipse cx="20.95" cy="-20.95" rx="19.05" ry="29.63" fill="#f7f5ef" fill-opacity="0.95" />
        <circle cx="0" cy="0" r="19.05" fill="#d5c0a8" />
        <circle cx="0" cy="0" r="9.52" fill="#fff7f0" fill-opacity="0.72" />
      </g>
    </g>
    
    <g transform="translate(277.67 442.44) rotate(20.39)">
      <path d="M 0 0 C -8 71.81, 10 119.68, -6 175.52" stroke="#a7b99d" stroke-width="9.57" fill="none" stroke-linecap="round" />
      <ellipse cx="-20" cy="87.76" rx="17.55" ry="33.51" fill="#a7b99d" fill-opacity="0.75" transform="rotate(-24)" />
      <ellipse cx="28" cy="108.51" rx="15.96" ry="30.32" fill="#a7b99d" fill-opacity="0.66" transform="rotate(20)" />
      <g transform="translate(0 0)">
        <ellipse cx="22.34" cy="0.00" rx="14.36" ry="22.34" fill="#f1e3d4" fill-opacity="0.95" /><ellipse cx="15.80" cy="15.80" rx="14.36" ry="22.34" fill="#f1e3d4" fill-opacity="0.95" /><ellipse cx="0.00" cy="22.34" rx="14.36" ry="22.34" fill="#f1e3d4" fill-opacity="0.95" /><ellipse cx="-15.80" cy="15.80" rx="14.36" ry="22.34" fill="#f1e3d4" fill-opacity="0.95" /><ellipse cx="-22.34" cy="0.00" rx="14.36" ry="22.34" fill="#f1e3d4" fill-opacity="0.95" /><ellipse cx="-15.80" cy="-15.80" rx="14.36" ry="22.34" fill="#f1e3d4" fill-opacity="0.95" /><ellipse cx="-0.00" cy="-22.34" rx="14.36" ry="22.34" fill="#f1e3d4" fill-opacity="0.95" /><ellipse cx="15.80" cy="-15.80" rx="14.36" ry="22.34" fill="#f1e3d4" fill-opacity="0.95" />
        <circle cx="0" cy="0" r="14.36" fill="#d5c0a8" />
        <circle cx="0" cy="0" r="7.18" fill="#fff7f0" fill-opacity="0.72" />
      </g>
    </g>
    
    <g transform="translate(548.39 466.26) rotate(8.88)">
      <path d="M 0 0 C -8 89.38, 10 148.96, -6 218.48" stroke="#8da78b" stroke-width="11.92" fill="none" stroke-linecap="round" />
      <ellipse cx="-20" cy="109.24" rx="21.85" ry="41.71" fill="#8da78b" fill-opacity="0.75" transform="rotate(-24)" />
      <ellipse cx="28" cy="135.06" rx="19.86" ry="37.74" fill="#8da78b" fill-opacity="0.66" transform="rotate(20)" />
      <g transform="translate(0 0)">
        <ellipse cx="27.81" cy="0.00" rx="17.88" ry="27.81" fill="#e7d8cf" fill-opacity="0.95" /><ellipse cx="19.66" cy="19.66" rx="17.88" ry="27.81" fill="#e7d8cf" fill-opacity="0.95" /><ellipse cx="0.00" cy="27.81" rx="17.88" ry="27.81" fill="#e7d8cf" fill-opacity="0.95" /><ellipse cx="-19.66" cy="19.66" rx="17.88" ry="27.81" fill="#e7d8cf" fill-opacity="0.95" /><ellipse cx="-27.81" cy="0.00" rx="17.88" ry="27.81" fill="#e7d8cf" fill-opacity="0.95" /><ellipse cx="-19.66" cy="-19.66" rx="17.88" ry="27.81" fill="#e7d8cf" fill-opacity="0.95" /><ellipse cx="-0.00" cy="-27.81" rx="17.88" ry="27.81" fill="#e7d8cf" fill-opacity="0.95" /><ellipse cx="19.66" cy="-19.66" rx="17.88" ry="27.81" fill="#e7d8cf" fill-opacity="0.95" />
        <circle cx="0" cy="0" r="17.88" fill="#d5c0a8" />
        <circle cx="0" cy="0" r="8.94" fill="#fff7f0" fill-opacity="0.72" />
      </g>
    </g>
    
  </g>
  <path d="M0 980 C220 920, 420 1030, 900 930 L900 1100 L0 1100 Z" fill="#ffffff" fill-opacity="0.22" />
</svg>
