<svg xmlns="http://www.w3.org/2000/svg" width="900" height="1100" viewBox="0 0 900 1100">
  <defs>
    <linearGradient id="bg" x1="0" y1="0" x2="0" y2="1">
      <stop offset="0%" stop-color="#f8f3ec" />
      <stop offset="100%" stop-color="#e8efe5" />
    </linearGradient>
    <filter id="shadow" x="-20%" y="-20%" width="140%" height="140%">
      <feDropShadow dx="0" dy="22" stdDeviation="24" flood-color="#6c5d4f" flood-opacity="0.12" />
    </filter>
  </defs>
  <rect width="100%" height="100%" fill="url(#bg)" />
  <circle cx="730" cy="180" r="140" fill="#ffffff" fill-opacity="0.18" />
  <circle cx="150" cy="260" r="90" fill="#ffffff" fill-opacity="0.12" />
  
      <rect x="70" y="72" width="300" height="92" rx="24" fill="#ffffff" fill-opacity="0.34" />
      <text x="98" y="120" fill="#2f3a31" font-size="32" font-family="'PingFang SC','Microsoft YaHei',sans-serif" font-weight="600">白羽手捧</text>
      <text x="98" y="152" fill="#4e6152" font-size="18" font-family="'PingFang SC','Microsoft YaHei',sans-serif">婚礼 · 迎宾区</text>
    
  <g filter="url(#shadow)">
    <path d="M250 780 L650 780 L730 1080 L170 1080 Z" fill="#ece2d6" fill-opacity="0.88" />
  </g>
  <g>
    
    <g transform="translate(629.78 491.76) rotate(-21.94)">
      <path d="M 0 0 C -8 111.92, 10 186.53, -6 273.57" stroke="#8da78b" stroke-width="14.92" fill="none" stroke-linecap="round" />
      <ellipse cx="-20" cy="136.79" rx="27.36" ry="52.23" fill="#8da78b" fill-opacity="0.75" transform="rotate(-24)" />
      <ellipse cx="28" cy="169.12" rx="24.87" ry="47.25" fill="#8da78b" fill-opacity="0.66" transform="rotate(20)" />
      <g transform="translate(0 0)">
        <ellipse cx="34.82" cy="0.00" rx="22.38" ry="34.82" fill="#f7f5ef" fill-opacity="0.95" /><ellipse cx="24.62" cy="24.62" rx="22.38" ry="34.82" fill="#f7f5ef" fill-opacity="0.95" /><ellipse cx="0.00" cy="34.82" rx="22.38" ry="34.82" fill="#f7f5ef" fill-opacity="0.95" /><ellipse cx="-24.62" cy="24.62" rx="22.38" ry="34.82" fill="#f7f5ef" fill-opacity="0.95" /><ellipse cx="-34.82" cy="0.00" rx="22.38" ry="34.82" fill="#f7f5ef" fill-opacity="0.95" /><ellipse cx="-24.62" cy="-24.62" rx="22.38" ry="34.82" fill="#f7f5ef" fill-opacity="0.95" /><ellipse cx="-0.00" cy="-34.82" rx="22.38" ry="34.82" fill="#f7f5ef" fill-opacity="0.95" /><ellipse cx="24.62" cy="-24.62" rx="22.38" ry="34.82" fill="#f7f5ef" fill-opacity="0.95" />
        <circle cx="0" cy="0" r="22.38" fill="#d5c0a8" />
        <circle cx="0" cy="0" r="11.19" fill="#fff7f0" fill-opacity="0.72" />
      </g>
    </g>
    
    <g transform="translate(289.71 449.78) rotate(21.72)">
      <path d="M 0 0 C -8 86.42, 10 144.03, -6 211.24" stroke="#6f8d6e" stroke-width="11.52" fill="none" stroke-linecap="round" />
      <ellipse cx="-20" cy="105.62" rx="21.12" ry="40.33" fill="#6f8d6e" fill-opacity="0.75" transform="rotate(-24)" />
      <ellipse cx="28" cy="130.59" rx="19.20" ry="36.49" fill="#6f8d6e" fill-opacity="0.66" transform="rotate(20)" />
      <g transform="translate(0 0)">
        <ellipse cx="26.89" cy="0.00" rx="17.28" ry="26.89" fill="#f1e3d4" fill-opacity="0.95" /><ellipse cx="19.01" cy="19.01" rx="17.28" ry="26.89" fill="#f1e3d4" fill-opacity="0.95" /><ellipse cx="0.00" cy="26.89" rx="17.28" ry="26.89" fill="#f1e3d4" fill-opacity="0.95" /><ellipse cx="-19.01" cy="19.01" rx="17.28" ry="26.89" fill="#f1e3d4" fill-opacity="0.95" /><ellipse cx="-26.89" cy="0.00" rx="17.28" ry="26.89" fill="#f1e3d4" fill-opacity="0.95" /><ellipse cx="-19.01" cy="-19.01" rx="17.28" ry="26.89" fill="#f1e3d4" fill-opacity="0.95" /><ellipse cx="-0.00" cy="-26.89" rx="17.28" ry="26.89" fill="#f1e3d4" fill-opacity="0.95" /><ellipse cx="19.01" cy="-19.01" rx="17.28" ry="26.89" fill="#f1e3d4" fill-opacity="0.95" />
        <circle cx="0" cy="0" r="17.28" fill="#d5c0a8" />
        <circle cx="0" cy="0" r="8.64" fill="#fff7f0" fill-opacity="0.72" />
      </g>
    </g>
    
    <g transform="translate(430.13 446.62) rotate(-4.88)">
      <path d="M 0 0 C -8 99.45, 10 165.74, -6 243.09" stroke="#a7b99d" stroke-width="13.26" fill="none" stroke-linecap="round" />
      <ellipse cx="-20" cy="121.55" rx="24.31" ry="46.41" fill="#a7b99d" fill-opacity="0.75" transform="rotate(-24)" />
      <ellipse cx="28" cy="150.27" rx="22.10" ry="41.99" fill="#a7b99d" fill-opacity="0.66" transform="rotate(20)" />
      <g transform="translate(0 0)">
        <ellipse cx="30.94" cy="0.00" rx="19.89" ry="30.94" fill="#e7d8cf" fill-opacity="0.95" /><ellipse cx="21.88" cy="21.88" rx="19.89" ry="30.94" fill="#e7d8cf" fill-opacity="0.95" /><ellipse cx="0.00" cy="30.94" rx="19.89" ry="30.94" fill="#e7d8cf" fill-opacity="0.95" /><ellipse cx="-21.88" cy="21.88" rx="19.89" ry="30.94" fill="#e7d8cf" fill-opacity="0.95" /><ellipse cx="-30.94" cy="0.00" rx="19.89" ry="30.94" fill="#e7d8cf" fill-opacity="0.95" /><ellipse cx="-21.88" cy="-21.88" rx="19.89" ry="30.94" fill="#e7d8cf" fill-opacity="0.95" /><ellipse cx="-0.00" cy="-30.94" rx="19.89" ry="30.94" fill="#e7d8cf" fill-opacity="0.95" /><ellipse cx="21.88" cy="-21.88" rx="19.89" ry="30.94" fill="#e7d8cf" fill-opacity="0.95" />
        <circle cx="0" cy="0" r="19.89" fill="#d5c0a8" />
        <circle cx="0" cy="0" r="9.94" fill="#fff7f0" fill-opacity="0.72" />
      </g>
    </g>
    
    <g transform="translate(636.70 294.70) rotate(7.18)">
      <path d="M 0 0 C -8 105.24, 10 175.40, -6 257.26" stroke="#8da78b" stroke-width="14.03" fill="none" stroke-linecap="round" />
      <ellipse cx="-20" cy="128.63" rx="25.73" ry="49.11" fill="#8da78b" fill-opacity="0.75" transform="rotate(-24)" />
      <ellipse cx="28" cy="159.03" rx="23.39" ry="44.44" fill="#8da78b" fill-opacity="0.66" transform="rotate(20)" />
      <g transform="translate(0 0)">
        <ellipse cx="32.74" cy="0.00" rx="21.05" ry="32.74" fill="#d7e5d5" fill-opacity="0.95" /><ellipse cx="23.15" cy="23.15" rx="21.05" ry="32.74" fill="#d7e5d5" fill-opacity="0.95" /><ellipse cx="0.00" cy="32.74" rx="21.05" ry="32.74" fill="#d7e5d5" fill-opacity="0.95" /><ellipse cx="-23.15" cy="23.15" rx="21.05" ry="32.74" fill="#d7e5d5" fill-opacity="0.95" /><ellipse cx="-32.74" cy="0.00" rx="21.05" ry="32.74" fill="#d7e5d5" fill-opacity="0.95" /><ellipse cx="-23.15" cy="-23.15" rx="21.05" ry="32.74" fill="#d7e5d5" fill-opacity="0.95" /><ellipse cx="-0.00" cy="-32.74" rx="21.05" ry="32.74" fill="#d7e5d5" fill-opacity="0.95" /><ellipse cx="23.15" cy="-23.15" rx="21.05" ry="32.74" fill="#d7e5d5" fill-opacity="0.95" />
        <circle cx="0" cy="0" r="21.05" fill="#d5c0a8" />
        <circle cx="0" cy="0" r="10.52" fill="#fff7f0" fill-opacity="0.72" />
      </g>
    </g>
    
    <g transform="translate(391.38 306.67) rotate(-8.46)">
      <path d="M 0 0 C -8 89.67, 10 149.45, -6 219.20" stroke="#6f8d6e" stroke-width="11.96" fill="none" stroke-linecap="round" />
      <ellipse cx="-20" cy="109.60" rx="21.92" ry="41.85" fill="#6f8d6e" fill-opacity="0.75" transform="rotate(-24)" />
      <ellipse cx="28" cy="135.50" rx="19.93" ry="37.86" fill="#6f8d6e" fill-opacity="0.66" transform="rotate(20)" />
      <g transform="translate(0 0)">
        <ellipse cx="27.90" cy="0.00" rx="17.93" ry="27.90" fill="#f7f5ef" fill-opacity="0.95" /><ellipse cx="19.73" cy="19.73" rx="17.93" ry="27.90" fill="#f7f5ef" fill-opacity="0.95" /><ellipse cx="0.00" cy="27.90" rx="17.93" ry="27.90" fill="#f7f5ef" fill-opacity="0.95" /><ellipse cx="-19.73" cy="19.73" rx="17.93" ry="27.90" fill="#f7f5ef" fill-opacity="0.95" /><ellipse cx="-27.90" cy="0.00" rx="17.93" ry="27.90" fill="#f7f5ef" fill-opacity="0.95" /><ellipse cx="-19.73" cy="-19.73" rx="17.93" ry="27.90" fill="#f7f5ef" fill-opacity="0.95" /><ellipse cx="-0.00" cy="-27.90" rx="17.93" ry="27.90" fill="#f7f5ef" fill-opacity="0.95" /><ellipse cx="19.73" cy="-19.73" rx="17.93" ry="27.90" fill="#f7f5ef" fill-opacity="0.95" />
        <circle cx="0" cy="0" r="17.93" fill="#d5c0a8" />
        <circle cx="0" cy="0" r="8.97" fill="#fff7f0" fill-opacity="0.72" />
      </g>
    </g>
    
    <g transform="translate(631.60 455.00) rotate(18.20)">
      <path d="M 0 0 C -8 72.47, 10 120.79, -6 177.15" stroke="#a7b99d" stroke-width="9.66" fill="none" stroke-linecap="round" />
      <ellipse cx="-20" cy="88.58" rx="17.72" ry="33.82" fill="#a7b99d" fill-opacity="0.75" transform="rotate(-24)" />
      <ellipse cx="28" cy="109.51" rx="16.10" ry="30.60" fill="#a7b99d" fill-opacity="0.66" transform="rotate(20)" />
      <g transform="translate(0 0)">
        <ellipse cx="22.55" cy="0.00" rx="14.49" ry="22.55" fill="#f1e3d4" fill-opacity="0.95" /><ellipse cx="15.94" cy="15.94" rx="14.49" ry="22.55" fill="#f1e3d4" fill-opacity="0.95" /><ellipse cx="0.00" cy="22.55" rx="14.49" ry="22.55" fill="#f1e3d4" fill-opacity="0.95" /><ellipse cx="-15.94" cy="15.94" rx="14.49" ry="22.55" fill="#f1e3d4" fill-opacity="0.95" /><ellipse cx="-22.55" cy="0.00" rx="14.49" ry="22.55" fill="#f1e3d4" fill-opacity="0.95" /><ellipse cx="-15.94" cy="-15.94" rx="14.49" ry="22.55" fill="#f1e3d4" fill-opacity="0.95" /><ellipse cx="-0.00" cy="-22.55" rx="14.49" ry="22.55" fill="#f1e3d4" fill-opacity="0.95" /><ellipse cx="15.94" cy="-15.94" rx="14.49" ry="22.55" fill="#f1e3d4" fill-opacity="0.95" />
        <circle cx="0" cy="0" r="14.49" fill="#d5c0a8" />
        <circle cx="0" cy="0" r="7.25" fill="#fff7f0" fill-opacity="0.72" />
      </g>
    </g>
    
    <g transform="translate(566.11 345.15) rotate(8.73)">
      <path d="M 0 0 C -8 109.78, 10 182.96, -6 268.34" stroke="#8da78b" stroke-width="14.64" fill="none" stroke-linecap="round" />
      <ellipse cx="-20" cy="134.17" rx="26.83" ry="51.23" fill="#8da78b" fill-opacity="0.75" transform="rotate(-24)" />
      <ellipse cx="28" cy="165.88" rx="24.39" ry="46.35" fill="#8da78b" fill-opacity="0.66" transform="rotate(20)" />
      <g transform="translate(0 0)">
        <ellipse cx="34.15" cy="0.00" rx="21.96" ry="34.15" fill="#e7d8cf" fill-opacity="0.95" /><ellipse cx="24.15" cy="24.15" rx="21.96" ry="34.15" fill="#e7d8cf" fill-opacity="0.95" /><ellipse cx="0.00" cy="34.15" rx="21.96" ry="34.15" fill="#e7d8cf" fill-opacity="0.95" /><ellipse cx="-24.15" cy="24.15" rx="21.96" ry="34.15" fill="#e7d8cf" fill-opacity="0.95" /><ellipse cx="-34.15" cy="0.00" rx="21.96" ry="34.15" fill="#e7d8cf" fill-opacity="0.95" /><ellipse cx="-24.15" cy="-24.15" rx="21.96" ry="34.15" fill="#e7d8cf" fill-opacity="0.95" /><ellipse cx="-0.00" cy="-34.15" rx="21.96" ry="34.15" fill="#e7d8cf" fill-opacity="0.95" /><ellipse cx="24.15" cy="-24.15" rx="21.96" ry="34.15" fill="#e7d8cf" fill-opacity="0.95" />
        <circle cx="0" cy="0" r="21.96" fill="#d5c0a8" />
        <circle cx="0" cy="0" r="10.98" fill="#fff7f0" fill-opacity="0.72" />
      </g>
    </g>
    
  </g>
  <path d="M0 980 C220 920, 420 1030, 900 930 L900 1100 L0 1100 Z" fill="#ffffff" fill-opacity="0.22" />
</svg>
