<svg xmlns="http://www.w3.org/2000/svg" width="900" height="1100" viewBox="0 0 900 1100">
  <defs>
    <linearGradient id="bg" x1="0" y1="0" x2="0" y2="1">
      <stop offset="0%" stop-color="#f8f3ec" />
      <stop offset="100%" stop-color="#e8efe5" />
    </linearGradient>
    <filter id="shadow" x="-20%" y="-20%" width="140%" height="140%">
      <feDropShadow dx="0" dy="22" stdDeviation="24" flood-color="#6c5d4f" flood-opacity="0.12" />
    </filter>
  </defs>
  <rect width="100%" height="100%" fill="url(#bg)" />
  <circle cx="730" cy="180" r="140" fill="#ffffff" fill-opacity="0.18" />
  <circle cx="150" cy="260" r="90" fill="#ffffff" fill-opacity="0.12" />
  
      <rect x="70" y="72" width="300" height="92" rx="24" fill="#ffffff" fill-opacity="0.34" />
      <text x="98" y="120" fill="#2f3a31" font-size="32" font-family="'PingFang SC','Microsoft YaHei',sans-serif" font-weight="600">风铃礼道</text>
      <text x="98" y="152" fill="#4e6152" font-size="18" font-family="'PingFang SC','Microsoft YaHei',sans-serif">婚礼 · 手捧花</text>
    
  <g filter="url(#shadow)">
    <path d="M250 780 L650 780 L730 1080 L170 1080 Z" fill="#ece2d6" fill-opacity="0.88" />
  </g>
  <g>
    
    <g transform="translate(485.63 513.31) rotate(-4.92)">
      <path d="M 0 0 C -8 102.92, 10 171.54, -6 251.59" stroke="#8da78b" stroke-width="13.72" fill="none" stroke-linecap="round" />
      <ellipse cx="-20" cy="125.80" rx="25.16" ry="48.03" fill="#8da78b" fill-opacity="0.75" transform="rotate(-24)" />
      <ellipse cx="28" cy="155.53" rx="22.87" ry="43.46" fill="#8da78b" fill-opacity="0.66" transform="rotate(20)" />
      <g transform="translate(0 0)">
        <ellipse cx="32.02" cy="0.00" rx="20.58" ry="32.02" fill="#f7f5ef" fill-opacity="0.95" /><ellipse cx="22.64" cy="22.64" rx="20.58" ry="32.02" fill="#f7f5ef" fill-opacity="0.95" /><ellipse cx="0.00" cy="32.02" rx="20.58" ry="32.02" fill="#f7f5ef" fill-opacity="0.95" /><ellipse cx="-22.64" cy="22.64" rx="20.58" ry="32.02" fill="#f7f5ef" fill-opacity="0.95" /><ellipse cx="-32.02" cy="0.00" rx="20.58" ry="32.02" fill="#f7f5ef" fill-opacity="0.95" /><ellipse cx="-22.64" cy="-22.64" rx="20.58" ry="32.02" fill="#f7f5ef" fill-opacity="0.95" /><ellipse cx="-0.00" cy="-32.02" rx="20.58" ry="32.02" fill="#f7f5ef" fill-opacity="0.95" /><ellipse cx="22.64" cy="-22.64" rx="20.58" ry="32.02" fill="#f7f5ef" fill-opacity="0.95" />
        <circle cx="0" cy="0" r="20.58" fill="#d5c0a8" />
        <circle cx="0" cy="0" r="10.29" fill="#fff7f0" fill-opacity="0.72" />
      </g>
    </g>
    
    <g transform="translate(583.50 420.35) rotate(-5.99)">
      <path d="M 0 0 C -8 70.40, 10 117.33, -6 172.08" stroke="#6f8d6e" stroke-width="9.39" fill="none" stroke-linecap="round" />
      <ellipse cx="-20" cy="86.04" rx="17.21" ry="32.85" fill="#6f8d6e" fill-opacity="0.75" transform="rotate(-24)" />
      <ellipse cx="28" cy="106.38" rx="15.64" ry="29.72" fill="#6f8d6e" fill-opacity="0.66" transform="rotate(20)" />
      <g transform="translate(0 0)">
        <ellipse cx="21.90" cy="0.00" rx="14.08" ry="21.90" fill="#f1e3d4" fill-opacity="0.95" /><ellipse cx="15.49" cy="15.49" rx="14.08" ry="21.90" fill="#f1e3d4" fill-opacity="0.95" /><ellipse cx="0.00" cy="21.90" rx="14.08" ry="21.90" fill="#f1e3d4" fill-opacity="0.95" /><ellipse cx="-15.49" cy="15.49" rx="14.08" ry="21.90" fill="#f1e3d4" fill-opacity="0.95" /><ellipse cx="-21.90" cy="0.00" rx="14.08" ry="21.90" fill="#f1e3d4" fill-opacity="0.95" /><ellipse cx="-15.49" cy="-15.49" rx="14.08" ry="21.90" fill="#f1e3d4" fill-opacity="0.95" /><ellipse cx="-0.00" cy="-21.90" rx="14.08" ry="21.90" fill="#f1e3d4" fill-opacity="0.95" /><ellipse cx="15.49" cy="-15.49" rx="14.08" ry="21.90" fill="#f1e3d4" fill-opacity="0.95" />
        <circle cx="0" cy="0" r="14.08" fill="#d5c0a8" />
        <circle cx="0" cy="0" r="7.04" fill="#fff7f0" fill-opacity="0.72" />
      </g>
    </g>
    
    <g transform="translate(266.10 363.98) rotate(19.41)">
      <path d="M 0 0 C -8 72.82, 10 121.37, -6 178.01" stroke="#a7b99d" stroke-width="9.71" fill="none" stroke-linecap="round" />
      <ellipse cx="-20" cy="89.00" rx="17.80" ry="33.98" fill="#a7b99d" fill-opacity="0.75" transform="rotate(-24)" />
      <ellipse cx="28" cy="110.04" rx="16.18" ry="30.75" fill="#a7b99d" fill-opacity="0.66" transform="rotate(20)" />
      <g transform="translate(0 0)">
        <ellipse cx="22.66" cy="0.00" rx="14.56" ry="22.66" fill="#e7d8cf" fill-opacity="0.95" /><ellipse cx="16.02" cy="16.02" rx="14.56" ry="22.66" fill="#e7d8cf" fill-opacity="0.95" /><ellipse cx="0.00" cy="22.66" rx="14.56" ry="22.66" fill="#e7d8cf" fill-opacity="0.95" /><ellipse cx="-16.02" cy="16.02" rx="14.56" ry="22.66" fill="#e7d8cf" fill-opacity="0.95" /><ellipse cx="-22.66" cy="0.00" rx="14.56" ry="22.66" fill="#e7d8cf" fill-opacity="0.95" /><ellipse cx="-16.02" cy="-16.02" rx="14.56" ry="22.66" fill="#e7d8cf" fill-opacity="0.95" /><ellipse cx="-0.00" cy="-22.66" rx="14.56" ry="22.66" fill="#e7d8cf" fill-opacity="0.95" /><ellipse cx="16.02" cy="-16.02" rx="14.56" ry="22.66" fill="#e7d8cf" fill-opacity="0.95" />
        <circle cx="0" cy="0" r="14.56" fill="#d5c0a8" />
        <circle cx="0" cy="0" r="7.28" fill="#fff7f0" fill-opacity="0.72" />
      </g>
    </g>
    
    <g transform="translate(669.08 345.86) rotate(23.04)">
      <path d="M 0 0 C -8 75.01, 10 125.02, -6 183.36" stroke="#8da78b" stroke-width="10.00" fill="none" stroke-linecap="round" />
      <ellipse cx="-20" cy="91.68" rx="18.34" ry="35.01" fill="#8da78b" fill-opacity="0.75" transform="rotate(-24)" />
      <ellipse cx="28" cy="113.35" rx="16.67" ry="31.67" fill="#8da78b" fill-opacity="0.66" transform="rotate(20)" />
      <g transform="translate(0 0)">
        <ellipse cx="23.34" cy="0.00" rx="15.00" ry="23.34" fill="#d7e5d5" fill-opacity="0.95" /><ellipse cx="16.50" cy="16.50" rx="15.00" ry="23.34" fill="#d7e5d5" fill-opacity="0.95" /><ellipse cx="0.00" cy="23.34" rx="15.00" ry="23.34" fill="#d7e5d5" fill-opacity="0.95" /><ellipse cx="-16.50" cy="16.50" rx="15.00" ry="23.34" fill="#d7e5d5" fill-opacity="0.95" /><ellipse cx="-23.34" cy="0.00" rx="15.00" ry="23.34" fill="#d7e5d5" fill-opacity="0.95" /><ellipse cx="-16.50" cy="-16.50" rx="15.00" ry="23.34" fill="#d7e5d5" fill-opacity="0.95" /><ellipse cx="-0.00" cy="-23.34" rx="15.00" ry="23.34" fill="#d7e5d5" fill-opacity="0.95" /><ellipse cx="16.50" cy="-16.50" rx="15.00" ry="23.34" fill="#d7e5d5" fill-opacity="0.95" />
        <circle cx="0" cy="0" r="15.00" fill="#d5c0a8" />
        <circle cx="0" cy="0" r="7.50" fill="#fff7f0" fill-opacity="0.72" />
      </g>
    </g>
    
    <g transform="translate(446.45 559.90) rotate(-13.41)">
      <path d="M 0 0 C -8 113.37, 10 188.95, -6 277.13" stroke="#6f8d6e" stroke-width="15.12" fill="none" stroke-linecap="round" />
      <ellipse cx="-20" cy="138.57" rx="27.71" ry="52.91" fill="#6f8d6e" fill-opacity="0.75" transform="rotate(-24)" />
      <ellipse cx="28" cy="171.32" rx="25.19" ry="47.87" fill="#6f8d6e" fill-opacity="0.66" transform="rotate(20)" />
      <g transform="translate(0 0)">
        <ellipse cx="35.27" cy="0.00" rx="22.67" ry="35.27" fill="#f7f5ef" fill-opacity="0.95" /><ellipse cx="24.94" cy="24.94" rx="22.67" ry="35.27" fill="#f7f5ef" fill-opacity="0.95" /><ellipse cx="0.00" cy="35.27" rx="22.67" ry="35.27" fill="#f7f5ef" fill-opacity="0.95" /><ellipse cx="-24.94" cy="24.94" rx="22.67" ry="35.27" fill="#f7f5ef" fill-opacity="0.95" /><ellipse cx="-35.27" cy="0.00" rx="22.67" ry="35.27" fill="#f7f5ef" fill-opacity="0.95" /><ellipse cx="-24.94" cy="-24.94" rx="22.67" ry="35.27" fill="#f7f5ef" fill-opacity="0.95" /><ellipse cx="-0.00" cy="-35.27" rx="22.67" ry="35.27" fill="#f7f5ef" fill-opacity="0.95" /><ellipse cx="24.94" cy="-24.94" rx="22.67" ry="35.27" fill="#f7f5ef" fill-opacity="0.95" />
        <circle cx="0" cy="0" r="22.67" fill="#d5c0a8" />
        <circle cx="0" cy="0" r="11.34" fill="#fff7f0" fill-opacity="0.72" />
      </g>
    </g>
    
    <g transform="translate(453.09 377.98) rotate(-16.39)">
      <path d="M 0 0 C -8 110.87, 10 184.79, -6 271.02" stroke="#a7b99d" stroke-width="14.78" fill="none" stroke-linecap="round" />
      <ellipse cx="-20" cy="135.51" rx="27.10" ry="51.74" fill="#a7b99d" fill-opacity="0.75" transform="rotate(-24)" />
      <ellipse cx="28" cy="167.54" rx="24.64" ry="46.81" fill="#a7b99d" fill-opacity="0.66" transform="rotate(20)" />
      <g transform="translate(0 0)">
        <ellipse cx="34.49" cy="0.00" rx="22.17" ry="34.49" fill="#f1e3d4" fill-opacity="0.95" /><ellipse cx="24.39" cy="24.39" rx="22.17" ry="34.49" fill="#f1e3d4" fill-opacity="0.95" /><ellipse cx="0.00" cy="34.49" rx="22.17" ry="34.49" fill="#f1e3d4" fill-opacity="0.95" /><ellipse cx="-24.39" cy="24.39" rx="22.17" ry="34.49" fill="#f1e3d4" fill-opacity="0.95" /><ellipse cx="-34.49" cy="0.00" rx="22.17" ry="34.49" fill="#f1e3d4" fill-opacity="0.95" /><ellipse cx="-24.39" cy="-24.39" rx="22.17" ry="34.49" fill="#f1e3d4" fill-opacity="0.95" /><ellipse cx="-0.00" cy="-34.49" rx="22.17" ry="34.49" fill="#f1e3d4" fill-opacity="0.95" /><ellipse cx="24.39" cy="-24.39" rx="22.17" ry="34.49" fill="#f1e3d4" fill-opacity="0.95" />
        <circle cx="0" cy="0" r="22.17" fill="#d5c0a8" />
        <circle cx="0" cy="0" r="11.09" fill="#fff7f0" fill-opacity="0.72" />
      </g>
    </g>
    
    <g transform="translate(399.98 390.27) rotate(-13.82)">
      <path d="M 0 0 C -8 111.66, 10 186.10, -6 272.94" stroke="#8da78b" stroke-width="14.89" fill="none" stroke-linecap="round" />
      <ellipse cx="-20" cy="136.47" rx="27.29" ry="52.11" fill="#8da78b" fill-opacity="0.75" transform="rotate(-24)" />
      <ellipse cx="28" cy="168.73" rx="24.81" ry="47.14" fill="#8da78b" fill-opacity="0.66" transform="rotate(20)" />
      <g transform="translate(0 0)">
        <ellipse cx="34.74" cy="0.00" rx="22.33" ry="34.74" fill="#e7d8cf" fill-opacity="0.95" /><ellipse cx="24.56" cy="24.56" rx="22.33" ry="34.74" fill="#e7d8cf" fill-opacity="0.95" /><ellipse cx="0.00" cy="34.74" rx="22.33" ry="34.74" fill="#e7d8cf" fill-opacity="0.95" /><ellipse cx="-24.56" cy="24.56" rx="22.33" ry="34.74" fill="#e7d8cf" fill-opacity="0.95" /><ellipse cx="-34.74" cy="0.00" rx="22.33" ry="34.74" fill="#e7d8cf" fill-opacity="0.95" /><ellipse cx="-24.56" cy="-24.56" rx="22.33" ry="34.74" fill="#e7d8cf" fill-opacity="0.95" /><ellipse cx="-0.00" cy="-34.74" rx="22.33" ry="34.74" fill="#e7d8cf" fill-opacity="0.95" /><ellipse cx="24.56" cy="-24.56" rx="22.33" ry="34.74" fill="#e7d8cf" fill-opacity="0.95" />
        <circle cx="0" cy="0" r="22.33" fill="#d5c0a8" />
        <circle cx="0" cy="0" r="11.17" fill="#fff7f0" fill-opacity="0.72" />
      </g>
    </g>
    
    <g transform="translate(199.34 394.22) rotate(23.39)">
      <path d="M 0 0 C -8 82.91, 10 138.18, -6 202.66" stroke="#6f8d6e" stroke-width="11.05" fill="none" stroke-linecap="round" />
      <ellipse cx="-20" cy="101.33" rx="20.27" ry="38.69" fill="#6f8d6e" fill-opacity="0.75" transform="rotate(-24)" />
      <ellipse cx="28" cy="125.28" rx="18.42" ry="35.01" fill="#6f8d6e" fill-opacity="0.66" transform="rotate(20)" />
      <g transform="translate(0 0)">
        <ellipse cx="25.79" cy="0.00" rx="16.58" ry="25.79" fill="#d7e5d5" fill-opacity="0.95" /><ellipse cx="18.24" cy="18.24" rx="16.58" ry="25.79" fill="#d7e5d5" fill-opacity="0.95" /><ellipse cx="0.00" cy="25.79" rx="16.58" ry="25.79" fill="#d7e5d5" fill-opacity="0.95" /><ellipse cx="-18.24" cy="18.24" rx="16.58" ry="25.79" fill="#d7e5d5" fill-opacity="0.95" /><ellipse cx="-25.79" cy="0.00" rx="16.58" ry="25.79" fill="#d7e5d5" fill-opacity="0.95" /><ellipse cx="-18.24" cy="-18.24" rx="16.58" ry="25.79" fill="#d7e5d5" fill-opacity="0.95" /><ellipse cx="-0.00" cy="-25.79" rx="16.58" ry="25.79" fill="#d7e5d5" fill-opacity="0.95" /><ellipse cx="18.24" cy="-18.24" rx="16.58" ry="25.79" fill="#d7e5d5" fill-opacity="0.95" />
        <circle cx="0" cy="0" r="16.58" fill="#d5c0a8" />
        <circle cx="0" cy="0" r="8.29" fill="#fff7f0" fill-opacity="0.72" />
      </g>
    </g>
    
  </g>
  <path d="M0 980 C220 920, 420 1030, 900 930 L900 1100 L0 1100 Z" fill="#ffffff" fill-opacity="0.22" />
</svg>
