<svg xmlns="http://www.w3.org/2000/svg" width="900" height="1100" viewBox="0 0 900 1100">
  <defs>
    <linearGradient id="bg" x1="0" y1="0" x2="0" y2="1">
      <stop offset="0%" stop-color="#f8f3ec" />
      <stop offset="100%" stop-color="#e8efe5" />
    </linearGradient>
    <filter id="shadow" x="-20%" y="-20%" width="140%" height="140%">
      <feDropShadow dx="0" dy="22" stdDeviation="24" flood-color="#6c5d4f" flood-opacity="0.12" />
    </filter>
  </defs>
  <rect width="100%" height="100%" fill="url(#bg)" />
  <circle cx="730" cy="180" r="140" fill="#ffffff" fill-opacity="0.18" />
  <circle cx="150" cy="260" r="90" fill="#ffffff" fill-opacity="0.12" />
  
      <rect x="70" y="72" width="300" height="92" rx="24" fill="#ffffff" fill-opacity="0.34" />
      <text x="98" y="120" fill="#2f3a31" font-size="32" font-family="'PingFang SC','Microsoft YaHei',sans-serif" font-weight="600">月白序曲</text>
      <text x="98" y="152" fill="#4e6152" font-size="18" font-family="'PingFang SC','Microsoft YaHei',sans-serif">婚礼 · 香槟色</text>
    
  <g filter="url(#shadow)">
    <path d="M250 780 L650 780 L730 1080 L170 1080 Z" fill="#ece2d6" fill-opacity="0.88" />
  </g>
  <g>
    
    <g transform="translate(309.44 536.44) rotate(-21.04)">
      <path d="M 0 0 C -8 106.10, 10 176.84, -6 259.36" stroke="#8da78b" stroke-width="14.15" fill="none" stroke-linecap="round" />
      <ellipse cx="-20" cy="129.68" rx="25.94" ry="49.51" fill="#8da78b" fill-opacity="0.75" transform="rotate(-24)" />
      <ellipse cx="28" cy="160.33" rx="23.58" ry="44.80" fill="#8da78b" fill-opacity="0.66" transform="rotate(20)" />
      <g transform="translate(0 0)">
        <ellipse cx="33.01" cy="0.00" rx="21.22" ry="33.01" fill="#f7f5ef" fill-opacity="0.95" /><ellipse cx="23.34" cy="23.34" rx="21.22" ry="33.01" fill="#f7f5ef" fill-opacity="0.95" /><ellipse cx="0.00" cy="33.01" rx="21.22" ry="33.01" fill="#f7f5ef" fill-opacity="0.95" /><ellipse cx="-23.34" cy="23.34" rx="21.22" ry="33.01" fill="#f7f5ef" fill-opacity="0.95" /><ellipse cx="-33.01" cy="0.00" rx="21.22" ry="33.01" fill="#f7f5ef" fill-opacity="0.95" /><ellipse cx="-23.34" cy="-23.34" rx="21.22" ry="33.01" fill="#f7f5ef" fill-opacity="0.95" /><ellipse cx="-0.00" cy="-33.01" rx="21.22" ry="33.01" fill="#f7f5ef" fill-opacity="0.95" /><ellipse cx="23.34" cy="-23.34" rx="21.22" ry="33.01" fill="#f7f5ef" fill-opacity="0.95" />
        <circle cx="0" cy="0" r="21.22" fill="#d5c0a8" />
        <circle cx="0" cy="0" r="10.61" fill="#fff7f0" fill-opacity="0.72" />
      </g>
    </g>
    
    <g transform="translate(325.00 500.86) rotate(-2.58)">
      <path d="M 0 0 C -8 77.72, 10 129.53, -6 189.97" stroke="#6f8d6e" stroke-width="10.36" fill="none" stroke-linecap="round" />
      <ellipse cx="-20" cy="94.99" rx="19.00" ry="36.27" fill="#6f8d6e" fill-opacity="0.75" transform="rotate(-24)" />
      <ellipse cx="28" cy="117.44" rx="17.27" ry="32.81" fill="#6f8d6e" fill-opacity="0.66" transform="rotate(20)" />
      <g transform="translate(0 0)">
        <ellipse cx="24.18" cy="0.00" rx="15.54" ry="24.18" fill="#f1e3d4" fill-opacity="0.95" /><ellipse cx="17.10" cy="17.10" rx="15.54" ry="24.18" fill="#f1e3d4" fill-opacity="0.95" /><ellipse cx="0.00" cy="24.18" rx="15.54" ry="24.18" fill="#f1e3d4" fill-opacity="0.95" /><ellipse cx="-17.10" cy="17.10" rx="15.54" ry="24.18" fill="#f1e3d4" fill-opacity="0.95" /><ellipse cx="-24.18" cy="0.00" rx="15.54" ry="24.18" fill="#f1e3d4" fill-opacity="0.95" /><ellipse cx="-17.10" cy="-17.10" rx="15.54" ry="24.18" fill="#f1e3d4" fill-opacity="0.95" /><ellipse cx="-0.00" cy="-24.18" rx="15.54" ry="24.18" fill="#f1e3d4" fill-opacity="0.95" /><ellipse cx="17.10" cy="-17.10" rx="15.54" ry="24.18" fill="#f1e3d4" fill-opacity="0.95" />
        <circle cx="0" cy="0" r="15.54" fill="#d5c0a8" />
        <circle cx="0" cy="0" r="7.77" fill="#fff7f0" fill-opacity="0.72" />
      </g>
    </g>
    
    <g transform="translate(481.60 350.99) rotate(24.87)">
      <path d="M 0 0 C -8 107.96, 10 179.93, -6 263.89" stroke="#a7b99d" stroke-width="14.39" fill="none" stroke-linecap="round" />
      <ellipse cx="-20" cy="131.95" rx="26.39" ry="50.38" fill="#a7b99d" fill-opacity="0.75" transform="rotate(-24)" />
      <ellipse cx="28" cy="163.13" rx="23.99" ry="45.58" fill="#a7b99d" fill-opacity="0.66" transform="rotate(20)" />
      <g transform="translate(0 0)">
        <ellipse cx="33.59" cy="0.00" rx="21.59" ry="33.59" fill="#e7d8cf" fill-opacity="0.95" /><ellipse cx="23.75" cy="23.75" rx="21.59" ry="33.59" fill="#e7d8cf" fill-opacity="0.95" /><ellipse cx="0.00" cy="33.59" rx="21.59" ry="33.59" fill="#e7d8cf" fill-opacity="0.95" /><ellipse cx="-23.75" cy="23.75" rx="21.59" ry="33.59" fill="#e7d8cf" fill-opacity="0.95" /><ellipse cx="-33.59" cy="0.00" rx="21.59" ry="33.59" fill="#e7d8cf" fill-opacity="0.95" /><ellipse cx="-23.75" cy="-23.75" rx="21.59" ry="33.59" fill="#e7d8cf" fill-opacity="0.95" /><ellipse cx="-0.00" cy="-33.59" rx="21.59" ry="33.59" fill="#e7d8cf" fill-opacity="0.95" /><ellipse cx="23.75" cy="-23.75" rx="21.59" ry="33.59" fill="#e7d8cf" fill-opacity="0.95" />
        <circle cx="0" cy="0" r="21.59" fill="#d5c0a8" />
        <circle cx="0" cy="0" r="10.80" fill="#fff7f0" fill-opacity="0.72" />
      </g>
    </g>
    
    <g transform="translate(216.11 514.60) rotate(19.43)">
      <path d="M 0 0 C -8 110.19, 10 183.65, -6 269.35" stroke="#8da78b" stroke-width="14.69" fill="none" stroke-linecap="round" />
      <ellipse cx="-20" cy="134.68" rx="26.94" ry="51.42" fill="#8da78b" fill-opacity="0.75" transform="rotate(-24)" />
      <ellipse cx="28" cy="166.51" rx="24.49" ry="46.52" fill="#8da78b" fill-opacity="0.66" transform="rotate(20)" />
      <g transform="translate(0 0)">
        <ellipse cx="34.28" cy="0.00" rx="22.04" ry="34.28" fill="#d7e5d5" fill-opacity="0.95" /><ellipse cx="24.24" cy="24.24" rx="22.04" ry="34.28" fill="#d7e5d5" fill-opacity="0.95" /><ellipse cx="0.00" cy="34.28" rx="22.04" ry="34.28" fill="#d7e5d5" fill-opacity="0.95" /><ellipse cx="-24.24" cy="24.24" rx="22.04" ry="34.28" fill="#d7e5d5" fill-opacity="0.95" /><ellipse cx="-34.28" cy="0.00" rx="22.04" ry="34.28" fill="#d7e5d5" fill-opacity="0.95" /><ellipse cx="-24.24" cy="-24.24" rx="22.04" ry="34.28" fill="#d7e5d5" fill-opacity="0.95" /><ellipse cx="-0.00" cy="-34.28" rx="22.04" ry="34.28" fill="#d7e5d5" fill-opacity="0.95" /><ellipse cx="24.24" cy="-24.24" rx="22.04" ry="34.28" fill="#d7e5d5" fill-opacity="0.95" />
        <circle cx="0" cy="0" r="22.04" fill="#d5c0a8" />
        <circle cx="0" cy="0" r="11.02" fill="#fff7f0" fill-opacity="0.72" />
      </g>
    </g>
    
    <g transform="translate(405.11 530.67) rotate(-6.20)">
      <path d="M 0 0 C -8 92.09, 10 153.48, -6 225.10" stroke="#6f8d6e" stroke-width="12.28" fill="none" stroke-linecap="round" />
      <ellipse cx="-20" cy="112.55" rx="22.51" ry="42.97" fill="#6f8d6e" fill-opacity="0.75" transform="rotate(-24)" />
      <ellipse cx="28" cy="139.15" rx="20.46" ry="38.88" fill="#6f8d6e" fill-opacity="0.66" transform="rotate(20)" />
      <g transform="translate(0 0)">
        <ellipse cx="28.65" cy="0.00" rx="18.42" ry="28.65" fill="#f7f5ef" fill-opacity="0.95" /><ellipse cx="20.26" cy="20.26" rx="18.42" ry="28.65" fill="#f7f5ef" fill-opacity="0.95" /><ellipse cx="0.00" cy="28.65" rx="18.42" ry="28.65" fill="#f7f5ef" fill-opacity="0.95" /><ellipse cx="-20.26" cy="20.26" rx="18.42" ry="28.65" fill="#f7f5ef" fill-opacity="0.95" /><ellipse cx="-28.65" cy="0.00" rx="18.42" ry="28.65" fill="#f7f5ef" fill-opacity="0.95" /><ellipse cx="-20.26" cy="-20.26" rx="18.42" ry="28.65" fill="#f7f5ef" fill-opacity="0.95" /><ellipse cx="-0.00" cy="-28.65" rx="18.42" ry="28.65" fill="#f7f5ef" fill-opacity="0.95" /><ellipse cx="20.26" cy="-20.26" rx="18.42" ry="28.65" fill="#f7f5ef" fill-opacity="0.95" />
        <circle cx="0" cy="0" r="18.42" fill="#d5c0a8" />
        <circle cx="0" cy="0" r="9.21" fill="#fff7f0" fill-opacity="0.72" />
      </g>
    </g>
    
    <g transform="translate(341.74 557.09) rotate(-4.60)">
      <path d="M 0 0 C -8 112.75, 10 187.91, -6 275.60" stroke="#a7b99d" stroke-width="15.03" fill="none" stroke-linecap="round" />
      <ellipse cx="-20" cy="137.80" rx="27.56" ry="52.61" fill="#a7b99d" fill-opacity="0.75" transform="rotate(-24)" />
      <ellipse cx="28" cy="170.37" rx="25.05" ry="47.60" fill="#a7b99d" fill-opacity="0.66" transform="rotate(20)" />
      <g transform="translate(0 0)">
        <ellipse cx="35.08" cy="0.00" rx="22.55" ry="35.08" fill="#f1e3d4" fill-opacity="0.95" /><ellipse cx="24.80" cy="24.80" rx="22.55" ry="35.08" fill="#f1e3d4" fill-opacity="0.95" /><ellipse cx="0.00" cy="35.08" rx="22.55" ry="35.08" fill="#f1e3d4" fill-opacity="0.95" /><ellipse cx="-24.80" cy="24.80" rx="22.55" ry="35.08" fill="#f1e3d4" fill-opacity="0.95" /><ellipse cx="-35.08" cy="0.00" rx="22.55" ry="35.08" fill="#f1e3d4" fill-opacity="0.95" /><ellipse cx="-24.80" cy="-24.80" rx="22.55" ry="35.08" fill="#f1e3d4" fill-opacity="0.95" /><ellipse cx="-0.00" cy="-35.08" rx="22.55" ry="35.08" fill="#f1e3d4" fill-opacity="0.95" /><ellipse cx="24.80" cy="-24.80" rx="22.55" ry="35.08" fill="#f1e3d4" fill-opacity="0.95" />
        <circle cx="0" cy="0" r="22.55" fill="#d5c0a8" />
        <circle cx="0" cy="0" r="11.27" fill="#fff7f0" fill-opacity="0.72" />
      </g>
    </g>
    
    <g transform="translate(562.39 552.16) rotate(-12.55)">
      <path d="M 0 0 C -8 110.71, 10 184.51, -6 270.61" stroke="#8da78b" stroke-width="14.76" fill="none" stroke-linecap="round" />
      <ellipse cx="-20" cy="135.31" rx="27.06" ry="51.66" fill="#8da78b" fill-opacity="0.75" transform="rotate(-24)" />
      <ellipse cx="28" cy="167.29" rx="24.60" ry="46.74" fill="#8da78b" fill-opacity="0.66" transform="rotate(20)" />
      <g transform="translate(0 0)">
        <ellipse cx="34.44" cy="0.00" rx="22.14" ry="34.44" fill="#e7d8cf" fill-opacity="0.95" /><ellipse cx="24.35" cy="24.35" rx="22.14" ry="34.44" fill="#e7d8cf" fill-opacity="0.95" /><ellipse cx="0.00" cy="34.44" rx="22.14" ry="34.44" fill="#e7d8cf" fill-opacity="0.95" /><ellipse cx="-24.35" cy="24.35" rx="22.14" ry="34.44" fill="#e7d8cf" fill-opacity="0.95" /><ellipse cx="-34.44" cy="0.00" rx="22.14" ry="34.44" fill="#e7d8cf" fill-opacity="0.95" /><ellipse cx="-24.35" cy="-24.35" rx="22.14" ry="34.44" fill="#e7d8cf" fill-opacity="0.95" /><ellipse cx="-0.00" cy="-34.44" rx="22.14" ry="34.44" fill="#e7d8cf" fill-opacity="0.95" /><ellipse cx="24.35" cy="-24.35" rx="22.14" ry="34.44" fill="#e7d8cf" fill-opacity="0.95" />
        <circle cx="0" cy="0" r="22.14" fill="#d5c0a8" />
        <circle cx="0" cy="0" r="11.07" fill="#fff7f0" fill-opacity="0.72" />
      </g>
    </g>
    
  </g>
  <path d="M0 980 C220 920, 420 1030, 900 930 L900 1100 L0 1100 Z" fill="#ffffff" fill-opacity="0.22" />
</svg>
