<svg xmlns="http://www.w3.org/2000/svg" width="900" height="1100" viewBox="0 0 900 1100">
  <defs>
    <linearGradient id="bg" x1="0" y1="0" x2="0" y2="1">
      <stop offset="0%" stop-color="#f8f3ec" />
      <stop offset="100%" stop-color="#e8efe5" />
    </linearGradient>
    <filter id="shadow" x="-20%" y="-20%" width="140%" height="140%">
      <feDropShadow dx="0" dy="22" stdDeviation="24" flood-color="#6c5d4f" flood-opacity="0.12" />
    </filter>
  </defs>
  <rect width="100%" height="100%" fill="url(#bg)" />
  <circle cx="730" cy="180" r="140" fill="#ffffff" fill-opacity="0.18" />
  <circle cx="150" cy="260" r="90" fill="#ffffff" fill-opacity="0.12" />
  
      <rect x="70" y="72" width="300" height="92" rx="24" fill="#ffffff" fill-opacity="0.34" />
      <text x="98" y="120" fill="#2f3a31" font-size="32" font-family="'PingFang SC','Microsoft YaHei',sans-serif" font-weight="600">白羽手捧</text>
      <text x="98" y="152" fill="#4e6152" font-size="18" font-family="'PingFang SC','Microsoft YaHei',sans-serif">婚礼 · 迎宾区</text>
    
  <g filter="url(#shadow)">
    <path d="M250 780 L650 780 L730 1080 L170 1080 Z" fill="#ece2d6" fill-opacity="0.88" />
  </g>
  <g>
    
    <g transform="translate(265.32 329.86) rotate(14.19)">
      <path d="M 0 0 C -8 83.64, 10 139.40, -6 204.45" stroke="#8da78b" stroke-width="11.15" fill="none" stroke-linecap="round" />
      <ellipse cx="-20" cy="102.23" rx="20.45" ry="39.03" fill="#8da78b" fill-opacity="0.75" transform="rotate(-24)" />
      <ellipse cx="28" cy="126.39" rx="18.59" ry="35.31" fill="#8da78b" fill-opacity="0.66" transform="rotate(20)" />
      <g transform="translate(0 0)">
        <ellipse cx="26.02" cy="0.00" rx="16.73" ry="26.02" fill="#f7f5ef" fill-opacity="0.95" /><ellipse cx="18.40" cy="18.40" rx="16.73" ry="26.02" fill="#f7f5ef" fill-opacity="0.95" /><ellipse cx="0.00" cy="26.02" rx="16.73" ry="26.02" fill="#f7f5ef" fill-opacity="0.95" /><ellipse cx="-18.40" cy="18.40" rx="16.73" ry="26.02" fill="#f7f5ef" fill-opacity="0.95" /><ellipse cx="-26.02" cy="0.00" rx="16.73" ry="26.02" fill="#f7f5ef" fill-opacity="0.95" /><ellipse cx="-18.40" cy="-18.40" rx="16.73" ry="26.02" fill="#f7f5ef" fill-opacity="0.95" /><ellipse cx="-0.00" cy="-26.02" rx="16.73" ry="26.02" fill="#f7f5ef" fill-opacity="0.95" /><ellipse cx="18.40" cy="-18.40" rx="16.73" ry="26.02" fill="#f7f5ef" fill-opacity="0.95" />
        <circle cx="0" cy="0" r="16.73" fill="#d5c0a8" />
        <circle cx="0" cy="0" r="8.36" fill="#fff7f0" fill-opacity="0.72" />
      </g>
    </g>
    
    <g transform="translate(555.82 389.05) rotate(22.72)">
      <path d="M 0 0 C -8 113.92, 10 189.87, -6 278.48" stroke="#6f8d6e" stroke-width="15.19" fill="none" stroke-linecap="round" />
      <ellipse cx="-20" cy="139.24" rx="27.85" ry="53.16" fill="#6f8d6e" fill-opacity="0.75" transform="rotate(-24)" />
      <ellipse cx="28" cy="172.15" rx="25.32" ry="48.10" fill="#6f8d6e" fill-opacity="0.66" transform="rotate(20)" />
      <g transform="translate(0 0)">
        <ellipse cx="35.44" cy="0.00" rx="22.78" ry="35.44" fill="#f1e3d4" fill-opacity="0.95" /><ellipse cx="25.06" cy="25.06" rx="22.78" ry="35.44" fill="#f1e3d4" fill-opacity="0.95" /><ellipse cx="0.00" cy="35.44" rx="22.78" ry="35.44" fill="#f1e3d4" fill-opacity="0.95" /><ellipse cx="-25.06" cy="25.06" rx="22.78" ry="35.44" fill="#f1e3d4" fill-opacity="0.95" /><ellipse cx="-35.44" cy="0.00" rx="22.78" ry="35.44" fill="#f1e3d4" fill-opacity="0.95" /><ellipse cx="-25.06" cy="-25.06" rx="22.78" ry="35.44" fill="#f1e3d4" fill-opacity="0.95" /><ellipse cx="-0.00" cy="-35.44" rx="22.78" ry="35.44" fill="#f1e3d4" fill-opacity="0.95" /><ellipse cx="25.06" cy="-25.06" rx="22.78" ry="35.44" fill="#f1e3d4" fill-opacity="0.95" />
        <circle cx="0" cy="0" r="22.78" fill="#d5c0a8" />
        <circle cx="0" cy="0" r="11.39" fill="#fff7f0" fill-opacity="0.72" />
      </g>
    </g>
    
    <g transform="translate(307.48 388.12) rotate(-17.91)">
      <path d="M 0 0 C -8 107.81, 10 179.68, -6 263.53" stroke="#a7b99d" stroke-width="14.37" fill="none" stroke-linecap="round" />
      <ellipse cx="-20" cy="131.76" rx="26.35" ry="50.31" fill="#a7b99d" fill-opacity="0.75" transform="rotate(-24)" />
      <ellipse cx="28" cy="162.91" rx="23.96" ry="45.52" fill="#a7b99d" fill-opacity="0.66" transform="rotate(20)" />
      <g transform="translate(0 0)">
        <ellipse cx="33.54" cy="0.00" rx="21.56" ry="33.54" fill="#e7d8cf" fill-opacity="0.95" /><ellipse cx="23.72" cy="23.72" rx="21.56" ry="33.54" fill="#e7d8cf" fill-opacity="0.95" /><ellipse cx="0.00" cy="33.54" rx="21.56" ry="33.54" fill="#e7d8cf" fill-opacity="0.95" /><ellipse cx="-23.72" cy="23.72" rx="21.56" ry="33.54" fill="#e7d8cf" fill-opacity="0.95" /><ellipse cx="-33.54" cy="0.00" rx="21.56" ry="33.54" fill="#e7d8cf" fill-opacity="0.95" /><ellipse cx="-23.72" cy="-23.72" rx="21.56" ry="33.54" fill="#e7d8cf" fill-opacity="0.95" /><ellipse cx="-0.00" cy="-33.54" rx="21.56" ry="33.54" fill="#e7d8cf" fill-opacity="0.95" /><ellipse cx="23.72" cy="-23.72" rx="21.56" ry="33.54" fill="#e7d8cf" fill-opacity="0.95" />
        <circle cx="0" cy="0" r="21.56" fill="#d5c0a8" />
        <circle cx="0" cy="0" r="10.78" fill="#fff7f0" fill-opacity="0.72" />
      </g>
    </g>
    
    <g transform="translate(667.72 408.11) rotate(0.16)">
      <path d="M 0 0 C -8 99.31, 10 165.52, -6 242.76" stroke="#8da78b" stroke-width="13.24" fill="none" stroke-linecap="round" />
      <ellipse cx="-20" cy="121.38" rx="24.28" ry="46.35" fill="#8da78b" fill-opacity="0.75" transform="rotate(-24)" />
      <ellipse cx="28" cy="150.07" rx="22.07" ry="41.93" fill="#8da78b" fill-opacity="0.66" transform="rotate(20)" />
      <g transform="translate(0 0)">
        <ellipse cx="30.90" cy="0.00" rx="19.86" ry="30.90" fill="#d7e5d5" fill-opacity="0.95" /><ellipse cx="21.85" cy="21.85" rx="19.86" ry="30.90" fill="#d7e5d5" fill-opacity="0.95" /><ellipse cx="0.00" cy="30.90" rx="19.86" ry="30.90" fill="#d7e5d5" fill-opacity="0.95" /><ellipse cx="-21.85" cy="21.85" rx="19.86" ry="30.90" fill="#d7e5d5" fill-opacity="0.95" /><ellipse cx="-30.90" cy="0.00" rx="19.86" ry="30.90" fill="#d7e5d5" fill-opacity="0.95" /><ellipse cx="-21.85" cy="-21.85" rx="19.86" ry="30.90" fill="#d7e5d5" fill-opacity="0.95" /><ellipse cx="-0.00" cy="-30.90" rx="19.86" ry="30.90" fill="#d7e5d5" fill-opacity="0.95" /><ellipse cx="21.85" cy="-21.85" rx="19.86" ry="30.90" fill="#d7e5d5" fill-opacity="0.95" />
        <circle cx="0" cy="0" r="19.86" fill="#d5c0a8" />
        <circle cx="0" cy="0" r="9.93" fill="#fff7f0" fill-opacity="0.72" />
      </g>
    </g>
    
    <g transform="translate(577.16 424.55) rotate(6.43)">
      <path d="M 0 0 C -8 91.48, 10 152.47, -6 223.62" stroke="#6f8d6e" stroke-width="12.20" fill="none" stroke-linecap="round" />
      <ellipse cx="-20" cy="111.81" rx="22.36" ry="42.69" fill="#6f8d6e" fill-opacity="0.75" transform="rotate(-24)" />
      <ellipse cx="28" cy="138.24" rx="20.33" ry="38.63" fill="#6f8d6e" fill-opacity="0.66" transform="rotate(20)" />
      <g transform="translate(0 0)">
        <ellipse cx="28.46" cy="0.00" rx="18.30" ry="28.46" fill="#f7f5ef" fill-opacity="0.95" /><ellipse cx="20.12" cy="20.12" rx="18.30" ry="28.46" fill="#f7f5ef" fill-opacity="0.95" /><ellipse cx="0.00" cy="28.46" rx="18.30" ry="28.46" fill="#f7f5ef" fill-opacity="0.95" /><ellipse cx="-20.12" cy="20.12" rx="18.30" ry="28.46" fill="#f7f5ef" fill-opacity="0.95" /><ellipse cx="-28.46" cy="0.00" rx="18.30" ry="28.46" fill="#f7f5ef" fill-opacity="0.95" /><ellipse cx="-20.12" cy="-20.12" rx="18.30" ry="28.46" fill="#f7f5ef" fill-opacity="0.95" /><ellipse cx="-0.00" cy="-28.46" rx="18.30" ry="28.46" fill="#f7f5ef" fill-opacity="0.95" /><ellipse cx="20.12" cy="-20.12" rx="18.30" ry="28.46" fill="#f7f5ef" fill-opacity="0.95" />
        <circle cx="0" cy="0" r="18.30" fill="#d5c0a8" />
        <circle cx="0" cy="0" r="9.15" fill="#fff7f0" fill-opacity="0.72" />
      </g>
    </g>
    
    <g transform="translate(433.03 545.01) rotate(25.44)">
      <path d="M 0 0 C -8 99.93, 10 166.56, -6 244.28" stroke="#a7b99d" stroke-width="13.32" fill="none" stroke-linecap="round" />
      <ellipse cx="-20" cy="122.14" rx="24.43" ry="46.64" fill="#a7b99d" fill-opacity="0.75" transform="rotate(-24)" />
      <ellipse cx="28" cy="151.01" rx="22.21" ry="42.19" fill="#a7b99d" fill-opacity="0.66" transform="rotate(20)" />
      <g transform="translate(0 0)">
        <ellipse cx="31.09" cy="0.00" rx="19.99" ry="31.09" fill="#f1e3d4" fill-opacity="0.95" /><ellipse cx="21.98" cy="21.98" rx="19.99" ry="31.09" fill="#f1e3d4" fill-opacity="0.95" /><ellipse cx="0.00" cy="31.09" rx="19.99" ry="31.09" fill="#f1e3d4" fill-opacity="0.95" /><ellipse cx="-21.98" cy="21.98" rx="19.99" ry="31.09" fill="#f1e3d4" fill-opacity="0.95" /><ellipse cx="-31.09" cy="0.00" rx="19.99" ry="31.09" fill="#f1e3d4" fill-opacity="0.95" /><ellipse cx="-21.98" cy="-21.98" rx="19.99" ry="31.09" fill="#f1e3d4" fill-opacity="0.95" /><ellipse cx="-0.00" cy="-31.09" rx="19.99" ry="31.09" fill="#f1e3d4" fill-opacity="0.95" /><ellipse cx="21.98" cy="-21.98" rx="19.99" ry="31.09" fill="#f1e3d4" fill-opacity="0.95" />
        <circle cx="0" cy="0" r="19.99" fill="#d5c0a8" />
        <circle cx="0" cy="0" r="9.99" fill="#fff7f0" fill-opacity="0.72" />
      </g>
    </g>
    
    <g transform="translate(295.92 464.39) rotate(-13.11)">
      <path d="M 0 0 C -8 72.50, 10 120.83, -6 177.21" stroke="#8da78b" stroke-width="9.67" fill="none" stroke-linecap="round" />
      <ellipse cx="-20" cy="88.61" rx="17.72" ry="33.83" fill="#8da78b" fill-opacity="0.75" transform="rotate(-24)" />
      <ellipse cx="28" cy="109.55" rx="16.11" ry="30.61" fill="#8da78b" fill-opacity="0.66" transform="rotate(20)" />
      <g transform="translate(0 0)">
        <ellipse cx="22.55" cy="0.00" rx="14.50" ry="22.55" fill="#e7d8cf" fill-opacity="0.95" /><ellipse cx="15.95" cy="15.95" rx="14.50" ry="22.55" fill="#e7d8cf" fill-opacity="0.95" /><ellipse cx="0.00" cy="22.55" rx="14.50" ry="22.55" fill="#e7d8cf" fill-opacity="0.95" /><ellipse cx="-15.95" cy="15.95" rx="14.50" ry="22.55" fill="#e7d8cf" fill-opacity="0.95" /><ellipse cx="-22.55" cy="0.00" rx="14.50" ry="22.55" fill="#e7d8cf" fill-opacity="0.95" /><ellipse cx="-15.95" cy="-15.95" rx="14.50" ry="22.55" fill="#e7d8cf" fill-opacity="0.95" /><ellipse cx="-0.00" cy="-22.55" rx="14.50" ry="22.55" fill="#e7d8cf" fill-opacity="0.95" /><ellipse cx="15.95" cy="-15.95" rx="14.50" ry="22.55" fill="#e7d8cf" fill-opacity="0.95" />
        <circle cx="0" cy="0" r="14.50" fill="#d5c0a8" />
        <circle cx="0" cy="0" r="7.25" fill="#fff7f0" fill-opacity="0.72" />
      </g>
    </g>
    
  </g>
  <path d="M0 980 C220 920, 420 1030, 900 930 L900 1100 L0 1100 Z" fill="#ffffff" fill-opacity="0.22" />
</svg>
