<svg xmlns="http://www.w3.org/2000/svg" width="900" height="1100" viewBox="0 0 900 1100">
  <defs>
    <linearGradient id="bg" x1="0" y1="0" x2="0" y2="1">
      <stop offset="0%" stop-color="#f8f3ec" />
      <stop offset="100%" stop-color="#e8efe5" />
    </linearGradient>
    <filter id="shadow" x="-20%" y="-20%" width="140%" height="140%">
      <feDropShadow dx="0" dy="22" stdDeviation="24" flood-color="#6c5d4f" flood-opacity="0.12" />
    </filter>
  </defs>
  <rect width="100%" height="100%" fill="url(#bg)" />
  <circle cx="730" cy="180" r="140" fill="#ffffff" fill-opacity="0.18" />
  <circle cx="150" cy="260" r="90" fill="#ffffff" fill-opacity="0.12" />
  
      <rect x="70" y="72" width="300" height="92" rx="24" fill="#ffffff" fill-opacity="0.34" />
      <text x="98" y="120" fill="#2f3a31" font-size="32" font-family="'PingFang SC','Microsoft YaHei',sans-serif" font-weight="600">香槟晨礼</text>
      <text x="98" y="152" fill="#4e6152" font-size="18" font-family="'PingFang SC','Microsoft YaHei',sans-serif">婚礼 · 香槟色</text>
    
  <g filter="url(#shadow)">
    <path d="M250 780 L650 780 L730 1080 L170 1080 Z" fill="#ece2d6" fill-opacity="0.88" />
  </g>
  <g>
    
    <g transform="translate(297.53 449.02) rotate(-10.25)">
      <path d="M 0 0 C -8 99.29, 10 165.48, -6 242.71" stroke="#8da78b" stroke-width="13.24" fill="none" stroke-linecap="round" />
      <ellipse cx="-20" cy="121.35" rx="24.27" ry="46.33" fill="#8da78b" fill-opacity="0.75" transform="rotate(-24)" />
      <ellipse cx="28" cy="150.04" rx="22.06" ry="41.92" fill="#8da78b" fill-opacity="0.66" transform="rotate(20)" />
      <g transform="translate(0 0)">
        <ellipse cx="30.89" cy="0.00" rx="19.86" ry="30.89" fill="#f7f5ef" fill-opacity="0.95" /><ellipse cx="21.84" cy="21.84" rx="19.86" ry="30.89" fill="#f7f5ef" fill-opacity="0.95" /><ellipse cx="0.00" cy="30.89" rx="19.86" ry="30.89" fill="#f7f5ef" fill-opacity="0.95" /><ellipse cx="-21.84" cy="21.84" rx="19.86" ry="30.89" fill="#f7f5ef" fill-opacity="0.95" /><ellipse cx="-30.89" cy="0.00" rx="19.86" ry="30.89" fill="#f7f5ef" fill-opacity="0.95" /><ellipse cx="-21.84" cy="-21.84" rx="19.86" ry="30.89" fill="#f7f5ef" fill-opacity="0.95" /><ellipse cx="-0.00" cy="-30.89" rx="19.86" ry="30.89" fill="#f7f5ef" fill-opacity="0.95" /><ellipse cx="21.84" cy="-21.84" rx="19.86" ry="30.89" fill="#f7f5ef" fill-opacity="0.95" />
        <circle cx="0" cy="0" r="19.86" fill="#d5c0a8" />
        <circle cx="0" cy="0" r="9.93" fill="#fff7f0" fill-opacity="0.72" />
      </g>
    </g>
    
    <g transform="translate(548.25 325.21) rotate(-19.60)">
      <path d="M 0 0 C -8 112.92, 10 188.20, -6 276.03" stroke="#6f8d6e" stroke-width="15.06" fill="none" stroke-linecap="round" />
      <ellipse cx="-20" cy="138.01" rx="27.60" ry="52.70" fill="#6f8d6e" fill-opacity="0.75" transform="rotate(-24)" />
      <ellipse cx="28" cy="170.64" rx="25.09" ry="47.68" fill="#6f8d6e" fill-opacity="0.66" transform="rotate(20)" />
      <g transform="translate(0 0)">
        <ellipse cx="35.13" cy="0.00" rx="22.58" ry="35.13" fill="#f1e3d4" fill-opacity="0.95" /><ellipse cx="24.84" cy="24.84" rx="22.58" ry="35.13" fill="#f1e3d4" fill-opacity="0.95" /><ellipse cx="0.00" cy="35.13" rx="22.58" ry="35.13" fill="#f1e3d4" fill-opacity="0.95" /><ellipse cx="-24.84" cy="24.84" rx="22.58" ry="35.13" fill="#f1e3d4" fill-opacity="0.95" /><ellipse cx="-35.13" cy="0.00" rx="22.58" ry="35.13" fill="#f1e3d4" fill-opacity="0.95" /><ellipse cx="-24.84" cy="-24.84" rx="22.58" ry="35.13" fill="#f1e3d4" fill-opacity="0.95" /><ellipse cx="-0.00" cy="-35.13" rx="22.58" ry="35.13" fill="#f1e3d4" fill-opacity="0.95" /><ellipse cx="24.84" cy="-24.84" rx="22.58" ry="35.13" fill="#f1e3d4" fill-opacity="0.95" />
        <circle cx="0" cy="0" r="22.58" fill="#d5c0a8" />
        <circle cx="0" cy="0" r="11.29" fill="#fff7f0" fill-opacity="0.72" />
      </g>
    </g>
    
    <g transform="translate(268.81 547.00) rotate(18.95)">
      <path d="M 0 0 C -8 105.07, 10 175.12, -6 256.84" stroke="#a7b99d" stroke-width="14.01" fill="none" stroke-linecap="round" />
      <ellipse cx="-20" cy="128.42" rx="25.68" ry="49.03" fill="#a7b99d" fill-opacity="0.75" transform="rotate(-24)" />
      <ellipse cx="28" cy="158.78" rx="23.35" ry="44.36" fill="#a7b99d" fill-opacity="0.66" transform="rotate(20)" />
      <g transform="translate(0 0)">
        <ellipse cx="32.69" cy="0.00" rx="21.01" ry="32.69" fill="#e7d8cf" fill-opacity="0.95" /><ellipse cx="23.11" cy="23.11" rx="21.01" ry="32.69" fill="#e7d8cf" fill-opacity="0.95" /><ellipse cx="0.00" cy="32.69" rx="21.01" ry="32.69" fill="#e7d8cf" fill-opacity="0.95" /><ellipse cx="-23.11" cy="23.11" rx="21.01" ry="32.69" fill="#e7d8cf" fill-opacity="0.95" /><ellipse cx="-32.69" cy="0.00" rx="21.01" ry="32.69" fill="#e7d8cf" fill-opacity="0.95" /><ellipse cx="-23.11" cy="-23.11" rx="21.01" ry="32.69" fill="#e7d8cf" fill-opacity="0.95" /><ellipse cx="-0.00" cy="-32.69" rx="21.01" ry="32.69" fill="#e7d8cf" fill-opacity="0.95" /><ellipse cx="23.11" cy="-23.11" rx="21.01" ry="32.69" fill="#e7d8cf" fill-opacity="0.95" />
        <circle cx="0" cy="0" r="21.01" fill="#d5c0a8" />
        <circle cx="0" cy="0" r="10.51" fill="#fff7f0" fill-opacity="0.72" />
      </g>
    </g>
    
    <g transform="translate(669.53 364.53) rotate(-25.17)">
      <path d="M 0 0 C -8 78.11, 10 130.18, -6 190.93" stroke="#8da78b" stroke-width="10.41" fill="none" stroke-linecap="round" />
      <ellipse cx="-20" cy="95.47" rx="19.09" ry="36.45" fill="#8da78b" fill-opacity="0.75" transform="rotate(-24)" />
      <ellipse cx="28" cy="118.03" rx="17.36" ry="32.98" fill="#8da78b" fill-opacity="0.66" transform="rotate(20)" />
      <g transform="translate(0 0)">
        <ellipse cx="24.30" cy="0.00" rx="15.62" ry="24.30" fill="#d7e5d5" fill-opacity="0.95" /><ellipse cx="17.18" cy="17.18" rx="15.62" ry="24.30" fill="#d7e5d5" fill-opacity="0.95" /><ellipse cx="0.00" cy="24.30" rx="15.62" ry="24.30" fill="#d7e5d5" fill-opacity="0.95" /><ellipse cx="-17.18" cy="17.18" rx="15.62" ry="24.30" fill="#d7e5d5" fill-opacity="0.95" /><ellipse cx="-24.30" cy="0.00" rx="15.62" ry="24.30" fill="#d7e5d5" fill-opacity="0.95" /><ellipse cx="-17.18" cy="-17.18" rx="15.62" ry="24.30" fill="#d7e5d5" fill-opacity="0.95" /><ellipse cx="-0.00" cy="-24.30" rx="15.62" ry="24.30" fill="#d7e5d5" fill-opacity="0.95" /><ellipse cx="17.18" cy="-17.18" rx="15.62" ry="24.30" fill="#d7e5d5" fill-opacity="0.95" />
        <circle cx="0" cy="0" r="15.62" fill="#d5c0a8" />
        <circle cx="0" cy="0" r="7.81" fill="#fff7f0" fill-opacity="0.72" />
      </g>
    </g>
    
    <g transform="translate(323.53 306.46) rotate(-13.49)">
      <path d="M 0 0 C -8 87.02, 10 145.03, -6 212.71" stroke="#6f8d6e" stroke-width="11.60" fill="none" stroke-linecap="round" />
      <ellipse cx="-20" cy="106.36" rx="21.27" ry="40.61" fill="#6f8d6e" fill-opacity="0.75" transform="rotate(-24)" />
      <ellipse cx="28" cy="131.49" rx="19.34" ry="36.74" fill="#6f8d6e" fill-opacity="0.66" transform="rotate(20)" />
      <g transform="translate(0 0)">
        <ellipse cx="27.07" cy="0.00" rx="17.40" ry="27.07" fill="#f7f5ef" fill-opacity="0.95" /><ellipse cx="19.14" cy="19.14" rx="17.40" ry="27.07" fill="#f7f5ef" fill-opacity="0.95" /><ellipse cx="0.00" cy="27.07" rx="17.40" ry="27.07" fill="#f7f5ef" fill-opacity="0.95" /><ellipse cx="-19.14" cy="19.14" rx="17.40" ry="27.07" fill="#f7f5ef" fill-opacity="0.95" /><ellipse cx="-27.07" cy="0.00" rx="17.40" ry="27.07" fill="#f7f5ef" fill-opacity="0.95" /><ellipse cx="-19.14" cy="-19.14" rx="17.40" ry="27.07" fill="#f7f5ef" fill-opacity="0.95" /><ellipse cx="-0.00" cy="-27.07" rx="17.40" ry="27.07" fill="#f7f5ef" fill-opacity="0.95" /><ellipse cx="19.14" cy="-19.14" rx="17.40" ry="27.07" fill="#f7f5ef" fill-opacity="0.95" />
        <circle cx="0" cy="0" r="17.40" fill="#d5c0a8" />
        <circle cx="0" cy="0" r="8.70" fill="#fff7f0" fill-opacity="0.72" />
      </g>
    </g>
    
    <g transform="translate(426.78 329.73) rotate(9.23)">
      <path d="M 0 0 C -8 82.38, 10 137.30, -6 201.37" stroke="#a7b99d" stroke-width="10.98" fill="none" stroke-linecap="round" />
      <ellipse cx="-20" cy="100.68" rx="20.14" ry="38.44" fill="#a7b99d" fill-opacity="0.75" transform="rotate(-24)" />
      <ellipse cx="28" cy="124.48" rx="18.31" ry="34.78" fill="#a7b99d" fill-opacity="0.66" transform="rotate(20)" />
      <g transform="translate(0 0)">
        <ellipse cx="25.63" cy="0.00" rx="16.48" ry="25.63" fill="#f1e3d4" fill-opacity="0.95" /><ellipse cx="18.12" cy="18.12" rx="16.48" ry="25.63" fill="#f1e3d4" fill-opacity="0.95" /><ellipse cx="0.00" cy="25.63" rx="16.48" ry="25.63" fill="#f1e3d4" fill-opacity="0.95" /><ellipse cx="-18.12" cy="18.12" rx="16.48" ry="25.63" fill="#f1e3d4" fill-opacity="0.95" /><ellipse cx="-25.63" cy="0.00" rx="16.48" ry="25.63" fill="#f1e3d4" fill-opacity="0.95" /><ellipse cx="-18.12" cy="-18.12" rx="16.48" ry="25.63" fill="#f1e3d4" fill-opacity="0.95" /><ellipse cx="-0.00" cy="-25.63" rx="16.48" ry="25.63" fill="#f1e3d4" fill-opacity="0.95" /><ellipse cx="18.12" cy="-18.12" rx="16.48" ry="25.63" fill="#f1e3d4" fill-opacity="0.95" />
        <circle cx="0" cy="0" r="16.48" fill="#d5c0a8" />
        <circle cx="0" cy="0" r="8.24" fill="#fff7f0" fill-opacity="0.72" />
      </g>
    </g>
    
    <g transform="translate(685.47 521.59) rotate(-14.71)">
      <path d="M 0 0 C -8 96.35, 10 160.58, -6 235.52" stroke="#8da78b" stroke-width="12.85" fill="none" stroke-linecap="round" />
      <ellipse cx="-20" cy="117.76" rx="23.55" ry="44.96" fill="#8da78b" fill-opacity="0.75" transform="rotate(-24)" />
      <ellipse cx="28" cy="145.60" rx="21.41" ry="40.68" fill="#8da78b" fill-opacity="0.66" transform="rotate(20)" />
      <g transform="translate(0 0)">
        <ellipse cx="29.98" cy="0.00" rx="19.27" ry="29.98" fill="#e7d8cf" fill-opacity="0.95" /><ellipse cx="21.20" cy="21.20" rx="19.27" ry="29.98" fill="#e7d8cf" fill-opacity="0.95" /><ellipse cx="0.00" cy="29.98" rx="19.27" ry="29.98" fill="#e7d8cf" fill-opacity="0.95" /><ellipse cx="-21.20" cy="21.20" rx="19.27" ry="29.98" fill="#e7d8cf" fill-opacity="0.95" /><ellipse cx="-29.98" cy="0.00" rx="19.27" ry="29.98" fill="#e7d8cf" fill-opacity="0.95" /><ellipse cx="-21.20" cy="-21.20" rx="19.27" ry="29.98" fill="#e7d8cf" fill-opacity="0.95" /><ellipse cx="-0.00" cy="-29.98" rx="19.27" ry="29.98" fill="#e7d8cf" fill-opacity="0.95" /><ellipse cx="21.20" cy="-21.20" rx="19.27" ry="29.98" fill="#e7d8cf" fill-opacity="0.95" />
        <circle cx="0" cy="0" r="19.27" fill="#d5c0a8" />
        <circle cx="0" cy="0" r="9.64" fill="#fff7f0" fill-opacity="0.72" />
      </g>
    </g>
    
    <g transform="translate(368.11 513.35) rotate(24.26)">
      <path d="M 0 0 C -8 102.86, 10 171.43, -6 251.43" stroke="#6f8d6e" stroke-width="13.71" fill="none" stroke-linecap="round" />
      <ellipse cx="-20" cy="125.72" rx="25.14" ry="48.00" fill="#6f8d6e" fill-opacity="0.75" transform="rotate(-24)" />
      <ellipse cx="28" cy="155.43" rx="22.86" ry="43.43" fill="#6f8d6e" fill-opacity="0.66" transform="rotate(20)" />
      <g transform="translate(0 0)">
        <ellipse cx="32.00" cy="0.00" rx="20.57" ry="32.00" fill="#d7e5d5" fill-opacity="0.95" /><ellipse cx="22.63" cy="22.63" rx="20.57" ry="32.00" fill="#d7e5d5" fill-opacity="0.95" /><ellipse cx="0.00" cy="32.00" rx="20.57" ry="32.00" fill="#d7e5d5" fill-opacity="0.95" /><ellipse cx="-22.63" cy="22.63" rx="20.57" ry="32.00" fill="#d7e5d5" fill-opacity="0.95" /><ellipse cx="-32.00" cy="0.00" rx="20.57" ry="32.00" fill="#d7e5d5" fill-opacity="0.95" /><ellipse cx="-22.63" cy="-22.63" rx="20.57" ry="32.00" fill="#d7e5d5" fill-opacity="0.95" /><ellipse cx="-0.00" cy="-32.00" rx="20.57" ry="32.00" fill="#d7e5d5" fill-opacity="0.95" /><ellipse cx="22.63" cy="-22.63" rx="20.57" ry="32.00" fill="#d7e5d5" fill-opacity="0.95" />
        <circle cx="0" cy="0" r="20.57" fill="#d5c0a8" />
        <circle cx="0" cy="0" r="10.29" fill="#fff7f0" fill-opacity="0.72" />
      </g>
    </g>
    
  </g>
  <path d="M0 980 C220 920, 420 1030, 900 930 L900 1100 L0 1100 Z" fill="#ffffff" fill-opacity="0.22" />
</svg>
