<svg xmlns="http://www.w3.org/2000/svg" width="900" height="1100" viewBox="0 0 900 1100">
  <defs>
    <linearGradient id="bg" x1="0" y1="0" x2="0" y2="1">
      <stop offset="0%" stop-color="#f8f3ec" />
      <stop offset="100%" stop-color="#e8efe5" />
    </linearGradient>
    <filter id="shadow" x="-20%" y="-20%" width="140%" height="140%">
      <feDropShadow dx="0" dy="22" stdDeviation="24" flood-color="#6c5d4f" flood-opacity="0.12" />
    </filter>
  </defs>
  <rect width="100%" height="100%" fill="url(#bg)" />
  <circle cx="730" cy="180" r="140" fill="#ffffff" fill-opacity="0.18" />
  <circle cx="150" cy="260" r="90" fill="#ffffff" fill-opacity="0.12" />
  
      <rect x="70" y="72" width="300" height="92" rx="24" fill="#ffffff" fill-opacity="0.34" />
      <text x="98" y="120" fill="#2f3a31" font-size="32" font-family="'PingFang SC','Microsoft YaHei',sans-serif" font-weight="600">庄园回响</text>
      <text x="98" y="152" fill="#4e6152" font-size="18" font-family="'PingFang SC','Microsoft YaHei',sans-serif">婚礼 · 迎宾区</text>
    
  <g filter="url(#shadow)">
    <path d="M250 780 L650 780 L730 1080 L170 1080 Z" fill="#ece2d6" fill-opacity="0.88" />
  </g>
  <g>
    
    <g transform="translate(610.06 474.09) rotate(6.40)">
      <path d="M 0 0 C -8 76.17, 10 126.94, -6 186.18" stroke="#8da78b" stroke-width="10.16" fill="none" stroke-linecap="round" />
      <ellipse cx="-20" cy="93.09" rx="18.62" ry="35.54" fill="#8da78b" fill-opacity="0.75" transform="rotate(-24)" />
      <ellipse cx="28" cy="115.09" rx="16.93" ry="32.16" fill="#8da78b" fill-opacity="0.66" transform="rotate(20)" />
      <g transform="translate(0 0)">
        <ellipse cx="23.70" cy="0.00" rx="15.23" ry="23.70" fill="#f7f5ef" fill-opacity="0.95" /><ellipse cx="16.76" cy="16.76" rx="15.23" ry="23.70" fill="#f7f5ef" fill-opacity="0.95" /><ellipse cx="0.00" cy="23.70" rx="15.23" ry="23.70" fill="#f7f5ef" fill-opacity="0.95" /><ellipse cx="-16.76" cy="16.76" rx="15.23" ry="23.70" fill="#f7f5ef" fill-opacity="0.95" /><ellipse cx="-23.70" cy="0.00" rx="15.23" ry="23.70" fill="#f7f5ef" fill-opacity="0.95" /><ellipse cx="-16.76" cy="-16.76" rx="15.23" ry="23.70" fill="#f7f5ef" fill-opacity="0.95" /><ellipse cx="-0.00" cy="-23.70" rx="15.23" ry="23.70" fill="#f7f5ef" fill-opacity="0.95" /><ellipse cx="16.76" cy="-16.76" rx="15.23" ry="23.70" fill="#f7f5ef" fill-opacity="0.95" />
        <circle cx="0" cy="0" r="15.23" fill="#d5c0a8" />
        <circle cx="0" cy="0" r="7.62" fill="#fff7f0" fill-opacity="0.72" />
      </g>
    </g>
    
    <g transform="translate(415.55 359.13) rotate(-0.67)">
      <path d="M 0 0 C -8 81.04, 10 135.06, -6 198.09" stroke="#6f8d6e" stroke-width="10.80" fill="none" stroke-linecap="round" />
      <ellipse cx="-20" cy="99.04" rx="19.81" ry="37.82" fill="#6f8d6e" fill-opacity="0.75" transform="rotate(-24)" />
      <ellipse cx="28" cy="122.45" rx="18.01" ry="34.21" fill="#6f8d6e" fill-opacity="0.66" transform="rotate(20)" />
      <g transform="translate(0 0)">
        <ellipse cx="25.21" cy="0.00" rx="16.21" ry="25.21" fill="#f1e3d4" fill-opacity="0.95" /><ellipse cx="17.83" cy="17.83" rx="16.21" ry="25.21" fill="#f1e3d4" fill-opacity="0.95" /><ellipse cx="0.00" cy="25.21" rx="16.21" ry="25.21" fill="#f1e3d4" fill-opacity="0.95" /><ellipse cx="-17.83" cy="17.83" rx="16.21" ry="25.21" fill="#f1e3d4" fill-opacity="0.95" /><ellipse cx="-25.21" cy="0.00" rx="16.21" ry="25.21" fill="#f1e3d4" fill-opacity="0.95" /><ellipse cx="-17.83" cy="-17.83" rx="16.21" ry="25.21" fill="#f1e3d4" fill-opacity="0.95" /><ellipse cx="-0.00" cy="-25.21" rx="16.21" ry="25.21" fill="#f1e3d4" fill-opacity="0.95" /><ellipse cx="17.83" cy="-17.83" rx="16.21" ry="25.21" fill="#f1e3d4" fill-opacity="0.95" />
        <circle cx="0" cy="0" r="16.21" fill="#d5c0a8" />
        <circle cx="0" cy="0" r="8.10" fill="#fff7f0" fill-opacity="0.72" />
      </g>
    </g>
    
    <g transform="translate(429.75 505.94) rotate(-16.70)">
      <path d="M 0 0 C -8 104.65, 10 174.42, -6 255.82" stroke="#a7b99d" stroke-width="13.95" fill="none" stroke-linecap="round" />
      <ellipse cx="-20" cy="127.91" rx="25.58" ry="48.84" fill="#a7b99d" fill-opacity="0.75" transform="rotate(-24)" />
      <ellipse cx="28" cy="158.14" rx="23.26" ry="44.19" fill="#a7b99d" fill-opacity="0.66" transform="rotate(20)" />
      <g transform="translate(0 0)">
        <ellipse cx="32.56" cy="0.00" rx="20.93" ry="32.56" fill="#e7d8cf" fill-opacity="0.95" /><ellipse cx="23.02" cy="23.02" rx="20.93" ry="32.56" fill="#e7d8cf" fill-opacity="0.95" /><ellipse cx="0.00" cy="32.56" rx="20.93" ry="32.56" fill="#e7d8cf" fill-opacity="0.95" /><ellipse cx="-23.02" cy="23.02" rx="20.93" ry="32.56" fill="#e7d8cf" fill-opacity="0.95" /><ellipse cx="-32.56" cy="0.00" rx="20.93" ry="32.56" fill="#e7d8cf" fill-opacity="0.95" /><ellipse cx="-23.02" cy="-23.02" rx="20.93" ry="32.56" fill="#e7d8cf" fill-opacity="0.95" /><ellipse cx="-0.00" cy="-32.56" rx="20.93" ry="32.56" fill="#e7d8cf" fill-opacity="0.95" /><ellipse cx="23.02" cy="-23.02" rx="20.93" ry="32.56" fill="#e7d8cf" fill-opacity="0.95" />
        <circle cx="0" cy="0" r="20.93" fill="#d5c0a8" />
        <circle cx="0" cy="0" r="10.47" fill="#fff7f0" fill-opacity="0.72" />
      </g>
    </g>
    
    <g transform="translate(293.71 510.86) rotate(17.22)">
      <path d="M 0 0 C -8 101.98, 10 169.97, -6 249.29" stroke="#8da78b" stroke-width="13.60" fill="none" stroke-linecap="round" />
      <ellipse cx="-20" cy="124.65" rx="24.93" ry="47.59" fill="#8da78b" fill-opacity="0.75" transform="rotate(-24)" />
      <ellipse cx="28" cy="154.11" rx="22.66" ry="43.06" fill="#8da78b" fill-opacity="0.66" transform="rotate(20)" />
      <g transform="translate(0 0)">
        <ellipse cx="31.73" cy="0.00" rx="20.40" ry="31.73" fill="#d7e5d5" fill-opacity="0.95" /><ellipse cx="22.44" cy="22.44" rx="20.40" ry="31.73" fill="#d7e5d5" fill-opacity="0.95" /><ellipse cx="0.00" cy="31.73" rx="20.40" ry="31.73" fill="#d7e5d5" fill-opacity="0.95" /><ellipse cx="-22.44" cy="22.44" rx="20.40" ry="31.73" fill="#d7e5d5" fill-opacity="0.95" /><ellipse cx="-31.73" cy="0.00" rx="20.40" ry="31.73" fill="#d7e5d5" fill-opacity="0.95" /><ellipse cx="-22.44" cy="-22.44" rx="20.40" ry="31.73" fill="#d7e5d5" fill-opacity="0.95" /><ellipse cx="-0.00" cy="-31.73" rx="20.40" ry="31.73" fill="#d7e5d5" fill-opacity="0.95" /><ellipse cx="22.44" cy="-22.44" rx="20.40" ry="31.73" fill="#d7e5d5" fill-opacity="0.95" />
        <circle cx="0" cy="0" r="20.40" fill="#d5c0a8" />
        <circle cx="0" cy="0" r="10.20" fill="#fff7f0" fill-opacity="0.72" />
      </g>
    </g>
    
    <g transform="translate(194.85 469.58) rotate(-13.16)">
      <path d="M 0 0 C -8 106.32, 10 177.20, -6 259.89" stroke="#6f8d6e" stroke-width="14.18" fill="none" stroke-linecap="round" />
      <ellipse cx="-20" cy="129.94" rx="25.99" ry="49.61" fill="#6f8d6e" fill-opacity="0.75" transform="rotate(-24)" />
      <ellipse cx="28" cy="160.66" rx="23.63" ry="44.89" fill="#6f8d6e" fill-opacity="0.66" transform="rotate(20)" />
      <g transform="translate(0 0)">
        <ellipse cx="33.08" cy="0.00" rx="21.26" ry="33.08" fill="#f7f5ef" fill-opacity="0.95" /><ellipse cx="23.39" cy="23.39" rx="21.26" ry="33.08" fill="#f7f5ef" fill-opacity="0.95" /><ellipse cx="0.00" cy="33.08" rx="21.26" ry="33.08" fill="#f7f5ef" fill-opacity="0.95" /><ellipse cx="-23.39" cy="23.39" rx="21.26" ry="33.08" fill="#f7f5ef" fill-opacity="0.95" /><ellipse cx="-33.08" cy="0.00" rx="21.26" ry="33.08" fill="#f7f5ef" fill-opacity="0.95" /><ellipse cx="-23.39" cy="-23.39" rx="21.26" ry="33.08" fill="#f7f5ef" fill-opacity="0.95" /><ellipse cx="-0.00" cy="-33.08" rx="21.26" ry="33.08" fill="#f7f5ef" fill-opacity="0.95" /><ellipse cx="23.39" cy="-23.39" rx="21.26" ry="33.08" fill="#f7f5ef" fill-opacity="0.95" />
        <circle cx="0" cy="0" r="21.26" fill="#d5c0a8" />
        <circle cx="0" cy="0" r="10.63" fill="#fff7f0" fill-opacity="0.72" />
      </g>
    </g>
    
    <g transform="translate(439.96 409.19) rotate(-6.53)">
      <path d="M 0 0 C -8 112.04, 10 186.73, -6 273.87" stroke="#a7b99d" stroke-width="14.94" fill="none" stroke-linecap="round" />
      <ellipse cx="-20" cy="136.93" rx="27.39" ry="52.28" fill="#a7b99d" fill-opacity="0.75" transform="rotate(-24)" />
      <ellipse cx="28" cy="169.30" rx="24.90" ry="47.30" fill="#a7b99d" fill-opacity="0.66" transform="rotate(20)" />
      <g transform="translate(0 0)">
        <ellipse cx="34.86" cy="0.00" rx="22.41" ry="34.86" fill="#f1e3d4" fill-opacity="0.95" /><ellipse cx="24.65" cy="24.65" rx="22.41" ry="34.86" fill="#f1e3d4" fill-opacity="0.95" /><ellipse cx="0.00" cy="34.86" rx="22.41" ry="34.86" fill="#f1e3d4" fill-opacity="0.95" /><ellipse cx="-24.65" cy="24.65" rx="22.41" ry="34.86" fill="#f1e3d4" fill-opacity="0.95" /><ellipse cx="-34.86" cy="0.00" rx="22.41" ry="34.86" fill="#f1e3d4" fill-opacity="0.95" /><ellipse cx="-24.65" cy="-24.65" rx="22.41" ry="34.86" fill="#f1e3d4" fill-opacity="0.95" /><ellipse cx="-0.00" cy="-34.86" rx="22.41" ry="34.86" fill="#f1e3d4" fill-opacity="0.95" /><ellipse cx="24.65" cy="-24.65" rx="22.41" ry="34.86" fill="#f1e3d4" fill-opacity="0.95" />
        <circle cx="0" cy="0" r="22.41" fill="#d5c0a8" />
        <circle cx="0" cy="0" r="11.20" fill="#fff7f0" fill-opacity="0.72" />
      </g>
    </g>
    
    <g transform="translate(566.79 528.43) rotate(21.55)">
      <path d="M 0 0 C -8 71.14, 10 118.56, -6 173.89" stroke="#8da78b" stroke-width="9.49" fill="none" stroke-linecap="round" />
      <ellipse cx="-20" cy="86.95" rx="17.39" ry="33.20" fill="#8da78b" fill-opacity="0.75" transform="rotate(-24)" />
      <ellipse cx="28" cy="107.50" rx="15.81" ry="30.04" fill="#8da78b" fill-opacity="0.66" transform="rotate(20)" />
      <g transform="translate(0 0)">
        <ellipse cx="22.13" cy="0.00" rx="14.23" ry="22.13" fill="#e7d8cf" fill-opacity="0.95" /><ellipse cx="15.65" cy="15.65" rx="14.23" ry="22.13" fill="#e7d8cf" fill-opacity="0.95" /><ellipse cx="0.00" cy="22.13" rx="14.23" ry="22.13" fill="#e7d8cf" fill-opacity="0.95" /><ellipse cx="-15.65" cy="15.65" rx="14.23" ry="22.13" fill="#e7d8cf" fill-opacity="0.95" /><ellipse cx="-22.13" cy="0.00" rx="14.23" ry="22.13" fill="#e7d8cf" fill-opacity="0.95" /><ellipse cx="-15.65" cy="-15.65" rx="14.23" ry="22.13" fill="#e7d8cf" fill-opacity="0.95" /><ellipse cx="-0.00" cy="-22.13" rx="14.23" ry="22.13" fill="#e7d8cf" fill-opacity="0.95" /><ellipse cx="15.65" cy="-15.65" rx="14.23" ry="22.13" fill="#e7d8cf" fill-opacity="0.95" />
        <circle cx="0" cy="0" r="14.23" fill="#d5c0a8" />
        <circle cx="0" cy="0" r="7.11" fill="#fff7f0" fill-opacity="0.72" />
      </g>
    </g>
    
  </g>
  <path d="M0 980 C220 920, 420 1030, 900 930 L900 1100 L0 1100 Z" fill="#ffffff" fill-opacity="0.22" />
</svg>
