<svg xmlns="http://www.w3.org/2000/svg" width="900" height="1100" viewBox="0 0 900 1100">
  <defs>
    <linearGradient id="bg" x1="0" y1="0" x2="0" y2="1">
      <stop offset="0%" stop-color="#f8f3ec" />
      <stop offset="100%" stop-color="#e8efe5" />
    </linearGradient>
    <filter id="shadow" x="-20%" y="-20%" width="140%" height="140%">
      <feDropShadow dx="0" dy="22" stdDeviation="24" flood-color="#6c5d4f" flood-opacity="0.12" />
    </filter>
  </defs>
  <rect width="100%" height="100%" fill="url(#bg)" />
  <circle cx="730" cy="180" r="140" fill="#ffffff" fill-opacity="0.18" />
  <circle cx="150" cy="260" r="90" fill="#ffffff" fill-opacity="0.12" />
  
      <rect x="70" y="72" width="300" height="92" rx="24" fill="#ffffff" fill-opacity="0.34" />
      <text x="98" y="120" fill="#2f3a31" font-size="32" font-family="'PingFang SC','Microsoft YaHei',sans-serif" font-weight="600">诗意迎宾</text>
      <text x="98" y="152" fill="#4e6152" font-size="18" font-family="'PingFang SC','Microsoft YaHei',sans-serif">婚礼 · 香槟色</text>
    
  <g filter="url(#shadow)">
    <path d="M250 780 L650 780 L730 1080 L170 1080 Z" fill="#ece2d6" fill-opacity="0.88" />
  </g>
  <g>
    
    <g transform="translate(404.56 511.30) rotate(13.54)">
      <path d="M 0 0 C -8 79.60, 10 132.67, -6 194.59" stroke="#8da78b" stroke-width="10.61" fill="none" stroke-linecap="round" />
      <ellipse cx="-20" cy="97.29" rx="19.46" ry="37.15" fill="#8da78b" fill-opacity="0.75" transform="rotate(-24)" />
      <ellipse cx="28" cy="120.29" rx="17.69" ry="33.61" fill="#8da78b" fill-opacity="0.66" transform="rotate(20)" />
      <g transform="translate(0 0)">
        <ellipse cx="24.77" cy="0.00" rx="15.92" ry="24.77" fill="#f7f5ef" fill-opacity="0.95" /><ellipse cx="17.51" cy="17.51" rx="15.92" ry="24.77" fill="#f7f5ef" fill-opacity="0.95" /><ellipse cx="0.00" cy="24.77" rx="15.92" ry="24.77" fill="#f7f5ef" fill-opacity="0.95" /><ellipse cx="-17.51" cy="17.51" rx="15.92" ry="24.77" fill="#f7f5ef" fill-opacity="0.95" /><ellipse cx="-24.77" cy="0.00" rx="15.92" ry="24.77" fill="#f7f5ef" fill-opacity="0.95" /><ellipse cx="-17.51" cy="-17.51" rx="15.92" ry="24.77" fill="#f7f5ef" fill-opacity="0.95" /><ellipse cx="-0.00" cy="-24.77" rx="15.92" ry="24.77" fill="#f7f5ef" fill-opacity="0.95" /><ellipse cx="17.51" cy="-17.51" rx="15.92" ry="24.77" fill="#f7f5ef" fill-opacity="0.95" />
        <circle cx="0" cy="0" r="15.92" fill="#d5c0a8" />
        <circle cx="0" cy="0" r="7.96" fill="#fff7f0" fill-opacity="0.72" />
      </g>
    </g>
    
    <g transform="translate(295.57 527.57) rotate(22.49)">
      <path d="M 0 0 C -8 114.58, 10 190.96, -6 280.08" stroke="#6f8d6e" stroke-width="15.28" fill="none" stroke-linecap="round" />
      <ellipse cx="-20" cy="140.04" rx="28.01" ry="53.47" fill="#6f8d6e" fill-opacity="0.75" transform="rotate(-24)" />
      <ellipse cx="28" cy="173.14" rx="25.46" ry="48.38" fill="#6f8d6e" fill-opacity="0.66" transform="rotate(20)" />
      <g transform="translate(0 0)">
        <ellipse cx="35.65" cy="0.00" rx="22.92" ry="35.65" fill="#f1e3d4" fill-opacity="0.95" /><ellipse cx="25.21" cy="25.21" rx="22.92" ry="35.65" fill="#f1e3d4" fill-opacity="0.95" /><ellipse cx="0.00" cy="35.65" rx="22.92" ry="35.65" fill="#f1e3d4" fill-opacity="0.95" /><ellipse cx="-25.21" cy="25.21" rx="22.92" ry="35.65" fill="#f1e3d4" fill-opacity="0.95" /><ellipse cx="-35.65" cy="0.00" rx="22.92" ry="35.65" fill="#f1e3d4" fill-opacity="0.95" /><ellipse cx="-25.21" cy="-25.21" rx="22.92" ry="35.65" fill="#f1e3d4" fill-opacity="0.95" /><ellipse cx="-0.00" cy="-35.65" rx="22.92" ry="35.65" fill="#f1e3d4" fill-opacity="0.95" /><ellipse cx="25.21" cy="-25.21" rx="22.92" ry="35.65" fill="#f1e3d4" fill-opacity="0.95" />
        <circle cx="0" cy="0" r="22.92" fill="#d5c0a8" />
        <circle cx="0" cy="0" r="11.46" fill="#fff7f0" fill-opacity="0.72" />
      </g>
    </g>
    
    <g transform="translate(206.40 314.05) rotate(-9.45)">
      <path d="M 0 0 C -8 80.03, 10 133.38, -6 195.62" stroke="#a7b99d" stroke-width="10.67" fill="none" stroke-linecap="round" />
      <ellipse cx="-20" cy="97.81" rx="19.56" ry="37.35" fill="#a7b99d" fill-opacity="0.75" transform="rotate(-24)" />
      <ellipse cx="28" cy="120.93" rx="17.78" ry="33.79" fill="#a7b99d" fill-opacity="0.66" transform="rotate(20)" />
      <g transform="translate(0 0)">
        <ellipse cx="24.90" cy="0.00" rx="16.01" ry="24.90" fill="#e7d8cf" fill-opacity="0.95" /><ellipse cx="17.61" cy="17.61" rx="16.01" ry="24.90" fill="#e7d8cf" fill-opacity="0.95" /><ellipse cx="0.00" cy="24.90" rx="16.01" ry="24.90" fill="#e7d8cf" fill-opacity="0.95" /><ellipse cx="-17.61" cy="17.61" rx="16.01" ry="24.90" fill="#e7d8cf" fill-opacity="0.95" /><ellipse cx="-24.90" cy="0.00" rx="16.01" ry="24.90" fill="#e7d8cf" fill-opacity="0.95" /><ellipse cx="-17.61" cy="-17.61" rx="16.01" ry="24.90" fill="#e7d8cf" fill-opacity="0.95" /><ellipse cx="-0.00" cy="-24.90" rx="16.01" ry="24.90" fill="#e7d8cf" fill-opacity="0.95" /><ellipse cx="17.61" cy="-17.61" rx="16.01" ry="24.90" fill="#e7d8cf" fill-opacity="0.95" />
        <circle cx="0" cy="0" r="16.01" fill="#d5c0a8" />
        <circle cx="0" cy="0" r="8.00" fill="#fff7f0" fill-opacity="0.72" />
      </g>
    </g>
    
    <g transform="translate(221.84 334.17) rotate(-14.59)">
      <path d="M 0 0 C -8 83.21, 10 138.68, -6 203.40" stroke="#8da78b" stroke-width="11.09" fill="none" stroke-linecap="round" />
      <ellipse cx="-20" cy="101.70" rx="20.34" ry="38.83" fill="#8da78b" fill-opacity="0.75" transform="rotate(-24)" />
      <ellipse cx="28" cy="125.74" rx="18.49" ry="35.13" fill="#8da78b" fill-opacity="0.66" transform="rotate(20)" />
      <g transform="translate(0 0)">
        <ellipse cx="25.89" cy="0.00" rx="16.64" ry="25.89" fill="#d7e5d5" fill-opacity="0.95" /><ellipse cx="18.31" cy="18.31" rx="16.64" ry="25.89" fill="#d7e5d5" fill-opacity="0.95" /><ellipse cx="0.00" cy="25.89" rx="16.64" ry="25.89" fill="#d7e5d5" fill-opacity="0.95" /><ellipse cx="-18.31" cy="18.31" rx="16.64" ry="25.89" fill="#d7e5d5" fill-opacity="0.95" /><ellipse cx="-25.89" cy="0.00" rx="16.64" ry="25.89" fill="#d7e5d5" fill-opacity="0.95" /><ellipse cx="-18.31" cy="-18.31" rx="16.64" ry="25.89" fill="#d7e5d5" fill-opacity="0.95" /><ellipse cx="-0.00" cy="-25.89" rx="16.64" ry="25.89" fill="#d7e5d5" fill-opacity="0.95" /><ellipse cx="18.31" cy="-18.31" rx="16.64" ry="25.89" fill="#d7e5d5" fill-opacity="0.95" />
        <circle cx="0" cy="0" r="16.64" fill="#d5c0a8" />
        <circle cx="0" cy="0" r="8.32" fill="#fff7f0" fill-opacity="0.72" />
      </g>
    </g>
    
    <g transform="translate(230.74 376.00) rotate(18.78)">
      <path d="M 0 0 C -8 85.29, 10 142.15, -6 208.49" stroke="#6f8d6e" stroke-width="11.37" fill="none" stroke-linecap="round" />
      <ellipse cx="-20" cy="104.25" rx="20.85" ry="39.80" fill="#6f8d6e" fill-opacity="0.75" transform="rotate(-24)" />
      <ellipse cx="28" cy="128.89" rx="18.95" ry="36.01" fill="#6f8d6e" fill-opacity="0.66" transform="rotate(20)" />
      <g transform="translate(0 0)">
        <ellipse cx="26.54" cy="0.00" rx="17.06" ry="26.54" fill="#f7f5ef" fill-opacity="0.95" /><ellipse cx="18.76" cy="18.76" rx="17.06" ry="26.54" fill="#f7f5ef" fill-opacity="0.95" /><ellipse cx="0.00" cy="26.54" rx="17.06" ry="26.54" fill="#f7f5ef" fill-opacity="0.95" /><ellipse cx="-18.76" cy="18.76" rx="17.06" ry="26.54" fill="#f7f5ef" fill-opacity="0.95" /><ellipse cx="-26.54" cy="0.00" rx="17.06" ry="26.54" fill="#f7f5ef" fill-opacity="0.95" /><ellipse cx="-18.76" cy="-18.76" rx="17.06" ry="26.54" fill="#f7f5ef" fill-opacity="0.95" /><ellipse cx="-0.00" cy="-26.54" rx="17.06" ry="26.54" fill="#f7f5ef" fill-opacity="0.95" /><ellipse cx="18.76" cy="-18.76" rx="17.06" ry="26.54" fill="#f7f5ef" fill-opacity="0.95" />
        <circle cx="0" cy="0" r="17.06" fill="#d5c0a8" />
        <circle cx="0" cy="0" r="8.53" fill="#fff7f0" fill-opacity="0.72" />
      </g>
    </g>
    
    <g transform="translate(697.45 332.81) rotate(-20.14)">
      <path d="M 0 0 C -8 93.72, 10 156.20, -6 229.09" stroke="#a7b99d" stroke-width="12.50" fill="none" stroke-linecap="round" />
      <ellipse cx="-20" cy="114.55" rx="22.91" ry="43.74" fill="#a7b99d" fill-opacity="0.75" transform="rotate(-24)" />
      <ellipse cx="28" cy="141.62" rx="20.83" ry="39.57" fill="#a7b99d" fill-opacity="0.66" transform="rotate(20)" />
      <g transform="translate(0 0)">
        <ellipse cx="29.16" cy="0.00" rx="18.74" ry="29.16" fill="#f1e3d4" fill-opacity="0.95" /><ellipse cx="20.62" cy="20.62" rx="18.74" ry="29.16" fill="#f1e3d4" fill-opacity="0.95" /><ellipse cx="0.00" cy="29.16" rx="18.74" ry="29.16" fill="#f1e3d4" fill-opacity="0.95" /><ellipse cx="-20.62" cy="20.62" rx="18.74" ry="29.16" fill="#f1e3d4" fill-opacity="0.95" /><ellipse cx="-29.16" cy="0.00" rx="18.74" ry="29.16" fill="#f1e3d4" fill-opacity="0.95" /><ellipse cx="-20.62" cy="-20.62" rx="18.74" ry="29.16" fill="#f1e3d4" fill-opacity="0.95" /><ellipse cx="-0.00" cy="-29.16" rx="18.74" ry="29.16" fill="#f1e3d4" fill-opacity="0.95" /><ellipse cx="20.62" cy="-20.62" rx="18.74" ry="29.16" fill="#f1e3d4" fill-opacity="0.95" />
        <circle cx="0" cy="0" r="18.74" fill="#d5c0a8" />
        <circle cx="0" cy="0" r="9.37" fill="#fff7f0" fill-opacity="0.72" />
      </g>
    </g>
    
    <g transform="translate(292.88 356.36) rotate(13.69)">
      <path d="M 0 0 C -8 82.23, 10 137.05, -6 201.01" stroke="#8da78b" stroke-width="10.96" fill="none" stroke-linecap="round" />
      <ellipse cx="-20" cy="100.51" rx="20.10" ry="38.38" fill="#8da78b" fill-opacity="0.75" transform="rotate(-24)" />
      <ellipse cx="28" cy="124.26" rx="18.27" ry="34.72" fill="#8da78b" fill-opacity="0.66" transform="rotate(20)" />
      <g transform="translate(0 0)">
        <ellipse cx="25.58" cy="0.00" rx="16.45" ry="25.58" fill="#e7d8cf" fill-opacity="0.95" /><ellipse cx="18.09" cy="18.09" rx="16.45" ry="25.58" fill="#e7d8cf" fill-opacity="0.95" /><ellipse cx="0.00" cy="25.58" rx="16.45" ry="25.58" fill="#e7d8cf" fill-opacity="0.95" /><ellipse cx="-18.09" cy="18.09" rx="16.45" ry="25.58" fill="#e7d8cf" fill-opacity="0.95" /><ellipse cx="-25.58" cy="0.00" rx="16.45" ry="25.58" fill="#e7d8cf" fill-opacity="0.95" /><ellipse cx="-18.09" cy="-18.09" rx="16.45" ry="25.58" fill="#e7d8cf" fill-opacity="0.95" /><ellipse cx="-0.00" cy="-25.58" rx="16.45" ry="25.58" fill="#e7d8cf" fill-opacity="0.95" /><ellipse cx="18.09" cy="-18.09" rx="16.45" ry="25.58" fill="#e7d8cf" fill-opacity="0.95" />
        <circle cx="0" cy="0" r="16.45" fill="#d5c0a8" />
        <circle cx="0" cy="0" r="8.22" fill="#fff7f0" fill-opacity="0.72" />
      </g>
    </g>
    
  </g>
  <path d="M0 980 C220 920, 420 1030, 900 930 L900 1100 L0 1100 Z" fill="#ffffff" fill-opacity="0.22" />
</svg>
