<svg xmlns="http://www.w3.org/2000/svg" width="900" height="1100" viewBox="0 0 900 1100">
  <defs>
    <linearGradient id="bg" x1="0" y1="0" x2="0" y2="1">
      <stop offset="0%" stop-color="#f8f3ec" />
      <stop offset="100%" stop-color="#e8efe5" />
    </linearGradient>
    <filter id="shadow" x="-20%" y="-20%" width="140%" height="140%">
      <feDropShadow dx="0" dy="22" stdDeviation="24" flood-color="#6c5d4f" flood-opacity="0.12" />
    </filter>
  </defs>
  <rect width="100%" height="100%" fill="url(#bg)" />
  <circle cx="730" cy="180" r="140" fill="#ffffff" fill-opacity="0.18" />
  <circle cx="150" cy="260" r="90" fill="#ffffff" fill-opacity="0.12" />
  
      <rect x="70" y="72" width="300" height="92" rx="24" fill="#ffffff" fill-opacity="0.34" />
      <text x="98" y="120" fill="#2f3a31" font-size="32" font-family="'PingFang SC','Microsoft YaHei',sans-serif" font-weight="600">香槟晨礼</text>
      <text x="98" y="152" fill="#4e6152" font-size="18" font-family="'PingFang SC','Microsoft YaHei',sans-serif">婚礼 · 香槟色</text>
    
  <g filter="url(#shadow)">
    <path d="M250 780 L650 780 L730 1080 L170 1080 Z" fill="#ece2d6" fill-opacity="0.88" />
  </g>
  <g>
    
    <g transform="translate(422.10 387.63) rotate(21.26)">
      <path d="M 0 0 C -8 102.17, 10 170.28, -6 249.75" stroke="#8da78b" stroke-width="13.62" fill="none" stroke-linecap="round" />
      <ellipse cx="-20" cy="124.87" rx="24.97" ry="47.68" fill="#8da78b" fill-opacity="0.75" transform="rotate(-24)" />
      <ellipse cx="28" cy="154.39" rx="22.70" ry="43.14" fill="#8da78b" fill-opacity="0.66" transform="rotate(20)" />
      <g transform="translate(0 0)">
        <ellipse cx="31.79" cy="0.00" rx="20.43" ry="31.79" fill="#f7f5ef" fill-opacity="0.95" /><ellipse cx="22.48" cy="22.48" rx="20.43" ry="31.79" fill="#f7f5ef" fill-opacity="0.95" /><ellipse cx="0.00" cy="31.79" rx="20.43" ry="31.79" fill="#f7f5ef" fill-opacity="0.95" /><ellipse cx="-22.48" cy="22.48" rx="20.43" ry="31.79" fill="#f7f5ef" fill-opacity="0.95" /><ellipse cx="-31.79" cy="0.00" rx="20.43" ry="31.79" fill="#f7f5ef" fill-opacity="0.95" /><ellipse cx="-22.48" cy="-22.48" rx="20.43" ry="31.79" fill="#f7f5ef" fill-opacity="0.95" /><ellipse cx="-0.00" cy="-31.79" rx="20.43" ry="31.79" fill="#f7f5ef" fill-opacity="0.95" /><ellipse cx="22.48" cy="-22.48" rx="20.43" ry="31.79" fill="#f7f5ef" fill-opacity="0.95" />
        <circle cx="0" cy="0" r="20.43" fill="#d5c0a8" />
        <circle cx="0" cy="0" r="10.22" fill="#fff7f0" fill-opacity="0.72" />
      </g>
    </g>
    
    <g transform="translate(489.51 554.72) rotate(9.48)">
      <path d="M 0 0 C -8 80.16, 10 133.60, -6 195.94" stroke="#6f8d6e" stroke-width="10.69" fill="none" stroke-linecap="round" />
      <ellipse cx="-20" cy="97.97" rx="19.59" ry="37.41" fill="#6f8d6e" fill-opacity="0.75" transform="rotate(-24)" />
      <ellipse cx="28" cy="121.13" rx="17.81" ry="33.84" fill="#6f8d6e" fill-opacity="0.66" transform="rotate(20)" />
      <g transform="translate(0 0)">
        <ellipse cx="24.94" cy="0.00" rx="16.03" ry="24.94" fill="#f1e3d4" fill-opacity="0.95" /><ellipse cx="17.63" cy="17.63" rx="16.03" ry="24.94" fill="#f1e3d4" fill-opacity="0.95" /><ellipse cx="0.00" cy="24.94" rx="16.03" ry="24.94" fill="#f1e3d4" fill-opacity="0.95" /><ellipse cx="-17.63" cy="17.63" rx="16.03" ry="24.94" fill="#f1e3d4" fill-opacity="0.95" /><ellipse cx="-24.94" cy="0.00" rx="16.03" ry="24.94" fill="#f1e3d4" fill-opacity="0.95" /><ellipse cx="-17.63" cy="-17.63" rx="16.03" ry="24.94" fill="#f1e3d4" fill-opacity="0.95" /><ellipse cx="-0.00" cy="-24.94" rx="16.03" ry="24.94" fill="#f1e3d4" fill-opacity="0.95" /><ellipse cx="17.63" cy="-17.63" rx="16.03" ry="24.94" fill="#f1e3d4" fill-opacity="0.95" />
        <circle cx="0" cy="0" r="16.03" fill="#d5c0a8" />
        <circle cx="0" cy="0" r="8.02" fill="#fff7f0" fill-opacity="0.72" />
      </g>
    </g>
    
    <g transform="translate(405.36 423.28) rotate(-14.50)">
      <path d="M 0 0 C -8 90.45, 10 150.75, -6 221.10" stroke="#a7b99d" stroke-width="12.06" fill="none" stroke-linecap="round" />
      <ellipse cx="-20" cy="110.55" rx="22.11" ry="42.21" fill="#a7b99d" fill-opacity="0.75" transform="rotate(-24)" />
      <ellipse cx="28" cy="136.68" rx="20.10" ry="38.19" fill="#a7b99d" fill-opacity="0.66" transform="rotate(20)" />
      <g transform="translate(0 0)">
        <ellipse cx="28.14" cy="0.00" rx="18.09" ry="28.14" fill="#e7d8cf" fill-opacity="0.95" /><ellipse cx="19.90" cy="19.90" rx="18.09" ry="28.14" fill="#e7d8cf" fill-opacity="0.95" /><ellipse cx="0.00" cy="28.14" rx="18.09" ry="28.14" fill="#e7d8cf" fill-opacity="0.95" /><ellipse cx="-19.90" cy="19.90" rx="18.09" ry="28.14" fill="#e7d8cf" fill-opacity="0.95" /><ellipse cx="-28.14" cy="0.00" rx="18.09" ry="28.14" fill="#e7d8cf" fill-opacity="0.95" /><ellipse cx="-19.90" cy="-19.90" rx="18.09" ry="28.14" fill="#e7d8cf" fill-opacity="0.95" /><ellipse cx="-0.00" cy="-28.14" rx="18.09" ry="28.14" fill="#e7d8cf" fill-opacity="0.95" /><ellipse cx="19.90" cy="-19.90" rx="18.09" ry="28.14" fill="#e7d8cf" fill-opacity="0.95" />
        <circle cx="0" cy="0" r="18.09" fill="#d5c0a8" />
        <circle cx="0" cy="0" r="9.04" fill="#fff7f0" fill-opacity="0.72" />
      </g>
    </g>
    
    <g transform="translate(290.56 474.10) rotate(-20.55)">
      <path d="M 0 0 C -8 111.72, 10 186.20, -6 273.09" stroke="#8da78b" stroke-width="14.90" fill="none" stroke-linecap="round" />
      <ellipse cx="-20" cy="136.55" rx="27.31" ry="52.14" fill="#8da78b" fill-opacity="0.75" transform="rotate(-24)" />
      <ellipse cx="28" cy="168.82" rx="24.83" ry="47.17" fill="#8da78b" fill-opacity="0.66" transform="rotate(20)" />
      <g transform="translate(0 0)">
        <ellipse cx="34.76" cy="0.00" rx="22.34" ry="34.76" fill="#d7e5d5" fill-opacity="0.95" /><ellipse cx="24.58" cy="24.58" rx="22.34" ry="34.76" fill="#d7e5d5" fill-opacity="0.95" /><ellipse cx="0.00" cy="34.76" rx="22.34" ry="34.76" fill="#d7e5d5" fill-opacity="0.95" /><ellipse cx="-24.58" cy="24.58" rx="22.34" ry="34.76" fill="#d7e5d5" fill-opacity="0.95" /><ellipse cx="-34.76" cy="0.00" rx="22.34" ry="34.76" fill="#d7e5d5" fill-opacity="0.95" /><ellipse cx="-24.58" cy="-24.58" rx="22.34" ry="34.76" fill="#d7e5d5" fill-opacity="0.95" /><ellipse cx="-0.00" cy="-34.76" rx="22.34" ry="34.76" fill="#d7e5d5" fill-opacity="0.95" /><ellipse cx="24.58" cy="-24.58" rx="22.34" ry="34.76" fill="#d7e5d5" fill-opacity="0.95" />
        <circle cx="0" cy="0" r="22.34" fill="#d5c0a8" />
        <circle cx="0" cy="0" r="11.17" fill="#fff7f0" fill-opacity="0.72" />
      </g>
    </g>
    
    <g transform="translate(321.17 394.98) rotate(13.08)">
      <path d="M 0 0 C -8 93.79, 10 156.32, -6 229.26" stroke="#6f8d6e" stroke-width="12.51" fill="none" stroke-linecap="round" />
      <ellipse cx="-20" cy="114.63" rx="22.93" ry="43.77" fill="#6f8d6e" fill-opacity="0.75" transform="rotate(-24)" />
      <ellipse cx="28" cy="141.73" rx="20.84" ry="39.60" fill="#6f8d6e" fill-opacity="0.66" transform="rotate(20)" />
      <g transform="translate(0 0)">
        <ellipse cx="29.18" cy="0.00" rx="18.76" ry="29.18" fill="#f7f5ef" fill-opacity="0.95" /><ellipse cx="20.63" cy="20.63" rx="18.76" ry="29.18" fill="#f7f5ef" fill-opacity="0.95" /><ellipse cx="0.00" cy="29.18" rx="18.76" ry="29.18" fill="#f7f5ef" fill-opacity="0.95" /><ellipse cx="-20.63" cy="20.63" rx="18.76" ry="29.18" fill="#f7f5ef" fill-opacity="0.95" /><ellipse cx="-29.18" cy="0.00" rx="18.76" ry="29.18" fill="#f7f5ef" fill-opacity="0.95" /><ellipse cx="-20.63" cy="-20.63" rx="18.76" ry="29.18" fill="#f7f5ef" fill-opacity="0.95" /><ellipse cx="-0.00" cy="-29.18" rx="18.76" ry="29.18" fill="#f7f5ef" fill-opacity="0.95" /><ellipse cx="20.63" cy="-20.63" rx="18.76" ry="29.18" fill="#f7f5ef" fill-opacity="0.95" />
        <circle cx="0" cy="0" r="18.76" fill="#d5c0a8" />
        <circle cx="0" cy="0" r="9.38" fill="#fff7f0" fill-opacity="0.72" />
      </g>
    </g>
    
    <g transform="translate(287.97 404.75) rotate(-9.77)">
      <path d="M 0 0 C -8 100.46, 10 167.43, -6 245.56" stroke="#a7b99d" stroke-width="13.39" fill="none" stroke-linecap="round" />
      <ellipse cx="-20" cy="122.78" rx="24.56" ry="46.88" fill="#a7b99d" fill-opacity="0.75" transform="rotate(-24)" />
      <ellipse cx="28" cy="151.80" rx="22.32" ry="42.42" fill="#a7b99d" fill-opacity="0.66" transform="rotate(20)" />
      <g transform="translate(0 0)">
        <ellipse cx="31.25" cy="0.00" rx="20.09" ry="31.25" fill="#f1e3d4" fill-opacity="0.95" /><ellipse cx="22.10" cy="22.10" rx="20.09" ry="31.25" fill="#f1e3d4" fill-opacity="0.95" /><ellipse cx="0.00" cy="31.25" rx="20.09" ry="31.25" fill="#f1e3d4" fill-opacity="0.95" /><ellipse cx="-22.10" cy="22.10" rx="20.09" ry="31.25" fill="#f1e3d4" fill-opacity="0.95" /><ellipse cx="-31.25" cy="0.00" rx="20.09" ry="31.25" fill="#f1e3d4" fill-opacity="0.95" /><ellipse cx="-22.10" cy="-22.10" rx="20.09" ry="31.25" fill="#f1e3d4" fill-opacity="0.95" /><ellipse cx="-0.00" cy="-31.25" rx="20.09" ry="31.25" fill="#f1e3d4" fill-opacity="0.95" /><ellipse cx="22.10" cy="-22.10" rx="20.09" ry="31.25" fill="#f1e3d4" fill-opacity="0.95" />
        <circle cx="0" cy="0" r="20.09" fill="#d5c0a8" />
        <circle cx="0" cy="0" r="10.05" fill="#fff7f0" fill-opacity="0.72" />
      </g>
    </g>
    
    <g transform="translate(481.79 459.32) rotate(20.97)">
      <path d="M 0 0 C -8 104.94, 10 174.90, -6 256.53" stroke="#8da78b" stroke-width="13.99" fill="none" stroke-linecap="round" />
      <ellipse cx="-20" cy="128.26" rx="25.65" ry="48.97" fill="#8da78b" fill-opacity="0.75" transform="rotate(-24)" />
      <ellipse cx="28" cy="158.58" rx="23.32" ry="44.31" fill="#8da78b" fill-opacity="0.66" transform="rotate(20)" />
      <g transform="translate(0 0)">
        <ellipse cx="32.65" cy="0.00" rx="20.99" ry="32.65" fill="#e7d8cf" fill-opacity="0.95" /><ellipse cx="23.09" cy="23.09" rx="20.99" ry="32.65" fill="#e7d8cf" fill-opacity="0.95" /><ellipse cx="0.00" cy="32.65" rx="20.99" ry="32.65" fill="#e7d8cf" fill-opacity="0.95" /><ellipse cx="-23.09" cy="23.09" rx="20.99" ry="32.65" fill="#e7d8cf" fill-opacity="0.95" /><ellipse cx="-32.65" cy="0.00" rx="20.99" ry="32.65" fill="#e7d8cf" fill-opacity="0.95" /><ellipse cx="-23.09" cy="-23.09" rx="20.99" ry="32.65" fill="#e7d8cf" fill-opacity="0.95" /><ellipse cx="-0.00" cy="-32.65" rx="20.99" ry="32.65" fill="#e7d8cf" fill-opacity="0.95" /><ellipse cx="23.09" cy="-23.09" rx="20.99" ry="32.65" fill="#e7d8cf" fill-opacity="0.95" />
        <circle cx="0" cy="0" r="20.99" fill="#d5c0a8" />
        <circle cx="0" cy="0" r="10.49" fill="#fff7f0" fill-opacity="0.72" />
      </g>
    </g>
    
  </g>
  <path d="M0 980 C220 920, 420 1030, 900 930 L900 1100 L0 1100 Z" fill="#ffffff" fill-opacity="0.22" />
</svg>
