<svg xmlns="http://www.w3.org/2000/svg" width="900" height="1100" viewBox="0 0 900 1100">
  <defs>
    <linearGradient id="bg" x1="0" y1="0" x2="0" y2="1">
      <stop offset="0%" stop-color="#f8f3ec" />
      <stop offset="100%" stop-color="#e8efe5" />
    </linearGradient>
    <filter id="shadow" x="-20%" y="-20%" width="140%" height="140%">
      <feDropShadow dx="0" dy="22" stdDeviation="24" flood-color="#6c5d4f" flood-opacity="0.12" />
    </filter>
  </defs>
  <rect width="100%" height="100%" fill="url(#bg)" />
  <circle cx="730" cy="180" r="140" fill="#ffffff" fill-opacity="0.18" />
  <circle cx="150" cy="260" r="90" fill="#ffffff" fill-opacity="0.12" />
  
      <rect x="70" y="72" width="300" height="92" rx="24" fill="#ffffff" fill-opacity="0.34" />
      <text x="98" y="120" fill="#2f3a31" font-size="32" font-family="'PingFang SC','Microsoft YaHei',sans-serif" font-weight="600">晨雾花阶</text>
      <text x="98" y="152" fill="#4e6152" font-size="18" font-family="'PingFang SC','Microsoft YaHei',sans-serif">婚礼 · 白绿系</text>
    
  <g filter="url(#shadow)">
    <path d="M250 780 L650 780 L730 1080 L170 1080 Z" fill="#ece2d6" fill-opacity="0.88" />
  </g>
  <g>
    
    <g transform="translate(588.61 557.90) rotate(4.94)">
      <path d="M 0 0 C -8 88.82, 10 148.04, -6 217.13" stroke="#8da78b" stroke-width="11.84" fill="none" stroke-linecap="round" />
      <ellipse cx="-20" cy="108.56" rx="21.71" ry="41.45" fill="#8da78b" fill-opacity="0.75" transform="rotate(-24)" />
      <ellipse cx="28" cy="134.22" rx="19.74" ry="37.50" fill="#8da78b" fill-opacity="0.66" transform="rotate(20)" />
      <g transform="translate(0 0)">
        <ellipse cx="27.63" cy="0.00" rx="17.76" ry="27.63" fill="#f7f5ef" fill-opacity="0.95" /><ellipse cx="19.54" cy="19.54" rx="17.76" ry="27.63" fill="#f7f5ef" fill-opacity="0.95" /><ellipse cx="0.00" cy="27.63" rx="17.76" ry="27.63" fill="#f7f5ef" fill-opacity="0.95" /><ellipse cx="-19.54" cy="19.54" rx="17.76" ry="27.63" fill="#f7f5ef" fill-opacity="0.95" /><ellipse cx="-27.63" cy="0.00" rx="17.76" ry="27.63" fill="#f7f5ef" fill-opacity="0.95" /><ellipse cx="-19.54" cy="-19.54" rx="17.76" ry="27.63" fill="#f7f5ef" fill-opacity="0.95" /><ellipse cx="-0.00" cy="-27.63" rx="17.76" ry="27.63" fill="#f7f5ef" fill-opacity="0.95" /><ellipse cx="19.54" cy="-19.54" rx="17.76" ry="27.63" fill="#f7f5ef" fill-opacity="0.95" />
        <circle cx="0" cy="0" r="17.76" fill="#d5c0a8" />
        <circle cx="0" cy="0" r="8.88" fill="#fff7f0" fill-opacity="0.72" />
      </g>
    </g>
    
    <g transform="translate(590.85 363.50) rotate(24.62)">
      <path d="M 0 0 C -8 89.60, 10 149.34, -6 219.03" stroke="#6f8d6e" stroke-width="11.95" fill="none" stroke-linecap="round" />
      <ellipse cx="-20" cy="109.52" rx="21.90" ry="41.82" fill="#6f8d6e" fill-opacity="0.75" transform="rotate(-24)" />
      <ellipse cx="28" cy="135.40" rx="19.91" ry="37.83" fill="#6f8d6e" fill-opacity="0.66" transform="rotate(20)" />
      <g transform="translate(0 0)">
        <ellipse cx="27.88" cy="0.00" rx="17.92" ry="27.88" fill="#f1e3d4" fill-opacity="0.95" /><ellipse cx="19.71" cy="19.71" rx="17.92" ry="27.88" fill="#f1e3d4" fill-opacity="0.95" /><ellipse cx="0.00" cy="27.88" rx="17.92" ry="27.88" fill="#f1e3d4" fill-opacity="0.95" /><ellipse cx="-19.71" cy="19.71" rx="17.92" ry="27.88" fill="#f1e3d4" fill-opacity="0.95" /><ellipse cx="-27.88" cy="0.00" rx="17.92" ry="27.88" fill="#f1e3d4" fill-opacity="0.95" /><ellipse cx="-19.71" cy="-19.71" rx="17.92" ry="27.88" fill="#f1e3d4" fill-opacity="0.95" /><ellipse cx="-0.00" cy="-27.88" rx="17.92" ry="27.88" fill="#f1e3d4" fill-opacity="0.95" /><ellipse cx="19.71" cy="-19.71" rx="17.92" ry="27.88" fill="#f1e3d4" fill-opacity="0.95" />
        <circle cx="0" cy="0" r="17.92" fill="#d5c0a8" />
        <circle cx="0" cy="0" r="8.96" fill="#fff7f0" fill-opacity="0.72" />
      </g>
    </g>
    
    <g transform="translate(563.56 414.57) rotate(25.85)">
      <path d="M 0 0 C -8 109.16, 10 181.94, -6 266.84" stroke="#a7b99d" stroke-width="14.56" fill="none" stroke-linecap="round" />
      <ellipse cx="-20" cy="133.42" rx="26.68" ry="50.94" fill="#a7b99d" fill-opacity="0.75" transform="rotate(-24)" />
      <ellipse cx="28" cy="164.96" rx="24.26" ry="46.09" fill="#a7b99d" fill-opacity="0.66" transform="rotate(20)" />
      <g transform="translate(0 0)">
        <ellipse cx="33.96" cy="0.00" rx="21.83" ry="33.96" fill="#e7d8cf" fill-opacity="0.95" /><ellipse cx="24.01" cy="24.01" rx="21.83" ry="33.96" fill="#e7d8cf" fill-opacity="0.95" /><ellipse cx="0.00" cy="33.96" rx="21.83" ry="33.96" fill="#e7d8cf" fill-opacity="0.95" /><ellipse cx="-24.01" cy="24.01" rx="21.83" ry="33.96" fill="#e7d8cf" fill-opacity="0.95" /><ellipse cx="-33.96" cy="0.00" rx="21.83" ry="33.96" fill="#e7d8cf" fill-opacity="0.95" /><ellipse cx="-24.01" cy="-24.01" rx="21.83" ry="33.96" fill="#e7d8cf" fill-opacity="0.95" /><ellipse cx="-0.00" cy="-33.96" rx="21.83" ry="33.96" fill="#e7d8cf" fill-opacity="0.95" /><ellipse cx="24.01" cy="-24.01" rx="21.83" ry="33.96" fill="#e7d8cf" fill-opacity="0.95" />
        <circle cx="0" cy="0" r="21.83" fill="#d5c0a8" />
        <circle cx="0" cy="0" r="10.92" fill="#fff7f0" fill-opacity="0.72" />
      </g>
    </g>
    
    <g transform="translate(356.43 365.94) rotate(3.25)">
      <path d="M 0 0 C -8 112.96, 10 188.26, -6 276.12" stroke="#8da78b" stroke-width="15.06" fill="none" stroke-linecap="round" />
      <ellipse cx="-20" cy="138.06" rx="27.61" ry="52.71" fill="#8da78b" fill-opacity="0.75" transform="rotate(-24)" />
      <ellipse cx="28" cy="170.69" rx="25.10" ry="47.69" fill="#8da78b" fill-opacity="0.66" transform="rotate(20)" />
      <g transform="translate(0 0)">
        <ellipse cx="35.14" cy="0.00" rx="22.59" ry="35.14" fill="#d7e5d5" fill-opacity="0.95" /><ellipse cx="24.85" cy="24.85" rx="22.59" ry="35.14" fill="#d7e5d5" fill-opacity="0.95" /><ellipse cx="0.00" cy="35.14" rx="22.59" ry="35.14" fill="#d7e5d5" fill-opacity="0.95" /><ellipse cx="-24.85" cy="24.85" rx="22.59" ry="35.14" fill="#d7e5d5" fill-opacity="0.95" /><ellipse cx="-35.14" cy="0.00" rx="22.59" ry="35.14" fill="#d7e5d5" fill-opacity="0.95" /><ellipse cx="-24.85" cy="-24.85" rx="22.59" ry="35.14" fill="#d7e5d5" fill-opacity="0.95" /><ellipse cx="-0.00" cy="-35.14" rx="22.59" ry="35.14" fill="#d7e5d5" fill-opacity="0.95" /><ellipse cx="24.85" cy="-24.85" rx="22.59" ry="35.14" fill="#d7e5d5" fill-opacity="0.95" />
        <circle cx="0" cy="0" r="22.59" fill="#d5c0a8" />
        <circle cx="0" cy="0" r="11.30" fill="#fff7f0" fill-opacity="0.72" />
      </g>
    </g>
    
    <g transform="translate(389.68 365.05) rotate(-18.97)">
      <path d="M 0 0 C -8 75.84, 10 126.40, -6 185.39" stroke="#6f8d6e" stroke-width="10.11" fill="none" stroke-linecap="round" />
      <ellipse cx="-20" cy="92.69" rx="18.54" ry="35.39" fill="#6f8d6e" fill-opacity="0.75" transform="rotate(-24)" />
      <ellipse cx="28" cy="114.60" rx="16.85" ry="32.02" fill="#6f8d6e" fill-opacity="0.66" transform="rotate(20)" />
      <g transform="translate(0 0)">
        <ellipse cx="23.59" cy="0.00" rx="15.17" ry="23.59" fill="#f7f5ef" fill-opacity="0.95" /><ellipse cx="16.68" cy="16.68" rx="15.17" ry="23.59" fill="#f7f5ef" fill-opacity="0.95" /><ellipse cx="0.00" cy="23.59" rx="15.17" ry="23.59" fill="#f7f5ef" fill-opacity="0.95" /><ellipse cx="-16.68" cy="16.68" rx="15.17" ry="23.59" fill="#f7f5ef" fill-opacity="0.95" /><ellipse cx="-23.59" cy="0.00" rx="15.17" ry="23.59" fill="#f7f5ef" fill-opacity="0.95" /><ellipse cx="-16.68" cy="-16.68" rx="15.17" ry="23.59" fill="#f7f5ef" fill-opacity="0.95" /><ellipse cx="-0.00" cy="-23.59" rx="15.17" ry="23.59" fill="#f7f5ef" fill-opacity="0.95" /><ellipse cx="16.68" cy="-16.68" rx="15.17" ry="23.59" fill="#f7f5ef" fill-opacity="0.95" />
        <circle cx="0" cy="0" r="15.17" fill="#d5c0a8" />
        <circle cx="0" cy="0" r="7.58" fill="#fff7f0" fill-opacity="0.72" />
      </g>
    </g>
    
    <g transform="translate(351.20 497.07) rotate(-23.18)">
      <path d="M 0 0 C -8 74.40, 10 124.00, -6 181.87" stroke="#a7b99d" stroke-width="9.92" fill="none" stroke-linecap="round" />
      <ellipse cx="-20" cy="90.94" rx="18.19" ry="34.72" fill="#a7b99d" fill-opacity="0.75" transform="rotate(-24)" />
      <ellipse cx="28" cy="112.43" rx="16.53" ry="31.41" fill="#a7b99d" fill-opacity="0.66" transform="rotate(20)" />
      <g transform="translate(0 0)">
        <ellipse cx="23.15" cy="0.00" rx="14.88" ry="23.15" fill="#f1e3d4" fill-opacity="0.95" /><ellipse cx="16.37" cy="16.37" rx="14.88" ry="23.15" fill="#f1e3d4" fill-opacity="0.95" /><ellipse cx="0.00" cy="23.15" rx="14.88" ry="23.15" fill="#f1e3d4" fill-opacity="0.95" /><ellipse cx="-16.37" cy="16.37" rx="14.88" ry="23.15" fill="#f1e3d4" fill-opacity="0.95" /><ellipse cx="-23.15" cy="0.00" rx="14.88" ry="23.15" fill="#f1e3d4" fill-opacity="0.95" /><ellipse cx="-16.37" cy="-16.37" rx="14.88" ry="23.15" fill="#f1e3d4" fill-opacity="0.95" /><ellipse cx="-0.00" cy="-23.15" rx="14.88" ry="23.15" fill="#f1e3d4" fill-opacity="0.95" /><ellipse cx="16.37" cy="-16.37" rx="14.88" ry="23.15" fill="#f1e3d4" fill-opacity="0.95" />
        <circle cx="0" cy="0" r="14.88" fill="#d5c0a8" />
        <circle cx="0" cy="0" r="7.44" fill="#fff7f0" fill-opacity="0.72" />
      </g>
    </g>
    
    <g transform="translate(208.35 427.33) rotate(-11.93)">
      <path d="M 0 0 C -8 92.24, 10 153.74, -6 225.49" stroke="#8da78b" stroke-width="12.30" fill="none" stroke-linecap="round" />
      <ellipse cx="-20" cy="112.74" rx="22.55" ry="43.05" fill="#8da78b" fill-opacity="0.75" transform="rotate(-24)" />
      <ellipse cx="28" cy="139.39" rx="20.50" ry="38.95" fill="#8da78b" fill-opacity="0.66" transform="rotate(20)" />
      <g transform="translate(0 0)">
        <ellipse cx="28.70" cy="0.00" rx="18.45" ry="28.70" fill="#e7d8cf" fill-opacity="0.95" /><ellipse cx="20.29" cy="20.29" rx="18.45" ry="28.70" fill="#e7d8cf" fill-opacity="0.95" /><ellipse cx="0.00" cy="28.70" rx="18.45" ry="28.70" fill="#e7d8cf" fill-opacity="0.95" /><ellipse cx="-20.29" cy="20.29" rx="18.45" ry="28.70" fill="#e7d8cf" fill-opacity="0.95" /><ellipse cx="-28.70" cy="0.00" rx="18.45" ry="28.70" fill="#e7d8cf" fill-opacity="0.95" /><ellipse cx="-20.29" cy="-20.29" rx="18.45" ry="28.70" fill="#e7d8cf" fill-opacity="0.95" /><ellipse cx="-0.00" cy="-28.70" rx="18.45" ry="28.70" fill="#e7d8cf" fill-opacity="0.95" /><ellipse cx="20.29" cy="-20.29" rx="18.45" ry="28.70" fill="#e7d8cf" fill-opacity="0.95" />
        <circle cx="0" cy="0" r="18.45" fill="#d5c0a8" />
        <circle cx="0" cy="0" r="9.22" fill="#fff7f0" fill-opacity="0.72" />
      </g>
    </g>
    
  </g>
  <path d="M0 980 C220 920, 420 1030, 900 930 L900 1100 L0 1100 Z" fill="#ffffff" fill-opacity="0.22" />
</svg>
