<svg xmlns="http://www.w3.org/2000/svg" width="900" height="1100" viewBox="0 0 900 1100">
  <defs>
    <linearGradient id="bg" x1="0" y1="0" x2="0" y2="1">
      <stop offset="0%" stop-color="#f8f3ec" />
      <stop offset="100%" stop-color="#e8efe5" />
    </linearGradient>
    <filter id="shadow" x="-20%" y="-20%" width="140%" height="140%">
      <feDropShadow dx="0" dy="22" stdDeviation="24" flood-color="#6c5d4f" flood-opacity="0.12" />
    </filter>
  </defs>
  <rect width="100%" height="100%" fill="url(#bg)" />
  <circle cx="730" cy="180" r="140" fill="#ffffff" fill-opacity="0.18" />
  <circle cx="150" cy="260" r="90" fill="#ffffff" fill-opacity="0.12" />
  
      <rect x="70" y="72" width="300" height="92" rx="24" fill="#ffffff" fill-opacity="0.34" />
      <text x="98" y="120" fill="#2f3a31" font-size="32" font-family="'PingFang SC','Microsoft YaHei',sans-serif" font-weight="600">林间约定</text>
      <text x="98" y="152" fill="#4e6152" font-size="18" font-family="'PingFang SC','Microsoft YaHei',sans-serif">婚礼 · 白绿系</text>
    
  <g filter="url(#shadow)">
    <path d="M250 780 L650 780 L730 1080 L170 1080 Z" fill="#ece2d6" fill-opacity="0.88" />
  </g>
  <g>
    
    <g transform="translate(658.56 396.80) rotate(8.19)">
      <path d="M 0 0 C -8 102.24, 10 170.41, -6 249.93" stroke="#8da78b" stroke-width="13.63" fill="none" stroke-linecap="round" />
      <ellipse cx="-20" cy="124.96" rx="24.99" ry="47.71" fill="#8da78b" fill-opacity="0.75" transform="rotate(-24)" />
      <ellipse cx="28" cy="154.50" rx="22.72" ry="43.17" fill="#8da78b" fill-opacity="0.66" transform="rotate(20)" />
      <g transform="translate(0 0)">
        <ellipse cx="31.81" cy="0.00" rx="20.45" ry="31.81" fill="#f7f5ef" fill-opacity="0.95" /><ellipse cx="22.49" cy="22.49" rx="20.45" ry="31.81" fill="#f7f5ef" fill-opacity="0.95" /><ellipse cx="0.00" cy="31.81" rx="20.45" ry="31.81" fill="#f7f5ef" fill-opacity="0.95" /><ellipse cx="-22.49" cy="22.49" rx="20.45" ry="31.81" fill="#f7f5ef" fill-opacity="0.95" /><ellipse cx="-31.81" cy="0.00" rx="20.45" ry="31.81" fill="#f7f5ef" fill-opacity="0.95" /><ellipse cx="-22.49" cy="-22.49" rx="20.45" ry="31.81" fill="#f7f5ef" fill-opacity="0.95" /><ellipse cx="-0.00" cy="-31.81" rx="20.45" ry="31.81" fill="#f7f5ef" fill-opacity="0.95" /><ellipse cx="22.49" cy="-22.49" rx="20.45" ry="31.81" fill="#f7f5ef" fill-opacity="0.95" />
        <circle cx="0" cy="0" r="20.45" fill="#d5c0a8" />
        <circle cx="0" cy="0" r="10.22" fill="#fff7f0" fill-opacity="0.72" />
      </g>
    </g>
    
    <g transform="translate(479.11 488.79) rotate(20.63)">
      <path d="M 0 0 C -8 81.93, 10 136.56, -6 200.29" stroke="#6f8d6e" stroke-width="10.92" fill="none" stroke-linecap="round" />
      <ellipse cx="-20" cy="100.14" rx="20.03" ry="38.24" fill="#6f8d6e" fill-opacity="0.75" transform="rotate(-24)" />
      <ellipse cx="28" cy="123.81" rx="18.21" ry="34.59" fill="#6f8d6e" fill-opacity="0.66" transform="rotate(20)" />
      <g transform="translate(0 0)">
        <ellipse cx="25.49" cy="0.00" rx="16.39" ry="25.49" fill="#f1e3d4" fill-opacity="0.95" /><ellipse cx="18.02" cy="18.02" rx="16.39" ry="25.49" fill="#f1e3d4" fill-opacity="0.95" /><ellipse cx="0.00" cy="25.49" rx="16.39" ry="25.49" fill="#f1e3d4" fill-opacity="0.95" /><ellipse cx="-18.02" cy="18.02" rx="16.39" ry="25.49" fill="#f1e3d4" fill-opacity="0.95" /><ellipse cx="-25.49" cy="0.00" rx="16.39" ry="25.49" fill="#f1e3d4" fill-opacity="0.95" /><ellipse cx="-18.02" cy="-18.02" rx="16.39" ry="25.49" fill="#f1e3d4" fill-opacity="0.95" /><ellipse cx="-0.00" cy="-25.49" rx="16.39" ry="25.49" fill="#f1e3d4" fill-opacity="0.95" /><ellipse cx="18.02" cy="-18.02" rx="16.39" ry="25.49" fill="#f1e3d4" fill-opacity="0.95" />
        <circle cx="0" cy="0" r="16.39" fill="#d5c0a8" />
        <circle cx="0" cy="0" r="8.19" fill="#fff7f0" fill-opacity="0.72" />
      </g>
    </g>
    
    <g transform="translate(517.26 557.46) rotate(-4.96)">
      <path d="M 0 0 C -8 75.41, 10 125.69, -6 184.34" stroke="#a7b99d" stroke-width="10.05" fill="none" stroke-linecap="round" />
      <ellipse cx="-20" cy="92.17" rx="18.43" ry="35.19" fill="#a7b99d" fill-opacity="0.75" transform="rotate(-24)" />
      <ellipse cx="28" cy="113.96" rx="16.76" ry="31.84" fill="#a7b99d" fill-opacity="0.66" transform="rotate(20)" />
      <g transform="translate(0 0)">
        <ellipse cx="23.46" cy="0.00" rx="15.08" ry="23.46" fill="#e7d8cf" fill-opacity="0.95" /><ellipse cx="16.59" cy="16.59" rx="15.08" ry="23.46" fill="#e7d8cf" fill-opacity="0.95" /><ellipse cx="0.00" cy="23.46" rx="15.08" ry="23.46" fill="#e7d8cf" fill-opacity="0.95" /><ellipse cx="-16.59" cy="16.59" rx="15.08" ry="23.46" fill="#e7d8cf" fill-opacity="0.95" /><ellipse cx="-23.46" cy="0.00" rx="15.08" ry="23.46" fill="#e7d8cf" fill-opacity="0.95" /><ellipse cx="-16.59" cy="-16.59" rx="15.08" ry="23.46" fill="#e7d8cf" fill-opacity="0.95" /><ellipse cx="-0.00" cy="-23.46" rx="15.08" ry="23.46" fill="#e7d8cf" fill-opacity="0.95" /><ellipse cx="16.59" cy="-16.59" rx="15.08" ry="23.46" fill="#e7d8cf" fill-opacity="0.95" />
        <circle cx="0" cy="0" r="15.08" fill="#d5c0a8" />
        <circle cx="0" cy="0" r="7.54" fill="#fff7f0" fill-opacity="0.72" />
      </g>
    </g>
    
    <g transform="translate(599.85 313.39) rotate(13.95)">
      <path d="M 0 0 C -8 107.21, 10 178.68, -6 262.06" stroke="#8da78b" stroke-width="14.29" fill="none" stroke-linecap="round" />
      <ellipse cx="-20" cy="131.03" rx="26.21" ry="50.03" fill="#8da78b" fill-opacity="0.75" transform="rotate(-24)" />
      <ellipse cx="28" cy="162.00" rx="23.82" ry="45.26" fill="#8da78b" fill-opacity="0.66" transform="rotate(20)" />
      <g transform="translate(0 0)">
        <ellipse cx="33.35" cy="0.00" rx="21.44" ry="33.35" fill="#d7e5d5" fill-opacity="0.95" /><ellipse cx="23.58" cy="23.58" rx="21.44" ry="33.35" fill="#d7e5d5" fill-opacity="0.95" /><ellipse cx="0.00" cy="33.35" rx="21.44" ry="33.35" fill="#d7e5d5" fill-opacity="0.95" /><ellipse cx="-23.58" cy="23.58" rx="21.44" ry="33.35" fill="#d7e5d5" fill-opacity="0.95" /><ellipse cx="-33.35" cy="0.00" rx="21.44" ry="33.35" fill="#d7e5d5" fill-opacity="0.95" /><ellipse cx="-23.58" cy="-23.58" rx="21.44" ry="33.35" fill="#d7e5d5" fill-opacity="0.95" /><ellipse cx="-0.00" cy="-33.35" rx="21.44" ry="33.35" fill="#d7e5d5" fill-opacity="0.95" /><ellipse cx="23.58" cy="-23.58" rx="21.44" ry="33.35" fill="#d7e5d5" fill-opacity="0.95" />
        <circle cx="0" cy="0" r="21.44" fill="#d5c0a8" />
        <circle cx="0" cy="0" r="10.72" fill="#fff7f0" fill-opacity="0.72" />
      </g>
    </g>
    
    <g transform="translate(441.08 549.72) rotate(4.66)">
      <path d="M 0 0 C -8 93.65, 10 156.08, -6 228.92" stroke="#6f8d6e" stroke-width="12.49" fill="none" stroke-linecap="round" />
      <ellipse cx="-20" cy="114.46" rx="22.89" ry="43.70" fill="#6f8d6e" fill-opacity="0.75" transform="rotate(-24)" />
      <ellipse cx="28" cy="141.51" rx="20.81" ry="39.54" fill="#6f8d6e" fill-opacity="0.66" transform="rotate(20)" />
      <g transform="translate(0 0)">
        <ellipse cx="29.14" cy="0.00" rx="18.73" ry="29.14" fill="#f7f5ef" fill-opacity="0.95" /><ellipse cx="20.60" cy="20.60" rx="18.73" ry="29.14" fill="#f7f5ef" fill-opacity="0.95" /><ellipse cx="0.00" cy="29.14" rx="18.73" ry="29.14" fill="#f7f5ef" fill-opacity="0.95" /><ellipse cx="-20.60" cy="20.60" rx="18.73" ry="29.14" fill="#f7f5ef" fill-opacity="0.95" /><ellipse cx="-29.14" cy="0.00" rx="18.73" ry="29.14" fill="#f7f5ef" fill-opacity="0.95" /><ellipse cx="-20.60" cy="-20.60" rx="18.73" ry="29.14" fill="#f7f5ef" fill-opacity="0.95" /><ellipse cx="-0.00" cy="-29.14" rx="18.73" ry="29.14" fill="#f7f5ef" fill-opacity="0.95" /><ellipse cx="20.60" cy="-20.60" rx="18.73" ry="29.14" fill="#f7f5ef" fill-opacity="0.95" />
        <circle cx="0" cy="0" r="18.73" fill="#d5c0a8" />
        <circle cx="0" cy="0" r="9.36" fill="#fff7f0" fill-opacity="0.72" />
      </g>
    </g>
    
    <g transform="translate(490.09 532.38) rotate(-24.30)">
      <path d="M 0 0 C -8 73.30, 10 122.17, -6 179.18" stroke="#a7b99d" stroke-width="9.77" fill="none" stroke-linecap="round" />
      <ellipse cx="-20" cy="89.59" rx="17.92" ry="34.21" fill="#a7b99d" fill-opacity="0.75" transform="rotate(-24)" />
      <ellipse cx="28" cy="110.77" rx="16.29" ry="30.95" fill="#a7b99d" fill-opacity="0.66" transform="rotate(20)" />
      <g transform="translate(0 0)">
        <ellipse cx="22.81" cy="0.00" rx="14.66" ry="22.81" fill="#f1e3d4" fill-opacity="0.95" /><ellipse cx="16.13" cy="16.13" rx="14.66" ry="22.81" fill="#f1e3d4" fill-opacity="0.95" /><ellipse cx="0.00" cy="22.81" rx="14.66" ry="22.81" fill="#f1e3d4" fill-opacity="0.95" /><ellipse cx="-16.13" cy="16.13" rx="14.66" ry="22.81" fill="#f1e3d4" fill-opacity="0.95" /><ellipse cx="-22.81" cy="0.00" rx="14.66" ry="22.81" fill="#f1e3d4" fill-opacity="0.95" /><ellipse cx="-16.13" cy="-16.13" rx="14.66" ry="22.81" fill="#f1e3d4" fill-opacity="0.95" /><ellipse cx="-0.00" cy="-22.81" rx="14.66" ry="22.81" fill="#f1e3d4" fill-opacity="0.95" /><ellipse cx="16.13" cy="-16.13" rx="14.66" ry="22.81" fill="#f1e3d4" fill-opacity="0.95" />
        <circle cx="0" cy="0" r="14.66" fill="#d5c0a8" />
        <circle cx="0" cy="0" r="7.33" fill="#fff7f0" fill-opacity="0.72" />
      </g>
    </g>
    
    <g transform="translate(518.79 371.10) rotate(-13.45)">
      <path d="M 0 0 C -8 73.90, 10 123.17, -6 180.66" stroke="#8da78b" stroke-width="9.85" fill="none" stroke-linecap="round" />
      <ellipse cx="-20" cy="90.33" rx="18.07" ry="34.49" fill="#8da78b" fill-opacity="0.75" transform="rotate(-24)" />
      <ellipse cx="28" cy="111.68" rx="16.42" ry="31.20" fill="#8da78b" fill-opacity="0.66" transform="rotate(20)" />
      <g transform="translate(0 0)">
        <ellipse cx="22.99" cy="0.00" rx="14.78" ry="22.99" fill="#e7d8cf" fill-opacity="0.95" /><ellipse cx="16.26" cy="16.26" rx="14.78" ry="22.99" fill="#e7d8cf" fill-opacity="0.95" /><ellipse cx="0.00" cy="22.99" rx="14.78" ry="22.99" fill="#e7d8cf" fill-opacity="0.95" /><ellipse cx="-16.26" cy="16.26" rx="14.78" ry="22.99" fill="#e7d8cf" fill-opacity="0.95" /><ellipse cx="-22.99" cy="0.00" rx="14.78" ry="22.99" fill="#e7d8cf" fill-opacity="0.95" /><ellipse cx="-16.26" cy="-16.26" rx="14.78" ry="22.99" fill="#e7d8cf" fill-opacity="0.95" /><ellipse cx="-0.00" cy="-22.99" rx="14.78" ry="22.99" fill="#e7d8cf" fill-opacity="0.95" /><ellipse cx="16.26" cy="-16.26" rx="14.78" ry="22.99" fill="#e7d8cf" fill-opacity="0.95" />
        <circle cx="0" cy="0" r="14.78" fill="#d5c0a8" />
        <circle cx="0" cy="0" r="7.39" fill="#fff7f0" fill-opacity="0.72" />
      </g>
    </g>
    
  </g>
  <path d="M0 980 C220 920, 420 1030, 900 930 L900 1100 L0 1100 Z" fill="#ffffff" fill-opacity="0.22" />
</svg>
