<svg xmlns="http://www.w3.org/2000/svg" width="900" height="1100" viewBox="0 0 900 1100">
  <defs>
    <linearGradient id="bg" x1="0" y1="0" x2="0" y2="1">
      <stop offset="0%" stop-color="#f8f3ec" />
      <stop offset="100%" stop-color="#e8efe5" />
    </linearGradient>
    <filter id="shadow" x="-20%" y="-20%" width="140%" height="140%">
      <feDropShadow dx="0" dy="22" stdDeviation="24" flood-color="#6c5d4f" flood-opacity="0.12" />
    </filter>
  </defs>
  <rect width="100%" height="100%" fill="url(#bg)" />
  <circle cx="730" cy="180" r="140" fill="#ffffff" fill-opacity="0.18" />
  <circle cx="150" cy="260" r="90" fill="#ffffff" fill-opacity="0.12" />
  
      <rect x="70" y="72" width="300" height="92" rx="24" fill="#ffffff" fill-opacity="0.34" />
      <text x="98" y="120" fill="#2f3a31" font-size="32" font-family="'PingFang SC','Microsoft YaHei',sans-serif" font-weight="600">白纱誓语</text>
      <text x="98" y="152" fill="#4e6152" font-size="18" font-family="'PingFang SC','Microsoft YaHei',sans-serif">婚礼 · 白绿系</text>
    
  <g filter="url(#shadow)">
    <path d="M250 780 L650 780 L730 1080 L170 1080 Z" fill="#ece2d6" fill-opacity="0.88" />
  </g>
  <g>
    
    <g transform="translate(327.95 527.74) rotate(13.53)">
      <path d="M 0 0 C -8 70.68, 10 117.81, -6 172.79" stroke="#8da78b" stroke-width="9.42" fill="none" stroke-linecap="round" />
      <ellipse cx="-20" cy="86.39" rx="17.28" ry="32.99" fill="#8da78b" fill-opacity="0.75" transform="rotate(-24)" />
      <ellipse cx="28" cy="106.81" rx="15.71" ry="29.84" fill="#8da78b" fill-opacity="0.66" transform="rotate(20)" />
      <g transform="translate(0 0)">
        <ellipse cx="21.99" cy="0.00" rx="14.14" ry="21.99" fill="#f7f5ef" fill-opacity="0.95" /><ellipse cx="15.55" cy="15.55" rx="14.14" ry="21.99" fill="#f7f5ef" fill-opacity="0.95" /><ellipse cx="0.00" cy="21.99" rx="14.14" ry="21.99" fill="#f7f5ef" fill-opacity="0.95" /><ellipse cx="-15.55" cy="15.55" rx="14.14" ry="21.99" fill="#f7f5ef" fill-opacity="0.95" /><ellipse cx="-21.99" cy="0.00" rx="14.14" ry="21.99" fill="#f7f5ef" fill-opacity="0.95" /><ellipse cx="-15.55" cy="-15.55" rx="14.14" ry="21.99" fill="#f7f5ef" fill-opacity="0.95" /><ellipse cx="-0.00" cy="-21.99" rx="14.14" ry="21.99" fill="#f7f5ef" fill-opacity="0.95" /><ellipse cx="15.55" cy="-15.55" rx="14.14" ry="21.99" fill="#f7f5ef" fill-opacity="0.95" />
        <circle cx="0" cy="0" r="14.14" fill="#d5c0a8" />
        <circle cx="0" cy="0" r="7.07" fill="#fff7f0" fill-opacity="0.72" />
      </g>
    </g>
    
    <g transform="translate(437.80 552.66) rotate(1.12)">
      <path d="M 0 0 C -8 91.96, 10 153.26, -6 224.78" stroke="#6f8d6e" stroke-width="12.26" fill="none" stroke-linecap="round" />
      <ellipse cx="-20" cy="112.39" rx="22.48" ry="42.91" fill="#6f8d6e" fill-opacity="0.75" transform="rotate(-24)" />
      <ellipse cx="28" cy="138.96" rx="20.43" ry="38.83" fill="#6f8d6e" fill-opacity="0.66" transform="rotate(20)" />
      <g transform="translate(0 0)">
        <ellipse cx="28.61" cy="0.00" rx="18.39" ry="28.61" fill="#f1e3d4" fill-opacity="0.95" /><ellipse cx="20.23" cy="20.23" rx="18.39" ry="28.61" fill="#f1e3d4" fill-opacity="0.95" /><ellipse cx="0.00" cy="28.61" rx="18.39" ry="28.61" fill="#f1e3d4" fill-opacity="0.95" /><ellipse cx="-20.23" cy="20.23" rx="18.39" ry="28.61" fill="#f1e3d4" fill-opacity="0.95" /><ellipse cx="-28.61" cy="0.00" rx="18.39" ry="28.61" fill="#f1e3d4" fill-opacity="0.95" /><ellipse cx="-20.23" cy="-20.23" rx="18.39" ry="28.61" fill="#f1e3d4" fill-opacity="0.95" /><ellipse cx="-0.00" cy="-28.61" rx="18.39" ry="28.61" fill="#f1e3d4" fill-opacity="0.95" /><ellipse cx="20.23" cy="-20.23" rx="18.39" ry="28.61" fill="#f1e3d4" fill-opacity="0.95" />
        <circle cx="0" cy="0" r="18.39" fill="#d5c0a8" />
        <circle cx="0" cy="0" r="9.20" fill="#fff7f0" fill-opacity="0.72" />
      </g>
    </g>
    
    <g transform="translate(415.96 300.16) rotate(5.59)">
      <path d="M 0 0 C -8 71.33, 10 118.89, -6 174.37" stroke="#a7b99d" stroke-width="9.51" fill="none" stroke-linecap="round" />
      <ellipse cx="-20" cy="87.19" rx="17.44" ry="33.29" fill="#a7b99d" fill-opacity="0.75" transform="rotate(-24)" />
      <ellipse cx="28" cy="107.79" rx="15.85" ry="30.12" fill="#a7b99d" fill-opacity="0.66" transform="rotate(20)" />
      <g transform="translate(0 0)">
        <ellipse cx="22.19" cy="0.00" rx="14.27" ry="22.19" fill="#e7d8cf" fill-opacity="0.95" /><ellipse cx="15.69" cy="15.69" rx="14.27" ry="22.19" fill="#e7d8cf" fill-opacity="0.95" /><ellipse cx="0.00" cy="22.19" rx="14.27" ry="22.19" fill="#e7d8cf" fill-opacity="0.95" /><ellipse cx="-15.69" cy="15.69" rx="14.27" ry="22.19" fill="#e7d8cf" fill-opacity="0.95" /><ellipse cx="-22.19" cy="0.00" rx="14.27" ry="22.19" fill="#e7d8cf" fill-opacity="0.95" /><ellipse cx="-15.69" cy="-15.69" rx="14.27" ry="22.19" fill="#e7d8cf" fill-opacity="0.95" /><ellipse cx="-0.00" cy="-22.19" rx="14.27" ry="22.19" fill="#e7d8cf" fill-opacity="0.95" /><ellipse cx="15.69" cy="-15.69" rx="14.27" ry="22.19" fill="#e7d8cf" fill-opacity="0.95" />
        <circle cx="0" cy="0" r="14.27" fill="#d5c0a8" />
        <circle cx="0" cy="0" r="7.13" fill="#fff7f0" fill-opacity="0.72" />
      </g>
    </g>
    
    <g transform="translate(290.08 314.58) rotate(16.04)">
      <path d="M 0 0 C -8 82.03, 10 136.72, -6 200.53" stroke="#8da78b" stroke-width="10.94" fill="none" stroke-linecap="round" />
      <ellipse cx="-20" cy="100.26" rx="20.05" ry="38.28" fill="#8da78b" fill-opacity="0.75" transform="rotate(-24)" />
      <ellipse cx="28" cy="123.96" rx="18.23" ry="34.64" fill="#8da78b" fill-opacity="0.66" transform="rotate(20)" />
      <g transform="translate(0 0)">
        <ellipse cx="25.52" cy="0.00" rx="16.41" ry="25.52" fill="#d7e5d5" fill-opacity="0.95" /><ellipse cx="18.05" cy="18.05" rx="16.41" ry="25.52" fill="#d7e5d5" fill-opacity="0.95" /><ellipse cx="0.00" cy="25.52" rx="16.41" ry="25.52" fill="#d7e5d5" fill-opacity="0.95" /><ellipse cx="-18.05" cy="18.05" rx="16.41" ry="25.52" fill="#d7e5d5" fill-opacity="0.95" /><ellipse cx="-25.52" cy="0.00" rx="16.41" ry="25.52" fill="#d7e5d5" fill-opacity="0.95" /><ellipse cx="-18.05" cy="-18.05" rx="16.41" ry="25.52" fill="#d7e5d5" fill-opacity="0.95" /><ellipse cx="-0.00" cy="-25.52" rx="16.41" ry="25.52" fill="#d7e5d5" fill-opacity="0.95" /><ellipse cx="18.05" cy="-18.05" rx="16.41" ry="25.52" fill="#d7e5d5" fill-opacity="0.95" />
        <circle cx="0" cy="0" r="16.41" fill="#d5c0a8" />
        <circle cx="0" cy="0" r="8.20" fill="#fff7f0" fill-opacity="0.72" />
      </g>
    </g>
    
    <g transform="translate(629.90 404.62) rotate(19.97)">
      <path d="M 0 0 C -8 90.22, 10 150.36, -6 220.53" stroke="#6f8d6e" stroke-width="12.03" fill="none" stroke-linecap="round" />
      <ellipse cx="-20" cy="110.27" rx="22.05" ry="42.10" fill="#6f8d6e" fill-opacity="0.75" transform="rotate(-24)" />
      <ellipse cx="28" cy="136.33" rx="20.05" ry="38.09" fill="#6f8d6e" fill-opacity="0.66" transform="rotate(20)" />
      <g transform="translate(0 0)">
        <ellipse cx="28.07" cy="0.00" rx="18.04" ry="28.07" fill="#f7f5ef" fill-opacity="0.95" /><ellipse cx="19.85" cy="19.85" rx="18.04" ry="28.07" fill="#f7f5ef" fill-opacity="0.95" /><ellipse cx="0.00" cy="28.07" rx="18.04" ry="28.07" fill="#f7f5ef" fill-opacity="0.95" /><ellipse cx="-19.85" cy="19.85" rx="18.04" ry="28.07" fill="#f7f5ef" fill-opacity="0.95" /><ellipse cx="-28.07" cy="0.00" rx="18.04" ry="28.07" fill="#f7f5ef" fill-opacity="0.95" /><ellipse cx="-19.85" cy="-19.85" rx="18.04" ry="28.07" fill="#f7f5ef" fill-opacity="0.95" /><ellipse cx="-0.00" cy="-28.07" rx="18.04" ry="28.07" fill="#f7f5ef" fill-opacity="0.95" /><ellipse cx="19.85" cy="-19.85" rx="18.04" ry="28.07" fill="#f7f5ef" fill-opacity="0.95" />
        <circle cx="0" cy="0" r="18.04" fill="#d5c0a8" />
        <circle cx="0" cy="0" r="9.02" fill="#fff7f0" fill-opacity="0.72" />
      </g>
    </g>
    
    <g transform="translate(279.79 550.21) rotate(-12.47)">
      <path d="M 0 0 C -8 94.19, 10 156.98, -6 230.24" stroke="#a7b99d" stroke-width="12.56" fill="none" stroke-linecap="round" />
      <ellipse cx="-20" cy="115.12" rx="23.02" ry="43.96" fill="#a7b99d" fill-opacity="0.75" transform="rotate(-24)" />
      <ellipse cx="28" cy="142.33" rx="20.93" ry="39.77" fill="#a7b99d" fill-opacity="0.66" transform="rotate(20)" />
      <g transform="translate(0 0)">
        <ellipse cx="29.30" cy="0.00" rx="18.84" ry="29.30" fill="#f1e3d4" fill-opacity="0.95" /><ellipse cx="20.72" cy="20.72" rx="18.84" ry="29.30" fill="#f1e3d4" fill-opacity="0.95" /><ellipse cx="0.00" cy="29.30" rx="18.84" ry="29.30" fill="#f1e3d4" fill-opacity="0.95" /><ellipse cx="-20.72" cy="20.72" rx="18.84" ry="29.30" fill="#f1e3d4" fill-opacity="0.95" /><ellipse cx="-29.30" cy="0.00" rx="18.84" ry="29.30" fill="#f1e3d4" fill-opacity="0.95" /><ellipse cx="-20.72" cy="-20.72" rx="18.84" ry="29.30" fill="#f1e3d4" fill-opacity="0.95" /><ellipse cx="-0.00" cy="-29.30" rx="18.84" ry="29.30" fill="#f1e3d4" fill-opacity="0.95" /><ellipse cx="20.72" cy="-20.72" rx="18.84" ry="29.30" fill="#f1e3d4" fill-opacity="0.95" />
        <circle cx="0" cy="0" r="18.84" fill="#d5c0a8" />
        <circle cx="0" cy="0" r="9.42" fill="#fff7f0" fill-opacity="0.72" />
      </g>
    </g>
    
    <g transform="translate(395.02 394.00) rotate(-17.12)">
      <path d="M 0 0 C -8 95.23, 10 158.71, -6 232.78" stroke="#8da78b" stroke-width="12.70" fill="none" stroke-linecap="round" />
      <ellipse cx="-20" cy="116.39" rx="23.28" ry="44.44" fill="#8da78b" fill-opacity="0.75" transform="rotate(-24)" />
      <ellipse cx="28" cy="143.90" rx="21.16" ry="40.21" fill="#8da78b" fill-opacity="0.66" transform="rotate(20)" />
      <g transform="translate(0 0)">
        <ellipse cx="29.63" cy="0.00" rx="19.05" ry="29.63" fill="#e7d8cf" fill-opacity="0.95" /><ellipse cx="20.95" cy="20.95" rx="19.05" ry="29.63" fill="#e7d8cf" fill-opacity="0.95" /><ellipse cx="0.00" cy="29.63" rx="19.05" ry="29.63" fill="#e7d8cf" fill-opacity="0.95" /><ellipse cx="-20.95" cy="20.95" rx="19.05" ry="29.63" fill="#e7d8cf" fill-opacity="0.95" /><ellipse cx="-29.63" cy="0.00" rx="19.05" ry="29.63" fill="#e7d8cf" fill-opacity="0.95" /><ellipse cx="-20.95" cy="-20.95" rx="19.05" ry="29.63" fill="#e7d8cf" fill-opacity="0.95" /><ellipse cx="-0.00" cy="-29.63" rx="19.05" ry="29.63" fill="#e7d8cf" fill-opacity="0.95" /><ellipse cx="20.95" cy="-20.95" rx="19.05" ry="29.63" fill="#e7d8cf" fill-opacity="0.95" />
        <circle cx="0" cy="0" r="19.05" fill="#d5c0a8" />
        <circle cx="0" cy="0" r="9.52" fill="#fff7f0" fill-opacity="0.72" />
      </g>
    </g>
    
    <g transform="translate(521.61 489.72) rotate(-4.69)">
      <path d="M 0 0 C -8 81.52, 10 135.86, -6 199.26" stroke="#6f8d6e" stroke-width="10.87" fill="none" stroke-linecap="round" />
      <ellipse cx="-20" cy="99.63" rx="19.93" ry="38.04" fill="#6f8d6e" fill-opacity="0.75" transform="rotate(-24)" />
      <ellipse cx="28" cy="123.18" rx="18.11" ry="34.42" fill="#6f8d6e" fill-opacity="0.66" transform="rotate(20)" />
      <g transform="translate(0 0)">
        <ellipse cx="25.36" cy="0.00" rx="16.30" ry="25.36" fill="#d7e5d5" fill-opacity="0.95" /><ellipse cx="17.93" cy="17.93" rx="16.30" ry="25.36" fill="#d7e5d5" fill-opacity="0.95" /><ellipse cx="0.00" cy="25.36" rx="16.30" ry="25.36" fill="#d7e5d5" fill-opacity="0.95" /><ellipse cx="-17.93" cy="17.93" rx="16.30" ry="25.36" fill="#d7e5d5" fill-opacity="0.95" /><ellipse cx="-25.36" cy="0.00" rx="16.30" ry="25.36" fill="#d7e5d5" fill-opacity="0.95" /><ellipse cx="-17.93" cy="-17.93" rx="16.30" ry="25.36" fill="#d7e5d5" fill-opacity="0.95" /><ellipse cx="-0.00" cy="-25.36" rx="16.30" ry="25.36" fill="#d7e5d5" fill-opacity="0.95" /><ellipse cx="17.93" cy="-17.93" rx="16.30" ry="25.36" fill="#d7e5d5" fill-opacity="0.95" />
        <circle cx="0" cy="0" r="16.30" fill="#d5c0a8" />
        <circle cx="0" cy="0" r="8.15" fill="#fff7f0" fill-opacity="0.72" />
      </g>
    </g>
    
  </g>
  <path d="M0 980 C220 920, 420 1030, 900 930 L900 1100 L0 1100 Z" fill="#ffffff" fill-opacity="0.22" />
</svg>
