<svg xmlns="http://www.w3.org/2000/svg" width="900" height="1100" viewBox="0 0 900 1100">
  <defs>
    <linearGradient id="bg" x1="0" y1="0" x2="0" y2="1">
      <stop offset="0%" stop-color="#f8f3ec" />
      <stop offset="100%" stop-color="#e8efe5" />
    </linearGradient>
    <filter id="shadow" x="-20%" y="-20%" width="140%" height="140%">
      <feDropShadow dx="0" dy="22" stdDeviation="24" flood-color="#6c5d4f" flood-opacity="0.12" />
    </filter>
  </defs>
  <rect width="100%" height="100%" fill="url(#bg)" />
  <circle cx="730" cy="180" r="140" fill="#ffffff" fill-opacity="0.18" />
  <circle cx="150" cy="260" r="90" fill="#ffffff" fill-opacity="0.12" />
  
      <rect x="70" y="72" width="300" height="92" rx="24" fill="#ffffff" fill-opacity="0.34" />
      <text x="98" y="120" fill="#2f3a31" font-size="32" font-family="'PingFang SC','Microsoft YaHei',sans-serif" font-weight="600">薄暮誓言</text>
      <text x="98" y="152" fill="#4e6152" font-size="18" font-family="'PingFang SC','Microsoft YaHei',sans-serif">婚礼 · 迎宾区</text>
    
  <g filter="url(#shadow)">
    <path d="M250 780 L650 780 L730 1080 L170 1080 Z" fill="#ece2d6" fill-opacity="0.88" />
  </g>
  <g>
    
    <g transform="translate(529.15 319.86) rotate(5.72)">
      <path d="M 0 0 C -8 85.54, 10 142.56, -6 209.09" stroke="#8da78b" stroke-width="11.41" fill="none" stroke-linecap="round" />
      <ellipse cx="-20" cy="104.55" rx="20.91" ry="39.92" fill="#8da78b" fill-opacity="0.75" transform="rotate(-24)" />
      <ellipse cx="28" cy="129.26" rx="19.01" ry="36.12" fill="#8da78b" fill-opacity="0.66" transform="rotate(20)" />
      <g transform="translate(0 0)">
        <ellipse cx="26.61" cy="0.00" rx="17.11" ry="26.61" fill="#f7f5ef" fill-opacity="0.95" /><ellipse cx="18.82" cy="18.82" rx="17.11" ry="26.61" fill="#f7f5ef" fill-opacity="0.95" /><ellipse cx="0.00" cy="26.61" rx="17.11" ry="26.61" fill="#f7f5ef" fill-opacity="0.95" /><ellipse cx="-18.82" cy="18.82" rx="17.11" ry="26.61" fill="#f7f5ef" fill-opacity="0.95" /><ellipse cx="-26.61" cy="0.00" rx="17.11" ry="26.61" fill="#f7f5ef" fill-opacity="0.95" /><ellipse cx="-18.82" cy="-18.82" rx="17.11" ry="26.61" fill="#f7f5ef" fill-opacity="0.95" /><ellipse cx="-0.00" cy="-26.61" rx="17.11" ry="26.61" fill="#f7f5ef" fill-opacity="0.95" /><ellipse cx="18.82" cy="-18.82" rx="17.11" ry="26.61" fill="#f7f5ef" fill-opacity="0.95" />
        <circle cx="0" cy="0" r="17.11" fill="#d5c0a8" />
        <circle cx="0" cy="0" r="8.55" fill="#fff7f0" fill-opacity="0.72" />
      </g>
    </g>
    
    <g transform="translate(625.59 449.64) rotate(20.78)">
      <path d="M 0 0 C -8 115.11, 10 191.85, -6 281.38" stroke="#6f8d6e" stroke-width="15.35" fill="none" stroke-linecap="round" />
      <ellipse cx="-20" cy="140.69" rx="28.14" ry="53.72" fill="#6f8d6e" fill-opacity="0.75" transform="rotate(-24)" />
      <ellipse cx="28" cy="173.94" rx="25.58" ry="48.60" fill="#6f8d6e" fill-opacity="0.66" transform="rotate(20)" />
      <g transform="translate(0 0)">
        <ellipse cx="35.81" cy="0.00" rx="23.02" ry="35.81" fill="#f1e3d4" fill-opacity="0.95" /><ellipse cx="25.32" cy="25.32" rx="23.02" ry="35.81" fill="#f1e3d4" fill-opacity="0.95" /><ellipse cx="0.00" cy="35.81" rx="23.02" ry="35.81" fill="#f1e3d4" fill-opacity="0.95" /><ellipse cx="-25.32" cy="25.32" rx="23.02" ry="35.81" fill="#f1e3d4" fill-opacity="0.95" /><ellipse cx="-35.81" cy="0.00" rx="23.02" ry="35.81" fill="#f1e3d4" fill-opacity="0.95" /><ellipse cx="-25.32" cy="-25.32" rx="23.02" ry="35.81" fill="#f1e3d4" fill-opacity="0.95" /><ellipse cx="-0.00" cy="-35.81" rx="23.02" ry="35.81" fill="#f1e3d4" fill-opacity="0.95" /><ellipse cx="25.32" cy="-25.32" rx="23.02" ry="35.81" fill="#f1e3d4" fill-opacity="0.95" />
        <circle cx="0" cy="0" r="23.02" fill="#d5c0a8" />
        <circle cx="0" cy="0" r="11.51" fill="#fff7f0" fill-opacity="0.72" />
      </g>
    </g>
    
    <g transform="translate(649.41 363.36) rotate(20.99)">
      <path d="M 0 0 C -8 89.81, 10 149.69, -6 219.55" stroke="#a7b99d" stroke-width="11.98" fill="none" stroke-linecap="round" />
      <ellipse cx="-20" cy="109.77" rx="21.95" ry="41.91" fill="#a7b99d" fill-opacity="0.75" transform="rotate(-24)" />
      <ellipse cx="28" cy="135.72" rx="19.96" ry="37.92" fill="#a7b99d" fill-opacity="0.66" transform="rotate(20)" />
      <g transform="translate(0 0)">
        <ellipse cx="27.94" cy="0.00" rx="17.96" ry="27.94" fill="#e7d8cf" fill-opacity="0.95" /><ellipse cx="19.76" cy="19.76" rx="17.96" ry="27.94" fill="#e7d8cf" fill-opacity="0.95" /><ellipse cx="0.00" cy="27.94" rx="17.96" ry="27.94" fill="#e7d8cf" fill-opacity="0.95" /><ellipse cx="-19.76" cy="19.76" rx="17.96" ry="27.94" fill="#e7d8cf" fill-opacity="0.95" /><ellipse cx="-27.94" cy="0.00" rx="17.96" ry="27.94" fill="#e7d8cf" fill-opacity="0.95" /><ellipse cx="-19.76" cy="-19.76" rx="17.96" ry="27.94" fill="#e7d8cf" fill-opacity="0.95" /><ellipse cx="-0.00" cy="-27.94" rx="17.96" ry="27.94" fill="#e7d8cf" fill-opacity="0.95" /><ellipse cx="19.76" cy="-19.76" rx="17.96" ry="27.94" fill="#e7d8cf" fill-opacity="0.95" />
        <circle cx="0" cy="0" r="17.96" fill="#d5c0a8" />
        <circle cx="0" cy="0" r="8.98" fill="#fff7f0" fill-opacity="0.72" />
      </g>
    </g>
    
    <g transform="translate(270.61 429.24) rotate(21.69)">
      <path d="M 0 0 C -8 75.98, 10 126.64, -6 185.74" stroke="#8da78b" stroke-width="10.13" fill="none" stroke-linecap="round" />
      <ellipse cx="-20" cy="92.87" rx="18.57" ry="35.46" fill="#8da78b" fill-opacity="0.75" transform="rotate(-24)" />
      <ellipse cx="28" cy="114.82" rx="16.89" ry="32.08" fill="#8da78b" fill-opacity="0.66" transform="rotate(20)" />
      <g transform="translate(0 0)">
        <ellipse cx="23.64" cy="0.00" rx="15.20" ry="23.64" fill="#d7e5d5" fill-opacity="0.95" /><ellipse cx="16.72" cy="16.72" rx="15.20" ry="23.64" fill="#d7e5d5" fill-opacity="0.95" /><ellipse cx="0.00" cy="23.64" rx="15.20" ry="23.64" fill="#d7e5d5" fill-opacity="0.95" /><ellipse cx="-16.72" cy="16.72" rx="15.20" ry="23.64" fill="#d7e5d5" fill-opacity="0.95" /><ellipse cx="-23.64" cy="0.00" rx="15.20" ry="23.64" fill="#d7e5d5" fill-opacity="0.95" /><ellipse cx="-16.72" cy="-16.72" rx="15.20" ry="23.64" fill="#d7e5d5" fill-opacity="0.95" /><ellipse cx="-0.00" cy="-23.64" rx="15.20" ry="23.64" fill="#d7e5d5" fill-opacity="0.95" /><ellipse cx="16.72" cy="-16.72" rx="15.20" ry="23.64" fill="#d7e5d5" fill-opacity="0.95" />
        <circle cx="0" cy="0" r="15.20" fill="#d5c0a8" />
        <circle cx="0" cy="0" r="7.60" fill="#fff7f0" fill-opacity="0.72" />
      </g>
    </g>
    
    <g transform="translate(436.37 371.08) rotate(16.42)">
      <path d="M 0 0 C -8 113.91, 10 189.85, -6 278.45" stroke="#6f8d6e" stroke-width="15.19" fill="none" stroke-linecap="round" />
      <ellipse cx="-20" cy="139.23" rx="27.85" ry="53.16" fill="#6f8d6e" fill-opacity="0.75" transform="rotate(-24)" />
      <ellipse cx="28" cy="172.13" rx="25.31" ry="48.10" fill="#6f8d6e" fill-opacity="0.66" transform="rotate(20)" />
      <g transform="translate(0 0)">
        <ellipse cx="35.44" cy="0.00" rx="22.78" ry="35.44" fill="#f7f5ef" fill-opacity="0.95" /><ellipse cx="25.06" cy="25.06" rx="22.78" ry="35.44" fill="#f7f5ef" fill-opacity="0.95" /><ellipse cx="0.00" cy="35.44" rx="22.78" ry="35.44" fill="#f7f5ef" fill-opacity="0.95" /><ellipse cx="-25.06" cy="25.06" rx="22.78" ry="35.44" fill="#f7f5ef" fill-opacity="0.95" /><ellipse cx="-35.44" cy="0.00" rx="22.78" ry="35.44" fill="#f7f5ef" fill-opacity="0.95" /><ellipse cx="-25.06" cy="-25.06" rx="22.78" ry="35.44" fill="#f7f5ef" fill-opacity="0.95" /><ellipse cx="-0.00" cy="-35.44" rx="22.78" ry="35.44" fill="#f7f5ef" fill-opacity="0.95" /><ellipse cx="25.06" cy="-25.06" rx="22.78" ry="35.44" fill="#f7f5ef" fill-opacity="0.95" />
        <circle cx="0" cy="0" r="22.78" fill="#d5c0a8" />
        <circle cx="0" cy="0" r="11.39" fill="#fff7f0" fill-opacity="0.72" />
      </g>
    </g>
    
    <g transform="translate(482.48 469.02) rotate(-13.85)">
      <path d="M 0 0 C -8 93.58, 10 155.97, -6 228.76" stroke="#a7b99d" stroke-width="12.48" fill="none" stroke-linecap="round" />
      <ellipse cx="-20" cy="114.38" rx="22.88" ry="43.67" fill="#a7b99d" fill-opacity="0.75" transform="rotate(-24)" />
      <ellipse cx="28" cy="141.41" rx="20.80" ry="39.51" fill="#a7b99d" fill-opacity="0.66" transform="rotate(20)" />
      <g transform="translate(0 0)">
        <ellipse cx="29.11" cy="0.00" rx="18.72" ry="29.11" fill="#f1e3d4" fill-opacity="0.95" /><ellipse cx="20.59" cy="20.59" rx="18.72" ry="29.11" fill="#f1e3d4" fill-opacity="0.95" /><ellipse cx="0.00" cy="29.11" rx="18.72" ry="29.11" fill="#f1e3d4" fill-opacity="0.95" /><ellipse cx="-20.59" cy="20.59" rx="18.72" ry="29.11" fill="#f1e3d4" fill-opacity="0.95" /><ellipse cx="-29.11" cy="0.00" rx="18.72" ry="29.11" fill="#f1e3d4" fill-opacity="0.95" /><ellipse cx="-20.59" cy="-20.59" rx="18.72" ry="29.11" fill="#f1e3d4" fill-opacity="0.95" /><ellipse cx="-0.00" cy="-29.11" rx="18.72" ry="29.11" fill="#f1e3d4" fill-opacity="0.95" /><ellipse cx="20.59" cy="-20.59" rx="18.72" ry="29.11" fill="#f1e3d4" fill-opacity="0.95" />
        <circle cx="0" cy="0" r="18.72" fill="#d5c0a8" />
        <circle cx="0" cy="0" r="9.36" fill="#fff7f0" fill-opacity="0.72" />
      </g>
    </g>
    
    <g transform="translate(198.79 346.52) rotate(-11.27)">
      <path d="M 0 0 C -8 113.32, 10 188.87, -6 277.01" stroke="#8da78b" stroke-width="15.11" fill="none" stroke-linecap="round" />
      <ellipse cx="-20" cy="138.50" rx="27.70" ry="52.88" fill="#8da78b" fill-opacity="0.75" transform="rotate(-24)" />
      <ellipse cx="28" cy="171.24" rx="25.18" ry="47.85" fill="#8da78b" fill-opacity="0.66" transform="rotate(20)" />
      <g transform="translate(0 0)">
        <ellipse cx="35.26" cy="0.00" rx="22.66" ry="35.26" fill="#e7d8cf" fill-opacity="0.95" /><ellipse cx="24.93" cy="24.93" rx="22.66" ry="35.26" fill="#e7d8cf" fill-opacity="0.95" /><ellipse cx="0.00" cy="35.26" rx="22.66" ry="35.26" fill="#e7d8cf" fill-opacity="0.95" /><ellipse cx="-24.93" cy="24.93" rx="22.66" ry="35.26" fill="#e7d8cf" fill-opacity="0.95" /><ellipse cx="-35.26" cy="0.00" rx="22.66" ry="35.26" fill="#e7d8cf" fill-opacity="0.95" /><ellipse cx="-24.93" cy="-24.93" rx="22.66" ry="35.26" fill="#e7d8cf" fill-opacity="0.95" /><ellipse cx="-0.00" cy="-35.26" rx="22.66" ry="35.26" fill="#e7d8cf" fill-opacity="0.95" /><ellipse cx="24.93" cy="-24.93" rx="22.66" ry="35.26" fill="#e7d8cf" fill-opacity="0.95" />
        <circle cx="0" cy="0" r="22.66" fill="#d5c0a8" />
        <circle cx="0" cy="0" r="11.33" fill="#fff7f0" fill-opacity="0.72" />
      </g>
    </g>
    
    <g transform="translate(266.54 434.26) rotate(-3.05)">
      <path d="M 0 0 C -8 111.04, 10 185.06, -6 271.42" stroke="#6f8d6e" stroke-width="14.80" fill="none" stroke-linecap="round" />
      <ellipse cx="-20" cy="135.71" rx="27.14" ry="51.82" fill="#6f8d6e" fill-opacity="0.75" transform="rotate(-24)" />
      <ellipse cx="28" cy="167.79" rx="24.67" ry="46.88" fill="#6f8d6e" fill-opacity="0.66" transform="rotate(20)" />
      <g transform="translate(0 0)">
        <ellipse cx="34.54" cy="0.00" rx="22.21" ry="34.54" fill="#d7e5d5" fill-opacity="0.95" /><ellipse cx="24.43" cy="24.43" rx="22.21" ry="34.54" fill="#d7e5d5" fill-opacity="0.95" /><ellipse cx="0.00" cy="34.54" rx="22.21" ry="34.54" fill="#d7e5d5" fill-opacity="0.95" /><ellipse cx="-24.43" cy="24.43" rx="22.21" ry="34.54" fill="#d7e5d5" fill-opacity="0.95" /><ellipse cx="-34.54" cy="0.00" rx="22.21" ry="34.54" fill="#d7e5d5" fill-opacity="0.95" /><ellipse cx="-24.43" cy="-24.43" rx="22.21" ry="34.54" fill="#d7e5d5" fill-opacity="0.95" /><ellipse cx="-0.00" cy="-34.54" rx="22.21" ry="34.54" fill="#d7e5d5" fill-opacity="0.95" /><ellipse cx="24.43" cy="-24.43" rx="22.21" ry="34.54" fill="#d7e5d5" fill-opacity="0.95" />
        <circle cx="0" cy="0" r="22.21" fill="#d5c0a8" />
        <circle cx="0" cy="0" r="11.10" fill="#fff7f0" fill-opacity="0.72" />
      </g>
    </g>
    
  </g>
  <path d="M0 980 C220 920, 420 1030, 900 930 L900 1100 L0 1100 Z" fill="#ffffff" fill-opacity="0.22" />
</svg>
