<svg xmlns="http://www.w3.org/2000/svg" width="900" height="1100" viewBox="0 0 900 1100">
  <defs>
    <linearGradient id="bg" x1="0" y1="0" x2="0" y2="1">
      <stop offset="0%" stop-color="#f8f3ec" />
      <stop offset="100%" stop-color="#e8efe5" />
    </linearGradient>
    <filter id="shadow" x="-20%" y="-20%" width="140%" height="140%">
      <feDropShadow dx="0" dy="22" stdDeviation="24" flood-color="#6c5d4f" flood-opacity="0.12" />
    </filter>
  </defs>
  <rect width="100%" height="100%" fill="url(#bg)" />
  <circle cx="730" cy="180" r="140" fill="#ffffff" fill-opacity="0.18" />
  <circle cx="150" cy="260" r="90" fill="#ffffff" fill-opacity="0.12" />
  
      <rect x="70" y="72" width="300" height="92" rx="24" fill="#ffffff" fill-opacity="0.34" />
      <text x="98" y="120" fill="#2f3a31" font-size="32" font-family="'PingFang SC','Microsoft YaHei',sans-serif" font-weight="600">雾粉花誓</text>
      <text x="98" y="152" fill="#4e6152" font-size="18" font-family="'PingFang SC','Microsoft YaHei',sans-serif">婚礼 · 手捧花</text>
    
  <g filter="url(#shadow)">
    <path d="M250 780 L650 780 L730 1080 L170 1080 Z" fill="#ece2d6" fill-opacity="0.88" />
  </g>
  <g>
    
    <g transform="translate(644.72 341.85) rotate(21.12)">
      <path d="M 0 0 C -8 94.66, 10 157.76, -6 231.39" stroke="#8da78b" stroke-width="12.62" fill="none" stroke-linecap="round" />
      <ellipse cx="-20" cy="115.69" rx="23.14" ry="44.17" fill="#8da78b" fill-opacity="0.75" transform="rotate(-24)" />
      <ellipse cx="28" cy="143.04" rx="21.04" ry="39.97" fill="#8da78b" fill-opacity="0.66" transform="rotate(20)" />
      <g transform="translate(0 0)">
        <ellipse cx="29.45" cy="0.00" rx="18.93" ry="29.45" fill="#f7f5ef" fill-opacity="0.95" /><ellipse cx="20.82" cy="20.82" rx="18.93" ry="29.45" fill="#f7f5ef" fill-opacity="0.95" /><ellipse cx="0.00" cy="29.45" rx="18.93" ry="29.45" fill="#f7f5ef" fill-opacity="0.95" /><ellipse cx="-20.82" cy="20.82" rx="18.93" ry="29.45" fill="#f7f5ef" fill-opacity="0.95" /><ellipse cx="-29.45" cy="0.00" rx="18.93" ry="29.45" fill="#f7f5ef" fill-opacity="0.95" /><ellipse cx="-20.82" cy="-20.82" rx="18.93" ry="29.45" fill="#f7f5ef" fill-opacity="0.95" /><ellipse cx="-0.00" cy="-29.45" rx="18.93" ry="29.45" fill="#f7f5ef" fill-opacity="0.95" /><ellipse cx="20.82" cy="-20.82" rx="18.93" ry="29.45" fill="#f7f5ef" fill-opacity="0.95" />
        <circle cx="0" cy="0" r="18.93" fill="#d5c0a8" />
        <circle cx="0" cy="0" r="9.47" fill="#fff7f0" fill-opacity="0.72" />
      </g>
    </g>
    
    <g transform="translate(250.39 394.98) rotate(5.84)">
      <path d="M 0 0 C -8 80.24, 10 133.73, -6 196.14" stroke="#6f8d6e" stroke-width="10.70" fill="none" stroke-linecap="round" />
      <ellipse cx="-20" cy="98.07" rx="19.61" ry="37.44" fill="#6f8d6e" fill-opacity="0.75" transform="rotate(-24)" />
      <ellipse cx="28" cy="121.25" rx="17.83" ry="33.88" fill="#6f8d6e" fill-opacity="0.66" transform="rotate(20)" />
      <g transform="translate(0 0)">
        <ellipse cx="24.96" cy="0.00" rx="16.05" ry="24.96" fill="#f1e3d4" fill-opacity="0.95" /><ellipse cx="17.65" cy="17.65" rx="16.05" ry="24.96" fill="#f1e3d4" fill-opacity="0.95" /><ellipse cx="0.00" cy="24.96" rx="16.05" ry="24.96" fill="#f1e3d4" fill-opacity="0.95" /><ellipse cx="-17.65" cy="17.65" rx="16.05" ry="24.96" fill="#f1e3d4" fill-opacity="0.95" /><ellipse cx="-24.96" cy="0.00" rx="16.05" ry="24.96" fill="#f1e3d4" fill-opacity="0.95" /><ellipse cx="-17.65" cy="-17.65" rx="16.05" ry="24.96" fill="#f1e3d4" fill-opacity="0.95" /><ellipse cx="-0.00" cy="-24.96" rx="16.05" ry="24.96" fill="#f1e3d4" fill-opacity="0.95" /><ellipse cx="17.65" cy="-17.65" rx="16.05" ry="24.96" fill="#f1e3d4" fill-opacity="0.95" />
        <circle cx="0" cy="0" r="16.05" fill="#d5c0a8" />
        <circle cx="0" cy="0" r="8.02" fill="#fff7f0" fill-opacity="0.72" />
      </g>
    </g>
    
    <g transform="translate(623.22 331.32) rotate(-17.22)">
      <path d="M 0 0 C -8 99.40, 10 165.67, -6 242.98" stroke="#a7b99d" stroke-width="13.25" fill="none" stroke-linecap="round" />
      <ellipse cx="-20" cy="121.49" rx="24.30" ry="46.39" fill="#a7b99d" fill-opacity="0.75" transform="rotate(-24)" />
      <ellipse cx="28" cy="150.20" rx="22.09" ry="41.97" fill="#a7b99d" fill-opacity="0.66" transform="rotate(20)" />
      <g transform="translate(0 0)">
        <ellipse cx="30.92" cy="0.00" rx="19.88" ry="30.92" fill="#e7d8cf" fill-opacity="0.95" /><ellipse cx="21.87" cy="21.87" rx="19.88" ry="30.92" fill="#e7d8cf" fill-opacity="0.95" /><ellipse cx="0.00" cy="30.92" rx="19.88" ry="30.92" fill="#e7d8cf" fill-opacity="0.95" /><ellipse cx="-21.87" cy="21.87" rx="19.88" ry="30.92" fill="#e7d8cf" fill-opacity="0.95" /><ellipse cx="-30.92" cy="0.00" rx="19.88" ry="30.92" fill="#e7d8cf" fill-opacity="0.95" /><ellipse cx="-21.87" cy="-21.87" rx="19.88" ry="30.92" fill="#e7d8cf" fill-opacity="0.95" /><ellipse cx="-0.00" cy="-30.92" rx="19.88" ry="30.92" fill="#e7d8cf" fill-opacity="0.95" /><ellipse cx="21.87" cy="-21.87" rx="19.88" ry="30.92" fill="#e7d8cf" fill-opacity="0.95" />
        <circle cx="0" cy="0" r="19.88" fill="#d5c0a8" />
        <circle cx="0" cy="0" r="9.94" fill="#fff7f0" fill-opacity="0.72" />
      </g>
    </g>
    
    <g transform="translate(336.61 520.65) rotate(-3.41)">
      <path d="M 0 0 C -8 85.93, 10 143.21, -6 210.04" stroke="#8da78b" stroke-width="11.46" fill="none" stroke-linecap="round" />
      <ellipse cx="-20" cy="105.02" rx="21.00" ry="40.10" fill="#8da78b" fill-opacity="0.75" transform="rotate(-24)" />
      <ellipse cx="28" cy="129.84" rx="19.09" ry="36.28" fill="#8da78b" fill-opacity="0.66" transform="rotate(20)" />
      <g transform="translate(0 0)">
        <ellipse cx="26.73" cy="0.00" rx="17.19" ry="26.73" fill="#d7e5d5" fill-opacity="0.95" /><ellipse cx="18.90" cy="18.90" rx="17.19" ry="26.73" fill="#d7e5d5" fill-opacity="0.95" /><ellipse cx="0.00" cy="26.73" rx="17.19" ry="26.73" fill="#d7e5d5" fill-opacity="0.95" /><ellipse cx="-18.90" cy="18.90" rx="17.19" ry="26.73" fill="#d7e5d5" fill-opacity="0.95" /><ellipse cx="-26.73" cy="0.00" rx="17.19" ry="26.73" fill="#d7e5d5" fill-opacity="0.95" /><ellipse cx="-18.90" cy="-18.90" rx="17.19" ry="26.73" fill="#d7e5d5" fill-opacity="0.95" /><ellipse cx="-0.00" cy="-26.73" rx="17.19" ry="26.73" fill="#d7e5d5" fill-opacity="0.95" /><ellipse cx="18.90" cy="-18.90" rx="17.19" ry="26.73" fill="#d7e5d5" fill-opacity="0.95" />
        <circle cx="0" cy="0" r="17.19" fill="#d5c0a8" />
        <circle cx="0" cy="0" r="8.59" fill="#fff7f0" fill-opacity="0.72" />
      </g>
    </g>
    
    <g transform="translate(243.25 336.28) rotate(-15.61)">
      <path d="M 0 0 C -8 113.46, 10 189.11, -6 277.36" stroke="#6f8d6e" stroke-width="15.13" fill="none" stroke-linecap="round" />
      <ellipse cx="-20" cy="138.68" rx="27.74" ry="52.95" fill="#6f8d6e" fill-opacity="0.75" transform="rotate(-24)" />
      <ellipse cx="28" cy="171.46" rx="25.21" ry="47.91" fill="#6f8d6e" fill-opacity="0.66" transform="rotate(20)" />
      <g transform="translate(0 0)">
        <ellipse cx="35.30" cy="0.00" rx="22.69" ry="35.30" fill="#f7f5ef" fill-opacity="0.95" /><ellipse cx="24.96" cy="24.96" rx="22.69" ry="35.30" fill="#f7f5ef" fill-opacity="0.95" /><ellipse cx="0.00" cy="35.30" rx="22.69" ry="35.30" fill="#f7f5ef" fill-opacity="0.95" /><ellipse cx="-24.96" cy="24.96" rx="22.69" ry="35.30" fill="#f7f5ef" fill-opacity="0.95" /><ellipse cx="-35.30" cy="0.00" rx="22.69" ry="35.30" fill="#f7f5ef" fill-opacity="0.95" /><ellipse cx="-24.96" cy="-24.96" rx="22.69" ry="35.30" fill="#f7f5ef" fill-opacity="0.95" /><ellipse cx="-0.00" cy="-35.30" rx="22.69" ry="35.30" fill="#f7f5ef" fill-opacity="0.95" /><ellipse cx="24.96" cy="-24.96" rx="22.69" ry="35.30" fill="#f7f5ef" fill-opacity="0.95" />
        <circle cx="0" cy="0" r="22.69" fill="#d5c0a8" />
        <circle cx="0" cy="0" r="11.35" fill="#fff7f0" fill-opacity="0.72" />
      </g>
    </g>
    
    <g transform="translate(436.77 380.28) rotate(25.25)">
      <path d="M 0 0 C -8 87.90, 10 146.50, -6 214.87" stroke="#a7b99d" stroke-width="11.72" fill="none" stroke-linecap="round" />
      <ellipse cx="-20" cy="107.43" rx="21.49" ry="41.02" fill="#a7b99d" fill-opacity="0.75" transform="rotate(-24)" />
      <ellipse cx="28" cy="132.83" rx="19.53" ry="37.11" fill="#a7b99d" fill-opacity="0.66" transform="rotate(20)" />
      <g transform="translate(0 0)">
        <ellipse cx="27.35" cy="0.00" rx="17.58" ry="27.35" fill="#f1e3d4" fill-opacity="0.95" /><ellipse cx="19.34" cy="19.34" rx="17.58" ry="27.35" fill="#f1e3d4" fill-opacity="0.95" /><ellipse cx="0.00" cy="27.35" rx="17.58" ry="27.35" fill="#f1e3d4" fill-opacity="0.95" /><ellipse cx="-19.34" cy="19.34" rx="17.58" ry="27.35" fill="#f1e3d4" fill-opacity="0.95" /><ellipse cx="-27.35" cy="0.00" rx="17.58" ry="27.35" fill="#f1e3d4" fill-opacity="0.95" /><ellipse cx="-19.34" cy="-19.34" rx="17.58" ry="27.35" fill="#f1e3d4" fill-opacity="0.95" /><ellipse cx="-0.00" cy="-27.35" rx="17.58" ry="27.35" fill="#f1e3d4" fill-opacity="0.95" /><ellipse cx="19.34" cy="-19.34" rx="17.58" ry="27.35" fill="#f1e3d4" fill-opacity="0.95" />
        <circle cx="0" cy="0" r="17.58" fill="#d5c0a8" />
        <circle cx="0" cy="0" r="8.79" fill="#fff7f0" fill-opacity="0.72" />
      </g>
    </g>
    
    <g transform="translate(679.41 534.58) rotate(-6.38)">
      <path d="M 0 0 C -8 107.98, 10 179.96, -6 263.94" stroke="#8da78b" stroke-width="14.40" fill="none" stroke-linecap="round" />
      <ellipse cx="-20" cy="131.97" rx="26.39" ry="50.39" fill="#8da78b" fill-opacity="0.75" transform="rotate(-24)" />
      <ellipse cx="28" cy="163.17" rx="23.99" ry="45.59" fill="#8da78b" fill-opacity="0.66" transform="rotate(20)" />
      <g transform="translate(0 0)">
        <ellipse cx="33.59" cy="0.00" rx="21.60" ry="33.59" fill="#e7d8cf" fill-opacity="0.95" /><ellipse cx="23.75" cy="23.75" rx="21.60" ry="33.59" fill="#e7d8cf" fill-opacity="0.95" /><ellipse cx="0.00" cy="33.59" rx="21.60" ry="33.59" fill="#e7d8cf" fill-opacity="0.95" /><ellipse cx="-23.75" cy="23.75" rx="21.60" ry="33.59" fill="#e7d8cf" fill-opacity="0.95" /><ellipse cx="-33.59" cy="0.00" rx="21.60" ry="33.59" fill="#e7d8cf" fill-opacity="0.95" /><ellipse cx="-23.75" cy="-23.75" rx="21.60" ry="33.59" fill="#e7d8cf" fill-opacity="0.95" /><ellipse cx="-0.00" cy="-33.59" rx="21.60" ry="33.59" fill="#e7d8cf" fill-opacity="0.95" /><ellipse cx="23.75" cy="-23.75" rx="21.60" ry="33.59" fill="#e7d8cf" fill-opacity="0.95" />
        <circle cx="0" cy="0" r="21.60" fill="#d5c0a8" />
        <circle cx="0" cy="0" r="10.80" fill="#fff7f0" fill-opacity="0.72" />
      </g>
    </g>
    
    <g transform="translate(368.57 441.55) rotate(-17.99)">
      <path d="M 0 0 C -8 77.41, 10 129.01, -6 189.21" stroke="#6f8d6e" stroke-width="10.32" fill="none" stroke-linecap="round" />
      <ellipse cx="-20" cy="94.61" rx="18.92" ry="36.12" fill="#6f8d6e" fill-opacity="0.75" transform="rotate(-24)" />
      <ellipse cx="28" cy="116.97" rx="17.20" ry="32.68" fill="#6f8d6e" fill-opacity="0.66" transform="rotate(20)" />
      <g transform="translate(0 0)">
        <ellipse cx="24.08" cy="0.00" rx="15.48" ry="24.08" fill="#d7e5d5" fill-opacity="0.95" /><ellipse cx="17.03" cy="17.03" rx="15.48" ry="24.08" fill="#d7e5d5" fill-opacity="0.95" /><ellipse cx="0.00" cy="24.08" rx="15.48" ry="24.08" fill="#d7e5d5" fill-opacity="0.95" /><ellipse cx="-17.03" cy="17.03" rx="15.48" ry="24.08" fill="#d7e5d5" fill-opacity="0.95" /><ellipse cx="-24.08" cy="0.00" rx="15.48" ry="24.08" fill="#d7e5d5" fill-opacity="0.95" /><ellipse cx="-17.03" cy="-17.03" rx="15.48" ry="24.08" fill="#d7e5d5" fill-opacity="0.95" /><ellipse cx="-0.00" cy="-24.08" rx="15.48" ry="24.08" fill="#d7e5d5" fill-opacity="0.95" /><ellipse cx="17.03" cy="-17.03" rx="15.48" ry="24.08" fill="#d7e5d5" fill-opacity="0.95" />
        <circle cx="0" cy="0" r="15.48" fill="#d5c0a8" />
        <circle cx="0" cy="0" r="7.74" fill="#fff7f0" fill-opacity="0.72" />
      </g>
    </g>
    
  </g>
  <path d="M0 980 C220 920, 420 1030, 900 930 L900 1100 L0 1100 Z" fill="#ffffff" fill-opacity="0.22" />
</svg>
