<svg xmlns="http://www.w3.org/2000/svg" width="900" height="1100" viewBox="0 0 900 1100">
  <defs>
    <linearGradient id="bg" x1="0" y1="0" x2="0" y2="1">
      <stop offset="0%" stop-color="#f8f3ec" />
      <stop offset="100%" stop-color="#e8efe5" />
    </linearGradient>
    <filter id="shadow" x="-20%" y="-20%" width="140%" height="140%">
      <feDropShadow dx="0" dy="22" stdDeviation="24" flood-color="#6c5d4f" flood-opacity="0.12" />
    </filter>
  </defs>
  <rect width="100%" height="100%" fill="url(#bg)" />
  <circle cx="730" cy="180" r="140" fill="#ffffff" fill-opacity="0.18" />
  <circle cx="150" cy="260" r="90" fill="#ffffff" fill-opacity="0.12" />
  
      <rect x="70" y="72" width="300" height="92" rx="24" fill="#ffffff" fill-opacity="0.34" />
      <text x="98" y="120" fill="#2f3a31" font-size="32" font-family="'PingFang SC','Microsoft YaHei',sans-serif" font-weight="600">白纱誓语</text>
      <text x="98" y="152" fill="#4e6152" font-size="18" font-family="'PingFang SC','Microsoft YaHei',sans-serif">婚礼 · 白绿系</text>
    
  <g filter="url(#shadow)">
    <path d="M250 780 L650 780 L730 1080 L170 1080 Z" fill="#ece2d6" fill-opacity="0.88" />
  </g>
  <g>
    
    <g transform="translate(228.40 505.88) rotate(13.06)">
      <path d="M 0 0 C -8 70.76, 10 117.94, -6 172.98" stroke="#8da78b" stroke-width="9.44" fill="none" stroke-linecap="round" />
      <ellipse cx="-20" cy="86.49" rx="17.30" ry="33.02" fill="#8da78b" fill-opacity="0.75" transform="rotate(-24)" />
      <ellipse cx="28" cy="106.93" rx="15.73" ry="29.88" fill="#8da78b" fill-opacity="0.66" transform="rotate(20)" />
      <g transform="translate(0 0)">
        <ellipse cx="22.02" cy="0.00" rx="14.15" ry="22.02" fill="#f7f5ef" fill-opacity="0.95" /><ellipse cx="15.57" cy="15.57" rx="14.15" ry="22.02" fill="#f7f5ef" fill-opacity="0.95" /><ellipse cx="0.00" cy="22.02" rx="14.15" ry="22.02" fill="#f7f5ef" fill-opacity="0.95" /><ellipse cx="-15.57" cy="15.57" rx="14.15" ry="22.02" fill="#f7f5ef" fill-opacity="0.95" /><ellipse cx="-22.02" cy="0.00" rx="14.15" ry="22.02" fill="#f7f5ef" fill-opacity="0.95" /><ellipse cx="-15.57" cy="-15.57" rx="14.15" ry="22.02" fill="#f7f5ef" fill-opacity="0.95" /><ellipse cx="-0.00" cy="-22.02" rx="14.15" ry="22.02" fill="#f7f5ef" fill-opacity="0.95" /><ellipse cx="15.57" cy="-15.57" rx="14.15" ry="22.02" fill="#f7f5ef" fill-opacity="0.95" />
        <circle cx="0" cy="0" r="14.15" fill="#d5c0a8" />
        <circle cx="0" cy="0" r="7.08" fill="#fff7f0" fill-opacity="0.72" />
      </g>
    </g>
    
    <g transform="translate(351.91 348.93) rotate(20.15)">
      <path d="M 0 0 C -8 104.75, 10 174.58, -6 256.05" stroke="#6f8d6e" stroke-width="13.97" fill="none" stroke-linecap="round" />
      <ellipse cx="-20" cy="128.02" rx="25.60" ry="48.88" fill="#6f8d6e" fill-opacity="0.75" transform="rotate(-24)" />
      <ellipse cx="28" cy="158.28" rx="23.28" ry="44.23" fill="#6f8d6e" fill-opacity="0.66" transform="rotate(20)" />
      <g transform="translate(0 0)">
        <ellipse cx="32.59" cy="0.00" rx="20.95" ry="32.59" fill="#f1e3d4" fill-opacity="0.95" /><ellipse cx="23.04" cy="23.04" rx="20.95" ry="32.59" fill="#f1e3d4" fill-opacity="0.95" /><ellipse cx="0.00" cy="32.59" rx="20.95" ry="32.59" fill="#f1e3d4" fill-opacity="0.95" /><ellipse cx="-23.04" cy="23.04" rx="20.95" ry="32.59" fill="#f1e3d4" fill-opacity="0.95" /><ellipse cx="-32.59" cy="0.00" rx="20.95" ry="32.59" fill="#f1e3d4" fill-opacity="0.95" /><ellipse cx="-23.04" cy="-23.04" rx="20.95" ry="32.59" fill="#f1e3d4" fill-opacity="0.95" /><ellipse cx="-0.00" cy="-32.59" rx="20.95" ry="32.59" fill="#f1e3d4" fill-opacity="0.95" /><ellipse cx="23.04" cy="-23.04" rx="20.95" ry="32.59" fill="#f1e3d4" fill-opacity="0.95" />
        <circle cx="0" cy="0" r="20.95" fill="#d5c0a8" />
        <circle cx="0" cy="0" r="10.47" fill="#fff7f0" fill-opacity="0.72" />
      </g>
    </g>
    
    <g transform="translate(700.57 434.07) rotate(3.66)">
      <path d="M 0 0 C -8 91.07, 10 151.79, -6 222.62" stroke="#a7b99d" stroke-width="12.14" fill="none" stroke-linecap="round" />
      <ellipse cx="-20" cy="111.31" rx="22.26" ry="42.50" fill="#a7b99d" fill-opacity="0.75" transform="rotate(-24)" />
      <ellipse cx="28" cy="137.62" rx="20.24" ry="38.45" fill="#a7b99d" fill-opacity="0.66" transform="rotate(20)" />
      <g transform="translate(0 0)">
        <ellipse cx="28.33" cy="0.00" rx="18.21" ry="28.33" fill="#e7d8cf" fill-opacity="0.95" /><ellipse cx="20.03" cy="20.03" rx="18.21" ry="28.33" fill="#e7d8cf" fill-opacity="0.95" /><ellipse cx="0.00" cy="28.33" rx="18.21" ry="28.33" fill="#e7d8cf" fill-opacity="0.95" /><ellipse cx="-20.03" cy="20.03" rx="18.21" ry="28.33" fill="#e7d8cf" fill-opacity="0.95" /><ellipse cx="-28.33" cy="0.00" rx="18.21" ry="28.33" fill="#e7d8cf" fill-opacity="0.95" /><ellipse cx="-20.03" cy="-20.03" rx="18.21" ry="28.33" fill="#e7d8cf" fill-opacity="0.95" /><ellipse cx="-0.00" cy="-28.33" rx="18.21" ry="28.33" fill="#e7d8cf" fill-opacity="0.95" /><ellipse cx="20.03" cy="-20.03" rx="18.21" ry="28.33" fill="#e7d8cf" fill-opacity="0.95" />
        <circle cx="0" cy="0" r="18.21" fill="#d5c0a8" />
        <circle cx="0" cy="0" r="9.11" fill="#fff7f0" fill-opacity="0.72" />
      </g>
    </g>
    
    <g transform="translate(548.44 409.67) rotate(-6.01)">
      <path d="M 0 0 C -8 74.53, 10 124.22, -6 182.19" stroke="#8da78b" stroke-width="9.94" fill="none" stroke-linecap="round" />
      <ellipse cx="-20" cy="91.10" rx="18.22" ry="34.78" fill="#8da78b" fill-opacity="0.75" transform="rotate(-24)" />
      <ellipse cx="28" cy="112.63" rx="16.56" ry="31.47" fill="#8da78b" fill-opacity="0.66" transform="rotate(20)" />
      <g transform="translate(0 0)">
        <ellipse cx="23.19" cy="0.00" rx="14.91" ry="23.19" fill="#d7e5d5" fill-opacity="0.95" /><ellipse cx="16.40" cy="16.40" rx="14.91" ry="23.19" fill="#d7e5d5" fill-opacity="0.95" /><ellipse cx="0.00" cy="23.19" rx="14.91" ry="23.19" fill="#d7e5d5" fill-opacity="0.95" /><ellipse cx="-16.40" cy="16.40" rx="14.91" ry="23.19" fill="#d7e5d5" fill-opacity="0.95" /><ellipse cx="-23.19" cy="0.00" rx="14.91" ry="23.19" fill="#d7e5d5" fill-opacity="0.95" /><ellipse cx="-16.40" cy="-16.40" rx="14.91" ry="23.19" fill="#d7e5d5" fill-opacity="0.95" /><ellipse cx="-0.00" cy="-23.19" rx="14.91" ry="23.19" fill="#d7e5d5" fill-opacity="0.95" /><ellipse cx="16.40" cy="-16.40" rx="14.91" ry="23.19" fill="#d7e5d5" fill-opacity="0.95" />
        <circle cx="0" cy="0" r="14.91" fill="#d5c0a8" />
        <circle cx="0" cy="0" r="7.45" fill="#fff7f0" fill-opacity="0.72" />
      </g>
    </g>
    
    <g transform="translate(355.37 476.95) rotate(-1.08)">
      <path d="M 0 0 C -8 85.20, 10 142.00, -6 208.27" stroke="#6f8d6e" stroke-width="11.36" fill="none" stroke-linecap="round" />
      <ellipse cx="-20" cy="104.13" rx="20.83" ry="39.76" fill="#6f8d6e" fill-opacity="0.75" transform="rotate(-24)" />
      <ellipse cx="28" cy="128.75" rx="18.93" ry="35.97" fill="#6f8d6e" fill-opacity="0.66" transform="rotate(20)" />
      <g transform="translate(0 0)">
        <ellipse cx="26.51" cy="0.00" rx="17.04" ry="26.51" fill="#f7f5ef" fill-opacity="0.95" /><ellipse cx="18.74" cy="18.74" rx="17.04" ry="26.51" fill="#f7f5ef" fill-opacity="0.95" /><ellipse cx="0.00" cy="26.51" rx="17.04" ry="26.51" fill="#f7f5ef" fill-opacity="0.95" /><ellipse cx="-18.74" cy="18.74" rx="17.04" ry="26.51" fill="#f7f5ef" fill-opacity="0.95" /><ellipse cx="-26.51" cy="0.00" rx="17.04" ry="26.51" fill="#f7f5ef" fill-opacity="0.95" /><ellipse cx="-18.74" cy="-18.74" rx="17.04" ry="26.51" fill="#f7f5ef" fill-opacity="0.95" /><ellipse cx="-0.00" cy="-26.51" rx="17.04" ry="26.51" fill="#f7f5ef" fill-opacity="0.95" /><ellipse cx="18.74" cy="-18.74" rx="17.04" ry="26.51" fill="#f7f5ef" fill-opacity="0.95" />
        <circle cx="0" cy="0" r="17.04" fill="#d5c0a8" />
        <circle cx="0" cy="0" r="8.52" fill="#fff7f0" fill-opacity="0.72" />
      </g>
    </g>
    
    <g transform="translate(547.04 520.16) rotate(-21.75)">
      <path d="M 0 0 C -8 105.69, 10 176.16, -6 258.36" stroke="#a7b99d" stroke-width="14.09" fill="none" stroke-linecap="round" />
      <ellipse cx="-20" cy="129.18" rx="25.84" ry="49.32" fill="#a7b99d" fill-opacity="0.75" transform="rotate(-24)" />
      <ellipse cx="28" cy="159.72" rx="23.49" ry="44.63" fill="#a7b99d" fill-opacity="0.66" transform="rotate(20)" />
      <g transform="translate(0 0)">
        <ellipse cx="32.88" cy="0.00" rx="21.14" ry="32.88" fill="#f1e3d4" fill-opacity="0.95" /><ellipse cx="23.25" cy="23.25" rx="21.14" ry="32.88" fill="#f1e3d4" fill-opacity="0.95" /><ellipse cx="0.00" cy="32.88" rx="21.14" ry="32.88" fill="#f1e3d4" fill-opacity="0.95" /><ellipse cx="-23.25" cy="23.25" rx="21.14" ry="32.88" fill="#f1e3d4" fill-opacity="0.95" /><ellipse cx="-32.88" cy="0.00" rx="21.14" ry="32.88" fill="#f1e3d4" fill-opacity="0.95" /><ellipse cx="-23.25" cy="-23.25" rx="21.14" ry="32.88" fill="#f1e3d4" fill-opacity="0.95" /><ellipse cx="-0.00" cy="-32.88" rx="21.14" ry="32.88" fill="#f1e3d4" fill-opacity="0.95" /><ellipse cx="23.25" cy="-23.25" rx="21.14" ry="32.88" fill="#f1e3d4" fill-opacity="0.95" />
        <circle cx="0" cy="0" r="21.14" fill="#d5c0a8" />
        <circle cx="0" cy="0" r="10.57" fill="#fff7f0" fill-opacity="0.72" />
      </g>
    </g>
    
    <g transform="translate(503.69 493.89) rotate(20.76)">
      <path d="M 0 0 C -8 109.17, 10 181.95, -6 266.85" stroke="#8da78b" stroke-width="14.56" fill="none" stroke-linecap="round" />
      <ellipse cx="-20" cy="133.43" rx="26.69" ry="50.94" fill="#8da78b" fill-opacity="0.75" transform="rotate(-24)" />
      <ellipse cx="28" cy="164.96" rx="24.26" ry="46.09" fill="#8da78b" fill-opacity="0.66" transform="rotate(20)" />
      <g transform="translate(0 0)">
        <ellipse cx="33.96" cy="0.00" rx="21.83" ry="33.96" fill="#e7d8cf" fill-opacity="0.95" /><ellipse cx="24.02" cy="24.02" rx="21.83" ry="33.96" fill="#e7d8cf" fill-opacity="0.95" /><ellipse cx="0.00" cy="33.96" rx="21.83" ry="33.96" fill="#e7d8cf" fill-opacity="0.95" /><ellipse cx="-24.02" cy="24.02" rx="21.83" ry="33.96" fill="#e7d8cf" fill-opacity="0.95" /><ellipse cx="-33.96" cy="0.00" rx="21.83" ry="33.96" fill="#e7d8cf" fill-opacity="0.95" /><ellipse cx="-24.02" cy="-24.02" rx="21.83" ry="33.96" fill="#e7d8cf" fill-opacity="0.95" /><ellipse cx="-0.00" cy="-33.96" rx="21.83" ry="33.96" fill="#e7d8cf" fill-opacity="0.95" /><ellipse cx="24.02" cy="-24.02" rx="21.83" ry="33.96" fill="#e7d8cf" fill-opacity="0.95" />
        <circle cx="0" cy="0" r="21.83" fill="#d5c0a8" />
        <circle cx="0" cy="0" r="10.92" fill="#fff7f0" fill-opacity="0.72" />
      </g>
    </g>
    
  </g>
  <path d="M0 980 C220 920, 420 1030, 900 930 L900 1100 L0 1100 Z" fill="#ffffff" fill-opacity="0.22" />
</svg>
