<svg xmlns="http://www.w3.org/2000/svg" width="900" height="1100" viewBox="0 0 900 1100">
  <defs>
    <linearGradient id="bg" x1="0" y1="0" x2="0" y2="1">
      <stop offset="0%" stop-color="#f8f3ec" />
      <stop offset="100%" stop-color="#e8efe5" />
    </linearGradient>
    <filter id="shadow" x="-20%" y="-20%" width="140%" height="140%">
      <feDropShadow dx="0" dy="22" stdDeviation="24" flood-color="#6c5d4f" flood-opacity="0.12" />
    </filter>
  </defs>
  <rect width="100%" height="100%" fill="url(#bg)" />
  <circle cx="730" cy="180" r="140" fill="#ffffff" fill-opacity="0.18" />
  <circle cx="150" cy="260" r="90" fill="#ffffff" fill-opacity="0.12" />
  
      <rect x="70" y="72" width="300" height="92" rx="24" fill="#ffffff" fill-opacity="0.34" />
      <text x="98" y="120" fill="#2f3a31" font-size="32" font-family="'PingFang SC','Microsoft YaHei',sans-serif" font-weight="600">白纱誓语</text>
      <text x="98" y="152" fill="#4e6152" font-size="18" font-family="'PingFang SC','Microsoft YaHei',sans-serif">婚礼 · 白绿系</text>
    
  <g filter="url(#shadow)">
    <path d="M250 780 L650 780 L730 1080 L170 1080 Z" fill="#ece2d6" fill-opacity="0.88" />
  </g>
  <g>
    
    <g transform="translate(226.63 448.43) rotate(-19.45)">
      <path d="M 0 0 C -8 86.95, 10 144.91, -6 212.54" stroke="#8da78b" stroke-width="11.59" fill="none" stroke-linecap="round" />
      <ellipse cx="-20" cy="106.27" rx="21.25" ry="40.58" fill="#8da78b" fill-opacity="0.75" transform="rotate(-24)" />
      <ellipse cx="28" cy="131.39" rx="19.32" ry="36.71" fill="#8da78b" fill-opacity="0.66" transform="rotate(20)" />
      <g transform="translate(0 0)">
        <ellipse cx="27.05" cy="0.00" rx="17.39" ry="27.05" fill="#f7f5ef" fill-opacity="0.95" /><ellipse cx="19.13" cy="19.13" rx="17.39" ry="27.05" fill="#f7f5ef" fill-opacity="0.95" /><ellipse cx="0.00" cy="27.05" rx="17.39" ry="27.05" fill="#f7f5ef" fill-opacity="0.95" /><ellipse cx="-19.13" cy="19.13" rx="17.39" ry="27.05" fill="#f7f5ef" fill-opacity="0.95" /><ellipse cx="-27.05" cy="0.00" rx="17.39" ry="27.05" fill="#f7f5ef" fill-opacity="0.95" /><ellipse cx="-19.13" cy="-19.13" rx="17.39" ry="27.05" fill="#f7f5ef" fill-opacity="0.95" /><ellipse cx="-0.00" cy="-27.05" rx="17.39" ry="27.05" fill="#f7f5ef" fill-opacity="0.95" /><ellipse cx="19.13" cy="-19.13" rx="17.39" ry="27.05" fill="#f7f5ef" fill-opacity="0.95" />
        <circle cx="0" cy="0" r="17.39" fill="#d5c0a8" />
        <circle cx="0" cy="0" r="8.69" fill="#fff7f0" fill-opacity="0.72" />
      </g>
    </g>
    
    <g transform="translate(268.26 400.88) rotate(-4.34)">
      <path d="M 0 0 C -8 90.11, 10 150.18, -6 220.27" stroke="#6f8d6e" stroke-width="12.01" fill="none" stroke-linecap="round" />
      <ellipse cx="-20" cy="110.13" rx="22.03" ry="42.05" fill="#6f8d6e" fill-opacity="0.75" transform="rotate(-24)" />
      <ellipse cx="28" cy="136.17" rx="20.02" ry="38.05" fill="#6f8d6e" fill-opacity="0.66" transform="rotate(20)" />
      <g transform="translate(0 0)">
        <ellipse cx="28.03" cy="0.00" rx="18.02" ry="28.03" fill="#f1e3d4" fill-opacity="0.95" /><ellipse cx="19.82" cy="19.82" rx="18.02" ry="28.03" fill="#f1e3d4" fill-opacity="0.95" /><ellipse cx="0.00" cy="28.03" rx="18.02" ry="28.03" fill="#f1e3d4" fill-opacity="0.95" /><ellipse cx="-19.82" cy="19.82" rx="18.02" ry="28.03" fill="#f1e3d4" fill-opacity="0.95" /><ellipse cx="-28.03" cy="0.00" rx="18.02" ry="28.03" fill="#f1e3d4" fill-opacity="0.95" /><ellipse cx="-19.82" cy="-19.82" rx="18.02" ry="28.03" fill="#f1e3d4" fill-opacity="0.95" /><ellipse cx="-0.00" cy="-28.03" rx="18.02" ry="28.03" fill="#f1e3d4" fill-opacity="0.95" /><ellipse cx="19.82" cy="-19.82" rx="18.02" ry="28.03" fill="#f1e3d4" fill-opacity="0.95" />
        <circle cx="0" cy="0" r="18.02" fill="#d5c0a8" />
        <circle cx="0" cy="0" r="9.01" fill="#fff7f0" fill-opacity="0.72" />
      </g>
    </g>
    
    <g transform="translate(280.17 303.46) rotate(10.13)">
      <path d="M 0 0 C -8 74.11, 10 123.52, -6 181.16" stroke="#a7b99d" stroke-width="9.88" fill="none" stroke-linecap="round" />
      <ellipse cx="-20" cy="90.58" rx="18.12" ry="34.58" fill="#a7b99d" fill-opacity="0.75" transform="rotate(-24)" />
      <ellipse cx="28" cy="111.99" rx="16.47" ry="31.29" fill="#a7b99d" fill-opacity="0.66" transform="rotate(20)" />
      <g transform="translate(0 0)">
        <ellipse cx="23.06" cy="0.00" rx="14.82" ry="23.06" fill="#e7d8cf" fill-opacity="0.95" /><ellipse cx="16.30" cy="16.30" rx="14.82" ry="23.06" fill="#e7d8cf" fill-opacity="0.95" /><ellipse cx="0.00" cy="23.06" rx="14.82" ry="23.06" fill="#e7d8cf" fill-opacity="0.95" /><ellipse cx="-16.30" cy="16.30" rx="14.82" ry="23.06" fill="#e7d8cf" fill-opacity="0.95" /><ellipse cx="-23.06" cy="0.00" rx="14.82" ry="23.06" fill="#e7d8cf" fill-opacity="0.95" /><ellipse cx="-16.30" cy="-16.30" rx="14.82" ry="23.06" fill="#e7d8cf" fill-opacity="0.95" /><ellipse cx="-0.00" cy="-23.06" rx="14.82" ry="23.06" fill="#e7d8cf" fill-opacity="0.95" /><ellipse cx="16.30" cy="-16.30" rx="14.82" ry="23.06" fill="#e7d8cf" fill-opacity="0.95" />
        <circle cx="0" cy="0" r="14.82" fill="#d5c0a8" />
        <circle cx="0" cy="0" r="7.41" fill="#fff7f0" fill-opacity="0.72" />
      </g>
    </g>
    
    <g transform="translate(571.26 478.08) rotate(2.14)">
      <path d="M 0 0 C -8 98.34, 10 163.91, -6 240.40" stroke="#8da78b" stroke-width="13.11" fill="none" stroke-linecap="round" />
      <ellipse cx="-20" cy="120.20" rx="24.04" ry="45.89" fill="#8da78b" fill-opacity="0.75" transform="rotate(-24)" />
      <ellipse cx="28" cy="148.61" rx="21.85" ry="41.52" fill="#8da78b" fill-opacity="0.66" transform="rotate(20)" />
      <g transform="translate(0 0)">
        <ellipse cx="30.60" cy="0.00" rx="19.67" ry="30.60" fill="#d7e5d5" fill-opacity="0.95" /><ellipse cx="21.63" cy="21.63" rx="19.67" ry="30.60" fill="#d7e5d5" fill-opacity="0.95" /><ellipse cx="0.00" cy="30.60" rx="19.67" ry="30.60" fill="#d7e5d5" fill-opacity="0.95" /><ellipse cx="-21.63" cy="21.63" rx="19.67" ry="30.60" fill="#d7e5d5" fill-opacity="0.95" /><ellipse cx="-30.60" cy="0.00" rx="19.67" ry="30.60" fill="#d7e5d5" fill-opacity="0.95" /><ellipse cx="-21.63" cy="-21.63" rx="19.67" ry="30.60" fill="#d7e5d5" fill-opacity="0.95" /><ellipse cx="-0.00" cy="-30.60" rx="19.67" ry="30.60" fill="#d7e5d5" fill-opacity="0.95" /><ellipse cx="21.63" cy="-21.63" rx="19.67" ry="30.60" fill="#d7e5d5" fill-opacity="0.95" />
        <circle cx="0" cy="0" r="19.67" fill="#d5c0a8" />
        <circle cx="0" cy="0" r="9.83" fill="#fff7f0" fill-opacity="0.72" />
      </g>
    </g>
    
    <g transform="translate(245.52 417.22) rotate(-22.19)">
      <path d="M 0 0 C -8 107.91, 10 179.85, -6 263.77" stroke="#6f8d6e" stroke-width="14.39" fill="none" stroke-linecap="round" />
      <ellipse cx="-20" cy="131.89" rx="26.38" ry="50.36" fill="#6f8d6e" fill-opacity="0.75" transform="rotate(-24)" />
      <ellipse cx="28" cy="163.06" rx="23.98" ry="45.56" fill="#6f8d6e" fill-opacity="0.66" transform="rotate(20)" />
      <g transform="translate(0 0)">
        <ellipse cx="33.57" cy="0.00" rx="21.58" ry="33.57" fill="#f7f5ef" fill-opacity="0.95" /><ellipse cx="23.74" cy="23.74" rx="21.58" ry="33.57" fill="#f7f5ef" fill-opacity="0.95" /><ellipse cx="0.00" cy="33.57" rx="21.58" ry="33.57" fill="#f7f5ef" fill-opacity="0.95" /><ellipse cx="-23.74" cy="23.74" rx="21.58" ry="33.57" fill="#f7f5ef" fill-opacity="0.95" /><ellipse cx="-33.57" cy="0.00" rx="21.58" ry="33.57" fill="#f7f5ef" fill-opacity="0.95" /><ellipse cx="-23.74" cy="-23.74" rx="21.58" ry="33.57" fill="#f7f5ef" fill-opacity="0.95" /><ellipse cx="-0.00" cy="-33.57" rx="21.58" ry="33.57" fill="#f7f5ef" fill-opacity="0.95" /><ellipse cx="23.74" cy="-23.74" rx="21.58" ry="33.57" fill="#f7f5ef" fill-opacity="0.95" />
        <circle cx="0" cy="0" r="21.58" fill="#d5c0a8" />
        <circle cx="0" cy="0" r="10.79" fill="#fff7f0" fill-opacity="0.72" />
      </g>
    </g>
    
    <g transform="translate(377.23 388.80) rotate(-19.69)">
      <path d="M 0 0 C -8 104.86, 10 174.77, -6 256.33" stroke="#a7b99d" stroke-width="13.98" fill="none" stroke-linecap="round" />
      <ellipse cx="-20" cy="128.17" rx="25.63" ry="48.94" fill="#a7b99d" fill-opacity="0.75" transform="rotate(-24)" />
      <ellipse cx="28" cy="158.46" rx="23.30" ry="44.28" fill="#a7b99d" fill-opacity="0.66" transform="rotate(20)" />
      <g transform="translate(0 0)">
        <ellipse cx="32.62" cy="0.00" rx="20.97" ry="32.62" fill="#f1e3d4" fill-opacity="0.95" /><ellipse cx="23.07" cy="23.07" rx="20.97" ry="32.62" fill="#f1e3d4" fill-opacity="0.95" /><ellipse cx="0.00" cy="32.62" rx="20.97" ry="32.62" fill="#f1e3d4" fill-opacity="0.95" /><ellipse cx="-23.07" cy="23.07" rx="20.97" ry="32.62" fill="#f1e3d4" fill-opacity="0.95" /><ellipse cx="-32.62" cy="0.00" rx="20.97" ry="32.62" fill="#f1e3d4" fill-opacity="0.95" /><ellipse cx="-23.07" cy="-23.07" rx="20.97" ry="32.62" fill="#f1e3d4" fill-opacity="0.95" /><ellipse cx="-0.00" cy="-32.62" rx="20.97" ry="32.62" fill="#f1e3d4" fill-opacity="0.95" /><ellipse cx="23.07" cy="-23.07" rx="20.97" ry="32.62" fill="#f1e3d4" fill-opacity="0.95" />
        <circle cx="0" cy="0" r="20.97" fill="#d5c0a8" />
        <circle cx="0" cy="0" r="10.49" fill="#fff7f0" fill-opacity="0.72" />
      </g>
    </g>
    
    <g transform="translate(588.12 355.09) rotate(13.06)">
      <path d="M 0 0 C -8 70.69, 10 117.82, -6 172.81" stroke="#8da78b" stroke-width="9.43" fill="none" stroke-linecap="round" />
      <ellipse cx="-20" cy="86.40" rx="17.28" ry="32.99" fill="#8da78b" fill-opacity="0.75" transform="rotate(-24)" />
      <ellipse cx="28" cy="106.83" rx="15.71" ry="29.85" fill="#8da78b" fill-opacity="0.66" transform="rotate(20)" />
      <g transform="translate(0 0)">
        <ellipse cx="21.99" cy="0.00" rx="14.14" ry="21.99" fill="#e7d8cf" fill-opacity="0.95" /><ellipse cx="15.55" cy="15.55" rx="14.14" ry="21.99" fill="#e7d8cf" fill-opacity="0.95" /><ellipse cx="0.00" cy="21.99" rx="14.14" ry="21.99" fill="#e7d8cf" fill-opacity="0.95" /><ellipse cx="-15.55" cy="15.55" rx="14.14" ry="21.99" fill="#e7d8cf" fill-opacity="0.95" /><ellipse cx="-21.99" cy="0.00" rx="14.14" ry="21.99" fill="#e7d8cf" fill-opacity="0.95" /><ellipse cx="-15.55" cy="-15.55" rx="14.14" ry="21.99" fill="#e7d8cf" fill-opacity="0.95" /><ellipse cx="-0.00" cy="-21.99" rx="14.14" ry="21.99" fill="#e7d8cf" fill-opacity="0.95" /><ellipse cx="15.55" cy="-15.55" rx="14.14" ry="21.99" fill="#e7d8cf" fill-opacity="0.95" />
        <circle cx="0" cy="0" r="14.14" fill="#d5c0a8" />
        <circle cx="0" cy="0" r="7.07" fill="#fff7f0" fill-opacity="0.72" />
      </g>
    </g>
    
  </g>
  <path d="M0 980 C220 920, 420 1030, 900 930 L900 1100 L0 1100 Z" fill="#ffffff" fill-opacity="0.22" />
</svg>
