<svg xmlns="http://www.w3.org/2000/svg" width="900" height="1100" viewBox="0 0 900 1100">
  <defs>
    <linearGradient id="bg" x1="0" y1="0" x2="0" y2="1">
      <stop offset="0%" stop-color="#f8f3ec" />
      <stop offset="100%" stop-color="#e8efe5" />
    </linearGradient>
    <filter id="shadow" x="-20%" y="-20%" width="140%" height="140%">
      <feDropShadow dx="0" dy="22" stdDeviation="24" flood-color="#6c5d4f" flood-opacity="0.12" />
    </filter>
  </defs>
  <rect width="100%" height="100%" fill="url(#bg)" />
  <circle cx="730" cy="180" r="140" fill="#ffffff" fill-opacity="0.18" />
  <circle cx="150" cy="260" r="90" fill="#ffffff" fill-opacity="0.12" />
  
      <rect x="70" y="72" width="300" height="92" rx="24" fill="#ffffff" fill-opacity="0.34" />
      <text x="98" y="120" fill="#2f3a31" font-size="32" font-family="'PingFang SC','Microsoft YaHei',sans-serif" font-weight="600">宴庭微光</text>
      <text x="98" y="152" fill="#4e6152" font-size="18" font-family="'PingFang SC','Microsoft YaHei',sans-serif">婚礼 · 手捧花</text>
    
  <g filter="url(#shadow)">
    <path d="M250 780 L650 780 L730 1080 L170 1080 Z" fill="#ece2d6" fill-opacity="0.88" />
  </g>
  <g>
    
    <g transform="translate(243.76 306.27) rotate(-22.56)">
      <path d="M 0 0 C -8 91.55, 10 152.59, -6 223.79" stroke="#8da78b" stroke-width="12.21" fill="none" stroke-linecap="round" />
      <ellipse cx="-20" cy="111.90" rx="22.38" ry="42.72" fill="#8da78b" fill-opacity="0.75" transform="rotate(-24)" />
      <ellipse cx="28" cy="138.34" rx="20.34" ry="38.66" fill="#8da78b" fill-opacity="0.66" transform="rotate(20)" />
      <g transform="translate(0 0)">
        <ellipse cx="28.48" cy="0.00" rx="18.31" ry="28.48" fill="#f7f5ef" fill-opacity="0.95" /><ellipse cx="20.14" cy="20.14" rx="18.31" ry="28.48" fill="#f7f5ef" fill-opacity="0.95" /><ellipse cx="0.00" cy="28.48" rx="18.31" ry="28.48" fill="#f7f5ef" fill-opacity="0.95" /><ellipse cx="-20.14" cy="20.14" rx="18.31" ry="28.48" fill="#f7f5ef" fill-opacity="0.95" /><ellipse cx="-28.48" cy="0.00" rx="18.31" ry="28.48" fill="#f7f5ef" fill-opacity="0.95" /><ellipse cx="-20.14" cy="-20.14" rx="18.31" ry="28.48" fill="#f7f5ef" fill-opacity="0.95" /><ellipse cx="-0.00" cy="-28.48" rx="18.31" ry="28.48" fill="#f7f5ef" fill-opacity="0.95" /><ellipse cx="20.14" cy="-20.14" rx="18.31" ry="28.48" fill="#f7f5ef" fill-opacity="0.95" />
        <circle cx="0" cy="0" r="18.31" fill="#d5c0a8" />
        <circle cx="0" cy="0" r="9.16" fill="#fff7f0" fill-opacity="0.72" />
      </g>
    </g>
    
    <g transform="translate(279.25 402.80) rotate(7.73)">
      <path d="M 0 0 C -8 86.43, 10 144.06, -6 211.28" stroke="#6f8d6e" stroke-width="11.52" fill="none" stroke-linecap="round" />
      <ellipse cx="-20" cy="105.64" rx="21.13" ry="40.34" fill="#6f8d6e" fill-opacity="0.75" transform="rotate(-24)" />
      <ellipse cx="28" cy="130.61" rx="19.21" ry="36.49" fill="#6f8d6e" fill-opacity="0.66" transform="rotate(20)" />
      <g transform="translate(0 0)">
        <ellipse cx="26.89" cy="0.00" rx="17.29" ry="26.89" fill="#f1e3d4" fill-opacity="0.95" /><ellipse cx="19.01" cy="19.01" rx="17.29" ry="26.89" fill="#f1e3d4" fill-opacity="0.95" /><ellipse cx="0.00" cy="26.89" rx="17.29" ry="26.89" fill="#f1e3d4" fill-opacity="0.95" /><ellipse cx="-19.01" cy="19.01" rx="17.29" ry="26.89" fill="#f1e3d4" fill-opacity="0.95" /><ellipse cx="-26.89" cy="0.00" rx="17.29" ry="26.89" fill="#f1e3d4" fill-opacity="0.95" /><ellipse cx="-19.01" cy="-19.01" rx="17.29" ry="26.89" fill="#f1e3d4" fill-opacity="0.95" /><ellipse cx="-0.00" cy="-26.89" rx="17.29" ry="26.89" fill="#f1e3d4" fill-opacity="0.95" /><ellipse cx="19.01" cy="-19.01" rx="17.29" ry="26.89" fill="#f1e3d4" fill-opacity="0.95" />
        <circle cx="0" cy="0" r="17.29" fill="#d5c0a8" />
        <circle cx="0" cy="0" r="8.64" fill="#fff7f0" fill-opacity="0.72" />
      </g>
    </g>
    
    <g transform="translate(308.34 346.71) rotate(-2.92)">
      <path d="M 0 0 C -8 96.69, 10 161.14, -6 236.34" stroke="#a7b99d" stroke-width="12.89" fill="none" stroke-linecap="round" />
      <ellipse cx="-20" cy="118.17" rx="23.63" ry="45.12" fill="#a7b99d" fill-opacity="0.75" transform="rotate(-24)" />
      <ellipse cx="28" cy="146.10" rx="21.49" ry="40.82" fill="#a7b99d" fill-opacity="0.66" transform="rotate(20)" />
      <g transform="translate(0 0)">
        <ellipse cx="30.08" cy="0.00" rx="19.34" ry="30.08" fill="#e7d8cf" fill-opacity="0.95" /><ellipse cx="21.27" cy="21.27" rx="19.34" ry="30.08" fill="#e7d8cf" fill-opacity="0.95" /><ellipse cx="0.00" cy="30.08" rx="19.34" ry="30.08" fill="#e7d8cf" fill-opacity="0.95" /><ellipse cx="-21.27" cy="21.27" rx="19.34" ry="30.08" fill="#e7d8cf" fill-opacity="0.95" /><ellipse cx="-30.08" cy="0.00" rx="19.34" ry="30.08" fill="#e7d8cf" fill-opacity="0.95" /><ellipse cx="-21.27" cy="-21.27" rx="19.34" ry="30.08" fill="#e7d8cf" fill-opacity="0.95" /><ellipse cx="-0.00" cy="-30.08" rx="19.34" ry="30.08" fill="#e7d8cf" fill-opacity="0.95" /><ellipse cx="21.27" cy="-21.27" rx="19.34" ry="30.08" fill="#e7d8cf" fill-opacity="0.95" />
        <circle cx="0" cy="0" r="19.34" fill="#d5c0a8" />
        <circle cx="0" cy="0" r="9.67" fill="#fff7f0" fill-opacity="0.72" />
      </g>
    </g>
    
    <g transform="translate(399.31 509.36) rotate(22.03)">
      <path d="M 0 0 C -8 71.41, 10 119.01, -6 174.55" stroke="#8da78b" stroke-width="9.52" fill="none" stroke-linecap="round" />
      <ellipse cx="-20" cy="87.28" rx="17.46" ry="33.32" fill="#8da78b" fill-opacity="0.75" transform="rotate(-24)" />
      <ellipse cx="28" cy="107.91" rx="15.87" ry="30.15" fill="#8da78b" fill-opacity="0.66" transform="rotate(20)" />
      <g transform="translate(0 0)">
        <ellipse cx="22.22" cy="0.00" rx="14.28" ry="22.22" fill="#d7e5d5" fill-opacity="0.95" /><ellipse cx="15.71" cy="15.71" rx="14.28" ry="22.22" fill="#d7e5d5" fill-opacity="0.95" /><ellipse cx="0.00" cy="22.22" rx="14.28" ry="22.22" fill="#d7e5d5" fill-opacity="0.95" /><ellipse cx="-15.71" cy="15.71" rx="14.28" ry="22.22" fill="#d7e5d5" fill-opacity="0.95" /><ellipse cx="-22.22" cy="0.00" rx="14.28" ry="22.22" fill="#d7e5d5" fill-opacity="0.95" /><ellipse cx="-15.71" cy="-15.71" rx="14.28" ry="22.22" fill="#d7e5d5" fill-opacity="0.95" /><ellipse cx="-0.00" cy="-22.22" rx="14.28" ry="22.22" fill="#d7e5d5" fill-opacity="0.95" /><ellipse cx="15.71" cy="-15.71" rx="14.28" ry="22.22" fill="#d7e5d5" fill-opacity="0.95" />
        <circle cx="0" cy="0" r="14.28" fill="#d5c0a8" />
        <circle cx="0" cy="0" r="7.14" fill="#fff7f0" fill-opacity="0.72" />
      </g>
    </g>
    
    <g transform="translate(556.08 467.63) rotate(-15.61)">
      <path d="M 0 0 C -8 98.70, 10 164.51, -6 241.28" stroke="#6f8d6e" stroke-width="13.16" fill="none" stroke-linecap="round" />
      <ellipse cx="-20" cy="120.64" rx="24.13" ry="46.06" fill="#6f8d6e" fill-opacity="0.75" transform="rotate(-24)" />
      <ellipse cx="28" cy="149.15" rx="21.93" ry="41.67" fill="#6f8d6e" fill-opacity="0.66" transform="rotate(20)" />
      <g transform="translate(0 0)">
        <ellipse cx="30.71" cy="0.00" rx="19.74" ry="30.71" fill="#f7f5ef" fill-opacity="0.95" /><ellipse cx="21.71" cy="21.71" rx="19.74" ry="30.71" fill="#f7f5ef" fill-opacity="0.95" /><ellipse cx="0.00" cy="30.71" rx="19.74" ry="30.71" fill="#f7f5ef" fill-opacity="0.95" /><ellipse cx="-21.71" cy="21.71" rx="19.74" ry="30.71" fill="#f7f5ef" fill-opacity="0.95" /><ellipse cx="-30.71" cy="0.00" rx="19.74" ry="30.71" fill="#f7f5ef" fill-opacity="0.95" /><ellipse cx="-21.71" cy="-21.71" rx="19.74" ry="30.71" fill="#f7f5ef" fill-opacity="0.95" /><ellipse cx="-0.00" cy="-30.71" rx="19.74" ry="30.71" fill="#f7f5ef" fill-opacity="0.95" /><ellipse cx="21.71" cy="-21.71" rx="19.74" ry="30.71" fill="#f7f5ef" fill-opacity="0.95" />
        <circle cx="0" cy="0" r="19.74" fill="#d5c0a8" />
        <circle cx="0" cy="0" r="9.87" fill="#fff7f0" fill-opacity="0.72" />
      </g>
    </g>
    
    <g transform="translate(337.57 293.85) rotate(11.26)">
      <path d="M 0 0 C -8 93.92, 10 156.53, -6 229.57" stroke="#a7b99d" stroke-width="12.52" fill="none" stroke-linecap="round" />
      <ellipse cx="-20" cy="114.79" rx="22.96" ry="43.83" fill="#a7b99d" fill-opacity="0.75" transform="rotate(-24)" />
      <ellipse cx="28" cy="141.92" rx="20.87" ry="39.65" fill="#a7b99d" fill-opacity="0.66" transform="rotate(20)" />
      <g transform="translate(0 0)">
        <ellipse cx="29.22" cy="0.00" rx="18.78" ry="29.22" fill="#f1e3d4" fill-opacity="0.95" /><ellipse cx="20.66" cy="20.66" rx="18.78" ry="29.22" fill="#f1e3d4" fill-opacity="0.95" /><ellipse cx="0.00" cy="29.22" rx="18.78" ry="29.22" fill="#f1e3d4" fill-opacity="0.95" /><ellipse cx="-20.66" cy="20.66" rx="18.78" ry="29.22" fill="#f1e3d4" fill-opacity="0.95" /><ellipse cx="-29.22" cy="0.00" rx="18.78" ry="29.22" fill="#f1e3d4" fill-opacity="0.95" /><ellipse cx="-20.66" cy="-20.66" rx="18.78" ry="29.22" fill="#f1e3d4" fill-opacity="0.95" /><ellipse cx="-0.00" cy="-29.22" rx="18.78" ry="29.22" fill="#f1e3d4" fill-opacity="0.95" /><ellipse cx="20.66" cy="-20.66" rx="18.78" ry="29.22" fill="#f1e3d4" fill-opacity="0.95" />
        <circle cx="0" cy="0" r="18.78" fill="#d5c0a8" />
        <circle cx="0" cy="0" r="9.39" fill="#fff7f0" fill-opacity="0.72" />
      </g>
    </g>
    
    <g transform="translate(305.45 400.80) rotate(-20.65)">
      <path d="M 0 0 C -8 108.90, 10 181.50, -6 266.20" stroke="#8da78b" stroke-width="14.52" fill="none" stroke-linecap="round" />
      <ellipse cx="-20" cy="133.10" rx="26.62" ry="50.82" fill="#8da78b" fill-opacity="0.75" transform="rotate(-24)" />
      <ellipse cx="28" cy="164.56" rx="24.20" ry="45.98" fill="#8da78b" fill-opacity="0.66" transform="rotate(20)" />
      <g transform="translate(0 0)">
        <ellipse cx="33.88" cy="0.00" rx="21.78" ry="33.88" fill="#e7d8cf" fill-opacity="0.95" /><ellipse cx="23.96" cy="23.96" rx="21.78" ry="33.88" fill="#e7d8cf" fill-opacity="0.95" /><ellipse cx="0.00" cy="33.88" rx="21.78" ry="33.88" fill="#e7d8cf" fill-opacity="0.95" /><ellipse cx="-23.96" cy="23.96" rx="21.78" ry="33.88" fill="#e7d8cf" fill-opacity="0.95" /><ellipse cx="-33.88" cy="0.00" rx="21.78" ry="33.88" fill="#e7d8cf" fill-opacity="0.95" /><ellipse cx="-23.96" cy="-23.96" rx="21.78" ry="33.88" fill="#e7d8cf" fill-opacity="0.95" /><ellipse cx="-0.00" cy="-33.88" rx="21.78" ry="33.88" fill="#e7d8cf" fill-opacity="0.95" /><ellipse cx="23.96" cy="-23.96" rx="21.78" ry="33.88" fill="#e7d8cf" fill-opacity="0.95" />
        <circle cx="0" cy="0" r="21.78" fill="#d5c0a8" />
        <circle cx="0" cy="0" r="10.89" fill="#fff7f0" fill-opacity="0.72" />
      </g>
    </g>
    
  </g>
  <path d="M0 980 C220 920, 420 1030, 900 930 L900 1100 L0 1100 Z" fill="#ffffff" fill-opacity="0.22" />
</svg>
