<svg xmlns="http://www.w3.org/2000/svg" width="900" height="1100" viewBox="0 0 900 1100">
  <defs>
    <linearGradient id="bg" x1="0" y1="0" x2="0" y2="1">
      <stop offset="0%" stop-color="#f8f3ec" />
      <stop offset="100%" stop-color="#e8efe5" />
    </linearGradient>
    <filter id="shadow" x="-20%" y="-20%" width="140%" height="140%">
      <feDropShadow dx="0" dy="22" stdDeviation="24" flood-color="#6c5d4f" flood-opacity="0.12" />
    </filter>
  </defs>
  <rect width="100%" height="100%" fill="url(#bg)" />
  <circle cx="730" cy="180" r="140" fill="#ffffff" fill-opacity="0.18" />
  <circle cx="150" cy="260" r="90" fill="#ffffff" fill-opacity="0.12" />
  
      <rect x="70" y="72" width="300" height="92" rx="24" fill="#ffffff" fill-opacity="0.34" />
      <text x="98" y="120" fill="#2f3a31" font-size="32" font-family="'PingFang SC','Microsoft YaHei',sans-serif" font-weight="600">宴庭微光</text>
      <text x="98" y="152" fill="#4e6152" font-size="18" font-family="'PingFang SC','Microsoft YaHei',sans-serif">婚礼 · 手捧花</text>
    
  <g filter="url(#shadow)">
    <path d="M250 780 L650 780 L730 1080 L170 1080 Z" fill="#ece2d6" fill-opacity="0.88" />
  </g>
  <g>
    
    <g transform="translate(365.37 432.65) rotate(-5.47)">
      <path d="M 0 0 C -8 74.40, 10 124.00, -6 181.86" stroke="#8da78b" stroke-width="9.92" fill="none" stroke-linecap="round" />
      <ellipse cx="-20" cy="90.93" rx="18.19" ry="34.72" fill="#8da78b" fill-opacity="0.75" transform="rotate(-24)" />
      <ellipse cx="28" cy="112.42" rx="16.53" ry="31.41" fill="#8da78b" fill-opacity="0.66" transform="rotate(20)" />
      <g transform="translate(0 0)">
        <ellipse cx="23.15" cy="0.00" rx="14.88" ry="23.15" fill="#f7f5ef" fill-opacity="0.95" /><ellipse cx="16.37" cy="16.37" rx="14.88" ry="23.15" fill="#f7f5ef" fill-opacity="0.95" /><ellipse cx="0.00" cy="23.15" rx="14.88" ry="23.15" fill="#f7f5ef" fill-opacity="0.95" /><ellipse cx="-16.37" cy="16.37" rx="14.88" ry="23.15" fill="#f7f5ef" fill-opacity="0.95" /><ellipse cx="-23.15" cy="0.00" rx="14.88" ry="23.15" fill="#f7f5ef" fill-opacity="0.95" /><ellipse cx="-16.37" cy="-16.37" rx="14.88" ry="23.15" fill="#f7f5ef" fill-opacity="0.95" /><ellipse cx="-0.00" cy="-23.15" rx="14.88" ry="23.15" fill="#f7f5ef" fill-opacity="0.95" /><ellipse cx="16.37" cy="-16.37" rx="14.88" ry="23.15" fill="#f7f5ef" fill-opacity="0.95" />
        <circle cx="0" cy="0" r="14.88" fill="#d5c0a8" />
        <circle cx="0" cy="0" r="7.44" fill="#fff7f0" fill-opacity="0.72" />
      </g>
    </g>
    
    <g transform="translate(348.99 455.52) rotate(-3.43)">
      <path d="M 0 0 C -8 73.34, 10 122.23, -6 179.28" stroke="#6f8d6e" stroke-width="9.78" fill="none" stroke-linecap="round" />
      <ellipse cx="-20" cy="89.64" rx="17.93" ry="34.23" fill="#6f8d6e" fill-opacity="0.75" transform="rotate(-24)" />
      <ellipse cx="28" cy="110.83" rx="16.30" ry="30.97" fill="#6f8d6e" fill-opacity="0.66" transform="rotate(20)" />
      <g transform="translate(0 0)">
        <ellipse cx="22.82" cy="0.00" rx="14.67" ry="22.82" fill="#f1e3d4" fill-opacity="0.95" /><ellipse cx="16.13" cy="16.13" rx="14.67" ry="22.82" fill="#f1e3d4" fill-opacity="0.95" /><ellipse cx="0.00" cy="22.82" rx="14.67" ry="22.82" fill="#f1e3d4" fill-opacity="0.95" /><ellipse cx="-16.13" cy="16.13" rx="14.67" ry="22.82" fill="#f1e3d4" fill-opacity="0.95" /><ellipse cx="-22.82" cy="0.00" rx="14.67" ry="22.82" fill="#f1e3d4" fill-opacity="0.95" /><ellipse cx="-16.13" cy="-16.13" rx="14.67" ry="22.82" fill="#f1e3d4" fill-opacity="0.95" /><ellipse cx="-0.00" cy="-22.82" rx="14.67" ry="22.82" fill="#f1e3d4" fill-opacity="0.95" /><ellipse cx="16.13" cy="-16.13" rx="14.67" ry="22.82" fill="#f1e3d4" fill-opacity="0.95" />
        <circle cx="0" cy="0" r="14.67" fill="#d5c0a8" />
        <circle cx="0" cy="0" r="7.33" fill="#fff7f0" fill-opacity="0.72" />
      </g>
    </g>
    
    <g transform="translate(662.44 424.99) rotate(10.90)">
      <path d="M 0 0 C -8 110.52, 10 184.20, -6 270.17" stroke="#a7b99d" stroke-width="14.74" fill="none" stroke-linecap="round" />
      <ellipse cx="-20" cy="135.08" rx="27.02" ry="51.58" fill="#a7b99d" fill-opacity="0.75" transform="rotate(-24)" />
      <ellipse cx="28" cy="167.01" rx="24.56" ry="46.67" fill="#a7b99d" fill-opacity="0.66" transform="rotate(20)" />
      <g transform="translate(0 0)">
        <ellipse cx="34.38" cy="0.00" rx="22.10" ry="34.38" fill="#e7d8cf" fill-opacity="0.95" /><ellipse cx="24.31" cy="24.31" rx="22.10" ry="34.38" fill="#e7d8cf" fill-opacity="0.95" /><ellipse cx="0.00" cy="34.38" rx="22.10" ry="34.38" fill="#e7d8cf" fill-opacity="0.95" /><ellipse cx="-24.31" cy="24.31" rx="22.10" ry="34.38" fill="#e7d8cf" fill-opacity="0.95" /><ellipse cx="-34.38" cy="0.00" rx="22.10" ry="34.38" fill="#e7d8cf" fill-opacity="0.95" /><ellipse cx="-24.31" cy="-24.31" rx="22.10" ry="34.38" fill="#e7d8cf" fill-opacity="0.95" /><ellipse cx="-0.00" cy="-34.38" rx="22.10" ry="34.38" fill="#e7d8cf" fill-opacity="0.95" /><ellipse cx="24.31" cy="-24.31" rx="22.10" ry="34.38" fill="#e7d8cf" fill-opacity="0.95" />
        <circle cx="0" cy="0" r="22.10" fill="#d5c0a8" />
        <circle cx="0" cy="0" r="11.05" fill="#fff7f0" fill-opacity="0.72" />
      </g>
    </g>
    
    <g transform="translate(521.76 510.27) rotate(-8.57)">
      <path d="M 0 0 C -8 97.99, 10 163.31, -6 239.53" stroke="#8da78b" stroke-width="13.07" fill="none" stroke-linecap="round" />
      <ellipse cx="-20" cy="119.76" rx="23.95" ry="45.73" fill="#8da78b" fill-opacity="0.75" transform="rotate(-24)" />
      <ellipse cx="28" cy="148.07" rx="21.78" ry="41.37" fill="#8da78b" fill-opacity="0.66" transform="rotate(20)" />
      <g transform="translate(0 0)">
        <ellipse cx="30.49" cy="0.00" rx="19.60" ry="30.49" fill="#d7e5d5" fill-opacity="0.95" /><ellipse cx="21.56" cy="21.56" rx="19.60" ry="30.49" fill="#d7e5d5" fill-opacity="0.95" /><ellipse cx="0.00" cy="30.49" rx="19.60" ry="30.49" fill="#d7e5d5" fill-opacity="0.95" /><ellipse cx="-21.56" cy="21.56" rx="19.60" ry="30.49" fill="#d7e5d5" fill-opacity="0.95" /><ellipse cx="-30.49" cy="0.00" rx="19.60" ry="30.49" fill="#d7e5d5" fill-opacity="0.95" /><ellipse cx="-21.56" cy="-21.56" rx="19.60" ry="30.49" fill="#d7e5d5" fill-opacity="0.95" /><ellipse cx="-0.00" cy="-30.49" rx="19.60" ry="30.49" fill="#d7e5d5" fill-opacity="0.95" /><ellipse cx="21.56" cy="-21.56" rx="19.60" ry="30.49" fill="#d7e5d5" fill-opacity="0.95" />
        <circle cx="0" cy="0" r="19.60" fill="#d5c0a8" />
        <circle cx="0" cy="0" r="9.80" fill="#fff7f0" fill-opacity="0.72" />
      </g>
    </g>
    
    <g transform="translate(607.99 540.90) rotate(16.79)">
      <path d="M 0 0 C -8 85.76, 10 142.94, -6 209.64" stroke="#6f8d6e" stroke-width="11.44" fill="none" stroke-linecap="round" />
      <ellipse cx="-20" cy="104.82" rx="20.96" ry="40.02" fill="#6f8d6e" fill-opacity="0.75" transform="rotate(-24)" />
      <ellipse cx="28" cy="129.60" rx="19.06" ry="36.21" fill="#6f8d6e" fill-opacity="0.66" transform="rotate(20)" />
      <g transform="translate(0 0)">
        <ellipse cx="26.68" cy="0.00" rx="17.15" ry="26.68" fill="#f7f5ef" fill-opacity="0.95" /><ellipse cx="18.87" cy="18.87" rx="17.15" ry="26.68" fill="#f7f5ef" fill-opacity="0.95" /><ellipse cx="0.00" cy="26.68" rx="17.15" ry="26.68" fill="#f7f5ef" fill-opacity="0.95" /><ellipse cx="-18.87" cy="18.87" rx="17.15" ry="26.68" fill="#f7f5ef" fill-opacity="0.95" /><ellipse cx="-26.68" cy="0.00" rx="17.15" ry="26.68" fill="#f7f5ef" fill-opacity="0.95" /><ellipse cx="-18.87" cy="-18.87" rx="17.15" ry="26.68" fill="#f7f5ef" fill-opacity="0.95" /><ellipse cx="-0.00" cy="-26.68" rx="17.15" ry="26.68" fill="#f7f5ef" fill-opacity="0.95" /><ellipse cx="18.87" cy="-18.87" rx="17.15" ry="26.68" fill="#f7f5ef" fill-opacity="0.95" />
        <circle cx="0" cy="0" r="17.15" fill="#d5c0a8" />
        <circle cx="0" cy="0" r="8.58" fill="#fff7f0" fill-opacity="0.72" />
      </g>
    </g>
    
    <g transform="translate(379.84 528.11) rotate(2.87)">
      <path d="M 0 0 C -8 102.21, 10 170.36, -6 249.86" stroke="#a7b99d" stroke-width="13.63" fill="none" stroke-linecap="round" />
      <ellipse cx="-20" cy="124.93" rx="24.99" ry="47.70" fill="#a7b99d" fill-opacity="0.75" transform="rotate(-24)" />
      <ellipse cx="28" cy="154.46" rx="22.71" ry="43.16" fill="#a7b99d" fill-opacity="0.66" transform="rotate(20)" />
      <g transform="translate(0 0)">
        <ellipse cx="31.80" cy="0.00" rx="20.44" ry="31.80" fill="#f1e3d4" fill-opacity="0.95" /><ellipse cx="22.49" cy="22.49" rx="20.44" ry="31.80" fill="#f1e3d4" fill-opacity="0.95" /><ellipse cx="0.00" cy="31.80" rx="20.44" ry="31.80" fill="#f1e3d4" fill-opacity="0.95" /><ellipse cx="-22.49" cy="22.49" rx="20.44" ry="31.80" fill="#f1e3d4" fill-opacity="0.95" /><ellipse cx="-31.80" cy="0.00" rx="20.44" ry="31.80" fill="#f1e3d4" fill-opacity="0.95" /><ellipse cx="-22.49" cy="-22.49" rx="20.44" ry="31.80" fill="#f1e3d4" fill-opacity="0.95" /><ellipse cx="-0.00" cy="-31.80" rx="20.44" ry="31.80" fill="#f1e3d4" fill-opacity="0.95" /><ellipse cx="22.49" cy="-22.49" rx="20.44" ry="31.80" fill="#f1e3d4" fill-opacity="0.95" />
        <circle cx="0" cy="0" r="20.44" fill="#d5c0a8" />
        <circle cx="0" cy="0" r="10.22" fill="#fff7f0" fill-opacity="0.72" />
      </g>
    </g>
    
    <g transform="translate(543.45 349.74) rotate(-6.69)">
      <path d="M 0 0 C -8 87.49, 10 145.81, -6 213.86" stroke="#8da78b" stroke-width="11.66" fill="none" stroke-linecap="round" />
      <ellipse cx="-20" cy="106.93" rx="21.39" ry="40.83" fill="#8da78b" fill-opacity="0.75" transform="rotate(-24)" />
      <ellipse cx="28" cy="132.20" rx="19.44" ry="36.94" fill="#8da78b" fill-opacity="0.66" transform="rotate(20)" />
      <g transform="translate(0 0)">
        <ellipse cx="27.22" cy="0.00" rx="17.50" ry="27.22" fill="#e7d8cf" fill-opacity="0.95" /><ellipse cx="19.25" cy="19.25" rx="17.50" ry="27.22" fill="#e7d8cf" fill-opacity="0.95" /><ellipse cx="0.00" cy="27.22" rx="17.50" ry="27.22" fill="#e7d8cf" fill-opacity="0.95" /><ellipse cx="-19.25" cy="19.25" rx="17.50" ry="27.22" fill="#e7d8cf" fill-opacity="0.95" /><ellipse cx="-27.22" cy="0.00" rx="17.50" ry="27.22" fill="#e7d8cf" fill-opacity="0.95" /><ellipse cx="-19.25" cy="-19.25" rx="17.50" ry="27.22" fill="#e7d8cf" fill-opacity="0.95" /><ellipse cx="-0.00" cy="-27.22" rx="17.50" ry="27.22" fill="#e7d8cf" fill-opacity="0.95" /><ellipse cx="19.25" cy="-19.25" rx="17.50" ry="27.22" fill="#e7d8cf" fill-opacity="0.95" />
        <circle cx="0" cy="0" r="17.50" fill="#d5c0a8" />
        <circle cx="0" cy="0" r="8.75" fill="#fff7f0" fill-opacity="0.72" />
      </g>
    </g>
    
  </g>
  <path d="M0 980 C220 920, 420 1030, 900 930 L900 1100 L0 1100 Z" fill="#ffffff" fill-opacity="0.22" />
</svg>
