<svg xmlns="http://www.w3.org/2000/svg" width="900" height="1100" viewBox="0 0 900 1100">
  <defs>
    <linearGradient id="bg" x1="0" y1="0" x2="0" y2="1">
      <stop offset="0%" stop-color="#fff5ef" />
      <stop offset="100%" stop-color="#f3eadb" />
    </linearGradient>
    <filter id="shadow" x="-20%" y="-20%" width="140%" height="140%">
      <feDropShadow dx="0" dy="22" stdDeviation="24" flood-color="#6c5d4f" flood-opacity="0.12" />
    </filter>
  </defs>
  <rect width="100%" height="100%" fill="url(#bg)" />
  <circle cx="730" cy="180" r="140" fill="#ffffff" fill-opacity="0.18" />
  <circle cx="150" cy="260" r="90" fill="#ffffff" fill-opacity="0.12" />
  
      <rect x="70" y="72" width="300" height="92" rx="24" fill="#ffffff" fill-opacity="0.34" />
      <text x="98" y="120" fill="#2f3a31" font-size="32" font-family="'PingFang SC','Microsoft YaHei',sans-serif" font-weight="600">盛启花礼</text>
      <text x="98" y="152" fill="#4e6152" font-size="18" font-family="'PingFang SC','Microsoft YaHei',sans-serif">开业 · 商务</text>
    
  <g filter="url(#shadow)">
    <path d="M180 770 L720 770 L780 1080 L120 1080 Z" fill="#efe3c5" fill-opacity="0.9" />
  </g>
  <g>
    
    <g transform="translate(607.98 439.84) rotate(-3.11)">
      <path d="M 0 0 C -8 93.15, 10 155.25, -6 227.69" stroke="#5f8458" stroke-width="12.42" fill="none" stroke-linecap="round" />
      <ellipse cx="-20" cy="113.85" rx="22.77" ry="43.47" fill="#5f8458" fill-opacity="0.75" transform="rotate(-24)" />
      <ellipse cx="28" cy="140.76" rx="20.70" ry="39.33" fill="#5f8458" fill-opacity="0.66" transform="rotate(20)" />
      <g transform="translate(0 0)">
        <ellipse cx="28.98" cy="0.00" rx="18.63" ry="28.98" fill="#c74038" fill-opacity="0.95" /><ellipse cx="20.49" cy="20.49" rx="18.63" ry="28.98" fill="#c74038" fill-opacity="0.95" /><ellipse cx="0.00" cy="28.98" rx="18.63" ry="28.98" fill="#c74038" fill-opacity="0.95" /><ellipse cx="-20.49" cy="20.49" rx="18.63" ry="28.98" fill="#c74038" fill-opacity="0.95" /><ellipse cx="-28.98" cy="0.00" rx="18.63" ry="28.98" fill="#c74038" fill-opacity="0.95" /><ellipse cx="-20.49" cy="-20.49" rx="18.63" ry="28.98" fill="#c74038" fill-opacity="0.95" /><ellipse cx="-0.00" cy="-28.98" rx="18.63" ry="28.98" fill="#c74038" fill-opacity="0.95" /><ellipse cx="20.49" cy="-20.49" rx="18.63" ry="28.98" fill="#c74038" fill-opacity="0.95" />
        <circle cx="0" cy="0" r="18.63" fill="#9f2d27" />
        <circle cx="0" cy="0" r="9.31" fill="#fff7f0" fill-opacity="0.72" />
      </g>
    </g>
    
    <g transform="translate(576.51 376.64) rotate(-22.94)">
      <path d="M 0 0 C -8 78.45, 10 130.74, -6 191.76" stroke="#476b43" stroke-width="10.46" fill="none" stroke-linecap="round" />
      <ellipse cx="-20" cy="95.88" rx="19.18" ry="36.61" fill="#476b43" fill-opacity="0.75" transform="rotate(-24)" />
      <ellipse cx="28" cy="118.54" rx="17.43" ry="33.12" fill="#476b43" fill-opacity="0.66" transform="rotate(20)" />
      <g transform="translate(0 0)">
        <ellipse cx="24.41" cy="0.00" rx="15.69" ry="24.41" fill="#f0ad3d" fill-opacity="0.95" /><ellipse cx="17.26" cy="17.26" rx="15.69" ry="24.41" fill="#f0ad3d" fill-opacity="0.95" /><ellipse cx="0.00" cy="24.41" rx="15.69" ry="24.41" fill="#f0ad3d" fill-opacity="0.95" /><ellipse cx="-17.26" cy="17.26" rx="15.69" ry="24.41" fill="#f0ad3d" fill-opacity="0.95" /><ellipse cx="-24.41" cy="0.00" rx="15.69" ry="24.41" fill="#f0ad3d" fill-opacity="0.95" /><ellipse cx="-17.26" cy="-17.26" rx="15.69" ry="24.41" fill="#f0ad3d" fill-opacity="0.95" /><ellipse cx="-0.00" cy="-24.41" rx="15.69" ry="24.41" fill="#f0ad3d" fill-opacity="0.95" /><ellipse cx="17.26" cy="-17.26" rx="15.69" ry="24.41" fill="#f0ad3d" fill-opacity="0.95" />
        <circle cx="0" cy="0" r="15.69" fill="#9f2d27" />
        <circle cx="0" cy="0" r="7.84" fill="#fff7f0" fill-opacity="0.72" />
      </g>
    </g>
    
    <g transform="translate(462.78 557.77) rotate(0.29)">
      <path d="M 0 0 C -8 83.20, 10 138.66, -6 203.37" stroke="#87a276" stroke-width="11.09" fill="none" stroke-linecap="round" />
      <ellipse cx="-20" cy="101.69" rx="20.34" ry="38.83" fill="#87a276" fill-opacity="0.75" transform="rotate(-24)" />
      <ellipse cx="28" cy="125.72" rx="18.49" ry="35.13" fill="#87a276" fill-opacity="0.66" transform="rotate(20)" />
      <g transform="translate(0 0)">
        <ellipse cx="25.88" cy="0.00" rx="16.64" ry="25.88" fill="#efc46f" fill-opacity="0.95" /><ellipse cx="18.30" cy="18.30" rx="16.64" ry="25.88" fill="#efc46f" fill-opacity="0.95" /><ellipse cx="0.00" cy="25.88" rx="16.64" ry="25.88" fill="#efc46f" fill-opacity="0.95" /><ellipse cx="-18.30" cy="18.30" rx="16.64" ry="25.88" fill="#efc46f" fill-opacity="0.95" /><ellipse cx="-25.88" cy="0.00" rx="16.64" ry="25.88" fill="#efc46f" fill-opacity="0.95" /><ellipse cx="-18.30" cy="-18.30" rx="16.64" ry="25.88" fill="#efc46f" fill-opacity="0.95" /><ellipse cx="-0.00" cy="-25.88" rx="16.64" ry="25.88" fill="#efc46f" fill-opacity="0.95" /><ellipse cx="18.30" cy="-18.30" rx="16.64" ry="25.88" fill="#efc46f" fill-opacity="0.95" />
        <circle cx="0" cy="0" r="16.64" fill="#9f2d27" />
        <circle cx="0" cy="0" r="8.32" fill="#fff7f0" fill-opacity="0.72" />
      </g>
    </g>
    
    <g transform="translate(681.65 513.09) rotate(-18.34)">
      <path d="M 0 0 C -8 105.85, 10 176.42, -6 258.75" stroke="#5f8458" stroke-width="14.11" fill="none" stroke-linecap="round" />
      <ellipse cx="-20" cy="129.38" rx="25.88" ry="49.40" fill="#5f8458" fill-opacity="0.75" transform="rotate(-24)" />
      <ellipse cx="28" cy="159.96" rx="23.52" ry="44.69" fill="#5f8458" fill-opacity="0.66" transform="rotate(20)" />
      <g transform="translate(0 0)">
        <ellipse cx="32.93" cy="0.00" rx="21.17" ry="32.93" fill="#f4d7ab" fill-opacity="0.95" /><ellipse cx="23.29" cy="23.29" rx="21.17" ry="32.93" fill="#f4d7ab" fill-opacity="0.95" /><ellipse cx="0.00" cy="32.93" rx="21.17" ry="32.93" fill="#f4d7ab" fill-opacity="0.95" /><ellipse cx="-23.29" cy="23.29" rx="21.17" ry="32.93" fill="#f4d7ab" fill-opacity="0.95" /><ellipse cx="-32.93" cy="0.00" rx="21.17" ry="32.93" fill="#f4d7ab" fill-opacity="0.95" /><ellipse cx="-23.29" cy="-23.29" rx="21.17" ry="32.93" fill="#f4d7ab" fill-opacity="0.95" /><ellipse cx="-0.00" cy="-32.93" rx="21.17" ry="32.93" fill="#f4d7ab" fill-opacity="0.95" /><ellipse cx="23.29" cy="-23.29" rx="21.17" ry="32.93" fill="#f4d7ab" fill-opacity="0.95" />
        <circle cx="0" cy="0" r="21.17" fill="#9f2d27" />
        <circle cx="0" cy="0" r="10.59" fill="#fff7f0" fill-opacity="0.72" />
      </g>
    </g>
    
    <g transform="translate(680.33 412.22) rotate(8.04)">
      <path d="M 0 0 C -8 101.83, 10 169.71, -6 248.91" stroke="#476b43" stroke-width="13.58" fill="none" stroke-linecap="round" />
      <ellipse cx="-20" cy="124.46" rx="24.89" ry="47.52" fill="#476b43" fill-opacity="0.75" transform="rotate(-24)" />
      <ellipse cx="28" cy="153.87" rx="22.63" ry="42.99" fill="#476b43" fill-opacity="0.66" transform="rotate(20)" />
      <g transform="translate(0 0)">
        <ellipse cx="31.68" cy="0.00" rx="20.37" ry="31.68" fill="#c74038" fill-opacity="0.95" /><ellipse cx="22.40" cy="22.40" rx="20.37" ry="31.68" fill="#c74038" fill-opacity="0.95" /><ellipse cx="0.00" cy="31.68" rx="20.37" ry="31.68" fill="#c74038" fill-opacity="0.95" /><ellipse cx="-22.40" cy="22.40" rx="20.37" ry="31.68" fill="#c74038" fill-opacity="0.95" /><ellipse cx="-31.68" cy="0.00" rx="20.37" ry="31.68" fill="#c74038" fill-opacity="0.95" /><ellipse cx="-22.40" cy="-22.40" rx="20.37" ry="31.68" fill="#c74038" fill-opacity="0.95" /><ellipse cx="-0.00" cy="-31.68" rx="20.37" ry="31.68" fill="#c74038" fill-opacity="0.95" /><ellipse cx="22.40" cy="-22.40" rx="20.37" ry="31.68" fill="#c74038" fill-opacity="0.95" />
        <circle cx="0" cy="0" r="20.37" fill="#9f2d27" />
        <circle cx="0" cy="0" r="10.18" fill="#fff7f0" fill-opacity="0.72" />
      </g>
    </g>
    
    <g transform="translate(200.04 530.06) rotate(-4.14)">
      <path d="M 0 0 C -8 84.18, 10 140.29, -6 205.76" stroke="#87a276" stroke-width="11.22" fill="none" stroke-linecap="round" />
      <ellipse cx="-20" cy="102.88" rx="20.58" ry="39.28" fill="#87a276" fill-opacity="0.75" transform="rotate(-24)" />
      <ellipse cx="28" cy="127.20" rx="18.71" ry="35.54" fill="#87a276" fill-opacity="0.66" transform="rotate(20)" />
      <g transform="translate(0 0)">
        <ellipse cx="26.19" cy="0.00" rx="16.84" ry="26.19" fill="#f0ad3d" fill-opacity="0.95" /><ellipse cx="18.52" cy="18.52" rx="16.84" ry="26.19" fill="#f0ad3d" fill-opacity="0.95" /><ellipse cx="0.00" cy="26.19" rx="16.84" ry="26.19" fill="#f0ad3d" fill-opacity="0.95" /><ellipse cx="-18.52" cy="18.52" rx="16.84" ry="26.19" fill="#f0ad3d" fill-opacity="0.95" /><ellipse cx="-26.19" cy="0.00" rx="16.84" ry="26.19" fill="#f0ad3d" fill-opacity="0.95" /><ellipse cx="-18.52" cy="-18.52" rx="16.84" ry="26.19" fill="#f0ad3d" fill-opacity="0.95" /><ellipse cx="-0.00" cy="-26.19" rx="16.84" ry="26.19" fill="#f0ad3d" fill-opacity="0.95" /><ellipse cx="18.52" cy="-18.52" rx="16.84" ry="26.19" fill="#f0ad3d" fill-opacity="0.95" />
        <circle cx="0" cy="0" r="16.84" fill="#9f2d27" />
        <circle cx="0" cy="0" r="8.42" fill="#fff7f0" fill-opacity="0.72" />
      </g>
    </g>
    
    <g transform="translate(592.20 402.31) rotate(-23.50)">
      <path d="M 0 0 C -8 109.18, 10 181.96, -6 266.88" stroke="#5f8458" stroke-width="14.56" fill="none" stroke-linecap="round" />
      <ellipse cx="-20" cy="133.44" rx="26.69" ry="50.95" fill="#5f8458" fill-opacity="0.75" transform="rotate(-24)" />
      <ellipse cx="28" cy="164.98" rx="24.26" ry="46.10" fill="#5f8458" fill-opacity="0.66" transform="rotate(20)" />
      <g transform="translate(0 0)">
        <ellipse cx="33.97" cy="0.00" rx="21.84" ry="33.97" fill="#efc46f" fill-opacity="0.95" /><ellipse cx="24.02" cy="24.02" rx="21.84" ry="33.97" fill="#efc46f" fill-opacity="0.95" /><ellipse cx="0.00" cy="33.97" rx="21.84" ry="33.97" fill="#efc46f" fill-opacity="0.95" /><ellipse cx="-24.02" cy="24.02" rx="21.84" ry="33.97" fill="#efc46f" fill-opacity="0.95" /><ellipse cx="-33.97" cy="0.00" rx="21.84" ry="33.97" fill="#efc46f" fill-opacity="0.95" /><ellipse cx="-24.02" cy="-24.02" rx="21.84" ry="33.97" fill="#efc46f" fill-opacity="0.95" /><ellipse cx="-0.00" cy="-33.97" rx="21.84" ry="33.97" fill="#efc46f" fill-opacity="0.95" /><ellipse cx="24.02" cy="-24.02" rx="21.84" ry="33.97" fill="#efc46f" fill-opacity="0.95" />
        <circle cx="0" cy="0" r="21.84" fill="#9f2d27" />
        <circle cx="0" cy="0" r="10.92" fill="#fff7f0" fill-opacity="0.72" />
      </g>
    </g>
    
  </g>
  <path d="M0 980 C220 920, 420 1030, 900 930 L900 1100 L0 1100 Z" fill="#ffffff" fill-opacity="0.22" />
</svg>
