<svg xmlns="http://www.w3.org/2000/svg" width="900" height="1100" viewBox="0 0 900 1100">
  <defs>
    <linearGradient id="bg" x1="0" y1="0" x2="0" y2="1">
      <stop offset="0%" stop-color="#fff5ef" />
      <stop offset="100%" stop-color="#f3eadb" />
    </linearGradient>
    <filter id="shadow" x="-20%" y="-20%" width="140%" height="140%">
      <feDropShadow dx="0" dy="22" stdDeviation="24" flood-color="#6c5d4f" flood-opacity="0.12" />
    </filter>
  </defs>
  <rect width="100%" height="100%" fill="url(#bg)" />
  <circle cx="730" cy="180" r="140" fill="#ffffff" fill-opacity="0.18" />
  <circle cx="150" cy="260" r="90" fill="#ffffff" fill-opacity="0.12" />
  
      <rect x="70" y="72" width="300" height="92" rx="24" fill="#ffffff" fill-opacity="0.34" />
      <text x="98" y="120" fill="#2f3a31" font-size="32" font-family="'PingFang SC','Microsoft YaHei',sans-serif" font-weight="600">金枝贺序</text>
      <text x="98" y="152" fill="#4e6152" font-size="18" font-family="'PingFang SC','Microsoft YaHei',sans-serif">门店 · 前厅</text>
    
  <g filter="url(#shadow)">
    <path d="M180 770 L720 770 L780 1080 L120 1080 Z" fill="#efe3c5" fill-opacity="0.9" />
  </g>
  <g>
    
    <g transform="translate(336.43 359.43) rotate(12.54)">
      <path d="M 0 0 C -8 73.86, 10 123.11, -6 180.55" stroke="#5f8458" stroke-width="9.85" fill="none" stroke-linecap="round" />
      <ellipse cx="-20" cy="90.28" rx="18.06" ry="34.47" fill="#5f8458" fill-opacity="0.75" transform="rotate(-24)" />
      <ellipse cx="28" cy="111.62" rx="16.41" ry="31.19" fill="#5f8458" fill-opacity="0.66" transform="rotate(20)" />
      <g transform="translate(0 0)">
        <ellipse cx="22.98" cy="0.00" rx="14.77" ry="22.98" fill="#c74038" fill-opacity="0.95" /><ellipse cx="16.25" cy="16.25" rx="14.77" ry="22.98" fill="#c74038" fill-opacity="0.95" /><ellipse cx="0.00" cy="22.98" rx="14.77" ry="22.98" fill="#c74038" fill-opacity="0.95" /><ellipse cx="-16.25" cy="16.25" rx="14.77" ry="22.98" fill="#c74038" fill-opacity="0.95" /><ellipse cx="-22.98" cy="0.00" rx="14.77" ry="22.98" fill="#c74038" fill-opacity="0.95" /><ellipse cx="-16.25" cy="-16.25" rx="14.77" ry="22.98" fill="#c74038" fill-opacity="0.95" /><ellipse cx="-0.00" cy="-22.98" rx="14.77" ry="22.98" fill="#c74038" fill-opacity="0.95" /><ellipse cx="16.25" cy="-16.25" rx="14.77" ry="22.98" fill="#c74038" fill-opacity="0.95" />
        <circle cx="0" cy="0" r="14.77" fill="#9f2d27" />
        <circle cx="0" cy="0" r="7.39" fill="#fff7f0" fill-opacity="0.72" />
      </g>
    </g>
    
    <g transform="translate(587.72 511.14) rotate(-4.39)">
      <path d="M 0 0 C -8 103.55, 10 172.58, -6 253.12" stroke="#476b43" stroke-width="13.81" fill="none" stroke-linecap="round" />
      <ellipse cx="-20" cy="126.56" rx="25.31" ry="48.32" fill="#476b43" fill-opacity="0.75" transform="rotate(-24)" />
      <ellipse cx="28" cy="156.47" rx="23.01" ry="43.72" fill="#476b43" fill-opacity="0.66" transform="rotate(20)" />
      <g transform="translate(0 0)">
        <ellipse cx="32.22" cy="0.00" rx="20.71" ry="32.22" fill="#f0ad3d" fill-opacity="0.95" /><ellipse cx="22.78" cy="22.78" rx="20.71" ry="32.22" fill="#f0ad3d" fill-opacity="0.95" /><ellipse cx="0.00" cy="32.22" rx="20.71" ry="32.22" fill="#f0ad3d" fill-opacity="0.95" /><ellipse cx="-22.78" cy="22.78" rx="20.71" ry="32.22" fill="#f0ad3d" fill-opacity="0.95" /><ellipse cx="-32.22" cy="0.00" rx="20.71" ry="32.22" fill="#f0ad3d" fill-opacity="0.95" /><ellipse cx="-22.78" cy="-22.78" rx="20.71" ry="32.22" fill="#f0ad3d" fill-opacity="0.95" /><ellipse cx="-0.00" cy="-32.22" rx="20.71" ry="32.22" fill="#f0ad3d" fill-opacity="0.95" /><ellipse cx="22.78" cy="-22.78" rx="20.71" ry="32.22" fill="#f0ad3d" fill-opacity="0.95" />
        <circle cx="0" cy="0" r="20.71" fill="#9f2d27" />
        <circle cx="0" cy="0" r="10.35" fill="#fff7f0" fill-opacity="0.72" />
      </g>
    </g>
    
    <g transform="translate(210.34 364.57) rotate(6.44)">
      <path d="M 0 0 C -8 110.32, 10 183.86, -6 269.66" stroke="#87a276" stroke-width="14.71" fill="none" stroke-linecap="round" />
      <ellipse cx="-20" cy="134.83" rx="26.97" ry="51.48" fill="#87a276" fill-opacity="0.75" transform="rotate(-24)" />
      <ellipse cx="28" cy="166.70" rx="24.51" ry="46.58" fill="#87a276" fill-opacity="0.66" transform="rotate(20)" />
      <g transform="translate(0 0)">
        <ellipse cx="34.32" cy="0.00" rx="22.06" ry="34.32" fill="#efc46f" fill-opacity="0.95" /><ellipse cx="24.27" cy="24.27" rx="22.06" ry="34.32" fill="#efc46f" fill-opacity="0.95" /><ellipse cx="0.00" cy="34.32" rx="22.06" ry="34.32" fill="#efc46f" fill-opacity="0.95" /><ellipse cx="-24.27" cy="24.27" rx="22.06" ry="34.32" fill="#efc46f" fill-opacity="0.95" /><ellipse cx="-34.32" cy="0.00" rx="22.06" ry="34.32" fill="#efc46f" fill-opacity="0.95" /><ellipse cx="-24.27" cy="-24.27" rx="22.06" ry="34.32" fill="#efc46f" fill-opacity="0.95" /><ellipse cx="-0.00" cy="-34.32" rx="22.06" ry="34.32" fill="#efc46f" fill-opacity="0.95" /><ellipse cx="24.27" cy="-24.27" rx="22.06" ry="34.32" fill="#efc46f" fill-opacity="0.95" />
        <circle cx="0" cy="0" r="22.06" fill="#9f2d27" />
        <circle cx="0" cy="0" r="11.03" fill="#fff7f0" fill-opacity="0.72" />
      </g>
    </g>
    
    <g transform="translate(328.38 331.66) rotate(-20.13)">
      <path d="M 0 0 C -8 110.18, 10 183.64, -6 269.34" stroke="#5f8458" stroke-width="14.69" fill="none" stroke-linecap="round" />
      <ellipse cx="-20" cy="134.67" rx="26.93" ry="51.42" fill="#5f8458" fill-opacity="0.75" transform="rotate(-24)" />
      <ellipse cx="28" cy="166.50" rx="24.49" ry="46.52" fill="#5f8458" fill-opacity="0.66" transform="rotate(20)" />
      <g transform="translate(0 0)">
        <ellipse cx="34.28" cy="0.00" rx="22.04" ry="34.28" fill="#f4d7ab" fill-opacity="0.95" /><ellipse cx="24.24" cy="24.24" rx="22.04" ry="34.28" fill="#f4d7ab" fill-opacity="0.95" /><ellipse cx="0.00" cy="34.28" rx="22.04" ry="34.28" fill="#f4d7ab" fill-opacity="0.95" /><ellipse cx="-24.24" cy="24.24" rx="22.04" ry="34.28" fill="#f4d7ab" fill-opacity="0.95" /><ellipse cx="-34.28" cy="0.00" rx="22.04" ry="34.28" fill="#f4d7ab" fill-opacity="0.95" /><ellipse cx="-24.24" cy="-24.24" rx="22.04" ry="34.28" fill="#f4d7ab" fill-opacity="0.95" /><ellipse cx="-0.00" cy="-34.28" rx="22.04" ry="34.28" fill="#f4d7ab" fill-opacity="0.95" /><ellipse cx="24.24" cy="-24.24" rx="22.04" ry="34.28" fill="#f4d7ab" fill-opacity="0.95" />
        <circle cx="0" cy="0" r="22.04" fill="#9f2d27" />
        <circle cx="0" cy="0" r="11.02" fill="#fff7f0" fill-opacity="0.72" />
      </g>
    </g>
    
    <g transform="translate(709.09 365.62) rotate(-12.85)">
      <path d="M 0 0 C -8 73.73, 10 122.88, -6 180.23" stroke="#476b43" stroke-width="9.83" fill="none" stroke-linecap="round" />
      <ellipse cx="-20" cy="90.11" rx="18.02" ry="34.41" fill="#476b43" fill-opacity="0.75" transform="rotate(-24)" />
      <ellipse cx="28" cy="111.41" rx="16.38" ry="31.13" fill="#476b43" fill-opacity="0.66" transform="rotate(20)" />
      <g transform="translate(0 0)">
        <ellipse cx="22.94" cy="0.00" rx="14.75" ry="22.94" fill="#c74038" fill-opacity="0.95" /><ellipse cx="16.22" cy="16.22" rx="14.75" ry="22.94" fill="#c74038" fill-opacity="0.95" /><ellipse cx="0.00" cy="22.94" rx="14.75" ry="22.94" fill="#c74038" fill-opacity="0.95" /><ellipse cx="-16.22" cy="16.22" rx="14.75" ry="22.94" fill="#c74038" fill-opacity="0.95" /><ellipse cx="-22.94" cy="0.00" rx="14.75" ry="22.94" fill="#c74038" fill-opacity="0.95" /><ellipse cx="-16.22" cy="-16.22" rx="14.75" ry="22.94" fill="#c74038" fill-opacity="0.95" /><ellipse cx="-0.00" cy="-22.94" rx="14.75" ry="22.94" fill="#c74038" fill-opacity="0.95" /><ellipse cx="16.22" cy="-16.22" rx="14.75" ry="22.94" fill="#c74038" fill-opacity="0.95" />
        <circle cx="0" cy="0" r="14.75" fill="#9f2d27" />
        <circle cx="0" cy="0" r="7.37" fill="#fff7f0" fill-opacity="0.72" />
      </g>
    </g>
    
    <g transform="translate(556.08 378.84) rotate(17.58)">
      <path d="M 0 0 C -8 103.60, 10 172.67, -6 253.26" stroke="#87a276" stroke-width="13.81" fill="none" stroke-linecap="round" />
      <ellipse cx="-20" cy="126.63" rx="25.33" ry="48.35" fill="#87a276" fill-opacity="0.75" transform="rotate(-24)" />
      <ellipse cx="28" cy="156.56" rx="23.02" ry="43.74" fill="#87a276" fill-opacity="0.66" transform="rotate(20)" />
      <g transform="translate(0 0)">
        <ellipse cx="32.23" cy="0.00" rx="20.72" ry="32.23" fill="#f0ad3d" fill-opacity="0.95" /><ellipse cx="22.79" cy="22.79" rx="20.72" ry="32.23" fill="#f0ad3d" fill-opacity="0.95" /><ellipse cx="0.00" cy="32.23" rx="20.72" ry="32.23" fill="#f0ad3d" fill-opacity="0.95" /><ellipse cx="-22.79" cy="22.79" rx="20.72" ry="32.23" fill="#f0ad3d" fill-opacity="0.95" /><ellipse cx="-32.23" cy="0.00" rx="20.72" ry="32.23" fill="#f0ad3d" fill-opacity="0.95" /><ellipse cx="-22.79" cy="-22.79" rx="20.72" ry="32.23" fill="#f0ad3d" fill-opacity="0.95" /><ellipse cx="-0.00" cy="-32.23" rx="20.72" ry="32.23" fill="#f0ad3d" fill-opacity="0.95" /><ellipse cx="22.79" cy="-22.79" rx="20.72" ry="32.23" fill="#f0ad3d" fill-opacity="0.95" />
        <circle cx="0" cy="0" r="20.72" fill="#9f2d27" />
        <circle cx="0" cy="0" r="10.36" fill="#fff7f0" fill-opacity="0.72" />
      </g>
    </g>
    
  </g>
  <path d="M0 980 C220 920, 420 1030, 900 930 L900 1100 L0 1100 Z" fill="#ffffff" fill-opacity="0.22" />
</svg>
