<svg xmlns="http://www.w3.org/2000/svg" width="900" height="1100" viewBox="0 0 900 1100">
  <defs>
    <linearGradient id="bg" x1="0" y1="0" x2="0" y2="1">
      <stop offset="0%" stop-color="#fff5ef" />
      <stop offset="100%" stop-color="#f3eadb" />
    </linearGradient>
    <filter id="shadow" x="-20%" y="-20%" width="140%" height="140%">
      <feDropShadow dx="0" dy="22" stdDeviation="24" flood-color="#6c5d4f" flood-opacity="0.12" />
    </filter>
  </defs>
  <rect width="100%" height="100%" fill="url(#bg)" />
  <circle cx="730" cy="180" r="140" fill="#ffffff" fill-opacity="0.18" />
  <circle cx="150" cy="260" r="90" fill="#ffffff" fill-opacity="0.12" />
  
      <rect x="70" y="72" width="300" height="92" rx="24" fill="#ffffff" fill-opacity="0.34" />
      <text x="98" y="120" fill="#2f3a31" font-size="32" font-family="'PingFang SC','Microsoft YaHei',sans-serif" font-weight="600">雅贺新章</text>
      <text x="98" y="152" fill="#4e6152" font-size="18" font-family="'PingFang SC','Microsoft YaHei',sans-serif">门店 · 前厅</text>
    
  <g filter="url(#shadow)">
    <path d="M180 770 L720 770 L780 1080 L120 1080 Z" fill="#efe3c5" fill-opacity="0.9" />
  </g>
  <g>
    
    <g transform="translate(522.85 497.53) rotate(-18.68)">
      <path d="M 0 0 C -8 111.38, 10 185.63, -6 272.26" stroke="#5f8458" stroke-width="14.85" fill="none" stroke-linecap="round" />
      <ellipse cx="-20" cy="136.13" rx="27.23" ry="51.98" fill="#5f8458" fill-opacity="0.75" transform="rotate(-24)" />
      <ellipse cx="28" cy="168.31" rx="24.75" ry="47.03" fill="#5f8458" fill-opacity="0.66" transform="rotate(20)" />
      <g transform="translate(0 0)">
        <ellipse cx="34.65" cy="0.00" rx="22.28" ry="34.65" fill="#c74038" fill-opacity="0.95" /><ellipse cx="24.50" cy="24.50" rx="22.28" ry="34.65" fill="#c74038" fill-opacity="0.95" /><ellipse cx="0.00" cy="34.65" rx="22.28" ry="34.65" fill="#c74038" fill-opacity="0.95" /><ellipse cx="-24.50" cy="24.50" rx="22.28" ry="34.65" fill="#c74038" fill-opacity="0.95" /><ellipse cx="-34.65" cy="0.00" rx="22.28" ry="34.65" fill="#c74038" fill-opacity="0.95" /><ellipse cx="-24.50" cy="-24.50" rx="22.28" ry="34.65" fill="#c74038" fill-opacity="0.95" /><ellipse cx="-0.00" cy="-34.65" rx="22.28" ry="34.65" fill="#c74038" fill-opacity="0.95" /><ellipse cx="24.50" cy="-24.50" rx="22.28" ry="34.65" fill="#c74038" fill-opacity="0.95" />
        <circle cx="0" cy="0" r="22.28" fill="#9f2d27" />
        <circle cx="0" cy="0" r="11.14" fill="#fff7f0" fill-opacity="0.72" />
      </g>
    </g>
    
    <g transform="translate(329.89 508.89) rotate(3.39)">
      <path d="M 0 0 C -8 90.35, 10 150.58, -6 220.85" stroke="#476b43" stroke-width="12.05" fill="none" stroke-linecap="round" />
      <ellipse cx="-20" cy="110.43" rx="22.09" ry="42.16" fill="#476b43" fill-opacity="0.75" transform="rotate(-24)" />
      <ellipse cx="28" cy="136.53" rx="20.08" ry="38.15" fill="#476b43" fill-opacity="0.66" transform="rotate(20)" />
      <g transform="translate(0 0)">
        <ellipse cx="28.11" cy="0.00" rx="18.07" ry="28.11" fill="#f0ad3d" fill-opacity="0.95" /><ellipse cx="19.88" cy="19.88" rx="18.07" ry="28.11" fill="#f0ad3d" fill-opacity="0.95" /><ellipse cx="0.00" cy="28.11" rx="18.07" ry="28.11" fill="#f0ad3d" fill-opacity="0.95" /><ellipse cx="-19.88" cy="19.88" rx="18.07" ry="28.11" fill="#f0ad3d" fill-opacity="0.95" /><ellipse cx="-28.11" cy="0.00" rx="18.07" ry="28.11" fill="#f0ad3d" fill-opacity="0.95" /><ellipse cx="-19.88" cy="-19.88" rx="18.07" ry="28.11" fill="#f0ad3d" fill-opacity="0.95" /><ellipse cx="-0.00" cy="-28.11" rx="18.07" ry="28.11" fill="#f0ad3d" fill-opacity="0.95" /><ellipse cx="19.88" cy="-19.88" rx="18.07" ry="28.11" fill="#f0ad3d" fill-opacity="0.95" />
        <circle cx="0" cy="0" r="18.07" fill="#9f2d27" />
        <circle cx="0" cy="0" r="9.03" fill="#fff7f0" fill-opacity="0.72" />
      </g>
    </g>
    
    <g transform="translate(465.24 342.60) rotate(13.45)">
      <path d="M 0 0 C -8 105.57, 10 175.95, -6 258.05" stroke="#87a276" stroke-width="14.08" fill="none" stroke-linecap="round" />
      <ellipse cx="-20" cy="129.03" rx="25.81" ry="49.26" fill="#87a276" fill-opacity="0.75" transform="rotate(-24)" />
      <ellipse cx="28" cy="159.52" rx="23.46" ry="44.57" fill="#87a276" fill-opacity="0.66" transform="rotate(20)" />
      <g transform="translate(0 0)">
        <ellipse cx="32.84" cy="0.00" rx="21.11" ry="32.84" fill="#efc46f" fill-opacity="0.95" /><ellipse cx="23.22" cy="23.22" rx="21.11" ry="32.84" fill="#efc46f" fill-opacity="0.95" /><ellipse cx="0.00" cy="32.84" rx="21.11" ry="32.84" fill="#efc46f" fill-opacity="0.95" /><ellipse cx="-23.22" cy="23.22" rx="21.11" ry="32.84" fill="#efc46f" fill-opacity="0.95" /><ellipse cx="-32.84" cy="0.00" rx="21.11" ry="32.84" fill="#efc46f" fill-opacity="0.95" /><ellipse cx="-23.22" cy="-23.22" rx="21.11" ry="32.84" fill="#efc46f" fill-opacity="0.95" /><ellipse cx="-0.00" cy="-32.84" rx="21.11" ry="32.84" fill="#efc46f" fill-opacity="0.95" /><ellipse cx="23.22" cy="-23.22" rx="21.11" ry="32.84" fill="#efc46f" fill-opacity="0.95" />
        <circle cx="0" cy="0" r="21.11" fill="#9f2d27" />
        <circle cx="0" cy="0" r="10.56" fill="#fff7f0" fill-opacity="0.72" />
      </g>
    </g>
    
    <g transform="translate(551.00 369.74) rotate(18.02)">
      <path d="M 0 0 C -8 103.93, 10 173.22, -6 254.05" stroke="#5f8458" stroke-width="13.86" fill="none" stroke-linecap="round" />
      <ellipse cx="-20" cy="127.02" rx="25.40" ry="48.50" fill="#5f8458" fill-opacity="0.75" transform="rotate(-24)" />
      <ellipse cx="28" cy="157.05" rx="23.10" ry="43.88" fill="#5f8458" fill-opacity="0.66" transform="rotate(20)" />
      <g transform="translate(0 0)">
        <ellipse cx="32.33" cy="0.00" rx="20.79" ry="32.33" fill="#f4d7ab" fill-opacity="0.95" /><ellipse cx="22.86" cy="22.86" rx="20.79" ry="32.33" fill="#f4d7ab" fill-opacity="0.95" /><ellipse cx="0.00" cy="32.33" rx="20.79" ry="32.33" fill="#f4d7ab" fill-opacity="0.95" /><ellipse cx="-22.86" cy="22.86" rx="20.79" ry="32.33" fill="#f4d7ab" fill-opacity="0.95" /><ellipse cx="-32.33" cy="0.00" rx="20.79" ry="32.33" fill="#f4d7ab" fill-opacity="0.95" /><ellipse cx="-22.86" cy="-22.86" rx="20.79" ry="32.33" fill="#f4d7ab" fill-opacity="0.95" /><ellipse cx="-0.00" cy="-32.33" rx="20.79" ry="32.33" fill="#f4d7ab" fill-opacity="0.95" /><ellipse cx="22.86" cy="-22.86" rx="20.79" ry="32.33" fill="#f4d7ab" fill-opacity="0.95" />
        <circle cx="0" cy="0" r="20.79" fill="#9f2d27" />
        <circle cx="0" cy="0" r="10.39" fill="#fff7f0" fill-opacity="0.72" />
      </g>
    </g>
    
    <g transform="translate(483.11 339.42) rotate(17.87)">
      <path d="M 0 0 C -8 74.01, 10 123.34, -6 180.91" stroke="#476b43" stroke-width="9.87" fill="none" stroke-linecap="round" />
      <ellipse cx="-20" cy="90.45" rx="18.09" ry="34.54" fill="#476b43" fill-opacity="0.75" transform="rotate(-24)" />
      <ellipse cx="28" cy="111.83" rx="16.45" ry="31.25" fill="#476b43" fill-opacity="0.66" transform="rotate(20)" />
      <g transform="translate(0 0)">
        <ellipse cx="23.02" cy="0.00" rx="14.80" ry="23.02" fill="#c74038" fill-opacity="0.95" /><ellipse cx="16.28" cy="16.28" rx="14.80" ry="23.02" fill="#c74038" fill-opacity="0.95" /><ellipse cx="0.00" cy="23.02" rx="14.80" ry="23.02" fill="#c74038" fill-opacity="0.95" /><ellipse cx="-16.28" cy="16.28" rx="14.80" ry="23.02" fill="#c74038" fill-opacity="0.95" /><ellipse cx="-23.02" cy="0.00" rx="14.80" ry="23.02" fill="#c74038" fill-opacity="0.95" /><ellipse cx="-16.28" cy="-16.28" rx="14.80" ry="23.02" fill="#c74038" fill-opacity="0.95" /><ellipse cx="-0.00" cy="-23.02" rx="14.80" ry="23.02" fill="#c74038" fill-opacity="0.95" /><ellipse cx="16.28" cy="-16.28" rx="14.80" ry="23.02" fill="#c74038" fill-opacity="0.95" />
        <circle cx="0" cy="0" r="14.80" fill="#9f2d27" />
        <circle cx="0" cy="0" r="7.40" fill="#fff7f0" fill-opacity="0.72" />
      </g>
    </g>
    
    <g transform="translate(517.40 484.10) rotate(0.80)">
      <path d="M 0 0 C -8 100.06, 10 166.77, -6 244.59" stroke="#87a276" stroke-width="13.34" fill="none" stroke-linecap="round" />
      <ellipse cx="-20" cy="122.30" rx="24.46" ry="46.70" fill="#87a276" fill-opacity="0.75" transform="rotate(-24)" />
      <ellipse cx="28" cy="151.20" rx="22.24" ry="42.25" fill="#87a276" fill-opacity="0.66" transform="rotate(20)" />
      <g transform="translate(0 0)">
        <ellipse cx="31.13" cy="0.00" rx="20.01" ry="31.13" fill="#f0ad3d" fill-opacity="0.95" /><ellipse cx="22.01" cy="22.01" rx="20.01" ry="31.13" fill="#f0ad3d" fill-opacity="0.95" /><ellipse cx="0.00" cy="31.13" rx="20.01" ry="31.13" fill="#f0ad3d" fill-opacity="0.95" /><ellipse cx="-22.01" cy="22.01" rx="20.01" ry="31.13" fill="#f0ad3d" fill-opacity="0.95" /><ellipse cx="-31.13" cy="0.00" rx="20.01" ry="31.13" fill="#f0ad3d" fill-opacity="0.95" /><ellipse cx="-22.01" cy="-22.01" rx="20.01" ry="31.13" fill="#f0ad3d" fill-opacity="0.95" /><ellipse cx="-0.00" cy="-31.13" rx="20.01" ry="31.13" fill="#f0ad3d" fill-opacity="0.95" /><ellipse cx="22.01" cy="-22.01" rx="20.01" ry="31.13" fill="#f0ad3d" fill-opacity="0.95" />
        <circle cx="0" cy="0" r="20.01" fill="#9f2d27" />
        <circle cx="0" cy="0" r="10.01" fill="#fff7f0" fill-opacity="0.72" />
      </g>
    </g>
    
  </g>
  <path d="M0 980 C220 920, 420 1030, 900 930 L900 1100 L0 1100 Z" fill="#ffffff" fill-opacity="0.22" />
</svg>
