<svg xmlns="http://www.w3.org/2000/svg" width="900" height="1100" viewBox="0 0 900 1100">
  <defs>
    <linearGradient id="bg" x1="0" y1="0" x2="0" y2="1">
      <stop offset="0%" stop-color="#fff5ef" />
      <stop offset="100%" stop-color="#f3eadb" />
    </linearGradient>
    <filter id="shadow" x="-20%" y="-20%" width="140%" height="140%">
      <feDropShadow dx="0" dy="22" stdDeviation="24" flood-color="#6c5d4f" flood-opacity="0.12" />
    </filter>
  </defs>
  <rect width="100%" height="100%" fill="url(#bg)" />
  <circle cx="730" cy="180" r="140" fill="#ffffff" fill-opacity="0.18" />
  <circle cx="150" cy="260" r="90" fill="#ffffff" fill-opacity="0.12" />
  
      <rect x="70" y="72" width="300" height="92" rx="24" fill="#ffffff" fill-opacity="0.34" />
      <text x="98" y="120" fill="#2f3a31" font-size="32" font-family="'PingFang SC','Microsoft YaHei',sans-serif" font-weight="600">红金登场</text>
      <text x="98" y="152" fill="#4e6152" font-size="18" font-family="'PingFang SC','Microsoft YaHei',sans-serif">门店 · 前厅</text>
    
  <g filter="url(#shadow)">
    <path d="M180 770 L720 770 L780 1080 L120 1080 Z" fill="#efe3c5" fill-opacity="0.9" />
  </g>
  <g>
    
    <g transform="translate(315.90 489.08) rotate(-21.92)">
      <path d="M 0 0 C -8 77.00, 10 128.34, -6 188.23" stroke="#5f8458" stroke-width="10.27" fill="none" stroke-linecap="round" />
      <ellipse cx="-20" cy="94.11" rx="18.82" ry="35.93" fill="#5f8458" fill-opacity="0.75" transform="rotate(-24)" />
      <ellipse cx="28" cy="116.36" rx="17.11" ry="32.51" fill="#5f8458" fill-opacity="0.66" transform="rotate(20)" />
      <g transform="translate(0 0)">
        <ellipse cx="23.96" cy="0.00" rx="15.40" ry="23.96" fill="#c74038" fill-opacity="0.95" /><ellipse cx="16.94" cy="16.94" rx="15.40" ry="23.96" fill="#c74038" fill-opacity="0.95" /><ellipse cx="0.00" cy="23.96" rx="15.40" ry="23.96" fill="#c74038" fill-opacity="0.95" /><ellipse cx="-16.94" cy="16.94" rx="15.40" ry="23.96" fill="#c74038" fill-opacity="0.95" /><ellipse cx="-23.96" cy="0.00" rx="15.40" ry="23.96" fill="#c74038" fill-opacity="0.95" /><ellipse cx="-16.94" cy="-16.94" rx="15.40" ry="23.96" fill="#c74038" fill-opacity="0.95" /><ellipse cx="-0.00" cy="-23.96" rx="15.40" ry="23.96" fill="#c74038" fill-opacity="0.95" /><ellipse cx="16.94" cy="-16.94" rx="15.40" ry="23.96" fill="#c74038" fill-opacity="0.95" />
        <circle cx="0" cy="0" r="15.40" fill="#9f2d27" />
        <circle cx="0" cy="0" r="7.70" fill="#fff7f0" fill-opacity="0.72" />
      </g>
    </g>
    
    <g transform="translate(709.88 409.45) rotate(-18.30)">
      <path d="M 0 0 C -8 78.27, 10 130.44, -6 191.32" stroke="#476b43" stroke-width="10.44" fill="none" stroke-linecap="round" />
      <ellipse cx="-20" cy="95.66" rx="19.13" ry="36.52" fill="#476b43" fill-opacity="0.75" transform="rotate(-24)" />
      <ellipse cx="28" cy="118.27" rx="17.39" ry="33.05" fill="#476b43" fill-opacity="0.66" transform="rotate(20)" />
      <g transform="translate(0 0)">
        <ellipse cx="24.35" cy="0.00" rx="15.65" ry="24.35" fill="#f0ad3d" fill-opacity="0.95" /><ellipse cx="17.22" cy="17.22" rx="15.65" ry="24.35" fill="#f0ad3d" fill-opacity="0.95" /><ellipse cx="0.00" cy="24.35" rx="15.65" ry="24.35" fill="#f0ad3d" fill-opacity="0.95" /><ellipse cx="-17.22" cy="17.22" rx="15.65" ry="24.35" fill="#f0ad3d" fill-opacity="0.95" /><ellipse cx="-24.35" cy="0.00" rx="15.65" ry="24.35" fill="#f0ad3d" fill-opacity="0.95" /><ellipse cx="-17.22" cy="-17.22" rx="15.65" ry="24.35" fill="#f0ad3d" fill-opacity="0.95" /><ellipse cx="-0.00" cy="-24.35" rx="15.65" ry="24.35" fill="#f0ad3d" fill-opacity="0.95" /><ellipse cx="17.22" cy="-17.22" rx="15.65" ry="24.35" fill="#f0ad3d" fill-opacity="0.95" />
        <circle cx="0" cy="0" r="15.65" fill="#9f2d27" />
        <circle cx="0" cy="0" r="7.83" fill="#fff7f0" fill-opacity="0.72" />
      </g>
    </g>
    
    <g transform="translate(335.55 434.97) rotate(18.44)">
      <path d="M 0 0 C -8 87.60, 10 146.00, -6 214.13" stroke="#87a276" stroke-width="11.68" fill="none" stroke-linecap="round" />
      <ellipse cx="-20" cy="107.07" rx="21.41" ry="40.88" fill="#87a276" fill-opacity="0.75" transform="rotate(-24)" />
      <ellipse cx="28" cy="132.37" rx="19.47" ry="36.99" fill="#87a276" fill-opacity="0.66" transform="rotate(20)" />
      <g transform="translate(0 0)">
        <ellipse cx="27.25" cy="0.00" rx="17.52" ry="27.25" fill="#efc46f" fill-opacity="0.95" /><ellipse cx="19.27" cy="19.27" rx="17.52" ry="27.25" fill="#efc46f" fill-opacity="0.95" /><ellipse cx="0.00" cy="27.25" rx="17.52" ry="27.25" fill="#efc46f" fill-opacity="0.95" /><ellipse cx="-19.27" cy="19.27" rx="17.52" ry="27.25" fill="#efc46f" fill-opacity="0.95" /><ellipse cx="-27.25" cy="0.00" rx="17.52" ry="27.25" fill="#efc46f" fill-opacity="0.95" /><ellipse cx="-19.27" cy="-19.27" rx="17.52" ry="27.25" fill="#efc46f" fill-opacity="0.95" /><ellipse cx="-0.00" cy="-27.25" rx="17.52" ry="27.25" fill="#efc46f" fill-opacity="0.95" /><ellipse cx="19.27" cy="-19.27" rx="17.52" ry="27.25" fill="#efc46f" fill-opacity="0.95" />
        <circle cx="0" cy="0" r="17.52" fill="#9f2d27" />
        <circle cx="0" cy="0" r="8.76" fill="#fff7f0" fill-opacity="0.72" />
      </g>
    </g>
    
    <g transform="translate(525.08 456.42) rotate(0.09)">
      <path d="M 0 0 C -8 93.81, 10 156.34, -6 229.31" stroke="#5f8458" stroke-width="12.51" fill="none" stroke-linecap="round" />
      <ellipse cx="-20" cy="114.65" rx="22.93" ry="43.78" fill="#5f8458" fill-opacity="0.75" transform="rotate(-24)" />
      <ellipse cx="28" cy="141.75" rx="20.85" ry="39.61" fill="#5f8458" fill-opacity="0.66" transform="rotate(20)" />
      <g transform="translate(0 0)">
        <ellipse cx="29.18" cy="0.00" rx="18.76" ry="29.18" fill="#f4d7ab" fill-opacity="0.95" /><ellipse cx="20.64" cy="20.64" rx="18.76" ry="29.18" fill="#f4d7ab" fill-opacity="0.95" /><ellipse cx="0.00" cy="29.18" rx="18.76" ry="29.18" fill="#f4d7ab" fill-opacity="0.95" /><ellipse cx="-20.64" cy="20.64" rx="18.76" ry="29.18" fill="#f4d7ab" fill-opacity="0.95" /><ellipse cx="-29.18" cy="0.00" rx="18.76" ry="29.18" fill="#f4d7ab" fill-opacity="0.95" /><ellipse cx="-20.64" cy="-20.64" rx="18.76" ry="29.18" fill="#f4d7ab" fill-opacity="0.95" /><ellipse cx="-0.00" cy="-29.18" rx="18.76" ry="29.18" fill="#f4d7ab" fill-opacity="0.95" /><ellipse cx="20.64" cy="-20.64" rx="18.76" ry="29.18" fill="#f4d7ab" fill-opacity="0.95" />
        <circle cx="0" cy="0" r="18.76" fill="#9f2d27" />
        <circle cx="0" cy="0" r="9.38" fill="#fff7f0" fill-opacity="0.72" />
      </g>
    </g>
    
    <g transform="translate(200.53 519.65) rotate(-12.95)">
      <path d="M 0 0 C -8 81.42, 10 135.69, -6 199.01" stroke="#476b43" stroke-width="10.86" fill="none" stroke-linecap="round" />
      <ellipse cx="-20" cy="99.51" rx="19.90" ry="37.99" fill="#476b43" fill-opacity="0.75" transform="rotate(-24)" />
      <ellipse cx="28" cy="123.03" rx="18.09" ry="34.38" fill="#476b43" fill-opacity="0.66" transform="rotate(20)" />
      <g transform="translate(0 0)">
        <ellipse cx="25.33" cy="0.00" rx="16.28" ry="25.33" fill="#c74038" fill-opacity="0.95" /><ellipse cx="17.91" cy="17.91" rx="16.28" ry="25.33" fill="#c74038" fill-opacity="0.95" /><ellipse cx="0.00" cy="25.33" rx="16.28" ry="25.33" fill="#c74038" fill-opacity="0.95" /><ellipse cx="-17.91" cy="17.91" rx="16.28" ry="25.33" fill="#c74038" fill-opacity="0.95" /><ellipse cx="-25.33" cy="0.00" rx="16.28" ry="25.33" fill="#c74038" fill-opacity="0.95" /><ellipse cx="-17.91" cy="-17.91" rx="16.28" ry="25.33" fill="#c74038" fill-opacity="0.95" /><ellipse cx="-0.00" cy="-25.33" rx="16.28" ry="25.33" fill="#c74038" fill-opacity="0.95" /><ellipse cx="17.91" cy="-17.91" rx="16.28" ry="25.33" fill="#c74038" fill-opacity="0.95" />
        <circle cx="0" cy="0" r="16.28" fill="#9f2d27" />
        <circle cx="0" cy="0" r="8.14" fill="#fff7f0" fill-opacity="0.72" />
      </g>
    </g>
    
    <g transform="translate(668.11 490.87) rotate(-10.68)">
      <path d="M 0 0 C -8 84.58, 10 140.97, -6 206.75" stroke="#87a276" stroke-width="11.28" fill="none" stroke-linecap="round" />
      <ellipse cx="-20" cy="103.38" rx="20.68" ry="39.47" fill="#87a276" fill-opacity="0.75" transform="rotate(-24)" />
      <ellipse cx="28" cy="127.81" rx="18.80" ry="35.71" fill="#87a276" fill-opacity="0.66" transform="rotate(20)" />
      <g transform="translate(0 0)">
        <ellipse cx="26.31" cy="0.00" rx="16.92" ry="26.31" fill="#f0ad3d" fill-opacity="0.95" /><ellipse cx="18.61" cy="18.61" rx="16.92" ry="26.31" fill="#f0ad3d" fill-opacity="0.95" /><ellipse cx="0.00" cy="26.31" rx="16.92" ry="26.31" fill="#f0ad3d" fill-opacity="0.95" /><ellipse cx="-18.61" cy="18.61" rx="16.92" ry="26.31" fill="#f0ad3d" fill-opacity="0.95" /><ellipse cx="-26.31" cy="0.00" rx="16.92" ry="26.31" fill="#f0ad3d" fill-opacity="0.95" /><ellipse cx="-18.61" cy="-18.61" rx="16.92" ry="26.31" fill="#f0ad3d" fill-opacity="0.95" /><ellipse cx="-0.00" cy="-26.31" rx="16.92" ry="26.31" fill="#f0ad3d" fill-opacity="0.95" /><ellipse cx="18.61" cy="-18.61" rx="16.92" ry="26.31" fill="#f0ad3d" fill-opacity="0.95" />
        <circle cx="0" cy="0" r="16.92" fill="#9f2d27" />
        <circle cx="0" cy="0" r="8.46" fill="#fff7f0" fill-opacity="0.72" />
      </g>
    </g>
    
  </g>
  <path d="M0 980 C220 920, 420 1030, 900 930 L900 1100 L0 1100 Z" fill="#ffffff" fill-opacity="0.22" />
</svg>
