<svg xmlns="http://www.w3.org/2000/svg" width="900" height="1100" viewBox="0 0 900 1100">
  <defs>
    <linearGradient id="bg" x1="0" y1="0" x2="0" y2="1">
      <stop offset="0%" stop-color="#fff5ef" />
      <stop offset="100%" stop-color="#f3eadb" />
    </linearGradient>
    <filter id="shadow" x="-20%" y="-20%" width="140%" height="140%">
      <feDropShadow dx="0" dy="22" stdDeviation="24" flood-color="#6c5d4f" flood-opacity="0.12" />
    </filter>
  </defs>
  <rect width="100%" height="100%" fill="url(#bg)" />
  <circle cx="730" cy="180" r="140" fill="#ffffff" fill-opacity="0.18" />
  <circle cx="150" cy="260" r="90" fill="#ffffff" fill-opacity="0.12" />
  
      <rect x="70" y="72" width="300" height="92" rx="24" fill="#ffffff" fill-opacity="0.34" />
      <text x="98" y="120" fill="#2f3a31" font-size="32" font-family="'PingFang SC','Microsoft YaHei',sans-serif" font-weight="600">晨耀双层</text>
      <text x="98" y="152" fill="#4e6152" font-size="18" font-family="'PingFang SC','Microsoft YaHei',sans-serif">开张 · 品牌活动</text>
    
  <g filter="url(#shadow)">
    <path d="M180 770 L720 770 L780 1080 L120 1080 Z" fill="#efe3c5" fill-opacity="0.9" />
  </g>
  <g>
    
    <g transform="translate(462.24 370.24) rotate(19.24)">
      <path d="M 0 0 C -8 94.35, 10 157.25, -6 230.63" stroke="#5f8458" stroke-width="12.58" fill="none" stroke-linecap="round" />
      <ellipse cx="-20" cy="115.31" rx="23.06" ry="44.03" fill="#5f8458" fill-opacity="0.75" transform="rotate(-24)" />
      <ellipse cx="28" cy="142.57" rx="20.97" ry="39.84" fill="#5f8458" fill-opacity="0.66" transform="rotate(20)" />
      <g transform="translate(0 0)">
        <ellipse cx="29.35" cy="0.00" rx="18.87" ry="29.35" fill="#c74038" fill-opacity="0.95" /><ellipse cx="20.76" cy="20.76" rx="18.87" ry="29.35" fill="#c74038" fill-opacity="0.95" /><ellipse cx="0.00" cy="29.35" rx="18.87" ry="29.35" fill="#c74038" fill-opacity="0.95" /><ellipse cx="-20.76" cy="20.76" rx="18.87" ry="29.35" fill="#c74038" fill-opacity="0.95" /><ellipse cx="-29.35" cy="0.00" rx="18.87" ry="29.35" fill="#c74038" fill-opacity="0.95" /><ellipse cx="-20.76" cy="-20.76" rx="18.87" ry="29.35" fill="#c74038" fill-opacity="0.95" /><ellipse cx="-0.00" cy="-29.35" rx="18.87" ry="29.35" fill="#c74038" fill-opacity="0.95" /><ellipse cx="20.76" cy="-20.76" rx="18.87" ry="29.35" fill="#c74038" fill-opacity="0.95" />
        <circle cx="0" cy="0" r="18.87" fill="#9f2d27" />
        <circle cx="0" cy="0" r="9.43" fill="#fff7f0" fill-opacity="0.72" />
      </g>
    </g>
    
    <g transform="translate(387.80 315.09) rotate(11.68)">
      <path d="M 0 0 C -8 94.75, 10 157.91, -6 231.61" stroke="#476b43" stroke-width="12.63" fill="none" stroke-linecap="round" />
      <ellipse cx="-20" cy="115.80" rx="23.16" ry="44.22" fill="#476b43" fill-opacity="0.75" transform="rotate(-24)" />
      <ellipse cx="28" cy="143.17" rx="21.06" ry="40.00" fill="#476b43" fill-opacity="0.66" transform="rotate(20)" />
      <g transform="translate(0 0)">
        <ellipse cx="29.48" cy="0.00" rx="18.95" ry="29.48" fill="#f0ad3d" fill-opacity="0.95" /><ellipse cx="20.84" cy="20.84" rx="18.95" ry="29.48" fill="#f0ad3d" fill-opacity="0.95" /><ellipse cx="0.00" cy="29.48" rx="18.95" ry="29.48" fill="#f0ad3d" fill-opacity="0.95" /><ellipse cx="-20.84" cy="20.84" rx="18.95" ry="29.48" fill="#f0ad3d" fill-opacity="0.95" /><ellipse cx="-29.48" cy="0.00" rx="18.95" ry="29.48" fill="#f0ad3d" fill-opacity="0.95" /><ellipse cx="-20.84" cy="-20.84" rx="18.95" ry="29.48" fill="#f0ad3d" fill-opacity="0.95" /><ellipse cx="-0.00" cy="-29.48" rx="18.95" ry="29.48" fill="#f0ad3d" fill-opacity="0.95" /><ellipse cx="20.84" cy="-20.84" rx="18.95" ry="29.48" fill="#f0ad3d" fill-opacity="0.95" />
        <circle cx="0" cy="0" r="18.95" fill="#9f2d27" />
        <circle cx="0" cy="0" r="9.47" fill="#fff7f0" fill-opacity="0.72" />
      </g>
    </g>
    
    <g transform="translate(512.41 329.18) rotate(-20.75)">
      <path d="M 0 0 C -8 85.46, 10 142.44, -6 208.90" stroke="#87a276" stroke-width="11.39" fill="none" stroke-linecap="round" />
      <ellipse cx="-20" cy="104.45" rx="20.89" ry="39.88" fill="#87a276" fill-opacity="0.75" transform="rotate(-24)" />
      <ellipse cx="28" cy="129.14" rx="18.99" ry="36.08" fill="#87a276" fill-opacity="0.66" transform="rotate(20)" />
      <g transform="translate(0 0)">
        <ellipse cx="26.59" cy="0.00" rx="17.09" ry="26.59" fill="#efc46f" fill-opacity="0.95" /><ellipse cx="18.80" cy="18.80" rx="17.09" ry="26.59" fill="#efc46f" fill-opacity="0.95" /><ellipse cx="0.00" cy="26.59" rx="17.09" ry="26.59" fill="#efc46f" fill-opacity="0.95" /><ellipse cx="-18.80" cy="18.80" rx="17.09" ry="26.59" fill="#efc46f" fill-opacity="0.95" /><ellipse cx="-26.59" cy="0.00" rx="17.09" ry="26.59" fill="#efc46f" fill-opacity="0.95" /><ellipse cx="-18.80" cy="-18.80" rx="17.09" ry="26.59" fill="#efc46f" fill-opacity="0.95" /><ellipse cx="-0.00" cy="-26.59" rx="17.09" ry="26.59" fill="#efc46f" fill-opacity="0.95" /><ellipse cx="18.80" cy="-18.80" rx="17.09" ry="26.59" fill="#efc46f" fill-opacity="0.95" />
        <circle cx="0" cy="0" r="17.09" fill="#9f2d27" />
        <circle cx="0" cy="0" r="8.55" fill="#fff7f0" fill-opacity="0.72" />
      </g>
    </g>
    
    <g transform="translate(437.94 510.69) rotate(-8.66)">
      <path d="M 0 0 C -8 103.91, 10 173.19, -6 254.01" stroke="#5f8458" stroke-width="13.85" fill="none" stroke-linecap="round" />
      <ellipse cx="-20" cy="127.00" rx="25.40" ry="48.49" fill="#5f8458" fill-opacity="0.75" transform="rotate(-24)" />
      <ellipse cx="28" cy="157.02" rx="23.09" ry="43.87" fill="#5f8458" fill-opacity="0.66" transform="rotate(20)" />
      <g transform="translate(0 0)">
        <ellipse cx="32.33" cy="0.00" rx="20.78" ry="32.33" fill="#f4d7ab" fill-opacity="0.95" /><ellipse cx="22.86" cy="22.86" rx="20.78" ry="32.33" fill="#f4d7ab" fill-opacity="0.95" /><ellipse cx="0.00" cy="32.33" rx="20.78" ry="32.33" fill="#f4d7ab" fill-opacity="0.95" /><ellipse cx="-22.86" cy="22.86" rx="20.78" ry="32.33" fill="#f4d7ab" fill-opacity="0.95" /><ellipse cx="-32.33" cy="0.00" rx="20.78" ry="32.33" fill="#f4d7ab" fill-opacity="0.95" /><ellipse cx="-22.86" cy="-22.86" rx="20.78" ry="32.33" fill="#f4d7ab" fill-opacity="0.95" /><ellipse cx="-0.00" cy="-32.33" rx="20.78" ry="32.33" fill="#f4d7ab" fill-opacity="0.95" /><ellipse cx="22.86" cy="-22.86" rx="20.78" ry="32.33" fill="#f4d7ab" fill-opacity="0.95" />
        <circle cx="0" cy="0" r="20.78" fill="#9f2d27" />
        <circle cx="0" cy="0" r="10.39" fill="#fff7f0" fill-opacity="0.72" />
      </g>
    </g>
    
    <g transform="translate(238.59 313.88) rotate(15.35)">
      <path d="M 0 0 C -8 97.94, 10 163.24, -6 239.41" stroke="#476b43" stroke-width="13.06" fill="none" stroke-linecap="round" />
      <ellipse cx="-20" cy="119.71" rx="23.94" ry="45.71" fill="#476b43" fill-opacity="0.75" transform="rotate(-24)" />
      <ellipse cx="28" cy="148.00" rx="21.76" ry="41.35" fill="#476b43" fill-opacity="0.66" transform="rotate(20)" />
      <g transform="translate(0 0)">
        <ellipse cx="30.47" cy="0.00" rx="19.59" ry="30.47" fill="#c74038" fill-opacity="0.95" /><ellipse cx="21.55" cy="21.55" rx="19.59" ry="30.47" fill="#c74038" fill-opacity="0.95" /><ellipse cx="0.00" cy="30.47" rx="19.59" ry="30.47" fill="#c74038" fill-opacity="0.95" /><ellipse cx="-21.55" cy="21.55" rx="19.59" ry="30.47" fill="#c74038" fill-opacity="0.95" /><ellipse cx="-30.47" cy="0.00" rx="19.59" ry="30.47" fill="#c74038" fill-opacity="0.95" /><ellipse cx="-21.55" cy="-21.55" rx="19.59" ry="30.47" fill="#c74038" fill-opacity="0.95" /><ellipse cx="-0.00" cy="-30.47" rx="19.59" ry="30.47" fill="#c74038" fill-opacity="0.95" /><ellipse cx="21.55" cy="-21.55" rx="19.59" ry="30.47" fill="#c74038" fill-opacity="0.95" />
        <circle cx="0" cy="0" r="19.59" fill="#9f2d27" />
        <circle cx="0" cy="0" r="9.79" fill="#fff7f0" fill-opacity="0.72" />
      </g>
    </g>
    
    <g transform="translate(356.75 294.41) rotate(8.71)">
      <path d="M 0 0 C -8 114.92, 10 191.53, -6 280.91" stroke="#87a276" stroke-width="15.32" fill="none" stroke-linecap="round" />
      <ellipse cx="-20" cy="140.46" rx="28.09" ry="53.63" fill="#87a276" fill-opacity="0.75" transform="rotate(-24)" />
      <ellipse cx="28" cy="173.65" rx="25.54" ry="48.52" fill="#87a276" fill-opacity="0.66" transform="rotate(20)" />
      <g transform="translate(0 0)">
        <ellipse cx="35.75" cy="0.00" rx="22.98" ry="35.75" fill="#f0ad3d" fill-opacity="0.95" /><ellipse cx="25.28" cy="25.28" rx="22.98" ry="35.75" fill="#f0ad3d" fill-opacity="0.95" /><ellipse cx="0.00" cy="35.75" rx="22.98" ry="35.75" fill="#f0ad3d" fill-opacity="0.95" /><ellipse cx="-25.28" cy="25.28" rx="22.98" ry="35.75" fill="#f0ad3d" fill-opacity="0.95" /><ellipse cx="-35.75" cy="0.00" rx="22.98" ry="35.75" fill="#f0ad3d" fill-opacity="0.95" /><ellipse cx="-25.28" cy="-25.28" rx="22.98" ry="35.75" fill="#f0ad3d" fill-opacity="0.95" /><ellipse cx="-0.00" cy="-35.75" rx="22.98" ry="35.75" fill="#f0ad3d" fill-opacity="0.95" /><ellipse cx="25.28" cy="-25.28" rx="22.98" ry="35.75" fill="#f0ad3d" fill-opacity="0.95" />
        <circle cx="0" cy="0" r="22.98" fill="#9f2d27" />
        <circle cx="0" cy="0" r="11.49" fill="#fff7f0" fill-opacity="0.72" />
      </g>
    </g>
    
  </g>
  <path d="M0 980 C220 920, 420 1030, 900 930 L900 1100 L0 1100 Z" fill="#ffffff" fill-opacity="0.22" />
</svg>
