<svg xmlns="http://www.w3.org/2000/svg" width="900" height="1100" viewBox="0 0 900 1100">
  <defs>
    <linearGradient id="bg" x1="0" y1="0" x2="0" y2="1">
      <stop offset="0%" stop-color="#fff5ef" />
      <stop offset="100%" stop-color="#f3eadb" />
    </linearGradient>
    <filter id="shadow" x="-20%" y="-20%" width="140%" height="140%">
      <feDropShadow dx="0" dy="22" stdDeviation="24" flood-color="#6c5d4f" flood-opacity="0.12" />
    </filter>
  </defs>
  <rect width="100%" height="100%" fill="url(#bg)" />
  <circle cx="730" cy="180" r="140" fill="#ffffff" fill-opacity="0.18" />
  <circle cx="150" cy="260" r="90" fill="#ffffff" fill-opacity="0.12" />
  
      <rect x="70" y="72" width="300" height="92" rx="24" fill="#ffffff" fill-opacity="0.34" />
      <text x="98" y="120" fill="#2f3a31" font-size="32" font-family="'PingFang SC','Microsoft YaHei',sans-serif" font-weight="600">品牌开幕</text>
      <text x="98" y="152" fill="#4e6152" font-size="18" font-family="'PingFang SC','Microsoft YaHei',sans-serif">展厅 · 商务花礼</text>
    
  <g filter="url(#shadow)">
    <path d="M180 770 L720 770 L780 1080 L120 1080 Z" fill="#efe3c5" fill-opacity="0.9" />
  </g>
  <g>
    
    <g transform="translate(274.42 338.16) rotate(-3.10)">
      <path d="M 0 0 C -8 80.65, 10 134.42, -6 197.15" stroke="#5f8458" stroke-width="10.75" fill="none" stroke-linecap="round" />
      <ellipse cx="-20" cy="98.58" rx="19.72" ry="37.64" fill="#5f8458" fill-opacity="0.75" transform="rotate(-24)" />
      <ellipse cx="28" cy="121.87" rx="17.92" ry="34.05" fill="#5f8458" fill-opacity="0.66" transform="rotate(20)" />
      <g transform="translate(0 0)">
        <ellipse cx="25.09" cy="0.00" rx="16.13" ry="25.09" fill="#c74038" fill-opacity="0.95" /><ellipse cx="17.74" cy="17.74" rx="16.13" ry="25.09" fill="#c74038" fill-opacity="0.95" /><ellipse cx="0.00" cy="25.09" rx="16.13" ry="25.09" fill="#c74038" fill-opacity="0.95" /><ellipse cx="-17.74" cy="17.74" rx="16.13" ry="25.09" fill="#c74038" fill-opacity="0.95" /><ellipse cx="-25.09" cy="0.00" rx="16.13" ry="25.09" fill="#c74038" fill-opacity="0.95" /><ellipse cx="-17.74" cy="-17.74" rx="16.13" ry="25.09" fill="#c74038" fill-opacity="0.95" /><ellipse cx="-0.00" cy="-25.09" rx="16.13" ry="25.09" fill="#c74038" fill-opacity="0.95" /><ellipse cx="17.74" cy="-17.74" rx="16.13" ry="25.09" fill="#c74038" fill-opacity="0.95" />
        <circle cx="0" cy="0" r="16.13" fill="#9f2d27" />
        <circle cx="0" cy="0" r="8.07" fill="#fff7f0" fill-opacity="0.72" />
      </g>
    </g>
    
    <g transform="translate(576.10 510.21) rotate(-17.27)">
      <path d="M 0 0 C -8 109.29, 10 182.15, -6 267.16" stroke="#476b43" stroke-width="14.57" fill="none" stroke-linecap="round" />
      <ellipse cx="-20" cy="133.58" rx="26.72" ry="51.00" fill="#476b43" fill-opacity="0.75" transform="rotate(-24)" />
      <ellipse cx="28" cy="165.15" rx="24.29" ry="46.15" fill="#476b43" fill-opacity="0.66" transform="rotate(20)" />
      <g transform="translate(0 0)">
        <ellipse cx="34.00" cy="0.00" rx="21.86" ry="34.00" fill="#f0ad3d" fill-opacity="0.95" /><ellipse cx="24.04" cy="24.04" rx="21.86" ry="34.00" fill="#f0ad3d" fill-opacity="0.95" /><ellipse cx="0.00" cy="34.00" rx="21.86" ry="34.00" fill="#f0ad3d" fill-opacity="0.95" /><ellipse cx="-24.04" cy="24.04" rx="21.86" ry="34.00" fill="#f0ad3d" fill-opacity="0.95" /><ellipse cx="-34.00" cy="0.00" rx="21.86" ry="34.00" fill="#f0ad3d" fill-opacity="0.95" /><ellipse cx="-24.04" cy="-24.04" rx="21.86" ry="34.00" fill="#f0ad3d" fill-opacity="0.95" /><ellipse cx="-0.00" cy="-34.00" rx="21.86" ry="34.00" fill="#f0ad3d" fill-opacity="0.95" /><ellipse cx="24.04" cy="-24.04" rx="21.86" ry="34.00" fill="#f0ad3d" fill-opacity="0.95" />
        <circle cx="0" cy="0" r="21.86" fill="#9f2d27" />
        <circle cx="0" cy="0" r="10.93" fill="#fff7f0" fill-opacity="0.72" />
      </g>
    </g>
    
    <g transform="translate(558.42 337.55) rotate(-8.30)">
      <path d="M 0 0 C -8 91.39, 10 152.32, -6 223.40" stroke="#87a276" stroke-width="12.19" fill="none" stroke-linecap="round" />
      <ellipse cx="-20" cy="111.70" rx="22.34" ry="42.65" fill="#87a276" fill-opacity="0.75" transform="rotate(-24)" />
      <ellipse cx="28" cy="138.10" rx="20.31" ry="38.59" fill="#87a276" fill-opacity="0.66" transform="rotate(20)" />
      <g transform="translate(0 0)">
        <ellipse cx="28.43" cy="0.00" rx="18.28" ry="28.43" fill="#efc46f" fill-opacity="0.95" /><ellipse cx="20.11" cy="20.11" rx="18.28" ry="28.43" fill="#efc46f" fill-opacity="0.95" /><ellipse cx="0.00" cy="28.43" rx="18.28" ry="28.43" fill="#efc46f" fill-opacity="0.95" /><ellipse cx="-20.11" cy="20.11" rx="18.28" ry="28.43" fill="#efc46f" fill-opacity="0.95" /><ellipse cx="-28.43" cy="0.00" rx="18.28" ry="28.43" fill="#efc46f" fill-opacity="0.95" /><ellipse cx="-20.11" cy="-20.11" rx="18.28" ry="28.43" fill="#efc46f" fill-opacity="0.95" /><ellipse cx="-0.00" cy="-28.43" rx="18.28" ry="28.43" fill="#efc46f" fill-opacity="0.95" /><ellipse cx="20.11" cy="-20.11" rx="18.28" ry="28.43" fill="#efc46f" fill-opacity="0.95" />
        <circle cx="0" cy="0" r="18.28" fill="#9f2d27" />
        <circle cx="0" cy="0" r="9.14" fill="#fff7f0" fill-opacity="0.72" />
      </g>
    </g>
    
    <g transform="translate(204.01 413.97) rotate(-2.66)">
      <path d="M 0 0 C -8 79.71, 10 132.85, -6 194.85" stroke="#5f8458" stroke-width="10.63" fill="none" stroke-linecap="round" />
      <ellipse cx="-20" cy="97.43" rx="19.49" ry="37.20" fill="#5f8458" fill-opacity="0.75" transform="rotate(-24)" />
      <ellipse cx="28" cy="120.46" rx="17.71" ry="33.66" fill="#5f8458" fill-opacity="0.66" transform="rotate(20)" />
      <g transform="translate(0 0)">
        <ellipse cx="24.80" cy="0.00" rx="15.94" ry="24.80" fill="#f4d7ab" fill-opacity="0.95" /><ellipse cx="17.54" cy="17.54" rx="15.94" ry="24.80" fill="#f4d7ab" fill-opacity="0.95" /><ellipse cx="0.00" cy="24.80" rx="15.94" ry="24.80" fill="#f4d7ab" fill-opacity="0.95" /><ellipse cx="-17.54" cy="17.54" rx="15.94" ry="24.80" fill="#f4d7ab" fill-opacity="0.95" /><ellipse cx="-24.80" cy="0.00" rx="15.94" ry="24.80" fill="#f4d7ab" fill-opacity="0.95" /><ellipse cx="-17.54" cy="-17.54" rx="15.94" ry="24.80" fill="#f4d7ab" fill-opacity="0.95" /><ellipse cx="-0.00" cy="-24.80" rx="15.94" ry="24.80" fill="#f4d7ab" fill-opacity="0.95" /><ellipse cx="17.54" cy="-17.54" rx="15.94" ry="24.80" fill="#f4d7ab" fill-opacity="0.95" />
        <circle cx="0" cy="0" r="15.94" fill="#9f2d27" />
        <circle cx="0" cy="0" r="7.97" fill="#fff7f0" fill-opacity="0.72" />
      </g>
    </g>
    
    <g transform="translate(354.08 556.05) rotate(22.84)">
      <path d="M 0 0 C -8 113.40, 10 188.99, -6 277.19" stroke="#476b43" stroke-width="15.12" fill="none" stroke-linecap="round" />
      <ellipse cx="-20" cy="138.59" rx="27.72" ry="52.92" fill="#476b43" fill-opacity="0.75" transform="rotate(-24)" />
      <ellipse cx="28" cy="171.35" rx="25.20" ry="47.88" fill="#476b43" fill-opacity="0.66" transform="rotate(20)" />
      <g transform="translate(0 0)">
        <ellipse cx="35.28" cy="0.00" rx="22.68" ry="35.28" fill="#c74038" fill-opacity="0.95" /><ellipse cx="24.95" cy="24.95" rx="22.68" ry="35.28" fill="#c74038" fill-opacity="0.95" /><ellipse cx="0.00" cy="35.28" rx="22.68" ry="35.28" fill="#c74038" fill-opacity="0.95" /><ellipse cx="-24.95" cy="24.95" rx="22.68" ry="35.28" fill="#c74038" fill-opacity="0.95" /><ellipse cx="-35.28" cy="0.00" rx="22.68" ry="35.28" fill="#c74038" fill-opacity="0.95" /><ellipse cx="-24.95" cy="-24.95" rx="22.68" ry="35.28" fill="#c74038" fill-opacity="0.95" /><ellipse cx="-0.00" cy="-35.28" rx="22.68" ry="35.28" fill="#c74038" fill-opacity="0.95" /><ellipse cx="24.95" cy="-24.95" rx="22.68" ry="35.28" fill="#c74038" fill-opacity="0.95" />
        <circle cx="0" cy="0" r="22.68" fill="#9f2d27" />
        <circle cx="0" cy="0" r="11.34" fill="#fff7f0" fill-opacity="0.72" />
      </g>
    </g>
    
    <g transform="translate(361.10 410.92) rotate(11.57)">
      <path d="M 0 0 C -8 70.71, 10 117.85, -6 172.85" stroke="#87a276" stroke-width="9.43" fill="none" stroke-linecap="round" />
      <ellipse cx="-20" cy="86.42" rx="17.28" ry="33.00" fill="#87a276" fill-opacity="0.75" transform="rotate(-24)" />
      <ellipse cx="28" cy="106.85" rx="15.71" ry="29.86" fill="#87a276" fill-opacity="0.66" transform="rotate(20)" />
      <g transform="translate(0 0)">
        <ellipse cx="22.00" cy="0.00" rx="14.14" ry="22.00" fill="#f0ad3d" fill-opacity="0.95" /><ellipse cx="15.56" cy="15.56" rx="14.14" ry="22.00" fill="#f0ad3d" fill-opacity="0.95" /><ellipse cx="0.00" cy="22.00" rx="14.14" ry="22.00" fill="#f0ad3d" fill-opacity="0.95" /><ellipse cx="-15.56" cy="15.56" rx="14.14" ry="22.00" fill="#f0ad3d" fill-opacity="0.95" /><ellipse cx="-22.00" cy="0.00" rx="14.14" ry="22.00" fill="#f0ad3d" fill-opacity="0.95" /><ellipse cx="-15.56" cy="-15.56" rx="14.14" ry="22.00" fill="#f0ad3d" fill-opacity="0.95" /><ellipse cx="-0.00" cy="-22.00" rx="14.14" ry="22.00" fill="#f0ad3d" fill-opacity="0.95" /><ellipse cx="15.56" cy="-15.56" rx="14.14" ry="22.00" fill="#f0ad3d" fill-opacity="0.95" />
        <circle cx="0" cy="0" r="14.14" fill="#9f2d27" />
        <circle cx="0" cy="0" r="7.07" fill="#fff7f0" fill-opacity="0.72" />
      </g>
    </g>
    
    <g transform="translate(331.32 448.16) rotate(-4.51)">
      <path d="M 0 0 C -8 98.66, 10 164.44, -6 241.18" stroke="#5f8458" stroke-width="13.16" fill="none" stroke-linecap="round" />
      <ellipse cx="-20" cy="120.59" rx="24.12" ry="46.04" fill="#5f8458" fill-opacity="0.75" transform="rotate(-24)" />
      <ellipse cx="28" cy="149.09" rx="21.93" ry="41.66" fill="#5f8458" fill-opacity="0.66" transform="rotate(20)" />
      <g transform="translate(0 0)">
        <ellipse cx="30.70" cy="0.00" rx="19.73" ry="30.70" fill="#efc46f" fill-opacity="0.95" /><ellipse cx="21.70" cy="21.70" rx="19.73" ry="30.70" fill="#efc46f" fill-opacity="0.95" /><ellipse cx="0.00" cy="30.70" rx="19.73" ry="30.70" fill="#efc46f" fill-opacity="0.95" /><ellipse cx="-21.70" cy="21.70" rx="19.73" ry="30.70" fill="#efc46f" fill-opacity="0.95" /><ellipse cx="-30.70" cy="0.00" rx="19.73" ry="30.70" fill="#efc46f" fill-opacity="0.95" /><ellipse cx="-21.70" cy="-21.70" rx="19.73" ry="30.70" fill="#efc46f" fill-opacity="0.95" /><ellipse cx="-0.00" cy="-30.70" rx="19.73" ry="30.70" fill="#efc46f" fill-opacity="0.95" /><ellipse cx="21.70" cy="-21.70" rx="19.73" ry="30.70" fill="#efc46f" fill-opacity="0.95" />
        <circle cx="0" cy="0" r="19.73" fill="#9f2d27" />
        <circle cx="0" cy="0" r="9.87" fill="#fff7f0" fill-opacity="0.72" />
      </g>
    </g>
    
  </g>
  <path d="M0 980 C220 920, 420 1030, 900 930 L900 1100 L0 1100 Z" fill="#ffffff" fill-opacity="0.22" />
</svg>
