<svg xmlns="http://www.w3.org/2000/svg" width="900" height="1100" viewBox="0 0 900 1100">
  <defs>
    <linearGradient id="bg" x1="0" y1="0" x2="0" y2="1">
      <stop offset="0%" stop-color="#fff5ef" />
      <stop offset="100%" stop-color="#f3eadb" />
    </linearGradient>
    <filter id="shadow" x="-20%" y="-20%" width="140%" height="140%">
      <feDropShadow dx="0" dy="22" stdDeviation="24" flood-color="#6c5d4f" flood-opacity="0.12" />
    </filter>
  </defs>
  <rect width="100%" height="100%" fill="url(#bg)" />
  <circle cx="730" cy="180" r="140" fill="#ffffff" fill-opacity="0.18" />
  <circle cx="150" cy="260" r="90" fill="#ffffff" fill-opacity="0.12" />
  
      <rect x="70" y="72" width="300" height="92" rx="24" fill="#ffffff" fill-opacity="0.34" />
      <text x="98" y="120" fill="#2f3a31" font-size="32" font-family="'PingFang SC','Microsoft YaHei',sans-serif" font-weight="600">前厅迎禧</text>
      <text x="98" y="152" fill="#4e6152" font-size="18" font-family="'PingFang SC','Microsoft YaHei',sans-serif">展厅 · 商务花礼</text>
    
  <g filter="url(#shadow)">
    <path d="M180 770 L720 770 L780 1080 L120 1080 Z" fill="#efe3c5" fill-opacity="0.9" />
  </g>
  <g>
    
    <g transform="translate(690.06 388.76) rotate(18.52)">
      <path d="M 0 0 C -8 79.86, 10 133.10, -6 195.22" stroke="#5f8458" stroke-width="10.65" fill="none" stroke-linecap="round" />
      <ellipse cx="-20" cy="97.61" rx="19.52" ry="37.27" fill="#5f8458" fill-opacity="0.75" transform="rotate(-24)" />
      <ellipse cx="28" cy="120.68" rx="17.75" ry="33.72" fill="#5f8458" fill-opacity="0.66" transform="rotate(20)" />
      <g transform="translate(0 0)">
        <ellipse cx="24.85" cy="0.00" rx="15.97" ry="24.85" fill="#c74038" fill-opacity="0.95" /><ellipse cx="17.57" cy="17.57" rx="15.97" ry="24.85" fill="#c74038" fill-opacity="0.95" /><ellipse cx="0.00" cy="24.85" rx="15.97" ry="24.85" fill="#c74038" fill-opacity="0.95" /><ellipse cx="-17.57" cy="17.57" rx="15.97" ry="24.85" fill="#c74038" fill-opacity="0.95" /><ellipse cx="-24.85" cy="0.00" rx="15.97" ry="24.85" fill="#c74038" fill-opacity="0.95" /><ellipse cx="-17.57" cy="-17.57" rx="15.97" ry="24.85" fill="#c74038" fill-opacity="0.95" /><ellipse cx="-0.00" cy="-24.85" rx="15.97" ry="24.85" fill="#c74038" fill-opacity="0.95" /><ellipse cx="17.57" cy="-17.57" rx="15.97" ry="24.85" fill="#c74038" fill-opacity="0.95" />
        <circle cx="0" cy="0" r="15.97" fill="#9f2d27" />
        <circle cx="0" cy="0" r="7.99" fill="#fff7f0" fill-opacity="0.72" />
      </g>
    </g>
    
    <g transform="translate(263.82 535.46) rotate(16.05)">
      <path d="M 0 0 C -8 73.12, 10 121.86, -6 178.73" stroke="#476b43" stroke-width="9.75" fill="none" stroke-linecap="round" />
      <ellipse cx="-20" cy="89.36" rx="17.87" ry="34.12" fill="#476b43" fill-opacity="0.75" transform="rotate(-24)" />
      <ellipse cx="28" cy="110.49" rx="16.25" ry="30.87" fill="#476b43" fill-opacity="0.66" transform="rotate(20)" />
      <g transform="translate(0 0)">
        <ellipse cx="22.75" cy="0.00" rx="14.62" ry="22.75" fill="#f0ad3d" fill-opacity="0.95" /><ellipse cx="16.08" cy="16.08" rx="14.62" ry="22.75" fill="#f0ad3d" fill-opacity="0.95" /><ellipse cx="0.00" cy="22.75" rx="14.62" ry="22.75" fill="#f0ad3d" fill-opacity="0.95" /><ellipse cx="-16.08" cy="16.08" rx="14.62" ry="22.75" fill="#f0ad3d" fill-opacity="0.95" /><ellipse cx="-22.75" cy="0.00" rx="14.62" ry="22.75" fill="#f0ad3d" fill-opacity="0.95" /><ellipse cx="-16.08" cy="-16.08" rx="14.62" ry="22.75" fill="#f0ad3d" fill-opacity="0.95" /><ellipse cx="-0.00" cy="-22.75" rx="14.62" ry="22.75" fill="#f0ad3d" fill-opacity="0.95" /><ellipse cx="16.08" cy="-16.08" rx="14.62" ry="22.75" fill="#f0ad3d" fill-opacity="0.95" />
        <circle cx="0" cy="0" r="14.62" fill="#9f2d27" />
        <circle cx="0" cy="0" r="7.31" fill="#fff7f0" fill-opacity="0.72" />
      </g>
    </g>
    
    <g transform="translate(562.06 379.91) rotate(13.55)">
      <path d="M 0 0 C -8 99.50, 10 165.83, -6 243.22" stroke="#87a276" stroke-width="13.27" fill="none" stroke-linecap="round" />
      <ellipse cx="-20" cy="121.61" rx="24.32" ry="46.43" fill="#87a276" fill-opacity="0.75" transform="rotate(-24)" />
      <ellipse cx="28" cy="150.35" rx="22.11" ry="42.01" fill="#87a276" fill-opacity="0.66" transform="rotate(20)" />
      <g transform="translate(0 0)">
        <ellipse cx="30.96" cy="0.00" rx="19.90" ry="30.96" fill="#efc46f" fill-opacity="0.95" /><ellipse cx="21.89" cy="21.89" rx="19.90" ry="30.96" fill="#efc46f" fill-opacity="0.95" /><ellipse cx="0.00" cy="30.96" rx="19.90" ry="30.96" fill="#efc46f" fill-opacity="0.95" /><ellipse cx="-21.89" cy="21.89" rx="19.90" ry="30.96" fill="#efc46f" fill-opacity="0.95" /><ellipse cx="-30.96" cy="0.00" rx="19.90" ry="30.96" fill="#efc46f" fill-opacity="0.95" /><ellipse cx="-21.89" cy="-21.89" rx="19.90" ry="30.96" fill="#efc46f" fill-opacity="0.95" /><ellipse cx="-0.00" cy="-30.96" rx="19.90" ry="30.96" fill="#efc46f" fill-opacity="0.95" /><ellipse cx="21.89" cy="-21.89" rx="19.90" ry="30.96" fill="#efc46f" fill-opacity="0.95" />
        <circle cx="0" cy="0" r="19.90" fill="#9f2d27" />
        <circle cx="0" cy="0" r="9.95" fill="#fff7f0" fill-opacity="0.72" />
      </g>
    </g>
    
    <g transform="translate(632.74 438.98) rotate(-11.75)">
      <path d="M 0 0 C -8 98.11, 10 163.52, -6 239.83" stroke="#5f8458" stroke-width="13.08" fill="none" stroke-linecap="round" />
      <ellipse cx="-20" cy="119.92" rx="23.98" ry="45.79" fill="#5f8458" fill-opacity="0.75" transform="rotate(-24)" />
      <ellipse cx="28" cy="148.26" rx="21.80" ry="41.43" fill="#5f8458" fill-opacity="0.66" transform="rotate(20)" />
      <g transform="translate(0 0)">
        <ellipse cx="30.52" cy="0.00" rx="19.62" ry="30.52" fill="#f4d7ab" fill-opacity="0.95" /><ellipse cx="21.58" cy="21.58" rx="19.62" ry="30.52" fill="#f4d7ab" fill-opacity="0.95" /><ellipse cx="0.00" cy="30.52" rx="19.62" ry="30.52" fill="#f4d7ab" fill-opacity="0.95" /><ellipse cx="-21.58" cy="21.58" rx="19.62" ry="30.52" fill="#f4d7ab" fill-opacity="0.95" /><ellipse cx="-30.52" cy="0.00" rx="19.62" ry="30.52" fill="#f4d7ab" fill-opacity="0.95" /><ellipse cx="-21.58" cy="-21.58" rx="19.62" ry="30.52" fill="#f4d7ab" fill-opacity="0.95" /><ellipse cx="-0.00" cy="-30.52" rx="19.62" ry="30.52" fill="#f4d7ab" fill-opacity="0.95" /><ellipse cx="21.58" cy="-21.58" rx="19.62" ry="30.52" fill="#f4d7ab" fill-opacity="0.95" />
        <circle cx="0" cy="0" r="19.62" fill="#9f2d27" />
        <circle cx="0" cy="0" r="9.81" fill="#fff7f0" fill-opacity="0.72" />
      </g>
    </g>
    
    <g transform="translate(600.28 392.61) rotate(-6.88)">
      <path d="M 0 0 C -8 95.32, 10 158.87, -6 233.01" stroke="#476b43" stroke-width="12.71" fill="none" stroke-linecap="round" />
      <ellipse cx="-20" cy="116.50" rx="23.30" ry="44.48" fill="#476b43" fill-opacity="0.75" transform="rotate(-24)" />
      <ellipse cx="28" cy="144.04" rx="21.18" ry="40.25" fill="#476b43" fill-opacity="0.66" transform="rotate(20)" />
      <g transform="translate(0 0)">
        <ellipse cx="29.66" cy="0.00" rx="19.06" ry="29.66" fill="#c74038" fill-opacity="0.95" /><ellipse cx="20.97" cy="20.97" rx="19.06" ry="29.66" fill="#c74038" fill-opacity="0.95" /><ellipse cx="0.00" cy="29.66" rx="19.06" ry="29.66" fill="#c74038" fill-opacity="0.95" /><ellipse cx="-20.97" cy="20.97" rx="19.06" ry="29.66" fill="#c74038" fill-opacity="0.95" /><ellipse cx="-29.66" cy="0.00" rx="19.06" ry="29.66" fill="#c74038" fill-opacity="0.95" /><ellipse cx="-20.97" cy="-20.97" rx="19.06" ry="29.66" fill="#c74038" fill-opacity="0.95" /><ellipse cx="-0.00" cy="-29.66" rx="19.06" ry="29.66" fill="#c74038" fill-opacity="0.95" /><ellipse cx="20.97" cy="-20.97" rx="19.06" ry="29.66" fill="#c74038" fill-opacity="0.95" />
        <circle cx="0" cy="0" r="19.06" fill="#9f2d27" />
        <circle cx="0" cy="0" r="9.53" fill="#fff7f0" fill-opacity="0.72" />
      </g>
    </g>
    
    <g transform="translate(197.97 338.29) rotate(25.98)">
      <path d="M 0 0 C -8 77.68, 10 129.46, -6 189.88" stroke="#87a276" stroke-width="10.36" fill="none" stroke-linecap="round" />
      <ellipse cx="-20" cy="94.94" rx="18.99" ry="36.25" fill="#87a276" fill-opacity="0.75" transform="rotate(-24)" />
      <ellipse cx="28" cy="117.38" rx="17.26" ry="32.80" fill="#87a276" fill-opacity="0.66" transform="rotate(20)" />
      <g transform="translate(0 0)">
        <ellipse cx="24.17" cy="0.00" rx="15.54" ry="24.17" fill="#f0ad3d" fill-opacity="0.95" /><ellipse cx="17.09" cy="17.09" rx="15.54" ry="24.17" fill="#f0ad3d" fill-opacity="0.95" /><ellipse cx="0.00" cy="24.17" rx="15.54" ry="24.17" fill="#f0ad3d" fill-opacity="0.95" /><ellipse cx="-17.09" cy="17.09" rx="15.54" ry="24.17" fill="#f0ad3d" fill-opacity="0.95" /><ellipse cx="-24.17" cy="0.00" rx="15.54" ry="24.17" fill="#f0ad3d" fill-opacity="0.95" /><ellipse cx="-17.09" cy="-17.09" rx="15.54" ry="24.17" fill="#f0ad3d" fill-opacity="0.95" /><ellipse cx="-0.00" cy="-24.17" rx="15.54" ry="24.17" fill="#f0ad3d" fill-opacity="0.95" /><ellipse cx="17.09" cy="-17.09" rx="15.54" ry="24.17" fill="#f0ad3d" fill-opacity="0.95" />
        <circle cx="0" cy="0" r="15.54" fill="#9f2d27" />
        <circle cx="0" cy="0" r="7.77" fill="#fff7f0" fill-opacity="0.72" />
      </g>
    </g>
    
    <g transform="translate(286.11 447.42) rotate(-24.48)">
      <path d="M 0 0 C -8 81.61, 10 136.01, -6 199.48" stroke="#5f8458" stroke-width="10.88" fill="none" stroke-linecap="round" />
      <ellipse cx="-20" cy="99.74" rx="19.95" ry="38.08" fill="#5f8458" fill-opacity="0.75" transform="rotate(-24)" />
      <ellipse cx="28" cy="123.32" rx="18.13" ry="34.46" fill="#5f8458" fill-opacity="0.66" transform="rotate(20)" />
      <g transform="translate(0 0)">
        <ellipse cx="25.39" cy="0.00" rx="16.32" ry="25.39" fill="#efc46f" fill-opacity="0.95" /><ellipse cx="17.95" cy="17.95" rx="16.32" ry="25.39" fill="#efc46f" fill-opacity="0.95" /><ellipse cx="0.00" cy="25.39" rx="16.32" ry="25.39" fill="#efc46f" fill-opacity="0.95" /><ellipse cx="-17.95" cy="17.95" rx="16.32" ry="25.39" fill="#efc46f" fill-opacity="0.95" /><ellipse cx="-25.39" cy="0.00" rx="16.32" ry="25.39" fill="#efc46f" fill-opacity="0.95" /><ellipse cx="-17.95" cy="-17.95" rx="16.32" ry="25.39" fill="#efc46f" fill-opacity="0.95" /><ellipse cx="-0.00" cy="-25.39" rx="16.32" ry="25.39" fill="#efc46f" fill-opacity="0.95" /><ellipse cx="17.95" cy="-17.95" rx="16.32" ry="25.39" fill="#efc46f" fill-opacity="0.95" />
        <circle cx="0" cy="0" r="16.32" fill="#9f2d27" />
        <circle cx="0" cy="0" r="8.16" fill="#fff7f0" fill-opacity="0.72" />
      </g>
    </g>
    
  </g>
  <path d="M0 980 C220 920, 420 1030, 900 930 L900 1100 L0 1100 Z" fill="#ffffff" fill-opacity="0.22" />
</svg>
