<svg xmlns="http://www.w3.org/2000/svg" width="900" height="1100" viewBox="0 0 900 1100">
  <defs>
    <linearGradient id="bg" x1="0" y1="0" x2="0" y2="1">
      <stop offset="0%" stop-color="#fff5ef" />
      <stop offset="100%" stop-color="#f3eadb" />
    </linearGradient>
    <filter id="shadow" x="-20%" y="-20%" width="140%" height="140%">
      <feDropShadow dx="0" dy="22" stdDeviation="24" flood-color="#6c5d4f" flood-opacity="0.12" />
    </filter>
  </defs>
  <rect width="100%" height="100%" fill="url(#bg)" />
  <circle cx="730" cy="180" r="140" fill="#ffffff" fill-opacity="0.18" />
  <circle cx="150" cy="260" r="90" fill="#ffffff" fill-opacity="0.12" />
  
      <rect x="70" y="72" width="300" height="92" rx="24" fill="#ffffff" fill-opacity="0.34" />
      <text x="98" y="120" fill="#2f3a31" font-size="32" font-family="'PingFang SC','Microsoft YaHei',sans-serif" font-weight="600">鸿彩启程</text>
      <text x="98" y="152" fill="#4e6152" font-size="18" font-family="'PingFang SC','Microsoft YaHei',sans-serif">开张 · 品牌活动</text>
    
  <g filter="url(#shadow)">
    <path d="M180 770 L720 770 L780 1080 L120 1080 Z" fill="#efe3c5" fill-opacity="0.9" />
  </g>
  <g>
    
    <g transform="translate(303.43 472.46) rotate(11.41)">
      <path d="M 0 0 C -8 76.27, 10 127.11, -6 186.43" stroke="#5f8458" stroke-width="10.17" fill="none" stroke-linecap="round" />
      <ellipse cx="-20" cy="93.22" rx="18.64" ry="35.59" fill="#5f8458" fill-opacity="0.75" transform="rotate(-24)" />
      <ellipse cx="28" cy="115.25" rx="16.95" ry="32.20" fill="#5f8458" fill-opacity="0.66" transform="rotate(20)" />
      <g transform="translate(0 0)">
        <ellipse cx="23.73" cy="0.00" rx="15.25" ry="23.73" fill="#c74038" fill-opacity="0.95" /><ellipse cx="16.78" cy="16.78" rx="15.25" ry="23.73" fill="#c74038" fill-opacity="0.95" /><ellipse cx="0.00" cy="23.73" rx="15.25" ry="23.73" fill="#c74038" fill-opacity="0.95" /><ellipse cx="-16.78" cy="16.78" rx="15.25" ry="23.73" fill="#c74038" fill-opacity="0.95" /><ellipse cx="-23.73" cy="0.00" rx="15.25" ry="23.73" fill="#c74038" fill-opacity="0.95" /><ellipse cx="-16.78" cy="-16.78" rx="15.25" ry="23.73" fill="#c74038" fill-opacity="0.95" /><ellipse cx="-0.00" cy="-23.73" rx="15.25" ry="23.73" fill="#c74038" fill-opacity="0.95" /><ellipse cx="16.78" cy="-16.78" rx="15.25" ry="23.73" fill="#c74038" fill-opacity="0.95" />
        <circle cx="0" cy="0" r="15.25" fill="#9f2d27" />
        <circle cx="0" cy="0" r="7.63" fill="#fff7f0" fill-opacity="0.72" />
      </g>
    </g>
    
    <g transform="translate(535.56 485.23) rotate(3.96)">
      <path d="M 0 0 C -8 110.04, 10 183.39, -6 268.98" stroke="#476b43" stroke-width="14.67" fill="none" stroke-linecap="round" />
      <ellipse cx="-20" cy="134.49" rx="26.90" ry="51.35" fill="#476b43" fill-opacity="0.75" transform="rotate(-24)" />
      <ellipse cx="28" cy="166.28" rx="24.45" ry="46.46" fill="#476b43" fill-opacity="0.66" transform="rotate(20)" />
      <g transform="translate(0 0)">
        <ellipse cx="34.23" cy="0.00" rx="22.01" ry="34.23" fill="#f0ad3d" fill-opacity="0.95" /><ellipse cx="24.21" cy="24.21" rx="22.01" ry="34.23" fill="#f0ad3d" fill-opacity="0.95" /><ellipse cx="0.00" cy="34.23" rx="22.01" ry="34.23" fill="#f0ad3d" fill-opacity="0.95" /><ellipse cx="-24.21" cy="24.21" rx="22.01" ry="34.23" fill="#f0ad3d" fill-opacity="0.95" /><ellipse cx="-34.23" cy="0.00" rx="22.01" ry="34.23" fill="#f0ad3d" fill-opacity="0.95" /><ellipse cx="-24.21" cy="-24.21" rx="22.01" ry="34.23" fill="#f0ad3d" fill-opacity="0.95" /><ellipse cx="-0.00" cy="-34.23" rx="22.01" ry="34.23" fill="#f0ad3d" fill-opacity="0.95" /><ellipse cx="24.21" cy="-24.21" rx="22.01" ry="34.23" fill="#f0ad3d" fill-opacity="0.95" />
        <circle cx="0" cy="0" r="22.01" fill="#9f2d27" />
        <circle cx="0" cy="0" r="11.00" fill="#fff7f0" fill-opacity="0.72" />
      </g>
    </g>
    
    <g transform="translate(439.14 348.51) rotate(-19.15)">
      <path d="M 0 0 C -8 103.58, 10 172.64, -6 253.20" stroke="#87a276" stroke-width="13.81" fill="none" stroke-linecap="round" />
      <ellipse cx="-20" cy="126.60" rx="25.32" ry="48.34" fill="#87a276" fill-opacity="0.75" transform="rotate(-24)" />
      <ellipse cx="28" cy="156.53" rx="23.02" ry="43.74" fill="#87a276" fill-opacity="0.66" transform="rotate(20)" />
      <g transform="translate(0 0)">
        <ellipse cx="32.23" cy="0.00" rx="20.72" ry="32.23" fill="#efc46f" fill-opacity="0.95" /><ellipse cx="22.79" cy="22.79" rx="20.72" ry="32.23" fill="#efc46f" fill-opacity="0.95" /><ellipse cx="0.00" cy="32.23" rx="20.72" ry="32.23" fill="#efc46f" fill-opacity="0.95" /><ellipse cx="-22.79" cy="22.79" rx="20.72" ry="32.23" fill="#efc46f" fill-opacity="0.95" /><ellipse cx="-32.23" cy="0.00" rx="20.72" ry="32.23" fill="#efc46f" fill-opacity="0.95" /><ellipse cx="-22.79" cy="-22.79" rx="20.72" ry="32.23" fill="#efc46f" fill-opacity="0.95" /><ellipse cx="-0.00" cy="-32.23" rx="20.72" ry="32.23" fill="#efc46f" fill-opacity="0.95" /><ellipse cx="22.79" cy="-22.79" rx="20.72" ry="32.23" fill="#efc46f" fill-opacity="0.95" />
        <circle cx="0" cy="0" r="20.72" fill="#9f2d27" />
        <circle cx="0" cy="0" r="10.36" fill="#fff7f0" fill-opacity="0.72" />
      </g>
    </g>
    
    <g transform="translate(628.30 428.67) rotate(-8.26)">
      <path d="M 0 0 C -8 86.10, 10 143.49, -6 210.46" stroke="#5f8458" stroke-width="11.48" fill="none" stroke-linecap="round" />
      <ellipse cx="-20" cy="105.23" rx="21.05" ry="40.18" fill="#5f8458" fill-opacity="0.75" transform="rotate(-24)" />
      <ellipse cx="28" cy="130.10" rx="19.13" ry="36.35" fill="#5f8458" fill-opacity="0.66" transform="rotate(20)" />
      <g transform="translate(0 0)">
        <ellipse cx="26.79" cy="0.00" rx="17.22" ry="26.79" fill="#f4d7ab" fill-opacity="0.95" /><ellipse cx="18.94" cy="18.94" rx="17.22" ry="26.79" fill="#f4d7ab" fill-opacity="0.95" /><ellipse cx="0.00" cy="26.79" rx="17.22" ry="26.79" fill="#f4d7ab" fill-opacity="0.95" /><ellipse cx="-18.94" cy="18.94" rx="17.22" ry="26.79" fill="#f4d7ab" fill-opacity="0.95" /><ellipse cx="-26.79" cy="0.00" rx="17.22" ry="26.79" fill="#f4d7ab" fill-opacity="0.95" /><ellipse cx="-18.94" cy="-18.94" rx="17.22" ry="26.79" fill="#f4d7ab" fill-opacity="0.95" /><ellipse cx="-0.00" cy="-26.79" rx="17.22" ry="26.79" fill="#f4d7ab" fill-opacity="0.95" /><ellipse cx="18.94" cy="-18.94" rx="17.22" ry="26.79" fill="#f4d7ab" fill-opacity="0.95" />
        <circle cx="0" cy="0" r="17.22" fill="#9f2d27" />
        <circle cx="0" cy="0" r="8.61" fill="#fff7f0" fill-opacity="0.72" />
      </g>
    </g>
    
    <g transform="translate(565.85 293.80) rotate(-7.24)">
      <path d="M 0 0 C -8 86.02, 10 143.37, -6 210.27" stroke="#476b43" stroke-width="11.47" fill="none" stroke-linecap="round" />
      <ellipse cx="-20" cy="105.14" rx="21.03" ry="40.14" fill="#476b43" fill-opacity="0.75" transform="rotate(-24)" />
      <ellipse cx="28" cy="129.99" rx="19.12" ry="36.32" fill="#476b43" fill-opacity="0.66" transform="rotate(20)" />
      <g transform="translate(0 0)">
        <ellipse cx="26.76" cy="0.00" rx="17.20" ry="26.76" fill="#c74038" fill-opacity="0.95" /><ellipse cx="18.92" cy="18.92" rx="17.20" ry="26.76" fill="#c74038" fill-opacity="0.95" /><ellipse cx="0.00" cy="26.76" rx="17.20" ry="26.76" fill="#c74038" fill-opacity="0.95" /><ellipse cx="-18.92" cy="18.92" rx="17.20" ry="26.76" fill="#c74038" fill-opacity="0.95" /><ellipse cx="-26.76" cy="0.00" rx="17.20" ry="26.76" fill="#c74038" fill-opacity="0.95" /><ellipse cx="-18.92" cy="-18.92" rx="17.20" ry="26.76" fill="#c74038" fill-opacity="0.95" /><ellipse cx="-0.00" cy="-26.76" rx="17.20" ry="26.76" fill="#c74038" fill-opacity="0.95" /><ellipse cx="18.92" cy="-18.92" rx="17.20" ry="26.76" fill="#c74038" fill-opacity="0.95" />
        <circle cx="0" cy="0" r="17.20" fill="#9f2d27" />
        <circle cx="0" cy="0" r="8.60" fill="#fff7f0" fill-opacity="0.72" />
      </g>
    </g>
    
    <g transform="translate(211.29 292.34) rotate(-16.32)">
      <path d="M 0 0 C -8 91.19, 10 151.99, -6 222.91" stroke="#87a276" stroke-width="12.16" fill="none" stroke-linecap="round" />
      <ellipse cx="-20" cy="111.46" rx="22.29" ry="42.56" fill="#87a276" fill-opacity="0.75" transform="rotate(-24)" />
      <ellipse cx="28" cy="137.80" rx="20.26" ry="38.50" fill="#87a276" fill-opacity="0.66" transform="rotate(20)" />
      <g transform="translate(0 0)">
        <ellipse cx="28.37" cy="0.00" rx="18.24" ry="28.37" fill="#f0ad3d" fill-opacity="0.95" /><ellipse cx="20.06" cy="20.06" rx="18.24" ry="28.37" fill="#f0ad3d" fill-opacity="0.95" /><ellipse cx="0.00" cy="28.37" rx="18.24" ry="28.37" fill="#f0ad3d" fill-opacity="0.95" /><ellipse cx="-20.06" cy="20.06" rx="18.24" ry="28.37" fill="#f0ad3d" fill-opacity="0.95" /><ellipse cx="-28.37" cy="0.00" rx="18.24" ry="28.37" fill="#f0ad3d" fill-opacity="0.95" /><ellipse cx="-20.06" cy="-20.06" rx="18.24" ry="28.37" fill="#f0ad3d" fill-opacity="0.95" /><ellipse cx="-0.00" cy="-28.37" rx="18.24" ry="28.37" fill="#f0ad3d" fill-opacity="0.95" /><ellipse cx="20.06" cy="-20.06" rx="18.24" ry="28.37" fill="#f0ad3d" fill-opacity="0.95" />
        <circle cx="0" cy="0" r="18.24" fill="#9f2d27" />
        <circle cx="0" cy="0" r="9.12" fill="#fff7f0" fill-opacity="0.72" />
      </g>
    </g>
    
    <g transform="translate(616.02 327.25) rotate(-22.48)">
      <path d="M 0 0 C -8 86.37, 10 143.95, -6 211.13" stroke="#5f8458" stroke-width="11.52" fill="none" stroke-linecap="round" />
      <ellipse cx="-20" cy="105.57" rx="21.11" ry="40.31" fill="#5f8458" fill-opacity="0.75" transform="rotate(-24)" />
      <ellipse cx="28" cy="130.52" rx="19.19" ry="36.47" fill="#5f8458" fill-opacity="0.66" transform="rotate(20)" />
      <g transform="translate(0 0)">
        <ellipse cx="26.87" cy="0.00" rx="17.27" ry="26.87" fill="#efc46f" fill-opacity="0.95" /><ellipse cx="19.00" cy="19.00" rx="17.27" ry="26.87" fill="#efc46f" fill-opacity="0.95" /><ellipse cx="0.00" cy="26.87" rx="17.27" ry="26.87" fill="#efc46f" fill-opacity="0.95" /><ellipse cx="-19.00" cy="19.00" rx="17.27" ry="26.87" fill="#efc46f" fill-opacity="0.95" /><ellipse cx="-26.87" cy="0.00" rx="17.27" ry="26.87" fill="#efc46f" fill-opacity="0.95" /><ellipse cx="-19.00" cy="-19.00" rx="17.27" ry="26.87" fill="#efc46f" fill-opacity="0.95" /><ellipse cx="-0.00" cy="-26.87" rx="17.27" ry="26.87" fill="#efc46f" fill-opacity="0.95" /><ellipse cx="19.00" cy="-19.00" rx="17.27" ry="26.87" fill="#efc46f" fill-opacity="0.95" />
        <circle cx="0" cy="0" r="17.27" fill="#9f2d27" />
        <circle cx="0" cy="0" r="8.64" fill="#fff7f0" fill-opacity="0.72" />
      </g>
    </g>
    
  </g>
  <path d="M0 980 C220 920, 420 1030, 900 930 L900 1100 L0 1100 Z" fill="#ffffff" fill-opacity="0.22" />
</svg>
