<svg xmlns="http://www.w3.org/2000/svg" width="900" height="1100" viewBox="0 0 900 1100">
  <defs>
    <linearGradient id="bg" x1="0" y1="0" x2="0" y2="1">
      <stop offset="0%" stop-color="#fff5ef" />
      <stop offset="100%" stop-color="#f3eadb" />
    </linearGradient>
    <filter id="shadow" x="-20%" y="-20%" width="140%" height="140%">
      <feDropShadow dx="0" dy="22" stdDeviation="24" flood-color="#6c5d4f" flood-opacity="0.12" />
    </filter>
  </defs>
  <rect width="100%" height="100%" fill="url(#bg)" />
  <circle cx="730" cy="180" r="140" fill="#ffffff" fill-opacity="0.18" />
  <circle cx="150" cy="260" r="90" fill="#ffffff" fill-opacity="0.12" />
  
      <rect x="70" y="72" width="300" height="92" rx="24" fill="#ffffff" fill-opacity="0.34" />
      <text x="98" y="120" fill="#2f3a31" font-size="32" font-family="'PingFang SC','Microsoft YaHei',sans-serif" font-weight="600">开张盛景</text>
      <text x="98" y="152" fill="#4e6152" font-size="18" font-family="'PingFang SC','Microsoft YaHei',sans-serif">开业 · 商务</text>
    
  <g filter="url(#shadow)">
    <path d="M180 770 L720 770 L780 1080 L120 1080 Z" fill="#efe3c5" fill-opacity="0.9" />
  </g>
  <g>
    
    <g transform="translate(639.54 497.28) rotate(-12.25)">
      <path d="M 0 0 C -8 77.96, 10 129.94, -6 190.57" stroke="#5f8458" stroke-width="10.39" fill="none" stroke-linecap="round" />
      <ellipse cx="-20" cy="95.29" rx="19.06" ry="36.38" fill="#5f8458" fill-opacity="0.75" transform="rotate(-24)" />
      <ellipse cx="28" cy="117.81" rx="17.32" ry="32.92" fill="#5f8458" fill-opacity="0.66" transform="rotate(20)" />
      <g transform="translate(0 0)">
        <ellipse cx="24.25" cy="0.00" rx="15.59" ry="24.25" fill="#c74038" fill-opacity="0.95" /><ellipse cx="17.15" cy="17.15" rx="15.59" ry="24.25" fill="#c74038" fill-opacity="0.95" /><ellipse cx="0.00" cy="24.25" rx="15.59" ry="24.25" fill="#c74038" fill-opacity="0.95" /><ellipse cx="-17.15" cy="17.15" rx="15.59" ry="24.25" fill="#c74038" fill-opacity="0.95" /><ellipse cx="-24.25" cy="0.00" rx="15.59" ry="24.25" fill="#c74038" fill-opacity="0.95" /><ellipse cx="-17.15" cy="-17.15" rx="15.59" ry="24.25" fill="#c74038" fill-opacity="0.95" /><ellipse cx="-0.00" cy="-24.25" rx="15.59" ry="24.25" fill="#c74038" fill-opacity="0.95" /><ellipse cx="17.15" cy="-17.15" rx="15.59" ry="24.25" fill="#c74038" fill-opacity="0.95" />
        <circle cx="0" cy="0" r="15.59" fill="#9f2d27" />
        <circle cx="0" cy="0" r="7.80" fill="#fff7f0" fill-opacity="0.72" />
      </g>
    </g>
    
    <g transform="translate(504.66 434.49) rotate(-23.81)">
      <path d="M 0 0 C -8 88.44, 10 147.41, -6 216.20" stroke="#476b43" stroke-width="11.79" fill="none" stroke-linecap="round" />
      <ellipse cx="-20" cy="108.10" rx="21.62" ry="41.27" fill="#476b43" fill-opacity="0.75" transform="rotate(-24)" />
      <ellipse cx="28" cy="133.65" rx="19.65" ry="37.34" fill="#476b43" fill-opacity="0.66" transform="rotate(20)" />
      <g transform="translate(0 0)">
        <ellipse cx="27.52" cy="0.00" rx="17.69" ry="27.52" fill="#f0ad3d" fill-opacity="0.95" /><ellipse cx="19.46" cy="19.46" rx="17.69" ry="27.52" fill="#f0ad3d" fill-opacity="0.95" /><ellipse cx="0.00" cy="27.52" rx="17.69" ry="27.52" fill="#f0ad3d" fill-opacity="0.95" /><ellipse cx="-19.46" cy="19.46" rx="17.69" ry="27.52" fill="#f0ad3d" fill-opacity="0.95" /><ellipse cx="-27.52" cy="0.00" rx="17.69" ry="27.52" fill="#f0ad3d" fill-opacity="0.95" /><ellipse cx="-19.46" cy="-19.46" rx="17.69" ry="27.52" fill="#f0ad3d" fill-opacity="0.95" /><ellipse cx="-0.00" cy="-27.52" rx="17.69" ry="27.52" fill="#f0ad3d" fill-opacity="0.95" /><ellipse cx="19.46" cy="-19.46" rx="17.69" ry="27.52" fill="#f0ad3d" fill-opacity="0.95" />
        <circle cx="0" cy="0" r="17.69" fill="#9f2d27" />
        <circle cx="0" cy="0" r="8.84" fill="#fff7f0" fill-opacity="0.72" />
      </g>
    </g>
    
    <g transform="translate(620.07 448.17) rotate(-24.72)">
      <path d="M 0 0 C -8 108.66, 10 181.10, -6 265.62" stroke="#87a276" stroke-width="14.49" fill="none" stroke-linecap="round" />
      <ellipse cx="-20" cy="132.81" rx="26.56" ry="50.71" fill="#87a276" fill-opacity="0.75" transform="rotate(-24)" />
      <ellipse cx="28" cy="164.20" rx="24.15" ry="45.88" fill="#87a276" fill-opacity="0.66" transform="rotate(20)" />
      <g transform="translate(0 0)">
        <ellipse cx="33.81" cy="0.00" rx="21.73" ry="33.81" fill="#efc46f" fill-opacity="0.95" /><ellipse cx="23.90" cy="23.90" rx="21.73" ry="33.81" fill="#efc46f" fill-opacity="0.95" /><ellipse cx="0.00" cy="33.81" rx="21.73" ry="33.81" fill="#efc46f" fill-opacity="0.95" /><ellipse cx="-23.90" cy="23.90" rx="21.73" ry="33.81" fill="#efc46f" fill-opacity="0.95" /><ellipse cx="-33.81" cy="0.00" rx="21.73" ry="33.81" fill="#efc46f" fill-opacity="0.95" /><ellipse cx="-23.90" cy="-23.90" rx="21.73" ry="33.81" fill="#efc46f" fill-opacity="0.95" /><ellipse cx="-0.00" cy="-33.81" rx="21.73" ry="33.81" fill="#efc46f" fill-opacity="0.95" /><ellipse cx="23.90" cy="-23.90" rx="21.73" ry="33.81" fill="#efc46f" fill-opacity="0.95" />
        <circle cx="0" cy="0" r="21.73" fill="#9f2d27" />
        <circle cx="0" cy="0" r="10.87" fill="#fff7f0" fill-opacity="0.72" />
      </g>
    </g>
    
    <g transform="translate(325.39 452.05) rotate(-12.90)">
      <path d="M 0 0 C -8 88.97, 10 148.29, -6 217.49" stroke="#5f8458" stroke-width="11.86" fill="none" stroke-linecap="round" />
      <ellipse cx="-20" cy="108.75" rx="21.75" ry="41.52" fill="#5f8458" fill-opacity="0.75" transform="rotate(-24)" />
      <ellipse cx="28" cy="134.45" rx="19.77" ry="37.57" fill="#5f8458" fill-opacity="0.66" transform="rotate(20)" />
      <g transform="translate(0 0)">
        <ellipse cx="27.68" cy="0.00" rx="17.79" ry="27.68" fill="#f4d7ab" fill-opacity="0.95" /><ellipse cx="19.57" cy="19.57" rx="17.79" ry="27.68" fill="#f4d7ab" fill-opacity="0.95" /><ellipse cx="0.00" cy="27.68" rx="17.79" ry="27.68" fill="#f4d7ab" fill-opacity="0.95" /><ellipse cx="-19.57" cy="19.57" rx="17.79" ry="27.68" fill="#f4d7ab" fill-opacity="0.95" /><ellipse cx="-27.68" cy="0.00" rx="17.79" ry="27.68" fill="#f4d7ab" fill-opacity="0.95" /><ellipse cx="-19.57" cy="-19.57" rx="17.79" ry="27.68" fill="#f4d7ab" fill-opacity="0.95" /><ellipse cx="-0.00" cy="-27.68" rx="17.79" ry="27.68" fill="#f4d7ab" fill-opacity="0.95" /><ellipse cx="19.57" cy="-19.57" rx="17.79" ry="27.68" fill="#f4d7ab" fill-opacity="0.95" />
        <circle cx="0" cy="0" r="17.79" fill="#9f2d27" />
        <circle cx="0" cy="0" r="8.90" fill="#fff7f0" fill-opacity="0.72" />
      </g>
    </g>
    
    <g transform="translate(536.12 485.14) rotate(10.65)">
      <path d="M 0 0 C -8 87.61, 10 146.02, -6 214.17" stroke="#476b43" stroke-width="11.68" fill="none" stroke-linecap="round" />
      <ellipse cx="-20" cy="107.08" rx="21.42" ry="40.89" fill="#476b43" fill-opacity="0.75" transform="rotate(-24)" />
      <ellipse cx="28" cy="132.40" rx="19.47" ry="36.99" fill="#476b43" fill-opacity="0.66" transform="rotate(20)" />
      <g transform="translate(0 0)">
        <ellipse cx="27.26" cy="0.00" rx="17.52" ry="27.26" fill="#c74038" fill-opacity="0.95" /><ellipse cx="19.27" cy="19.27" rx="17.52" ry="27.26" fill="#c74038" fill-opacity="0.95" /><ellipse cx="0.00" cy="27.26" rx="17.52" ry="27.26" fill="#c74038" fill-opacity="0.95" /><ellipse cx="-19.27" cy="19.27" rx="17.52" ry="27.26" fill="#c74038" fill-opacity="0.95" /><ellipse cx="-27.26" cy="0.00" rx="17.52" ry="27.26" fill="#c74038" fill-opacity="0.95" /><ellipse cx="-19.27" cy="-19.27" rx="17.52" ry="27.26" fill="#c74038" fill-opacity="0.95" /><ellipse cx="-0.00" cy="-27.26" rx="17.52" ry="27.26" fill="#c74038" fill-opacity="0.95" /><ellipse cx="19.27" cy="-19.27" rx="17.52" ry="27.26" fill="#c74038" fill-opacity="0.95" />
        <circle cx="0" cy="0" r="17.52" fill="#9f2d27" />
        <circle cx="0" cy="0" r="8.76" fill="#fff7f0" fill-opacity="0.72" />
      </g>
    </g>
    
    <g transform="translate(591.22 355.25) rotate(-5.39)">
      <path d="M 0 0 C -8 96.52, 10 160.87, -6 235.94" stroke="#87a276" stroke-width="12.87" fill="none" stroke-linecap="round" />
      <ellipse cx="-20" cy="117.97" rx="23.59" ry="45.04" fill="#87a276" fill-opacity="0.75" transform="rotate(-24)" />
      <ellipse cx="28" cy="145.86" rx="21.45" ry="40.75" fill="#87a276" fill-opacity="0.66" transform="rotate(20)" />
      <g transform="translate(0 0)">
        <ellipse cx="30.03" cy="0.00" rx="19.30" ry="30.03" fill="#f0ad3d" fill-opacity="0.95" /><ellipse cx="21.23" cy="21.23" rx="19.30" ry="30.03" fill="#f0ad3d" fill-opacity="0.95" /><ellipse cx="0.00" cy="30.03" rx="19.30" ry="30.03" fill="#f0ad3d" fill-opacity="0.95" /><ellipse cx="-21.23" cy="21.23" rx="19.30" ry="30.03" fill="#f0ad3d" fill-opacity="0.95" /><ellipse cx="-30.03" cy="0.00" rx="19.30" ry="30.03" fill="#f0ad3d" fill-opacity="0.95" /><ellipse cx="-21.23" cy="-21.23" rx="19.30" ry="30.03" fill="#f0ad3d" fill-opacity="0.95" /><ellipse cx="-0.00" cy="-30.03" rx="19.30" ry="30.03" fill="#f0ad3d" fill-opacity="0.95" /><ellipse cx="21.23" cy="-21.23" rx="19.30" ry="30.03" fill="#f0ad3d" fill-opacity="0.95" />
        <circle cx="0" cy="0" r="19.30" fill="#9f2d27" />
        <circle cx="0" cy="0" r="9.65" fill="#fff7f0" fill-opacity="0.72" />
      </g>
    </g>
    
  </g>
  <path d="M0 980 C220 920, 420 1030, 900 930 L900 1100 L0 1100 Z" fill="#ffffff" fill-opacity="0.22" />
</svg>
