<svg xmlns="http://www.w3.org/2000/svg" width="900" height="1100" viewBox="0 0 900 1100">
  <defs>
    <linearGradient id="bg" x1="0" y1="0" x2="0" y2="1">
      <stop offset="0%" stop-color="#fff5ef" />
      <stop offset="100%" stop-color="#f3eadb" />
    </linearGradient>
    <filter id="shadow" x="-20%" y="-20%" width="140%" height="140%">
      <feDropShadow dx="0" dy="22" stdDeviation="24" flood-color="#6c5d4f" flood-opacity="0.12" />
    </filter>
  </defs>
  <rect width="100%" height="100%" fill="url(#bg)" />
  <circle cx="730" cy="180" r="140" fill="#ffffff" fill-opacity="0.18" />
  <circle cx="150" cy="260" r="90" fill="#ffffff" fill-opacity="0.12" />
  
      <rect x="70" y="72" width="300" height="92" rx="24" fill="#ffffff" fill-opacity="0.34" />
      <text x="98" y="120" fill="#2f3a31" font-size="32" font-family="'PingFang SC','Microsoft YaHei',sans-serif" font-weight="600">瑞色盈门</text>
      <text x="98" y="152" fill="#4e6152" font-size="18" font-family="'PingFang SC','Microsoft YaHei',sans-serif">开张 · 品牌活动</text>
    
  <g filter="url(#shadow)">
    <path d="M180 770 L720 770 L780 1080 L120 1080 Z" fill="#efe3c5" fill-opacity="0.9" />
  </g>
  <g>
    
    <g transform="translate(223.08 501.45) rotate(16.34)">
      <path d="M 0 0 C -8 113.13, 10 188.56, -6 276.55" stroke="#5f8458" stroke-width="15.08" fill="none" stroke-linecap="round" />
      <ellipse cx="-20" cy="138.27" rx="27.65" ry="52.80" fill="#5f8458" fill-opacity="0.75" transform="rotate(-24)" />
      <ellipse cx="28" cy="170.96" rx="25.14" ry="47.77" fill="#5f8458" fill-opacity="0.66" transform="rotate(20)" />
      <g transform="translate(0 0)">
        <ellipse cx="35.20" cy="0.00" rx="22.63" ry="35.20" fill="#c74038" fill-opacity="0.95" /><ellipse cx="24.89" cy="24.89" rx="22.63" ry="35.20" fill="#c74038" fill-opacity="0.95" /><ellipse cx="0.00" cy="35.20" rx="22.63" ry="35.20" fill="#c74038" fill-opacity="0.95" /><ellipse cx="-24.89" cy="24.89" rx="22.63" ry="35.20" fill="#c74038" fill-opacity="0.95" /><ellipse cx="-35.20" cy="0.00" rx="22.63" ry="35.20" fill="#c74038" fill-opacity="0.95" /><ellipse cx="-24.89" cy="-24.89" rx="22.63" ry="35.20" fill="#c74038" fill-opacity="0.95" /><ellipse cx="-0.00" cy="-35.20" rx="22.63" ry="35.20" fill="#c74038" fill-opacity="0.95" /><ellipse cx="24.89" cy="-24.89" rx="22.63" ry="35.20" fill="#c74038" fill-opacity="0.95" />
        <circle cx="0" cy="0" r="22.63" fill="#9f2d27" />
        <circle cx="0" cy="0" r="11.31" fill="#fff7f0" fill-opacity="0.72" />
      </g>
    </g>
    
    <g transform="translate(566.78 328.28) rotate(23.33)">
      <path d="M 0 0 C -8 106.96, 10 178.27, -6 261.47" stroke="#476b43" stroke-width="14.26" fill="none" stroke-linecap="round" />
      <ellipse cx="-20" cy="130.73" rx="26.15" ry="49.92" fill="#476b43" fill-opacity="0.75" transform="rotate(-24)" />
      <ellipse cx="28" cy="161.64" rx="23.77" ry="45.16" fill="#476b43" fill-opacity="0.66" transform="rotate(20)" />
      <g transform="translate(0 0)">
        <ellipse cx="33.28" cy="0.00" rx="21.39" ry="33.28" fill="#f0ad3d" fill-opacity="0.95" /><ellipse cx="23.53" cy="23.53" rx="21.39" ry="33.28" fill="#f0ad3d" fill-opacity="0.95" /><ellipse cx="0.00" cy="33.28" rx="21.39" ry="33.28" fill="#f0ad3d" fill-opacity="0.95" /><ellipse cx="-23.53" cy="23.53" rx="21.39" ry="33.28" fill="#f0ad3d" fill-opacity="0.95" /><ellipse cx="-33.28" cy="0.00" rx="21.39" ry="33.28" fill="#f0ad3d" fill-opacity="0.95" /><ellipse cx="-23.53" cy="-23.53" rx="21.39" ry="33.28" fill="#f0ad3d" fill-opacity="0.95" /><ellipse cx="-0.00" cy="-33.28" rx="21.39" ry="33.28" fill="#f0ad3d" fill-opacity="0.95" /><ellipse cx="23.53" cy="-23.53" rx="21.39" ry="33.28" fill="#f0ad3d" fill-opacity="0.95" />
        <circle cx="0" cy="0" r="21.39" fill="#9f2d27" />
        <circle cx="0" cy="0" r="10.70" fill="#fff7f0" fill-opacity="0.72" />
      </g>
    </g>
    
    <g transform="translate(442.11 524.44) rotate(-11.31)">
      <path d="M 0 0 C -8 110.45, 10 184.08, -6 269.98" stroke="#87a276" stroke-width="14.73" fill="none" stroke-linecap="round" />
      <ellipse cx="-20" cy="134.99" rx="27.00" ry="51.54" fill="#87a276" fill-opacity="0.75" transform="rotate(-24)" />
      <ellipse cx="28" cy="166.90" rx="24.54" ry="46.63" fill="#87a276" fill-opacity="0.66" transform="rotate(20)" />
      <g transform="translate(0 0)">
        <ellipse cx="34.36" cy="0.00" rx="22.09" ry="34.36" fill="#efc46f" fill-opacity="0.95" /><ellipse cx="24.30" cy="24.30" rx="22.09" ry="34.36" fill="#efc46f" fill-opacity="0.95" /><ellipse cx="0.00" cy="34.36" rx="22.09" ry="34.36" fill="#efc46f" fill-opacity="0.95" /><ellipse cx="-24.30" cy="24.30" rx="22.09" ry="34.36" fill="#efc46f" fill-opacity="0.95" /><ellipse cx="-34.36" cy="0.00" rx="22.09" ry="34.36" fill="#efc46f" fill-opacity="0.95" /><ellipse cx="-24.30" cy="-24.30" rx="22.09" ry="34.36" fill="#efc46f" fill-opacity="0.95" /><ellipse cx="-0.00" cy="-34.36" rx="22.09" ry="34.36" fill="#efc46f" fill-opacity="0.95" /><ellipse cx="24.30" cy="-24.30" rx="22.09" ry="34.36" fill="#efc46f" fill-opacity="0.95" />
        <circle cx="0" cy="0" r="22.09" fill="#9f2d27" />
        <circle cx="0" cy="0" r="11.04" fill="#fff7f0" fill-opacity="0.72" />
      </g>
    </g>
    
    <g transform="translate(261.00 493.68) rotate(-8.23)">
      <path d="M 0 0 C -8 87.36, 10 145.59, -6 213.54" stroke="#5f8458" stroke-width="11.65" fill="none" stroke-linecap="round" />
      <ellipse cx="-20" cy="106.77" rx="21.35" ry="40.77" fill="#5f8458" fill-opacity="0.75" transform="rotate(-24)" />
      <ellipse cx="28" cy="132.00" rx="19.41" ry="36.88" fill="#5f8458" fill-opacity="0.66" transform="rotate(20)" />
      <g transform="translate(0 0)">
        <ellipse cx="27.18" cy="0.00" rx="17.47" ry="27.18" fill="#f4d7ab" fill-opacity="0.95" /><ellipse cx="19.22" cy="19.22" rx="17.47" ry="27.18" fill="#f4d7ab" fill-opacity="0.95" /><ellipse cx="0.00" cy="27.18" rx="17.47" ry="27.18" fill="#f4d7ab" fill-opacity="0.95" /><ellipse cx="-19.22" cy="19.22" rx="17.47" ry="27.18" fill="#f4d7ab" fill-opacity="0.95" /><ellipse cx="-27.18" cy="0.00" rx="17.47" ry="27.18" fill="#f4d7ab" fill-opacity="0.95" /><ellipse cx="-19.22" cy="-19.22" rx="17.47" ry="27.18" fill="#f4d7ab" fill-opacity="0.95" /><ellipse cx="-0.00" cy="-27.18" rx="17.47" ry="27.18" fill="#f4d7ab" fill-opacity="0.95" /><ellipse cx="19.22" cy="-19.22" rx="17.47" ry="27.18" fill="#f4d7ab" fill-opacity="0.95" />
        <circle cx="0" cy="0" r="17.47" fill="#9f2d27" />
        <circle cx="0" cy="0" r="8.74" fill="#fff7f0" fill-opacity="0.72" />
      </g>
    </g>
    
    <g transform="translate(251.13 507.60) rotate(8.72)">
      <path d="M 0 0 C -8 99.61, 10 166.02, -6 243.50" stroke="#476b43" stroke-width="13.28" fill="none" stroke-linecap="round" />
      <ellipse cx="-20" cy="121.75" rx="24.35" ry="46.49" fill="#476b43" fill-opacity="0.75" transform="rotate(-24)" />
      <ellipse cx="28" cy="150.53" rx="22.14" ry="42.06" fill="#476b43" fill-opacity="0.66" transform="rotate(20)" />
      <g transform="translate(0 0)">
        <ellipse cx="30.99" cy="0.00" rx="19.92" ry="30.99" fill="#c74038" fill-opacity="0.95" /><ellipse cx="21.91" cy="21.91" rx="19.92" ry="30.99" fill="#c74038" fill-opacity="0.95" /><ellipse cx="0.00" cy="30.99" rx="19.92" ry="30.99" fill="#c74038" fill-opacity="0.95" /><ellipse cx="-21.91" cy="21.91" rx="19.92" ry="30.99" fill="#c74038" fill-opacity="0.95" /><ellipse cx="-30.99" cy="0.00" rx="19.92" ry="30.99" fill="#c74038" fill-opacity="0.95" /><ellipse cx="-21.91" cy="-21.91" rx="19.92" ry="30.99" fill="#c74038" fill-opacity="0.95" /><ellipse cx="-0.00" cy="-30.99" rx="19.92" ry="30.99" fill="#c74038" fill-opacity="0.95" /><ellipse cx="21.91" cy="-21.91" rx="19.92" ry="30.99" fill="#c74038" fill-opacity="0.95" />
        <circle cx="0" cy="0" r="19.92" fill="#9f2d27" />
        <circle cx="0" cy="0" r="9.96" fill="#fff7f0" fill-opacity="0.72" />
      </g>
    </g>
    
    <g transform="translate(422.12 393.92) rotate(19.12)">
      <path d="M 0 0 C -8 70.89, 10 118.14, -6 173.28" stroke="#87a276" stroke-width="9.45" fill="none" stroke-linecap="round" />
      <ellipse cx="-20" cy="86.64" rx="17.33" ry="33.08" fill="#87a276" fill-opacity="0.75" transform="rotate(-24)" />
      <ellipse cx="28" cy="107.12" rx="15.75" ry="29.93" fill="#87a276" fill-opacity="0.66" transform="rotate(20)" />
      <g transform="translate(0 0)">
        <ellipse cx="22.05" cy="0.00" rx="14.18" ry="22.05" fill="#f0ad3d" fill-opacity="0.95" /><ellipse cx="15.59" cy="15.59" rx="14.18" ry="22.05" fill="#f0ad3d" fill-opacity="0.95" /><ellipse cx="0.00" cy="22.05" rx="14.18" ry="22.05" fill="#f0ad3d" fill-opacity="0.95" /><ellipse cx="-15.59" cy="15.59" rx="14.18" ry="22.05" fill="#f0ad3d" fill-opacity="0.95" /><ellipse cx="-22.05" cy="0.00" rx="14.18" ry="22.05" fill="#f0ad3d" fill-opacity="0.95" /><ellipse cx="-15.59" cy="-15.59" rx="14.18" ry="22.05" fill="#f0ad3d" fill-opacity="0.95" /><ellipse cx="-0.00" cy="-22.05" rx="14.18" ry="22.05" fill="#f0ad3d" fill-opacity="0.95" /><ellipse cx="15.59" cy="-15.59" rx="14.18" ry="22.05" fill="#f0ad3d" fill-opacity="0.95" />
        <circle cx="0" cy="0" r="14.18" fill="#9f2d27" />
        <circle cx="0" cy="0" r="7.09" fill="#fff7f0" fill-opacity="0.72" />
      </g>
    </g>
    
  </g>
  <path d="M0 980 C220 920, 420 1030, 900 930 L900 1100 L0 1100 Z" fill="#ffffff" fill-opacity="0.22" />
</svg>
