<svg xmlns="http://www.w3.org/2000/svg" width="900" height="1100" viewBox="0 0 900 1100">
  <defs>
    <linearGradient id="bg" x1="0" y1="0" x2="0" y2="1">
      <stop offset="0%" stop-color="#fff5ef" />
      <stop offset="100%" stop-color="#f3eadb" />
    </linearGradient>
    <filter id="shadow" x="-20%" y="-20%" width="140%" height="140%">
      <feDropShadow dx="0" dy="22" stdDeviation="24" flood-color="#6c5d4f" flood-opacity="0.12" />
    </filter>
  </defs>
  <rect width="100%" height="100%" fill="url(#bg)" />
  <circle cx="730" cy="180" r="140" fill="#ffffff" fill-opacity="0.18" />
  <circle cx="150" cy="260" r="90" fill="#ffffff" fill-opacity="0.12" />
  
      <rect x="70" y="72" width="300" height="92" rx="24" fill="#ffffff" fill-opacity="0.34" />
      <text x="98" y="120" fill="#2f3a31" font-size="32" font-family="'PingFang SC','Microsoft YaHei',sans-serif" font-weight="600">喜门长青</text>
      <text x="98" y="152" fill="#4e6152" font-size="18" font-family="'PingFang SC','Microsoft YaHei',sans-serif">展厅 · 商务花礼</text>
    
  <g filter="url(#shadow)">
    <path d="M180 770 L720 770 L780 1080 L120 1080 Z" fill="#efe3c5" fill-opacity="0.9" />
  </g>
  <g>
    
    <g transform="translate(336.31 347.87) rotate(1.42)">
      <path d="M 0 0 C -8 108.47, 10 180.79, -6 265.16" stroke="#5f8458" stroke-width="14.46" fill="none" stroke-linecap="round" />
      <ellipse cx="-20" cy="132.58" rx="26.52" ry="50.62" fill="#5f8458" fill-opacity="0.75" transform="rotate(-24)" />
      <ellipse cx="28" cy="163.91" rx="24.11" ry="45.80" fill="#5f8458" fill-opacity="0.66" transform="rotate(20)" />
      <g transform="translate(0 0)">
        <ellipse cx="33.75" cy="0.00" rx="21.69" ry="33.75" fill="#c74038" fill-opacity="0.95" /><ellipse cx="23.86" cy="23.86" rx="21.69" ry="33.75" fill="#c74038" fill-opacity="0.95" /><ellipse cx="0.00" cy="33.75" rx="21.69" ry="33.75" fill="#c74038" fill-opacity="0.95" /><ellipse cx="-23.86" cy="23.86" rx="21.69" ry="33.75" fill="#c74038" fill-opacity="0.95" /><ellipse cx="-33.75" cy="0.00" rx="21.69" ry="33.75" fill="#c74038" fill-opacity="0.95" /><ellipse cx="-23.86" cy="-23.86" rx="21.69" ry="33.75" fill="#c74038" fill-opacity="0.95" /><ellipse cx="-0.00" cy="-33.75" rx="21.69" ry="33.75" fill="#c74038" fill-opacity="0.95" /><ellipse cx="23.86" cy="-23.86" rx="21.69" ry="33.75" fill="#c74038" fill-opacity="0.95" />
        <circle cx="0" cy="0" r="21.69" fill="#9f2d27" />
        <circle cx="0" cy="0" r="10.85" fill="#fff7f0" fill-opacity="0.72" />
      </g>
    </g>
    
    <g transform="translate(354.65 510.25) rotate(-23.25)">
      <path d="M 0 0 C -8 97.37, 10 162.29, -6 238.02" stroke="#476b43" stroke-width="12.98" fill="none" stroke-linecap="round" />
      <ellipse cx="-20" cy="119.01" rx="23.80" ry="45.44" fill="#476b43" fill-opacity="0.75" transform="rotate(-24)" />
      <ellipse cx="28" cy="147.14" rx="21.64" ry="41.11" fill="#476b43" fill-opacity="0.66" transform="rotate(20)" />
      <g transform="translate(0 0)">
        <ellipse cx="30.29" cy="0.00" rx="19.47" ry="30.29" fill="#f0ad3d" fill-opacity="0.95" /><ellipse cx="21.42" cy="21.42" rx="19.47" ry="30.29" fill="#f0ad3d" fill-opacity="0.95" /><ellipse cx="0.00" cy="30.29" rx="19.47" ry="30.29" fill="#f0ad3d" fill-opacity="0.95" /><ellipse cx="-21.42" cy="21.42" rx="19.47" ry="30.29" fill="#f0ad3d" fill-opacity="0.95" /><ellipse cx="-30.29" cy="0.00" rx="19.47" ry="30.29" fill="#f0ad3d" fill-opacity="0.95" /><ellipse cx="-21.42" cy="-21.42" rx="19.47" ry="30.29" fill="#f0ad3d" fill-opacity="0.95" /><ellipse cx="-0.00" cy="-30.29" rx="19.47" ry="30.29" fill="#f0ad3d" fill-opacity="0.95" /><ellipse cx="21.42" cy="-21.42" rx="19.47" ry="30.29" fill="#f0ad3d" fill-opacity="0.95" />
        <circle cx="0" cy="0" r="19.47" fill="#9f2d27" />
        <circle cx="0" cy="0" r="9.74" fill="#fff7f0" fill-opacity="0.72" />
      </g>
    </g>
    
    <g transform="translate(470.33 375.67) rotate(-5.09)">
      <path d="M 0 0 C -8 77.65, 10 129.42, -6 189.82" stroke="#87a276" stroke-width="10.35" fill="none" stroke-linecap="round" />
      <ellipse cx="-20" cy="94.91" rx="18.98" ry="36.24" fill="#87a276" fill-opacity="0.75" transform="rotate(-24)" />
      <ellipse cx="28" cy="117.35" rx="17.26" ry="32.79" fill="#87a276" fill-opacity="0.66" transform="rotate(20)" />
      <g transform="translate(0 0)">
        <ellipse cx="24.16" cy="0.00" rx="15.53" ry="24.16" fill="#efc46f" fill-opacity="0.95" /><ellipse cx="17.08" cy="17.08" rx="15.53" ry="24.16" fill="#efc46f" fill-opacity="0.95" /><ellipse cx="0.00" cy="24.16" rx="15.53" ry="24.16" fill="#efc46f" fill-opacity="0.95" /><ellipse cx="-17.08" cy="17.08" rx="15.53" ry="24.16" fill="#efc46f" fill-opacity="0.95" /><ellipse cx="-24.16" cy="0.00" rx="15.53" ry="24.16" fill="#efc46f" fill-opacity="0.95" /><ellipse cx="-17.08" cy="-17.08" rx="15.53" ry="24.16" fill="#efc46f" fill-opacity="0.95" /><ellipse cx="-0.00" cy="-24.16" rx="15.53" ry="24.16" fill="#efc46f" fill-opacity="0.95" /><ellipse cx="17.08" cy="-17.08" rx="15.53" ry="24.16" fill="#efc46f" fill-opacity="0.95" />
        <circle cx="0" cy="0" r="15.53" fill="#9f2d27" />
        <circle cx="0" cy="0" r="7.77" fill="#fff7f0" fill-opacity="0.72" />
      </g>
    </g>
    
    <g transform="translate(218.57 366.33) rotate(-7.64)">
      <path d="M 0 0 C -8 96.63, 10 161.05, -6 236.21" stroke="#5f8458" stroke-width="12.88" fill="none" stroke-linecap="round" />
      <ellipse cx="-20" cy="118.11" rx="23.62" ry="45.10" fill="#5f8458" fill-opacity="0.75" transform="rotate(-24)" />
      <ellipse cx="28" cy="146.02" rx="21.47" ry="40.80" fill="#5f8458" fill-opacity="0.66" transform="rotate(20)" />
      <g transform="translate(0 0)">
        <ellipse cx="30.06" cy="0.00" rx="19.33" ry="30.06" fill="#f4d7ab" fill-opacity="0.95" /><ellipse cx="21.26" cy="21.26" rx="19.33" ry="30.06" fill="#f4d7ab" fill-opacity="0.95" /><ellipse cx="0.00" cy="30.06" rx="19.33" ry="30.06" fill="#f4d7ab" fill-opacity="0.95" /><ellipse cx="-21.26" cy="21.26" rx="19.33" ry="30.06" fill="#f4d7ab" fill-opacity="0.95" /><ellipse cx="-30.06" cy="0.00" rx="19.33" ry="30.06" fill="#f4d7ab" fill-opacity="0.95" /><ellipse cx="-21.26" cy="-21.26" rx="19.33" ry="30.06" fill="#f4d7ab" fill-opacity="0.95" /><ellipse cx="-0.00" cy="-30.06" rx="19.33" ry="30.06" fill="#f4d7ab" fill-opacity="0.95" /><ellipse cx="21.26" cy="-21.26" rx="19.33" ry="30.06" fill="#f4d7ab" fill-opacity="0.95" />
        <circle cx="0" cy="0" r="19.33" fill="#9f2d27" />
        <circle cx="0" cy="0" r="9.66" fill="#fff7f0" fill-opacity="0.72" />
      </g>
    </g>
    
    <g transform="translate(431.82 479.35) rotate(12.69)">
      <path d="M 0 0 C -8 106.92, 10 178.20, -6 261.35" stroke="#476b43" stroke-width="14.26" fill="none" stroke-linecap="round" />
      <ellipse cx="-20" cy="130.68" rx="26.14" ry="49.89" fill="#476b43" fill-opacity="0.75" transform="rotate(-24)" />
      <ellipse cx="28" cy="161.56" rx="23.76" ry="45.14" fill="#476b43" fill-opacity="0.66" transform="rotate(20)" />
      <g transform="translate(0 0)">
        <ellipse cx="33.26" cy="0.00" rx="21.38" ry="33.26" fill="#c74038" fill-opacity="0.95" /><ellipse cx="23.52" cy="23.52" rx="21.38" ry="33.26" fill="#c74038" fill-opacity="0.95" /><ellipse cx="0.00" cy="33.26" rx="21.38" ry="33.26" fill="#c74038" fill-opacity="0.95" /><ellipse cx="-23.52" cy="23.52" rx="21.38" ry="33.26" fill="#c74038" fill-opacity="0.95" /><ellipse cx="-33.26" cy="0.00" rx="21.38" ry="33.26" fill="#c74038" fill-opacity="0.95" /><ellipse cx="-23.52" cy="-23.52" rx="21.38" ry="33.26" fill="#c74038" fill-opacity="0.95" /><ellipse cx="-0.00" cy="-33.26" rx="21.38" ry="33.26" fill="#c74038" fill-opacity="0.95" /><ellipse cx="23.52" cy="-23.52" rx="21.38" ry="33.26" fill="#c74038" fill-opacity="0.95" />
        <circle cx="0" cy="0" r="21.38" fill="#9f2d27" />
        <circle cx="0" cy="0" r="10.69" fill="#fff7f0" fill-opacity="0.72" />
      </g>
    </g>
    
    <g transform="translate(603.25 435.59) rotate(-17.86)">
      <path d="M 0 0 C -8 110.21, 10 183.68, -6 269.40" stroke="#87a276" stroke-width="14.69" fill="none" stroke-linecap="round" />
      <ellipse cx="-20" cy="134.70" rx="26.94" ry="51.43" fill="#87a276" fill-opacity="0.75" transform="rotate(-24)" />
      <ellipse cx="28" cy="166.54" rx="24.49" ry="46.53" fill="#87a276" fill-opacity="0.66" transform="rotate(20)" />
      <g transform="translate(0 0)">
        <ellipse cx="34.29" cy="0.00" rx="22.04" ry="34.29" fill="#f0ad3d" fill-opacity="0.95" /><ellipse cx="24.24" cy="24.24" rx="22.04" ry="34.29" fill="#f0ad3d" fill-opacity="0.95" /><ellipse cx="0.00" cy="34.29" rx="22.04" ry="34.29" fill="#f0ad3d" fill-opacity="0.95" /><ellipse cx="-24.24" cy="24.24" rx="22.04" ry="34.29" fill="#f0ad3d" fill-opacity="0.95" /><ellipse cx="-34.29" cy="0.00" rx="22.04" ry="34.29" fill="#f0ad3d" fill-opacity="0.95" /><ellipse cx="-24.24" cy="-24.24" rx="22.04" ry="34.29" fill="#f0ad3d" fill-opacity="0.95" /><ellipse cx="-0.00" cy="-34.29" rx="22.04" ry="34.29" fill="#f0ad3d" fill-opacity="0.95" /><ellipse cx="24.24" cy="-24.24" rx="22.04" ry="34.29" fill="#f0ad3d" fill-opacity="0.95" />
        <circle cx="0" cy="0" r="22.04" fill="#9f2d27" />
        <circle cx="0" cy="0" r="11.02" fill="#fff7f0" fill-opacity="0.72" />
      </g>
    </g>
    
  </g>
  <path d="M0 980 C220 920, 420 1030, 900 930 L900 1100 L0 1100 Z" fill="#ffffff" fill-opacity="0.22" />
</svg>
