<svg xmlns="http://www.w3.org/2000/svg" width="900" height="1100" viewBox="0 0 900 1100">
  <defs>
    <linearGradient id="bg" x1="0" y1="0" x2="0" y2="1">
      <stop offset="0%" stop-color="#fff5ef" />
      <stop offset="100%" stop-color="#f3eadb" />
    </linearGradient>
    <filter id="shadow" x="-20%" y="-20%" width="140%" height="140%">
      <feDropShadow dx="0" dy="22" stdDeviation="24" flood-color="#6c5d4f" flood-opacity="0.12" />
    </filter>
  </defs>
  <rect width="100%" height="100%" fill="url(#bg)" />
  <circle cx="730" cy="180" r="140" fill="#ffffff" fill-opacity="0.18" />
  <circle cx="150" cy="260" r="90" fill="#ffffff" fill-opacity="0.12" />
  
      <rect x="70" y="72" width="300" height="92" rx="24" fill="#ffffff" fill-opacity="0.34" />
      <text x="98" y="120" fill="#2f3a31" font-size="32" font-family="'PingFang SC','Microsoft YaHei',sans-serif" font-weight="600">喜门长青</text>
      <text x="98" y="152" fill="#4e6152" font-size="18" font-family="'PingFang SC','Microsoft YaHei',sans-serif">展厅 · 商务花礼</text>
    
  <g filter="url(#shadow)">
    <path d="M180 770 L720 770 L780 1080 L120 1080 Z" fill="#efe3c5" fill-opacity="0.9" />
  </g>
  <g>
    
    <g transform="translate(664.13 367.72) rotate(-15.53)">
      <path d="M 0 0 C -8 100.52, 10 167.53, -6 245.72" stroke="#5f8458" stroke-width="13.40" fill="none" stroke-linecap="round" />
      <ellipse cx="-20" cy="122.86" rx="24.57" ry="46.91" fill="#5f8458" fill-opacity="0.75" transform="rotate(-24)" />
      <ellipse cx="28" cy="151.90" rx="22.34" ry="42.44" fill="#5f8458" fill-opacity="0.66" transform="rotate(20)" />
      <g transform="translate(0 0)">
        <ellipse cx="31.27" cy="0.00" rx="20.10" ry="31.27" fill="#c74038" fill-opacity="0.95" /><ellipse cx="22.11" cy="22.11" rx="20.10" ry="31.27" fill="#c74038" fill-opacity="0.95" /><ellipse cx="0.00" cy="31.27" rx="20.10" ry="31.27" fill="#c74038" fill-opacity="0.95" /><ellipse cx="-22.11" cy="22.11" rx="20.10" ry="31.27" fill="#c74038" fill-opacity="0.95" /><ellipse cx="-31.27" cy="0.00" rx="20.10" ry="31.27" fill="#c74038" fill-opacity="0.95" /><ellipse cx="-22.11" cy="-22.11" rx="20.10" ry="31.27" fill="#c74038" fill-opacity="0.95" /><ellipse cx="-0.00" cy="-31.27" rx="20.10" ry="31.27" fill="#c74038" fill-opacity="0.95" /><ellipse cx="22.11" cy="-22.11" rx="20.10" ry="31.27" fill="#c74038" fill-opacity="0.95" />
        <circle cx="0" cy="0" r="20.10" fill="#9f2d27" />
        <circle cx="0" cy="0" r="10.05" fill="#fff7f0" fill-opacity="0.72" />
      </g>
    </g>
    
    <g transform="translate(526.53 487.18) rotate(2.37)">
      <path d="M 0 0 C -8 106.34, 10 177.23, -6 259.93" stroke="#476b43" stroke-width="14.18" fill="none" stroke-linecap="round" />
      <ellipse cx="-20" cy="129.97" rx="25.99" ry="49.62" fill="#476b43" fill-opacity="0.75" transform="rotate(-24)" />
      <ellipse cx="28" cy="160.68" rx="23.63" ry="44.90" fill="#476b43" fill-opacity="0.66" transform="rotate(20)" />
      <g transform="translate(0 0)">
        <ellipse cx="33.08" cy="0.00" rx="21.27" ry="33.08" fill="#f0ad3d" fill-opacity="0.95" /><ellipse cx="23.39" cy="23.39" rx="21.27" ry="33.08" fill="#f0ad3d" fill-opacity="0.95" /><ellipse cx="0.00" cy="33.08" rx="21.27" ry="33.08" fill="#f0ad3d" fill-opacity="0.95" /><ellipse cx="-23.39" cy="23.39" rx="21.27" ry="33.08" fill="#f0ad3d" fill-opacity="0.95" /><ellipse cx="-33.08" cy="0.00" rx="21.27" ry="33.08" fill="#f0ad3d" fill-opacity="0.95" /><ellipse cx="-23.39" cy="-23.39" rx="21.27" ry="33.08" fill="#f0ad3d" fill-opacity="0.95" /><ellipse cx="-0.00" cy="-33.08" rx="21.27" ry="33.08" fill="#f0ad3d" fill-opacity="0.95" /><ellipse cx="23.39" cy="-23.39" rx="21.27" ry="33.08" fill="#f0ad3d" fill-opacity="0.95" />
        <circle cx="0" cy="0" r="21.27" fill="#9f2d27" />
        <circle cx="0" cy="0" r="10.63" fill="#fff7f0" fill-opacity="0.72" />
      </g>
    </g>
    
    <g transform="translate(518.46 515.36) rotate(19.42)">
      <path d="M 0 0 C -8 97.62, 10 162.70, -6 238.62" stroke="#87a276" stroke-width="13.02" fill="none" stroke-linecap="round" />
      <ellipse cx="-20" cy="119.31" rx="23.86" ry="45.56" fill="#87a276" fill-opacity="0.75" transform="rotate(-24)" />
      <ellipse cx="28" cy="147.51" rx="21.69" ry="41.22" fill="#87a276" fill-opacity="0.66" transform="rotate(20)" />
      <g transform="translate(0 0)">
        <ellipse cx="30.37" cy="0.00" rx="19.52" ry="30.37" fill="#efc46f" fill-opacity="0.95" /><ellipse cx="21.48" cy="21.48" rx="19.52" ry="30.37" fill="#efc46f" fill-opacity="0.95" /><ellipse cx="0.00" cy="30.37" rx="19.52" ry="30.37" fill="#efc46f" fill-opacity="0.95" /><ellipse cx="-21.48" cy="21.48" rx="19.52" ry="30.37" fill="#efc46f" fill-opacity="0.95" /><ellipse cx="-30.37" cy="0.00" rx="19.52" ry="30.37" fill="#efc46f" fill-opacity="0.95" /><ellipse cx="-21.48" cy="-21.48" rx="19.52" ry="30.37" fill="#efc46f" fill-opacity="0.95" /><ellipse cx="-0.00" cy="-30.37" rx="19.52" ry="30.37" fill="#efc46f" fill-opacity="0.95" /><ellipse cx="21.48" cy="-21.48" rx="19.52" ry="30.37" fill="#efc46f" fill-opacity="0.95" />
        <circle cx="0" cy="0" r="19.52" fill="#9f2d27" />
        <circle cx="0" cy="0" r="9.76" fill="#fff7f0" fill-opacity="0.72" />
      </g>
    </g>
    
    <g transform="translate(345.87 475.61) rotate(-17.74)">
      <path d="M 0 0 C -8 111.20, 10 185.34, -6 271.83" stroke="#5f8458" stroke-width="14.83" fill="none" stroke-linecap="round" />
      <ellipse cx="-20" cy="135.92" rx="27.18" ry="51.90" fill="#5f8458" fill-opacity="0.75" transform="rotate(-24)" />
      <ellipse cx="28" cy="168.04" rx="24.71" ry="46.95" fill="#5f8458" fill-opacity="0.66" transform="rotate(20)" />
      <g transform="translate(0 0)">
        <ellipse cx="34.60" cy="0.00" rx="22.24" ry="34.60" fill="#f4d7ab" fill-opacity="0.95" /><ellipse cx="24.46" cy="24.46" rx="22.24" ry="34.60" fill="#f4d7ab" fill-opacity="0.95" /><ellipse cx="0.00" cy="34.60" rx="22.24" ry="34.60" fill="#f4d7ab" fill-opacity="0.95" /><ellipse cx="-24.46" cy="24.46" rx="22.24" ry="34.60" fill="#f4d7ab" fill-opacity="0.95" /><ellipse cx="-34.60" cy="0.00" rx="22.24" ry="34.60" fill="#f4d7ab" fill-opacity="0.95" /><ellipse cx="-24.46" cy="-24.46" rx="22.24" ry="34.60" fill="#f4d7ab" fill-opacity="0.95" /><ellipse cx="-0.00" cy="-34.60" rx="22.24" ry="34.60" fill="#f4d7ab" fill-opacity="0.95" /><ellipse cx="24.46" cy="-24.46" rx="22.24" ry="34.60" fill="#f4d7ab" fill-opacity="0.95" />
        <circle cx="0" cy="0" r="22.24" fill="#9f2d27" />
        <circle cx="0" cy="0" r="11.12" fill="#fff7f0" fill-opacity="0.72" />
      </g>
    </g>
    
    <g transform="translate(562.76 541.62) rotate(-8.71)">
      <path d="M 0 0 C -8 81.22, 10 135.36, -6 198.53" stroke="#476b43" stroke-width="10.83" fill="none" stroke-linecap="round" />
      <ellipse cx="-20" cy="99.26" rx="19.85" ry="37.90" fill="#476b43" fill-opacity="0.75" transform="rotate(-24)" />
      <ellipse cx="28" cy="122.72" rx="18.05" ry="34.29" fill="#476b43" fill-opacity="0.66" transform="rotate(20)" />
      <g transform="translate(0 0)">
        <ellipse cx="25.27" cy="0.00" rx="16.24" ry="25.27" fill="#c74038" fill-opacity="0.95" /><ellipse cx="17.87" cy="17.87" rx="16.24" ry="25.27" fill="#c74038" fill-opacity="0.95" /><ellipse cx="0.00" cy="25.27" rx="16.24" ry="25.27" fill="#c74038" fill-opacity="0.95" /><ellipse cx="-17.87" cy="17.87" rx="16.24" ry="25.27" fill="#c74038" fill-opacity="0.95" /><ellipse cx="-25.27" cy="0.00" rx="16.24" ry="25.27" fill="#c74038" fill-opacity="0.95" /><ellipse cx="-17.87" cy="-17.87" rx="16.24" ry="25.27" fill="#c74038" fill-opacity="0.95" /><ellipse cx="-0.00" cy="-25.27" rx="16.24" ry="25.27" fill="#c74038" fill-opacity="0.95" /><ellipse cx="17.87" cy="-17.87" rx="16.24" ry="25.27" fill="#c74038" fill-opacity="0.95" />
        <circle cx="0" cy="0" r="16.24" fill="#9f2d27" />
        <circle cx="0" cy="0" r="8.12" fill="#fff7f0" fill-opacity="0.72" />
      </g>
    </g>
    
    <g transform="translate(360.07 313.79) rotate(-22.62)">
      <path d="M 0 0 C -8 92.85, 10 154.74, -6 226.96" stroke="#87a276" stroke-width="12.38" fill="none" stroke-linecap="round" />
      <ellipse cx="-20" cy="113.48" rx="22.70" ry="43.33" fill="#87a276" fill-opacity="0.75" transform="rotate(-24)" />
      <ellipse cx="28" cy="140.30" rx="20.63" ry="39.20" fill="#87a276" fill-opacity="0.66" transform="rotate(20)" />
      <g transform="translate(0 0)">
        <ellipse cx="28.89" cy="0.00" rx="18.57" ry="28.89" fill="#f0ad3d" fill-opacity="0.95" /><ellipse cx="20.43" cy="20.43" rx="18.57" ry="28.89" fill="#f0ad3d" fill-opacity="0.95" /><ellipse cx="0.00" cy="28.89" rx="18.57" ry="28.89" fill="#f0ad3d" fill-opacity="0.95" /><ellipse cx="-20.43" cy="20.43" rx="18.57" ry="28.89" fill="#f0ad3d" fill-opacity="0.95" /><ellipse cx="-28.89" cy="0.00" rx="18.57" ry="28.89" fill="#f0ad3d" fill-opacity="0.95" /><ellipse cx="-20.43" cy="-20.43" rx="18.57" ry="28.89" fill="#f0ad3d" fill-opacity="0.95" /><ellipse cx="-0.00" cy="-28.89" rx="18.57" ry="28.89" fill="#f0ad3d" fill-opacity="0.95" /><ellipse cx="20.43" cy="-20.43" rx="18.57" ry="28.89" fill="#f0ad3d" fill-opacity="0.95" />
        <circle cx="0" cy="0" r="18.57" fill="#9f2d27" />
        <circle cx="0" cy="0" r="9.28" fill="#fff7f0" fill-opacity="0.72" />
      </g>
    </g>
    
    <g transform="translate(213.58 417.36) rotate(1.42)">
      <path d="M 0 0 C -8 85.84, 10 143.06, -6 209.82" stroke="#5f8458" stroke-width="11.44" fill="none" stroke-linecap="round" />
      <ellipse cx="-20" cy="104.91" rx="20.98" ry="40.06" fill="#5f8458" fill-opacity="0.75" transform="rotate(-24)" />
      <ellipse cx="28" cy="129.71" rx="19.07" ry="36.24" fill="#5f8458" fill-opacity="0.66" transform="rotate(20)" />
      <g transform="translate(0 0)">
        <ellipse cx="26.70" cy="0.00" rx="17.17" ry="26.70" fill="#efc46f" fill-opacity="0.95" /><ellipse cx="18.88" cy="18.88" rx="17.17" ry="26.70" fill="#efc46f" fill-opacity="0.95" /><ellipse cx="0.00" cy="26.70" rx="17.17" ry="26.70" fill="#efc46f" fill-opacity="0.95" /><ellipse cx="-18.88" cy="18.88" rx="17.17" ry="26.70" fill="#efc46f" fill-opacity="0.95" /><ellipse cx="-26.70" cy="0.00" rx="17.17" ry="26.70" fill="#efc46f" fill-opacity="0.95" /><ellipse cx="-18.88" cy="-18.88" rx="17.17" ry="26.70" fill="#efc46f" fill-opacity="0.95" /><ellipse cx="-0.00" cy="-26.70" rx="17.17" ry="26.70" fill="#efc46f" fill-opacity="0.95" /><ellipse cx="18.88" cy="-18.88" rx="17.17" ry="26.70" fill="#efc46f" fill-opacity="0.95" />
        <circle cx="0" cy="0" r="17.17" fill="#9f2d27" />
        <circle cx="0" cy="0" r="8.58" fill="#fff7f0" fill-opacity="0.72" />
      </g>
    </g>
    
  </g>
  <path d="M0 980 C220 920, 420 1030, 900 930 L900 1100 L0 1100 Z" fill="#ffffff" fill-opacity="0.22" />
</svg>
