<svg xmlns="http://www.w3.org/2000/svg" width="900" height="1100" viewBox="0 0 900 1100">
  <defs>
    <linearGradient id="bg" x1="0" y1="0" x2="0" y2="1">
      <stop offset="0%" stop-color="#fff5ef" />
      <stop offset="100%" stop-color="#f3eadb" />
    </linearGradient>
    <filter id="shadow" x="-20%" y="-20%" width="140%" height="140%">
      <feDropShadow dx="0" dy="22" stdDeviation="24" flood-color="#6c5d4f" flood-opacity="0.12" />
    </filter>
  </defs>
  <rect width="100%" height="100%" fill="url(#bg)" />
  <circle cx="730" cy="180" r="140" fill="#ffffff" fill-opacity="0.18" />
  <circle cx="150" cy="260" r="90" fill="#ffffff" fill-opacity="0.12" />
  
      <rect x="70" y="72" width="300" height="92" rx="24" fill="#ffffff" fill-opacity="0.34" />
      <text x="98" y="120" fill="#2f3a31" font-size="32" font-family="'PingFang SC','Microsoft YaHei',sans-serif" font-weight="600">开张盛景</text>
      <text x="98" y="152" fill="#4e6152" font-size="18" font-family="'PingFang SC','Microsoft YaHei',sans-serif">开业 · 商务</text>
    
  <g filter="url(#shadow)">
    <path d="M180 770 L720 770 L780 1080 L120 1080 Z" fill="#efe3c5" fill-opacity="0.9" />
  </g>
  <g>
    
    <g transform="translate(690.77 533.02) rotate(12.35)">
      <path d="M 0 0 C -8 96.18, 10 160.31, -6 235.12" stroke="#5f8458" stroke-width="12.82" fill="none" stroke-linecap="round" />
      <ellipse cx="-20" cy="117.56" rx="23.51" ry="44.89" fill="#5f8458" fill-opacity="0.75" transform="rotate(-24)" />
      <ellipse cx="28" cy="145.34" rx="21.37" ry="40.61" fill="#5f8458" fill-opacity="0.66" transform="rotate(20)" />
      <g transform="translate(0 0)">
        <ellipse cx="29.92" cy="0.00" rx="19.24" ry="29.92" fill="#c74038" fill-opacity="0.95" /><ellipse cx="21.16" cy="21.16" rx="19.24" ry="29.92" fill="#c74038" fill-opacity="0.95" /><ellipse cx="0.00" cy="29.92" rx="19.24" ry="29.92" fill="#c74038" fill-opacity="0.95" /><ellipse cx="-21.16" cy="21.16" rx="19.24" ry="29.92" fill="#c74038" fill-opacity="0.95" /><ellipse cx="-29.92" cy="0.00" rx="19.24" ry="29.92" fill="#c74038" fill-opacity="0.95" /><ellipse cx="-21.16" cy="-21.16" rx="19.24" ry="29.92" fill="#c74038" fill-opacity="0.95" /><ellipse cx="-0.00" cy="-29.92" rx="19.24" ry="29.92" fill="#c74038" fill-opacity="0.95" /><ellipse cx="21.16" cy="-21.16" rx="19.24" ry="29.92" fill="#c74038" fill-opacity="0.95" />
        <circle cx="0" cy="0" r="19.24" fill="#9f2d27" />
        <circle cx="0" cy="0" r="9.62" fill="#fff7f0" fill-opacity="0.72" />
      </g>
    </g>
    
    <g transform="translate(573.21 368.62) rotate(14.27)">
      <path d="M 0 0 C -8 80.82, 10 134.71, -6 197.57" stroke="#476b43" stroke-width="10.78" fill="none" stroke-linecap="round" />
      <ellipse cx="-20" cy="98.79" rx="19.76" ry="37.72" fill="#476b43" fill-opacity="0.75" transform="rotate(-24)" />
      <ellipse cx="28" cy="122.13" rx="17.96" ry="34.13" fill="#476b43" fill-opacity="0.66" transform="rotate(20)" />
      <g transform="translate(0 0)">
        <ellipse cx="25.15" cy="0.00" rx="16.16" ry="25.15" fill="#f0ad3d" fill-opacity="0.95" /><ellipse cx="17.78" cy="17.78" rx="16.16" ry="25.15" fill="#f0ad3d" fill-opacity="0.95" /><ellipse cx="0.00" cy="25.15" rx="16.16" ry="25.15" fill="#f0ad3d" fill-opacity="0.95" /><ellipse cx="-17.78" cy="17.78" rx="16.16" ry="25.15" fill="#f0ad3d" fill-opacity="0.95" /><ellipse cx="-25.15" cy="0.00" rx="16.16" ry="25.15" fill="#f0ad3d" fill-opacity="0.95" /><ellipse cx="-17.78" cy="-17.78" rx="16.16" ry="25.15" fill="#f0ad3d" fill-opacity="0.95" /><ellipse cx="-0.00" cy="-25.15" rx="16.16" ry="25.15" fill="#f0ad3d" fill-opacity="0.95" /><ellipse cx="17.78" cy="-17.78" rx="16.16" ry="25.15" fill="#f0ad3d" fill-opacity="0.95" />
        <circle cx="0" cy="0" r="16.16" fill="#9f2d27" />
        <circle cx="0" cy="0" r="8.08" fill="#fff7f0" fill-opacity="0.72" />
      </g>
    </g>
    
    <g transform="translate(452.46 321.70) rotate(-9.24)">
      <path d="M 0 0 C -8 91.87, 10 153.12, -6 224.58" stroke="#87a276" stroke-width="12.25" fill="none" stroke-linecap="round" />
      <ellipse cx="-20" cy="112.29" rx="22.46" ry="42.87" fill="#87a276" fill-opacity="0.75" transform="rotate(-24)" />
      <ellipse cx="28" cy="138.83" rx="20.42" ry="38.79" fill="#87a276" fill-opacity="0.66" transform="rotate(20)" />
      <g transform="translate(0 0)">
        <ellipse cx="28.58" cy="0.00" rx="18.37" ry="28.58" fill="#efc46f" fill-opacity="0.95" /><ellipse cx="20.21" cy="20.21" rx="18.37" ry="28.58" fill="#efc46f" fill-opacity="0.95" /><ellipse cx="0.00" cy="28.58" rx="18.37" ry="28.58" fill="#efc46f" fill-opacity="0.95" /><ellipse cx="-20.21" cy="20.21" rx="18.37" ry="28.58" fill="#efc46f" fill-opacity="0.95" /><ellipse cx="-28.58" cy="0.00" rx="18.37" ry="28.58" fill="#efc46f" fill-opacity="0.95" /><ellipse cx="-20.21" cy="-20.21" rx="18.37" ry="28.58" fill="#efc46f" fill-opacity="0.95" /><ellipse cx="-0.00" cy="-28.58" rx="18.37" ry="28.58" fill="#efc46f" fill-opacity="0.95" /><ellipse cx="20.21" cy="-20.21" rx="18.37" ry="28.58" fill="#efc46f" fill-opacity="0.95" />
        <circle cx="0" cy="0" r="18.37" fill="#9f2d27" />
        <circle cx="0" cy="0" r="9.19" fill="#fff7f0" fill-opacity="0.72" />
      </g>
    </g>
    
    <g transform="translate(650.50 439.77) rotate(-19.16)">
      <path d="M 0 0 C -8 75.37, 10 125.62, -6 184.24" stroke="#5f8458" stroke-width="10.05" fill="none" stroke-linecap="round" />
      <ellipse cx="-20" cy="92.12" rx="18.42" ry="35.17" fill="#5f8458" fill-opacity="0.75" transform="rotate(-24)" />
      <ellipse cx="28" cy="113.89" rx="16.75" ry="31.82" fill="#5f8458" fill-opacity="0.66" transform="rotate(20)" />
      <g transform="translate(0 0)">
        <ellipse cx="23.45" cy="0.00" rx="15.07" ry="23.45" fill="#f4d7ab" fill-opacity="0.95" /><ellipse cx="16.58" cy="16.58" rx="15.07" ry="23.45" fill="#f4d7ab" fill-opacity="0.95" /><ellipse cx="0.00" cy="23.45" rx="15.07" ry="23.45" fill="#f4d7ab" fill-opacity="0.95" /><ellipse cx="-16.58" cy="16.58" rx="15.07" ry="23.45" fill="#f4d7ab" fill-opacity="0.95" /><ellipse cx="-23.45" cy="0.00" rx="15.07" ry="23.45" fill="#f4d7ab" fill-opacity="0.95" /><ellipse cx="-16.58" cy="-16.58" rx="15.07" ry="23.45" fill="#f4d7ab" fill-opacity="0.95" /><ellipse cx="-0.00" cy="-23.45" rx="15.07" ry="23.45" fill="#f4d7ab" fill-opacity="0.95" /><ellipse cx="16.58" cy="-16.58" rx="15.07" ry="23.45" fill="#f4d7ab" fill-opacity="0.95" />
        <circle cx="0" cy="0" r="15.07" fill="#9f2d27" />
        <circle cx="0" cy="0" r="7.54" fill="#fff7f0" fill-opacity="0.72" />
      </g>
    </g>
    
    <g transform="translate(587.11 405.43) rotate(-8.99)">
      <path d="M 0 0 C -8 108.51, 10 180.85, -6 265.24" stroke="#476b43" stroke-width="14.47" fill="none" stroke-linecap="round" />
      <ellipse cx="-20" cy="132.62" rx="26.52" ry="50.64" fill="#476b43" fill-opacity="0.75" transform="rotate(-24)" />
      <ellipse cx="28" cy="163.97" rx="24.11" ry="45.81" fill="#476b43" fill-opacity="0.66" transform="rotate(20)" />
      <g transform="translate(0 0)">
        <ellipse cx="33.76" cy="0.00" rx="21.70" ry="33.76" fill="#c74038" fill-opacity="0.95" /><ellipse cx="23.87" cy="23.87" rx="21.70" ry="33.76" fill="#c74038" fill-opacity="0.95" /><ellipse cx="0.00" cy="33.76" rx="21.70" ry="33.76" fill="#c74038" fill-opacity="0.95" /><ellipse cx="-23.87" cy="23.87" rx="21.70" ry="33.76" fill="#c74038" fill-opacity="0.95" /><ellipse cx="-33.76" cy="0.00" rx="21.70" ry="33.76" fill="#c74038" fill-opacity="0.95" /><ellipse cx="-23.87" cy="-23.87" rx="21.70" ry="33.76" fill="#c74038" fill-opacity="0.95" /><ellipse cx="-0.00" cy="-33.76" rx="21.70" ry="33.76" fill="#c74038" fill-opacity="0.95" /><ellipse cx="23.87" cy="-23.87" rx="21.70" ry="33.76" fill="#c74038" fill-opacity="0.95" />
        <circle cx="0" cy="0" r="21.70" fill="#9f2d27" />
        <circle cx="0" cy="0" r="10.85" fill="#fff7f0" fill-opacity="0.72" />
      </g>
    </g>
    
    <g transform="translate(257.88 512.92) rotate(-18.99)">
      <path d="M 0 0 C -8 108.15, 10 180.25, -6 264.37" stroke="#87a276" stroke-width="14.42" fill="none" stroke-linecap="round" />
      <ellipse cx="-20" cy="132.19" rx="26.44" ry="50.47" fill="#87a276" fill-opacity="0.75" transform="rotate(-24)" />
      <ellipse cx="28" cy="163.43" rx="24.03" ry="45.66" fill="#87a276" fill-opacity="0.66" transform="rotate(20)" />
      <g transform="translate(0 0)">
        <ellipse cx="33.65" cy="0.00" rx="21.63" ry="33.65" fill="#f0ad3d" fill-opacity="0.95" /><ellipse cx="23.79" cy="23.79" rx="21.63" ry="33.65" fill="#f0ad3d" fill-opacity="0.95" /><ellipse cx="0.00" cy="33.65" rx="21.63" ry="33.65" fill="#f0ad3d" fill-opacity="0.95" /><ellipse cx="-23.79" cy="23.79" rx="21.63" ry="33.65" fill="#f0ad3d" fill-opacity="0.95" /><ellipse cx="-33.65" cy="0.00" rx="21.63" ry="33.65" fill="#f0ad3d" fill-opacity="0.95" /><ellipse cx="-23.79" cy="-23.79" rx="21.63" ry="33.65" fill="#f0ad3d" fill-opacity="0.95" /><ellipse cx="-0.00" cy="-33.65" rx="21.63" ry="33.65" fill="#f0ad3d" fill-opacity="0.95" /><ellipse cx="23.79" cy="-23.79" rx="21.63" ry="33.65" fill="#f0ad3d" fill-opacity="0.95" />
        <circle cx="0" cy="0" r="21.63" fill="#9f2d27" />
        <circle cx="0" cy="0" r="10.82" fill="#fff7f0" fill-opacity="0.72" />
      </g>
    </g>
    
  </g>
  <path d="M0 980 C220 920, 420 1030, 900 930 L900 1100 L0 1100 Z" fill="#ffffff" fill-opacity="0.22" />
</svg>
