<svg xmlns="http://www.w3.org/2000/svg" width="900" height="1100" viewBox="0 0 900 1100">
  <defs>
    <linearGradient id="bg" x1="0" y1="0" x2="0" y2="1">
      <stop offset="0%" stop-color="#fff5ef" />
      <stop offset="100%" stop-color="#f3eadb" />
    </linearGradient>
    <filter id="shadow" x="-20%" y="-20%" width="140%" height="140%">
      <feDropShadow dx="0" dy="22" stdDeviation="24" flood-color="#6c5d4f" flood-opacity="0.12" />
    </filter>
  </defs>
  <rect width="100%" height="100%" fill="url(#bg)" />
  <circle cx="730" cy="180" r="140" fill="#ffffff" fill-opacity="0.18" />
  <circle cx="150" cy="260" r="90" fill="#ffffff" fill-opacity="0.12" />
  
      <rect x="70" y="72" width="300" height="92" rx="24" fill="#ffffff" fill-opacity="0.34" />
      <text x="98" y="120" fill="#2f3a31" font-size="32" font-family="'PingFang SC','Microsoft YaHei',sans-serif" font-weight="600">瑞色盈门</text>
      <text x="98" y="152" fill="#4e6152" font-size="18" font-family="'PingFang SC','Microsoft YaHei',sans-serif">开张 · 品牌活动</text>
    
  <g filter="url(#shadow)">
    <path d="M180 770 L720 770 L780 1080 L120 1080 Z" fill="#efe3c5" fill-opacity="0.9" />
  </g>
  <g>
    
    <g transform="translate(301.48 340.69) rotate(2.31)">
      <path d="M 0 0 C -8 76.08, 10 126.79, -6 185.96" stroke="#5f8458" stroke-width="10.14" fill="none" stroke-linecap="round" />
      <ellipse cx="-20" cy="92.98" rx="18.60" ry="35.50" fill="#5f8458" fill-opacity="0.75" transform="rotate(-24)" />
      <ellipse cx="28" cy="114.96" rx="16.91" ry="32.12" fill="#5f8458" fill-opacity="0.66" transform="rotate(20)" />
      <g transform="translate(0 0)">
        <ellipse cx="23.67" cy="0.00" rx="15.22" ry="23.67" fill="#c74038" fill-opacity="0.95" /><ellipse cx="16.74" cy="16.74" rx="15.22" ry="23.67" fill="#c74038" fill-opacity="0.95" /><ellipse cx="0.00" cy="23.67" rx="15.22" ry="23.67" fill="#c74038" fill-opacity="0.95" /><ellipse cx="-16.74" cy="16.74" rx="15.22" ry="23.67" fill="#c74038" fill-opacity="0.95" /><ellipse cx="-23.67" cy="0.00" rx="15.22" ry="23.67" fill="#c74038" fill-opacity="0.95" /><ellipse cx="-16.74" cy="-16.74" rx="15.22" ry="23.67" fill="#c74038" fill-opacity="0.95" /><ellipse cx="-0.00" cy="-23.67" rx="15.22" ry="23.67" fill="#c74038" fill-opacity="0.95" /><ellipse cx="16.74" cy="-16.74" rx="15.22" ry="23.67" fill="#c74038" fill-opacity="0.95" />
        <circle cx="0" cy="0" r="15.22" fill="#9f2d27" />
        <circle cx="0" cy="0" r="7.61" fill="#fff7f0" fill-opacity="0.72" />
      </g>
    </g>
    
    <g transform="translate(365.66 349.56) rotate(9.97)">
      <path d="M 0 0 C -8 93.52, 10 155.86, -6 228.59" stroke="#476b43" stroke-width="12.47" fill="none" stroke-linecap="round" />
      <ellipse cx="-20" cy="114.30" rx="22.86" ry="43.64" fill="#476b43" fill-opacity="0.75" transform="rotate(-24)" />
      <ellipse cx="28" cy="141.31" rx="20.78" ry="39.48" fill="#476b43" fill-opacity="0.66" transform="rotate(20)" />
      <g transform="translate(0 0)">
        <ellipse cx="29.09" cy="0.00" rx="18.70" ry="29.09" fill="#f0ad3d" fill-opacity="0.95" /><ellipse cx="20.57" cy="20.57" rx="18.70" ry="29.09" fill="#f0ad3d" fill-opacity="0.95" /><ellipse cx="0.00" cy="29.09" rx="18.70" ry="29.09" fill="#f0ad3d" fill-opacity="0.95" /><ellipse cx="-20.57" cy="20.57" rx="18.70" ry="29.09" fill="#f0ad3d" fill-opacity="0.95" /><ellipse cx="-29.09" cy="0.00" rx="18.70" ry="29.09" fill="#f0ad3d" fill-opacity="0.95" /><ellipse cx="-20.57" cy="-20.57" rx="18.70" ry="29.09" fill="#f0ad3d" fill-opacity="0.95" /><ellipse cx="-0.00" cy="-29.09" rx="18.70" ry="29.09" fill="#f0ad3d" fill-opacity="0.95" /><ellipse cx="20.57" cy="-20.57" rx="18.70" ry="29.09" fill="#f0ad3d" fill-opacity="0.95" />
        <circle cx="0" cy="0" r="18.70" fill="#9f2d27" />
        <circle cx="0" cy="0" r="9.35" fill="#fff7f0" fill-opacity="0.72" />
      </g>
    </g>
    
    <g transform="translate(270.48 541.37) rotate(-23.81)">
      <path d="M 0 0 C -8 78.42, 10 130.69, -6 191.68" stroke="#87a276" stroke-width="10.46" fill="none" stroke-linecap="round" />
      <ellipse cx="-20" cy="95.84" rx="19.17" ry="36.59" fill="#87a276" fill-opacity="0.75" transform="rotate(-24)" />
      <ellipse cx="28" cy="118.49" rx="17.43" ry="33.11" fill="#87a276" fill-opacity="0.66" transform="rotate(20)" />
      <g transform="translate(0 0)">
        <ellipse cx="24.40" cy="0.00" rx="15.68" ry="24.40" fill="#efc46f" fill-opacity="0.95" /><ellipse cx="17.25" cy="17.25" rx="15.68" ry="24.40" fill="#efc46f" fill-opacity="0.95" /><ellipse cx="0.00" cy="24.40" rx="15.68" ry="24.40" fill="#efc46f" fill-opacity="0.95" /><ellipse cx="-17.25" cy="17.25" rx="15.68" ry="24.40" fill="#efc46f" fill-opacity="0.95" /><ellipse cx="-24.40" cy="0.00" rx="15.68" ry="24.40" fill="#efc46f" fill-opacity="0.95" /><ellipse cx="-17.25" cy="-17.25" rx="15.68" ry="24.40" fill="#efc46f" fill-opacity="0.95" /><ellipse cx="-0.00" cy="-24.40" rx="15.68" ry="24.40" fill="#efc46f" fill-opacity="0.95" /><ellipse cx="17.25" cy="-17.25" rx="15.68" ry="24.40" fill="#efc46f" fill-opacity="0.95" />
        <circle cx="0" cy="0" r="15.68" fill="#9f2d27" />
        <circle cx="0" cy="0" r="7.84" fill="#fff7f0" fill-opacity="0.72" />
      </g>
    </g>
    
    <g transform="translate(597.33 309.21) rotate(-3.36)">
      <path d="M 0 0 C -8 86.70, 10 144.50, -6 211.93" stroke="#5f8458" stroke-width="11.56" fill="none" stroke-linecap="round" />
      <ellipse cx="-20" cy="105.96" rx="21.19" ry="40.46" fill="#5f8458" fill-opacity="0.75" transform="rotate(-24)" />
      <ellipse cx="28" cy="131.01" rx="19.27" ry="36.61" fill="#5f8458" fill-opacity="0.66" transform="rotate(20)" />
      <g transform="translate(0 0)">
        <ellipse cx="26.97" cy="0.00" rx="17.34" ry="26.97" fill="#f4d7ab" fill-opacity="0.95" /><ellipse cx="19.07" cy="19.07" rx="17.34" ry="26.97" fill="#f4d7ab" fill-opacity="0.95" /><ellipse cx="0.00" cy="26.97" rx="17.34" ry="26.97" fill="#f4d7ab" fill-opacity="0.95" /><ellipse cx="-19.07" cy="19.07" rx="17.34" ry="26.97" fill="#f4d7ab" fill-opacity="0.95" /><ellipse cx="-26.97" cy="0.00" rx="17.34" ry="26.97" fill="#f4d7ab" fill-opacity="0.95" /><ellipse cx="-19.07" cy="-19.07" rx="17.34" ry="26.97" fill="#f4d7ab" fill-opacity="0.95" /><ellipse cx="-0.00" cy="-26.97" rx="17.34" ry="26.97" fill="#f4d7ab" fill-opacity="0.95" /><ellipse cx="19.07" cy="-19.07" rx="17.34" ry="26.97" fill="#f4d7ab" fill-opacity="0.95" />
        <circle cx="0" cy="0" r="17.34" fill="#9f2d27" />
        <circle cx="0" cy="0" r="8.67" fill="#fff7f0" fill-opacity="0.72" />
      </g>
    </g>
    
    <g transform="translate(531.19 478.57) rotate(-19.18)">
      <path d="M 0 0 C -8 82.03, 10 136.71, -6 200.51" stroke="#476b43" stroke-width="10.94" fill="none" stroke-linecap="round" />
      <ellipse cx="-20" cy="100.26" rx="20.05" ry="38.28" fill="#476b43" fill-opacity="0.75" transform="rotate(-24)" />
      <ellipse cx="28" cy="123.95" rx="18.23" ry="34.63" fill="#476b43" fill-opacity="0.66" transform="rotate(20)" />
      <g transform="translate(0 0)">
        <ellipse cx="25.52" cy="0.00" rx="16.41" ry="25.52" fill="#c74038" fill-opacity="0.95" /><ellipse cx="18.05" cy="18.05" rx="16.41" ry="25.52" fill="#c74038" fill-opacity="0.95" /><ellipse cx="0.00" cy="25.52" rx="16.41" ry="25.52" fill="#c74038" fill-opacity="0.95" /><ellipse cx="-18.05" cy="18.05" rx="16.41" ry="25.52" fill="#c74038" fill-opacity="0.95" /><ellipse cx="-25.52" cy="0.00" rx="16.41" ry="25.52" fill="#c74038" fill-opacity="0.95" /><ellipse cx="-18.05" cy="-18.05" rx="16.41" ry="25.52" fill="#c74038" fill-opacity="0.95" /><ellipse cx="-0.00" cy="-25.52" rx="16.41" ry="25.52" fill="#c74038" fill-opacity="0.95" /><ellipse cx="18.05" cy="-18.05" rx="16.41" ry="25.52" fill="#c74038" fill-opacity="0.95" />
        <circle cx="0" cy="0" r="16.41" fill="#9f2d27" />
        <circle cx="0" cy="0" r="8.20" fill="#fff7f0" fill-opacity="0.72" />
      </g>
    </g>
    
    <g transform="translate(191.29 297.16) rotate(-24.62)">
      <path d="M 0 0 C -8 104.42, 10 174.03, -6 255.25" stroke="#87a276" stroke-width="13.92" fill="none" stroke-linecap="round" />
      <ellipse cx="-20" cy="127.63" rx="25.53" ry="48.73" fill="#87a276" fill-opacity="0.75" transform="rotate(-24)" />
      <ellipse cx="28" cy="157.79" rx="23.20" ry="44.09" fill="#87a276" fill-opacity="0.66" transform="rotate(20)" />
      <g transform="translate(0 0)">
        <ellipse cx="32.49" cy="0.00" rx="20.88" ry="32.49" fill="#f0ad3d" fill-opacity="0.95" /><ellipse cx="22.97" cy="22.97" rx="20.88" ry="32.49" fill="#f0ad3d" fill-opacity="0.95" /><ellipse cx="0.00" cy="32.49" rx="20.88" ry="32.49" fill="#f0ad3d" fill-opacity="0.95" /><ellipse cx="-22.97" cy="22.97" rx="20.88" ry="32.49" fill="#f0ad3d" fill-opacity="0.95" /><ellipse cx="-32.49" cy="0.00" rx="20.88" ry="32.49" fill="#f0ad3d" fill-opacity="0.95" /><ellipse cx="-22.97" cy="-22.97" rx="20.88" ry="32.49" fill="#f0ad3d" fill-opacity="0.95" /><ellipse cx="-0.00" cy="-32.49" rx="20.88" ry="32.49" fill="#f0ad3d" fill-opacity="0.95" /><ellipse cx="22.97" cy="-22.97" rx="20.88" ry="32.49" fill="#f0ad3d" fill-opacity="0.95" />
        <circle cx="0" cy="0" r="20.88" fill="#9f2d27" />
        <circle cx="0" cy="0" r="10.44" fill="#fff7f0" fill-opacity="0.72" />
      </g>
    </g>
    
  </g>
  <path d="M0 980 C220 920, 420 1030, 900 930 L900 1100 L0 1100 Z" fill="#ffffff" fill-opacity="0.22" />
</svg>
