<svg xmlns="http://www.w3.org/2000/svg" width="900" height="1100" viewBox="0 0 900 1100">
  <defs>
    <linearGradient id="bg" x1="0" y1="0" x2="0" y2="1">
      <stop offset="0%" stop-color="#fff5ef" />
      <stop offset="100%" stop-color="#f3eadb" />
    </linearGradient>
    <filter id="shadow" x="-20%" y="-20%" width="140%" height="140%">
      <feDropShadow dx="0" dy="22" stdDeviation="24" flood-color="#6c5d4f" flood-opacity="0.12" />
    </filter>
  </defs>
  <rect width="100%" height="100%" fill="url(#bg)" />
  <circle cx="730" cy="180" r="140" fill="#ffffff" fill-opacity="0.18" />
  <circle cx="150" cy="260" r="90" fill="#ffffff" fill-opacity="0.12" />
  
      <rect x="70" y="72" width="300" height="92" rx="24" fill="#ffffff" fill-opacity="0.34" />
      <text x="98" y="120" fill="#2f3a31" font-size="32" font-family="'PingFang SC','Microsoft YaHei',sans-serif" font-weight="600">开张盛景</text>
      <text x="98" y="152" fill="#4e6152" font-size="18" font-family="'PingFang SC','Microsoft YaHei',sans-serif">开业 · 商务</text>
    
  <g filter="url(#shadow)">
    <path d="M180 770 L720 770 L780 1080 L120 1080 Z" fill="#efe3c5" fill-opacity="0.9" />
  </g>
  <g>
    
    <g transform="translate(324.27 362.05) rotate(-18.61)">
      <path d="M 0 0 C -8 102.12, 10 170.21, -6 249.64" stroke="#5f8458" stroke-width="13.62" fill="none" stroke-linecap="round" />
      <ellipse cx="-20" cy="124.82" rx="24.96" ry="47.66" fill="#5f8458" fill-opacity="0.75" transform="rotate(-24)" />
      <ellipse cx="28" cy="154.32" rx="22.69" ry="43.12" fill="#5f8458" fill-opacity="0.66" transform="rotate(20)" />
      <g transform="translate(0 0)">
        <ellipse cx="31.77" cy="0.00" rx="20.42" ry="31.77" fill="#c74038" fill-opacity="0.95" /><ellipse cx="22.47" cy="22.47" rx="20.42" ry="31.77" fill="#c74038" fill-opacity="0.95" /><ellipse cx="0.00" cy="31.77" rx="20.42" ry="31.77" fill="#c74038" fill-opacity="0.95" /><ellipse cx="-22.47" cy="22.47" rx="20.42" ry="31.77" fill="#c74038" fill-opacity="0.95" /><ellipse cx="-31.77" cy="0.00" rx="20.42" ry="31.77" fill="#c74038" fill-opacity="0.95" /><ellipse cx="-22.47" cy="-22.47" rx="20.42" ry="31.77" fill="#c74038" fill-opacity="0.95" /><ellipse cx="-0.00" cy="-31.77" rx="20.42" ry="31.77" fill="#c74038" fill-opacity="0.95" /><ellipse cx="22.47" cy="-22.47" rx="20.42" ry="31.77" fill="#c74038" fill-opacity="0.95" />
        <circle cx="0" cy="0" r="20.42" fill="#9f2d27" />
        <circle cx="0" cy="0" r="10.21" fill="#fff7f0" fill-opacity="0.72" />
      </g>
    </g>
    
    <g transform="translate(288.60 557.91) rotate(5.42)">
      <path d="M 0 0 C -8 105.08, 10 175.13, -6 256.86" stroke="#476b43" stroke-width="14.01" fill="none" stroke-linecap="round" />
      <ellipse cx="-20" cy="128.43" rx="25.69" ry="49.04" fill="#476b43" fill-opacity="0.75" transform="rotate(-24)" />
      <ellipse cx="28" cy="158.78" rx="23.35" ry="44.37" fill="#476b43" fill-opacity="0.66" transform="rotate(20)" />
      <g transform="translate(0 0)">
        <ellipse cx="32.69" cy="0.00" rx="21.02" ry="32.69" fill="#f0ad3d" fill-opacity="0.95" /><ellipse cx="23.12" cy="23.12" rx="21.02" ry="32.69" fill="#f0ad3d" fill-opacity="0.95" /><ellipse cx="0.00" cy="32.69" rx="21.02" ry="32.69" fill="#f0ad3d" fill-opacity="0.95" /><ellipse cx="-23.12" cy="23.12" rx="21.02" ry="32.69" fill="#f0ad3d" fill-opacity="0.95" /><ellipse cx="-32.69" cy="0.00" rx="21.02" ry="32.69" fill="#f0ad3d" fill-opacity="0.95" /><ellipse cx="-23.12" cy="-23.12" rx="21.02" ry="32.69" fill="#f0ad3d" fill-opacity="0.95" /><ellipse cx="-0.00" cy="-32.69" rx="21.02" ry="32.69" fill="#f0ad3d" fill-opacity="0.95" /><ellipse cx="23.12" cy="-23.12" rx="21.02" ry="32.69" fill="#f0ad3d" fill-opacity="0.95" />
        <circle cx="0" cy="0" r="21.02" fill="#9f2d27" />
        <circle cx="0" cy="0" r="10.51" fill="#fff7f0" fill-opacity="0.72" />
      </g>
    </g>
    
    <g transform="translate(497.94 509.36) rotate(23.30)">
      <path d="M 0 0 C -8 103.49, 10 172.49, -6 252.98" stroke="#87a276" stroke-width="13.80" fill="none" stroke-linecap="round" />
      <ellipse cx="-20" cy="126.49" rx="25.30" ry="48.30" fill="#87a276" fill-opacity="0.75" transform="rotate(-24)" />
      <ellipse cx="28" cy="156.39" rx="23.00" ry="43.70" fill="#87a276" fill-opacity="0.66" transform="rotate(20)" />
      <g transform="translate(0 0)">
        <ellipse cx="32.20" cy="0.00" rx="20.70" ry="32.20" fill="#efc46f" fill-opacity="0.95" /><ellipse cx="22.77" cy="22.77" rx="20.70" ry="32.20" fill="#efc46f" fill-opacity="0.95" /><ellipse cx="0.00" cy="32.20" rx="20.70" ry="32.20" fill="#efc46f" fill-opacity="0.95" /><ellipse cx="-22.77" cy="22.77" rx="20.70" ry="32.20" fill="#efc46f" fill-opacity="0.95" /><ellipse cx="-32.20" cy="0.00" rx="20.70" ry="32.20" fill="#efc46f" fill-opacity="0.95" /><ellipse cx="-22.77" cy="-22.77" rx="20.70" ry="32.20" fill="#efc46f" fill-opacity="0.95" /><ellipse cx="-0.00" cy="-32.20" rx="20.70" ry="32.20" fill="#efc46f" fill-opacity="0.95" /><ellipse cx="22.77" cy="-22.77" rx="20.70" ry="32.20" fill="#efc46f" fill-opacity="0.95" />
        <circle cx="0" cy="0" r="20.70" fill="#9f2d27" />
        <circle cx="0" cy="0" r="10.35" fill="#fff7f0" fill-opacity="0.72" />
      </g>
    </g>
    
    <g transform="translate(666.78 547.69) rotate(-2.55)">
      <path d="M 0 0 C -8 110.14, 10 183.57, -6 269.23" stroke="#5f8458" stroke-width="14.69" fill="none" stroke-linecap="round" />
      <ellipse cx="-20" cy="134.61" rx="26.92" ry="51.40" fill="#5f8458" fill-opacity="0.75" transform="rotate(-24)" />
      <ellipse cx="28" cy="166.43" rx="24.48" ry="46.50" fill="#5f8458" fill-opacity="0.66" transform="rotate(20)" />
      <g transform="translate(0 0)">
        <ellipse cx="34.27" cy="0.00" rx="22.03" ry="34.27" fill="#f4d7ab" fill-opacity="0.95" /><ellipse cx="24.23" cy="24.23" rx="22.03" ry="34.27" fill="#f4d7ab" fill-opacity="0.95" /><ellipse cx="0.00" cy="34.27" rx="22.03" ry="34.27" fill="#f4d7ab" fill-opacity="0.95" /><ellipse cx="-24.23" cy="24.23" rx="22.03" ry="34.27" fill="#f4d7ab" fill-opacity="0.95" /><ellipse cx="-34.27" cy="0.00" rx="22.03" ry="34.27" fill="#f4d7ab" fill-opacity="0.95" /><ellipse cx="-24.23" cy="-24.23" rx="22.03" ry="34.27" fill="#f4d7ab" fill-opacity="0.95" /><ellipse cx="-0.00" cy="-34.27" rx="22.03" ry="34.27" fill="#f4d7ab" fill-opacity="0.95" /><ellipse cx="24.23" cy="-24.23" rx="22.03" ry="34.27" fill="#f4d7ab" fill-opacity="0.95" />
        <circle cx="0" cy="0" r="22.03" fill="#9f2d27" />
        <circle cx="0" cy="0" r="11.01" fill="#fff7f0" fill-opacity="0.72" />
      </g>
    </g>
    
    <g transform="translate(516.04 427.78) rotate(15.22)">
      <path d="M 0 0 C -8 73.55, 10 122.59, -6 179.80" stroke="#476b43" stroke-width="9.81" fill="none" stroke-linecap="round" />
      <ellipse cx="-20" cy="89.90" rx="17.98" ry="34.33" fill="#476b43" fill-opacity="0.75" transform="rotate(-24)" />
      <ellipse cx="28" cy="111.15" rx="16.35" ry="31.06" fill="#476b43" fill-opacity="0.66" transform="rotate(20)" />
      <g transform="translate(0 0)">
        <ellipse cx="22.88" cy="0.00" rx="14.71" ry="22.88" fill="#c74038" fill-opacity="0.95" /><ellipse cx="16.18" cy="16.18" rx="14.71" ry="22.88" fill="#c74038" fill-opacity="0.95" /><ellipse cx="0.00" cy="22.88" rx="14.71" ry="22.88" fill="#c74038" fill-opacity="0.95" /><ellipse cx="-16.18" cy="16.18" rx="14.71" ry="22.88" fill="#c74038" fill-opacity="0.95" /><ellipse cx="-22.88" cy="0.00" rx="14.71" ry="22.88" fill="#c74038" fill-opacity="0.95" /><ellipse cx="-16.18" cy="-16.18" rx="14.71" ry="22.88" fill="#c74038" fill-opacity="0.95" /><ellipse cx="-0.00" cy="-22.88" rx="14.71" ry="22.88" fill="#c74038" fill-opacity="0.95" /><ellipse cx="16.18" cy="-16.18" rx="14.71" ry="22.88" fill="#c74038" fill-opacity="0.95" />
        <circle cx="0" cy="0" r="14.71" fill="#9f2d27" />
        <circle cx="0" cy="0" r="7.36" fill="#fff7f0" fill-opacity="0.72" />
      </g>
    </g>
    
    <g transform="translate(650.46 502.94) rotate(5.21)">
      <path d="M 0 0 C -8 80.66, 10 134.44, -6 197.17" stroke="#87a276" stroke-width="10.75" fill="none" stroke-linecap="round" />
      <ellipse cx="-20" cy="98.59" rx="19.72" ry="37.64" fill="#87a276" fill-opacity="0.75" transform="rotate(-24)" />
      <ellipse cx="28" cy="121.89" rx="17.92" ry="34.06" fill="#87a276" fill-opacity="0.66" transform="rotate(20)" />
      <g transform="translate(0 0)">
        <ellipse cx="25.09" cy="0.00" rx="16.13" ry="25.09" fill="#f0ad3d" fill-opacity="0.95" /><ellipse cx="17.74" cy="17.74" rx="16.13" ry="25.09" fill="#f0ad3d" fill-opacity="0.95" /><ellipse cx="0.00" cy="25.09" rx="16.13" ry="25.09" fill="#f0ad3d" fill-opacity="0.95" /><ellipse cx="-17.74" cy="17.74" rx="16.13" ry="25.09" fill="#f0ad3d" fill-opacity="0.95" /><ellipse cx="-25.09" cy="0.00" rx="16.13" ry="25.09" fill="#f0ad3d" fill-opacity="0.95" /><ellipse cx="-17.74" cy="-17.74" rx="16.13" ry="25.09" fill="#f0ad3d" fill-opacity="0.95" /><ellipse cx="-0.00" cy="-25.09" rx="16.13" ry="25.09" fill="#f0ad3d" fill-opacity="0.95" /><ellipse cx="17.74" cy="-17.74" rx="16.13" ry="25.09" fill="#f0ad3d" fill-opacity="0.95" />
        <circle cx="0" cy="0" r="16.13" fill="#9f2d27" />
        <circle cx="0" cy="0" r="8.07" fill="#fff7f0" fill-opacity="0.72" />
      </g>
    </g>
    
    <g transform="translate(217.21 308.89) rotate(-13.15)">
      <path d="M 0 0 C -8 83.24, 10 138.74, -6 203.49" stroke="#5f8458" stroke-width="11.10" fill="none" stroke-linecap="round" />
      <ellipse cx="-20" cy="101.74" rx="20.35" ry="38.85" fill="#5f8458" fill-opacity="0.75" transform="rotate(-24)" />
      <ellipse cx="28" cy="125.79" rx="18.50" ry="35.15" fill="#5f8458" fill-opacity="0.66" transform="rotate(20)" />
      <g transform="translate(0 0)">
        <ellipse cx="25.90" cy="0.00" rx="16.65" ry="25.90" fill="#efc46f" fill-opacity="0.95" /><ellipse cx="18.31" cy="18.31" rx="16.65" ry="25.90" fill="#efc46f" fill-opacity="0.95" /><ellipse cx="0.00" cy="25.90" rx="16.65" ry="25.90" fill="#efc46f" fill-opacity="0.95" /><ellipse cx="-18.31" cy="18.31" rx="16.65" ry="25.90" fill="#efc46f" fill-opacity="0.95" /><ellipse cx="-25.90" cy="0.00" rx="16.65" ry="25.90" fill="#efc46f" fill-opacity="0.95" /><ellipse cx="-18.31" cy="-18.31" rx="16.65" ry="25.90" fill="#efc46f" fill-opacity="0.95" /><ellipse cx="-0.00" cy="-25.90" rx="16.65" ry="25.90" fill="#efc46f" fill-opacity="0.95" /><ellipse cx="18.31" cy="-18.31" rx="16.65" ry="25.90" fill="#efc46f" fill-opacity="0.95" />
        <circle cx="0" cy="0" r="16.65" fill="#9f2d27" />
        <circle cx="0" cy="0" r="8.32" fill="#fff7f0" fill-opacity="0.72" />
      </g>
    </g>
    
  </g>
  <path d="M0 980 C220 920, 420 1030, 900 930 L900 1100 L0 1100 Z" fill="#ffffff" fill-opacity="0.22" />
</svg>
