<svg xmlns="http://www.w3.org/2000/svg" width="900" height="1100" viewBox="0 0 900 1100">
  <defs>
    <linearGradient id="bg" x1="0" y1="0" x2="0" y2="1">
      <stop offset="0%" stop-color="#fff5ef" />
      <stop offset="100%" stop-color="#f3eadb" />
    </linearGradient>
    <filter id="shadow" x="-20%" y="-20%" width="140%" height="140%">
      <feDropShadow dx="0" dy="22" stdDeviation="24" flood-color="#6c5d4f" flood-opacity="0.12" />
    </filter>
  </defs>
  <rect width="100%" height="100%" fill="url(#bg)" />
  <circle cx="730" cy="180" r="140" fill="#ffffff" fill-opacity="0.18" />
  <circle cx="150" cy="260" r="90" fill="#ffffff" fill-opacity="0.12" />
  
      <rect x="70" y="72" width="300" height="92" rx="24" fill="#ffffff" fill-opacity="0.34" />
      <text x="98" y="120" fill="#2f3a31" font-size="32" font-family="'PingFang SC','Microsoft YaHei',sans-serif" font-weight="600">雅贺新章</text>
      <text x="98" y="152" fill="#4e6152" font-size="18" font-family="'PingFang SC','Microsoft YaHei',sans-serif">门店 · 前厅</text>
    
  <g filter="url(#shadow)">
    <path d="M180 770 L720 770 L780 1080 L120 1080 Z" fill="#efe3c5" fill-opacity="0.9" />
  </g>
  <g>
    
    <g transform="translate(630.35 479.65) rotate(-0.91)">
      <path d="M 0 0 C -8 109.06, 10 181.76, -6 266.58" stroke="#5f8458" stroke-width="14.54" fill="none" stroke-linecap="round" />
      <ellipse cx="-20" cy="133.29" rx="26.66" ry="50.89" fill="#5f8458" fill-opacity="0.75" transform="rotate(-24)" />
      <ellipse cx="28" cy="164.80" rx="24.23" ry="46.05" fill="#5f8458" fill-opacity="0.66" transform="rotate(20)" />
      <g transform="translate(0 0)">
        <ellipse cx="33.93" cy="0.00" rx="21.81" ry="33.93" fill="#c74038" fill-opacity="0.95" /><ellipse cx="23.99" cy="23.99" rx="21.81" ry="33.93" fill="#c74038" fill-opacity="0.95" /><ellipse cx="0.00" cy="33.93" rx="21.81" ry="33.93" fill="#c74038" fill-opacity="0.95" /><ellipse cx="-23.99" cy="23.99" rx="21.81" ry="33.93" fill="#c74038" fill-opacity="0.95" /><ellipse cx="-33.93" cy="0.00" rx="21.81" ry="33.93" fill="#c74038" fill-opacity="0.95" /><ellipse cx="-23.99" cy="-23.99" rx="21.81" ry="33.93" fill="#c74038" fill-opacity="0.95" /><ellipse cx="-0.00" cy="-33.93" rx="21.81" ry="33.93" fill="#c74038" fill-opacity="0.95" /><ellipse cx="23.99" cy="-23.99" rx="21.81" ry="33.93" fill="#c74038" fill-opacity="0.95" />
        <circle cx="0" cy="0" r="21.81" fill="#9f2d27" />
        <circle cx="0" cy="0" r="10.91" fill="#fff7f0" fill-opacity="0.72" />
      </g>
    </g>
    
    <g transform="translate(582.84 529.01) rotate(-18.83)">
      <path d="M 0 0 C -8 91.71, 10 152.84, -6 224.17" stroke="#476b43" stroke-width="12.23" fill="none" stroke-linecap="round" />
      <ellipse cx="-20" cy="112.09" rx="22.42" ry="42.80" fill="#476b43" fill-opacity="0.75" transform="rotate(-24)" />
      <ellipse cx="28" cy="138.58" rx="20.38" ry="38.72" fill="#476b43" fill-opacity="0.66" transform="rotate(20)" />
      <g transform="translate(0 0)">
        <ellipse cx="28.53" cy="0.00" rx="18.34" ry="28.53" fill="#f0ad3d" fill-opacity="0.95" /><ellipse cx="20.17" cy="20.17" rx="18.34" ry="28.53" fill="#f0ad3d" fill-opacity="0.95" /><ellipse cx="0.00" cy="28.53" rx="18.34" ry="28.53" fill="#f0ad3d" fill-opacity="0.95" /><ellipse cx="-20.17" cy="20.17" rx="18.34" ry="28.53" fill="#f0ad3d" fill-opacity="0.95" /><ellipse cx="-28.53" cy="0.00" rx="18.34" ry="28.53" fill="#f0ad3d" fill-opacity="0.95" /><ellipse cx="-20.17" cy="-20.17" rx="18.34" ry="28.53" fill="#f0ad3d" fill-opacity="0.95" /><ellipse cx="-0.00" cy="-28.53" rx="18.34" ry="28.53" fill="#f0ad3d" fill-opacity="0.95" /><ellipse cx="20.17" cy="-20.17" rx="18.34" ry="28.53" fill="#f0ad3d" fill-opacity="0.95" />
        <circle cx="0" cy="0" r="18.34" fill="#9f2d27" />
        <circle cx="0" cy="0" r="9.17" fill="#fff7f0" fill-opacity="0.72" />
      </g>
    </g>
    
    <g transform="translate(389.07 508.22) rotate(25.11)">
      <path d="M 0 0 C -8 104.78, 10 174.63, -6 256.12" stroke="#87a276" stroke-width="13.97" fill="none" stroke-linecap="round" />
      <ellipse cx="-20" cy="128.06" rx="25.61" ry="48.90" fill="#87a276" fill-opacity="0.75" transform="rotate(-24)" />
      <ellipse cx="28" cy="158.33" rx="23.28" ry="44.24" fill="#87a276" fill-opacity="0.66" transform="rotate(20)" />
      <g transform="translate(0 0)">
        <ellipse cx="32.60" cy="0.00" rx="20.96" ry="32.60" fill="#efc46f" fill-opacity="0.95" /><ellipse cx="23.05" cy="23.05" rx="20.96" ry="32.60" fill="#efc46f" fill-opacity="0.95" /><ellipse cx="0.00" cy="32.60" rx="20.96" ry="32.60" fill="#efc46f" fill-opacity="0.95" /><ellipse cx="-23.05" cy="23.05" rx="20.96" ry="32.60" fill="#efc46f" fill-opacity="0.95" /><ellipse cx="-32.60" cy="0.00" rx="20.96" ry="32.60" fill="#efc46f" fill-opacity="0.95" /><ellipse cx="-23.05" cy="-23.05" rx="20.96" ry="32.60" fill="#efc46f" fill-opacity="0.95" /><ellipse cx="-0.00" cy="-32.60" rx="20.96" ry="32.60" fill="#efc46f" fill-opacity="0.95" /><ellipse cx="23.05" cy="-23.05" rx="20.96" ry="32.60" fill="#efc46f" fill-opacity="0.95" />
        <circle cx="0" cy="0" r="20.96" fill="#9f2d27" />
        <circle cx="0" cy="0" r="10.48" fill="#fff7f0" fill-opacity="0.72" />
      </g>
    </g>
    
    <g transform="translate(313.21 330.70) rotate(5.75)">
      <path d="M 0 0 C -8 110.14, 10 183.56, -6 269.23" stroke="#5f8458" stroke-width="14.69" fill="none" stroke-linecap="round" />
      <ellipse cx="-20" cy="134.61" rx="26.92" ry="51.40" fill="#5f8458" fill-opacity="0.75" transform="rotate(-24)" />
      <ellipse cx="28" cy="166.43" rx="24.48" ry="46.50" fill="#5f8458" fill-opacity="0.66" transform="rotate(20)" />
      <g transform="translate(0 0)">
        <ellipse cx="34.27" cy="0.00" rx="22.03" ry="34.27" fill="#f4d7ab" fill-opacity="0.95" /><ellipse cx="24.23" cy="24.23" rx="22.03" ry="34.27" fill="#f4d7ab" fill-opacity="0.95" /><ellipse cx="0.00" cy="34.27" rx="22.03" ry="34.27" fill="#f4d7ab" fill-opacity="0.95" /><ellipse cx="-24.23" cy="24.23" rx="22.03" ry="34.27" fill="#f4d7ab" fill-opacity="0.95" /><ellipse cx="-34.27" cy="0.00" rx="22.03" ry="34.27" fill="#f4d7ab" fill-opacity="0.95" /><ellipse cx="-24.23" cy="-24.23" rx="22.03" ry="34.27" fill="#f4d7ab" fill-opacity="0.95" /><ellipse cx="-0.00" cy="-34.27" rx="22.03" ry="34.27" fill="#f4d7ab" fill-opacity="0.95" /><ellipse cx="24.23" cy="-24.23" rx="22.03" ry="34.27" fill="#f4d7ab" fill-opacity="0.95" />
        <circle cx="0" cy="0" r="22.03" fill="#9f2d27" />
        <circle cx="0" cy="0" r="11.01" fill="#fff7f0" fill-opacity="0.72" />
      </g>
    </g>
    
    <g transform="translate(471.65 384.73) rotate(5.37)">
      <path d="M 0 0 C -8 98.15, 10 163.58, -6 239.92" stroke="#476b43" stroke-width="13.09" fill="none" stroke-linecap="round" />
      <ellipse cx="-20" cy="119.96" rx="23.99" ry="45.80" fill="#476b43" fill-opacity="0.75" transform="rotate(-24)" />
      <ellipse cx="28" cy="148.31" rx="21.81" ry="41.44" fill="#476b43" fill-opacity="0.66" transform="rotate(20)" />
      <g transform="translate(0 0)">
        <ellipse cx="30.54" cy="0.00" rx="19.63" ry="30.54" fill="#c74038" fill-opacity="0.95" /><ellipse cx="21.59" cy="21.59" rx="19.63" ry="30.54" fill="#c74038" fill-opacity="0.95" /><ellipse cx="0.00" cy="30.54" rx="19.63" ry="30.54" fill="#c74038" fill-opacity="0.95" /><ellipse cx="-21.59" cy="21.59" rx="19.63" ry="30.54" fill="#c74038" fill-opacity="0.95" /><ellipse cx="-30.54" cy="0.00" rx="19.63" ry="30.54" fill="#c74038" fill-opacity="0.95" /><ellipse cx="-21.59" cy="-21.59" rx="19.63" ry="30.54" fill="#c74038" fill-opacity="0.95" /><ellipse cx="-0.00" cy="-30.54" rx="19.63" ry="30.54" fill="#c74038" fill-opacity="0.95" /><ellipse cx="21.59" cy="-21.59" rx="19.63" ry="30.54" fill="#c74038" fill-opacity="0.95" />
        <circle cx="0" cy="0" r="19.63" fill="#9f2d27" />
        <circle cx="0" cy="0" r="9.81" fill="#fff7f0" fill-opacity="0.72" />
      </g>
    </g>
    
    <g transform="translate(653.08 472.50) rotate(-6.32)">
      <path d="M 0 0 C -8 112.13, 10 186.88, -6 274.10" stroke="#87a276" stroke-width="14.95" fill="none" stroke-linecap="round" />
      <ellipse cx="-20" cy="137.05" rx="27.41" ry="52.33" fill="#87a276" fill-opacity="0.75" transform="rotate(-24)" />
      <ellipse cx="28" cy="169.44" rx="24.92" ry="47.34" fill="#87a276" fill-opacity="0.66" transform="rotate(20)" />
      <g transform="translate(0 0)">
        <ellipse cx="34.88" cy="0.00" rx="22.43" ry="34.88" fill="#f0ad3d" fill-opacity="0.95" /><ellipse cx="24.67" cy="24.67" rx="22.43" ry="34.88" fill="#f0ad3d" fill-opacity="0.95" /><ellipse cx="0.00" cy="34.88" rx="22.43" ry="34.88" fill="#f0ad3d" fill-opacity="0.95" /><ellipse cx="-24.67" cy="24.67" rx="22.43" ry="34.88" fill="#f0ad3d" fill-opacity="0.95" /><ellipse cx="-34.88" cy="0.00" rx="22.43" ry="34.88" fill="#f0ad3d" fill-opacity="0.95" /><ellipse cx="-24.67" cy="-24.67" rx="22.43" ry="34.88" fill="#f0ad3d" fill-opacity="0.95" /><ellipse cx="-0.00" cy="-34.88" rx="22.43" ry="34.88" fill="#f0ad3d" fill-opacity="0.95" /><ellipse cx="24.67" cy="-24.67" rx="22.43" ry="34.88" fill="#f0ad3d" fill-opacity="0.95" />
        <circle cx="0" cy="0" r="22.43" fill="#9f2d27" />
        <circle cx="0" cy="0" r="11.21" fill="#fff7f0" fill-opacity="0.72" />
      </g>
    </g>
    
  </g>
  <path d="M0 980 C220 920, 420 1030, 900 930 L900 1100 L0 1100 Z" fill="#ffffff" fill-opacity="0.22" />
</svg>
