<svg xmlns="http://www.w3.org/2000/svg" width="900" height="1100" viewBox="0 0 900 1100">
  <defs>
    <linearGradient id="bg" x1="0" y1="0" x2="0" y2="1">
      <stop offset="0%" stop-color="#fff5ef" />
      <stop offset="100%" stop-color="#f3eadb" />
    </linearGradient>
    <filter id="shadow" x="-20%" y="-20%" width="140%" height="140%">
      <feDropShadow dx="0" dy="22" stdDeviation="24" flood-color="#6c5d4f" flood-opacity="0.12" />
    </filter>
  </defs>
  <rect width="100%" height="100%" fill="url(#bg)" />
  <circle cx="730" cy="180" r="140" fill="#ffffff" fill-opacity="0.18" />
  <circle cx="150" cy="260" r="90" fill="#ffffff" fill-opacity="0.12" />
  
      <rect x="70" y="72" width="300" height="92" rx="24" fill="#ffffff" fill-opacity="0.34" />
      <text x="98" y="120" fill="#2f3a31" font-size="32" font-family="'PingFang SC','Microsoft YaHei',sans-serif" font-weight="600">品牌开幕</text>
      <text x="98" y="152" fill="#4e6152" font-size="18" font-family="'PingFang SC','Microsoft YaHei',sans-serif">展厅 · 商务花礼</text>
    
  <g filter="url(#shadow)">
    <path d="M180 770 L720 770 L780 1080 L120 1080 Z" fill="#efe3c5" fill-opacity="0.9" />
  </g>
  <g>
    
    <g transform="translate(680.18 322.05) rotate(11.46)">
      <path d="M 0 0 C -8 108.77, 10 181.28, -6 265.88" stroke="#5f8458" stroke-width="14.50" fill="none" stroke-linecap="round" />
      <ellipse cx="-20" cy="132.94" rx="26.59" ry="50.76" fill="#5f8458" fill-opacity="0.75" transform="rotate(-24)" />
      <ellipse cx="28" cy="164.36" rx="24.17" ry="45.92" fill="#5f8458" fill-opacity="0.66" transform="rotate(20)" />
      <g transform="translate(0 0)">
        <ellipse cx="33.84" cy="0.00" rx="21.75" ry="33.84" fill="#c74038" fill-opacity="0.95" /><ellipse cx="23.93" cy="23.93" rx="21.75" ry="33.84" fill="#c74038" fill-opacity="0.95" /><ellipse cx="0.00" cy="33.84" rx="21.75" ry="33.84" fill="#c74038" fill-opacity="0.95" /><ellipse cx="-23.93" cy="23.93" rx="21.75" ry="33.84" fill="#c74038" fill-opacity="0.95" /><ellipse cx="-33.84" cy="0.00" rx="21.75" ry="33.84" fill="#c74038" fill-opacity="0.95" /><ellipse cx="-23.93" cy="-23.93" rx="21.75" ry="33.84" fill="#c74038" fill-opacity="0.95" /><ellipse cx="-0.00" cy="-33.84" rx="21.75" ry="33.84" fill="#c74038" fill-opacity="0.95" /><ellipse cx="23.93" cy="-23.93" rx="21.75" ry="33.84" fill="#c74038" fill-opacity="0.95" />
        <circle cx="0" cy="0" r="21.75" fill="#9f2d27" />
        <circle cx="0" cy="0" r="10.88" fill="#fff7f0" fill-opacity="0.72" />
      </g>
    </g>
    
    <g transform="translate(587.36 380.16) rotate(-18.82)">
      <path d="M 0 0 C -8 101.43, 10 169.04, -6 247.93" stroke="#476b43" stroke-width="13.52" fill="none" stroke-linecap="round" />
      <ellipse cx="-20" cy="123.96" rx="24.79" ry="47.33" fill="#476b43" fill-opacity="0.75" transform="rotate(-24)" />
      <ellipse cx="28" cy="153.27" rx="22.54" ry="42.82" fill="#476b43" fill-opacity="0.66" transform="rotate(20)" />
      <g transform="translate(0 0)">
        <ellipse cx="31.55" cy="0.00" rx="20.29" ry="31.55" fill="#f0ad3d" fill-opacity="0.95" /><ellipse cx="22.31" cy="22.31" rx="20.29" ry="31.55" fill="#f0ad3d" fill-opacity="0.95" /><ellipse cx="0.00" cy="31.55" rx="20.29" ry="31.55" fill="#f0ad3d" fill-opacity="0.95" /><ellipse cx="-22.31" cy="22.31" rx="20.29" ry="31.55" fill="#f0ad3d" fill-opacity="0.95" /><ellipse cx="-31.55" cy="0.00" rx="20.29" ry="31.55" fill="#f0ad3d" fill-opacity="0.95" /><ellipse cx="-22.31" cy="-22.31" rx="20.29" ry="31.55" fill="#f0ad3d" fill-opacity="0.95" /><ellipse cx="-0.00" cy="-31.55" rx="20.29" ry="31.55" fill="#f0ad3d" fill-opacity="0.95" /><ellipse cx="22.31" cy="-22.31" rx="20.29" ry="31.55" fill="#f0ad3d" fill-opacity="0.95" />
        <circle cx="0" cy="0" r="20.29" fill="#9f2d27" />
        <circle cx="0" cy="0" r="10.14" fill="#fff7f0" fill-opacity="0.72" />
      </g>
    </g>
    
    <g transform="translate(408.08 453.05) rotate(-12.62)">
      <path d="M 0 0 C -8 75.73, 10 126.21, -6 185.11" stroke="#87a276" stroke-width="10.10" fill="none" stroke-linecap="round" />
      <ellipse cx="-20" cy="92.56" rx="18.51" ry="35.34" fill="#87a276" fill-opacity="0.75" transform="rotate(-24)" />
      <ellipse cx="28" cy="114.43" rx="16.83" ry="31.97" fill="#87a276" fill-opacity="0.66" transform="rotate(20)" />
      <g transform="translate(0 0)">
        <ellipse cx="23.56" cy="0.00" rx="15.15" ry="23.56" fill="#efc46f" fill-opacity="0.95" /><ellipse cx="16.66" cy="16.66" rx="15.15" ry="23.56" fill="#efc46f" fill-opacity="0.95" /><ellipse cx="0.00" cy="23.56" rx="15.15" ry="23.56" fill="#efc46f" fill-opacity="0.95" /><ellipse cx="-16.66" cy="16.66" rx="15.15" ry="23.56" fill="#efc46f" fill-opacity="0.95" /><ellipse cx="-23.56" cy="0.00" rx="15.15" ry="23.56" fill="#efc46f" fill-opacity="0.95" /><ellipse cx="-16.66" cy="-16.66" rx="15.15" ry="23.56" fill="#efc46f" fill-opacity="0.95" /><ellipse cx="-0.00" cy="-23.56" rx="15.15" ry="23.56" fill="#efc46f" fill-opacity="0.95" /><ellipse cx="16.66" cy="-16.66" rx="15.15" ry="23.56" fill="#efc46f" fill-opacity="0.95" />
        <circle cx="0" cy="0" r="15.15" fill="#9f2d27" />
        <circle cx="0" cy="0" r="7.57" fill="#fff7f0" fill-opacity="0.72" />
      </g>
    </g>
    
    <g transform="translate(529.56 465.16) rotate(-9.80)">
      <path d="M 0 0 C -8 86.24, 10 143.74, -6 210.82" stroke="#5f8458" stroke-width="11.50" fill="none" stroke-linecap="round" />
      <ellipse cx="-20" cy="105.41" rx="21.08" ry="40.25" fill="#5f8458" fill-opacity="0.75" transform="rotate(-24)" />
      <ellipse cx="28" cy="130.32" rx="19.17" ry="36.41" fill="#5f8458" fill-opacity="0.66" transform="rotate(20)" />
      <g transform="translate(0 0)">
        <ellipse cx="26.83" cy="0.00" rx="17.25" ry="26.83" fill="#f4d7ab" fill-opacity="0.95" /><ellipse cx="18.97" cy="18.97" rx="17.25" ry="26.83" fill="#f4d7ab" fill-opacity="0.95" /><ellipse cx="0.00" cy="26.83" rx="17.25" ry="26.83" fill="#f4d7ab" fill-opacity="0.95" /><ellipse cx="-18.97" cy="18.97" rx="17.25" ry="26.83" fill="#f4d7ab" fill-opacity="0.95" /><ellipse cx="-26.83" cy="0.00" rx="17.25" ry="26.83" fill="#f4d7ab" fill-opacity="0.95" /><ellipse cx="-18.97" cy="-18.97" rx="17.25" ry="26.83" fill="#f4d7ab" fill-opacity="0.95" /><ellipse cx="-0.00" cy="-26.83" rx="17.25" ry="26.83" fill="#f4d7ab" fill-opacity="0.95" /><ellipse cx="18.97" cy="-18.97" rx="17.25" ry="26.83" fill="#f4d7ab" fill-opacity="0.95" />
        <circle cx="0" cy="0" r="17.25" fill="#9f2d27" />
        <circle cx="0" cy="0" r="8.62" fill="#fff7f0" fill-opacity="0.72" />
      </g>
    </g>
    
    <g transform="translate(661.41 548.85) rotate(-2.19)">
      <path d="M 0 0 C -8 103.34, 10 172.24, -6 252.62" stroke="#476b43" stroke-width="13.78" fill="none" stroke-linecap="round" />
      <ellipse cx="-20" cy="126.31" rx="25.26" ry="48.23" fill="#476b43" fill-opacity="0.75" transform="rotate(-24)" />
      <ellipse cx="28" cy="156.16" rx="22.97" ry="43.63" fill="#476b43" fill-opacity="0.66" transform="rotate(20)" />
      <g transform="translate(0 0)">
        <ellipse cx="32.15" cy="0.00" rx="20.67" ry="32.15" fill="#c74038" fill-opacity="0.95" /><ellipse cx="22.73" cy="22.73" rx="20.67" ry="32.15" fill="#c74038" fill-opacity="0.95" /><ellipse cx="0.00" cy="32.15" rx="20.67" ry="32.15" fill="#c74038" fill-opacity="0.95" /><ellipse cx="-22.73" cy="22.73" rx="20.67" ry="32.15" fill="#c74038" fill-opacity="0.95" /><ellipse cx="-32.15" cy="0.00" rx="20.67" ry="32.15" fill="#c74038" fill-opacity="0.95" /><ellipse cx="-22.73" cy="-22.73" rx="20.67" ry="32.15" fill="#c74038" fill-opacity="0.95" /><ellipse cx="-0.00" cy="-32.15" rx="20.67" ry="32.15" fill="#c74038" fill-opacity="0.95" /><ellipse cx="22.73" cy="-22.73" rx="20.67" ry="32.15" fill="#c74038" fill-opacity="0.95" />
        <circle cx="0" cy="0" r="20.67" fill="#9f2d27" />
        <circle cx="0" cy="0" r="10.33" fill="#fff7f0" fill-opacity="0.72" />
      </g>
    </g>
    
    <g transform="translate(591.65 508.30) rotate(19.93)">
      <path d="M 0 0 C -8 73.03, 10 121.72, -6 178.53" stroke="#87a276" stroke-width="9.74" fill="none" stroke-linecap="round" />
      <ellipse cx="-20" cy="89.26" rx="17.85" ry="34.08" fill="#87a276" fill-opacity="0.75" transform="rotate(-24)" />
      <ellipse cx="28" cy="110.36" rx="16.23" ry="30.84" fill="#87a276" fill-opacity="0.66" transform="rotate(20)" />
      <g transform="translate(0 0)">
        <ellipse cx="22.72" cy="0.00" rx="14.61" ry="22.72" fill="#f0ad3d" fill-opacity="0.95" /><ellipse cx="16.07" cy="16.07" rx="14.61" ry="22.72" fill="#f0ad3d" fill-opacity="0.95" /><ellipse cx="0.00" cy="22.72" rx="14.61" ry="22.72" fill="#f0ad3d" fill-opacity="0.95" /><ellipse cx="-16.07" cy="16.07" rx="14.61" ry="22.72" fill="#f0ad3d" fill-opacity="0.95" /><ellipse cx="-22.72" cy="0.00" rx="14.61" ry="22.72" fill="#f0ad3d" fill-opacity="0.95" /><ellipse cx="-16.07" cy="-16.07" rx="14.61" ry="22.72" fill="#f0ad3d" fill-opacity="0.95" /><ellipse cx="-0.00" cy="-22.72" rx="14.61" ry="22.72" fill="#f0ad3d" fill-opacity="0.95" /><ellipse cx="16.07" cy="-16.07" rx="14.61" ry="22.72" fill="#f0ad3d" fill-opacity="0.95" />
        <circle cx="0" cy="0" r="14.61" fill="#9f2d27" />
        <circle cx="0" cy="0" r="7.30" fill="#fff7f0" fill-opacity="0.72" />
      </g>
    </g>
    
  </g>
  <path d="M0 980 C220 920, 420 1030, 900 930 L900 1100 L0 1100 Z" fill="#ffffff" fill-opacity="0.22" />
</svg>
