<svg xmlns="http://www.w3.org/2000/svg" width="900" height="1100" viewBox="0 0 900 1100">
  <defs>
    <linearGradient id="bg" x1="0" y1="0" x2="0" y2="1">
      <stop offset="0%" stop-color="#fff5ef" />
      <stop offset="100%" stop-color="#f3eadb" />
    </linearGradient>
    <filter id="shadow" x="-20%" y="-20%" width="140%" height="140%">
      <feDropShadow dx="0" dy="22" stdDeviation="24" flood-color="#6c5d4f" flood-opacity="0.12" />
    </filter>
  </defs>
  <rect width="100%" height="100%" fill="url(#bg)" />
  <circle cx="730" cy="180" r="140" fill="#ffffff" fill-opacity="0.18" />
  <circle cx="150" cy="260" r="90" fill="#ffffff" fill-opacity="0.12" />
  
      <rect x="70" y="72" width="300" height="92" rx="24" fill="#ffffff" fill-opacity="0.34" />
      <text x="98" y="120" fill="#2f3a31" font-size="32" font-family="'PingFang SC','Microsoft YaHei',sans-serif" font-weight="600">繁荣序章</text>
      <text x="98" y="152" fill="#4e6152" font-size="18" font-family="'PingFang SC','Microsoft YaHei',sans-serif">开业 · 商务</text>
    
  <g filter="url(#shadow)">
    <path d="M180 770 L720 770 L780 1080 L120 1080 Z" fill="#efe3c5" fill-opacity="0.9" />
  </g>
  <g>
    
    <g transform="translate(549.14 498.15) rotate(2.85)">
      <path d="M 0 0 C -8 86.36, 10 143.94, -6 211.11" stroke="#5f8458" stroke-width="11.52" fill="none" stroke-linecap="round" />
      <ellipse cx="-20" cy="105.56" rx="21.11" ry="40.30" fill="#5f8458" fill-opacity="0.75" transform="rotate(-24)" />
      <ellipse cx="28" cy="130.51" rx="19.19" ry="36.47" fill="#5f8458" fill-opacity="0.66" transform="rotate(20)" />
      <g transform="translate(0 0)">
        <ellipse cx="26.87" cy="0.00" rx="17.27" ry="26.87" fill="#c74038" fill-opacity="0.95" /><ellipse cx="19.00" cy="19.00" rx="17.27" ry="26.87" fill="#c74038" fill-opacity="0.95" /><ellipse cx="0.00" cy="26.87" rx="17.27" ry="26.87" fill="#c74038" fill-opacity="0.95" /><ellipse cx="-19.00" cy="19.00" rx="17.27" ry="26.87" fill="#c74038" fill-opacity="0.95" /><ellipse cx="-26.87" cy="0.00" rx="17.27" ry="26.87" fill="#c74038" fill-opacity="0.95" /><ellipse cx="-19.00" cy="-19.00" rx="17.27" ry="26.87" fill="#c74038" fill-opacity="0.95" /><ellipse cx="-0.00" cy="-26.87" rx="17.27" ry="26.87" fill="#c74038" fill-opacity="0.95" /><ellipse cx="19.00" cy="-19.00" rx="17.27" ry="26.87" fill="#c74038" fill-opacity="0.95" />
        <circle cx="0" cy="0" r="17.27" fill="#9f2d27" />
        <circle cx="0" cy="0" r="8.64" fill="#fff7f0" fill-opacity="0.72" />
      </g>
    </g>
    
    <g transform="translate(512.92 386.14) rotate(17.93)">
      <path d="M 0 0 C -8 114.86, 10 191.43, -6 280.76" stroke="#476b43" stroke-width="15.31" fill="none" stroke-linecap="round" />
      <ellipse cx="-20" cy="140.38" rx="28.08" ry="53.60" fill="#476b43" fill-opacity="0.75" transform="rotate(-24)" />
      <ellipse cx="28" cy="173.56" rx="25.52" ry="48.50" fill="#476b43" fill-opacity="0.66" transform="rotate(20)" />
      <g transform="translate(0 0)">
        <ellipse cx="35.73" cy="0.00" rx="22.97" ry="35.73" fill="#f0ad3d" fill-opacity="0.95" /><ellipse cx="25.27" cy="25.27" rx="22.97" ry="35.73" fill="#f0ad3d" fill-opacity="0.95" /><ellipse cx="0.00" cy="35.73" rx="22.97" ry="35.73" fill="#f0ad3d" fill-opacity="0.95" /><ellipse cx="-25.27" cy="25.27" rx="22.97" ry="35.73" fill="#f0ad3d" fill-opacity="0.95" /><ellipse cx="-35.73" cy="0.00" rx="22.97" ry="35.73" fill="#f0ad3d" fill-opacity="0.95" /><ellipse cx="-25.27" cy="-25.27" rx="22.97" ry="35.73" fill="#f0ad3d" fill-opacity="0.95" /><ellipse cx="-0.00" cy="-35.73" rx="22.97" ry="35.73" fill="#f0ad3d" fill-opacity="0.95" /><ellipse cx="25.27" cy="-25.27" rx="22.97" ry="35.73" fill="#f0ad3d" fill-opacity="0.95" />
        <circle cx="0" cy="0" r="22.97" fill="#9f2d27" />
        <circle cx="0" cy="0" r="11.49" fill="#fff7f0" fill-opacity="0.72" />
      </g>
    </g>
    
    <g transform="translate(576.37 444.11) rotate(-25.08)">
      <path d="M 0 0 C -8 88.49, 10 147.49, -6 216.32" stroke="#87a276" stroke-width="11.80" fill="none" stroke-linecap="round" />
      <ellipse cx="-20" cy="108.16" rx="21.63" ry="41.30" fill="#87a276" fill-opacity="0.75" transform="rotate(-24)" />
      <ellipse cx="28" cy="133.73" rx="19.67" ry="37.36" fill="#87a276" fill-opacity="0.66" transform="rotate(20)" />
      <g transform="translate(0 0)">
        <ellipse cx="27.53" cy="0.00" rx="17.70" ry="27.53" fill="#efc46f" fill-opacity="0.95" /><ellipse cx="19.47" cy="19.47" rx="17.70" ry="27.53" fill="#efc46f" fill-opacity="0.95" /><ellipse cx="0.00" cy="27.53" rx="17.70" ry="27.53" fill="#efc46f" fill-opacity="0.95" /><ellipse cx="-19.47" cy="19.47" rx="17.70" ry="27.53" fill="#efc46f" fill-opacity="0.95" /><ellipse cx="-27.53" cy="0.00" rx="17.70" ry="27.53" fill="#efc46f" fill-opacity="0.95" /><ellipse cx="-19.47" cy="-19.47" rx="17.70" ry="27.53" fill="#efc46f" fill-opacity="0.95" /><ellipse cx="-0.00" cy="-27.53" rx="17.70" ry="27.53" fill="#efc46f" fill-opacity="0.95" /><ellipse cx="19.47" cy="-19.47" rx="17.70" ry="27.53" fill="#efc46f" fill-opacity="0.95" />
        <circle cx="0" cy="0" r="17.70" fill="#9f2d27" />
        <circle cx="0" cy="0" r="8.85" fill="#fff7f0" fill-opacity="0.72" />
      </g>
    </g>
    
    <g transform="translate(382.82 382.81) rotate(-24.91)">
      <path d="M 0 0 C -8 90.80, 10 151.34, -6 221.97" stroke="#5f8458" stroke-width="12.11" fill="none" stroke-linecap="round" />
      <ellipse cx="-20" cy="110.98" rx="22.20" ry="42.38" fill="#5f8458" fill-opacity="0.75" transform="rotate(-24)" />
      <ellipse cx="28" cy="137.22" rx="20.18" ry="38.34" fill="#5f8458" fill-opacity="0.66" transform="rotate(20)" />
      <g transform="translate(0 0)">
        <ellipse cx="28.25" cy="0.00" rx="18.16" ry="28.25" fill="#f4d7ab" fill-opacity="0.95" /><ellipse cx="19.98" cy="19.98" rx="18.16" ry="28.25" fill="#f4d7ab" fill-opacity="0.95" /><ellipse cx="0.00" cy="28.25" rx="18.16" ry="28.25" fill="#f4d7ab" fill-opacity="0.95" /><ellipse cx="-19.98" cy="19.98" rx="18.16" ry="28.25" fill="#f4d7ab" fill-opacity="0.95" /><ellipse cx="-28.25" cy="0.00" rx="18.16" ry="28.25" fill="#f4d7ab" fill-opacity="0.95" /><ellipse cx="-19.98" cy="-19.98" rx="18.16" ry="28.25" fill="#f4d7ab" fill-opacity="0.95" /><ellipse cx="-0.00" cy="-28.25" rx="18.16" ry="28.25" fill="#f4d7ab" fill-opacity="0.95" /><ellipse cx="19.98" cy="-19.98" rx="18.16" ry="28.25" fill="#f4d7ab" fill-opacity="0.95" />
        <circle cx="0" cy="0" r="18.16" fill="#9f2d27" />
        <circle cx="0" cy="0" r="9.08" fill="#fff7f0" fill-opacity="0.72" />
      </g>
    </g>
    
    <g transform="translate(479.24 458.73) rotate(-9.71)">
      <path d="M 0 0 C -8 96.08, 10 160.13, -6 234.86" stroke="#476b43" stroke-width="12.81" fill="none" stroke-linecap="round" />
      <ellipse cx="-20" cy="117.43" rx="23.49" ry="44.84" fill="#476b43" fill-opacity="0.75" transform="rotate(-24)" />
      <ellipse cx="28" cy="145.19" rx="21.35" ry="40.57" fill="#476b43" fill-opacity="0.66" transform="rotate(20)" />
      <g transform="translate(0 0)">
        <ellipse cx="29.89" cy="0.00" rx="19.22" ry="29.89" fill="#c74038" fill-opacity="0.95" /><ellipse cx="21.14" cy="21.14" rx="19.22" ry="29.89" fill="#c74038" fill-opacity="0.95" /><ellipse cx="0.00" cy="29.89" rx="19.22" ry="29.89" fill="#c74038" fill-opacity="0.95" /><ellipse cx="-21.14" cy="21.14" rx="19.22" ry="29.89" fill="#c74038" fill-opacity="0.95" /><ellipse cx="-29.89" cy="0.00" rx="19.22" ry="29.89" fill="#c74038" fill-opacity="0.95" /><ellipse cx="-21.14" cy="-21.14" rx="19.22" ry="29.89" fill="#c74038" fill-opacity="0.95" /><ellipse cx="-0.00" cy="-29.89" rx="19.22" ry="29.89" fill="#c74038" fill-opacity="0.95" /><ellipse cx="21.14" cy="-21.14" rx="19.22" ry="29.89" fill="#c74038" fill-opacity="0.95" />
        <circle cx="0" cy="0" r="19.22" fill="#9f2d27" />
        <circle cx="0" cy="0" r="9.61" fill="#fff7f0" fill-opacity="0.72" />
      </g>
    </g>
    
    <g transform="translate(565.07 528.22) rotate(5.10)">
      <path d="M 0 0 C -8 75.48, 10 125.80, -6 184.50" stroke="#87a276" stroke-width="10.06" fill="none" stroke-linecap="round" />
      <ellipse cx="-20" cy="92.25" rx="18.45" ry="35.22" fill="#87a276" fill-opacity="0.75" transform="rotate(-24)" />
      <ellipse cx="28" cy="114.06" rx="16.77" ry="31.87" fill="#87a276" fill-opacity="0.66" transform="rotate(20)" />
      <g transform="translate(0 0)">
        <ellipse cx="23.48" cy="0.00" rx="15.10" ry="23.48" fill="#f0ad3d" fill-opacity="0.95" /><ellipse cx="16.60" cy="16.60" rx="15.10" ry="23.48" fill="#f0ad3d" fill-opacity="0.95" /><ellipse cx="0.00" cy="23.48" rx="15.10" ry="23.48" fill="#f0ad3d" fill-opacity="0.95" /><ellipse cx="-16.60" cy="16.60" rx="15.10" ry="23.48" fill="#f0ad3d" fill-opacity="0.95" /><ellipse cx="-23.48" cy="0.00" rx="15.10" ry="23.48" fill="#f0ad3d" fill-opacity="0.95" /><ellipse cx="-16.60" cy="-16.60" rx="15.10" ry="23.48" fill="#f0ad3d" fill-opacity="0.95" /><ellipse cx="-0.00" cy="-23.48" rx="15.10" ry="23.48" fill="#f0ad3d" fill-opacity="0.95" /><ellipse cx="16.60" cy="-16.60" rx="15.10" ry="23.48" fill="#f0ad3d" fill-opacity="0.95" />
        <circle cx="0" cy="0" r="15.10" fill="#9f2d27" />
        <circle cx="0" cy="0" r="7.55" fill="#fff7f0" fill-opacity="0.72" />
      </g>
    </g>
    
    <g transform="translate(400.95 306.10) rotate(-12.34)">
      <path d="M 0 0 C -8 106.91, 10 178.18, -6 261.34" stroke="#5f8458" stroke-width="14.25" fill="none" stroke-linecap="round" />
      <ellipse cx="-20" cy="130.67" rx="26.13" ry="49.89" fill="#5f8458" fill-opacity="0.75" transform="rotate(-24)" />
      <ellipse cx="28" cy="161.55" rx="23.76" ry="45.14" fill="#5f8458" fill-opacity="0.66" transform="rotate(20)" />
      <g transform="translate(0 0)">
        <ellipse cx="33.26" cy="0.00" rx="21.38" ry="33.26" fill="#efc46f" fill-opacity="0.95" /><ellipse cx="23.52" cy="23.52" rx="21.38" ry="33.26" fill="#efc46f" fill-opacity="0.95" /><ellipse cx="0.00" cy="33.26" rx="21.38" ry="33.26" fill="#efc46f" fill-opacity="0.95" /><ellipse cx="-23.52" cy="23.52" rx="21.38" ry="33.26" fill="#efc46f" fill-opacity="0.95" /><ellipse cx="-33.26" cy="0.00" rx="21.38" ry="33.26" fill="#efc46f" fill-opacity="0.95" /><ellipse cx="-23.52" cy="-23.52" rx="21.38" ry="33.26" fill="#efc46f" fill-opacity="0.95" /><ellipse cx="-0.00" cy="-33.26" rx="21.38" ry="33.26" fill="#efc46f" fill-opacity="0.95" /><ellipse cx="23.52" cy="-23.52" rx="21.38" ry="33.26" fill="#efc46f" fill-opacity="0.95" />
        <circle cx="0" cy="0" r="21.38" fill="#9f2d27" />
        <circle cx="0" cy="0" r="10.69" fill="#fff7f0" fill-opacity="0.72" />
      </g>
    </g>
    
  </g>
  <path d="M0 980 C220 920, 420 1030, 900 930 L900 1100 L0 1100 Z" fill="#ffffff" fill-opacity="0.22" />
</svg>
