<svg xmlns="http://www.w3.org/2000/svg" width="900" height="1100" viewBox="0 0 900 1100">
  <defs>
    <linearGradient id="bg" x1="0" y1="0" x2="0" y2="1">
      <stop offset="0%" stop-color="#fff5ef" />
      <stop offset="100%" stop-color="#f3eadb" />
    </linearGradient>
    <filter id="shadow" x="-20%" y="-20%" width="140%" height="140%">
      <feDropShadow dx="0" dy="22" stdDeviation="24" flood-color="#6c5d4f" flood-opacity="0.12" />
    </filter>
  </defs>
  <rect width="100%" height="100%" fill="url(#bg)" />
  <circle cx="730" cy="180" r="140" fill="#ffffff" fill-opacity="0.18" />
  <circle cx="150" cy="260" r="90" fill="#ffffff" fill-opacity="0.12" />
  
      <rect x="70" y="72" width="300" height="92" rx="24" fill="#ffffff" fill-opacity="0.34" />
      <text x="98" y="120" fill="#2f3a31" font-size="32" font-family="'PingFang SC','Microsoft YaHei',sans-serif" font-weight="600">晨耀双层</text>
      <text x="98" y="152" fill="#4e6152" font-size="18" font-family="'PingFang SC','Microsoft YaHei',sans-serif">开张 · 品牌活动</text>
    
  <g filter="url(#shadow)">
    <path d="M180 770 L720 770 L780 1080 L120 1080 Z" fill="#efe3c5" fill-opacity="0.9" />
  </g>
  <g>
    
    <g transform="translate(251.00 422.08) rotate(21.60)">
      <path d="M 0 0 C -8 97.22, 10 162.03, -6 237.65" stroke="#5f8458" stroke-width="12.96" fill="none" stroke-linecap="round" />
      <ellipse cx="-20" cy="118.82" rx="23.76" ry="45.37" fill="#5f8458" fill-opacity="0.75" transform="rotate(-24)" />
      <ellipse cx="28" cy="146.91" rx="21.60" ry="41.05" fill="#5f8458" fill-opacity="0.66" transform="rotate(20)" />
      <g transform="translate(0 0)">
        <ellipse cx="30.25" cy="0.00" rx="19.44" ry="30.25" fill="#c74038" fill-opacity="0.95" /><ellipse cx="21.39" cy="21.39" rx="19.44" ry="30.25" fill="#c74038" fill-opacity="0.95" /><ellipse cx="0.00" cy="30.25" rx="19.44" ry="30.25" fill="#c74038" fill-opacity="0.95" /><ellipse cx="-21.39" cy="21.39" rx="19.44" ry="30.25" fill="#c74038" fill-opacity="0.95" /><ellipse cx="-30.25" cy="0.00" rx="19.44" ry="30.25" fill="#c74038" fill-opacity="0.95" /><ellipse cx="-21.39" cy="-21.39" rx="19.44" ry="30.25" fill="#c74038" fill-opacity="0.95" /><ellipse cx="-0.00" cy="-30.25" rx="19.44" ry="30.25" fill="#c74038" fill-opacity="0.95" /><ellipse cx="21.39" cy="-21.39" rx="19.44" ry="30.25" fill="#c74038" fill-opacity="0.95" />
        <circle cx="0" cy="0" r="19.44" fill="#9f2d27" />
        <circle cx="0" cy="0" r="9.72" fill="#fff7f0" fill-opacity="0.72" />
      </g>
    </g>
    
    <g transform="translate(338.51 422.70) rotate(16.61)">
      <path d="M 0 0 C -8 102.25, 10 170.42, -6 249.95" stroke="#476b43" stroke-width="13.63" fill="none" stroke-linecap="round" />
      <ellipse cx="-20" cy="124.97" rx="24.99" ry="47.72" fill="#476b43" fill-opacity="0.75" transform="rotate(-24)" />
      <ellipse cx="28" cy="154.51" rx="22.72" ry="43.17" fill="#476b43" fill-opacity="0.66" transform="rotate(20)" />
      <g transform="translate(0 0)">
        <ellipse cx="31.81" cy="0.00" rx="20.45" ry="31.81" fill="#f0ad3d" fill-opacity="0.95" /><ellipse cx="22.49" cy="22.49" rx="20.45" ry="31.81" fill="#f0ad3d" fill-opacity="0.95" /><ellipse cx="0.00" cy="31.81" rx="20.45" ry="31.81" fill="#f0ad3d" fill-opacity="0.95" /><ellipse cx="-22.49" cy="22.49" rx="20.45" ry="31.81" fill="#f0ad3d" fill-opacity="0.95" /><ellipse cx="-31.81" cy="0.00" rx="20.45" ry="31.81" fill="#f0ad3d" fill-opacity="0.95" /><ellipse cx="-22.49" cy="-22.49" rx="20.45" ry="31.81" fill="#f0ad3d" fill-opacity="0.95" /><ellipse cx="-0.00" cy="-31.81" rx="20.45" ry="31.81" fill="#f0ad3d" fill-opacity="0.95" /><ellipse cx="22.49" cy="-22.49" rx="20.45" ry="31.81" fill="#f0ad3d" fill-opacity="0.95" />
        <circle cx="0" cy="0" r="20.45" fill="#9f2d27" />
        <circle cx="0" cy="0" r="10.23" fill="#fff7f0" fill-opacity="0.72" />
      </g>
    </g>
    
    <g transform="translate(624.99 368.50) rotate(24.30)">
      <path d="M 0 0 C -8 72.50, 10 120.84, -6 177.23" stroke="#87a276" stroke-width="9.67" fill="none" stroke-linecap="round" />
      <ellipse cx="-20" cy="88.62" rx="17.72" ry="33.84" fill="#87a276" fill-opacity="0.75" transform="rotate(-24)" />
      <ellipse cx="28" cy="109.56" rx="16.11" ry="30.61" fill="#87a276" fill-opacity="0.66" transform="rotate(20)" />
      <g transform="translate(0 0)">
        <ellipse cx="22.56" cy="0.00" rx="14.50" ry="22.56" fill="#efc46f" fill-opacity="0.95" /><ellipse cx="15.95" cy="15.95" rx="14.50" ry="22.56" fill="#efc46f" fill-opacity="0.95" /><ellipse cx="0.00" cy="22.56" rx="14.50" ry="22.56" fill="#efc46f" fill-opacity="0.95" /><ellipse cx="-15.95" cy="15.95" rx="14.50" ry="22.56" fill="#efc46f" fill-opacity="0.95" /><ellipse cx="-22.56" cy="0.00" rx="14.50" ry="22.56" fill="#efc46f" fill-opacity="0.95" /><ellipse cx="-15.95" cy="-15.95" rx="14.50" ry="22.56" fill="#efc46f" fill-opacity="0.95" /><ellipse cx="-0.00" cy="-22.56" rx="14.50" ry="22.56" fill="#efc46f" fill-opacity="0.95" /><ellipse cx="15.95" cy="-15.95" rx="14.50" ry="22.56" fill="#efc46f" fill-opacity="0.95" />
        <circle cx="0" cy="0" r="14.50" fill="#9f2d27" />
        <circle cx="0" cy="0" r="7.25" fill="#fff7f0" fill-opacity="0.72" />
      </g>
    </g>
    
    <g transform="translate(524.48 497.95) rotate(18.52)">
      <path d="M 0 0 C -8 78.49, 10 130.82, -6 191.87" stroke="#5f8458" stroke-width="10.47" fill="none" stroke-linecap="round" />
      <ellipse cx="-20" cy="95.93" rx="19.19" ry="36.63" fill="#5f8458" fill-opacity="0.75" transform="rotate(-24)" />
      <ellipse cx="28" cy="118.61" rx="17.44" ry="33.14" fill="#5f8458" fill-opacity="0.66" transform="rotate(20)" />
      <g transform="translate(0 0)">
        <ellipse cx="24.42" cy="0.00" rx="15.70" ry="24.42" fill="#f4d7ab" fill-opacity="0.95" /><ellipse cx="17.27" cy="17.27" rx="15.70" ry="24.42" fill="#f4d7ab" fill-opacity="0.95" /><ellipse cx="0.00" cy="24.42" rx="15.70" ry="24.42" fill="#f4d7ab" fill-opacity="0.95" /><ellipse cx="-17.27" cy="17.27" rx="15.70" ry="24.42" fill="#f4d7ab" fill-opacity="0.95" /><ellipse cx="-24.42" cy="0.00" rx="15.70" ry="24.42" fill="#f4d7ab" fill-opacity="0.95" /><ellipse cx="-17.27" cy="-17.27" rx="15.70" ry="24.42" fill="#f4d7ab" fill-opacity="0.95" /><ellipse cx="-0.00" cy="-24.42" rx="15.70" ry="24.42" fill="#f4d7ab" fill-opacity="0.95" /><ellipse cx="17.27" cy="-17.27" rx="15.70" ry="24.42" fill="#f4d7ab" fill-opacity="0.95" />
        <circle cx="0" cy="0" r="15.70" fill="#9f2d27" />
        <circle cx="0" cy="0" r="7.85" fill="#fff7f0" fill-opacity="0.72" />
      </g>
    </g>
    
    <g transform="translate(281.62 410.23) rotate(1.04)">
      <path d="M 0 0 C -8 94.07, 10 156.78, -6 229.95" stroke="#476b43" stroke-width="12.54" fill="none" stroke-linecap="round" />
      <ellipse cx="-20" cy="114.97" rx="22.99" ry="43.90" fill="#476b43" fill-opacity="0.75" transform="rotate(-24)" />
      <ellipse cx="28" cy="142.15" rx="20.90" ry="39.72" fill="#476b43" fill-opacity="0.66" transform="rotate(20)" />
      <g transform="translate(0 0)">
        <ellipse cx="29.27" cy="0.00" rx="18.81" ry="29.27" fill="#c74038" fill-opacity="0.95" /><ellipse cx="20.69" cy="20.69" rx="18.81" ry="29.27" fill="#c74038" fill-opacity="0.95" /><ellipse cx="0.00" cy="29.27" rx="18.81" ry="29.27" fill="#c74038" fill-opacity="0.95" /><ellipse cx="-20.69" cy="20.69" rx="18.81" ry="29.27" fill="#c74038" fill-opacity="0.95" /><ellipse cx="-29.27" cy="0.00" rx="18.81" ry="29.27" fill="#c74038" fill-opacity="0.95" /><ellipse cx="-20.69" cy="-20.69" rx="18.81" ry="29.27" fill="#c74038" fill-opacity="0.95" /><ellipse cx="-0.00" cy="-29.27" rx="18.81" ry="29.27" fill="#c74038" fill-opacity="0.95" /><ellipse cx="20.69" cy="-20.69" rx="18.81" ry="29.27" fill="#c74038" fill-opacity="0.95" />
        <circle cx="0" cy="0" r="18.81" fill="#9f2d27" />
        <circle cx="0" cy="0" r="9.41" fill="#fff7f0" fill-opacity="0.72" />
      </g>
    </g>
    
    <g transform="translate(517.77 513.29) rotate(0.85)">
      <path d="M 0 0 C -8 86.26, 10 143.76, -6 210.85" stroke="#87a276" stroke-width="11.50" fill="none" stroke-linecap="round" />
      <ellipse cx="-20" cy="105.42" rx="21.08" ry="40.25" fill="#87a276" fill-opacity="0.75" transform="rotate(-24)" />
      <ellipse cx="28" cy="130.34" rx="19.17" ry="36.42" fill="#87a276" fill-opacity="0.66" transform="rotate(20)" />
      <g transform="translate(0 0)">
        <ellipse cx="26.83" cy="0.00" rx="17.25" ry="26.83" fill="#f0ad3d" fill-opacity="0.95" /><ellipse cx="18.98" cy="18.98" rx="17.25" ry="26.83" fill="#f0ad3d" fill-opacity="0.95" /><ellipse cx="0.00" cy="26.83" rx="17.25" ry="26.83" fill="#f0ad3d" fill-opacity="0.95" /><ellipse cx="-18.98" cy="18.98" rx="17.25" ry="26.83" fill="#f0ad3d" fill-opacity="0.95" /><ellipse cx="-26.83" cy="0.00" rx="17.25" ry="26.83" fill="#f0ad3d" fill-opacity="0.95" /><ellipse cx="-18.98" cy="-18.98" rx="17.25" ry="26.83" fill="#f0ad3d" fill-opacity="0.95" /><ellipse cx="-0.00" cy="-26.83" rx="17.25" ry="26.83" fill="#f0ad3d" fill-opacity="0.95" /><ellipse cx="18.98" cy="-18.98" rx="17.25" ry="26.83" fill="#f0ad3d" fill-opacity="0.95" />
        <circle cx="0" cy="0" r="17.25" fill="#9f2d27" />
        <circle cx="0" cy="0" r="8.63" fill="#fff7f0" fill-opacity="0.72" />
      </g>
    </g>
    
  </g>
  <path d="M0 980 C220 920, 420 1030, 900 930 L900 1100 L0 1100 Z" fill="#ffffff" fill-opacity="0.22" />
</svg>
