<svg xmlns="http://www.w3.org/2000/svg" width="900" height="1100" viewBox="0 0 900 1100">
  <defs>
    <linearGradient id="bg" x1="0" y1="0" x2="0" y2="1">
      <stop offset="0%" stop-color="#fff5ef" />
      <stop offset="100%" stop-color="#f3eadb" />
    </linearGradient>
    <filter id="shadow" x="-20%" y="-20%" width="140%" height="140%">
      <feDropShadow dx="0" dy="22" stdDeviation="24" flood-color="#6c5d4f" flood-opacity="0.12" />
    </filter>
  </defs>
  <rect width="100%" height="100%" fill="url(#bg)" />
  <circle cx="730" cy="180" r="140" fill="#ffffff" fill-opacity="0.18" />
  <circle cx="150" cy="260" r="90" fill="#ffffff" fill-opacity="0.12" />
  
      <rect x="70" y="72" width="300" height="92" rx="24" fill="#ffffff" fill-opacity="0.34" />
      <text x="98" y="120" fill="#2f3a31" font-size="32" font-family="'PingFang SC','Microsoft YaHei',sans-serif" font-weight="600">繁荣序章</text>
      <text x="98" y="152" fill="#4e6152" font-size="18" font-family="'PingFang SC','Microsoft YaHei',sans-serif">开业 · 商务</text>
    
  <g filter="url(#shadow)">
    <path d="M180 770 L720 770 L780 1080 L120 1080 Z" fill="#efe3c5" fill-opacity="0.9" />
  </g>
  <g>
    
    <g transform="translate(488.68 368.09) rotate(4.96)">
      <path d="M 0 0 C -8 102.72, 10 171.20, -6 251.09" stroke="#5f8458" stroke-width="13.70" fill="none" stroke-linecap="round" />
      <ellipse cx="-20" cy="125.55" rx="25.11" ry="47.94" fill="#5f8458" fill-opacity="0.75" transform="rotate(-24)" />
      <ellipse cx="28" cy="155.22" rx="22.83" ry="43.37" fill="#5f8458" fill-opacity="0.66" transform="rotate(20)" />
      <g transform="translate(0 0)">
        <ellipse cx="31.96" cy="0.00" rx="20.54" ry="31.96" fill="#c74038" fill-opacity="0.95" /><ellipse cx="22.60" cy="22.60" rx="20.54" ry="31.96" fill="#c74038" fill-opacity="0.95" /><ellipse cx="0.00" cy="31.96" rx="20.54" ry="31.96" fill="#c74038" fill-opacity="0.95" /><ellipse cx="-22.60" cy="22.60" rx="20.54" ry="31.96" fill="#c74038" fill-opacity="0.95" /><ellipse cx="-31.96" cy="0.00" rx="20.54" ry="31.96" fill="#c74038" fill-opacity="0.95" /><ellipse cx="-22.60" cy="-22.60" rx="20.54" ry="31.96" fill="#c74038" fill-opacity="0.95" /><ellipse cx="-0.00" cy="-31.96" rx="20.54" ry="31.96" fill="#c74038" fill-opacity="0.95" /><ellipse cx="22.60" cy="-22.60" rx="20.54" ry="31.96" fill="#c74038" fill-opacity="0.95" />
        <circle cx="0" cy="0" r="20.54" fill="#9f2d27" />
        <circle cx="0" cy="0" r="10.27" fill="#fff7f0" fill-opacity="0.72" />
      </g>
    </g>
    
    <g transform="translate(479.17 295.22) rotate(5.96)">
      <path d="M 0 0 C -8 105.86, 10 176.43, -6 258.76" stroke="#476b43" stroke-width="14.11" fill="none" stroke-linecap="round" />
      <ellipse cx="-20" cy="129.38" rx="25.88" ry="49.40" fill="#476b43" fill-opacity="0.75" transform="rotate(-24)" />
      <ellipse cx="28" cy="159.96" rx="23.52" ry="44.69" fill="#476b43" fill-opacity="0.66" transform="rotate(20)" />
      <g transform="translate(0 0)">
        <ellipse cx="32.93" cy="0.00" rx="21.17" ry="32.93" fill="#f0ad3d" fill-opacity="0.95" /><ellipse cx="23.29" cy="23.29" rx="21.17" ry="32.93" fill="#f0ad3d" fill-opacity="0.95" /><ellipse cx="0.00" cy="32.93" rx="21.17" ry="32.93" fill="#f0ad3d" fill-opacity="0.95" /><ellipse cx="-23.29" cy="23.29" rx="21.17" ry="32.93" fill="#f0ad3d" fill-opacity="0.95" /><ellipse cx="-32.93" cy="0.00" rx="21.17" ry="32.93" fill="#f0ad3d" fill-opacity="0.95" /><ellipse cx="-23.29" cy="-23.29" rx="21.17" ry="32.93" fill="#f0ad3d" fill-opacity="0.95" /><ellipse cx="-0.00" cy="-32.93" rx="21.17" ry="32.93" fill="#f0ad3d" fill-opacity="0.95" /><ellipse cx="23.29" cy="-23.29" rx="21.17" ry="32.93" fill="#f0ad3d" fill-opacity="0.95" />
        <circle cx="0" cy="0" r="21.17" fill="#9f2d27" />
        <circle cx="0" cy="0" r="10.59" fill="#fff7f0" fill-opacity="0.72" />
      </g>
    </g>
    
    <g transform="translate(386.02 545.43) rotate(12.70)">
      <path d="M 0 0 C -8 109.94, 10 183.23, -6 268.74" stroke="#87a276" stroke-width="14.66" fill="none" stroke-linecap="round" />
      <ellipse cx="-20" cy="134.37" rx="26.87" ry="51.30" fill="#87a276" fill-opacity="0.75" transform="rotate(-24)" />
      <ellipse cx="28" cy="166.13" rx="24.43" ry="46.42" fill="#87a276" fill-opacity="0.66" transform="rotate(20)" />
      <g transform="translate(0 0)">
        <ellipse cx="34.20" cy="0.00" rx="21.99" ry="34.20" fill="#efc46f" fill-opacity="0.95" /><ellipse cx="24.19" cy="24.19" rx="21.99" ry="34.20" fill="#efc46f" fill-opacity="0.95" /><ellipse cx="0.00" cy="34.20" rx="21.99" ry="34.20" fill="#efc46f" fill-opacity="0.95" /><ellipse cx="-24.19" cy="24.19" rx="21.99" ry="34.20" fill="#efc46f" fill-opacity="0.95" /><ellipse cx="-34.20" cy="0.00" rx="21.99" ry="34.20" fill="#efc46f" fill-opacity="0.95" /><ellipse cx="-24.19" cy="-24.19" rx="21.99" ry="34.20" fill="#efc46f" fill-opacity="0.95" /><ellipse cx="-0.00" cy="-34.20" rx="21.99" ry="34.20" fill="#efc46f" fill-opacity="0.95" /><ellipse cx="24.19" cy="-24.19" rx="21.99" ry="34.20" fill="#efc46f" fill-opacity="0.95" />
        <circle cx="0" cy="0" r="21.99" fill="#9f2d27" />
        <circle cx="0" cy="0" r="10.99" fill="#fff7f0" fill-opacity="0.72" />
      </g>
    </g>
    
    <g transform="translate(657.71 340.33) rotate(8.71)">
      <path d="M 0 0 C -8 106.44, 10 177.39, -6 260.18" stroke="#5f8458" stroke-width="14.19" fill="none" stroke-linecap="round" />
      <ellipse cx="-20" cy="130.09" rx="26.02" ry="49.67" fill="#5f8458" fill-opacity="0.75" transform="rotate(-24)" />
      <ellipse cx="28" cy="160.84" rx="23.65" ry="44.94" fill="#5f8458" fill-opacity="0.66" transform="rotate(20)" />
      <g transform="translate(0 0)">
        <ellipse cx="33.11" cy="0.00" rx="21.29" ry="33.11" fill="#f4d7ab" fill-opacity="0.95" /><ellipse cx="23.41" cy="23.41" rx="21.29" ry="33.11" fill="#f4d7ab" fill-opacity="0.95" /><ellipse cx="0.00" cy="33.11" rx="21.29" ry="33.11" fill="#f4d7ab" fill-opacity="0.95" /><ellipse cx="-23.41" cy="23.41" rx="21.29" ry="33.11" fill="#f4d7ab" fill-opacity="0.95" /><ellipse cx="-33.11" cy="0.00" rx="21.29" ry="33.11" fill="#f4d7ab" fill-opacity="0.95" /><ellipse cx="-23.41" cy="-23.41" rx="21.29" ry="33.11" fill="#f4d7ab" fill-opacity="0.95" /><ellipse cx="-0.00" cy="-33.11" rx="21.29" ry="33.11" fill="#f4d7ab" fill-opacity="0.95" /><ellipse cx="23.41" cy="-23.41" rx="21.29" ry="33.11" fill="#f4d7ab" fill-opacity="0.95" />
        <circle cx="0" cy="0" r="21.29" fill="#9f2d27" />
        <circle cx="0" cy="0" r="10.64" fill="#fff7f0" fill-opacity="0.72" />
      </g>
    </g>
    
    <g transform="translate(588.26 295.62) rotate(-23.31)">
      <path d="M 0 0 C -8 76.31, 10 127.18, -6 186.53" stroke="#476b43" stroke-width="10.17" fill="none" stroke-linecap="round" />
      <ellipse cx="-20" cy="93.26" rx="18.65" ry="35.61" fill="#476b43" fill-opacity="0.75" transform="rotate(-24)" />
      <ellipse cx="28" cy="115.31" rx="16.96" ry="32.22" fill="#476b43" fill-opacity="0.66" transform="rotate(20)" />
      <g transform="translate(0 0)">
        <ellipse cx="23.74" cy="0.00" rx="15.26" ry="23.74" fill="#c74038" fill-opacity="0.95" /><ellipse cx="16.79" cy="16.79" rx="15.26" ry="23.74" fill="#c74038" fill-opacity="0.95" /><ellipse cx="0.00" cy="23.74" rx="15.26" ry="23.74" fill="#c74038" fill-opacity="0.95" /><ellipse cx="-16.79" cy="16.79" rx="15.26" ry="23.74" fill="#c74038" fill-opacity="0.95" /><ellipse cx="-23.74" cy="0.00" rx="15.26" ry="23.74" fill="#c74038" fill-opacity="0.95" /><ellipse cx="-16.79" cy="-16.79" rx="15.26" ry="23.74" fill="#c74038" fill-opacity="0.95" /><ellipse cx="-0.00" cy="-23.74" rx="15.26" ry="23.74" fill="#c74038" fill-opacity="0.95" /><ellipse cx="16.79" cy="-16.79" rx="15.26" ry="23.74" fill="#c74038" fill-opacity="0.95" />
        <circle cx="0" cy="0" r="15.26" fill="#9f2d27" />
        <circle cx="0" cy="0" r="7.63" fill="#fff7f0" fill-opacity="0.72" />
      </g>
    </g>
    
    <g transform="translate(657.12 401.78) rotate(-12.10)">
      <path d="M 0 0 C -8 106.26, 10 177.11, -6 259.76" stroke="#87a276" stroke-width="14.17" fill="none" stroke-linecap="round" />
      <ellipse cx="-20" cy="129.88" rx="25.98" ry="49.59" fill="#87a276" fill-opacity="0.75" transform="rotate(-24)" />
      <ellipse cx="28" cy="160.58" rx="23.61" ry="44.87" fill="#87a276" fill-opacity="0.66" transform="rotate(20)" />
      <g transform="translate(0 0)">
        <ellipse cx="33.06" cy="0.00" rx="21.25" ry="33.06" fill="#f0ad3d" fill-opacity="0.95" /><ellipse cx="23.38" cy="23.38" rx="21.25" ry="33.06" fill="#f0ad3d" fill-opacity="0.95" /><ellipse cx="0.00" cy="33.06" rx="21.25" ry="33.06" fill="#f0ad3d" fill-opacity="0.95" /><ellipse cx="-23.38" cy="23.38" rx="21.25" ry="33.06" fill="#f0ad3d" fill-opacity="0.95" /><ellipse cx="-33.06" cy="0.00" rx="21.25" ry="33.06" fill="#f0ad3d" fill-opacity="0.95" /><ellipse cx="-23.38" cy="-23.38" rx="21.25" ry="33.06" fill="#f0ad3d" fill-opacity="0.95" /><ellipse cx="-0.00" cy="-33.06" rx="21.25" ry="33.06" fill="#f0ad3d" fill-opacity="0.95" /><ellipse cx="23.38" cy="-23.38" rx="21.25" ry="33.06" fill="#f0ad3d" fill-opacity="0.95" />
        <circle cx="0" cy="0" r="21.25" fill="#9f2d27" />
        <circle cx="0" cy="0" r="10.63" fill="#fff7f0" fill-opacity="0.72" />
      </g>
    </g>
    
  </g>
  <path d="M0 980 C220 920, 420 1030, 900 930 L900 1100 L0 1100 Z" fill="#ffffff" fill-opacity="0.22" />
</svg>
