<svg xmlns="http://www.w3.org/2000/svg" width="900" height="1100" viewBox="0 0 900 1100">
  <defs>
    <linearGradient id="bg" x1="0" y1="0" x2="0" y2="1">
      <stop offset="0%" stop-color="#fff5ef" />
      <stop offset="100%" stop-color="#f3eadb" />
    </linearGradient>
    <filter id="shadow" x="-20%" y="-20%" width="140%" height="140%">
      <feDropShadow dx="0" dy="22" stdDeviation="24" flood-color="#6c5d4f" flood-opacity="0.12" />
    </filter>
  </defs>
  <rect width="100%" height="100%" fill="url(#bg)" />
  <circle cx="730" cy="180" r="140" fill="#ffffff" fill-opacity="0.18" />
  <circle cx="150" cy="260" r="90" fill="#ffffff" fill-opacity="0.12" />
  
      <rect x="70" y="72" width="300" height="92" rx="24" fill="#ffffff" fill-opacity="0.34" />
      <text x="98" y="120" fill="#2f3a31" font-size="32" font-family="'PingFang SC','Microsoft YaHei',sans-serif" font-weight="600">盛启花礼</text>
      <text x="98" y="152" fill="#4e6152" font-size="18" font-family="'PingFang SC','Microsoft YaHei',sans-serif">开业 · 商务</text>
    
  <g filter="url(#shadow)">
    <path d="M180 770 L720 770 L780 1080 L120 1080 Z" fill="#efe3c5" fill-opacity="0.9" />
  </g>
  <g>
    
    <g transform="translate(660.35 523.76) rotate(15.76)">
      <path d="M 0 0 C -8 110.52, 10 184.20, -6 270.16" stroke="#5f8458" stroke-width="14.74" fill="none" stroke-linecap="round" />
      <ellipse cx="-20" cy="135.08" rx="27.02" ry="51.58" fill="#5f8458" fill-opacity="0.75" transform="rotate(-24)" />
      <ellipse cx="28" cy="167.01" rx="24.56" ry="46.66" fill="#5f8458" fill-opacity="0.66" transform="rotate(20)" />
      <g transform="translate(0 0)">
        <ellipse cx="34.38" cy="0.00" rx="22.10" ry="34.38" fill="#c74038" fill-opacity="0.95" /><ellipse cx="24.31" cy="24.31" rx="22.10" ry="34.38" fill="#c74038" fill-opacity="0.95" /><ellipse cx="0.00" cy="34.38" rx="22.10" ry="34.38" fill="#c74038" fill-opacity="0.95" /><ellipse cx="-24.31" cy="24.31" rx="22.10" ry="34.38" fill="#c74038" fill-opacity="0.95" /><ellipse cx="-34.38" cy="0.00" rx="22.10" ry="34.38" fill="#c74038" fill-opacity="0.95" /><ellipse cx="-24.31" cy="-24.31" rx="22.10" ry="34.38" fill="#c74038" fill-opacity="0.95" /><ellipse cx="-0.00" cy="-34.38" rx="22.10" ry="34.38" fill="#c74038" fill-opacity="0.95" /><ellipse cx="24.31" cy="-24.31" rx="22.10" ry="34.38" fill="#c74038" fill-opacity="0.95" />
        <circle cx="0" cy="0" r="22.10" fill="#9f2d27" />
        <circle cx="0" cy="0" r="11.05" fill="#fff7f0" fill-opacity="0.72" />
      </g>
    </g>
    
    <g transform="translate(639.70 506.86) rotate(4.47)">
      <path d="M 0 0 C -8 74.69, 10 124.49, -6 182.59" stroke="#476b43" stroke-width="9.96" fill="none" stroke-linecap="round" />
      <ellipse cx="-20" cy="91.29" rx="18.26" ry="34.86" fill="#476b43" fill-opacity="0.75" transform="rotate(-24)" />
      <ellipse cx="28" cy="112.87" rx="16.60" ry="31.54" fill="#476b43" fill-opacity="0.66" transform="rotate(20)" />
      <g transform="translate(0 0)">
        <ellipse cx="23.24" cy="0.00" rx="14.94" ry="23.24" fill="#f0ad3d" fill-opacity="0.95" /><ellipse cx="16.43" cy="16.43" rx="14.94" ry="23.24" fill="#f0ad3d" fill-opacity="0.95" /><ellipse cx="0.00" cy="23.24" rx="14.94" ry="23.24" fill="#f0ad3d" fill-opacity="0.95" /><ellipse cx="-16.43" cy="16.43" rx="14.94" ry="23.24" fill="#f0ad3d" fill-opacity="0.95" /><ellipse cx="-23.24" cy="0.00" rx="14.94" ry="23.24" fill="#f0ad3d" fill-opacity="0.95" /><ellipse cx="-16.43" cy="-16.43" rx="14.94" ry="23.24" fill="#f0ad3d" fill-opacity="0.95" /><ellipse cx="-0.00" cy="-23.24" rx="14.94" ry="23.24" fill="#f0ad3d" fill-opacity="0.95" /><ellipse cx="16.43" cy="-16.43" rx="14.94" ry="23.24" fill="#f0ad3d" fill-opacity="0.95" />
        <circle cx="0" cy="0" r="14.94" fill="#9f2d27" />
        <circle cx="0" cy="0" r="7.47" fill="#fff7f0" fill-opacity="0.72" />
      </g>
    </g>
    
    <g transform="translate(200.22 479.96) rotate(14.08)">
      <path d="M 0 0 C -8 79.73, 10 132.88, -6 194.89" stroke="#87a276" stroke-width="10.63" fill="none" stroke-linecap="round" />
      <ellipse cx="-20" cy="97.45" rx="19.49" ry="37.21" fill="#87a276" fill-opacity="0.75" transform="rotate(-24)" />
      <ellipse cx="28" cy="120.48" rx="17.72" ry="33.66" fill="#87a276" fill-opacity="0.66" transform="rotate(20)" />
      <g transform="translate(0 0)">
        <ellipse cx="24.80" cy="0.00" rx="15.95" ry="24.80" fill="#efc46f" fill-opacity="0.95" /><ellipse cx="17.54" cy="17.54" rx="15.95" ry="24.80" fill="#efc46f" fill-opacity="0.95" /><ellipse cx="0.00" cy="24.80" rx="15.95" ry="24.80" fill="#efc46f" fill-opacity="0.95" /><ellipse cx="-17.54" cy="17.54" rx="15.95" ry="24.80" fill="#efc46f" fill-opacity="0.95" /><ellipse cx="-24.80" cy="0.00" rx="15.95" ry="24.80" fill="#efc46f" fill-opacity="0.95" /><ellipse cx="-17.54" cy="-17.54" rx="15.95" ry="24.80" fill="#efc46f" fill-opacity="0.95" /><ellipse cx="-0.00" cy="-24.80" rx="15.95" ry="24.80" fill="#efc46f" fill-opacity="0.95" /><ellipse cx="17.54" cy="-17.54" rx="15.95" ry="24.80" fill="#efc46f" fill-opacity="0.95" />
        <circle cx="0" cy="0" r="15.95" fill="#9f2d27" />
        <circle cx="0" cy="0" r="7.97" fill="#fff7f0" fill-opacity="0.72" />
      </g>
    </g>
    
    <g transform="translate(227.65 351.16) rotate(-23.90)">
      <path d="M 0 0 C -8 85.15, 10 141.92, -6 208.16" stroke="#5f8458" stroke-width="11.35" fill="none" stroke-linecap="round" />
      <ellipse cx="-20" cy="104.08" rx="20.82" ry="39.74" fill="#5f8458" fill-opacity="0.75" transform="rotate(-24)" />
      <ellipse cx="28" cy="128.68" rx="18.92" ry="35.95" fill="#5f8458" fill-opacity="0.66" transform="rotate(20)" />
      <g transform="translate(0 0)">
        <ellipse cx="26.49" cy="0.00" rx="17.03" ry="26.49" fill="#f4d7ab" fill-opacity="0.95" /><ellipse cx="18.73" cy="18.73" rx="17.03" ry="26.49" fill="#f4d7ab" fill-opacity="0.95" /><ellipse cx="0.00" cy="26.49" rx="17.03" ry="26.49" fill="#f4d7ab" fill-opacity="0.95" /><ellipse cx="-18.73" cy="18.73" rx="17.03" ry="26.49" fill="#f4d7ab" fill-opacity="0.95" /><ellipse cx="-26.49" cy="0.00" rx="17.03" ry="26.49" fill="#f4d7ab" fill-opacity="0.95" /><ellipse cx="-18.73" cy="-18.73" rx="17.03" ry="26.49" fill="#f4d7ab" fill-opacity="0.95" /><ellipse cx="-0.00" cy="-26.49" rx="17.03" ry="26.49" fill="#f4d7ab" fill-opacity="0.95" /><ellipse cx="18.73" cy="-18.73" rx="17.03" ry="26.49" fill="#f4d7ab" fill-opacity="0.95" />
        <circle cx="0" cy="0" r="17.03" fill="#9f2d27" />
        <circle cx="0" cy="0" r="8.52" fill="#fff7f0" fill-opacity="0.72" />
      </g>
    </g>
    
    <g transform="translate(292.79 399.50) rotate(24.18)">
      <path d="M 0 0 C -8 85.23, 10 142.04, -6 208.33" stroke="#476b43" stroke-width="11.36" fill="none" stroke-linecap="round" />
      <ellipse cx="-20" cy="104.17" rx="20.83" ry="39.77" fill="#476b43" fill-opacity="0.75" transform="rotate(-24)" />
      <ellipse cx="28" cy="128.79" rx="18.94" ry="35.98" fill="#476b43" fill-opacity="0.66" transform="rotate(20)" />
      <g transform="translate(0 0)">
        <ellipse cx="26.51" cy="0.00" rx="17.05" ry="26.51" fill="#c74038" fill-opacity="0.95" /><ellipse cx="18.75" cy="18.75" rx="17.05" ry="26.51" fill="#c74038" fill-opacity="0.95" /><ellipse cx="0.00" cy="26.51" rx="17.05" ry="26.51" fill="#c74038" fill-opacity="0.95" /><ellipse cx="-18.75" cy="18.75" rx="17.05" ry="26.51" fill="#c74038" fill-opacity="0.95" /><ellipse cx="-26.51" cy="0.00" rx="17.05" ry="26.51" fill="#c74038" fill-opacity="0.95" /><ellipse cx="-18.75" cy="-18.75" rx="17.05" ry="26.51" fill="#c74038" fill-opacity="0.95" /><ellipse cx="-0.00" cy="-26.51" rx="17.05" ry="26.51" fill="#c74038" fill-opacity="0.95" /><ellipse cx="18.75" cy="-18.75" rx="17.05" ry="26.51" fill="#c74038" fill-opacity="0.95" />
        <circle cx="0" cy="0" r="17.05" fill="#9f2d27" />
        <circle cx="0" cy="0" r="8.52" fill="#fff7f0" fill-opacity="0.72" />
      </g>
    </g>
    
    <g transform="translate(675.39 332.09) rotate(14.49)">
      <path d="M 0 0 C -8 114.58, 10 190.97, -6 280.10" stroke="#87a276" stroke-width="15.28" fill="none" stroke-linecap="round" />
      <ellipse cx="-20" cy="140.05" rx="28.01" ry="53.47" fill="#87a276" fill-opacity="0.75" transform="rotate(-24)" />
      <ellipse cx="28" cy="173.15" rx="25.46" ry="48.38" fill="#87a276" fill-opacity="0.66" transform="rotate(20)" />
      <g transform="translate(0 0)">
        <ellipse cx="35.65" cy="0.00" rx="22.92" ry="35.65" fill="#f0ad3d" fill-opacity="0.95" /><ellipse cx="25.21" cy="25.21" rx="22.92" ry="35.65" fill="#f0ad3d" fill-opacity="0.95" /><ellipse cx="0.00" cy="35.65" rx="22.92" ry="35.65" fill="#f0ad3d" fill-opacity="0.95" /><ellipse cx="-25.21" cy="25.21" rx="22.92" ry="35.65" fill="#f0ad3d" fill-opacity="0.95" /><ellipse cx="-35.65" cy="0.00" rx="22.92" ry="35.65" fill="#f0ad3d" fill-opacity="0.95" /><ellipse cx="-25.21" cy="-25.21" rx="22.92" ry="35.65" fill="#f0ad3d" fill-opacity="0.95" /><ellipse cx="-0.00" cy="-35.65" rx="22.92" ry="35.65" fill="#f0ad3d" fill-opacity="0.95" /><ellipse cx="25.21" cy="-25.21" rx="22.92" ry="35.65" fill="#f0ad3d" fill-opacity="0.95" />
        <circle cx="0" cy="0" r="22.92" fill="#9f2d27" />
        <circle cx="0" cy="0" r="11.46" fill="#fff7f0" fill-opacity="0.72" />
      </g>
    </g>
    
  </g>
  <path d="M0 980 C220 920, 420 1030, 900 930 L900 1100 L0 1100 Z" fill="#ffffff" fill-opacity="0.22" />
</svg>
