<svg xmlns="http://www.w3.org/2000/svg" width="900" height="1100" viewBox="0 0 900 1100">
  <defs>
    <linearGradient id="bg" x1="0" y1="0" x2="0" y2="1">
      <stop offset="0%" stop-color="#fff5ef" />
      <stop offset="100%" stop-color="#f3eadb" />
    </linearGradient>
    <filter id="shadow" x="-20%" y="-20%" width="140%" height="140%">
      <feDropShadow dx="0" dy="22" stdDeviation="24" flood-color="#6c5d4f" flood-opacity="0.12" />
    </filter>
  </defs>
  <rect width="100%" height="100%" fill="url(#bg)" />
  <circle cx="730" cy="180" r="140" fill="#ffffff" fill-opacity="0.18" />
  <circle cx="150" cy="260" r="90" fill="#ffffff" fill-opacity="0.12" />
  
      <rect x="70" y="72" width="300" height="92" rx="24" fill="#ffffff" fill-opacity="0.34" />
      <text x="98" y="120" fill="#2f3a31" font-size="32" font-family="'PingFang SC','Microsoft YaHei',sans-serif" font-weight="600">前厅迎禧</text>
      <text x="98" y="152" fill="#4e6152" font-size="18" font-family="'PingFang SC','Microsoft YaHei',sans-serif">展厅 · 商务花礼</text>
    
  <g filter="url(#shadow)">
    <path d="M180 770 L720 770 L780 1080 L120 1080 Z" fill="#efe3c5" fill-opacity="0.9" />
  </g>
  <g>
    
    <g transform="translate(361.21 465.54) rotate(-25.64)">
      <path d="M 0 0 C -8 83.65, 10 139.41, -6 204.47" stroke="#5f8458" stroke-width="11.15" fill="none" stroke-linecap="round" />
      <ellipse cx="-20" cy="102.23" rx="20.45" ry="39.03" fill="#5f8458" fill-opacity="0.75" transform="rotate(-24)" />
      <ellipse cx="28" cy="126.40" rx="18.59" ry="35.32" fill="#5f8458" fill-opacity="0.66" transform="rotate(20)" />
      <g transform="translate(0 0)">
        <ellipse cx="26.02" cy="0.00" rx="16.73" ry="26.02" fill="#c74038" fill-opacity="0.95" /><ellipse cx="18.40" cy="18.40" rx="16.73" ry="26.02" fill="#c74038" fill-opacity="0.95" /><ellipse cx="0.00" cy="26.02" rx="16.73" ry="26.02" fill="#c74038" fill-opacity="0.95" /><ellipse cx="-18.40" cy="18.40" rx="16.73" ry="26.02" fill="#c74038" fill-opacity="0.95" /><ellipse cx="-26.02" cy="0.00" rx="16.73" ry="26.02" fill="#c74038" fill-opacity="0.95" /><ellipse cx="-18.40" cy="-18.40" rx="16.73" ry="26.02" fill="#c74038" fill-opacity="0.95" /><ellipse cx="-0.00" cy="-26.02" rx="16.73" ry="26.02" fill="#c74038" fill-opacity="0.95" /><ellipse cx="18.40" cy="-18.40" rx="16.73" ry="26.02" fill="#c74038" fill-opacity="0.95" />
        <circle cx="0" cy="0" r="16.73" fill="#9f2d27" />
        <circle cx="0" cy="0" r="8.36" fill="#fff7f0" fill-opacity="0.72" />
      </g>
    </g>
    
    <g transform="translate(304.93 309.89) rotate(15.92)">
      <path d="M 0 0 C -8 99.14, 10 165.23, -6 242.34" stroke="#476b43" stroke-width="13.22" fill="none" stroke-linecap="round" />
      <ellipse cx="-20" cy="121.17" rx="24.23" ry="46.27" fill="#476b43" fill-opacity="0.75" transform="rotate(-24)" />
      <ellipse cx="28" cy="149.81" rx="22.03" ry="41.86" fill="#476b43" fill-opacity="0.66" transform="rotate(20)" />
      <g transform="translate(0 0)">
        <ellipse cx="30.84" cy="0.00" rx="19.83" ry="30.84" fill="#f0ad3d" fill-opacity="0.95" /><ellipse cx="21.81" cy="21.81" rx="19.83" ry="30.84" fill="#f0ad3d" fill-opacity="0.95" /><ellipse cx="0.00" cy="30.84" rx="19.83" ry="30.84" fill="#f0ad3d" fill-opacity="0.95" /><ellipse cx="-21.81" cy="21.81" rx="19.83" ry="30.84" fill="#f0ad3d" fill-opacity="0.95" /><ellipse cx="-30.84" cy="0.00" rx="19.83" ry="30.84" fill="#f0ad3d" fill-opacity="0.95" /><ellipse cx="-21.81" cy="-21.81" rx="19.83" ry="30.84" fill="#f0ad3d" fill-opacity="0.95" /><ellipse cx="-0.00" cy="-30.84" rx="19.83" ry="30.84" fill="#f0ad3d" fill-opacity="0.95" /><ellipse cx="21.81" cy="-21.81" rx="19.83" ry="30.84" fill="#f0ad3d" fill-opacity="0.95" />
        <circle cx="0" cy="0" r="19.83" fill="#9f2d27" />
        <circle cx="0" cy="0" r="9.91" fill="#fff7f0" fill-opacity="0.72" />
      </g>
    </g>
    
    <g transform="translate(204.01 294.64) rotate(-2.88)">
      <path d="M 0 0 C -8 114.57, 10 190.95, -6 280.07" stroke="#87a276" stroke-width="15.28" fill="none" stroke-linecap="round" />
      <ellipse cx="-20" cy="140.03" rx="28.01" ry="53.47" fill="#87a276" fill-opacity="0.75" transform="rotate(-24)" />
      <ellipse cx="28" cy="173.13" rx="25.46" ry="48.37" fill="#87a276" fill-opacity="0.66" transform="rotate(20)" />
      <g transform="translate(0 0)">
        <ellipse cx="35.64" cy="0.00" rx="22.91" ry="35.64" fill="#efc46f" fill-opacity="0.95" /><ellipse cx="25.20" cy="25.20" rx="22.91" ry="35.64" fill="#efc46f" fill-opacity="0.95" /><ellipse cx="0.00" cy="35.64" rx="22.91" ry="35.64" fill="#efc46f" fill-opacity="0.95" /><ellipse cx="-25.20" cy="25.20" rx="22.91" ry="35.64" fill="#efc46f" fill-opacity="0.95" /><ellipse cx="-35.64" cy="0.00" rx="22.91" ry="35.64" fill="#efc46f" fill-opacity="0.95" /><ellipse cx="-25.20" cy="-25.20" rx="22.91" ry="35.64" fill="#efc46f" fill-opacity="0.95" /><ellipse cx="-0.00" cy="-35.64" rx="22.91" ry="35.64" fill="#efc46f" fill-opacity="0.95" /><ellipse cx="25.20" cy="-25.20" rx="22.91" ry="35.64" fill="#efc46f" fill-opacity="0.95" />
        <circle cx="0" cy="0" r="22.91" fill="#9f2d27" />
        <circle cx="0" cy="0" r="11.46" fill="#fff7f0" fill-opacity="0.72" />
      </g>
    </g>
    
    <g transform="translate(371.29 430.28) rotate(5.19)">
      <path d="M 0 0 C -8 89.40, 10 149.00, -6 218.54" stroke="#5f8458" stroke-width="11.92" fill="none" stroke-linecap="round" />
      <ellipse cx="-20" cy="109.27" rx="21.85" ry="41.72" fill="#5f8458" fill-opacity="0.75" transform="rotate(-24)" />
      <ellipse cx="28" cy="135.10" rx="19.87" ry="37.75" fill="#5f8458" fill-opacity="0.66" transform="rotate(20)" />
      <g transform="translate(0 0)">
        <ellipse cx="27.81" cy="0.00" rx="17.88" ry="27.81" fill="#f4d7ab" fill-opacity="0.95" /><ellipse cx="19.67" cy="19.67" rx="17.88" ry="27.81" fill="#f4d7ab" fill-opacity="0.95" /><ellipse cx="0.00" cy="27.81" rx="17.88" ry="27.81" fill="#f4d7ab" fill-opacity="0.95" /><ellipse cx="-19.67" cy="19.67" rx="17.88" ry="27.81" fill="#f4d7ab" fill-opacity="0.95" /><ellipse cx="-27.81" cy="0.00" rx="17.88" ry="27.81" fill="#f4d7ab" fill-opacity="0.95" /><ellipse cx="-19.67" cy="-19.67" rx="17.88" ry="27.81" fill="#f4d7ab" fill-opacity="0.95" /><ellipse cx="-0.00" cy="-27.81" rx="17.88" ry="27.81" fill="#f4d7ab" fill-opacity="0.95" /><ellipse cx="19.67" cy="-19.67" rx="17.88" ry="27.81" fill="#f4d7ab" fill-opacity="0.95" />
        <circle cx="0" cy="0" r="17.88" fill="#9f2d27" />
        <circle cx="0" cy="0" r="8.94" fill="#fff7f0" fill-opacity="0.72" />
      </g>
    </g>
    
    <g transform="translate(599.17 546.76) rotate(13.90)">
      <path d="M 0 0 C -8 75.79, 10 126.32, -6 185.27" stroke="#476b43" stroke-width="10.11" fill="none" stroke-linecap="round" />
      <ellipse cx="-20" cy="92.63" rx="18.53" ry="35.37" fill="#476b43" fill-opacity="0.75" transform="rotate(-24)" />
      <ellipse cx="28" cy="114.53" rx="16.84" ry="32.00" fill="#476b43" fill-opacity="0.66" transform="rotate(20)" />
      <g transform="translate(0 0)">
        <ellipse cx="23.58" cy="0.00" rx="15.16" ry="23.58" fill="#c74038" fill-opacity="0.95" /><ellipse cx="16.67" cy="16.67" rx="15.16" ry="23.58" fill="#c74038" fill-opacity="0.95" /><ellipse cx="0.00" cy="23.58" rx="15.16" ry="23.58" fill="#c74038" fill-opacity="0.95" /><ellipse cx="-16.67" cy="16.67" rx="15.16" ry="23.58" fill="#c74038" fill-opacity="0.95" /><ellipse cx="-23.58" cy="0.00" rx="15.16" ry="23.58" fill="#c74038" fill-opacity="0.95" /><ellipse cx="-16.67" cy="-16.67" rx="15.16" ry="23.58" fill="#c74038" fill-opacity="0.95" /><ellipse cx="-0.00" cy="-23.58" rx="15.16" ry="23.58" fill="#c74038" fill-opacity="0.95" /><ellipse cx="16.67" cy="-16.67" rx="15.16" ry="23.58" fill="#c74038" fill-opacity="0.95" />
        <circle cx="0" cy="0" r="15.16" fill="#9f2d27" />
        <circle cx="0" cy="0" r="7.58" fill="#fff7f0" fill-opacity="0.72" />
      </g>
    </g>
    
    <g transform="translate(418.47 344.86) rotate(-17.05)">
      <path d="M 0 0 C -8 95.93, 10 159.89, -6 234.50" stroke="#87a276" stroke-width="12.79" fill="none" stroke-linecap="round" />
      <ellipse cx="-20" cy="117.25" rx="23.45" ry="44.77" fill="#87a276" fill-opacity="0.75" transform="rotate(-24)" />
      <ellipse cx="28" cy="144.97" rx="21.32" ry="40.50" fill="#87a276" fill-opacity="0.66" transform="rotate(20)" />
      <g transform="translate(0 0)">
        <ellipse cx="29.85" cy="0.00" rx="19.19" ry="29.85" fill="#f0ad3d" fill-opacity="0.95" /><ellipse cx="21.10" cy="21.10" rx="19.19" ry="29.85" fill="#f0ad3d" fill-opacity="0.95" /><ellipse cx="0.00" cy="29.85" rx="19.19" ry="29.85" fill="#f0ad3d" fill-opacity="0.95" /><ellipse cx="-21.10" cy="21.10" rx="19.19" ry="29.85" fill="#f0ad3d" fill-opacity="0.95" /><ellipse cx="-29.85" cy="0.00" rx="19.19" ry="29.85" fill="#f0ad3d" fill-opacity="0.95" /><ellipse cx="-21.10" cy="-21.10" rx="19.19" ry="29.85" fill="#f0ad3d" fill-opacity="0.95" /><ellipse cx="-0.00" cy="-29.85" rx="19.19" ry="29.85" fill="#f0ad3d" fill-opacity="0.95" /><ellipse cx="21.10" cy="-21.10" rx="19.19" ry="29.85" fill="#f0ad3d" fill-opacity="0.95" />
        <circle cx="0" cy="0" r="19.19" fill="#9f2d27" />
        <circle cx="0" cy="0" r="9.59" fill="#fff7f0" fill-opacity="0.72" />
      </g>
    </g>
    
  </g>
  <path d="M0 980 C220 920, 420 1030, 900 930 L900 1100 L0 1100 Z" fill="#ffffff" fill-opacity="0.22" />
</svg>
