<svg xmlns="http://www.w3.org/2000/svg" width="900" height="1100" viewBox="0 0 900 1100">
  <defs>
    <linearGradient id="bg" x1="0" y1="0" x2="0" y2="1">
      <stop offset="0%" stop-color="#fff5ef" />
      <stop offset="100%" stop-color="#f3eadb" />
    </linearGradient>
    <filter id="shadow" x="-20%" y="-20%" width="140%" height="140%">
      <feDropShadow dx="0" dy="22" stdDeviation="24" flood-color="#6c5d4f" flood-opacity="0.12" />
    </filter>
  </defs>
  <rect width="100%" height="100%" fill="url(#bg)" />
  <circle cx="730" cy="180" r="140" fill="#ffffff" fill-opacity="0.18" />
  <circle cx="150" cy="260" r="90" fill="#ffffff" fill-opacity="0.12" />
  
      <rect x="70" y="72" width="300" height="92" rx="24" fill="#ffffff" fill-opacity="0.34" />
      <text x="98" y="120" fill="#2f3a31" font-size="32" font-family="'PingFang SC','Microsoft YaHei',sans-serif" font-weight="600">盛启花礼</text>
      <text x="98" y="152" fill="#4e6152" font-size="18" font-family="'PingFang SC','Microsoft YaHei',sans-serif">开业 · 商务</text>
    
  <g filter="url(#shadow)">
    <path d="M180 770 L720 770 L780 1080 L120 1080 Z" fill="#efe3c5" fill-opacity="0.9" />
  </g>
  <g>
    
    <g transform="translate(503.86 436.29) rotate(21.24)">
      <path d="M 0 0 C -8 104.32, 10 173.87, -6 255.01" stroke="#5f8458" stroke-width="13.91" fill="none" stroke-linecap="round" />
      <ellipse cx="-20" cy="127.51" rx="25.50" ry="48.68" fill="#5f8458" fill-opacity="0.75" transform="rotate(-24)" />
      <ellipse cx="28" cy="157.64" rx="23.18" ry="44.05" fill="#5f8458" fill-opacity="0.66" transform="rotate(20)" />
      <g transform="translate(0 0)">
        <ellipse cx="32.46" cy="0.00" rx="20.86" ry="32.46" fill="#c74038" fill-opacity="0.95" /><ellipse cx="22.95" cy="22.95" rx="20.86" ry="32.46" fill="#c74038" fill-opacity="0.95" /><ellipse cx="0.00" cy="32.46" rx="20.86" ry="32.46" fill="#c74038" fill-opacity="0.95" /><ellipse cx="-22.95" cy="22.95" rx="20.86" ry="32.46" fill="#c74038" fill-opacity="0.95" /><ellipse cx="-32.46" cy="0.00" rx="20.86" ry="32.46" fill="#c74038" fill-opacity="0.95" /><ellipse cx="-22.95" cy="-22.95" rx="20.86" ry="32.46" fill="#c74038" fill-opacity="0.95" /><ellipse cx="-0.00" cy="-32.46" rx="20.86" ry="32.46" fill="#c74038" fill-opacity="0.95" /><ellipse cx="22.95" cy="-22.95" rx="20.86" ry="32.46" fill="#c74038" fill-opacity="0.95" />
        <circle cx="0" cy="0" r="20.86" fill="#9f2d27" />
        <circle cx="0" cy="0" r="10.43" fill="#fff7f0" fill-opacity="0.72" />
      </g>
    </g>
    
    <g transform="translate(608.75 367.00) rotate(-24.64)">
      <path d="M 0 0 C -8 112.14, 10 186.91, -6 274.13" stroke="#476b43" stroke-width="14.95" fill="none" stroke-linecap="round" />
      <ellipse cx="-20" cy="137.06" rx="27.41" ry="52.33" fill="#476b43" fill-opacity="0.75" transform="rotate(-24)" />
      <ellipse cx="28" cy="169.46" rx="24.92" ry="47.35" fill="#476b43" fill-opacity="0.66" transform="rotate(20)" />
      <g transform="translate(0 0)">
        <ellipse cx="34.89" cy="0.00" rx="22.43" ry="34.89" fill="#f0ad3d" fill-opacity="0.95" /><ellipse cx="24.67" cy="24.67" rx="22.43" ry="34.89" fill="#f0ad3d" fill-opacity="0.95" /><ellipse cx="0.00" cy="34.89" rx="22.43" ry="34.89" fill="#f0ad3d" fill-opacity="0.95" /><ellipse cx="-24.67" cy="24.67" rx="22.43" ry="34.89" fill="#f0ad3d" fill-opacity="0.95" /><ellipse cx="-34.89" cy="0.00" rx="22.43" ry="34.89" fill="#f0ad3d" fill-opacity="0.95" /><ellipse cx="-24.67" cy="-24.67" rx="22.43" ry="34.89" fill="#f0ad3d" fill-opacity="0.95" /><ellipse cx="-0.00" cy="-34.89" rx="22.43" ry="34.89" fill="#f0ad3d" fill-opacity="0.95" /><ellipse cx="24.67" cy="-24.67" rx="22.43" ry="34.89" fill="#f0ad3d" fill-opacity="0.95" />
        <circle cx="0" cy="0" r="22.43" fill="#9f2d27" />
        <circle cx="0" cy="0" r="11.21" fill="#fff7f0" fill-opacity="0.72" />
      </g>
    </g>
    
    <g transform="translate(563.81 321.03) rotate(6.18)">
      <path d="M 0 0 C -8 96.46, 10 160.77, -6 235.80" stroke="#87a276" stroke-width="12.86" fill="none" stroke-linecap="round" />
      <ellipse cx="-20" cy="117.90" rx="23.58" ry="45.02" fill="#87a276" fill-opacity="0.75" transform="rotate(-24)" />
      <ellipse cx="28" cy="145.77" rx="21.44" ry="40.73" fill="#87a276" fill-opacity="0.66" transform="rotate(20)" />
      <g transform="translate(0 0)">
        <ellipse cx="30.01" cy="0.00" rx="19.29" ry="30.01" fill="#efc46f" fill-opacity="0.95" /><ellipse cx="21.22" cy="21.22" rx="19.29" ry="30.01" fill="#efc46f" fill-opacity="0.95" /><ellipse cx="0.00" cy="30.01" rx="19.29" ry="30.01" fill="#efc46f" fill-opacity="0.95" /><ellipse cx="-21.22" cy="21.22" rx="19.29" ry="30.01" fill="#efc46f" fill-opacity="0.95" /><ellipse cx="-30.01" cy="0.00" rx="19.29" ry="30.01" fill="#efc46f" fill-opacity="0.95" /><ellipse cx="-21.22" cy="-21.22" rx="19.29" ry="30.01" fill="#efc46f" fill-opacity="0.95" /><ellipse cx="-0.00" cy="-30.01" rx="19.29" ry="30.01" fill="#efc46f" fill-opacity="0.95" /><ellipse cx="21.22" cy="-21.22" rx="19.29" ry="30.01" fill="#efc46f" fill-opacity="0.95" />
        <circle cx="0" cy="0" r="19.29" fill="#9f2d27" />
        <circle cx="0" cy="0" r="9.65" fill="#fff7f0" fill-opacity="0.72" />
      </g>
    </g>
    
    <g transform="translate(342.67 327.68) rotate(-22.88)">
      <path d="M 0 0 C -8 87.38, 10 145.63, -6 213.58" stroke="#5f8458" stroke-width="11.65" fill="none" stroke-linecap="round" />
      <ellipse cx="-20" cy="106.79" rx="21.36" ry="40.78" fill="#5f8458" fill-opacity="0.75" transform="rotate(-24)" />
      <ellipse cx="28" cy="132.03" rx="19.42" ry="36.89" fill="#5f8458" fill-opacity="0.66" transform="rotate(20)" />
      <g transform="translate(0 0)">
        <ellipse cx="27.18" cy="0.00" rx="17.48" ry="27.18" fill="#f4d7ab" fill-opacity="0.95" /><ellipse cx="19.22" cy="19.22" rx="17.48" ry="27.18" fill="#f4d7ab" fill-opacity="0.95" /><ellipse cx="0.00" cy="27.18" rx="17.48" ry="27.18" fill="#f4d7ab" fill-opacity="0.95" /><ellipse cx="-19.22" cy="19.22" rx="17.48" ry="27.18" fill="#f4d7ab" fill-opacity="0.95" /><ellipse cx="-27.18" cy="0.00" rx="17.48" ry="27.18" fill="#f4d7ab" fill-opacity="0.95" /><ellipse cx="-19.22" cy="-19.22" rx="17.48" ry="27.18" fill="#f4d7ab" fill-opacity="0.95" /><ellipse cx="-0.00" cy="-27.18" rx="17.48" ry="27.18" fill="#f4d7ab" fill-opacity="0.95" /><ellipse cx="19.22" cy="-19.22" rx="17.48" ry="27.18" fill="#f4d7ab" fill-opacity="0.95" />
        <circle cx="0" cy="0" r="17.48" fill="#9f2d27" />
        <circle cx="0" cy="0" r="8.74" fill="#fff7f0" fill-opacity="0.72" />
      </g>
    </g>
    
    <g transform="translate(304.25 538.14) rotate(-22.07)">
      <path d="M 0 0 C -8 76.63, 10 127.71, -6 187.31" stroke="#476b43" stroke-width="10.22" fill="none" stroke-linecap="round" />
      <ellipse cx="-20" cy="93.66" rx="18.73" ry="35.76" fill="#476b43" fill-opacity="0.75" transform="rotate(-24)" />
      <ellipse cx="28" cy="115.79" rx="17.03" ry="32.35" fill="#476b43" fill-opacity="0.66" transform="rotate(20)" />
      <g transform="translate(0 0)">
        <ellipse cx="23.84" cy="0.00" rx="15.33" ry="23.84" fill="#c74038" fill-opacity="0.95" /><ellipse cx="16.86" cy="16.86" rx="15.33" ry="23.84" fill="#c74038" fill-opacity="0.95" /><ellipse cx="0.00" cy="23.84" rx="15.33" ry="23.84" fill="#c74038" fill-opacity="0.95" /><ellipse cx="-16.86" cy="16.86" rx="15.33" ry="23.84" fill="#c74038" fill-opacity="0.95" /><ellipse cx="-23.84" cy="0.00" rx="15.33" ry="23.84" fill="#c74038" fill-opacity="0.95" /><ellipse cx="-16.86" cy="-16.86" rx="15.33" ry="23.84" fill="#c74038" fill-opacity="0.95" /><ellipse cx="-0.00" cy="-23.84" rx="15.33" ry="23.84" fill="#c74038" fill-opacity="0.95" /><ellipse cx="16.86" cy="-16.86" rx="15.33" ry="23.84" fill="#c74038" fill-opacity="0.95" />
        <circle cx="0" cy="0" r="15.33" fill="#9f2d27" />
        <circle cx="0" cy="0" r="7.66" fill="#fff7f0" fill-opacity="0.72" />
      </g>
    </g>
    
    <g transform="translate(275.70 349.61) rotate(-1.71)">
      <path d="M 0 0 C -8 87.02, 10 145.04, -6 212.73" stroke="#87a276" stroke-width="11.60" fill="none" stroke-linecap="round" />
      <ellipse cx="-20" cy="106.36" rx="21.27" ry="40.61" fill="#87a276" fill-opacity="0.75" transform="rotate(-24)" />
      <ellipse cx="28" cy="131.50" rx="19.34" ry="36.74" fill="#87a276" fill-opacity="0.66" transform="rotate(20)" />
      <g transform="translate(0 0)">
        <ellipse cx="27.07" cy="0.00" rx="17.40" ry="27.07" fill="#f0ad3d" fill-opacity="0.95" /><ellipse cx="19.14" cy="19.14" rx="17.40" ry="27.07" fill="#f0ad3d" fill-opacity="0.95" /><ellipse cx="0.00" cy="27.07" rx="17.40" ry="27.07" fill="#f0ad3d" fill-opacity="0.95" /><ellipse cx="-19.14" cy="19.14" rx="17.40" ry="27.07" fill="#f0ad3d" fill-opacity="0.95" /><ellipse cx="-27.07" cy="0.00" rx="17.40" ry="27.07" fill="#f0ad3d" fill-opacity="0.95" /><ellipse cx="-19.14" cy="-19.14" rx="17.40" ry="27.07" fill="#f0ad3d" fill-opacity="0.95" /><ellipse cx="-0.00" cy="-27.07" rx="17.40" ry="27.07" fill="#f0ad3d" fill-opacity="0.95" /><ellipse cx="19.14" cy="-19.14" rx="17.40" ry="27.07" fill="#f0ad3d" fill-opacity="0.95" />
        <circle cx="0" cy="0" r="17.40" fill="#9f2d27" />
        <circle cx="0" cy="0" r="8.70" fill="#fff7f0" fill-opacity="0.72" />
      </g>
    </g>
    
  </g>
  <path d="M0 980 C220 920, 420 1030, 900 930 L900 1100 L0 1100 Z" fill="#ffffff" fill-opacity="0.22" />
</svg>
