<svg xmlns="http://www.w3.org/2000/svg" width="900" height="1100" viewBox="0 0 900 1100">
  <defs>
    <linearGradient id="bg" x1="0" y1="0" x2="0" y2="1">
      <stop offset="0%" stop-color="#fff5ef" />
      <stop offset="100%" stop-color="#f3eadb" />
    </linearGradient>
    <filter id="shadow" x="-20%" y="-20%" width="140%" height="140%">
      <feDropShadow dx="0" dy="22" stdDeviation="24" flood-color="#6c5d4f" flood-opacity="0.12" />
    </filter>
  </defs>
  <rect width="100%" height="100%" fill="url(#bg)" />
  <circle cx="730" cy="180" r="140" fill="#ffffff" fill-opacity="0.18" />
  <circle cx="150" cy="260" r="90" fill="#ffffff" fill-opacity="0.12" />
  
      <rect x="70" y="72" width="300" height="92" rx="24" fill="#ffffff" fill-opacity="0.34" />
      <text x="98" y="120" fill="#2f3a31" font-size="32" font-family="'PingFang SC','Microsoft YaHei',sans-serif" font-weight="600">鸿彩启程</text>
      <text x="98" y="152" fill="#4e6152" font-size="18" font-family="'PingFang SC','Microsoft YaHei',sans-serif">开张 · 品牌活动</text>
    
  <g filter="url(#shadow)">
    <path d="M180 770 L720 770 L780 1080 L120 1080 Z" fill="#efe3c5" fill-opacity="0.9" />
  </g>
  <g>
    
    <g transform="translate(601.00 414.87) rotate(-20.46)">
      <path d="M 0 0 C -8 78.57, 10 130.96, -6 192.07" stroke="#5f8458" stroke-width="10.48" fill="none" stroke-linecap="round" />
      <ellipse cx="-20" cy="96.03" rx="19.21" ry="36.67" fill="#5f8458" fill-opacity="0.75" transform="rotate(-24)" />
      <ellipse cx="28" cy="118.73" rx="17.46" ry="33.18" fill="#5f8458" fill-opacity="0.66" transform="rotate(20)" />
      <g transform="translate(0 0)">
        <ellipse cx="24.45" cy="0.00" rx="15.71" ry="24.45" fill="#c74038" fill-opacity="0.95" /><ellipse cx="17.29" cy="17.29" rx="15.71" ry="24.45" fill="#c74038" fill-opacity="0.95" /><ellipse cx="0.00" cy="24.45" rx="15.71" ry="24.45" fill="#c74038" fill-opacity="0.95" /><ellipse cx="-17.29" cy="17.29" rx="15.71" ry="24.45" fill="#c74038" fill-opacity="0.95" /><ellipse cx="-24.45" cy="0.00" rx="15.71" ry="24.45" fill="#c74038" fill-opacity="0.95" /><ellipse cx="-17.29" cy="-17.29" rx="15.71" ry="24.45" fill="#c74038" fill-opacity="0.95" /><ellipse cx="-0.00" cy="-24.45" rx="15.71" ry="24.45" fill="#c74038" fill-opacity="0.95" /><ellipse cx="17.29" cy="-17.29" rx="15.71" ry="24.45" fill="#c74038" fill-opacity="0.95" />
        <circle cx="0" cy="0" r="15.71" fill="#9f2d27" />
        <circle cx="0" cy="0" r="7.86" fill="#fff7f0" fill-opacity="0.72" />
      </g>
    </g>
    
    <g transform="translate(572.56 423.51) rotate(-5.67)">
      <path d="M 0 0 C -8 75.30, 10 125.50, -6 184.07" stroke="#476b43" stroke-width="10.04" fill="none" stroke-linecap="round" />
      <ellipse cx="-20" cy="92.04" rx="18.41" ry="35.14" fill="#476b43" fill-opacity="0.75" transform="rotate(-24)" />
      <ellipse cx="28" cy="113.79" rx="16.73" ry="31.79" fill="#476b43" fill-opacity="0.66" transform="rotate(20)" />
      <g transform="translate(0 0)">
        <ellipse cx="23.43" cy="0.00" rx="15.06" ry="23.43" fill="#f0ad3d" fill-opacity="0.95" /><ellipse cx="16.57" cy="16.57" rx="15.06" ry="23.43" fill="#f0ad3d" fill-opacity="0.95" /><ellipse cx="0.00" cy="23.43" rx="15.06" ry="23.43" fill="#f0ad3d" fill-opacity="0.95" /><ellipse cx="-16.57" cy="16.57" rx="15.06" ry="23.43" fill="#f0ad3d" fill-opacity="0.95" /><ellipse cx="-23.43" cy="0.00" rx="15.06" ry="23.43" fill="#f0ad3d" fill-opacity="0.95" /><ellipse cx="-16.57" cy="-16.57" rx="15.06" ry="23.43" fill="#f0ad3d" fill-opacity="0.95" /><ellipse cx="-0.00" cy="-23.43" rx="15.06" ry="23.43" fill="#f0ad3d" fill-opacity="0.95" /><ellipse cx="16.57" cy="-16.57" rx="15.06" ry="23.43" fill="#f0ad3d" fill-opacity="0.95" />
        <circle cx="0" cy="0" r="15.06" fill="#9f2d27" />
        <circle cx="0" cy="0" r="7.53" fill="#fff7f0" fill-opacity="0.72" />
      </g>
    </g>
    
    <g transform="translate(547.12 396.67) rotate(-14.01)">
      <path d="M 0 0 C -8 93.05, 10 155.08, -6 227.46" stroke="#87a276" stroke-width="12.41" fill="none" stroke-linecap="round" />
      <ellipse cx="-20" cy="113.73" rx="22.75" ry="43.42" fill="#87a276" fill-opacity="0.75" transform="rotate(-24)" />
      <ellipse cx="28" cy="140.61" rx="20.68" ry="39.29" fill="#87a276" fill-opacity="0.66" transform="rotate(20)" />
      <g transform="translate(0 0)">
        <ellipse cx="28.95" cy="0.00" rx="18.61" ry="28.95" fill="#efc46f" fill-opacity="0.95" /><ellipse cx="20.47" cy="20.47" rx="18.61" ry="28.95" fill="#efc46f" fill-opacity="0.95" /><ellipse cx="0.00" cy="28.95" rx="18.61" ry="28.95" fill="#efc46f" fill-opacity="0.95" /><ellipse cx="-20.47" cy="20.47" rx="18.61" ry="28.95" fill="#efc46f" fill-opacity="0.95" /><ellipse cx="-28.95" cy="0.00" rx="18.61" ry="28.95" fill="#efc46f" fill-opacity="0.95" /><ellipse cx="-20.47" cy="-20.47" rx="18.61" ry="28.95" fill="#efc46f" fill-opacity="0.95" /><ellipse cx="-0.00" cy="-28.95" rx="18.61" ry="28.95" fill="#efc46f" fill-opacity="0.95" /><ellipse cx="20.47" cy="-20.47" rx="18.61" ry="28.95" fill="#efc46f" fill-opacity="0.95" />
        <circle cx="0" cy="0" r="18.61" fill="#9f2d27" />
        <circle cx="0" cy="0" r="9.31" fill="#fff7f0" fill-opacity="0.72" />
      </g>
    </g>
    
    <g transform="translate(407.56 500.38) rotate(-13.61)">
      <path d="M 0 0 C -8 92.22, 10 153.71, -6 225.44" stroke="#5f8458" stroke-width="12.30" fill="none" stroke-linecap="round" />
      <ellipse cx="-20" cy="112.72" rx="22.54" ry="43.04" fill="#5f8458" fill-opacity="0.75" transform="rotate(-24)" />
      <ellipse cx="28" cy="139.36" rx="20.49" ry="38.94" fill="#5f8458" fill-opacity="0.66" transform="rotate(20)" />
      <g transform="translate(0 0)">
        <ellipse cx="28.69" cy="0.00" rx="18.44" ry="28.69" fill="#f4d7ab" fill-opacity="0.95" /><ellipse cx="20.29" cy="20.29" rx="18.44" ry="28.69" fill="#f4d7ab" fill-opacity="0.95" /><ellipse cx="0.00" cy="28.69" rx="18.44" ry="28.69" fill="#f4d7ab" fill-opacity="0.95" /><ellipse cx="-20.29" cy="20.29" rx="18.44" ry="28.69" fill="#f4d7ab" fill-opacity="0.95" /><ellipse cx="-28.69" cy="0.00" rx="18.44" ry="28.69" fill="#f4d7ab" fill-opacity="0.95" /><ellipse cx="-20.29" cy="-20.29" rx="18.44" ry="28.69" fill="#f4d7ab" fill-opacity="0.95" /><ellipse cx="-0.00" cy="-28.69" rx="18.44" ry="28.69" fill="#f4d7ab" fill-opacity="0.95" /><ellipse cx="20.29" cy="-20.29" rx="18.44" ry="28.69" fill="#f4d7ab" fill-opacity="0.95" />
        <circle cx="0" cy="0" r="18.44" fill="#9f2d27" />
        <circle cx="0" cy="0" r="9.22" fill="#fff7f0" fill-opacity="0.72" />
      </g>
    </g>
    
    <g transform="translate(661.93 555.60) rotate(9.61)">
      <path d="M 0 0 C -8 85.74, 10 142.91, -6 209.60" stroke="#476b43" stroke-width="11.43" fill="none" stroke-linecap="round" />
      <ellipse cx="-20" cy="104.80" rx="20.96" ry="40.01" fill="#476b43" fill-opacity="0.75" transform="rotate(-24)" />
      <ellipse cx="28" cy="129.57" rx="19.05" ry="36.20" fill="#476b43" fill-opacity="0.66" transform="rotate(20)" />
      <g transform="translate(0 0)">
        <ellipse cx="26.68" cy="0.00" rx="17.15" ry="26.68" fill="#c74038" fill-opacity="0.95" /><ellipse cx="18.86" cy="18.86" rx="17.15" ry="26.68" fill="#c74038" fill-opacity="0.95" /><ellipse cx="0.00" cy="26.68" rx="17.15" ry="26.68" fill="#c74038" fill-opacity="0.95" /><ellipse cx="-18.86" cy="18.86" rx="17.15" ry="26.68" fill="#c74038" fill-opacity="0.95" /><ellipse cx="-26.68" cy="0.00" rx="17.15" ry="26.68" fill="#c74038" fill-opacity="0.95" /><ellipse cx="-18.86" cy="-18.86" rx="17.15" ry="26.68" fill="#c74038" fill-opacity="0.95" /><ellipse cx="-0.00" cy="-26.68" rx="17.15" ry="26.68" fill="#c74038" fill-opacity="0.95" /><ellipse cx="18.86" cy="-18.86" rx="17.15" ry="26.68" fill="#c74038" fill-opacity="0.95" />
        <circle cx="0" cy="0" r="17.15" fill="#9f2d27" />
        <circle cx="0" cy="0" r="8.57" fill="#fff7f0" fill-opacity="0.72" />
      </g>
    </g>
    
    <g transform="translate(676.48 316.53) rotate(-12.14)">
      <path d="M 0 0 C -8 99.94, 10 166.57, -6 244.31" stroke="#87a276" stroke-width="13.33" fill="none" stroke-linecap="round" />
      <ellipse cx="-20" cy="122.15" rx="24.43" ry="46.64" fill="#87a276" fill-opacity="0.75" transform="rotate(-24)" />
      <ellipse cx="28" cy="151.03" rx="22.21" ry="42.20" fill="#87a276" fill-opacity="0.66" transform="rotate(20)" />
      <g transform="translate(0 0)">
        <ellipse cx="31.09" cy="0.00" rx="19.99" ry="31.09" fill="#f0ad3d" fill-opacity="0.95" /><ellipse cx="21.99" cy="21.99" rx="19.99" ry="31.09" fill="#f0ad3d" fill-opacity="0.95" /><ellipse cx="0.00" cy="31.09" rx="19.99" ry="31.09" fill="#f0ad3d" fill-opacity="0.95" /><ellipse cx="-21.99" cy="21.99" rx="19.99" ry="31.09" fill="#f0ad3d" fill-opacity="0.95" /><ellipse cx="-31.09" cy="0.00" rx="19.99" ry="31.09" fill="#f0ad3d" fill-opacity="0.95" /><ellipse cx="-21.99" cy="-21.99" rx="19.99" ry="31.09" fill="#f0ad3d" fill-opacity="0.95" /><ellipse cx="-0.00" cy="-31.09" rx="19.99" ry="31.09" fill="#f0ad3d" fill-opacity="0.95" /><ellipse cx="21.99" cy="-21.99" rx="19.99" ry="31.09" fill="#f0ad3d" fill-opacity="0.95" />
        <circle cx="0" cy="0" r="19.99" fill="#9f2d27" />
        <circle cx="0" cy="0" r="9.99" fill="#fff7f0" fill-opacity="0.72" />
      </g>
    </g>
    
  </g>
  <path d="M0 980 C220 920, 420 1030, 900 930 L900 1100 L0 1100 Z" fill="#ffffff" fill-opacity="0.22" />
</svg>
