<svg xmlns="http://www.w3.org/2000/svg" width="900" height="1100" viewBox="0 0 900 1100">
  <defs>
    <linearGradient id="bg" x1="0" y1="0" x2="0" y2="1">
      <stop offset="0%" stop-color="#fff5ef" />
      <stop offset="100%" stop-color="#f3eadb" />
    </linearGradient>
    <filter id="shadow" x="-20%" y="-20%" width="140%" height="140%">
      <feDropShadow dx="0" dy="22" stdDeviation="24" flood-color="#6c5d4f" flood-opacity="0.12" />
    </filter>
  </defs>
  <rect width="100%" height="100%" fill="url(#bg)" />
  <circle cx="730" cy="180" r="140" fill="#ffffff" fill-opacity="0.18" />
  <circle cx="150" cy="260" r="90" fill="#ffffff" fill-opacity="0.12" />
  
      <rect x="70" y="72" width="300" height="92" rx="24" fill="#ffffff" fill-opacity="0.34" />
      <text x="98" y="120" fill="#2f3a31" font-size="32" font-family="'PingFang SC','Microsoft YaHei',sans-serif" font-weight="600">雅贺新章</text>
      <text x="98" y="152" fill="#4e6152" font-size="18" font-family="'PingFang SC','Microsoft YaHei',sans-serif">门店 · 前厅</text>
    
  <g filter="url(#shadow)">
    <path d="M180 770 L720 770 L780 1080 L120 1080 Z" fill="#efe3c5" fill-opacity="0.9" />
  </g>
  <g>
    
    <g transform="translate(328.93 540.97) rotate(-7.20)">
      <path d="M 0 0 C -8 89.70, 10 149.50, -6 219.26" stroke="#5f8458" stroke-width="11.96" fill="none" stroke-linecap="round" />
      <ellipse cx="-20" cy="109.63" rx="21.93" ry="41.86" fill="#5f8458" fill-opacity="0.75" transform="rotate(-24)" />
      <ellipse cx="28" cy="135.55" rx="19.93" ry="37.87" fill="#5f8458" fill-opacity="0.66" transform="rotate(20)" />
      <g transform="translate(0 0)">
        <ellipse cx="27.91" cy="0.00" rx="17.94" ry="27.91" fill="#c74038" fill-opacity="0.95" /><ellipse cx="19.73" cy="19.73" rx="17.94" ry="27.91" fill="#c74038" fill-opacity="0.95" /><ellipse cx="0.00" cy="27.91" rx="17.94" ry="27.91" fill="#c74038" fill-opacity="0.95" /><ellipse cx="-19.73" cy="19.73" rx="17.94" ry="27.91" fill="#c74038" fill-opacity="0.95" /><ellipse cx="-27.91" cy="0.00" rx="17.94" ry="27.91" fill="#c74038" fill-opacity="0.95" /><ellipse cx="-19.73" cy="-19.73" rx="17.94" ry="27.91" fill="#c74038" fill-opacity="0.95" /><ellipse cx="-0.00" cy="-27.91" rx="17.94" ry="27.91" fill="#c74038" fill-opacity="0.95" /><ellipse cx="19.73" cy="-19.73" rx="17.94" ry="27.91" fill="#c74038" fill-opacity="0.95" />
        <circle cx="0" cy="0" r="17.94" fill="#9f2d27" />
        <circle cx="0" cy="0" r="8.97" fill="#fff7f0" fill-opacity="0.72" />
      </g>
    </g>
    
    <g transform="translate(191.78 299.94) rotate(-20.09)">
      <path d="M 0 0 C -8 108.57, 10 180.94, -6 265.38" stroke="#476b43" stroke-width="14.48" fill="none" stroke-linecap="round" />
      <ellipse cx="-20" cy="132.69" rx="26.54" ry="50.66" fill="#476b43" fill-opacity="0.75" transform="rotate(-24)" />
      <ellipse cx="28" cy="164.06" rx="24.13" ry="45.84" fill="#476b43" fill-opacity="0.66" transform="rotate(20)" />
      <g transform="translate(0 0)">
        <ellipse cx="33.78" cy="0.00" rx="21.71" ry="33.78" fill="#f0ad3d" fill-opacity="0.95" /><ellipse cx="23.88" cy="23.88" rx="21.71" ry="33.78" fill="#f0ad3d" fill-opacity="0.95" /><ellipse cx="0.00" cy="33.78" rx="21.71" ry="33.78" fill="#f0ad3d" fill-opacity="0.95" /><ellipse cx="-23.88" cy="23.88" rx="21.71" ry="33.78" fill="#f0ad3d" fill-opacity="0.95" /><ellipse cx="-33.78" cy="0.00" rx="21.71" ry="33.78" fill="#f0ad3d" fill-opacity="0.95" /><ellipse cx="-23.88" cy="-23.88" rx="21.71" ry="33.78" fill="#f0ad3d" fill-opacity="0.95" /><ellipse cx="-0.00" cy="-33.78" rx="21.71" ry="33.78" fill="#f0ad3d" fill-opacity="0.95" /><ellipse cx="23.88" cy="-23.88" rx="21.71" ry="33.78" fill="#f0ad3d" fill-opacity="0.95" />
        <circle cx="0" cy="0" r="21.71" fill="#9f2d27" />
        <circle cx="0" cy="0" r="10.86" fill="#fff7f0" fill-opacity="0.72" />
      </g>
    </g>
    
    <g transform="translate(501.16 318.62) rotate(-15.15)">
      <path d="M 0 0 C -8 79.53, 10 132.55, -6 194.41" stroke="#87a276" stroke-width="10.60" fill="none" stroke-linecap="round" />
      <ellipse cx="-20" cy="97.21" rx="19.44" ry="37.12" fill="#87a276" fill-opacity="0.75" transform="rotate(-24)" />
      <ellipse cx="28" cy="120.18" rx="17.67" ry="33.58" fill="#87a276" fill-opacity="0.66" transform="rotate(20)" />
      <g transform="translate(0 0)">
        <ellipse cx="24.74" cy="0.00" rx="15.91" ry="24.74" fill="#efc46f" fill-opacity="0.95" /><ellipse cx="17.50" cy="17.50" rx="15.91" ry="24.74" fill="#efc46f" fill-opacity="0.95" /><ellipse cx="0.00" cy="24.74" rx="15.91" ry="24.74" fill="#efc46f" fill-opacity="0.95" /><ellipse cx="-17.50" cy="17.50" rx="15.91" ry="24.74" fill="#efc46f" fill-opacity="0.95" /><ellipse cx="-24.74" cy="0.00" rx="15.91" ry="24.74" fill="#efc46f" fill-opacity="0.95" /><ellipse cx="-17.50" cy="-17.50" rx="15.91" ry="24.74" fill="#efc46f" fill-opacity="0.95" /><ellipse cx="-0.00" cy="-24.74" rx="15.91" ry="24.74" fill="#efc46f" fill-opacity="0.95" /><ellipse cx="17.50" cy="-17.50" rx="15.91" ry="24.74" fill="#efc46f" fill-opacity="0.95" />
        <circle cx="0" cy="0" r="15.91" fill="#9f2d27" />
        <circle cx="0" cy="0" r="7.95" fill="#fff7f0" fill-opacity="0.72" />
      </g>
    </g>
    
    <g transform="translate(445.01 397.70) rotate(13.79)">
      <path d="M 0 0 C -8 90.40, 10 150.66, -6 220.97" stroke="#5f8458" stroke-width="12.05" fill="none" stroke-linecap="round" />
      <ellipse cx="-20" cy="110.48" rx="22.10" ry="42.18" fill="#5f8458" fill-opacity="0.75" transform="rotate(-24)" />
      <ellipse cx="28" cy="136.60" rx="20.09" ry="38.17" fill="#5f8458" fill-opacity="0.66" transform="rotate(20)" />
      <g transform="translate(0 0)">
        <ellipse cx="28.12" cy="0.00" rx="18.08" ry="28.12" fill="#f4d7ab" fill-opacity="0.95" /><ellipse cx="19.89" cy="19.89" rx="18.08" ry="28.12" fill="#f4d7ab" fill-opacity="0.95" /><ellipse cx="0.00" cy="28.12" rx="18.08" ry="28.12" fill="#f4d7ab" fill-opacity="0.95" /><ellipse cx="-19.89" cy="19.89" rx="18.08" ry="28.12" fill="#f4d7ab" fill-opacity="0.95" /><ellipse cx="-28.12" cy="0.00" rx="18.08" ry="28.12" fill="#f4d7ab" fill-opacity="0.95" /><ellipse cx="-19.89" cy="-19.89" rx="18.08" ry="28.12" fill="#f4d7ab" fill-opacity="0.95" /><ellipse cx="-0.00" cy="-28.12" rx="18.08" ry="28.12" fill="#f4d7ab" fill-opacity="0.95" /><ellipse cx="19.89" cy="-19.89" rx="18.08" ry="28.12" fill="#f4d7ab" fill-opacity="0.95" />
        <circle cx="0" cy="0" r="18.08" fill="#9f2d27" />
        <circle cx="0" cy="0" r="9.04" fill="#fff7f0" fill-opacity="0.72" />
      </g>
    </g>
    
    <g transform="translate(368.29 414.56) rotate(-1.67)">
      <path d="M 0 0 C -8 76.35, 10 127.25, -6 186.63" stroke="#476b43" stroke-width="10.18" fill="none" stroke-linecap="round" />
      <ellipse cx="-20" cy="93.32" rx="18.66" ry="35.63" fill="#476b43" fill-opacity="0.75" transform="rotate(-24)" />
      <ellipse cx="28" cy="115.37" rx="16.97" ry="32.24" fill="#476b43" fill-opacity="0.66" transform="rotate(20)" />
      <g transform="translate(0 0)">
        <ellipse cx="23.75" cy="0.00" rx="15.27" ry="23.75" fill="#c74038" fill-opacity="0.95" /><ellipse cx="16.80" cy="16.80" rx="15.27" ry="23.75" fill="#c74038" fill-opacity="0.95" /><ellipse cx="0.00" cy="23.75" rx="15.27" ry="23.75" fill="#c74038" fill-opacity="0.95" /><ellipse cx="-16.80" cy="16.80" rx="15.27" ry="23.75" fill="#c74038" fill-opacity="0.95" /><ellipse cx="-23.75" cy="0.00" rx="15.27" ry="23.75" fill="#c74038" fill-opacity="0.95" /><ellipse cx="-16.80" cy="-16.80" rx="15.27" ry="23.75" fill="#c74038" fill-opacity="0.95" /><ellipse cx="-0.00" cy="-23.75" rx="15.27" ry="23.75" fill="#c74038" fill-opacity="0.95" /><ellipse cx="16.80" cy="-16.80" rx="15.27" ry="23.75" fill="#c74038" fill-opacity="0.95" />
        <circle cx="0" cy="0" r="15.27" fill="#9f2d27" />
        <circle cx="0" cy="0" r="7.64" fill="#fff7f0" fill-opacity="0.72" />
      </g>
    </g>
    
    <g transform="translate(357.22 357.03) rotate(-18.63)">
      <path d="M 0 0 C -8 91.18, 10 151.96, -6 222.88" stroke="#87a276" stroke-width="12.16" fill="none" stroke-linecap="round" />
      <ellipse cx="-20" cy="111.44" rx="22.29" ry="42.55" fill="#87a276" fill-opacity="0.75" transform="rotate(-24)" />
      <ellipse cx="28" cy="137.78" rx="20.26" ry="38.50" fill="#87a276" fill-opacity="0.66" transform="rotate(20)" />
      <g transform="translate(0 0)">
        <ellipse cx="28.37" cy="0.00" rx="18.24" ry="28.37" fill="#f0ad3d" fill-opacity="0.95" /><ellipse cx="20.06" cy="20.06" rx="18.24" ry="28.37" fill="#f0ad3d" fill-opacity="0.95" /><ellipse cx="0.00" cy="28.37" rx="18.24" ry="28.37" fill="#f0ad3d" fill-opacity="0.95" /><ellipse cx="-20.06" cy="20.06" rx="18.24" ry="28.37" fill="#f0ad3d" fill-opacity="0.95" /><ellipse cx="-28.37" cy="0.00" rx="18.24" ry="28.37" fill="#f0ad3d" fill-opacity="0.95" /><ellipse cx="-20.06" cy="-20.06" rx="18.24" ry="28.37" fill="#f0ad3d" fill-opacity="0.95" /><ellipse cx="-0.00" cy="-28.37" rx="18.24" ry="28.37" fill="#f0ad3d" fill-opacity="0.95" /><ellipse cx="20.06" cy="-20.06" rx="18.24" ry="28.37" fill="#f0ad3d" fill-opacity="0.95" />
        <circle cx="0" cy="0" r="18.24" fill="#9f2d27" />
        <circle cx="0" cy="0" r="9.12" fill="#fff7f0" fill-opacity="0.72" />
      </g>
    </g>
    
    <g transform="translate(395.31 415.77) rotate(-0.34)">
      <path d="M 0 0 C -8 96.89, 10 161.48, -6 236.83" stroke="#5f8458" stroke-width="12.92" fill="none" stroke-linecap="round" />
      <ellipse cx="-20" cy="118.42" rx="23.68" ry="45.21" fill="#5f8458" fill-opacity="0.75" transform="rotate(-24)" />
      <ellipse cx="28" cy="146.41" rx="21.53" ry="40.91" fill="#5f8458" fill-opacity="0.66" transform="rotate(20)" />
      <g transform="translate(0 0)">
        <ellipse cx="30.14" cy="0.00" rx="19.38" ry="30.14" fill="#efc46f" fill-opacity="0.95" /><ellipse cx="21.31" cy="21.31" rx="19.38" ry="30.14" fill="#efc46f" fill-opacity="0.95" /><ellipse cx="0.00" cy="30.14" rx="19.38" ry="30.14" fill="#efc46f" fill-opacity="0.95" /><ellipse cx="-21.31" cy="21.31" rx="19.38" ry="30.14" fill="#efc46f" fill-opacity="0.95" /><ellipse cx="-30.14" cy="0.00" rx="19.38" ry="30.14" fill="#efc46f" fill-opacity="0.95" /><ellipse cx="-21.31" cy="-21.31" rx="19.38" ry="30.14" fill="#efc46f" fill-opacity="0.95" /><ellipse cx="-0.00" cy="-30.14" rx="19.38" ry="30.14" fill="#efc46f" fill-opacity="0.95" /><ellipse cx="21.31" cy="-21.31" rx="19.38" ry="30.14" fill="#efc46f" fill-opacity="0.95" />
        <circle cx="0" cy="0" r="19.38" fill="#9f2d27" />
        <circle cx="0" cy="0" r="9.69" fill="#fff7f0" fill-opacity="0.72" />
      </g>
    </g>
    
  </g>
  <path d="M0 980 C220 920, 420 1030, 900 930 L900 1100 L0 1100 Z" fill="#ffffff" fill-opacity="0.22" />
</svg>
