<svg xmlns="http://www.w3.org/2000/svg" width="900" height="1100" viewBox="0 0 900 1100">
  <defs>
    <linearGradient id="bg" x1="0" y1="0" x2="0" y2="1">
      <stop offset="0%" stop-color="#fff5ef" />
      <stop offset="100%" stop-color="#f3eadb" />
    </linearGradient>
    <filter id="shadow" x="-20%" y="-20%" width="140%" height="140%">
      <feDropShadow dx="0" dy="22" stdDeviation="24" flood-color="#6c5d4f" flood-opacity="0.12" />
    </filter>
  </defs>
  <rect width="100%" height="100%" fill="url(#bg)" />
  <circle cx="730" cy="180" r="140" fill="#ffffff" fill-opacity="0.18" />
  <circle cx="150" cy="260" r="90" fill="#ffffff" fill-opacity="0.12" />
  
      <rect x="70" y="72" width="300" height="92" rx="24" fill="#ffffff" fill-opacity="0.34" />
      <text x="98" y="120" fill="#2f3a31" font-size="32" font-family="'PingFang SC','Microsoft YaHei',sans-serif" font-weight="600">喜门长青</text>
      <text x="98" y="152" fill="#4e6152" font-size="18" font-family="'PingFang SC','Microsoft YaHei',sans-serif">展厅 · 商务花礼</text>
    
  <g filter="url(#shadow)">
    <path d="M180 770 L720 770 L780 1080 L120 1080 Z" fill="#efe3c5" fill-opacity="0.9" />
  </g>
  <g>
    
    <g transform="translate(688.30 556.45) rotate(-18.34)">
      <path d="M 0 0 C -8 93.22, 10 155.36, -6 227.86" stroke="#5f8458" stroke-width="12.43" fill="none" stroke-linecap="round" />
      <ellipse cx="-20" cy="113.93" rx="22.79" ry="43.50" fill="#5f8458" fill-opacity="0.75" transform="rotate(-24)" />
      <ellipse cx="28" cy="140.86" rx="20.71" ry="39.36" fill="#5f8458" fill-opacity="0.66" transform="rotate(20)" />
      <g transform="translate(0 0)">
        <ellipse cx="29.00" cy="0.00" rx="18.64" ry="29.00" fill="#c74038" fill-opacity="0.95" /><ellipse cx="20.51" cy="20.51" rx="18.64" ry="29.00" fill="#c74038" fill-opacity="0.95" /><ellipse cx="0.00" cy="29.00" rx="18.64" ry="29.00" fill="#c74038" fill-opacity="0.95" /><ellipse cx="-20.51" cy="20.51" rx="18.64" ry="29.00" fill="#c74038" fill-opacity="0.95" /><ellipse cx="-29.00" cy="0.00" rx="18.64" ry="29.00" fill="#c74038" fill-opacity="0.95" /><ellipse cx="-20.51" cy="-20.51" rx="18.64" ry="29.00" fill="#c74038" fill-opacity="0.95" /><ellipse cx="-0.00" cy="-29.00" rx="18.64" ry="29.00" fill="#c74038" fill-opacity="0.95" /><ellipse cx="20.51" cy="-20.51" rx="18.64" ry="29.00" fill="#c74038" fill-opacity="0.95" />
        <circle cx="0" cy="0" r="18.64" fill="#9f2d27" />
        <circle cx="0" cy="0" r="9.32" fill="#fff7f0" fill-opacity="0.72" />
      </g>
    </g>
    
    <g transform="translate(190.82 360.96) rotate(12.37)">
      <path d="M 0 0 C -8 91.93, 10 153.22, -6 224.72" stroke="#476b43" stroke-width="12.26" fill="none" stroke-linecap="round" />
      <ellipse cx="-20" cy="112.36" rx="22.47" ry="42.90" fill="#476b43" fill-opacity="0.75" transform="rotate(-24)" />
      <ellipse cx="28" cy="138.92" rx="20.43" ry="38.82" fill="#476b43" fill-opacity="0.66" transform="rotate(20)" />
      <g transform="translate(0 0)">
        <ellipse cx="28.60" cy="0.00" rx="18.39" ry="28.60" fill="#f0ad3d" fill-opacity="0.95" /><ellipse cx="20.22" cy="20.22" rx="18.39" ry="28.60" fill="#f0ad3d" fill-opacity="0.95" /><ellipse cx="0.00" cy="28.60" rx="18.39" ry="28.60" fill="#f0ad3d" fill-opacity="0.95" /><ellipse cx="-20.22" cy="20.22" rx="18.39" ry="28.60" fill="#f0ad3d" fill-opacity="0.95" /><ellipse cx="-28.60" cy="0.00" rx="18.39" ry="28.60" fill="#f0ad3d" fill-opacity="0.95" /><ellipse cx="-20.22" cy="-20.22" rx="18.39" ry="28.60" fill="#f0ad3d" fill-opacity="0.95" /><ellipse cx="-0.00" cy="-28.60" rx="18.39" ry="28.60" fill="#f0ad3d" fill-opacity="0.95" /><ellipse cx="20.22" cy="-20.22" rx="18.39" ry="28.60" fill="#f0ad3d" fill-opacity="0.95" />
        <circle cx="0" cy="0" r="18.39" fill="#9f2d27" />
        <circle cx="0" cy="0" r="9.19" fill="#fff7f0" fill-opacity="0.72" />
      </g>
    </g>
    
    <g transform="translate(309.42 322.78) rotate(14.55)">
      <path d="M 0 0 C -8 114.63, 10 191.05, -6 280.21" stroke="#87a276" stroke-width="15.28" fill="none" stroke-linecap="round" />
      <ellipse cx="-20" cy="140.11" rx="28.02" ry="53.50" fill="#87a276" fill-opacity="0.75" transform="rotate(-24)" />
      <ellipse cx="28" cy="173.22" rx="25.47" ry="48.40" fill="#87a276" fill-opacity="0.66" transform="rotate(20)" />
      <g transform="translate(0 0)">
        <ellipse cx="35.66" cy="0.00" rx="22.93" ry="35.66" fill="#efc46f" fill-opacity="0.95" /><ellipse cx="25.22" cy="25.22" rx="22.93" ry="35.66" fill="#efc46f" fill-opacity="0.95" /><ellipse cx="0.00" cy="35.66" rx="22.93" ry="35.66" fill="#efc46f" fill-opacity="0.95" /><ellipse cx="-25.22" cy="25.22" rx="22.93" ry="35.66" fill="#efc46f" fill-opacity="0.95" /><ellipse cx="-35.66" cy="0.00" rx="22.93" ry="35.66" fill="#efc46f" fill-opacity="0.95" /><ellipse cx="-25.22" cy="-25.22" rx="22.93" ry="35.66" fill="#efc46f" fill-opacity="0.95" /><ellipse cx="-0.00" cy="-35.66" rx="22.93" ry="35.66" fill="#efc46f" fill-opacity="0.95" /><ellipse cx="25.22" cy="-25.22" rx="22.93" ry="35.66" fill="#efc46f" fill-opacity="0.95" />
        <circle cx="0" cy="0" r="22.93" fill="#9f2d27" />
        <circle cx="0" cy="0" r="11.46" fill="#fff7f0" fill-opacity="0.72" />
      </g>
    </g>
    
    <g transform="translate(463.91 455.07) rotate(6.46)">
      <path d="M 0 0 C -8 100.72, 10 167.86, -6 246.19" stroke="#5f8458" stroke-width="13.43" fill="none" stroke-linecap="round" />
      <ellipse cx="-20" cy="123.10" rx="24.62" ry="47.00" fill="#5f8458" fill-opacity="0.75" transform="rotate(-24)" />
      <ellipse cx="28" cy="152.19" rx="22.38" ry="42.52" fill="#5f8458" fill-opacity="0.66" transform="rotate(20)" />
      <g transform="translate(0 0)">
        <ellipse cx="31.33" cy="0.00" rx="20.14" ry="31.33" fill="#f4d7ab" fill-opacity="0.95" /><ellipse cx="22.16" cy="22.16" rx="20.14" ry="31.33" fill="#f4d7ab" fill-opacity="0.95" /><ellipse cx="0.00" cy="31.33" rx="20.14" ry="31.33" fill="#f4d7ab" fill-opacity="0.95" /><ellipse cx="-22.16" cy="22.16" rx="20.14" ry="31.33" fill="#f4d7ab" fill-opacity="0.95" /><ellipse cx="-31.33" cy="0.00" rx="20.14" ry="31.33" fill="#f4d7ab" fill-opacity="0.95" /><ellipse cx="-22.16" cy="-22.16" rx="20.14" ry="31.33" fill="#f4d7ab" fill-opacity="0.95" /><ellipse cx="-0.00" cy="-31.33" rx="20.14" ry="31.33" fill="#f4d7ab" fill-opacity="0.95" /><ellipse cx="22.16" cy="-22.16" rx="20.14" ry="31.33" fill="#f4d7ab" fill-opacity="0.95" />
        <circle cx="0" cy="0" r="20.14" fill="#9f2d27" />
        <circle cx="0" cy="0" r="10.07" fill="#fff7f0" fill-opacity="0.72" />
      </g>
    </g>
    
    <g transform="translate(709.98 307.46) rotate(1.89)">
      <path d="M 0 0 C -8 76.30, 10 127.17, -6 186.51" stroke="#476b43" stroke-width="10.17" fill="none" stroke-linecap="round" />
      <ellipse cx="-20" cy="93.26" rx="18.65" ry="35.61" fill="#476b43" fill-opacity="0.75" transform="rotate(-24)" />
      <ellipse cx="28" cy="115.30" rx="16.96" ry="32.22" fill="#476b43" fill-opacity="0.66" transform="rotate(20)" />
      <g transform="translate(0 0)">
        <ellipse cx="23.74" cy="0.00" rx="15.26" ry="23.74" fill="#c74038" fill-opacity="0.95" /><ellipse cx="16.79" cy="16.79" rx="15.26" ry="23.74" fill="#c74038" fill-opacity="0.95" /><ellipse cx="0.00" cy="23.74" rx="15.26" ry="23.74" fill="#c74038" fill-opacity="0.95" /><ellipse cx="-16.79" cy="16.79" rx="15.26" ry="23.74" fill="#c74038" fill-opacity="0.95" /><ellipse cx="-23.74" cy="0.00" rx="15.26" ry="23.74" fill="#c74038" fill-opacity="0.95" /><ellipse cx="-16.79" cy="-16.79" rx="15.26" ry="23.74" fill="#c74038" fill-opacity="0.95" /><ellipse cx="-0.00" cy="-23.74" rx="15.26" ry="23.74" fill="#c74038" fill-opacity="0.95" /><ellipse cx="16.79" cy="-16.79" rx="15.26" ry="23.74" fill="#c74038" fill-opacity="0.95" />
        <circle cx="0" cy="0" r="15.26" fill="#9f2d27" />
        <circle cx="0" cy="0" r="7.63" fill="#fff7f0" fill-opacity="0.72" />
      </g>
    </g>
    
    <g transform="translate(353.70 413.62) rotate(-6.86)">
      <path d="M 0 0 C -8 98.38, 10 163.96, -6 240.48" stroke="#87a276" stroke-width="13.12" fill="none" stroke-linecap="round" />
      <ellipse cx="-20" cy="120.24" rx="24.05" ry="45.91" fill="#87a276" fill-opacity="0.75" transform="rotate(-24)" />
      <ellipse cx="28" cy="148.66" rx="21.86" ry="41.54" fill="#87a276" fill-opacity="0.66" transform="rotate(20)" />
      <g transform="translate(0 0)">
        <ellipse cx="30.61" cy="0.00" rx="19.68" ry="30.61" fill="#f0ad3d" fill-opacity="0.95" /><ellipse cx="21.64" cy="21.64" rx="19.68" ry="30.61" fill="#f0ad3d" fill-opacity="0.95" /><ellipse cx="0.00" cy="30.61" rx="19.68" ry="30.61" fill="#f0ad3d" fill-opacity="0.95" /><ellipse cx="-21.64" cy="21.64" rx="19.68" ry="30.61" fill="#f0ad3d" fill-opacity="0.95" /><ellipse cx="-30.61" cy="0.00" rx="19.68" ry="30.61" fill="#f0ad3d" fill-opacity="0.95" /><ellipse cx="-21.64" cy="-21.64" rx="19.68" ry="30.61" fill="#f0ad3d" fill-opacity="0.95" /><ellipse cx="-0.00" cy="-30.61" rx="19.68" ry="30.61" fill="#f0ad3d" fill-opacity="0.95" /><ellipse cx="21.64" cy="-21.64" rx="19.68" ry="30.61" fill="#f0ad3d" fill-opacity="0.95" />
        <circle cx="0" cy="0" r="19.68" fill="#9f2d27" />
        <circle cx="0" cy="0" r="9.84" fill="#fff7f0" fill-opacity="0.72" />
      </g>
    </g>
    
  </g>
  <path d="M0 980 C220 920, 420 1030, 900 930 L900 1100 L0 1100 Z" fill="#ffffff" fill-opacity="0.22" />
</svg>
