<svg xmlns="http://www.w3.org/2000/svg" width="900" height="1100" viewBox="0 0 900 1100">
  <defs>
    <linearGradient id="bg" x1="0" y1="0" x2="0" y2="1">
      <stop offset="0%" stop-color="#fff5ef" />
      <stop offset="100%" stop-color="#f3eadb" />
    </linearGradient>
    <filter id="shadow" x="-20%" y="-20%" width="140%" height="140%">
      <feDropShadow dx="0" dy="22" stdDeviation="24" flood-color="#6c5d4f" flood-opacity="0.12" />
    </filter>
  </defs>
  <rect width="100%" height="100%" fill="url(#bg)" />
  <circle cx="730" cy="180" r="140" fill="#ffffff" fill-opacity="0.18" />
  <circle cx="150" cy="260" r="90" fill="#ffffff" fill-opacity="0.12" />
  
      <rect x="70" y="72" width="300" height="92" rx="24" fill="#ffffff" fill-opacity="0.34" />
      <text x="98" y="120" fill="#2f3a31" font-size="32" font-family="'PingFang SC','Microsoft YaHei',sans-serif" font-weight="600">红金登场</text>
      <text x="98" y="152" fill="#4e6152" font-size="18" font-family="'PingFang SC','Microsoft YaHei',sans-serif">门店 · 前厅</text>
    
  <g filter="url(#shadow)">
    <path d="M180 770 L720 770 L780 1080 L120 1080 Z" fill="#efe3c5" fill-opacity="0.9" />
  </g>
  <g>
    
    <g transform="translate(380.37 539.45) rotate(-13.10)">
      <path d="M 0 0 C -8 87.76, 10 146.27, -6 214.52" stroke="#5f8458" stroke-width="11.70" fill="none" stroke-linecap="round" />
      <ellipse cx="-20" cy="107.26" rx="21.45" ry="40.95" fill="#5f8458" fill-opacity="0.75" transform="rotate(-24)" />
      <ellipse cx="28" cy="132.61" rx="19.50" ry="37.05" fill="#5f8458" fill-opacity="0.66" transform="rotate(20)" />
      <g transform="translate(0 0)">
        <ellipse cx="27.30" cy="0.00" rx="17.55" ry="27.30" fill="#c74038" fill-opacity="0.95" /><ellipse cx="19.31" cy="19.31" rx="17.55" ry="27.30" fill="#c74038" fill-opacity="0.95" /><ellipse cx="0.00" cy="27.30" rx="17.55" ry="27.30" fill="#c74038" fill-opacity="0.95" /><ellipse cx="-19.31" cy="19.31" rx="17.55" ry="27.30" fill="#c74038" fill-opacity="0.95" /><ellipse cx="-27.30" cy="0.00" rx="17.55" ry="27.30" fill="#c74038" fill-opacity="0.95" /><ellipse cx="-19.31" cy="-19.31" rx="17.55" ry="27.30" fill="#c74038" fill-opacity="0.95" /><ellipse cx="-0.00" cy="-27.30" rx="17.55" ry="27.30" fill="#c74038" fill-opacity="0.95" /><ellipse cx="19.31" cy="-19.31" rx="17.55" ry="27.30" fill="#c74038" fill-opacity="0.95" />
        <circle cx="0" cy="0" r="17.55" fill="#9f2d27" />
        <circle cx="0" cy="0" r="8.78" fill="#fff7f0" fill-opacity="0.72" />
      </g>
    </g>
    
    <g transform="translate(474.69 413.39) rotate(-16.23)">
      <path d="M 0 0 C -8 76.16, 10 126.93, -6 186.16" stroke="#476b43" stroke-width="10.15" fill="none" stroke-linecap="round" />
      <ellipse cx="-20" cy="93.08" rx="18.62" ry="35.54" fill="#476b43" fill-opacity="0.75" transform="rotate(-24)" />
      <ellipse cx="28" cy="115.08" rx="16.92" ry="32.16" fill="#476b43" fill-opacity="0.66" transform="rotate(20)" />
      <g transform="translate(0 0)">
        <ellipse cx="23.69" cy="0.00" rx="15.23" ry="23.69" fill="#f0ad3d" fill-opacity="0.95" /><ellipse cx="16.75" cy="16.75" rx="15.23" ry="23.69" fill="#f0ad3d" fill-opacity="0.95" /><ellipse cx="0.00" cy="23.69" rx="15.23" ry="23.69" fill="#f0ad3d" fill-opacity="0.95" /><ellipse cx="-16.75" cy="16.75" rx="15.23" ry="23.69" fill="#f0ad3d" fill-opacity="0.95" /><ellipse cx="-23.69" cy="0.00" rx="15.23" ry="23.69" fill="#f0ad3d" fill-opacity="0.95" /><ellipse cx="-16.75" cy="-16.75" rx="15.23" ry="23.69" fill="#f0ad3d" fill-opacity="0.95" /><ellipse cx="-0.00" cy="-23.69" rx="15.23" ry="23.69" fill="#f0ad3d" fill-opacity="0.95" /><ellipse cx="16.75" cy="-16.75" rx="15.23" ry="23.69" fill="#f0ad3d" fill-opacity="0.95" />
        <circle cx="0" cy="0" r="15.23" fill="#9f2d27" />
        <circle cx="0" cy="0" r="7.62" fill="#fff7f0" fill-opacity="0.72" />
      </g>
    </g>
    
    <g transform="translate(482.51 293.39) rotate(1.00)">
      <path d="M 0 0 C -8 94.79, 10 157.99, -6 231.71" stroke="#87a276" stroke-width="12.64" fill="none" stroke-linecap="round" />
      <ellipse cx="-20" cy="115.86" rx="23.17" ry="44.24" fill="#87a276" fill-opacity="0.75" transform="rotate(-24)" />
      <ellipse cx="28" cy="143.24" rx="21.06" ry="40.02" fill="#87a276" fill-opacity="0.66" transform="rotate(20)" />
      <g transform="translate(0 0)">
        <ellipse cx="29.49" cy="0.00" rx="18.96" ry="29.49" fill="#efc46f" fill-opacity="0.95" /><ellipse cx="20.85" cy="20.85" rx="18.96" ry="29.49" fill="#efc46f" fill-opacity="0.95" /><ellipse cx="0.00" cy="29.49" rx="18.96" ry="29.49" fill="#efc46f" fill-opacity="0.95" /><ellipse cx="-20.85" cy="20.85" rx="18.96" ry="29.49" fill="#efc46f" fill-opacity="0.95" /><ellipse cx="-29.49" cy="0.00" rx="18.96" ry="29.49" fill="#efc46f" fill-opacity="0.95" /><ellipse cx="-20.85" cy="-20.85" rx="18.96" ry="29.49" fill="#efc46f" fill-opacity="0.95" /><ellipse cx="-0.00" cy="-29.49" rx="18.96" ry="29.49" fill="#efc46f" fill-opacity="0.95" /><ellipse cx="20.85" cy="-20.85" rx="18.96" ry="29.49" fill="#efc46f" fill-opacity="0.95" />
        <circle cx="0" cy="0" r="18.96" fill="#9f2d27" />
        <circle cx="0" cy="0" r="9.48" fill="#fff7f0" fill-opacity="0.72" />
      </g>
    </g>
    
    <g transform="translate(240.52 403.29) rotate(12.14)">
      <path d="M 0 0 C -8 107.34, 10 178.90, -6 262.38" stroke="#5f8458" stroke-width="14.31" fill="none" stroke-linecap="round" />
      <ellipse cx="-20" cy="131.19" rx="26.24" ry="50.09" fill="#5f8458" fill-opacity="0.75" transform="rotate(-24)" />
      <ellipse cx="28" cy="162.20" rx="23.85" ry="45.32" fill="#5f8458" fill-opacity="0.66" transform="rotate(20)" />
      <g transform="translate(0 0)">
        <ellipse cx="33.39" cy="0.00" rx="21.47" ry="33.39" fill="#f4d7ab" fill-opacity="0.95" /><ellipse cx="23.61" cy="23.61" rx="21.47" ry="33.39" fill="#f4d7ab" fill-opacity="0.95" /><ellipse cx="0.00" cy="33.39" rx="21.47" ry="33.39" fill="#f4d7ab" fill-opacity="0.95" /><ellipse cx="-23.61" cy="23.61" rx="21.47" ry="33.39" fill="#f4d7ab" fill-opacity="0.95" /><ellipse cx="-33.39" cy="0.00" rx="21.47" ry="33.39" fill="#f4d7ab" fill-opacity="0.95" /><ellipse cx="-23.61" cy="-23.61" rx="21.47" ry="33.39" fill="#f4d7ab" fill-opacity="0.95" /><ellipse cx="-0.00" cy="-33.39" rx="21.47" ry="33.39" fill="#f4d7ab" fill-opacity="0.95" /><ellipse cx="23.61" cy="-23.61" rx="21.47" ry="33.39" fill="#f4d7ab" fill-opacity="0.95" />
        <circle cx="0" cy="0" r="21.47" fill="#9f2d27" />
        <circle cx="0" cy="0" r="10.73" fill="#fff7f0" fill-opacity="0.72" />
      </g>
    </g>
    
    <g transform="translate(566.33 439.39) rotate(18.05)">
      <path d="M 0 0 C -8 106.44, 10 177.41, -6 260.20" stroke="#476b43" stroke-width="14.19" fill="none" stroke-linecap="round" />
      <ellipse cx="-20" cy="130.10" rx="26.02" ry="49.67" fill="#476b43" fill-opacity="0.75" transform="rotate(-24)" />
      <ellipse cx="28" cy="160.85" rx="23.65" ry="44.94" fill="#476b43" fill-opacity="0.66" transform="rotate(20)" />
      <g transform="translate(0 0)">
        <ellipse cx="33.12" cy="0.00" rx="21.29" ry="33.12" fill="#c74038" fill-opacity="0.95" /><ellipse cx="23.42" cy="23.42" rx="21.29" ry="33.12" fill="#c74038" fill-opacity="0.95" /><ellipse cx="0.00" cy="33.12" rx="21.29" ry="33.12" fill="#c74038" fill-opacity="0.95" /><ellipse cx="-23.42" cy="23.42" rx="21.29" ry="33.12" fill="#c74038" fill-opacity="0.95" /><ellipse cx="-33.12" cy="0.00" rx="21.29" ry="33.12" fill="#c74038" fill-opacity="0.95" /><ellipse cx="-23.42" cy="-23.42" rx="21.29" ry="33.12" fill="#c74038" fill-opacity="0.95" /><ellipse cx="-0.00" cy="-33.12" rx="21.29" ry="33.12" fill="#c74038" fill-opacity="0.95" /><ellipse cx="23.42" cy="-23.42" rx="21.29" ry="33.12" fill="#c74038" fill-opacity="0.95" />
        <circle cx="0" cy="0" r="21.29" fill="#9f2d27" />
        <circle cx="0" cy="0" r="10.64" fill="#fff7f0" fill-opacity="0.72" />
      </g>
    </g>
    
    <g transform="translate(252.29 558.23) rotate(-11.18)">
      <path d="M 0 0 C -8 96.23, 10 160.39, -6 235.24" stroke="#87a276" stroke-width="12.83" fill="none" stroke-linecap="round" />
      <ellipse cx="-20" cy="117.62" rx="23.52" ry="44.91" fill="#87a276" fill-opacity="0.75" transform="rotate(-24)" />
      <ellipse cx="28" cy="145.42" rx="21.39" ry="40.63" fill="#87a276" fill-opacity="0.66" transform="rotate(20)" />
      <g transform="translate(0 0)">
        <ellipse cx="29.94" cy="0.00" rx="19.25" ry="29.94" fill="#f0ad3d" fill-opacity="0.95" /><ellipse cx="21.17" cy="21.17" rx="19.25" ry="29.94" fill="#f0ad3d" fill-opacity="0.95" /><ellipse cx="0.00" cy="29.94" rx="19.25" ry="29.94" fill="#f0ad3d" fill-opacity="0.95" /><ellipse cx="-21.17" cy="21.17" rx="19.25" ry="29.94" fill="#f0ad3d" fill-opacity="0.95" /><ellipse cx="-29.94" cy="0.00" rx="19.25" ry="29.94" fill="#f0ad3d" fill-opacity="0.95" /><ellipse cx="-21.17" cy="-21.17" rx="19.25" ry="29.94" fill="#f0ad3d" fill-opacity="0.95" /><ellipse cx="-0.00" cy="-29.94" rx="19.25" ry="29.94" fill="#f0ad3d" fill-opacity="0.95" /><ellipse cx="21.17" cy="-21.17" rx="19.25" ry="29.94" fill="#f0ad3d" fill-opacity="0.95" />
        <circle cx="0" cy="0" r="19.25" fill="#9f2d27" />
        <circle cx="0" cy="0" r="9.62" fill="#fff7f0" fill-opacity="0.72" />
      </g>
    </g>
    
  </g>
  <path d="M0 980 C220 920, 420 1030, 900 930 L900 1100 L0 1100 Z" fill="#ffffff" fill-opacity="0.22" />
</svg>
