<svg xmlns="http://www.w3.org/2000/svg" width="900" height="1100" viewBox="0 0 900 1100">
  <defs>
    <linearGradient id="bg" x1="0" y1="0" x2="0" y2="1">
      <stop offset="0%" stop-color="#fff5ef" />
      <stop offset="100%" stop-color="#f3eadb" />
    </linearGradient>
    <filter id="shadow" x="-20%" y="-20%" width="140%" height="140%">
      <feDropShadow dx="0" dy="22" stdDeviation="24" flood-color="#6c5d4f" flood-opacity="0.12" />
    </filter>
  </defs>
  <rect width="100%" height="100%" fill="url(#bg)" />
  <circle cx="730" cy="180" r="140" fill="#ffffff" fill-opacity="0.18" />
  <circle cx="150" cy="260" r="90" fill="#ffffff" fill-opacity="0.12" />
  
      <rect x="70" y="72" width="300" height="92" rx="24" fill="#ffffff" fill-opacity="0.34" />
      <text x="98" y="120" fill="#2f3a31" font-size="32" font-family="'PingFang SC','Microsoft YaHei',sans-serif" font-weight="600">前厅迎禧</text>
      <text x="98" y="152" fill="#4e6152" font-size="18" font-family="'PingFang SC','Microsoft YaHei',sans-serif">展厅 · 商务花礼</text>
    
  <g filter="url(#shadow)">
    <path d="M180 770 L720 770 L780 1080 L120 1080 Z" fill="#efe3c5" fill-opacity="0.9" />
  </g>
  <g>
    
    <g transform="translate(234.92 513.34) rotate(-2.94)">
      <path d="M 0 0 C -8 104.02, 10 173.37, -6 254.28" stroke="#5f8458" stroke-width="13.87" fill="none" stroke-linecap="round" />
      <ellipse cx="-20" cy="127.14" rx="25.43" ry="48.54" fill="#5f8458" fill-opacity="0.75" transform="rotate(-24)" />
      <ellipse cx="28" cy="157.19" rx="23.12" ry="43.92" fill="#5f8458" fill-opacity="0.66" transform="rotate(20)" />
      <g transform="translate(0 0)">
        <ellipse cx="32.36" cy="0.00" rx="20.80" ry="32.36" fill="#c74038" fill-opacity="0.95" /><ellipse cx="22.88" cy="22.88" rx="20.80" ry="32.36" fill="#c74038" fill-opacity="0.95" /><ellipse cx="0.00" cy="32.36" rx="20.80" ry="32.36" fill="#c74038" fill-opacity="0.95" /><ellipse cx="-22.88" cy="22.88" rx="20.80" ry="32.36" fill="#c74038" fill-opacity="0.95" /><ellipse cx="-32.36" cy="0.00" rx="20.80" ry="32.36" fill="#c74038" fill-opacity="0.95" /><ellipse cx="-22.88" cy="-22.88" rx="20.80" ry="32.36" fill="#c74038" fill-opacity="0.95" /><ellipse cx="-0.00" cy="-32.36" rx="20.80" ry="32.36" fill="#c74038" fill-opacity="0.95" /><ellipse cx="22.88" cy="-22.88" rx="20.80" ry="32.36" fill="#c74038" fill-opacity="0.95" />
        <circle cx="0" cy="0" r="20.80" fill="#9f2d27" />
        <circle cx="0" cy="0" r="10.40" fill="#fff7f0" fill-opacity="0.72" />
      </g>
    </g>
    
    <g transform="translate(356.02 320.06) rotate(-8.25)">
      <path d="M 0 0 C -8 74.67, 10 124.45, -6 182.52" stroke="#476b43" stroke-width="9.96" fill="none" stroke-linecap="round" />
      <ellipse cx="-20" cy="91.26" rx="18.25" ry="34.85" fill="#476b43" fill-opacity="0.75" transform="rotate(-24)" />
      <ellipse cx="28" cy="112.83" rx="16.59" ry="31.53" fill="#476b43" fill-opacity="0.66" transform="rotate(20)" />
      <g transform="translate(0 0)">
        <ellipse cx="23.23" cy="0.00" rx="14.93" ry="23.23" fill="#f0ad3d" fill-opacity="0.95" /><ellipse cx="16.43" cy="16.43" rx="14.93" ry="23.23" fill="#f0ad3d" fill-opacity="0.95" /><ellipse cx="0.00" cy="23.23" rx="14.93" ry="23.23" fill="#f0ad3d" fill-opacity="0.95" /><ellipse cx="-16.43" cy="16.43" rx="14.93" ry="23.23" fill="#f0ad3d" fill-opacity="0.95" /><ellipse cx="-23.23" cy="0.00" rx="14.93" ry="23.23" fill="#f0ad3d" fill-opacity="0.95" /><ellipse cx="-16.43" cy="-16.43" rx="14.93" ry="23.23" fill="#f0ad3d" fill-opacity="0.95" /><ellipse cx="-0.00" cy="-23.23" rx="14.93" ry="23.23" fill="#f0ad3d" fill-opacity="0.95" /><ellipse cx="16.43" cy="-16.43" rx="14.93" ry="23.23" fill="#f0ad3d" fill-opacity="0.95" />
        <circle cx="0" cy="0" r="14.93" fill="#9f2d27" />
        <circle cx="0" cy="0" r="7.47" fill="#fff7f0" fill-opacity="0.72" />
      </g>
    </g>
    
    <g transform="translate(250.37 558.56) rotate(15.72)">
      <path d="M 0 0 C -8 71.35, 10 118.91, -6 174.41" stroke="#87a276" stroke-width="9.51" fill="none" stroke-linecap="round" />
      <ellipse cx="-20" cy="87.20" rx="17.44" ry="33.30" fill="#87a276" fill-opacity="0.75" transform="rotate(-24)" />
      <ellipse cx="28" cy="107.82" rx="15.86" ry="30.13" fill="#87a276" fill-opacity="0.66" transform="rotate(20)" />
      <g transform="translate(0 0)">
        <ellipse cx="22.20" cy="0.00" rx="14.27" ry="22.20" fill="#efc46f" fill-opacity="0.95" /><ellipse cx="15.70" cy="15.70" rx="14.27" ry="22.20" fill="#efc46f" fill-opacity="0.95" /><ellipse cx="0.00" cy="22.20" rx="14.27" ry="22.20" fill="#efc46f" fill-opacity="0.95" /><ellipse cx="-15.70" cy="15.70" rx="14.27" ry="22.20" fill="#efc46f" fill-opacity="0.95" /><ellipse cx="-22.20" cy="0.00" rx="14.27" ry="22.20" fill="#efc46f" fill-opacity="0.95" /><ellipse cx="-15.70" cy="-15.70" rx="14.27" ry="22.20" fill="#efc46f" fill-opacity="0.95" /><ellipse cx="-0.00" cy="-22.20" rx="14.27" ry="22.20" fill="#efc46f" fill-opacity="0.95" /><ellipse cx="15.70" cy="-15.70" rx="14.27" ry="22.20" fill="#efc46f" fill-opacity="0.95" />
        <circle cx="0" cy="0" r="14.27" fill="#9f2d27" />
        <circle cx="0" cy="0" r="7.13" fill="#fff7f0" fill-opacity="0.72" />
      </g>
    </g>
    
    <g transform="translate(674.23 308.70) rotate(-5.10)">
      <path d="M 0 0 C -8 71.98, 10 119.97, -6 175.96" stroke="#5f8458" stroke-width="9.60" fill="none" stroke-linecap="round" />
      <ellipse cx="-20" cy="87.98" rx="17.60" ry="33.59" fill="#5f8458" fill-opacity="0.75" transform="rotate(-24)" />
      <ellipse cx="28" cy="108.77" rx="16.00" ry="30.39" fill="#5f8458" fill-opacity="0.66" transform="rotate(20)" />
      <g transform="translate(0 0)">
        <ellipse cx="22.39" cy="0.00" rx="14.40" ry="22.39" fill="#f4d7ab" fill-opacity="0.95" /><ellipse cx="15.84" cy="15.84" rx="14.40" ry="22.39" fill="#f4d7ab" fill-opacity="0.95" /><ellipse cx="0.00" cy="22.39" rx="14.40" ry="22.39" fill="#f4d7ab" fill-opacity="0.95" /><ellipse cx="-15.84" cy="15.84" rx="14.40" ry="22.39" fill="#f4d7ab" fill-opacity="0.95" /><ellipse cx="-22.39" cy="0.00" rx="14.40" ry="22.39" fill="#f4d7ab" fill-opacity="0.95" /><ellipse cx="-15.84" cy="-15.84" rx="14.40" ry="22.39" fill="#f4d7ab" fill-opacity="0.95" /><ellipse cx="-0.00" cy="-22.39" rx="14.40" ry="22.39" fill="#f4d7ab" fill-opacity="0.95" /><ellipse cx="15.84" cy="-15.84" rx="14.40" ry="22.39" fill="#f4d7ab" fill-opacity="0.95" />
        <circle cx="0" cy="0" r="14.40" fill="#9f2d27" />
        <circle cx="0" cy="0" r="7.20" fill="#fff7f0" fill-opacity="0.72" />
      </g>
    </g>
    
    <g transform="translate(691.42 364.81) rotate(22.96)">
      <path d="M 0 0 C -8 76.27, 10 127.12, -6 186.45" stroke="#476b43" stroke-width="10.17" fill="none" stroke-linecap="round" />
      <ellipse cx="-20" cy="93.22" rx="18.64" ry="35.59" fill="#476b43" fill-opacity="0.75" transform="rotate(-24)" />
      <ellipse cx="28" cy="115.26" rx="16.95" ry="32.20" fill="#476b43" fill-opacity="0.66" transform="rotate(20)" />
      <g transform="translate(0 0)">
        <ellipse cx="23.73" cy="0.00" rx="15.25" ry="23.73" fill="#c74038" fill-opacity="0.95" /><ellipse cx="16.78" cy="16.78" rx="15.25" ry="23.73" fill="#c74038" fill-opacity="0.95" /><ellipse cx="0.00" cy="23.73" rx="15.25" ry="23.73" fill="#c74038" fill-opacity="0.95" /><ellipse cx="-16.78" cy="16.78" rx="15.25" ry="23.73" fill="#c74038" fill-opacity="0.95" /><ellipse cx="-23.73" cy="0.00" rx="15.25" ry="23.73" fill="#c74038" fill-opacity="0.95" /><ellipse cx="-16.78" cy="-16.78" rx="15.25" ry="23.73" fill="#c74038" fill-opacity="0.95" /><ellipse cx="-0.00" cy="-23.73" rx="15.25" ry="23.73" fill="#c74038" fill-opacity="0.95" /><ellipse cx="16.78" cy="-16.78" rx="15.25" ry="23.73" fill="#c74038" fill-opacity="0.95" />
        <circle cx="0" cy="0" r="15.25" fill="#9f2d27" />
        <circle cx="0" cy="0" r="7.63" fill="#fff7f0" fill-opacity="0.72" />
      </g>
    </g>
    
    <g transform="translate(546.99 297.76) rotate(-25.27)">
      <path d="M 0 0 C -8 100.23, 10 167.06, -6 245.02" stroke="#87a276" stroke-width="13.36" fill="none" stroke-linecap="round" />
      <ellipse cx="-20" cy="122.51" rx="24.50" ry="46.78" fill="#87a276" fill-opacity="0.75" transform="rotate(-24)" />
      <ellipse cx="28" cy="151.46" rx="22.27" ry="42.32" fill="#87a276" fill-opacity="0.66" transform="rotate(20)" />
      <g transform="translate(0 0)">
        <ellipse cx="31.18" cy="0.00" rx="20.05" ry="31.18" fill="#f0ad3d" fill-opacity="0.95" /><ellipse cx="22.05" cy="22.05" rx="20.05" ry="31.18" fill="#f0ad3d" fill-opacity="0.95" /><ellipse cx="0.00" cy="31.18" rx="20.05" ry="31.18" fill="#f0ad3d" fill-opacity="0.95" /><ellipse cx="-22.05" cy="22.05" rx="20.05" ry="31.18" fill="#f0ad3d" fill-opacity="0.95" /><ellipse cx="-31.18" cy="0.00" rx="20.05" ry="31.18" fill="#f0ad3d" fill-opacity="0.95" /><ellipse cx="-22.05" cy="-22.05" rx="20.05" ry="31.18" fill="#f0ad3d" fill-opacity="0.95" /><ellipse cx="-0.00" cy="-31.18" rx="20.05" ry="31.18" fill="#f0ad3d" fill-opacity="0.95" /><ellipse cx="22.05" cy="-22.05" rx="20.05" ry="31.18" fill="#f0ad3d" fill-opacity="0.95" />
        <circle cx="0" cy="0" r="20.05" fill="#9f2d27" />
        <circle cx="0" cy="0" r="10.02" fill="#fff7f0" fill-opacity="0.72" />
      </g>
    </g>
    
  </g>
  <path d="M0 980 C220 920, 420 1030, 900 930 L900 1100 L0 1100 Z" fill="#ffffff" fill-opacity="0.22" />
</svg>
