<svg xmlns="http://www.w3.org/2000/svg" width="900" height="1100" viewBox="0 0 900 1100">
  <defs>
    <linearGradient id="bg" x1="0" y1="0" x2="0" y2="1">
      <stop offset="0%" stop-color="#fff5ef" />
      <stop offset="100%" stop-color="#f3eadb" />
    </linearGradient>
    <filter id="shadow" x="-20%" y="-20%" width="140%" height="140%">
      <feDropShadow dx="0" dy="22" stdDeviation="24" flood-color="#6c5d4f" flood-opacity="0.12" />
    </filter>
  </defs>
  <rect width="100%" height="100%" fill="url(#bg)" />
  <circle cx="730" cy="180" r="140" fill="#ffffff" fill-opacity="0.18" />
  <circle cx="150" cy="260" r="90" fill="#ffffff" fill-opacity="0.12" />
  
      <rect x="70" y="72" width="300" height="92" rx="24" fill="#ffffff" fill-opacity="0.34" />
      <text x="98" y="120" fill="#2f3a31" font-size="32" font-family="'PingFang SC','Microsoft YaHei',sans-serif" font-weight="600">瑞色盈门</text>
      <text x="98" y="152" fill="#4e6152" font-size="18" font-family="'PingFang SC','Microsoft YaHei',sans-serif">开张 · 品牌活动</text>
    
  <g filter="url(#shadow)">
    <path d="M180 770 L720 770 L780 1080 L120 1080 Z" fill="#efe3c5" fill-opacity="0.9" />
  </g>
  <g>
    
    <g transform="translate(522.79 494.18) rotate(4.64)">
      <path d="M 0 0 C -8 106.23, 10 177.06, -6 259.68" stroke="#5f8458" stroke-width="14.16" fill="none" stroke-linecap="round" />
      <ellipse cx="-20" cy="129.84" rx="25.97" ry="49.58" fill="#5f8458" fill-opacity="0.75" transform="rotate(-24)" />
      <ellipse cx="28" cy="160.53" rx="23.61" ry="44.85" fill="#5f8458" fill-opacity="0.66" transform="rotate(20)" />
      <g transform="translate(0 0)">
        <ellipse cx="33.05" cy="0.00" rx="21.25" ry="33.05" fill="#c74038" fill-opacity="0.95" /><ellipse cx="23.37" cy="23.37" rx="21.25" ry="33.05" fill="#c74038" fill-opacity="0.95" /><ellipse cx="0.00" cy="33.05" rx="21.25" ry="33.05" fill="#c74038" fill-opacity="0.95" /><ellipse cx="-23.37" cy="23.37" rx="21.25" ry="33.05" fill="#c74038" fill-opacity="0.95" /><ellipse cx="-33.05" cy="0.00" rx="21.25" ry="33.05" fill="#c74038" fill-opacity="0.95" /><ellipse cx="-23.37" cy="-23.37" rx="21.25" ry="33.05" fill="#c74038" fill-opacity="0.95" /><ellipse cx="-0.00" cy="-33.05" rx="21.25" ry="33.05" fill="#c74038" fill-opacity="0.95" /><ellipse cx="23.37" cy="-23.37" rx="21.25" ry="33.05" fill="#c74038" fill-opacity="0.95" />
        <circle cx="0" cy="0" r="21.25" fill="#9f2d27" />
        <circle cx="0" cy="0" r="10.62" fill="#fff7f0" fill-opacity="0.72" />
      </g>
    </g>
    
    <g transform="translate(379.05 500.20) rotate(-8.49)">
      <path d="M 0 0 C -8 73.04, 10 121.74, -6 178.55" stroke="#476b43" stroke-width="9.74" fill="none" stroke-linecap="round" />
      <ellipse cx="-20" cy="89.28" rx="17.86" ry="34.09" fill="#476b43" fill-opacity="0.75" transform="rotate(-24)" />
      <ellipse cx="28" cy="110.38" rx="16.23" ry="30.84" fill="#476b43" fill-opacity="0.66" transform="rotate(20)" />
      <g transform="translate(0 0)">
        <ellipse cx="22.72" cy="0.00" rx="14.61" ry="22.72" fill="#f0ad3d" fill-opacity="0.95" /><ellipse cx="16.07" cy="16.07" rx="14.61" ry="22.72" fill="#f0ad3d" fill-opacity="0.95" /><ellipse cx="0.00" cy="22.72" rx="14.61" ry="22.72" fill="#f0ad3d" fill-opacity="0.95" /><ellipse cx="-16.07" cy="16.07" rx="14.61" ry="22.72" fill="#f0ad3d" fill-opacity="0.95" /><ellipse cx="-22.72" cy="0.00" rx="14.61" ry="22.72" fill="#f0ad3d" fill-opacity="0.95" /><ellipse cx="-16.07" cy="-16.07" rx="14.61" ry="22.72" fill="#f0ad3d" fill-opacity="0.95" /><ellipse cx="-0.00" cy="-22.72" rx="14.61" ry="22.72" fill="#f0ad3d" fill-opacity="0.95" /><ellipse cx="16.07" cy="-16.07" rx="14.61" ry="22.72" fill="#f0ad3d" fill-opacity="0.95" />
        <circle cx="0" cy="0" r="14.61" fill="#9f2d27" />
        <circle cx="0" cy="0" r="7.30" fill="#fff7f0" fill-opacity="0.72" />
      </g>
    </g>
    
    <g transform="translate(619.40 308.21) rotate(-10.90)">
      <path d="M 0 0 C -8 72.57, 10 120.95, -6 177.39" stroke="#87a276" stroke-width="9.68" fill="none" stroke-linecap="round" />
      <ellipse cx="-20" cy="88.69" rx="17.74" ry="33.86" fill="#87a276" fill-opacity="0.75" transform="rotate(-24)" />
      <ellipse cx="28" cy="109.66" rx="16.13" ry="30.64" fill="#87a276" fill-opacity="0.66" transform="rotate(20)" />
      <g transform="translate(0 0)">
        <ellipse cx="22.58" cy="0.00" rx="14.51" ry="22.58" fill="#efc46f" fill-opacity="0.95" /><ellipse cx="15.96" cy="15.96" rx="14.51" ry="22.58" fill="#efc46f" fill-opacity="0.95" /><ellipse cx="0.00" cy="22.58" rx="14.51" ry="22.58" fill="#efc46f" fill-opacity="0.95" /><ellipse cx="-15.96" cy="15.96" rx="14.51" ry="22.58" fill="#efc46f" fill-opacity="0.95" /><ellipse cx="-22.58" cy="0.00" rx="14.51" ry="22.58" fill="#efc46f" fill-opacity="0.95" /><ellipse cx="-15.96" cy="-15.96" rx="14.51" ry="22.58" fill="#efc46f" fill-opacity="0.95" /><ellipse cx="-0.00" cy="-22.58" rx="14.51" ry="22.58" fill="#efc46f" fill-opacity="0.95" /><ellipse cx="15.96" cy="-15.96" rx="14.51" ry="22.58" fill="#efc46f" fill-opacity="0.95" />
        <circle cx="0" cy="0" r="14.51" fill="#9f2d27" />
        <circle cx="0" cy="0" r="7.26" fill="#fff7f0" fill-opacity="0.72" />
      </g>
    </g>
    
    <g transform="translate(326.47 514.97) rotate(-23.23)">
      <path d="M 0 0 C -8 93.60, 10 156.00, -6 228.80" stroke="#5f8458" stroke-width="12.48" fill="none" stroke-linecap="round" />
      <ellipse cx="-20" cy="114.40" rx="22.88" ry="43.68" fill="#5f8458" fill-opacity="0.75" transform="rotate(-24)" />
      <ellipse cx="28" cy="141.44" rx="20.80" ry="39.52" fill="#5f8458" fill-opacity="0.66" transform="rotate(20)" />
      <g transform="translate(0 0)">
        <ellipse cx="29.12" cy="0.00" rx="18.72" ry="29.12" fill="#f4d7ab" fill-opacity="0.95" /><ellipse cx="20.59" cy="20.59" rx="18.72" ry="29.12" fill="#f4d7ab" fill-opacity="0.95" /><ellipse cx="0.00" cy="29.12" rx="18.72" ry="29.12" fill="#f4d7ab" fill-opacity="0.95" /><ellipse cx="-20.59" cy="20.59" rx="18.72" ry="29.12" fill="#f4d7ab" fill-opacity="0.95" /><ellipse cx="-29.12" cy="0.00" rx="18.72" ry="29.12" fill="#f4d7ab" fill-opacity="0.95" /><ellipse cx="-20.59" cy="-20.59" rx="18.72" ry="29.12" fill="#f4d7ab" fill-opacity="0.95" /><ellipse cx="-0.00" cy="-29.12" rx="18.72" ry="29.12" fill="#f4d7ab" fill-opacity="0.95" /><ellipse cx="20.59" cy="-20.59" rx="18.72" ry="29.12" fill="#f4d7ab" fill-opacity="0.95" />
        <circle cx="0" cy="0" r="18.72" fill="#9f2d27" />
        <circle cx="0" cy="0" r="9.36" fill="#fff7f0" fill-opacity="0.72" />
      </g>
    </g>
    
    <g transform="translate(688.96 320.76) rotate(3.52)">
      <path d="M 0 0 C -8 93.87, 10 156.45, -6 229.45" stroke="#476b43" stroke-width="12.52" fill="none" stroke-linecap="round" />
      <ellipse cx="-20" cy="114.73" rx="22.95" ry="43.80" fill="#476b43" fill-opacity="0.75" transform="rotate(-24)" />
      <ellipse cx="28" cy="141.84" rx="20.86" ry="39.63" fill="#476b43" fill-opacity="0.66" transform="rotate(20)" />
      <g transform="translate(0 0)">
        <ellipse cx="29.20" cy="0.00" rx="18.77" ry="29.20" fill="#c74038" fill-opacity="0.95" /><ellipse cx="20.65" cy="20.65" rx="18.77" ry="29.20" fill="#c74038" fill-opacity="0.95" /><ellipse cx="0.00" cy="29.20" rx="18.77" ry="29.20" fill="#c74038" fill-opacity="0.95" /><ellipse cx="-20.65" cy="20.65" rx="18.77" ry="29.20" fill="#c74038" fill-opacity="0.95" /><ellipse cx="-29.20" cy="0.00" rx="18.77" ry="29.20" fill="#c74038" fill-opacity="0.95" /><ellipse cx="-20.65" cy="-20.65" rx="18.77" ry="29.20" fill="#c74038" fill-opacity="0.95" /><ellipse cx="-0.00" cy="-29.20" rx="18.77" ry="29.20" fill="#c74038" fill-opacity="0.95" /><ellipse cx="20.65" cy="-20.65" rx="18.77" ry="29.20" fill="#c74038" fill-opacity="0.95" />
        <circle cx="0" cy="0" r="18.77" fill="#9f2d27" />
        <circle cx="0" cy="0" r="9.39" fill="#fff7f0" fill-opacity="0.72" />
      </g>
    </g>
    
    <g transform="translate(480.62 543.32) rotate(-18.42)">
      <path d="M 0 0 C -8 95.42, 10 159.04, -6 233.26" stroke="#87a276" stroke-width="12.72" fill="none" stroke-linecap="round" />
      <ellipse cx="-20" cy="116.63" rx="23.33" ry="44.53" fill="#87a276" fill-opacity="0.75" transform="rotate(-24)" />
      <ellipse cx="28" cy="144.19" rx="21.21" ry="40.29" fill="#87a276" fill-opacity="0.66" transform="rotate(20)" />
      <g transform="translate(0 0)">
        <ellipse cx="29.69" cy="0.00" rx="19.08" ry="29.69" fill="#f0ad3d" fill-opacity="0.95" /><ellipse cx="20.99" cy="20.99" rx="19.08" ry="29.69" fill="#f0ad3d" fill-opacity="0.95" /><ellipse cx="0.00" cy="29.69" rx="19.08" ry="29.69" fill="#f0ad3d" fill-opacity="0.95" /><ellipse cx="-20.99" cy="20.99" rx="19.08" ry="29.69" fill="#f0ad3d" fill-opacity="0.95" /><ellipse cx="-29.69" cy="0.00" rx="19.08" ry="29.69" fill="#f0ad3d" fill-opacity="0.95" /><ellipse cx="-20.99" cy="-20.99" rx="19.08" ry="29.69" fill="#f0ad3d" fill-opacity="0.95" /><ellipse cx="-0.00" cy="-29.69" rx="19.08" ry="29.69" fill="#f0ad3d" fill-opacity="0.95" /><ellipse cx="20.99" cy="-20.99" rx="19.08" ry="29.69" fill="#f0ad3d" fill-opacity="0.95" />
        <circle cx="0" cy="0" r="19.08" fill="#9f2d27" />
        <circle cx="0" cy="0" r="9.54" fill="#fff7f0" fill-opacity="0.72" />
      </g>
    </g>
    
    <g transform="translate(415.00 524.86) rotate(-10.24)">
      <path d="M 0 0 C -8 79.92, 10 133.21, -6 195.37" stroke="#5f8458" stroke-width="10.66" fill="none" stroke-linecap="round" />
      <ellipse cx="-20" cy="97.69" rx="19.54" ry="37.30" fill="#5f8458" fill-opacity="0.75" transform="rotate(-24)" />
      <ellipse cx="28" cy="120.78" rx="17.76" ry="33.75" fill="#5f8458" fill-opacity="0.66" transform="rotate(20)" />
      <g transform="translate(0 0)">
        <ellipse cx="24.87" cy="0.00" rx="15.98" ry="24.87" fill="#efc46f" fill-opacity="0.95" /><ellipse cx="17.58" cy="17.58" rx="15.98" ry="24.87" fill="#efc46f" fill-opacity="0.95" /><ellipse cx="0.00" cy="24.87" rx="15.98" ry="24.87" fill="#efc46f" fill-opacity="0.95" /><ellipse cx="-17.58" cy="17.58" rx="15.98" ry="24.87" fill="#efc46f" fill-opacity="0.95" /><ellipse cx="-24.87" cy="0.00" rx="15.98" ry="24.87" fill="#efc46f" fill-opacity="0.95" /><ellipse cx="-17.58" cy="-17.58" rx="15.98" ry="24.87" fill="#efc46f" fill-opacity="0.95" /><ellipse cx="-0.00" cy="-24.87" rx="15.98" ry="24.87" fill="#efc46f" fill-opacity="0.95" /><ellipse cx="17.58" cy="-17.58" rx="15.98" ry="24.87" fill="#efc46f" fill-opacity="0.95" />
        <circle cx="0" cy="0" r="15.98" fill="#9f2d27" />
        <circle cx="0" cy="0" r="7.99" fill="#fff7f0" fill-opacity="0.72" />
      </g>
    </g>
    
  </g>
  <path d="M0 980 C220 920, 420 1030, 900 930 L900 1100 L0 1100 Z" fill="#ffffff" fill-opacity="0.22" />
</svg>
