<svg xmlns="http://www.w3.org/2000/svg" width="900" height="1100" viewBox="0 0 900 1100">
  <defs>
    <linearGradient id="bg" x1="0" y1="0" x2="0" y2="1">
      <stop offset="0%" stop-color="#f7f0f6" />
      <stop offset="100%" stop-color="#eee9f3" />
    </linearGradient>
    <filter id="shadow" x="-20%" y="-20%" width="140%" height="140%">
      <feDropShadow dx="0" dy="22" stdDeviation="24" flood-color="#6c5d4f" flood-opacity="0.12" />
    </filter>
  </defs>
  <rect width="100%" height="100%" fill="url(#bg)" />
  <circle cx="730" cy="180" r="140" fill="#ffffff" fill-opacity="0.18" />
  <circle cx="150" cy="260" r="90" fill="#ffffff" fill-opacity="0.12" />
  
      <rect x="70" y="72" width="300" height="92" rx="24" fill="#ffffff" fill-opacity="0.34" />
      <text x="98" y="120" fill="#2f3a31" font-size="32" font-family="'PingFang SC','Microsoft YaHei',sans-serif" font-weight="600">相框花语</text>
      <text x="98" y="152" fill="#4e6152" font-size="18" font-family="'PingFang SC','Microsoft YaHei',sans-serif">永生花 · 礼盒</text>
    
  <g filter="url(#shadow)">
    <rect x="180" y="760" width="540" height="250" rx="26" fill="#efe7dd" fill-opacity="0.92" /><rect x="230" y="820" width="440" height="130" rx="22" fill="#f7f1ea" fill-opacity="0.85" />
  </g>
  <g>
    
    <g transform="translate(297.60 297.44) rotate(-6.31)">
      <path d="M 0 0 C -8 113.59, 10 189.32, -6 277.67" stroke="#8a967a" stroke-width="15.15" fill="none" stroke-linecap="round" />
      <ellipse cx="-20" cy="138.83" rx="27.77" ry="53.01" fill="#8a967a" fill-opacity="0.75" transform="rotate(-24)" />
      <ellipse cx="28" cy="171.65" rx="25.24" ry="47.96" fill="#8a967a" fill-opacity="0.66" transform="rotate(20)" />
      <g transform="translate(0 0)">
        <ellipse cx="35.34" cy="0.00" rx="22.72" ry="35.34" fill="#e9bfd5" fill-opacity="0.95" /><ellipse cx="24.99" cy="24.99" rx="22.72" ry="35.34" fill="#e9bfd5" fill-opacity="0.95" /><ellipse cx="0.00" cy="35.34" rx="22.72" ry="35.34" fill="#e9bfd5" fill-opacity="0.95" /><ellipse cx="-24.99" cy="24.99" rx="22.72" ry="35.34" fill="#e9bfd5" fill-opacity="0.95" /><ellipse cx="-35.34" cy="0.00" rx="22.72" ry="35.34" fill="#e9bfd5" fill-opacity="0.95" /><ellipse cx="-24.99" cy="-24.99" rx="22.72" ry="35.34" fill="#e9bfd5" fill-opacity="0.95" /><ellipse cx="-0.00" cy="-35.34" rx="22.72" ry="35.34" fill="#e9bfd5" fill-opacity="0.95" /><ellipse cx="24.99" cy="-24.99" rx="22.72" ry="35.34" fill="#e9bfd5" fill-opacity="0.95" />
        <circle cx="0" cy="0" r="22.72" fill="#b17ca8" />
        <circle cx="0" cy="0" r="11.36" fill="#fff7f0" fill-opacity="0.72" />
      </g>
    </g>
    
    <g transform="translate(224.98 555.20) rotate(-25.47)">
      <path d="M 0 0 C -8 87.21, 10 145.34, -6 213.17" stroke="#768169" stroke-width="11.63" fill="none" stroke-linecap="round" />
      <ellipse cx="-20" cy="106.58" rx="21.32" ry="40.70" fill="#768169" fill-opacity="0.75" transform="rotate(-24)" />
      <ellipse cx="28" cy="131.78" rx="19.38" ry="36.82" fill="#768169" fill-opacity="0.66" transform="rotate(20)" />
      <g transform="translate(0 0)">
        <ellipse cx="27.13" cy="0.00" rx="17.44" ry="27.13" fill="#cfa8c9" fill-opacity="0.95" /><ellipse cx="19.18" cy="19.18" rx="17.44" ry="27.13" fill="#cfa8c9" fill-opacity="0.95" /><ellipse cx="0.00" cy="27.13" rx="17.44" ry="27.13" fill="#cfa8c9" fill-opacity="0.95" /><ellipse cx="-19.18" cy="19.18" rx="17.44" ry="27.13" fill="#cfa8c9" fill-opacity="0.95" /><ellipse cx="-27.13" cy="0.00" rx="17.44" ry="27.13" fill="#cfa8c9" fill-opacity="0.95" /><ellipse cx="-19.18" cy="-19.18" rx="17.44" ry="27.13" fill="#cfa8c9" fill-opacity="0.95" /><ellipse cx="-0.00" cy="-27.13" rx="17.44" ry="27.13" fill="#cfa8c9" fill-opacity="0.95" /><ellipse cx="19.18" cy="-19.18" rx="17.44" ry="27.13" fill="#cfa8c9" fill-opacity="0.95" />
        <circle cx="0" cy="0" r="17.44" fill="#b17ca8" />
        <circle cx="0" cy="0" r="8.72" fill="#fff7f0" fill-opacity="0.72" />
      </g>
    </g>
    
    <g transform="translate(480.03 297.91) rotate(24.14)">
      <path d="M 0 0 C -8 85.86, 10 143.11, -6 209.89" stroke="#acb39f" stroke-width="11.45" fill="none" stroke-linecap="round" />
      <ellipse cx="-20" cy="104.95" rx="20.99" ry="40.07" fill="#acb39f" fill-opacity="0.75" transform="rotate(-24)" />
      <ellipse cx="28" cy="129.75" rx="19.08" ry="36.25" fill="#acb39f" fill-opacity="0.66" transform="rotate(20)" />
      <g transform="translate(0 0)">
        <ellipse cx="26.71" cy="0.00" rx="17.17" ry="26.71" fill="#f0d8c8" fill-opacity="0.95" /><ellipse cx="18.89" cy="18.89" rx="17.17" ry="26.71" fill="#f0d8c8" fill-opacity="0.95" /><ellipse cx="0.00" cy="26.71" rx="17.17" ry="26.71" fill="#f0d8c8" fill-opacity="0.95" /><ellipse cx="-18.89" cy="18.89" rx="17.17" ry="26.71" fill="#f0d8c8" fill-opacity="0.95" /><ellipse cx="-26.71" cy="0.00" rx="17.17" ry="26.71" fill="#f0d8c8" fill-opacity="0.95" /><ellipse cx="-18.89" cy="-18.89" rx="17.17" ry="26.71" fill="#f0d8c8" fill-opacity="0.95" /><ellipse cx="-0.00" cy="-26.71" rx="17.17" ry="26.71" fill="#f0d8c8" fill-opacity="0.95" /><ellipse cx="18.89" cy="-18.89" rx="17.17" ry="26.71" fill="#f0d8c8" fill-opacity="0.95" />
        <circle cx="0" cy="0" r="17.17" fill="#b17ca8" />
        <circle cx="0" cy="0" r="8.59" fill="#fff7f0" fill-opacity="0.72" />
      </g>
    </g>
    
    <g transform="translate(282.95 427.96) rotate(-20.92)">
      <path d="M 0 0 C -8 75.89, 10 126.49, -6 185.52" stroke="#8a967a" stroke-width="10.12" fill="none" stroke-linecap="round" />
      <ellipse cx="-20" cy="92.76" rx="18.55" ry="35.42" fill="#8a967a" fill-opacity="0.75" transform="rotate(-24)" />
      <ellipse cx="28" cy="114.68" rx="16.87" ry="32.04" fill="#8a967a" fill-opacity="0.66" transform="rotate(20)" />
      <g transform="translate(0 0)">
        <ellipse cx="23.61" cy="0.00" rx="15.18" ry="23.61" fill="#e9e4ef" fill-opacity="0.95" /><ellipse cx="16.70" cy="16.70" rx="15.18" ry="23.61" fill="#e9e4ef" fill-opacity="0.95" /><ellipse cx="0.00" cy="23.61" rx="15.18" ry="23.61" fill="#e9e4ef" fill-opacity="0.95" /><ellipse cx="-16.70" cy="16.70" rx="15.18" ry="23.61" fill="#e9e4ef" fill-opacity="0.95" /><ellipse cx="-23.61" cy="0.00" rx="15.18" ry="23.61" fill="#e9e4ef" fill-opacity="0.95" /><ellipse cx="-16.70" cy="-16.70" rx="15.18" ry="23.61" fill="#e9e4ef" fill-opacity="0.95" /><ellipse cx="-0.00" cy="-23.61" rx="15.18" ry="23.61" fill="#e9e4ef" fill-opacity="0.95" /><ellipse cx="16.70" cy="-16.70" rx="15.18" ry="23.61" fill="#e9e4ef" fill-opacity="0.95" />
        <circle cx="0" cy="0" r="15.18" fill="#b17ca8" />
        <circle cx="0" cy="0" r="7.59" fill="#fff7f0" fill-opacity="0.72" />
      </g>
    </g>
    
    <g transform="translate(387.33 438.64) rotate(16.18)">
      <path d="M 0 0 C -8 89.23, 10 148.72, -6 218.12" stroke="#768169" stroke-width="11.90" fill="none" stroke-linecap="round" />
      <ellipse cx="-20" cy="109.06" rx="21.81" ry="41.64" fill="#768169" fill-opacity="0.75" transform="rotate(-24)" />
      <ellipse cx="28" cy="134.84" rx="19.83" ry="37.68" fill="#768169" fill-opacity="0.66" transform="rotate(20)" />
      <g transform="translate(0 0)">
        <ellipse cx="27.76" cy="0.00" rx="17.85" ry="27.76" fill="#e9bfd5" fill-opacity="0.95" /><ellipse cx="19.63" cy="19.63" rx="17.85" ry="27.76" fill="#e9bfd5" fill-opacity="0.95" /><ellipse cx="0.00" cy="27.76" rx="17.85" ry="27.76" fill="#e9bfd5" fill-opacity="0.95" /><ellipse cx="-19.63" cy="19.63" rx="17.85" ry="27.76" fill="#e9bfd5" fill-opacity="0.95" /><ellipse cx="-27.76" cy="0.00" rx="17.85" ry="27.76" fill="#e9bfd5" fill-opacity="0.95" /><ellipse cx="-19.63" cy="-19.63" rx="17.85" ry="27.76" fill="#e9bfd5" fill-opacity="0.95" /><ellipse cx="-0.00" cy="-27.76" rx="17.85" ry="27.76" fill="#e9bfd5" fill-opacity="0.95" /><ellipse cx="19.63" cy="-19.63" rx="17.85" ry="27.76" fill="#e9bfd5" fill-opacity="0.95" />
        <circle cx="0" cy="0" r="17.85" fill="#b17ca8" />
        <circle cx="0" cy="0" r="8.92" fill="#fff7f0" fill-opacity="0.72" />
      </g>
    </g>
    
    <g transform="translate(694.47 526.51) rotate(11.85)">
      <path d="M 0 0 C -8 87.69, 10 146.15, -6 214.36" stroke="#acb39f" stroke-width="11.69" fill="none" stroke-linecap="round" />
      <ellipse cx="-20" cy="107.18" rx="21.44" ry="40.92" fill="#acb39f" fill-opacity="0.75" transform="rotate(-24)" />
      <ellipse cx="28" cy="132.51" rx="19.49" ry="37.03" fill="#acb39f" fill-opacity="0.66" transform="rotate(20)" />
      <g transform="translate(0 0)">
        <ellipse cx="27.28" cy="0.00" rx="17.54" ry="27.28" fill="#cfa8c9" fill-opacity="0.95" /><ellipse cx="19.29" cy="19.29" rx="17.54" ry="27.28" fill="#cfa8c9" fill-opacity="0.95" /><ellipse cx="0.00" cy="27.28" rx="17.54" ry="27.28" fill="#cfa8c9" fill-opacity="0.95" /><ellipse cx="-19.29" cy="19.29" rx="17.54" ry="27.28" fill="#cfa8c9" fill-opacity="0.95" /><ellipse cx="-27.28" cy="0.00" rx="17.54" ry="27.28" fill="#cfa8c9" fill-opacity="0.95" /><ellipse cx="-19.29" cy="-19.29" rx="17.54" ry="27.28" fill="#cfa8c9" fill-opacity="0.95" /><ellipse cx="-0.00" cy="-27.28" rx="17.54" ry="27.28" fill="#cfa8c9" fill-opacity="0.95" /><ellipse cx="19.29" cy="-19.29" rx="17.54" ry="27.28" fill="#cfa8c9" fill-opacity="0.95" />
        <circle cx="0" cy="0" r="17.54" fill="#b17ca8" />
        <circle cx="0" cy="0" r="8.77" fill="#fff7f0" fill-opacity="0.72" />
      </g>
    </g>
    
  </g>
  <path d="M0 980 C220 920, 420 1030, 900 930 L900 1100 L0 1100 Z" fill="#ffffff" fill-opacity="0.22" />
</svg>
