<svg xmlns="http://www.w3.org/2000/svg" width="900" height="1100" viewBox="0 0 900 1100">
  <defs>
    <linearGradient id="bg" x1="0" y1="0" x2="0" y2="1">
      <stop offset="0%" stop-color="#f7f0f6" />
      <stop offset="100%" stop-color="#eee9f3" />
    </linearGradient>
    <filter id="shadow" x="-20%" y="-20%" width="140%" height="140%">
      <feDropShadow dx="0" dy="22" stdDeviation="24" flood-color="#6c5d4f" flood-opacity="0.12" />
    </filter>
  </defs>
  <rect width="100%" height="100%" fill="url(#bg)" />
  <circle cx="730" cy="180" r="140" fill="#ffffff" fill-opacity="0.18" />
  <circle cx="150" cy="260" r="90" fill="#ffffff" fill-opacity="0.12" />
  
      <rect x="70" y="72" width="300" height="92" rx="24" fill="#ffffff" fill-opacity="0.34" />
      <text x="98" y="120" fill="#2f3a31" font-size="32" font-family="'PingFang SC','Microsoft YaHei',sans-serif" font-weight="600">微光藏花</text>
      <text x="98" y="152" fill="#4e6152" font-size="18" font-family="'PingFang SC','Microsoft YaHei',sans-serif">永生花 · 礼盒</text>
    
  <g filter="url(#shadow)">
    <rect x="180" y="760" width="540" height="250" rx="26" fill="#efe7dd" fill-opacity="0.92" /><rect x="230" y="820" width="440" height="130" rx="22" fill="#f7f1ea" fill-opacity="0.85" />
  </g>
  <g>
    
    <g transform="translate(381.70 526.56) rotate(1.29)">
      <path d="M 0 0 C -8 113.01, 10 188.35, -6 276.25" stroke="#8a967a" stroke-width="15.07" fill="none" stroke-linecap="round" />
      <ellipse cx="-20" cy="138.12" rx="27.62" ry="52.74" fill="#8a967a" fill-opacity="0.75" transform="rotate(-24)" />
      <ellipse cx="28" cy="170.77" rx="25.11" ry="47.72" fill="#8a967a" fill-opacity="0.66" transform="rotate(20)" />
      <g transform="translate(0 0)">
        <ellipse cx="35.16" cy="0.00" rx="22.60" ry="35.16" fill="#e9bfd5" fill-opacity="0.95" /><ellipse cx="24.86" cy="24.86" rx="22.60" ry="35.16" fill="#e9bfd5" fill-opacity="0.95" /><ellipse cx="0.00" cy="35.16" rx="22.60" ry="35.16" fill="#e9bfd5" fill-opacity="0.95" /><ellipse cx="-24.86" cy="24.86" rx="22.60" ry="35.16" fill="#e9bfd5" fill-opacity="0.95" /><ellipse cx="-35.16" cy="0.00" rx="22.60" ry="35.16" fill="#e9bfd5" fill-opacity="0.95" /><ellipse cx="-24.86" cy="-24.86" rx="22.60" ry="35.16" fill="#e9bfd5" fill-opacity="0.95" /><ellipse cx="-0.00" cy="-35.16" rx="22.60" ry="35.16" fill="#e9bfd5" fill-opacity="0.95" /><ellipse cx="24.86" cy="-24.86" rx="22.60" ry="35.16" fill="#e9bfd5" fill-opacity="0.95" />
        <circle cx="0" cy="0" r="22.60" fill="#b17ca8" />
        <circle cx="0" cy="0" r="11.30" fill="#fff7f0" fill-opacity="0.72" />
      </g>
    </g>
    
    <g transform="translate(613.61 372.73) rotate(-23.15)">
      <path d="M 0 0 C -8 70.78, 10 117.97, -6 173.02" stroke="#768169" stroke-width="9.44" fill="none" stroke-linecap="round" />
      <ellipse cx="-20" cy="86.51" rx="17.30" ry="33.03" fill="#768169" fill-opacity="0.75" transform="rotate(-24)" />
      <ellipse cx="28" cy="106.96" rx="15.73" ry="29.88" fill="#768169" fill-opacity="0.66" transform="rotate(20)" />
      <g transform="translate(0 0)">
        <ellipse cx="22.02" cy="0.00" rx="14.16" ry="22.02" fill="#cfa8c9" fill-opacity="0.95" /><ellipse cx="15.57" cy="15.57" rx="14.16" ry="22.02" fill="#cfa8c9" fill-opacity="0.95" /><ellipse cx="0.00" cy="22.02" rx="14.16" ry="22.02" fill="#cfa8c9" fill-opacity="0.95" /><ellipse cx="-15.57" cy="15.57" rx="14.16" ry="22.02" fill="#cfa8c9" fill-opacity="0.95" /><ellipse cx="-22.02" cy="0.00" rx="14.16" ry="22.02" fill="#cfa8c9" fill-opacity="0.95" /><ellipse cx="-15.57" cy="-15.57" rx="14.16" ry="22.02" fill="#cfa8c9" fill-opacity="0.95" /><ellipse cx="-0.00" cy="-22.02" rx="14.16" ry="22.02" fill="#cfa8c9" fill-opacity="0.95" /><ellipse cx="15.57" cy="-15.57" rx="14.16" ry="22.02" fill="#cfa8c9" fill-opacity="0.95" />
        <circle cx="0" cy="0" r="14.16" fill="#b17ca8" />
        <circle cx="0" cy="0" r="7.08" fill="#fff7f0" fill-opacity="0.72" />
      </g>
    </g>
    
    <g transform="translate(478.49 451.80) rotate(-19.87)">
      <path d="M 0 0 C -8 97.13, 10 161.88, -6 237.42" stroke="#acb39f" stroke-width="12.95" fill="none" stroke-linecap="round" />
      <ellipse cx="-20" cy="118.71" rx="23.74" ry="45.33" fill="#acb39f" fill-opacity="0.75" transform="rotate(-24)" />
      <ellipse cx="28" cy="146.77" rx="21.58" ry="41.01" fill="#acb39f" fill-opacity="0.66" transform="rotate(20)" />
      <g transform="translate(0 0)">
        <ellipse cx="30.22" cy="0.00" rx="19.43" ry="30.22" fill="#f0d8c8" fill-opacity="0.95" /><ellipse cx="21.37" cy="21.37" rx="19.43" ry="30.22" fill="#f0d8c8" fill-opacity="0.95" /><ellipse cx="0.00" cy="30.22" rx="19.43" ry="30.22" fill="#f0d8c8" fill-opacity="0.95" /><ellipse cx="-21.37" cy="21.37" rx="19.43" ry="30.22" fill="#f0d8c8" fill-opacity="0.95" /><ellipse cx="-30.22" cy="0.00" rx="19.43" ry="30.22" fill="#f0d8c8" fill-opacity="0.95" /><ellipse cx="-21.37" cy="-21.37" rx="19.43" ry="30.22" fill="#f0d8c8" fill-opacity="0.95" /><ellipse cx="-0.00" cy="-30.22" rx="19.43" ry="30.22" fill="#f0d8c8" fill-opacity="0.95" /><ellipse cx="21.37" cy="-21.37" rx="19.43" ry="30.22" fill="#f0d8c8" fill-opacity="0.95" />
        <circle cx="0" cy="0" r="19.43" fill="#b17ca8" />
        <circle cx="0" cy="0" r="9.71" fill="#fff7f0" fill-opacity="0.72" />
      </g>
    </g>
    
    <g transform="translate(664.40 524.80) rotate(7.23)">
      <path d="M 0 0 C -8 76.95, 10 128.25, -6 188.10" stroke="#8a967a" stroke-width="10.26" fill="none" stroke-linecap="round" />
      <ellipse cx="-20" cy="94.05" rx="18.81" ry="35.91" fill="#8a967a" fill-opacity="0.75" transform="rotate(-24)" />
      <ellipse cx="28" cy="116.28" rx="17.10" ry="32.49" fill="#8a967a" fill-opacity="0.66" transform="rotate(20)" />
      <g transform="translate(0 0)">
        <ellipse cx="23.94" cy="0.00" rx="15.39" ry="23.94" fill="#e9e4ef" fill-opacity="0.95" /><ellipse cx="16.93" cy="16.93" rx="15.39" ry="23.94" fill="#e9e4ef" fill-opacity="0.95" /><ellipse cx="0.00" cy="23.94" rx="15.39" ry="23.94" fill="#e9e4ef" fill-opacity="0.95" /><ellipse cx="-16.93" cy="16.93" rx="15.39" ry="23.94" fill="#e9e4ef" fill-opacity="0.95" /><ellipse cx="-23.94" cy="0.00" rx="15.39" ry="23.94" fill="#e9e4ef" fill-opacity="0.95" /><ellipse cx="-16.93" cy="-16.93" rx="15.39" ry="23.94" fill="#e9e4ef" fill-opacity="0.95" /><ellipse cx="-0.00" cy="-23.94" rx="15.39" ry="23.94" fill="#e9e4ef" fill-opacity="0.95" /><ellipse cx="16.93" cy="-16.93" rx="15.39" ry="23.94" fill="#e9e4ef" fill-opacity="0.95" />
        <circle cx="0" cy="0" r="15.39" fill="#b17ca8" />
        <circle cx="0" cy="0" r="7.70" fill="#fff7f0" fill-opacity="0.72" />
      </g>
    </g>
    
    <g transform="translate(475.95 529.85) rotate(17.67)">
      <path d="M 0 0 C -8 100.47, 10 167.44, -6 245.58" stroke="#768169" stroke-width="13.40" fill="none" stroke-linecap="round" />
      <ellipse cx="-20" cy="122.79" rx="24.56" ry="46.88" fill="#768169" fill-opacity="0.75" transform="rotate(-24)" />
      <ellipse cx="28" cy="151.82" rx="22.33" ry="42.42" fill="#768169" fill-opacity="0.66" transform="rotate(20)" />
      <g transform="translate(0 0)">
        <ellipse cx="31.26" cy="0.00" rx="20.09" ry="31.26" fill="#e9bfd5" fill-opacity="0.95" /><ellipse cx="22.10" cy="22.10" rx="20.09" ry="31.26" fill="#e9bfd5" fill-opacity="0.95" /><ellipse cx="0.00" cy="31.26" rx="20.09" ry="31.26" fill="#e9bfd5" fill-opacity="0.95" /><ellipse cx="-22.10" cy="22.10" rx="20.09" ry="31.26" fill="#e9bfd5" fill-opacity="0.95" /><ellipse cx="-31.26" cy="0.00" rx="20.09" ry="31.26" fill="#e9bfd5" fill-opacity="0.95" /><ellipse cx="-22.10" cy="-22.10" rx="20.09" ry="31.26" fill="#e9bfd5" fill-opacity="0.95" /><ellipse cx="-0.00" cy="-31.26" rx="20.09" ry="31.26" fill="#e9bfd5" fill-opacity="0.95" /><ellipse cx="22.10" cy="-22.10" rx="20.09" ry="31.26" fill="#e9bfd5" fill-opacity="0.95" />
        <circle cx="0" cy="0" r="20.09" fill="#b17ca8" />
        <circle cx="0" cy="0" r="10.05" fill="#fff7f0" fill-opacity="0.72" />
      </g>
    </g>
    
    <g transform="translate(635.66 327.75) rotate(13.06)">
      <path d="M 0 0 C -8 86.39, 10 143.98, -6 211.17" stroke="#acb39f" stroke-width="11.52" fill="none" stroke-linecap="round" />
      <ellipse cx="-20" cy="105.59" rx="21.12" ry="40.31" fill="#acb39f" fill-opacity="0.75" transform="rotate(-24)" />
      <ellipse cx="28" cy="130.54" rx="19.20" ry="36.47" fill="#acb39f" fill-opacity="0.66" transform="rotate(20)" />
      <g transform="translate(0 0)">
        <ellipse cx="26.88" cy="0.00" rx="17.28" ry="26.88" fill="#cfa8c9" fill-opacity="0.95" /><ellipse cx="19.00" cy="19.00" rx="17.28" ry="26.88" fill="#cfa8c9" fill-opacity="0.95" /><ellipse cx="0.00" cy="26.88" rx="17.28" ry="26.88" fill="#cfa8c9" fill-opacity="0.95" /><ellipse cx="-19.00" cy="19.00" rx="17.28" ry="26.88" fill="#cfa8c9" fill-opacity="0.95" /><ellipse cx="-26.88" cy="0.00" rx="17.28" ry="26.88" fill="#cfa8c9" fill-opacity="0.95" /><ellipse cx="-19.00" cy="-19.00" rx="17.28" ry="26.88" fill="#cfa8c9" fill-opacity="0.95" /><ellipse cx="-0.00" cy="-26.88" rx="17.28" ry="26.88" fill="#cfa8c9" fill-opacity="0.95" /><ellipse cx="19.00" cy="-19.00" rx="17.28" ry="26.88" fill="#cfa8c9" fill-opacity="0.95" />
        <circle cx="0" cy="0" r="17.28" fill="#b17ca8" />
        <circle cx="0" cy="0" r="8.64" fill="#fff7f0" fill-opacity="0.72" />
      </g>
    </g>
    
  </g>
  <path d="M0 980 C220 920, 420 1030, 900 930 L900 1100 L0 1100 Z" fill="#ffffff" fill-opacity="0.22" />
</svg>
