<svg xmlns="http://www.w3.org/2000/svg" width="900" height="1100" viewBox="0 0 900 1100">
  <defs>
    <linearGradient id="bg" x1="0" y1="0" x2="0" y2="1">
      <stop offset="0%" stop-color="#f7f0f6" />
      <stop offset="100%" stop-color="#eee9f3" />
    </linearGradient>
    <filter id="shadow" x="-20%" y="-20%" width="140%" height="140%">
      <feDropShadow dx="0" dy="22" stdDeviation="24" flood-color="#6c5d4f" flood-opacity="0.12" />
    </filter>
  </defs>
  <rect width="100%" height="100%" fill="url(#bg)" />
  <circle cx="730" cy="180" r="140" fill="#ffffff" fill-opacity="0.18" />
  <circle cx="150" cy="260" r="90" fill="#ffffff" fill-opacity="0.12" />
  
      <rect x="70" y="72" width="300" height="92" rx="24" fill="#ffffff" fill-opacity="0.34" />
      <text x="98" y="120" fill="#2f3a31" font-size="32" font-family="'PingFang SC','Microsoft YaHei',sans-serif" font-weight="600">薄荷永昼</text>
      <text x="98" y="152" fill="#4e6152" font-size="18" font-family="'PingFang SC','Microsoft YaHei',sans-serif">家居 · 永生花系列</text>
    
  <g filter="url(#shadow)">
    <rect x="180" y="760" width="540" height="250" rx="26" fill="#efe7dd" fill-opacity="0.92" /><rect x="230" y="820" width="440" height="130" rx="22" fill="#f7f1ea" fill-opacity="0.85" />
  </g>
  <g>
    
    <g transform="translate(601.33 302.00) rotate(-25.69)">
      <path d="M 0 0 C -8 91.28, 10 152.13, -6 223.12" stroke="#8a967a" stroke-width="12.17" fill="none" stroke-linecap="round" />
      <ellipse cx="-20" cy="111.56" rx="22.31" ry="42.60" fill="#8a967a" fill-opacity="0.75" transform="rotate(-24)" />
      <ellipse cx="28" cy="137.93" rx="20.28" ry="38.54" fill="#8a967a" fill-opacity="0.66" transform="rotate(20)" />
      <g transform="translate(0 0)">
        <ellipse cx="28.40" cy="0.00" rx="18.26" ry="28.40" fill="#e9bfd5" fill-opacity="0.95" /><ellipse cx="20.08" cy="20.08" rx="18.26" ry="28.40" fill="#e9bfd5" fill-opacity="0.95" /><ellipse cx="0.00" cy="28.40" rx="18.26" ry="28.40" fill="#e9bfd5" fill-opacity="0.95" /><ellipse cx="-20.08" cy="20.08" rx="18.26" ry="28.40" fill="#e9bfd5" fill-opacity="0.95" /><ellipse cx="-28.40" cy="0.00" rx="18.26" ry="28.40" fill="#e9bfd5" fill-opacity="0.95" /><ellipse cx="-20.08" cy="-20.08" rx="18.26" ry="28.40" fill="#e9bfd5" fill-opacity="0.95" /><ellipse cx="-0.00" cy="-28.40" rx="18.26" ry="28.40" fill="#e9bfd5" fill-opacity="0.95" /><ellipse cx="20.08" cy="-20.08" rx="18.26" ry="28.40" fill="#e9bfd5" fill-opacity="0.95" />
        <circle cx="0" cy="0" r="18.26" fill="#b17ca8" />
        <circle cx="0" cy="0" r="9.13" fill="#fff7f0" fill-opacity="0.72" />
      </g>
    </g>
    
    <g transform="translate(520.13 464.78) rotate(20.40)">
      <path d="M 0 0 C -8 114.82, 10 191.37, -6 280.68" stroke="#768169" stroke-width="15.31" fill="none" stroke-linecap="round" />
      <ellipse cx="-20" cy="140.34" rx="28.07" ry="53.58" fill="#768169" fill-opacity="0.75" transform="rotate(-24)" />
      <ellipse cx="28" cy="173.51" rx="25.52" ry="48.48" fill="#768169" fill-opacity="0.66" transform="rotate(20)" />
      <g transform="translate(0 0)">
        <ellipse cx="35.72" cy="0.00" rx="22.96" ry="35.72" fill="#cfa8c9" fill-opacity="0.95" /><ellipse cx="25.26" cy="25.26" rx="22.96" ry="35.72" fill="#cfa8c9" fill-opacity="0.95" /><ellipse cx="0.00" cy="35.72" rx="22.96" ry="35.72" fill="#cfa8c9" fill-opacity="0.95" /><ellipse cx="-25.26" cy="25.26" rx="22.96" ry="35.72" fill="#cfa8c9" fill-opacity="0.95" /><ellipse cx="-35.72" cy="0.00" rx="22.96" ry="35.72" fill="#cfa8c9" fill-opacity="0.95" /><ellipse cx="-25.26" cy="-25.26" rx="22.96" ry="35.72" fill="#cfa8c9" fill-opacity="0.95" /><ellipse cx="-0.00" cy="-35.72" rx="22.96" ry="35.72" fill="#cfa8c9" fill-opacity="0.95" /><ellipse cx="25.26" cy="-25.26" rx="22.96" ry="35.72" fill="#cfa8c9" fill-opacity="0.95" />
        <circle cx="0" cy="0" r="22.96" fill="#b17ca8" />
        <circle cx="0" cy="0" r="11.48" fill="#fff7f0" fill-opacity="0.72" />
      </g>
    </g>
    
    <g transform="translate(279.18 358.38) rotate(21.78)">
      <path d="M 0 0 C -8 109.70, 10 182.84, -6 268.16" stroke="#acb39f" stroke-width="14.63" fill="none" stroke-linecap="round" />
      <ellipse cx="-20" cy="134.08" rx="26.82" ry="51.19" fill="#acb39f" fill-opacity="0.75" transform="rotate(-24)" />
      <ellipse cx="28" cy="165.77" rx="24.38" ry="46.32" fill="#acb39f" fill-opacity="0.66" transform="rotate(20)" />
      <g transform="translate(0 0)">
        <ellipse cx="34.13" cy="0.00" rx="21.94" ry="34.13" fill="#f0d8c8" fill-opacity="0.95" /><ellipse cx="24.13" cy="24.13" rx="21.94" ry="34.13" fill="#f0d8c8" fill-opacity="0.95" /><ellipse cx="0.00" cy="34.13" rx="21.94" ry="34.13" fill="#f0d8c8" fill-opacity="0.95" /><ellipse cx="-24.13" cy="24.13" rx="21.94" ry="34.13" fill="#f0d8c8" fill-opacity="0.95" /><ellipse cx="-34.13" cy="0.00" rx="21.94" ry="34.13" fill="#f0d8c8" fill-opacity="0.95" /><ellipse cx="-24.13" cy="-24.13" rx="21.94" ry="34.13" fill="#f0d8c8" fill-opacity="0.95" /><ellipse cx="-0.00" cy="-34.13" rx="21.94" ry="34.13" fill="#f0d8c8" fill-opacity="0.95" /><ellipse cx="24.13" cy="-24.13" rx="21.94" ry="34.13" fill="#f0d8c8" fill-opacity="0.95" />
        <circle cx="0" cy="0" r="21.94" fill="#b17ca8" />
        <circle cx="0" cy="0" r="10.97" fill="#fff7f0" fill-opacity="0.72" />
      </g>
    </g>
    
    <g transform="translate(335.12 492.17) rotate(-22.07)">
      <path d="M 0 0 C -8 90.67, 10 151.11, -6 221.63" stroke="#8a967a" stroke-width="12.09" fill="none" stroke-linecap="round" />
      <ellipse cx="-20" cy="110.82" rx="22.16" ry="42.31" fill="#8a967a" fill-opacity="0.75" transform="rotate(-24)" />
      <ellipse cx="28" cy="137.01" rx="20.15" ry="38.28" fill="#8a967a" fill-opacity="0.66" transform="rotate(20)" />
      <g transform="translate(0 0)">
        <ellipse cx="28.21" cy="0.00" rx="18.13" ry="28.21" fill="#e9e4ef" fill-opacity="0.95" /><ellipse cx="19.95" cy="19.95" rx="18.13" ry="28.21" fill="#e9e4ef" fill-opacity="0.95" /><ellipse cx="0.00" cy="28.21" rx="18.13" ry="28.21" fill="#e9e4ef" fill-opacity="0.95" /><ellipse cx="-19.95" cy="19.95" rx="18.13" ry="28.21" fill="#e9e4ef" fill-opacity="0.95" /><ellipse cx="-28.21" cy="0.00" rx="18.13" ry="28.21" fill="#e9e4ef" fill-opacity="0.95" /><ellipse cx="-19.95" cy="-19.95" rx="18.13" ry="28.21" fill="#e9e4ef" fill-opacity="0.95" /><ellipse cx="-0.00" cy="-28.21" rx="18.13" ry="28.21" fill="#e9e4ef" fill-opacity="0.95" /><ellipse cx="19.95" cy="-19.95" rx="18.13" ry="28.21" fill="#e9e4ef" fill-opacity="0.95" />
        <circle cx="0" cy="0" r="18.13" fill="#b17ca8" />
        <circle cx="0" cy="0" r="9.07" fill="#fff7f0" fill-opacity="0.72" />
      </g>
    </g>
    
    <g transform="translate(218.36 422.11) rotate(18.50)">
      <path d="M 0 0 C -8 78.02, 10 130.04, -6 190.72" stroke="#768169" stroke-width="10.40" fill="none" stroke-linecap="round" />
      <ellipse cx="-20" cy="95.36" rx="19.07" ry="36.41" fill="#768169" fill-opacity="0.75" transform="rotate(-24)" />
      <ellipse cx="28" cy="117.90" rx="17.34" ry="32.94" fill="#768169" fill-opacity="0.66" transform="rotate(20)" />
      <g transform="translate(0 0)">
        <ellipse cx="24.27" cy="0.00" rx="15.60" ry="24.27" fill="#e9bfd5" fill-opacity="0.95" /><ellipse cx="17.16" cy="17.16" rx="15.60" ry="24.27" fill="#e9bfd5" fill-opacity="0.95" /><ellipse cx="0.00" cy="24.27" rx="15.60" ry="24.27" fill="#e9bfd5" fill-opacity="0.95" /><ellipse cx="-17.16" cy="17.16" rx="15.60" ry="24.27" fill="#e9bfd5" fill-opacity="0.95" /><ellipse cx="-24.27" cy="0.00" rx="15.60" ry="24.27" fill="#e9bfd5" fill-opacity="0.95" /><ellipse cx="-17.16" cy="-17.16" rx="15.60" ry="24.27" fill="#e9bfd5" fill-opacity="0.95" /><ellipse cx="-0.00" cy="-24.27" rx="15.60" ry="24.27" fill="#e9bfd5" fill-opacity="0.95" /><ellipse cx="17.16" cy="-17.16" rx="15.60" ry="24.27" fill="#e9bfd5" fill-opacity="0.95" />
        <circle cx="0" cy="0" r="15.60" fill="#b17ca8" />
        <circle cx="0" cy="0" r="7.80" fill="#fff7f0" fill-opacity="0.72" />
      </g>
    </g>
    
    <g transform="translate(323.23 348.04) rotate(-11.65)">
      <path d="M 0 0 C -8 90.96, 10 151.61, -6 222.36" stroke="#acb39f" stroke-width="12.13" fill="none" stroke-linecap="round" />
      <ellipse cx="-20" cy="111.18" rx="22.24" ry="42.45" fill="#acb39f" fill-opacity="0.75" transform="rotate(-24)" />
      <ellipse cx="28" cy="137.46" rx="20.21" ry="38.41" fill="#acb39f" fill-opacity="0.66" transform="rotate(20)" />
      <g transform="translate(0 0)">
        <ellipse cx="28.30" cy="0.00" rx="18.19" ry="28.30" fill="#cfa8c9" fill-opacity="0.95" /><ellipse cx="20.01" cy="20.01" rx="18.19" ry="28.30" fill="#cfa8c9" fill-opacity="0.95" /><ellipse cx="0.00" cy="28.30" rx="18.19" ry="28.30" fill="#cfa8c9" fill-opacity="0.95" /><ellipse cx="-20.01" cy="20.01" rx="18.19" ry="28.30" fill="#cfa8c9" fill-opacity="0.95" /><ellipse cx="-28.30" cy="0.00" rx="18.19" ry="28.30" fill="#cfa8c9" fill-opacity="0.95" /><ellipse cx="-20.01" cy="-20.01" rx="18.19" ry="28.30" fill="#cfa8c9" fill-opacity="0.95" /><ellipse cx="-0.00" cy="-28.30" rx="18.19" ry="28.30" fill="#cfa8c9" fill-opacity="0.95" /><ellipse cx="20.01" cy="-20.01" rx="18.19" ry="28.30" fill="#cfa8c9" fill-opacity="0.95" />
        <circle cx="0" cy="0" r="18.19" fill="#b17ca8" />
        <circle cx="0" cy="0" r="9.10" fill="#fff7f0" fill-opacity="0.72" />
      </g>
    </g>
    
    <g transform="translate(192.37 309.39) rotate(2.22)">
      <path d="M 0 0 C -8 95.92, 10 159.87, -6 234.48" stroke="#8a967a" stroke-width="12.79" fill="none" stroke-linecap="round" />
      <ellipse cx="-20" cy="117.24" rx="23.45" ry="44.76" fill="#8a967a" fill-opacity="0.75" transform="rotate(-24)" />
      <ellipse cx="28" cy="144.95" rx="21.32" ry="40.50" fill="#8a967a" fill-opacity="0.66" transform="rotate(20)" />
      <g transform="translate(0 0)">
        <ellipse cx="29.84" cy="0.00" rx="19.18" ry="29.84" fill="#f0d8c8" fill-opacity="0.95" /><ellipse cx="21.10" cy="21.10" rx="19.18" ry="29.84" fill="#f0d8c8" fill-opacity="0.95" /><ellipse cx="0.00" cy="29.84" rx="19.18" ry="29.84" fill="#f0d8c8" fill-opacity="0.95" /><ellipse cx="-21.10" cy="21.10" rx="19.18" ry="29.84" fill="#f0d8c8" fill-opacity="0.95" /><ellipse cx="-29.84" cy="0.00" rx="19.18" ry="29.84" fill="#f0d8c8" fill-opacity="0.95" /><ellipse cx="-21.10" cy="-21.10" rx="19.18" ry="29.84" fill="#f0d8c8" fill-opacity="0.95" /><ellipse cx="-0.00" cy="-29.84" rx="19.18" ry="29.84" fill="#f0d8c8" fill-opacity="0.95" /><ellipse cx="21.10" cy="-21.10" rx="19.18" ry="29.84" fill="#f0d8c8" fill-opacity="0.95" />
        <circle cx="0" cy="0" r="19.18" fill="#b17ca8" />
        <circle cx="0" cy="0" r="9.59" fill="#fff7f0" fill-opacity="0.72" />
      </g>
    </g>
    
  </g>
  <path d="M0 980 C220 920, 420 1030, 900 930 L900 1100 L0 1100 Z" fill="#ffffff" fill-opacity="0.22" />
</svg>
