<svg xmlns="http://www.w3.org/2000/svg" width="900" height="1100" viewBox="0 0 900 1100">
  <defs>
    <linearGradient id="bg" x1="0" y1="0" x2="0" y2="1">
      <stop offset="0%" stop-color="#f7f0f6" />
      <stop offset="100%" stop-color="#eee9f3" />
    </linearGradient>
    <filter id="shadow" x="-20%" y="-20%" width="140%" height="140%">
      <feDropShadow dx="0" dy="22" stdDeviation="24" flood-color="#6c5d4f" flood-opacity="0.12" />
    </filter>
  </defs>
  <rect width="100%" height="100%" fill="url(#bg)" />
  <circle cx="730" cy="180" r="140" fill="#ffffff" fill-opacity="0.18" />
  <circle cx="150" cy="260" r="90" fill="#ffffff" fill-opacity="0.12" />
  
      <rect x="70" y="72" width="300" height="92" rx="24" fill="#ffffff" fill-opacity="0.34" />
      <text x="98" y="120" fill="#2f3a31" font-size="32" font-family="'PingFang SC','Microsoft YaHei',sans-serif" font-weight="600">月影花盒</text>
      <text x="98" y="152" fill="#4e6152" font-size="18" font-family="'PingFang SC','Microsoft YaHei',sans-serif">永生花 · 礼盒</text>
    
  <g filter="url(#shadow)">
    <rect x="180" y="760" width="540" height="250" rx="26" fill="#efe7dd" fill-opacity="0.92" /><rect x="230" y="820" width="440" height="130" rx="22" fill="#f7f1ea" fill-opacity="0.85" />
  </g>
  <g>
    
    <g transform="translate(459.14 441.67) rotate(-7.50)">
      <path d="M 0 0 C -8 96.29, 10 160.48, -6 235.37" stroke="#8a967a" stroke-width="12.84" fill="none" stroke-linecap="round" />
      <ellipse cx="-20" cy="117.69" rx="23.54" ry="44.93" fill="#8a967a" fill-opacity="0.75" transform="rotate(-24)" />
      <ellipse cx="28" cy="145.50" rx="21.40" ry="40.66" fill="#8a967a" fill-opacity="0.66" transform="rotate(20)" />
      <g transform="translate(0 0)">
        <ellipse cx="29.96" cy="0.00" rx="19.26" ry="29.96" fill="#e9bfd5" fill-opacity="0.95" /><ellipse cx="21.18" cy="21.18" rx="19.26" ry="29.96" fill="#e9bfd5" fill-opacity="0.95" /><ellipse cx="0.00" cy="29.96" rx="19.26" ry="29.96" fill="#e9bfd5" fill-opacity="0.95" /><ellipse cx="-21.18" cy="21.18" rx="19.26" ry="29.96" fill="#e9bfd5" fill-opacity="0.95" /><ellipse cx="-29.96" cy="0.00" rx="19.26" ry="29.96" fill="#e9bfd5" fill-opacity="0.95" /><ellipse cx="-21.18" cy="-21.18" rx="19.26" ry="29.96" fill="#e9bfd5" fill-opacity="0.95" /><ellipse cx="-0.00" cy="-29.96" rx="19.26" ry="29.96" fill="#e9bfd5" fill-opacity="0.95" /><ellipse cx="21.18" cy="-21.18" rx="19.26" ry="29.96" fill="#e9bfd5" fill-opacity="0.95" />
        <circle cx="0" cy="0" r="19.26" fill="#b17ca8" />
        <circle cx="0" cy="0" r="9.63" fill="#fff7f0" fill-opacity="0.72" />
      </g>
    </g>
    
    <g transform="translate(217.34 351.24) rotate(10.97)">
      <path d="M 0 0 C -8 97.36, 10 162.27, -6 238.00" stroke="#768169" stroke-width="12.98" fill="none" stroke-linecap="round" />
      <ellipse cx="-20" cy="119.00" rx="23.80" ry="45.44" fill="#768169" fill-opacity="0.75" transform="rotate(-24)" />
      <ellipse cx="28" cy="147.13" rx="21.64" ry="41.11" fill="#768169" fill-opacity="0.66" transform="rotate(20)" />
      <g transform="translate(0 0)">
        <ellipse cx="30.29" cy="0.00" rx="19.47" ry="30.29" fill="#cfa8c9" fill-opacity="0.95" /><ellipse cx="21.42" cy="21.42" rx="19.47" ry="30.29" fill="#cfa8c9" fill-opacity="0.95" /><ellipse cx="0.00" cy="30.29" rx="19.47" ry="30.29" fill="#cfa8c9" fill-opacity="0.95" /><ellipse cx="-21.42" cy="21.42" rx="19.47" ry="30.29" fill="#cfa8c9" fill-opacity="0.95" /><ellipse cx="-30.29" cy="0.00" rx="19.47" ry="30.29" fill="#cfa8c9" fill-opacity="0.95" /><ellipse cx="-21.42" cy="-21.42" rx="19.47" ry="30.29" fill="#cfa8c9" fill-opacity="0.95" /><ellipse cx="-0.00" cy="-30.29" rx="19.47" ry="30.29" fill="#cfa8c9" fill-opacity="0.95" /><ellipse cx="21.42" cy="-21.42" rx="19.47" ry="30.29" fill="#cfa8c9" fill-opacity="0.95" />
        <circle cx="0" cy="0" r="19.47" fill="#b17ca8" />
        <circle cx="0" cy="0" r="9.74" fill="#fff7f0" fill-opacity="0.72" />
      </g>
    </g>
    
    <g transform="translate(472.26 475.27) rotate(-6.35)">
      <path d="M 0 0 C -8 114.13, 10 190.22, -6 278.99" stroke="#acb39f" stroke-width="15.22" fill="none" stroke-linecap="round" />
      <ellipse cx="-20" cy="139.50" rx="27.90" ry="53.26" fill="#acb39f" fill-opacity="0.75" transform="rotate(-24)" />
      <ellipse cx="28" cy="172.47" rx="25.36" ry="48.19" fill="#acb39f" fill-opacity="0.66" transform="rotate(20)" />
      <g transform="translate(0 0)">
        <ellipse cx="35.51" cy="0.00" rx="22.83" ry="35.51" fill="#f0d8c8" fill-opacity="0.95" /><ellipse cx="25.11" cy="25.11" rx="22.83" ry="35.51" fill="#f0d8c8" fill-opacity="0.95" /><ellipse cx="0.00" cy="35.51" rx="22.83" ry="35.51" fill="#f0d8c8" fill-opacity="0.95" /><ellipse cx="-25.11" cy="25.11" rx="22.83" ry="35.51" fill="#f0d8c8" fill-opacity="0.95" /><ellipse cx="-35.51" cy="0.00" rx="22.83" ry="35.51" fill="#f0d8c8" fill-opacity="0.95" /><ellipse cx="-25.11" cy="-25.11" rx="22.83" ry="35.51" fill="#f0d8c8" fill-opacity="0.95" /><ellipse cx="-0.00" cy="-35.51" rx="22.83" ry="35.51" fill="#f0d8c8" fill-opacity="0.95" /><ellipse cx="25.11" cy="-25.11" rx="22.83" ry="35.51" fill="#f0d8c8" fill-opacity="0.95" />
        <circle cx="0" cy="0" r="22.83" fill="#b17ca8" />
        <circle cx="0" cy="0" r="11.41" fill="#fff7f0" fill-opacity="0.72" />
      </g>
    </g>
    
    <g transform="translate(478.88 337.53) rotate(21.27)">
      <path d="M 0 0 C -8 76.69, 10 127.82, -6 187.48" stroke="#8a967a" stroke-width="10.23" fill="none" stroke-linecap="round" />
      <ellipse cx="-20" cy="93.74" rx="18.75" ry="35.79" fill="#8a967a" fill-opacity="0.75" transform="rotate(-24)" />
      <ellipse cx="28" cy="115.89" rx="17.04" ry="32.38" fill="#8a967a" fill-opacity="0.66" transform="rotate(20)" />
      <g transform="translate(0 0)">
        <ellipse cx="23.86" cy="0.00" rx="15.34" ry="23.86" fill="#e9e4ef" fill-opacity="0.95" /><ellipse cx="16.87" cy="16.87" rx="15.34" ry="23.86" fill="#e9e4ef" fill-opacity="0.95" /><ellipse cx="0.00" cy="23.86" rx="15.34" ry="23.86" fill="#e9e4ef" fill-opacity="0.95" /><ellipse cx="-16.87" cy="16.87" rx="15.34" ry="23.86" fill="#e9e4ef" fill-opacity="0.95" /><ellipse cx="-23.86" cy="0.00" rx="15.34" ry="23.86" fill="#e9e4ef" fill-opacity="0.95" /><ellipse cx="-16.87" cy="-16.87" rx="15.34" ry="23.86" fill="#e9e4ef" fill-opacity="0.95" /><ellipse cx="-0.00" cy="-23.86" rx="15.34" ry="23.86" fill="#e9e4ef" fill-opacity="0.95" /><ellipse cx="16.87" cy="-16.87" rx="15.34" ry="23.86" fill="#e9e4ef" fill-opacity="0.95" />
        <circle cx="0" cy="0" r="15.34" fill="#b17ca8" />
        <circle cx="0" cy="0" r="7.67" fill="#fff7f0" fill-opacity="0.72" />
      </g>
    </g>
    
    <g transform="translate(328.30 296.93) rotate(10.41)">
      <path d="M 0 0 C -8 110.92, 10 184.87, -6 271.14" stroke="#768169" stroke-width="14.79" fill="none" stroke-linecap="round" />
      <ellipse cx="-20" cy="135.57" rx="27.11" ry="51.76" fill="#768169" fill-opacity="0.75" transform="rotate(-24)" />
      <ellipse cx="28" cy="167.62" rx="24.65" ry="46.83" fill="#768169" fill-opacity="0.66" transform="rotate(20)" />
      <g transform="translate(0 0)">
        <ellipse cx="34.51" cy="0.00" rx="22.18" ry="34.51" fill="#e9bfd5" fill-opacity="0.95" /><ellipse cx="24.40" cy="24.40" rx="22.18" ry="34.51" fill="#e9bfd5" fill-opacity="0.95" /><ellipse cx="0.00" cy="34.51" rx="22.18" ry="34.51" fill="#e9bfd5" fill-opacity="0.95" /><ellipse cx="-24.40" cy="24.40" rx="22.18" ry="34.51" fill="#e9bfd5" fill-opacity="0.95" /><ellipse cx="-34.51" cy="0.00" rx="22.18" ry="34.51" fill="#e9bfd5" fill-opacity="0.95" /><ellipse cx="-24.40" cy="-24.40" rx="22.18" ry="34.51" fill="#e9bfd5" fill-opacity="0.95" /><ellipse cx="-0.00" cy="-34.51" rx="22.18" ry="34.51" fill="#e9bfd5" fill-opacity="0.95" /><ellipse cx="24.40" cy="-24.40" rx="22.18" ry="34.51" fill="#e9bfd5" fill-opacity="0.95" />
        <circle cx="0" cy="0" r="22.18" fill="#b17ca8" />
        <circle cx="0" cy="0" r="11.09" fill="#fff7f0" fill-opacity="0.72" />
      </g>
    </g>
    
    <g transform="translate(660.03 422.88) rotate(6.95)">
      <path d="M 0 0 C -8 99.66, 10 166.11, -6 243.62" stroke="#acb39f" stroke-width="13.29" fill="none" stroke-linecap="round" />
      <ellipse cx="-20" cy="121.81" rx="24.36" ry="46.51" fill="#acb39f" fill-opacity="0.75" transform="rotate(-24)" />
      <ellipse cx="28" cy="150.60" rx="22.15" ry="42.08" fill="#acb39f" fill-opacity="0.66" transform="rotate(20)" />
      <g transform="translate(0 0)">
        <ellipse cx="31.01" cy="0.00" rx="19.93" ry="31.01" fill="#cfa8c9" fill-opacity="0.95" /><ellipse cx="21.92" cy="21.92" rx="19.93" ry="31.01" fill="#cfa8c9" fill-opacity="0.95" /><ellipse cx="0.00" cy="31.01" rx="19.93" ry="31.01" fill="#cfa8c9" fill-opacity="0.95" /><ellipse cx="-21.92" cy="21.92" rx="19.93" ry="31.01" fill="#cfa8c9" fill-opacity="0.95" /><ellipse cx="-31.01" cy="0.00" rx="19.93" ry="31.01" fill="#cfa8c9" fill-opacity="0.95" /><ellipse cx="-21.92" cy="-21.92" rx="19.93" ry="31.01" fill="#cfa8c9" fill-opacity="0.95" /><ellipse cx="-0.00" cy="-31.01" rx="19.93" ry="31.01" fill="#cfa8c9" fill-opacity="0.95" /><ellipse cx="21.92" cy="-21.92" rx="19.93" ry="31.01" fill="#cfa8c9" fill-opacity="0.95" />
        <circle cx="0" cy="0" r="19.93" fill="#b17ca8" />
        <circle cx="0" cy="0" r="9.97" fill="#fff7f0" fill-opacity="0.72" />
      </g>
    </g>
    
    <g transform="translate(345.06 406.66) rotate(-16.94)">
      <path d="M 0 0 C -8 94.01, 10 156.69, -6 229.81" stroke="#8a967a" stroke-width="12.53" fill="none" stroke-linecap="round" />
      <ellipse cx="-20" cy="114.90" rx="22.98" ry="43.87" fill="#8a967a" fill-opacity="0.75" transform="rotate(-24)" />
      <ellipse cx="28" cy="142.06" rx="20.89" ry="39.69" fill="#8a967a" fill-opacity="0.66" transform="rotate(20)" />
      <g transform="translate(0 0)">
        <ellipse cx="29.25" cy="0.00" rx="18.80" ry="29.25" fill="#f0d8c8" fill-opacity="0.95" /><ellipse cx="20.68" cy="20.68" rx="18.80" ry="29.25" fill="#f0d8c8" fill-opacity="0.95" /><ellipse cx="0.00" cy="29.25" rx="18.80" ry="29.25" fill="#f0d8c8" fill-opacity="0.95" /><ellipse cx="-20.68" cy="20.68" rx="18.80" ry="29.25" fill="#f0d8c8" fill-opacity="0.95" /><ellipse cx="-29.25" cy="0.00" rx="18.80" ry="29.25" fill="#f0d8c8" fill-opacity="0.95" /><ellipse cx="-20.68" cy="-20.68" rx="18.80" ry="29.25" fill="#f0d8c8" fill-opacity="0.95" /><ellipse cx="-0.00" cy="-29.25" rx="18.80" ry="29.25" fill="#f0d8c8" fill-opacity="0.95" /><ellipse cx="20.68" cy="-20.68" rx="18.80" ry="29.25" fill="#f0d8c8" fill-opacity="0.95" />
        <circle cx="0" cy="0" r="18.80" fill="#b17ca8" />
        <circle cx="0" cy="0" r="9.40" fill="#fff7f0" fill-opacity="0.72" />
      </g>
    </g>
    
  </g>
  <path d="M0 980 C220 920, 420 1030, 900 930 L900 1100 L0 1100 Z" fill="#ffffff" fill-opacity="0.22" />
</svg>
