<svg xmlns="http://www.w3.org/2000/svg" width="900" height="1100" viewBox="0 0 900 1100">
  <defs>
    <linearGradient id="bg" x1="0" y1="0" x2="0" y2="1">
      <stop offset="0%" stop-color="#f7f0f6" />
      <stop offset="100%" stop-color="#eee9f3" />
    </linearGradient>
    <filter id="shadow" x="-20%" y="-20%" width="140%" height="140%">
      <feDropShadow dx="0" dy="22" stdDeviation="24" flood-color="#6c5d4f" flood-opacity="0.12" />
    </filter>
  </defs>
  <rect width="100%" height="100%" fill="url(#bg)" />
  <circle cx="730" cy="180" r="140" fill="#ffffff" fill-opacity="0.18" />
  <circle cx="150" cy="260" r="90" fill="#ffffff" fill-opacity="0.12" />
  
      <rect x="70" y="72" width="300" height="92" rx="24" fill="#ffffff" fill-opacity="0.34" />
      <text x="98" y="120" fill="#2f3a31" font-size="32" font-family="'PingFang SC','Microsoft YaHei',sans-serif" font-weight="600">旧梦礼盒</text>
      <text x="98" y="152" fill="#4e6152" font-size="18" font-family="'PingFang SC','Microsoft YaHei',sans-serif">玻璃罩 · 摆件</text>
    
  <g filter="url(#shadow)">
    <rect x="180" y="760" width="540" height="250" rx="26" fill="#efe7dd" fill-opacity="0.92" /><rect x="230" y="820" width="440" height="130" rx="22" fill="#f7f1ea" fill-opacity="0.85" />
  </g>
  <g>
    
    <g transform="translate(635.23 340.62) rotate(8.96)">
      <path d="M 0 0 C -8 112.11, 10 186.85, -6 274.05" stroke="#8a967a" stroke-width="14.95" fill="none" stroke-linecap="round" />
      <ellipse cx="-20" cy="137.02" rx="27.40" ry="52.32" fill="#8a967a" fill-opacity="0.75" transform="rotate(-24)" />
      <ellipse cx="28" cy="169.41" rx="24.91" ry="47.34" fill="#8a967a" fill-opacity="0.66" transform="rotate(20)" />
      <g transform="translate(0 0)">
        <ellipse cx="34.88" cy="0.00" rx="22.42" ry="34.88" fill="#e9bfd5" fill-opacity="0.95" /><ellipse cx="24.66" cy="24.66" rx="22.42" ry="34.88" fill="#e9bfd5" fill-opacity="0.95" /><ellipse cx="0.00" cy="34.88" rx="22.42" ry="34.88" fill="#e9bfd5" fill-opacity="0.95" /><ellipse cx="-24.66" cy="24.66" rx="22.42" ry="34.88" fill="#e9bfd5" fill-opacity="0.95" /><ellipse cx="-34.88" cy="0.00" rx="22.42" ry="34.88" fill="#e9bfd5" fill-opacity="0.95" /><ellipse cx="-24.66" cy="-24.66" rx="22.42" ry="34.88" fill="#e9bfd5" fill-opacity="0.95" /><ellipse cx="-0.00" cy="-34.88" rx="22.42" ry="34.88" fill="#e9bfd5" fill-opacity="0.95" /><ellipse cx="24.66" cy="-24.66" rx="22.42" ry="34.88" fill="#e9bfd5" fill-opacity="0.95" />
        <circle cx="0" cy="0" r="22.42" fill="#b17ca8" />
        <circle cx="0" cy="0" r="11.21" fill="#fff7f0" fill-opacity="0.72" />
      </g>
    </g>
    
    <g transform="translate(394.85 436.18) rotate(-8.92)">
      <path d="M 0 0 C -8 84.23, 10 140.39, -6 205.90" stroke="#768169" stroke-width="11.23" fill="none" stroke-linecap="round" />
      <ellipse cx="-20" cy="102.95" rx="20.59" ry="39.31" fill="#768169" fill-opacity="0.75" transform="rotate(-24)" />
      <ellipse cx="28" cy="127.29" rx="18.72" ry="35.57" fill="#768169" fill-opacity="0.66" transform="rotate(20)" />
      <g transform="translate(0 0)">
        <ellipse cx="26.21" cy="0.00" rx="16.85" ry="26.21" fill="#cfa8c9" fill-opacity="0.95" /><ellipse cx="18.53" cy="18.53" rx="16.85" ry="26.21" fill="#cfa8c9" fill-opacity="0.95" /><ellipse cx="0.00" cy="26.21" rx="16.85" ry="26.21" fill="#cfa8c9" fill-opacity="0.95" /><ellipse cx="-18.53" cy="18.53" rx="16.85" ry="26.21" fill="#cfa8c9" fill-opacity="0.95" /><ellipse cx="-26.21" cy="0.00" rx="16.85" ry="26.21" fill="#cfa8c9" fill-opacity="0.95" /><ellipse cx="-18.53" cy="-18.53" rx="16.85" ry="26.21" fill="#cfa8c9" fill-opacity="0.95" /><ellipse cx="-0.00" cy="-26.21" rx="16.85" ry="26.21" fill="#cfa8c9" fill-opacity="0.95" /><ellipse cx="18.53" cy="-18.53" rx="16.85" ry="26.21" fill="#cfa8c9" fill-opacity="0.95" />
        <circle cx="0" cy="0" r="16.85" fill="#b17ca8" />
        <circle cx="0" cy="0" r="8.42" fill="#fff7f0" fill-opacity="0.72" />
      </g>
    </g>
    
    <g transform="translate(231.22 500.54) rotate(1.11)">
      <path d="M 0 0 C -8 84.50, 10 140.83, -6 206.55" stroke="#acb39f" stroke-width="11.27" fill="none" stroke-linecap="round" />
      <ellipse cx="-20" cy="103.28" rx="20.66" ry="39.43" fill="#acb39f" fill-opacity="0.75" transform="rotate(-24)" />
      <ellipse cx="28" cy="127.69" rx="18.78" ry="35.68" fill="#acb39f" fill-opacity="0.66" transform="rotate(20)" />
      <g transform="translate(0 0)">
        <ellipse cx="26.29" cy="0.00" rx="16.90" ry="26.29" fill="#f0d8c8" fill-opacity="0.95" /><ellipse cx="18.59" cy="18.59" rx="16.90" ry="26.29" fill="#f0d8c8" fill-opacity="0.95" /><ellipse cx="0.00" cy="26.29" rx="16.90" ry="26.29" fill="#f0d8c8" fill-opacity="0.95" /><ellipse cx="-18.59" cy="18.59" rx="16.90" ry="26.29" fill="#f0d8c8" fill-opacity="0.95" /><ellipse cx="-26.29" cy="0.00" rx="16.90" ry="26.29" fill="#f0d8c8" fill-opacity="0.95" /><ellipse cx="-18.59" cy="-18.59" rx="16.90" ry="26.29" fill="#f0d8c8" fill-opacity="0.95" /><ellipse cx="-0.00" cy="-26.29" rx="16.90" ry="26.29" fill="#f0d8c8" fill-opacity="0.95" /><ellipse cx="18.59" cy="-18.59" rx="16.90" ry="26.29" fill="#f0d8c8" fill-opacity="0.95" />
        <circle cx="0" cy="0" r="16.90" fill="#b17ca8" />
        <circle cx="0" cy="0" r="8.45" fill="#fff7f0" fill-opacity="0.72" />
      </g>
    </g>
    
    <g transform="translate(519.26 337.25) rotate(-24.98)">
      <path d="M 0 0 C -8 97.95, 10 163.24, -6 239.43" stroke="#8a967a" stroke-width="13.06" fill="none" stroke-linecap="round" />
      <ellipse cx="-20" cy="119.71" rx="23.94" ry="45.71" fill="#8a967a" fill-opacity="0.75" transform="rotate(-24)" />
      <ellipse cx="28" cy="148.01" rx="21.77" ry="41.36" fill="#8a967a" fill-opacity="0.66" transform="rotate(20)" />
      <g transform="translate(0 0)">
        <ellipse cx="30.47" cy="0.00" rx="19.59" ry="30.47" fill="#e9e4ef" fill-opacity="0.95" /><ellipse cx="21.55" cy="21.55" rx="19.59" ry="30.47" fill="#e9e4ef" fill-opacity="0.95" /><ellipse cx="0.00" cy="30.47" rx="19.59" ry="30.47" fill="#e9e4ef" fill-opacity="0.95" /><ellipse cx="-21.55" cy="21.55" rx="19.59" ry="30.47" fill="#e9e4ef" fill-opacity="0.95" /><ellipse cx="-30.47" cy="0.00" rx="19.59" ry="30.47" fill="#e9e4ef" fill-opacity="0.95" /><ellipse cx="-21.55" cy="-21.55" rx="19.59" ry="30.47" fill="#e9e4ef" fill-opacity="0.95" /><ellipse cx="-0.00" cy="-30.47" rx="19.59" ry="30.47" fill="#e9e4ef" fill-opacity="0.95" /><ellipse cx="21.55" cy="-21.55" rx="19.59" ry="30.47" fill="#e9e4ef" fill-opacity="0.95" />
        <circle cx="0" cy="0" r="19.59" fill="#b17ca8" />
        <circle cx="0" cy="0" r="9.79" fill="#fff7f0" fill-opacity="0.72" />
      </g>
    </g>
    
    <g transform="translate(515.24 453.91) rotate(15.77)">
      <path d="M 0 0 C -8 107.89, 10 179.82, -6 263.73" stroke="#768169" stroke-width="14.39" fill="none" stroke-linecap="round" />
      <ellipse cx="-20" cy="131.86" rx="26.37" ry="50.35" fill="#768169" fill-opacity="0.75" transform="rotate(-24)" />
      <ellipse cx="28" cy="163.03" rx="23.98" ry="45.55" fill="#768169" fill-opacity="0.66" transform="rotate(20)" />
      <g transform="translate(0 0)">
        <ellipse cx="33.57" cy="0.00" rx="21.58" ry="33.57" fill="#e9bfd5" fill-opacity="0.95" /><ellipse cx="23.73" cy="23.73" rx="21.58" ry="33.57" fill="#e9bfd5" fill-opacity="0.95" /><ellipse cx="0.00" cy="33.57" rx="21.58" ry="33.57" fill="#e9bfd5" fill-opacity="0.95" /><ellipse cx="-23.73" cy="23.73" rx="21.58" ry="33.57" fill="#e9bfd5" fill-opacity="0.95" /><ellipse cx="-33.57" cy="0.00" rx="21.58" ry="33.57" fill="#e9bfd5" fill-opacity="0.95" /><ellipse cx="-23.73" cy="-23.73" rx="21.58" ry="33.57" fill="#e9bfd5" fill-opacity="0.95" /><ellipse cx="-0.00" cy="-33.57" rx="21.58" ry="33.57" fill="#e9bfd5" fill-opacity="0.95" /><ellipse cx="23.73" cy="-23.73" rx="21.58" ry="33.57" fill="#e9bfd5" fill-opacity="0.95" />
        <circle cx="0" cy="0" r="21.58" fill="#b17ca8" />
        <circle cx="0" cy="0" r="10.79" fill="#fff7f0" fill-opacity="0.72" />
      </g>
    </g>
    
    <g transform="translate(680.90 316.08) rotate(2.61)">
      <path d="M 0 0 C -8 106.13, 10 176.88, -6 259.42" stroke="#acb39f" stroke-width="14.15" fill="none" stroke-linecap="round" />
      <ellipse cx="-20" cy="129.71" rx="25.94" ry="49.53" fill="#acb39f" fill-opacity="0.75" transform="rotate(-24)" />
      <ellipse cx="28" cy="160.37" rx="23.58" ry="44.81" fill="#acb39f" fill-opacity="0.66" transform="rotate(20)" />
      <g transform="translate(0 0)">
        <ellipse cx="33.02" cy="0.00" rx="21.23" ry="33.02" fill="#cfa8c9" fill-opacity="0.95" /><ellipse cx="23.35" cy="23.35" rx="21.23" ry="33.02" fill="#cfa8c9" fill-opacity="0.95" /><ellipse cx="0.00" cy="33.02" rx="21.23" ry="33.02" fill="#cfa8c9" fill-opacity="0.95" /><ellipse cx="-23.35" cy="23.35" rx="21.23" ry="33.02" fill="#cfa8c9" fill-opacity="0.95" /><ellipse cx="-33.02" cy="0.00" rx="21.23" ry="33.02" fill="#cfa8c9" fill-opacity="0.95" /><ellipse cx="-23.35" cy="-23.35" rx="21.23" ry="33.02" fill="#cfa8c9" fill-opacity="0.95" /><ellipse cx="-0.00" cy="-33.02" rx="21.23" ry="33.02" fill="#cfa8c9" fill-opacity="0.95" /><ellipse cx="23.35" cy="-23.35" rx="21.23" ry="33.02" fill="#cfa8c9" fill-opacity="0.95" />
        <circle cx="0" cy="0" r="21.23" fill="#b17ca8" />
        <circle cx="0" cy="0" r="10.61" fill="#fff7f0" fill-opacity="0.72" />
      </g>
    </g>
    
    <g transform="translate(400.42 547.15) rotate(0.43)">
      <path d="M 0 0 C -8 114.11, 10 190.18, -6 278.93" stroke="#8a967a" stroke-width="15.21" fill="none" stroke-linecap="round" />
      <ellipse cx="-20" cy="139.46" rx="27.89" ry="53.25" fill="#8a967a" fill-opacity="0.75" transform="rotate(-24)" />
      <ellipse cx="28" cy="172.43" rx="25.36" ry="48.18" fill="#8a967a" fill-opacity="0.66" transform="rotate(20)" />
      <g transform="translate(0 0)">
        <ellipse cx="35.50" cy="0.00" rx="22.82" ry="35.50" fill="#f0d8c8" fill-opacity="0.95" /><ellipse cx="25.10" cy="25.10" rx="22.82" ry="35.50" fill="#f0d8c8" fill-opacity="0.95" /><ellipse cx="0.00" cy="35.50" rx="22.82" ry="35.50" fill="#f0d8c8" fill-opacity="0.95" /><ellipse cx="-25.10" cy="25.10" rx="22.82" ry="35.50" fill="#f0d8c8" fill-opacity="0.95" /><ellipse cx="-35.50" cy="0.00" rx="22.82" ry="35.50" fill="#f0d8c8" fill-opacity="0.95" /><ellipse cx="-25.10" cy="-25.10" rx="22.82" ry="35.50" fill="#f0d8c8" fill-opacity="0.95" /><ellipse cx="-0.00" cy="-35.50" rx="22.82" ry="35.50" fill="#f0d8c8" fill-opacity="0.95" /><ellipse cx="25.10" cy="-25.10" rx="22.82" ry="35.50" fill="#f0d8c8" fill-opacity="0.95" />
        <circle cx="0" cy="0" r="22.82" fill="#b17ca8" />
        <circle cx="0" cy="0" r="11.41" fill="#fff7f0" fill-opacity="0.72" />
      </g>
    </g>
    
  </g>
  <path d="M0 980 C220 920, 420 1030, 900 930 L900 1100 L0 1100 Z" fill="#ffffff" fill-opacity="0.22" />
</svg>
