<svg xmlns="http://www.w3.org/2000/svg" width="900" height="1100" viewBox="0 0 900 1100">
  <defs>
    <linearGradient id="bg" x1="0" y1="0" x2="0" y2="1">
      <stop offset="0%" stop-color="#f7f0f6" />
      <stop offset="100%" stop-color="#eee9f3" />
    </linearGradient>
    <filter id="shadow" x="-20%" y="-20%" width="140%" height="140%">
      <feDropShadow dx="0" dy="22" stdDeviation="24" flood-color="#6c5d4f" flood-opacity="0.12" />
    </filter>
  </defs>
  <rect width="100%" height="100%" fill="url(#bg)" />
  <circle cx="730" cy="180" r="140" fill="#ffffff" fill-opacity="0.18" />
  <circle cx="150" cy="260" r="90" fill="#ffffff" fill-opacity="0.12" />
  
      <rect x="70" y="72" width="300" height="92" rx="24" fill="#ffffff" fill-opacity="0.34" />
      <text x="98" y="120" fill="#2f3a31" font-size="32" font-family="'PingFang SC','Microsoft YaHei',sans-serif" font-weight="600">留白心意</text>
      <text x="98" y="152" fill="#4e6152" font-size="18" font-family="'PingFang SC','Microsoft YaHei',sans-serif">玻璃罩 · 摆件</text>
    
  <g filter="url(#shadow)">
    <rect x="180" y="760" width="540" height="250" rx="26" fill="#efe7dd" fill-opacity="0.92" /><rect x="230" y="820" width="440" height="130" rx="22" fill="#f7f1ea" fill-opacity="0.85" />
  </g>
  <g>
    
    <g transform="translate(700.17 339.02) rotate(15.56)">
      <path d="M 0 0 C -8 84.80, 10 141.33, -6 207.28" stroke="#8a967a" stroke-width="11.31" fill="none" stroke-linecap="round" />
      <ellipse cx="-20" cy="103.64" rx="20.73" ry="39.57" fill="#8a967a" fill-opacity="0.75" transform="rotate(-24)" />
      <ellipse cx="28" cy="128.14" rx="18.84" ry="35.80" fill="#8a967a" fill-opacity="0.66" transform="rotate(20)" />
      <g transform="translate(0 0)">
        <ellipse cx="26.38" cy="0.00" rx="16.96" ry="26.38" fill="#e9bfd5" fill-opacity="0.95" /><ellipse cx="18.65" cy="18.65" rx="16.96" ry="26.38" fill="#e9bfd5" fill-opacity="0.95" /><ellipse cx="0.00" cy="26.38" rx="16.96" ry="26.38" fill="#e9bfd5" fill-opacity="0.95" /><ellipse cx="-18.65" cy="18.65" rx="16.96" ry="26.38" fill="#e9bfd5" fill-opacity="0.95" /><ellipse cx="-26.38" cy="0.00" rx="16.96" ry="26.38" fill="#e9bfd5" fill-opacity="0.95" /><ellipse cx="-18.65" cy="-18.65" rx="16.96" ry="26.38" fill="#e9bfd5" fill-opacity="0.95" /><ellipse cx="-0.00" cy="-26.38" rx="16.96" ry="26.38" fill="#e9bfd5" fill-opacity="0.95" /><ellipse cx="18.65" cy="-18.65" rx="16.96" ry="26.38" fill="#e9bfd5" fill-opacity="0.95" />
        <circle cx="0" cy="0" r="16.96" fill="#b17ca8" />
        <circle cx="0" cy="0" r="8.48" fill="#fff7f0" fill-opacity="0.72" />
      </g>
    </g>
    
    <g transform="translate(698.63 413.09) rotate(-18.64)">
      <path d="M 0 0 C -8 103.89, 10 173.15, -6 253.96" stroke="#768169" stroke-width="13.85" fill="none" stroke-linecap="round" />
      <ellipse cx="-20" cy="126.98" rx="25.40" ry="48.48" fill="#768169" fill-opacity="0.75" transform="rotate(-24)" />
      <ellipse cx="28" cy="156.99" rx="23.09" ry="43.87" fill="#768169" fill-opacity="0.66" transform="rotate(20)" />
      <g transform="translate(0 0)">
        <ellipse cx="32.32" cy="0.00" rx="20.78" ry="32.32" fill="#cfa8c9" fill-opacity="0.95" /><ellipse cx="22.86" cy="22.86" rx="20.78" ry="32.32" fill="#cfa8c9" fill-opacity="0.95" /><ellipse cx="0.00" cy="32.32" rx="20.78" ry="32.32" fill="#cfa8c9" fill-opacity="0.95" /><ellipse cx="-22.86" cy="22.86" rx="20.78" ry="32.32" fill="#cfa8c9" fill-opacity="0.95" /><ellipse cx="-32.32" cy="0.00" rx="20.78" ry="32.32" fill="#cfa8c9" fill-opacity="0.95" /><ellipse cx="-22.86" cy="-22.86" rx="20.78" ry="32.32" fill="#cfa8c9" fill-opacity="0.95" /><ellipse cx="-0.00" cy="-32.32" rx="20.78" ry="32.32" fill="#cfa8c9" fill-opacity="0.95" /><ellipse cx="22.86" cy="-22.86" rx="20.78" ry="32.32" fill="#cfa8c9" fill-opacity="0.95" />
        <circle cx="0" cy="0" r="20.78" fill="#b17ca8" />
        <circle cx="0" cy="0" r="10.39" fill="#fff7f0" fill-opacity="0.72" />
      </g>
    </g>
    
    <g transform="translate(362.43 533.77) rotate(-5.51)">
      <path d="M 0 0 C -8 110.38, 10 183.97, -6 269.83" stroke="#acb39f" stroke-width="14.72" fill="none" stroke-linecap="round" />
      <ellipse cx="-20" cy="134.91" rx="26.98" ry="51.51" fill="#acb39f" fill-opacity="0.75" transform="rotate(-24)" />
      <ellipse cx="28" cy="166.80" rx="24.53" ry="46.61" fill="#acb39f" fill-opacity="0.66" transform="rotate(20)" />
      <g transform="translate(0 0)">
        <ellipse cx="34.34" cy="0.00" rx="22.08" ry="34.34" fill="#f0d8c8" fill-opacity="0.95" /><ellipse cx="24.28" cy="24.28" rx="22.08" ry="34.34" fill="#f0d8c8" fill-opacity="0.95" /><ellipse cx="0.00" cy="34.34" rx="22.08" ry="34.34" fill="#f0d8c8" fill-opacity="0.95" /><ellipse cx="-24.28" cy="24.28" rx="22.08" ry="34.34" fill="#f0d8c8" fill-opacity="0.95" /><ellipse cx="-34.34" cy="0.00" rx="22.08" ry="34.34" fill="#f0d8c8" fill-opacity="0.95" /><ellipse cx="-24.28" cy="-24.28" rx="22.08" ry="34.34" fill="#f0d8c8" fill-opacity="0.95" /><ellipse cx="-0.00" cy="-34.34" rx="22.08" ry="34.34" fill="#f0d8c8" fill-opacity="0.95" /><ellipse cx="24.28" cy="-24.28" rx="22.08" ry="34.34" fill="#f0d8c8" fill-opacity="0.95" />
        <circle cx="0" cy="0" r="22.08" fill="#b17ca8" />
        <circle cx="0" cy="0" r="11.04" fill="#fff7f0" fill-opacity="0.72" />
      </g>
    </g>
    
    <g transform="translate(278.75 309.12) rotate(8.62)">
      <path d="M 0 0 C -8 79.28, 10 132.13, -6 193.79" stroke="#8a967a" stroke-width="10.57" fill="none" stroke-linecap="round" />
      <ellipse cx="-20" cy="96.89" rx="19.38" ry="37.00" fill="#8a967a" fill-opacity="0.75" transform="rotate(-24)" />
      <ellipse cx="28" cy="119.80" rx="17.62" ry="33.47" fill="#8a967a" fill-opacity="0.66" transform="rotate(20)" />
      <g transform="translate(0 0)">
        <ellipse cx="24.66" cy="0.00" rx="15.86" ry="24.66" fill="#e9e4ef" fill-opacity="0.95" /><ellipse cx="17.44" cy="17.44" rx="15.86" ry="24.66" fill="#e9e4ef" fill-opacity="0.95" /><ellipse cx="0.00" cy="24.66" rx="15.86" ry="24.66" fill="#e9e4ef" fill-opacity="0.95" /><ellipse cx="-17.44" cy="17.44" rx="15.86" ry="24.66" fill="#e9e4ef" fill-opacity="0.95" /><ellipse cx="-24.66" cy="0.00" rx="15.86" ry="24.66" fill="#e9e4ef" fill-opacity="0.95" /><ellipse cx="-17.44" cy="-17.44" rx="15.86" ry="24.66" fill="#e9e4ef" fill-opacity="0.95" /><ellipse cx="-0.00" cy="-24.66" rx="15.86" ry="24.66" fill="#e9e4ef" fill-opacity="0.95" /><ellipse cx="17.44" cy="-17.44" rx="15.86" ry="24.66" fill="#e9e4ef" fill-opacity="0.95" />
        <circle cx="0" cy="0" r="15.86" fill="#b17ca8" />
        <circle cx="0" cy="0" r="7.93" fill="#fff7f0" fill-opacity="0.72" />
      </g>
    </g>
    
    <g transform="translate(607.11 330.65) rotate(-22.78)">
      <path d="M 0 0 C -8 71.27, 10 118.78, -6 174.20" stroke="#768169" stroke-width="9.50" fill="none" stroke-linecap="round" />
      <ellipse cx="-20" cy="87.10" rx="17.42" ry="33.26" fill="#768169" fill-opacity="0.75" transform="rotate(-24)" />
      <ellipse cx="28" cy="107.69" rx="15.84" ry="30.09" fill="#768169" fill-opacity="0.66" transform="rotate(20)" />
      <g transform="translate(0 0)">
        <ellipse cx="22.17" cy="0.00" rx="14.25" ry="22.17" fill="#e9bfd5" fill-opacity="0.95" /><ellipse cx="15.68" cy="15.68" rx="14.25" ry="22.17" fill="#e9bfd5" fill-opacity="0.95" /><ellipse cx="0.00" cy="22.17" rx="14.25" ry="22.17" fill="#e9bfd5" fill-opacity="0.95" /><ellipse cx="-15.68" cy="15.68" rx="14.25" ry="22.17" fill="#e9bfd5" fill-opacity="0.95" /><ellipse cx="-22.17" cy="0.00" rx="14.25" ry="22.17" fill="#e9bfd5" fill-opacity="0.95" /><ellipse cx="-15.68" cy="-15.68" rx="14.25" ry="22.17" fill="#e9bfd5" fill-opacity="0.95" /><ellipse cx="-0.00" cy="-22.17" rx="14.25" ry="22.17" fill="#e9bfd5" fill-opacity="0.95" /><ellipse cx="15.68" cy="-15.68" rx="14.25" ry="22.17" fill="#e9bfd5" fill-opacity="0.95" />
        <circle cx="0" cy="0" r="14.25" fill="#b17ca8" />
        <circle cx="0" cy="0" r="7.13" fill="#fff7f0" fill-opacity="0.72" />
      </g>
    </g>
    
    <g transform="translate(577.26 375.74) rotate(10.93)">
      <path d="M 0 0 C -8 79.92, 10 133.20, -6 195.36" stroke="#acb39f" stroke-width="10.66" fill="none" stroke-linecap="round" />
      <ellipse cx="-20" cy="97.68" rx="19.54" ry="37.30" fill="#acb39f" fill-opacity="0.75" transform="rotate(-24)" />
      <ellipse cx="28" cy="120.77" rx="17.76" ry="33.74" fill="#acb39f" fill-opacity="0.66" transform="rotate(20)" />
      <g transform="translate(0 0)">
        <ellipse cx="24.86" cy="0.00" rx="15.98" ry="24.86" fill="#cfa8c9" fill-opacity="0.95" /><ellipse cx="17.58" cy="17.58" rx="15.98" ry="24.86" fill="#cfa8c9" fill-opacity="0.95" /><ellipse cx="0.00" cy="24.86" rx="15.98" ry="24.86" fill="#cfa8c9" fill-opacity="0.95" /><ellipse cx="-17.58" cy="17.58" rx="15.98" ry="24.86" fill="#cfa8c9" fill-opacity="0.95" /><ellipse cx="-24.86" cy="0.00" rx="15.98" ry="24.86" fill="#cfa8c9" fill-opacity="0.95" /><ellipse cx="-17.58" cy="-17.58" rx="15.98" ry="24.86" fill="#cfa8c9" fill-opacity="0.95" /><ellipse cx="-0.00" cy="-24.86" rx="15.98" ry="24.86" fill="#cfa8c9" fill-opacity="0.95" /><ellipse cx="17.58" cy="-17.58" rx="15.98" ry="24.86" fill="#cfa8c9" fill-opacity="0.95" />
        <circle cx="0" cy="0" r="15.98" fill="#b17ca8" />
        <circle cx="0" cy="0" r="7.99" fill="#fff7f0" fill-opacity="0.72" />
      </g>
    </g>
    
  </g>
  <path d="M0 980 C220 920, 420 1030, 900 930 L900 1100 L0 1100 Z" fill="#ffffff" fill-opacity="0.22" />
</svg>
