<svg xmlns="http://www.w3.org/2000/svg" width="900" height="1100" viewBox="0 0 900 1100">
  <defs>
    <linearGradient id="bg" x1="0" y1="0" x2="0" y2="1">
      <stop offset="0%" stop-color="#f7f0f6" />
      <stop offset="100%" stop-color="#eee9f3" />
    </linearGradient>
    <filter id="shadow" x="-20%" y="-20%" width="140%" height="140%">
      <feDropShadow dx="0" dy="22" stdDeviation="24" flood-color="#6c5d4f" flood-opacity="0.12" />
    </filter>
  </defs>
  <rect width="100%" height="100%" fill="url(#bg)" />
  <circle cx="730" cy="180" r="140" fill="#ffffff" fill-opacity="0.18" />
  <circle cx="150" cy="260" r="90" fill="#ffffff" fill-opacity="0.12" />
  
      <rect x="70" y="72" width="300" height="92" rx="24" fill="#ffffff" fill-opacity="0.34" />
      <text x="98" y="120" fill="#2f3a31" font-size="32" font-family="'PingFang SC','Microsoft YaHei',sans-serif" font-weight="600">微光藏花</text>
      <text x="98" y="152" fill="#4e6152" font-size="18" font-family="'PingFang SC','Microsoft YaHei',sans-serif">永生花 · 礼盒</text>
    
  <g filter="url(#shadow)">
    <rect x="180" y="760" width="540" height="250" rx="26" fill="#efe7dd" fill-opacity="0.92" /><rect x="230" y="820" width="440" height="130" rx="22" fill="#f7f1ea" fill-opacity="0.85" />
  </g>
  <g>
    
    <g transform="translate(691.88 300.10) rotate(-4.75)">
      <path d="M 0 0 C -8 87.93, 10 146.55, -6 214.94" stroke="#8a967a" stroke-width="11.72" fill="none" stroke-linecap="round" />
      <ellipse cx="-20" cy="107.47" rx="21.49" ry="41.03" fill="#8a967a" fill-opacity="0.75" transform="rotate(-24)" />
      <ellipse cx="28" cy="132.87" rx="19.54" ry="37.13" fill="#8a967a" fill-opacity="0.66" transform="rotate(20)" />
      <g transform="translate(0 0)">
        <ellipse cx="27.36" cy="0.00" rx="17.59" ry="27.36" fill="#e9bfd5" fill-opacity="0.95" /><ellipse cx="19.34" cy="19.34" rx="17.59" ry="27.36" fill="#e9bfd5" fill-opacity="0.95" /><ellipse cx="0.00" cy="27.36" rx="17.59" ry="27.36" fill="#e9bfd5" fill-opacity="0.95" /><ellipse cx="-19.34" cy="19.34" rx="17.59" ry="27.36" fill="#e9bfd5" fill-opacity="0.95" /><ellipse cx="-27.36" cy="0.00" rx="17.59" ry="27.36" fill="#e9bfd5" fill-opacity="0.95" /><ellipse cx="-19.34" cy="-19.34" rx="17.59" ry="27.36" fill="#e9bfd5" fill-opacity="0.95" /><ellipse cx="-0.00" cy="-27.36" rx="17.59" ry="27.36" fill="#e9bfd5" fill-opacity="0.95" /><ellipse cx="19.34" cy="-19.34" rx="17.59" ry="27.36" fill="#e9bfd5" fill-opacity="0.95" />
        <circle cx="0" cy="0" r="17.59" fill="#b17ca8" />
        <circle cx="0" cy="0" r="8.79" fill="#fff7f0" fill-opacity="0.72" />
      </g>
    </g>
    
    <g transform="translate(259.46 417.27) rotate(18.84)">
      <path d="M 0 0 C -8 72.79, 10 121.32, -6 177.94" stroke="#768169" stroke-width="9.71" fill="none" stroke-linecap="round" />
      <ellipse cx="-20" cy="88.97" rx="17.79" ry="33.97" fill="#768169" fill-opacity="0.75" transform="rotate(-24)" />
      <ellipse cx="28" cy="110.00" rx="16.18" ry="30.73" fill="#768169" fill-opacity="0.66" transform="rotate(20)" />
      <g transform="translate(0 0)">
        <ellipse cx="22.65" cy="0.00" rx="14.56" ry="22.65" fill="#cfa8c9" fill-opacity="0.95" /><ellipse cx="16.01" cy="16.01" rx="14.56" ry="22.65" fill="#cfa8c9" fill-opacity="0.95" /><ellipse cx="0.00" cy="22.65" rx="14.56" ry="22.65" fill="#cfa8c9" fill-opacity="0.95" /><ellipse cx="-16.01" cy="16.01" rx="14.56" ry="22.65" fill="#cfa8c9" fill-opacity="0.95" /><ellipse cx="-22.65" cy="0.00" rx="14.56" ry="22.65" fill="#cfa8c9" fill-opacity="0.95" /><ellipse cx="-16.01" cy="-16.01" rx="14.56" ry="22.65" fill="#cfa8c9" fill-opacity="0.95" /><ellipse cx="-0.00" cy="-22.65" rx="14.56" ry="22.65" fill="#cfa8c9" fill-opacity="0.95" /><ellipse cx="16.01" cy="-16.01" rx="14.56" ry="22.65" fill="#cfa8c9" fill-opacity="0.95" />
        <circle cx="0" cy="0" r="14.56" fill="#b17ca8" />
        <circle cx="0" cy="0" r="7.28" fill="#fff7f0" fill-opacity="0.72" />
      </g>
    </g>
    
    <g transform="translate(486.58 393.98) rotate(5.42)">
      <path d="M 0 0 C -8 71.20, 10 118.67, -6 174.05" stroke="#acb39f" stroke-width="9.49" fill="none" stroke-linecap="round" />
      <ellipse cx="-20" cy="87.03" rx="17.41" ry="33.23" fill="#acb39f" fill-opacity="0.75" transform="rotate(-24)" />
      <ellipse cx="28" cy="107.60" rx="15.82" ry="30.06" fill="#acb39f" fill-opacity="0.66" transform="rotate(20)" />
      <g transform="translate(0 0)">
        <ellipse cx="22.15" cy="0.00" rx="14.24" ry="22.15" fill="#f0d8c8" fill-opacity="0.95" /><ellipse cx="15.66" cy="15.66" rx="14.24" ry="22.15" fill="#f0d8c8" fill-opacity="0.95" /><ellipse cx="0.00" cy="22.15" rx="14.24" ry="22.15" fill="#f0d8c8" fill-opacity="0.95" /><ellipse cx="-15.66" cy="15.66" rx="14.24" ry="22.15" fill="#f0d8c8" fill-opacity="0.95" /><ellipse cx="-22.15" cy="0.00" rx="14.24" ry="22.15" fill="#f0d8c8" fill-opacity="0.95" /><ellipse cx="-15.66" cy="-15.66" rx="14.24" ry="22.15" fill="#f0d8c8" fill-opacity="0.95" /><ellipse cx="-0.00" cy="-22.15" rx="14.24" ry="22.15" fill="#f0d8c8" fill-opacity="0.95" /><ellipse cx="15.66" cy="-15.66" rx="14.24" ry="22.15" fill="#f0d8c8" fill-opacity="0.95" />
        <circle cx="0" cy="0" r="14.24" fill="#b17ca8" />
        <circle cx="0" cy="0" r="7.12" fill="#fff7f0" fill-opacity="0.72" />
      </g>
    </g>
    
    <g transform="translate(605.40 432.42) rotate(-9.87)">
      <path d="M 0 0 C -8 78.58, 10 130.96, -6 192.07" stroke="#8a967a" stroke-width="10.48" fill="none" stroke-linecap="round" />
      <ellipse cx="-20" cy="96.04" rx="19.21" ry="36.67" fill="#8a967a" fill-opacity="0.75" transform="rotate(-24)" />
      <ellipse cx="28" cy="118.74" rx="17.46" ry="33.18" fill="#8a967a" fill-opacity="0.66" transform="rotate(20)" />
      <g transform="translate(0 0)">
        <ellipse cx="24.45" cy="0.00" rx="15.72" ry="24.45" fill="#e9e4ef" fill-opacity="0.95" /><ellipse cx="17.29" cy="17.29" rx="15.72" ry="24.45" fill="#e9e4ef" fill-opacity="0.95" /><ellipse cx="0.00" cy="24.45" rx="15.72" ry="24.45" fill="#e9e4ef" fill-opacity="0.95" /><ellipse cx="-17.29" cy="17.29" rx="15.72" ry="24.45" fill="#e9e4ef" fill-opacity="0.95" /><ellipse cx="-24.45" cy="0.00" rx="15.72" ry="24.45" fill="#e9e4ef" fill-opacity="0.95" /><ellipse cx="-17.29" cy="-17.29" rx="15.72" ry="24.45" fill="#e9e4ef" fill-opacity="0.95" /><ellipse cx="-0.00" cy="-24.45" rx="15.72" ry="24.45" fill="#e9e4ef" fill-opacity="0.95" /><ellipse cx="17.29" cy="-17.29" rx="15.72" ry="24.45" fill="#e9e4ef" fill-opacity="0.95" />
        <circle cx="0" cy="0" r="15.72" fill="#b17ca8" />
        <circle cx="0" cy="0" r="7.86" fill="#fff7f0" fill-opacity="0.72" />
      </g>
    </g>
    
    <g transform="translate(239.70 400.83) rotate(5.81)">
      <path d="M 0 0 C -8 76.14, 10 126.90, -6 186.12" stroke="#768169" stroke-width="10.15" fill="none" stroke-linecap="round" />
      <ellipse cx="-20" cy="93.06" rx="18.61" ry="35.53" fill="#768169" fill-opacity="0.75" transform="rotate(-24)" />
      <ellipse cx="28" cy="115.05" rx="16.92" ry="32.15" fill="#768169" fill-opacity="0.66" transform="rotate(20)" />
      <g transform="translate(0 0)">
        <ellipse cx="23.69" cy="0.00" rx="15.23" ry="23.69" fill="#e9bfd5" fill-opacity="0.95" /><ellipse cx="16.75" cy="16.75" rx="15.23" ry="23.69" fill="#e9bfd5" fill-opacity="0.95" /><ellipse cx="0.00" cy="23.69" rx="15.23" ry="23.69" fill="#e9bfd5" fill-opacity="0.95" /><ellipse cx="-16.75" cy="16.75" rx="15.23" ry="23.69" fill="#e9bfd5" fill-opacity="0.95" /><ellipse cx="-23.69" cy="0.00" rx="15.23" ry="23.69" fill="#e9bfd5" fill-opacity="0.95" /><ellipse cx="-16.75" cy="-16.75" rx="15.23" ry="23.69" fill="#e9bfd5" fill-opacity="0.95" /><ellipse cx="-0.00" cy="-23.69" rx="15.23" ry="23.69" fill="#e9bfd5" fill-opacity="0.95" /><ellipse cx="16.75" cy="-16.75" rx="15.23" ry="23.69" fill="#e9bfd5" fill-opacity="0.95" />
        <circle cx="0" cy="0" r="15.23" fill="#b17ca8" />
        <circle cx="0" cy="0" r="7.61" fill="#fff7f0" fill-opacity="0.72" />
      </g>
    </g>
    
    <g transform="translate(349.79 347.40) rotate(7.55)">
      <path d="M 0 0 C -8 90.44, 10 150.74, -6 221.09" stroke="#acb39f" stroke-width="12.06" fill="none" stroke-linecap="round" />
      <ellipse cx="-20" cy="110.54" rx="22.11" ry="42.21" fill="#acb39f" fill-opacity="0.75" transform="rotate(-24)" />
      <ellipse cx="28" cy="136.67" rx="20.10" ry="38.19" fill="#acb39f" fill-opacity="0.66" transform="rotate(20)" />
      <g transform="translate(0 0)">
        <ellipse cx="28.14" cy="0.00" rx="18.09" ry="28.14" fill="#cfa8c9" fill-opacity="0.95" /><ellipse cx="19.90" cy="19.90" rx="18.09" ry="28.14" fill="#cfa8c9" fill-opacity="0.95" /><ellipse cx="0.00" cy="28.14" rx="18.09" ry="28.14" fill="#cfa8c9" fill-opacity="0.95" /><ellipse cx="-19.90" cy="19.90" rx="18.09" ry="28.14" fill="#cfa8c9" fill-opacity="0.95" /><ellipse cx="-28.14" cy="0.00" rx="18.09" ry="28.14" fill="#cfa8c9" fill-opacity="0.95" /><ellipse cx="-19.90" cy="-19.90" rx="18.09" ry="28.14" fill="#cfa8c9" fill-opacity="0.95" /><ellipse cx="-0.00" cy="-28.14" rx="18.09" ry="28.14" fill="#cfa8c9" fill-opacity="0.95" /><ellipse cx="19.90" cy="-19.90" rx="18.09" ry="28.14" fill="#cfa8c9" fill-opacity="0.95" />
        <circle cx="0" cy="0" r="18.09" fill="#b17ca8" />
        <circle cx="0" cy="0" r="9.04" fill="#fff7f0" fill-opacity="0.72" />
      </g>
    </g>
    
    <g transform="translate(678.05 457.26) rotate(18.21)">
      <path d="M 0 0 C -8 100.30, 10 167.16, -6 245.17" stroke="#8a967a" stroke-width="13.37" fill="none" stroke-linecap="round" />
      <ellipse cx="-20" cy="122.59" rx="24.52" ry="46.81" fill="#8a967a" fill-opacity="0.75" transform="rotate(-24)" />
      <ellipse cx="28" cy="151.56" rx="22.29" ry="42.35" fill="#8a967a" fill-opacity="0.66" transform="rotate(20)" />
      <g transform="translate(0 0)">
        <ellipse cx="31.20" cy="0.00" rx="20.06" ry="31.20" fill="#f0d8c8" fill-opacity="0.95" /><ellipse cx="22.06" cy="22.06" rx="20.06" ry="31.20" fill="#f0d8c8" fill-opacity="0.95" /><ellipse cx="0.00" cy="31.20" rx="20.06" ry="31.20" fill="#f0d8c8" fill-opacity="0.95" /><ellipse cx="-22.06" cy="22.06" rx="20.06" ry="31.20" fill="#f0d8c8" fill-opacity="0.95" /><ellipse cx="-31.20" cy="0.00" rx="20.06" ry="31.20" fill="#f0d8c8" fill-opacity="0.95" /><ellipse cx="-22.06" cy="-22.06" rx="20.06" ry="31.20" fill="#f0d8c8" fill-opacity="0.95" /><ellipse cx="-0.00" cy="-31.20" rx="20.06" ry="31.20" fill="#f0d8c8" fill-opacity="0.95" /><ellipse cx="22.06" cy="-22.06" rx="20.06" ry="31.20" fill="#f0d8c8" fill-opacity="0.95" />
        <circle cx="0" cy="0" r="20.06" fill="#b17ca8" />
        <circle cx="0" cy="0" r="10.03" fill="#fff7f0" fill-opacity="0.72" />
      </g>
    </g>
    
  </g>
  <path d="M0 980 C220 920, 420 1030, 900 930 L900 1100 L0 1100 Z" fill="#ffffff" fill-opacity="0.22" />
</svg>
