<svg xmlns="http://www.w3.org/2000/svg" width="900" height="1100" viewBox="0 0 900 1100">
  <defs>
    <linearGradient id="bg" x1="0" y1="0" x2="0" y2="1">
      <stop offset="0%" stop-color="#f7f0f6" />
      <stop offset="100%" stop-color="#eee9f3" />
    </linearGradient>
    <filter id="shadow" x="-20%" y="-20%" width="140%" height="140%">
      <feDropShadow dx="0" dy="22" stdDeviation="24" flood-color="#6c5d4f" flood-opacity="0.12" />
    </filter>
  </defs>
  <rect width="100%" height="100%" fill="url(#bg)" />
  <circle cx="730" cy="180" r="140" fill="#ffffff" fill-opacity="0.18" />
  <circle cx="150" cy="260" r="90" fill="#ffffff" fill-opacity="0.12" />
  
      <rect x="70" y="72" width="300" height="92" rx="24" fill="#ffffff" fill-opacity="0.34" />
      <text x="98" y="120" fill="#2f3a31" font-size="32" font-family="'PingFang SC','Microsoft YaHei',sans-serif" font-weight="600">旧梦礼盒</text>
      <text x="98" y="152" fill="#4e6152" font-size="18" font-family="'PingFang SC','Microsoft YaHei',sans-serif">玻璃罩 · 摆件</text>
    
  <g filter="url(#shadow)">
    <rect x="180" y="760" width="540" height="250" rx="26" fill="#efe7dd" fill-opacity="0.92" /><rect x="230" y="820" width="440" height="130" rx="22" fill="#f7f1ea" fill-opacity="0.85" />
  </g>
  <g>
    
    <g transform="translate(507.02 441.02) rotate(-3.94)">
      <path d="M 0 0 C -8 113.96, 10 189.94, -6 278.57" stroke="#8a967a" stroke-width="15.19" fill="none" stroke-linecap="round" />
      <ellipse cx="-20" cy="139.29" rx="27.86" ry="53.18" fill="#8a967a" fill-opacity="0.75" transform="rotate(-24)" />
      <ellipse cx="28" cy="172.21" rx="25.32" ry="48.12" fill="#8a967a" fill-opacity="0.66" transform="rotate(20)" />
      <g transform="translate(0 0)">
        <ellipse cx="35.45" cy="0.00" rx="22.79" ry="35.45" fill="#e9bfd5" fill-opacity="0.95" /><ellipse cx="25.07" cy="25.07" rx="22.79" ry="35.45" fill="#e9bfd5" fill-opacity="0.95" /><ellipse cx="0.00" cy="35.45" rx="22.79" ry="35.45" fill="#e9bfd5" fill-opacity="0.95" /><ellipse cx="-25.07" cy="25.07" rx="22.79" ry="35.45" fill="#e9bfd5" fill-opacity="0.95" /><ellipse cx="-35.45" cy="0.00" rx="22.79" ry="35.45" fill="#e9bfd5" fill-opacity="0.95" /><ellipse cx="-25.07" cy="-25.07" rx="22.79" ry="35.45" fill="#e9bfd5" fill-opacity="0.95" /><ellipse cx="-0.00" cy="-35.45" rx="22.79" ry="35.45" fill="#e9bfd5" fill-opacity="0.95" /><ellipse cx="25.07" cy="-25.07" rx="22.79" ry="35.45" fill="#e9bfd5" fill-opacity="0.95" />
        <circle cx="0" cy="0" r="22.79" fill="#b17ca8" />
        <circle cx="0" cy="0" r="11.40" fill="#fff7f0" fill-opacity="0.72" />
      </g>
    </g>
    
    <g transform="translate(254.14 331.23) rotate(21.54)">
      <path d="M 0 0 C -8 96.39, 10 160.64, -6 235.61" stroke="#768169" stroke-width="12.85" fill="none" stroke-linecap="round" />
      <ellipse cx="-20" cy="117.80" rx="23.56" ry="44.98" fill="#768169" fill-opacity="0.75" transform="rotate(-24)" />
      <ellipse cx="28" cy="145.65" rx="21.42" ry="40.70" fill="#768169" fill-opacity="0.66" transform="rotate(20)" />
      <g transform="translate(0 0)">
        <ellipse cx="29.99" cy="0.00" rx="19.28" ry="29.99" fill="#cfa8c9" fill-opacity="0.95" /><ellipse cx="21.20" cy="21.20" rx="19.28" ry="29.99" fill="#cfa8c9" fill-opacity="0.95" /><ellipse cx="0.00" cy="29.99" rx="19.28" ry="29.99" fill="#cfa8c9" fill-opacity="0.95" /><ellipse cx="-21.20" cy="21.20" rx="19.28" ry="29.99" fill="#cfa8c9" fill-opacity="0.95" /><ellipse cx="-29.99" cy="0.00" rx="19.28" ry="29.99" fill="#cfa8c9" fill-opacity="0.95" /><ellipse cx="-21.20" cy="-21.20" rx="19.28" ry="29.99" fill="#cfa8c9" fill-opacity="0.95" /><ellipse cx="-0.00" cy="-29.99" rx="19.28" ry="29.99" fill="#cfa8c9" fill-opacity="0.95" /><ellipse cx="21.20" cy="-21.20" rx="19.28" ry="29.99" fill="#cfa8c9" fill-opacity="0.95" />
        <circle cx="0" cy="0" r="19.28" fill="#b17ca8" />
        <circle cx="0" cy="0" r="9.64" fill="#fff7f0" fill-opacity="0.72" />
      </g>
    </g>
    
    <g transform="translate(246.62 358.00) rotate(24.61)">
      <path d="M 0 0 C -8 80.02, 10 133.37, -6 195.60" stroke="#acb39f" stroke-width="10.67" fill="none" stroke-linecap="round" />
      <ellipse cx="-20" cy="97.80" rx="19.56" ry="37.34" fill="#acb39f" fill-opacity="0.75" transform="rotate(-24)" />
      <ellipse cx="28" cy="120.92" rx="17.78" ry="33.79" fill="#acb39f" fill-opacity="0.66" transform="rotate(20)" />
      <g transform="translate(0 0)">
        <ellipse cx="24.89" cy="0.00" rx="16.00" ry="24.89" fill="#f0d8c8" fill-opacity="0.95" /><ellipse cx="17.60" cy="17.60" rx="16.00" ry="24.89" fill="#f0d8c8" fill-opacity="0.95" /><ellipse cx="0.00" cy="24.89" rx="16.00" ry="24.89" fill="#f0d8c8" fill-opacity="0.95" /><ellipse cx="-17.60" cy="17.60" rx="16.00" ry="24.89" fill="#f0d8c8" fill-opacity="0.95" /><ellipse cx="-24.89" cy="0.00" rx="16.00" ry="24.89" fill="#f0d8c8" fill-opacity="0.95" /><ellipse cx="-17.60" cy="-17.60" rx="16.00" ry="24.89" fill="#f0d8c8" fill-opacity="0.95" /><ellipse cx="-0.00" cy="-24.89" rx="16.00" ry="24.89" fill="#f0d8c8" fill-opacity="0.95" /><ellipse cx="17.60" cy="-17.60" rx="16.00" ry="24.89" fill="#f0d8c8" fill-opacity="0.95" />
        <circle cx="0" cy="0" r="16.00" fill="#b17ca8" />
        <circle cx="0" cy="0" r="8.00" fill="#fff7f0" fill-opacity="0.72" />
      </g>
    </g>
    
    <g transform="translate(344.20 504.50) rotate(18.20)">
      <path d="M 0 0 C -8 106.33, 10 177.22, -6 259.92" stroke="#8a967a" stroke-width="14.18" fill="none" stroke-linecap="round" />
      <ellipse cx="-20" cy="129.96" rx="25.99" ry="49.62" fill="#8a967a" fill-opacity="0.75" transform="rotate(-24)" />
      <ellipse cx="28" cy="160.68" rx="23.63" ry="44.90" fill="#8a967a" fill-opacity="0.66" transform="rotate(20)" />
      <g transform="translate(0 0)">
        <ellipse cx="33.08" cy="0.00" rx="21.27" ry="33.08" fill="#e9e4ef" fill-opacity="0.95" /><ellipse cx="23.39" cy="23.39" rx="21.27" ry="33.08" fill="#e9e4ef" fill-opacity="0.95" /><ellipse cx="0.00" cy="33.08" rx="21.27" ry="33.08" fill="#e9e4ef" fill-opacity="0.95" /><ellipse cx="-23.39" cy="23.39" rx="21.27" ry="33.08" fill="#e9e4ef" fill-opacity="0.95" /><ellipse cx="-33.08" cy="0.00" rx="21.27" ry="33.08" fill="#e9e4ef" fill-opacity="0.95" /><ellipse cx="-23.39" cy="-23.39" rx="21.27" ry="33.08" fill="#e9e4ef" fill-opacity="0.95" /><ellipse cx="-0.00" cy="-33.08" rx="21.27" ry="33.08" fill="#e9e4ef" fill-opacity="0.95" /><ellipse cx="23.39" cy="-23.39" rx="21.27" ry="33.08" fill="#e9e4ef" fill-opacity="0.95" />
        <circle cx="0" cy="0" r="21.27" fill="#b17ca8" />
        <circle cx="0" cy="0" r="10.63" fill="#fff7f0" fill-opacity="0.72" />
      </g>
    </g>
    
    <g transform="translate(231.54 454.31) rotate(20.44)">
      <path d="M 0 0 C -8 108.65, 10 181.09, -6 265.59" stroke="#768169" stroke-width="14.49" fill="none" stroke-linecap="round" />
      <ellipse cx="-20" cy="132.80" rx="26.56" ry="50.70" fill="#768169" fill-opacity="0.75" transform="rotate(-24)" />
      <ellipse cx="28" cy="164.19" rx="24.14" ry="45.88" fill="#768169" fill-opacity="0.66" transform="rotate(20)" />
      <g transform="translate(0 0)">
        <ellipse cx="33.80" cy="0.00" rx="21.73" ry="33.80" fill="#e9bfd5" fill-opacity="0.95" /><ellipse cx="23.90" cy="23.90" rx="21.73" ry="33.80" fill="#e9bfd5" fill-opacity="0.95" /><ellipse cx="0.00" cy="33.80" rx="21.73" ry="33.80" fill="#e9bfd5" fill-opacity="0.95" /><ellipse cx="-23.90" cy="23.90" rx="21.73" ry="33.80" fill="#e9bfd5" fill-opacity="0.95" /><ellipse cx="-33.80" cy="0.00" rx="21.73" ry="33.80" fill="#e9bfd5" fill-opacity="0.95" /><ellipse cx="-23.90" cy="-23.90" rx="21.73" ry="33.80" fill="#e9bfd5" fill-opacity="0.95" /><ellipse cx="-0.00" cy="-33.80" rx="21.73" ry="33.80" fill="#e9bfd5" fill-opacity="0.95" /><ellipse cx="23.90" cy="-23.90" rx="21.73" ry="33.80" fill="#e9bfd5" fill-opacity="0.95" />
        <circle cx="0" cy="0" r="21.73" fill="#b17ca8" />
        <circle cx="0" cy="0" r="10.87" fill="#fff7f0" fill-opacity="0.72" />
      </g>
    </g>
    
    <g transform="translate(463.48 379.35) rotate(-13.51)">
      <path d="M 0 0 C -8 82.79, 10 137.98, -6 202.37" stroke="#acb39f" stroke-width="11.04" fill="none" stroke-linecap="round" />
      <ellipse cx="-20" cy="101.19" rx="20.24" ry="38.64" fill="#acb39f" fill-opacity="0.75" transform="rotate(-24)" />
      <ellipse cx="28" cy="125.10" rx="18.40" ry="34.96" fill="#acb39f" fill-opacity="0.66" transform="rotate(20)" />
      <g transform="translate(0 0)">
        <ellipse cx="25.76" cy="0.00" rx="16.56" ry="25.76" fill="#cfa8c9" fill-opacity="0.95" /><ellipse cx="18.21" cy="18.21" rx="16.56" ry="25.76" fill="#cfa8c9" fill-opacity="0.95" /><ellipse cx="0.00" cy="25.76" rx="16.56" ry="25.76" fill="#cfa8c9" fill-opacity="0.95" /><ellipse cx="-18.21" cy="18.21" rx="16.56" ry="25.76" fill="#cfa8c9" fill-opacity="0.95" /><ellipse cx="-25.76" cy="0.00" rx="16.56" ry="25.76" fill="#cfa8c9" fill-opacity="0.95" /><ellipse cx="-18.21" cy="-18.21" rx="16.56" ry="25.76" fill="#cfa8c9" fill-opacity="0.95" /><ellipse cx="-0.00" cy="-25.76" rx="16.56" ry="25.76" fill="#cfa8c9" fill-opacity="0.95" /><ellipse cx="18.21" cy="-18.21" rx="16.56" ry="25.76" fill="#cfa8c9" fill-opacity="0.95" />
        <circle cx="0" cy="0" r="16.56" fill="#b17ca8" />
        <circle cx="0" cy="0" r="8.28" fill="#fff7f0" fill-opacity="0.72" />
      </g>
    </g>
    
  </g>
  <path d="M0 980 C220 920, 420 1030, 900 930 L900 1100 L0 1100 Z" fill="#ffffff" fill-opacity="0.22" />
</svg>
