<svg xmlns="http://www.w3.org/2000/svg" width="900" height="1100" viewBox="0 0 900 1100">
  <defs>
    <linearGradient id="bg" x1="0" y1="0" x2="0" y2="1">
      <stop offset="0%" stop-color="#f7f0f6" />
      <stop offset="100%" stop-color="#eee9f3" />
    </linearGradient>
    <filter id="shadow" x="-20%" y="-20%" width="140%" height="140%">
      <feDropShadow dx="0" dy="22" stdDeviation="24" flood-color="#6c5d4f" flood-opacity="0.12" />
    </filter>
  </defs>
  <rect width="100%" height="100%" fill="url(#bg)" />
  <circle cx="730" cy="180" r="140" fill="#ffffff" fill-opacity="0.18" />
  <circle cx="150" cy="260" r="90" fill="#ffffff" fill-opacity="0.12" />
  
      <rect x="70" y="72" width="300" height="92" rx="24" fill="#ffffff" fill-opacity="0.34" />
      <text x="98" y="120" fill="#2f3a31" font-size="32" font-family="'PingFang SC','Microsoft YaHei',sans-serif" font-weight="600">留白心意</text>
      <text x="98" y="152" fill="#4e6152" font-size="18" font-family="'PingFang SC','Microsoft YaHei',sans-serif">玻璃罩 · 摆件</text>
    
  <g filter="url(#shadow)">
    <rect x="180" y="760" width="540" height="250" rx="26" fill="#efe7dd" fill-opacity="0.92" /><rect x="230" y="820" width="440" height="130" rx="22" fill="#f7f1ea" fill-opacity="0.85" />
  </g>
  <g>
    
    <g transform="translate(465.68 420.81) rotate(-17.45)">
      <path d="M 0 0 C -8 70.77, 10 117.95, -6 172.99" stroke="#8a967a" stroke-width="9.44" fill="none" stroke-linecap="round" />
      <ellipse cx="-20" cy="86.50" rx="17.30" ry="33.03" fill="#8a967a" fill-opacity="0.75" transform="rotate(-24)" />
      <ellipse cx="28" cy="106.94" rx="15.73" ry="29.88" fill="#8a967a" fill-opacity="0.66" transform="rotate(20)" />
      <g transform="translate(0 0)">
        <ellipse cx="22.02" cy="0.00" rx="14.15" ry="22.02" fill="#e9bfd5" fill-opacity="0.95" /><ellipse cx="15.57" cy="15.57" rx="14.15" ry="22.02" fill="#e9bfd5" fill-opacity="0.95" /><ellipse cx="0.00" cy="22.02" rx="14.15" ry="22.02" fill="#e9bfd5" fill-opacity="0.95" /><ellipse cx="-15.57" cy="15.57" rx="14.15" ry="22.02" fill="#e9bfd5" fill-opacity="0.95" /><ellipse cx="-22.02" cy="0.00" rx="14.15" ry="22.02" fill="#e9bfd5" fill-opacity="0.95" /><ellipse cx="-15.57" cy="-15.57" rx="14.15" ry="22.02" fill="#e9bfd5" fill-opacity="0.95" /><ellipse cx="-0.00" cy="-22.02" rx="14.15" ry="22.02" fill="#e9bfd5" fill-opacity="0.95" /><ellipse cx="15.57" cy="-15.57" rx="14.15" ry="22.02" fill="#e9bfd5" fill-opacity="0.95" />
        <circle cx="0" cy="0" r="14.15" fill="#b17ca8" />
        <circle cx="0" cy="0" r="7.08" fill="#fff7f0" fill-opacity="0.72" />
      </g>
    </g>
    
    <g transform="translate(455.96 447.04) rotate(1.40)">
      <path d="M 0 0 C -8 89.93, 10 149.89, -6 219.84" stroke="#768169" stroke-width="11.99" fill="none" stroke-linecap="round" />
      <ellipse cx="-20" cy="109.92" rx="21.98" ry="41.97" fill="#768169" fill-opacity="0.75" transform="rotate(-24)" />
      <ellipse cx="28" cy="135.90" rx="19.99" ry="37.97" fill="#768169" fill-opacity="0.66" transform="rotate(20)" />
      <g transform="translate(0 0)">
        <ellipse cx="27.98" cy="0.00" rx="17.99" ry="27.98" fill="#cfa8c9" fill-opacity="0.95" /><ellipse cx="19.78" cy="19.78" rx="17.99" ry="27.98" fill="#cfa8c9" fill-opacity="0.95" /><ellipse cx="0.00" cy="27.98" rx="17.99" ry="27.98" fill="#cfa8c9" fill-opacity="0.95" /><ellipse cx="-19.78" cy="19.78" rx="17.99" ry="27.98" fill="#cfa8c9" fill-opacity="0.95" /><ellipse cx="-27.98" cy="0.00" rx="17.99" ry="27.98" fill="#cfa8c9" fill-opacity="0.95" /><ellipse cx="-19.78" cy="-19.78" rx="17.99" ry="27.98" fill="#cfa8c9" fill-opacity="0.95" /><ellipse cx="-0.00" cy="-27.98" rx="17.99" ry="27.98" fill="#cfa8c9" fill-opacity="0.95" /><ellipse cx="19.78" cy="-19.78" rx="17.99" ry="27.98" fill="#cfa8c9" fill-opacity="0.95" />
        <circle cx="0" cy="0" r="17.99" fill="#b17ca8" />
        <circle cx="0" cy="0" r="8.99" fill="#fff7f0" fill-opacity="0.72" />
      </g>
    </g>
    
    <g transform="translate(524.16 430.63) rotate(12.41)">
      <path d="M 0 0 C -8 115.04, 10 191.74, -6 281.22" stroke="#acb39f" stroke-width="15.34" fill="none" stroke-linecap="round" />
      <ellipse cx="-20" cy="140.61" rx="28.12" ry="53.69" fill="#acb39f" fill-opacity="0.75" transform="rotate(-24)" />
      <ellipse cx="28" cy="173.84" rx="25.57" ry="48.57" fill="#acb39f" fill-opacity="0.66" transform="rotate(20)" />
      <g transform="translate(0 0)">
        <ellipse cx="35.79" cy="0.00" rx="23.01" ry="35.79" fill="#f0d8c8" fill-opacity="0.95" /><ellipse cx="25.31" cy="25.31" rx="23.01" ry="35.79" fill="#f0d8c8" fill-opacity="0.95" /><ellipse cx="0.00" cy="35.79" rx="23.01" ry="35.79" fill="#f0d8c8" fill-opacity="0.95" /><ellipse cx="-25.31" cy="25.31" rx="23.01" ry="35.79" fill="#f0d8c8" fill-opacity="0.95" /><ellipse cx="-35.79" cy="0.00" rx="23.01" ry="35.79" fill="#f0d8c8" fill-opacity="0.95" /><ellipse cx="-25.31" cy="-25.31" rx="23.01" ry="35.79" fill="#f0d8c8" fill-opacity="0.95" /><ellipse cx="-0.00" cy="-35.79" rx="23.01" ry="35.79" fill="#f0d8c8" fill-opacity="0.95" /><ellipse cx="25.31" cy="-25.31" rx="23.01" ry="35.79" fill="#f0d8c8" fill-opacity="0.95" />
        <circle cx="0" cy="0" r="23.01" fill="#b17ca8" />
        <circle cx="0" cy="0" r="11.50" fill="#fff7f0" fill-opacity="0.72" />
      </g>
    </g>
    
    <g transform="translate(650.54 470.61) rotate(1.65)">
      <path d="M 0 0 C -8 108.18, 10 180.29, -6 264.43" stroke="#8a967a" stroke-width="14.42" fill="none" stroke-linecap="round" />
      <ellipse cx="-20" cy="132.22" rx="26.44" ry="50.48" fill="#8a967a" fill-opacity="0.75" transform="rotate(-24)" />
      <ellipse cx="28" cy="163.47" rx="24.04" ry="45.67" fill="#8a967a" fill-opacity="0.66" transform="rotate(20)" />
      <g transform="translate(0 0)">
        <ellipse cx="33.65" cy="0.00" rx="21.64" ry="33.65" fill="#e9e4ef" fill-opacity="0.95" /><ellipse cx="23.80" cy="23.80" rx="21.64" ry="33.65" fill="#e9e4ef" fill-opacity="0.95" /><ellipse cx="0.00" cy="33.65" rx="21.64" ry="33.65" fill="#e9e4ef" fill-opacity="0.95" /><ellipse cx="-23.80" cy="23.80" rx="21.64" ry="33.65" fill="#e9e4ef" fill-opacity="0.95" /><ellipse cx="-33.65" cy="0.00" rx="21.64" ry="33.65" fill="#e9e4ef" fill-opacity="0.95" /><ellipse cx="-23.80" cy="-23.80" rx="21.64" ry="33.65" fill="#e9e4ef" fill-opacity="0.95" /><ellipse cx="-0.00" cy="-33.65" rx="21.64" ry="33.65" fill="#e9e4ef" fill-opacity="0.95" /><ellipse cx="23.80" cy="-23.80" rx="21.64" ry="33.65" fill="#e9e4ef" fill-opacity="0.95" />
        <circle cx="0" cy="0" r="21.64" fill="#b17ca8" />
        <circle cx="0" cy="0" r="10.82" fill="#fff7f0" fill-opacity="0.72" />
      </g>
    </g>
    
    <g transform="translate(568.19 308.03) rotate(22.23)">
      <path d="M 0 0 C -8 113.40, 10 189.00, -6 277.21" stroke="#768169" stroke-width="15.12" fill="none" stroke-linecap="round" />
      <ellipse cx="-20" cy="138.60" rx="27.72" ry="52.92" fill="#768169" fill-opacity="0.75" transform="rotate(-24)" />
      <ellipse cx="28" cy="171.36" rx="25.20" ry="47.88" fill="#768169" fill-opacity="0.66" transform="rotate(20)" />
      <g transform="translate(0 0)">
        <ellipse cx="35.28" cy="0.00" rx="22.68" ry="35.28" fill="#e9bfd5" fill-opacity="0.95" /><ellipse cx="24.95" cy="24.95" rx="22.68" ry="35.28" fill="#e9bfd5" fill-opacity="0.95" /><ellipse cx="0.00" cy="35.28" rx="22.68" ry="35.28" fill="#e9bfd5" fill-opacity="0.95" /><ellipse cx="-24.95" cy="24.95" rx="22.68" ry="35.28" fill="#e9bfd5" fill-opacity="0.95" /><ellipse cx="-35.28" cy="0.00" rx="22.68" ry="35.28" fill="#e9bfd5" fill-opacity="0.95" /><ellipse cx="-24.95" cy="-24.95" rx="22.68" ry="35.28" fill="#e9bfd5" fill-opacity="0.95" /><ellipse cx="-0.00" cy="-35.28" rx="22.68" ry="35.28" fill="#e9bfd5" fill-opacity="0.95" /><ellipse cx="24.95" cy="-24.95" rx="22.68" ry="35.28" fill="#e9bfd5" fill-opacity="0.95" />
        <circle cx="0" cy="0" r="22.68" fill="#b17ca8" />
        <circle cx="0" cy="0" r="11.34" fill="#fff7f0" fill-opacity="0.72" />
      </g>
    </g>
    
    <g transform="translate(549.58 483.65) rotate(-8.65)">
      <path d="M 0 0 C -8 77.58, 10 129.30, -6 189.63" stroke="#acb39f" stroke-width="10.34" fill="none" stroke-linecap="round" />
      <ellipse cx="-20" cy="94.82" rx="18.96" ry="36.20" fill="#acb39f" fill-opacity="0.75" transform="rotate(-24)" />
      <ellipse cx="28" cy="117.23" rx="17.24" ry="32.75" fill="#acb39f" fill-opacity="0.66" transform="rotate(20)" />
      <g transform="translate(0 0)">
        <ellipse cx="24.14" cy="0.00" rx="15.52" ry="24.14" fill="#cfa8c9" fill-opacity="0.95" /><ellipse cx="17.07" cy="17.07" rx="15.52" ry="24.14" fill="#cfa8c9" fill-opacity="0.95" /><ellipse cx="0.00" cy="24.14" rx="15.52" ry="24.14" fill="#cfa8c9" fill-opacity="0.95" /><ellipse cx="-17.07" cy="17.07" rx="15.52" ry="24.14" fill="#cfa8c9" fill-opacity="0.95" /><ellipse cx="-24.14" cy="0.00" rx="15.52" ry="24.14" fill="#cfa8c9" fill-opacity="0.95" /><ellipse cx="-17.07" cy="-17.07" rx="15.52" ry="24.14" fill="#cfa8c9" fill-opacity="0.95" /><ellipse cx="-0.00" cy="-24.14" rx="15.52" ry="24.14" fill="#cfa8c9" fill-opacity="0.95" /><ellipse cx="17.07" cy="-17.07" rx="15.52" ry="24.14" fill="#cfa8c9" fill-opacity="0.95" />
        <circle cx="0" cy="0" r="15.52" fill="#b17ca8" />
        <circle cx="0" cy="0" r="7.76" fill="#fff7f0" fill-opacity="0.72" />
      </g>
    </g>
    
    <g transform="translate(670.73 457.51) rotate(11.21)">
      <path d="M 0 0 C -8 106.05, 10 176.75, -6 259.24" stroke="#8a967a" stroke-width="14.14" fill="none" stroke-linecap="round" />
      <ellipse cx="-20" cy="129.62" rx="25.92" ry="49.49" fill="#8a967a" fill-opacity="0.75" transform="rotate(-24)" />
      <ellipse cx="28" cy="160.25" rx="23.57" ry="44.78" fill="#8a967a" fill-opacity="0.66" transform="rotate(20)" />
      <g transform="translate(0 0)">
        <ellipse cx="32.99" cy="0.00" rx="21.21" ry="32.99" fill="#f0d8c8" fill-opacity="0.95" /><ellipse cx="23.33" cy="23.33" rx="21.21" ry="32.99" fill="#f0d8c8" fill-opacity="0.95" /><ellipse cx="0.00" cy="32.99" rx="21.21" ry="32.99" fill="#f0d8c8" fill-opacity="0.95" /><ellipse cx="-23.33" cy="23.33" rx="21.21" ry="32.99" fill="#f0d8c8" fill-opacity="0.95" /><ellipse cx="-32.99" cy="0.00" rx="21.21" ry="32.99" fill="#f0d8c8" fill-opacity="0.95" /><ellipse cx="-23.33" cy="-23.33" rx="21.21" ry="32.99" fill="#f0d8c8" fill-opacity="0.95" /><ellipse cx="-0.00" cy="-32.99" rx="21.21" ry="32.99" fill="#f0d8c8" fill-opacity="0.95" /><ellipse cx="23.33" cy="-23.33" rx="21.21" ry="32.99" fill="#f0d8c8" fill-opacity="0.95" />
        <circle cx="0" cy="0" r="21.21" fill="#b17ca8" />
        <circle cx="0" cy="0" r="10.61" fill="#fff7f0" fill-opacity="0.72" />
      </g>
    </g>
    
  </g>
  <path d="M0 980 C220 920, 420 1030, 900 930 L900 1100 L0 1100 Z" fill="#ffffff" fill-opacity="0.22" />
</svg>
