<svg xmlns="http://www.w3.org/2000/svg" width="900" height="1100" viewBox="0 0 900 1100">
  <defs>
    <linearGradient id="bg" x1="0" y1="0" x2="0" y2="1">
      <stop offset="0%" stop-color="#f7f0f6" />
      <stop offset="100%" stop-color="#eee9f3" />
    </linearGradient>
    <filter id="shadow" x="-20%" y="-20%" width="140%" height="140%">
      <feDropShadow dx="0" dy="22" stdDeviation="24" flood-color="#6c5d4f" flood-opacity="0.12" />
    </filter>
  </defs>
  <rect width="100%" height="100%" fill="url(#bg)" />
  <circle cx="730" cy="180" r="140" fill="#ffffff" fill-opacity="0.18" />
  <circle cx="150" cy="260" r="90" fill="#ffffff" fill-opacity="0.12" />
  
      <rect x="70" y="72" width="300" height="92" rx="24" fill="#ffffff" fill-opacity="0.34" />
      <text x="98" y="120" fill="#2f3a31" font-size="32" font-family="'PingFang SC','Microsoft YaHei',sans-serif" font-weight="600">暖金礼匣</text>
      <text x="98" y="152" fill="#4e6152" font-size="18" font-family="'PingFang SC','Microsoft YaHei',sans-serif">相框花礼 · 送礼</text>
    
  <g filter="url(#shadow)">
    <rect x="180" y="760" width="540" height="250" rx="26" fill="#efe7dd" fill-opacity="0.92" /><rect x="230" y="820" width="440" height="130" rx="22" fill="#f7f1ea" fill-opacity="0.85" />
  </g>
  <g>
    
    <g transform="translate(498.86 494.62) rotate(0.92)">
      <path d="M 0 0 C -8 114.43, 10 190.72, -6 279.73" stroke="#8a967a" stroke-width="15.26" fill="none" stroke-linecap="round" />
      <ellipse cx="-20" cy="139.86" rx="27.97" ry="53.40" fill="#8a967a" fill-opacity="0.75" transform="rotate(-24)" />
      <ellipse cx="28" cy="172.92" rx="25.43" ry="48.32" fill="#8a967a" fill-opacity="0.66" transform="rotate(20)" />
      <g transform="translate(0 0)">
        <ellipse cx="35.60" cy="0.00" rx="22.89" ry="35.60" fill="#e9bfd5" fill-opacity="0.95" /><ellipse cx="25.17" cy="25.17" rx="22.89" ry="35.60" fill="#e9bfd5" fill-opacity="0.95" /><ellipse cx="0.00" cy="35.60" rx="22.89" ry="35.60" fill="#e9bfd5" fill-opacity="0.95" /><ellipse cx="-25.17" cy="25.17" rx="22.89" ry="35.60" fill="#e9bfd5" fill-opacity="0.95" /><ellipse cx="-35.60" cy="0.00" rx="22.89" ry="35.60" fill="#e9bfd5" fill-opacity="0.95" /><ellipse cx="-25.17" cy="-25.17" rx="22.89" ry="35.60" fill="#e9bfd5" fill-opacity="0.95" /><ellipse cx="-0.00" cy="-35.60" rx="22.89" ry="35.60" fill="#e9bfd5" fill-opacity="0.95" /><ellipse cx="25.17" cy="-25.17" rx="22.89" ry="35.60" fill="#e9bfd5" fill-opacity="0.95" />
        <circle cx="0" cy="0" r="22.89" fill="#b17ca8" />
        <circle cx="0" cy="0" r="11.44" fill="#fff7f0" fill-opacity="0.72" />
      </g>
    </g>
    
    <g transform="translate(626.88 379.22) rotate(-19.85)">
      <path d="M 0 0 C -8 87.67, 10 146.12, -6 214.32" stroke="#768169" stroke-width="11.69" fill="none" stroke-linecap="round" />
      <ellipse cx="-20" cy="107.16" rx="21.43" ry="40.91" fill="#768169" fill-opacity="0.75" transform="rotate(-24)" />
      <ellipse cx="28" cy="132.49" rx="19.48" ry="37.02" fill="#768169" fill-opacity="0.66" transform="rotate(20)" />
      <g transform="translate(0 0)">
        <ellipse cx="27.28" cy="0.00" rx="17.53" ry="27.28" fill="#cfa8c9" fill-opacity="0.95" /><ellipse cx="19.29" cy="19.29" rx="17.53" ry="27.28" fill="#cfa8c9" fill-opacity="0.95" /><ellipse cx="0.00" cy="27.28" rx="17.53" ry="27.28" fill="#cfa8c9" fill-opacity="0.95" /><ellipse cx="-19.29" cy="19.29" rx="17.53" ry="27.28" fill="#cfa8c9" fill-opacity="0.95" /><ellipse cx="-27.28" cy="0.00" rx="17.53" ry="27.28" fill="#cfa8c9" fill-opacity="0.95" /><ellipse cx="-19.29" cy="-19.29" rx="17.53" ry="27.28" fill="#cfa8c9" fill-opacity="0.95" /><ellipse cx="-0.00" cy="-27.28" rx="17.53" ry="27.28" fill="#cfa8c9" fill-opacity="0.95" /><ellipse cx="19.29" cy="-19.29" rx="17.53" ry="27.28" fill="#cfa8c9" fill-opacity="0.95" />
        <circle cx="0" cy="0" r="17.53" fill="#b17ca8" />
        <circle cx="0" cy="0" r="8.77" fill="#fff7f0" fill-opacity="0.72" />
      </g>
    </g>
    
    <g transform="translate(245.59 333.50) rotate(-0.15)">
      <path d="M 0 0 C -8 111.62, 10 186.03, -6 272.85" stroke="#acb39f" stroke-width="14.88" fill="none" stroke-linecap="round" />
      <ellipse cx="-20" cy="136.42" rx="27.28" ry="52.09" fill="#acb39f" fill-opacity="0.75" transform="rotate(-24)" />
      <ellipse cx="28" cy="168.67" rx="24.80" ry="47.13" fill="#acb39f" fill-opacity="0.66" transform="rotate(20)" />
      <g transform="translate(0 0)">
        <ellipse cx="34.73" cy="0.00" rx="22.32" ry="34.73" fill="#f0d8c8" fill-opacity="0.95" /><ellipse cx="24.56" cy="24.56" rx="22.32" ry="34.73" fill="#f0d8c8" fill-opacity="0.95" /><ellipse cx="0.00" cy="34.73" rx="22.32" ry="34.73" fill="#f0d8c8" fill-opacity="0.95" /><ellipse cx="-24.56" cy="24.56" rx="22.32" ry="34.73" fill="#f0d8c8" fill-opacity="0.95" /><ellipse cx="-34.73" cy="0.00" rx="22.32" ry="34.73" fill="#f0d8c8" fill-opacity="0.95" /><ellipse cx="-24.56" cy="-24.56" rx="22.32" ry="34.73" fill="#f0d8c8" fill-opacity="0.95" /><ellipse cx="-0.00" cy="-34.73" rx="22.32" ry="34.73" fill="#f0d8c8" fill-opacity="0.95" /><ellipse cx="24.56" cy="-24.56" rx="22.32" ry="34.73" fill="#f0d8c8" fill-opacity="0.95" />
        <circle cx="0" cy="0" r="22.32" fill="#b17ca8" />
        <circle cx="0" cy="0" r="11.16" fill="#fff7f0" fill-opacity="0.72" />
      </g>
    </g>
    
    <g transform="translate(638.11 381.27) rotate(-16.42)">
      <path d="M 0 0 C -8 82.32, 10 137.19, -6 201.22" stroke="#8a967a" stroke-width="10.98" fill="none" stroke-linecap="round" />
      <ellipse cx="-20" cy="100.61" rx="20.12" ry="38.41" fill="#8a967a" fill-opacity="0.75" transform="rotate(-24)" />
      <ellipse cx="28" cy="124.39" rx="18.29" ry="34.76" fill="#8a967a" fill-opacity="0.66" transform="rotate(20)" />
      <g transform="translate(0 0)">
        <ellipse cx="25.61" cy="0.00" rx="16.46" ry="25.61" fill="#e9e4ef" fill-opacity="0.95" /><ellipse cx="18.11" cy="18.11" rx="16.46" ry="25.61" fill="#e9e4ef" fill-opacity="0.95" /><ellipse cx="0.00" cy="25.61" rx="16.46" ry="25.61" fill="#e9e4ef" fill-opacity="0.95" /><ellipse cx="-18.11" cy="18.11" rx="16.46" ry="25.61" fill="#e9e4ef" fill-opacity="0.95" /><ellipse cx="-25.61" cy="0.00" rx="16.46" ry="25.61" fill="#e9e4ef" fill-opacity="0.95" /><ellipse cx="-18.11" cy="-18.11" rx="16.46" ry="25.61" fill="#e9e4ef" fill-opacity="0.95" /><ellipse cx="-0.00" cy="-25.61" rx="16.46" ry="25.61" fill="#e9e4ef" fill-opacity="0.95" /><ellipse cx="18.11" cy="-18.11" rx="16.46" ry="25.61" fill="#e9e4ef" fill-opacity="0.95" />
        <circle cx="0" cy="0" r="16.46" fill="#b17ca8" />
        <circle cx="0" cy="0" r="8.23" fill="#fff7f0" fill-opacity="0.72" />
      </g>
    </g>
    
    <g transform="translate(373.98 461.92) rotate(18.33)">
      <path d="M 0 0 C -8 81.62, 10 136.03, -6 199.51" stroke="#768169" stroke-width="10.88" fill="none" stroke-linecap="round" />
      <ellipse cx="-20" cy="99.75" rx="19.95" ry="38.09" fill="#768169" fill-opacity="0.75" transform="rotate(-24)" />
      <ellipse cx="28" cy="123.33" rx="18.14" ry="34.46" fill="#768169" fill-opacity="0.66" transform="rotate(20)" />
      <g transform="translate(0 0)">
        <ellipse cx="25.39" cy="0.00" rx="16.32" ry="25.39" fill="#e9bfd5" fill-opacity="0.95" /><ellipse cx="17.95" cy="17.95" rx="16.32" ry="25.39" fill="#e9bfd5" fill-opacity="0.95" /><ellipse cx="0.00" cy="25.39" rx="16.32" ry="25.39" fill="#e9bfd5" fill-opacity="0.95" /><ellipse cx="-17.95" cy="17.95" rx="16.32" ry="25.39" fill="#e9bfd5" fill-opacity="0.95" /><ellipse cx="-25.39" cy="0.00" rx="16.32" ry="25.39" fill="#e9bfd5" fill-opacity="0.95" /><ellipse cx="-17.95" cy="-17.95" rx="16.32" ry="25.39" fill="#e9bfd5" fill-opacity="0.95" /><ellipse cx="-0.00" cy="-25.39" rx="16.32" ry="25.39" fill="#e9bfd5" fill-opacity="0.95" /><ellipse cx="17.95" cy="-17.95" rx="16.32" ry="25.39" fill="#e9bfd5" fill-opacity="0.95" />
        <circle cx="0" cy="0" r="16.32" fill="#b17ca8" />
        <circle cx="0" cy="0" r="8.16" fill="#fff7f0" fill-opacity="0.72" />
      </g>
    </g>
    
    <g transform="translate(490.34 492.55) rotate(25.37)">
      <path d="M 0 0 C -8 110.15, 10 183.59, -6 269.27" stroke="#acb39f" stroke-width="14.69" fill="none" stroke-linecap="round" />
      <ellipse cx="-20" cy="134.63" rx="26.93" ry="51.41" fill="#acb39f" fill-opacity="0.75" transform="rotate(-24)" />
      <ellipse cx="28" cy="166.46" rx="24.48" ry="46.51" fill="#acb39f" fill-opacity="0.66" transform="rotate(20)" />
      <g transform="translate(0 0)">
        <ellipse cx="34.27" cy="0.00" rx="22.03" ry="34.27" fill="#cfa8c9" fill-opacity="0.95" /><ellipse cx="24.23" cy="24.23" rx="22.03" ry="34.27" fill="#cfa8c9" fill-opacity="0.95" /><ellipse cx="0.00" cy="34.27" rx="22.03" ry="34.27" fill="#cfa8c9" fill-opacity="0.95" /><ellipse cx="-24.23" cy="24.23" rx="22.03" ry="34.27" fill="#cfa8c9" fill-opacity="0.95" /><ellipse cx="-34.27" cy="0.00" rx="22.03" ry="34.27" fill="#cfa8c9" fill-opacity="0.95" /><ellipse cx="-24.23" cy="-24.23" rx="22.03" ry="34.27" fill="#cfa8c9" fill-opacity="0.95" /><ellipse cx="-0.00" cy="-34.27" rx="22.03" ry="34.27" fill="#cfa8c9" fill-opacity="0.95" /><ellipse cx="24.23" cy="-24.23" rx="22.03" ry="34.27" fill="#cfa8c9" fill-opacity="0.95" />
        <circle cx="0" cy="0" r="22.03" fill="#b17ca8" />
        <circle cx="0" cy="0" r="11.02" fill="#fff7f0" fill-opacity="0.72" />
      </g>
    </g>
    
  </g>
  <path d="M0 980 C220 920, 420 1030, 900 930 L900 1100 L0 1100 Z" fill="#ffffff" fill-opacity="0.22" />
</svg>
