<svg xmlns="http://www.w3.org/2000/svg" width="900" height="1100" viewBox="0 0 900 1100">
  <defs>
    <linearGradient id="bg" x1="0" y1="0" x2="0" y2="1">
      <stop offset="0%" stop-color="#f7f0f6" />
      <stop offset="100%" stop-color="#eee9f3" />
    </linearGradient>
    <filter id="shadow" x="-20%" y="-20%" width="140%" height="140%">
      <feDropShadow dx="0" dy="22" stdDeviation="24" flood-color="#6c5d4f" flood-opacity="0.12" />
    </filter>
  </defs>
  <rect width="100%" height="100%" fill="url(#bg)" />
  <circle cx="730" cy="180" r="140" fill="#ffffff" fill-opacity="0.18" />
  <circle cx="150" cy="260" r="90" fill="#ffffff" fill-opacity="0.12" />
  
      <rect x="70" y="72" width="300" height="92" rx="24" fill="#ffffff" fill-opacity="0.34" />
      <text x="98" y="120" fill="#2f3a31" font-size="32" font-family="'PingFang SC','Microsoft YaHei',sans-serif" font-weight="600">时光存信</text>
      <text x="98" y="152" fill="#4e6152" font-size="18" font-family="'PingFang SC','Microsoft YaHei',sans-serif">家居 · 永生花系列</text>
    
  <g filter="url(#shadow)">
    <rect x="180" y="760" width="540" height="250" rx="26" fill="#efe7dd" fill-opacity="0.92" /><rect x="230" y="820" width="440" height="130" rx="22" fill="#f7f1ea" fill-opacity="0.85" />
  </g>
  <g>
    
    <g transform="translate(530.27 463.67) rotate(-17.10)">
      <path d="M 0 0 C -8 104.00, 10 173.34, -6 254.23" stroke="#8a967a" stroke-width="13.87" fill="none" stroke-linecap="round" />
      <ellipse cx="-20" cy="127.11" rx="25.42" ry="48.53" fill="#8a967a" fill-opacity="0.75" transform="rotate(-24)" />
      <ellipse cx="28" cy="157.16" rx="23.11" ry="43.91" fill="#8a967a" fill-opacity="0.66" transform="rotate(20)" />
      <g transform="translate(0 0)">
        <ellipse cx="32.36" cy="0.00" rx="20.80" ry="32.36" fill="#e9bfd5" fill-opacity="0.95" /><ellipse cx="22.88" cy="22.88" rx="20.80" ry="32.36" fill="#e9bfd5" fill-opacity="0.95" /><ellipse cx="0.00" cy="32.36" rx="20.80" ry="32.36" fill="#e9bfd5" fill-opacity="0.95" /><ellipse cx="-22.88" cy="22.88" rx="20.80" ry="32.36" fill="#e9bfd5" fill-opacity="0.95" /><ellipse cx="-32.36" cy="0.00" rx="20.80" ry="32.36" fill="#e9bfd5" fill-opacity="0.95" /><ellipse cx="-22.88" cy="-22.88" rx="20.80" ry="32.36" fill="#e9bfd5" fill-opacity="0.95" /><ellipse cx="-0.00" cy="-32.36" rx="20.80" ry="32.36" fill="#e9bfd5" fill-opacity="0.95" /><ellipse cx="22.88" cy="-22.88" rx="20.80" ry="32.36" fill="#e9bfd5" fill-opacity="0.95" />
        <circle cx="0" cy="0" r="20.80" fill="#b17ca8" />
        <circle cx="0" cy="0" r="10.40" fill="#fff7f0" fill-opacity="0.72" />
      </g>
    </g>
    
    <g transform="translate(383.62 366.81) rotate(6.26)">
      <path d="M 0 0 C -8 112.02, 10 186.71, -6 273.83" stroke="#768169" stroke-width="14.94" fill="none" stroke-linecap="round" />
      <ellipse cx="-20" cy="136.92" rx="27.38" ry="52.28" fill="#768169" fill-opacity="0.75" transform="rotate(-24)" />
      <ellipse cx="28" cy="169.28" rx="24.89" ry="47.30" fill="#768169" fill-opacity="0.66" transform="rotate(20)" />
      <g transform="translate(0 0)">
        <ellipse cx="34.85" cy="0.00" rx="22.40" ry="34.85" fill="#cfa8c9" fill-opacity="0.95" /><ellipse cx="24.64" cy="24.64" rx="22.40" ry="34.85" fill="#cfa8c9" fill-opacity="0.95" /><ellipse cx="0.00" cy="34.85" rx="22.40" ry="34.85" fill="#cfa8c9" fill-opacity="0.95" /><ellipse cx="-24.64" cy="24.64" rx="22.40" ry="34.85" fill="#cfa8c9" fill-opacity="0.95" /><ellipse cx="-34.85" cy="0.00" rx="22.40" ry="34.85" fill="#cfa8c9" fill-opacity="0.95" /><ellipse cx="-24.64" cy="-24.64" rx="22.40" ry="34.85" fill="#cfa8c9" fill-opacity="0.95" /><ellipse cx="-0.00" cy="-34.85" rx="22.40" ry="34.85" fill="#cfa8c9" fill-opacity="0.95" /><ellipse cx="24.64" cy="-24.64" rx="22.40" ry="34.85" fill="#cfa8c9" fill-opacity="0.95" />
        <circle cx="0" cy="0" r="22.40" fill="#b17ca8" />
        <circle cx="0" cy="0" r="11.20" fill="#fff7f0" fill-opacity="0.72" />
      </g>
    </g>
    
    <g transform="translate(635.18 449.13) rotate(8.08)">
      <path d="M 0 0 C -8 90.64, 10 151.07, -6 221.57" stroke="#acb39f" stroke-width="12.09" fill="none" stroke-linecap="round" />
      <ellipse cx="-20" cy="110.78" rx="22.16" ry="42.30" fill="#acb39f" fill-opacity="0.75" transform="rotate(-24)" />
      <ellipse cx="28" cy="136.97" rx="20.14" ry="38.27" fill="#acb39f" fill-opacity="0.66" transform="rotate(20)" />
      <g transform="translate(0 0)">
        <ellipse cx="28.20" cy="0.00" rx="18.13" ry="28.20" fill="#f0d8c8" fill-opacity="0.95" /><ellipse cx="19.94" cy="19.94" rx="18.13" ry="28.20" fill="#f0d8c8" fill-opacity="0.95" /><ellipse cx="0.00" cy="28.20" rx="18.13" ry="28.20" fill="#f0d8c8" fill-opacity="0.95" /><ellipse cx="-19.94" cy="19.94" rx="18.13" ry="28.20" fill="#f0d8c8" fill-opacity="0.95" /><ellipse cx="-28.20" cy="0.00" rx="18.13" ry="28.20" fill="#f0d8c8" fill-opacity="0.95" /><ellipse cx="-19.94" cy="-19.94" rx="18.13" ry="28.20" fill="#f0d8c8" fill-opacity="0.95" /><ellipse cx="-0.00" cy="-28.20" rx="18.13" ry="28.20" fill="#f0d8c8" fill-opacity="0.95" /><ellipse cx="19.94" cy="-19.94" rx="18.13" ry="28.20" fill="#f0d8c8" fill-opacity="0.95" />
        <circle cx="0" cy="0" r="18.13" fill="#b17ca8" />
        <circle cx="0" cy="0" r="9.06" fill="#fff7f0" fill-opacity="0.72" />
      </g>
    </g>
    
    <g transform="translate(360.06 296.13) rotate(14.46)">
      <path d="M 0 0 C -8 89.94, 10 149.90, -6 219.85" stroke="#8a967a" stroke-width="11.99" fill="none" stroke-linecap="round" />
      <ellipse cx="-20" cy="109.93" rx="21.99" ry="41.97" fill="#8a967a" fill-opacity="0.75" transform="rotate(-24)" />
      <ellipse cx="28" cy="135.91" rx="19.99" ry="37.97" fill="#8a967a" fill-opacity="0.66" transform="rotate(20)" />
      <g transform="translate(0 0)">
        <ellipse cx="27.98" cy="0.00" rx="17.99" ry="27.98" fill="#e9e4ef" fill-opacity="0.95" /><ellipse cx="19.79" cy="19.79" rx="17.99" ry="27.98" fill="#e9e4ef" fill-opacity="0.95" /><ellipse cx="0.00" cy="27.98" rx="17.99" ry="27.98" fill="#e9e4ef" fill-opacity="0.95" /><ellipse cx="-19.79" cy="19.79" rx="17.99" ry="27.98" fill="#e9e4ef" fill-opacity="0.95" /><ellipse cx="-27.98" cy="0.00" rx="17.99" ry="27.98" fill="#e9e4ef" fill-opacity="0.95" /><ellipse cx="-19.79" cy="-19.79" rx="17.99" ry="27.98" fill="#e9e4ef" fill-opacity="0.95" /><ellipse cx="-0.00" cy="-27.98" rx="17.99" ry="27.98" fill="#e9e4ef" fill-opacity="0.95" /><ellipse cx="19.79" cy="-19.79" rx="17.99" ry="27.98" fill="#e9e4ef" fill-opacity="0.95" />
        <circle cx="0" cy="0" r="17.99" fill="#b17ca8" />
        <circle cx="0" cy="0" r="8.99" fill="#fff7f0" fill-opacity="0.72" />
      </g>
    </g>
    
    <g transform="translate(522.56 348.71) rotate(25.86)">
      <path d="M 0 0 C -8 103.99, 10 173.32, -6 254.21" stroke="#768169" stroke-width="13.87" fill="none" stroke-linecap="round" />
      <ellipse cx="-20" cy="127.10" rx="25.42" ry="48.53" fill="#768169" fill-opacity="0.75" transform="rotate(-24)" />
      <ellipse cx="28" cy="157.15" rx="23.11" ry="43.91" fill="#768169" fill-opacity="0.66" transform="rotate(20)" />
      <g transform="translate(0 0)">
        <ellipse cx="32.35" cy="0.00" rx="20.80" ry="32.35" fill="#e9bfd5" fill-opacity="0.95" /><ellipse cx="22.88" cy="22.88" rx="20.80" ry="32.35" fill="#e9bfd5" fill-opacity="0.95" /><ellipse cx="0.00" cy="32.35" rx="20.80" ry="32.35" fill="#e9bfd5" fill-opacity="0.95" /><ellipse cx="-22.88" cy="22.88" rx="20.80" ry="32.35" fill="#e9bfd5" fill-opacity="0.95" /><ellipse cx="-32.35" cy="0.00" rx="20.80" ry="32.35" fill="#e9bfd5" fill-opacity="0.95" /><ellipse cx="-22.88" cy="-22.88" rx="20.80" ry="32.35" fill="#e9bfd5" fill-opacity="0.95" /><ellipse cx="-0.00" cy="-32.35" rx="20.80" ry="32.35" fill="#e9bfd5" fill-opacity="0.95" /><ellipse cx="22.88" cy="-22.88" rx="20.80" ry="32.35" fill="#e9bfd5" fill-opacity="0.95" />
        <circle cx="0" cy="0" r="20.80" fill="#b17ca8" />
        <circle cx="0" cy="0" r="10.40" fill="#fff7f0" fill-opacity="0.72" />
      </g>
    </g>
    
    <g transform="translate(463.47 376.74) rotate(20.41)">
      <path d="M 0 0 C -8 92.23, 10 153.71, -6 225.44" stroke="#acb39f" stroke-width="12.30" fill="none" stroke-linecap="round" />
      <ellipse cx="-20" cy="112.72" rx="22.54" ry="43.04" fill="#acb39f" fill-opacity="0.75" transform="rotate(-24)" />
      <ellipse cx="28" cy="139.36" rx="20.49" ry="38.94" fill="#acb39f" fill-opacity="0.66" transform="rotate(20)" />
      <g transform="translate(0 0)">
        <ellipse cx="28.69" cy="0.00" rx="18.45" ry="28.69" fill="#cfa8c9" fill-opacity="0.95" /><ellipse cx="20.29" cy="20.29" rx="18.45" ry="28.69" fill="#cfa8c9" fill-opacity="0.95" /><ellipse cx="0.00" cy="28.69" rx="18.45" ry="28.69" fill="#cfa8c9" fill-opacity="0.95" /><ellipse cx="-20.29" cy="20.29" rx="18.45" ry="28.69" fill="#cfa8c9" fill-opacity="0.95" /><ellipse cx="-28.69" cy="0.00" rx="18.45" ry="28.69" fill="#cfa8c9" fill-opacity="0.95" /><ellipse cx="-20.29" cy="-20.29" rx="18.45" ry="28.69" fill="#cfa8c9" fill-opacity="0.95" /><ellipse cx="-0.00" cy="-28.69" rx="18.45" ry="28.69" fill="#cfa8c9" fill-opacity="0.95" /><ellipse cx="20.29" cy="-20.29" rx="18.45" ry="28.69" fill="#cfa8c9" fill-opacity="0.95" />
        <circle cx="0" cy="0" r="18.45" fill="#b17ca8" />
        <circle cx="0" cy="0" r="9.22" fill="#fff7f0" fill-opacity="0.72" />
      </g>
    </g>
    
  </g>
  <path d="M0 980 C220 920, 420 1030, 900 930 L900 1100 L0 1100 Z" fill="#ffffff" fill-opacity="0.22" />
</svg>
