<svg xmlns="http://www.w3.org/2000/svg" width="900" height="1100" viewBox="0 0 900 1100">
  <defs>
    <linearGradient id="bg" x1="0" y1="0" x2="0" y2="1">
      <stop offset="0%" stop-color="#f7f0f6" />
      <stop offset="100%" stop-color="#eee9f3" />
    </linearGradient>
    <filter id="shadow" x="-20%" y="-20%" width="140%" height="140%">
      <feDropShadow dx="0" dy="22" stdDeviation="24" flood-color="#6c5d4f" flood-opacity="0.12" />
    </filter>
  </defs>
  <rect width="100%" height="100%" fill="url(#bg)" />
  <circle cx="730" cy="180" r="140" fill="#ffffff" fill-opacity="0.18" />
  <circle cx="150" cy="260" r="90" fill="#ffffff" fill-opacity="0.12" />
  
      <rect x="70" y="72" width="300" height="92" rx="24" fill="#ffffff" fill-opacity="0.34" />
      <text x="98" y="120" fill="#2f3a31" font-size="32" font-family="'PingFang SC','Microsoft YaHei',sans-serif" font-weight="600">长夏纪念</text>
      <text x="98" y="152" fill="#4e6152" font-size="18" font-family="'PingFang SC','Microsoft YaHei',sans-serif">玻璃罩 · 摆件</text>
    
  <g filter="url(#shadow)">
    <rect x="180" y="760" width="540" height="250" rx="26" fill="#efe7dd" fill-opacity="0.92" /><rect x="230" y="820" width="440" height="130" rx="22" fill="#f7f1ea" fill-opacity="0.85" />
  </g>
  <g>
    
    <g transform="translate(436.13 517.08) rotate(-16.31)">
      <path d="M 0 0 C -8 98.66, 10 164.43, -6 241.16" stroke="#8a967a" stroke-width="13.15" fill="none" stroke-linecap="round" />
      <ellipse cx="-20" cy="120.58" rx="24.12" ry="46.04" fill="#8a967a" fill-opacity="0.75" transform="rotate(-24)" />
      <ellipse cx="28" cy="149.08" rx="21.92" ry="41.66" fill="#8a967a" fill-opacity="0.66" transform="rotate(20)" />
      <g transform="translate(0 0)">
        <ellipse cx="30.69" cy="0.00" rx="19.73" ry="30.69" fill="#e9bfd5" fill-opacity="0.95" /><ellipse cx="21.70" cy="21.70" rx="19.73" ry="30.69" fill="#e9bfd5" fill-opacity="0.95" /><ellipse cx="0.00" cy="30.69" rx="19.73" ry="30.69" fill="#e9bfd5" fill-opacity="0.95" /><ellipse cx="-21.70" cy="21.70" rx="19.73" ry="30.69" fill="#e9bfd5" fill-opacity="0.95" /><ellipse cx="-30.69" cy="0.00" rx="19.73" ry="30.69" fill="#e9bfd5" fill-opacity="0.95" /><ellipse cx="-21.70" cy="-21.70" rx="19.73" ry="30.69" fill="#e9bfd5" fill-opacity="0.95" /><ellipse cx="-0.00" cy="-30.69" rx="19.73" ry="30.69" fill="#e9bfd5" fill-opacity="0.95" /><ellipse cx="21.70" cy="-21.70" rx="19.73" ry="30.69" fill="#e9bfd5" fill-opacity="0.95" />
        <circle cx="0" cy="0" r="19.73" fill="#b17ca8" />
        <circle cx="0" cy="0" r="9.87" fill="#fff7f0" fill-opacity="0.72" />
      </g>
    </g>
    
    <g transform="translate(223.77 552.79) rotate(4.43)">
      <path d="M 0 0 C -8 84.04, 10 140.07, -6 205.43" stroke="#768169" stroke-width="11.21" fill="none" stroke-linecap="round" />
      <ellipse cx="-20" cy="102.72" rx="20.54" ry="39.22" fill="#768169" fill-opacity="0.75" transform="rotate(-24)" />
      <ellipse cx="28" cy="126.99" rx="18.68" ry="35.48" fill="#768169" fill-opacity="0.66" transform="rotate(20)" />
      <g transform="translate(0 0)">
        <ellipse cx="26.15" cy="0.00" rx="16.81" ry="26.15" fill="#cfa8c9" fill-opacity="0.95" /><ellipse cx="18.49" cy="18.49" rx="16.81" ry="26.15" fill="#cfa8c9" fill-opacity="0.95" /><ellipse cx="0.00" cy="26.15" rx="16.81" ry="26.15" fill="#cfa8c9" fill-opacity="0.95" /><ellipse cx="-18.49" cy="18.49" rx="16.81" ry="26.15" fill="#cfa8c9" fill-opacity="0.95" /><ellipse cx="-26.15" cy="0.00" rx="16.81" ry="26.15" fill="#cfa8c9" fill-opacity="0.95" /><ellipse cx="-18.49" cy="-18.49" rx="16.81" ry="26.15" fill="#cfa8c9" fill-opacity="0.95" /><ellipse cx="-0.00" cy="-26.15" rx="16.81" ry="26.15" fill="#cfa8c9" fill-opacity="0.95" /><ellipse cx="18.49" cy="-18.49" rx="16.81" ry="26.15" fill="#cfa8c9" fill-opacity="0.95" />
        <circle cx="0" cy="0" r="16.81" fill="#b17ca8" />
        <circle cx="0" cy="0" r="8.40" fill="#fff7f0" fill-opacity="0.72" />
      </g>
    </g>
    
    <g transform="translate(597.46 452.29) rotate(-24.17)">
      <path d="M 0 0 C -8 90.57, 10 150.95, -6 221.40" stroke="#acb39f" stroke-width="12.08" fill="none" stroke-linecap="round" />
      <ellipse cx="-20" cy="110.70" rx="22.14" ry="42.27" fill="#acb39f" fill-opacity="0.75" transform="rotate(-24)" />
      <ellipse cx="28" cy="136.86" rx="20.13" ry="38.24" fill="#acb39f" fill-opacity="0.66" transform="rotate(20)" />
      <g transform="translate(0 0)">
        <ellipse cx="28.18" cy="0.00" rx="18.11" ry="28.18" fill="#f0d8c8" fill-opacity="0.95" /><ellipse cx="19.92" cy="19.92" rx="18.11" ry="28.18" fill="#f0d8c8" fill-opacity="0.95" /><ellipse cx="0.00" cy="28.18" rx="18.11" ry="28.18" fill="#f0d8c8" fill-opacity="0.95" /><ellipse cx="-19.92" cy="19.92" rx="18.11" ry="28.18" fill="#f0d8c8" fill-opacity="0.95" /><ellipse cx="-28.18" cy="0.00" rx="18.11" ry="28.18" fill="#f0d8c8" fill-opacity="0.95" /><ellipse cx="-19.92" cy="-19.92" rx="18.11" ry="28.18" fill="#f0d8c8" fill-opacity="0.95" /><ellipse cx="-0.00" cy="-28.18" rx="18.11" ry="28.18" fill="#f0d8c8" fill-opacity="0.95" /><ellipse cx="19.92" cy="-19.92" rx="18.11" ry="28.18" fill="#f0d8c8" fill-opacity="0.95" />
        <circle cx="0" cy="0" r="18.11" fill="#b17ca8" />
        <circle cx="0" cy="0" r="9.06" fill="#fff7f0" fill-opacity="0.72" />
      </g>
    </g>
    
    <g transform="translate(267.45 450.42) rotate(17.66)">
      <path d="M 0 0 C -8 83.37, 10 138.95, -6 203.79" stroke="#8a967a" stroke-width="11.12" fill="none" stroke-linecap="round" />
      <ellipse cx="-20" cy="101.90" rx="20.38" ry="38.91" fill="#8a967a" fill-opacity="0.75" transform="rotate(-24)" />
      <ellipse cx="28" cy="125.98" rx="18.53" ry="35.20" fill="#8a967a" fill-opacity="0.66" transform="rotate(20)" />
      <g transform="translate(0 0)">
        <ellipse cx="25.94" cy="0.00" rx="16.67" ry="25.94" fill="#e9e4ef" fill-opacity="0.95" /><ellipse cx="18.34" cy="18.34" rx="16.67" ry="25.94" fill="#e9e4ef" fill-opacity="0.95" /><ellipse cx="0.00" cy="25.94" rx="16.67" ry="25.94" fill="#e9e4ef" fill-opacity="0.95" /><ellipse cx="-18.34" cy="18.34" rx="16.67" ry="25.94" fill="#e9e4ef" fill-opacity="0.95" /><ellipse cx="-25.94" cy="0.00" rx="16.67" ry="25.94" fill="#e9e4ef" fill-opacity="0.95" /><ellipse cx="-18.34" cy="-18.34" rx="16.67" ry="25.94" fill="#e9e4ef" fill-opacity="0.95" /><ellipse cx="-0.00" cy="-25.94" rx="16.67" ry="25.94" fill="#e9e4ef" fill-opacity="0.95" /><ellipse cx="18.34" cy="-18.34" rx="16.67" ry="25.94" fill="#e9e4ef" fill-opacity="0.95" />
        <circle cx="0" cy="0" r="16.67" fill="#b17ca8" />
        <circle cx="0" cy="0" r="8.34" fill="#fff7f0" fill-opacity="0.72" />
      </g>
    </g>
    
    <g transform="translate(486.17 328.26) rotate(-5.75)">
      <path d="M 0 0 C -8 79.85, 10 133.08, -6 195.19" stroke="#768169" stroke-width="10.65" fill="none" stroke-linecap="round" />
      <ellipse cx="-20" cy="97.59" rx="19.52" ry="37.26" fill="#768169" fill-opacity="0.75" transform="rotate(-24)" />
      <ellipse cx="28" cy="120.66" rx="17.74" ry="33.71" fill="#768169" fill-opacity="0.66" transform="rotate(20)" />
      <g transform="translate(0 0)">
        <ellipse cx="24.84" cy="0.00" rx="15.97" ry="24.84" fill="#e9bfd5" fill-opacity="0.95" /><ellipse cx="17.57" cy="17.57" rx="15.97" ry="24.84" fill="#e9bfd5" fill-opacity="0.95" /><ellipse cx="0.00" cy="24.84" rx="15.97" ry="24.84" fill="#e9bfd5" fill-opacity="0.95" /><ellipse cx="-17.57" cy="17.57" rx="15.97" ry="24.84" fill="#e9bfd5" fill-opacity="0.95" /><ellipse cx="-24.84" cy="0.00" rx="15.97" ry="24.84" fill="#e9bfd5" fill-opacity="0.95" /><ellipse cx="-17.57" cy="-17.57" rx="15.97" ry="24.84" fill="#e9bfd5" fill-opacity="0.95" /><ellipse cx="-0.00" cy="-24.84" rx="15.97" ry="24.84" fill="#e9bfd5" fill-opacity="0.95" /><ellipse cx="17.57" cy="-17.57" rx="15.97" ry="24.84" fill="#e9bfd5" fill-opacity="0.95" />
        <circle cx="0" cy="0" r="15.97" fill="#b17ca8" />
        <circle cx="0" cy="0" r="7.99" fill="#fff7f0" fill-opacity="0.72" />
      </g>
    </g>
    
    <g transform="translate(564.05 436.72) rotate(-7.22)">
      <path d="M 0 0 C -8 91.50, 10 152.50, -6 223.67" stroke="#acb39f" stroke-width="12.20" fill="none" stroke-linecap="round" />
      <ellipse cx="-20" cy="111.83" rx="22.37" ry="42.70" fill="#acb39f" fill-opacity="0.75" transform="rotate(-24)" />
      <ellipse cx="28" cy="138.27" rx="20.33" ry="38.63" fill="#acb39f" fill-opacity="0.66" transform="rotate(20)" />
      <g transform="translate(0 0)">
        <ellipse cx="28.47" cy="0.00" rx="18.30" ry="28.47" fill="#cfa8c9" fill-opacity="0.95" /><ellipse cx="20.13" cy="20.13" rx="18.30" ry="28.47" fill="#cfa8c9" fill-opacity="0.95" /><ellipse cx="0.00" cy="28.47" rx="18.30" ry="28.47" fill="#cfa8c9" fill-opacity="0.95" /><ellipse cx="-20.13" cy="20.13" rx="18.30" ry="28.47" fill="#cfa8c9" fill-opacity="0.95" /><ellipse cx="-28.47" cy="0.00" rx="18.30" ry="28.47" fill="#cfa8c9" fill-opacity="0.95" /><ellipse cx="-20.13" cy="-20.13" rx="18.30" ry="28.47" fill="#cfa8c9" fill-opacity="0.95" /><ellipse cx="-0.00" cy="-28.47" rx="18.30" ry="28.47" fill="#cfa8c9" fill-opacity="0.95" /><ellipse cx="20.13" cy="-20.13" rx="18.30" ry="28.47" fill="#cfa8c9" fill-opacity="0.95" />
        <circle cx="0" cy="0" r="18.30" fill="#b17ca8" />
        <circle cx="0" cy="0" r="9.15" fill="#fff7f0" fill-opacity="0.72" />
      </g>
    </g>
    
    <g transform="translate(533.05 388.71) rotate(-21.84)">
      <path d="M 0 0 C -8 71.35, 10 118.91, -6 174.41" stroke="#8a967a" stroke-width="9.51" fill="none" stroke-linecap="round" />
      <ellipse cx="-20" cy="87.20" rx="17.44" ry="33.30" fill="#8a967a" fill-opacity="0.75" transform="rotate(-24)" />
      <ellipse cx="28" cy="107.81" rx="15.86" ry="30.12" fill="#8a967a" fill-opacity="0.66" transform="rotate(20)" />
      <g transform="translate(0 0)">
        <ellipse cx="22.20" cy="0.00" rx="14.27" ry="22.20" fill="#f0d8c8" fill-opacity="0.95" /><ellipse cx="15.70" cy="15.70" rx="14.27" ry="22.20" fill="#f0d8c8" fill-opacity="0.95" /><ellipse cx="0.00" cy="22.20" rx="14.27" ry="22.20" fill="#f0d8c8" fill-opacity="0.95" /><ellipse cx="-15.70" cy="15.70" rx="14.27" ry="22.20" fill="#f0d8c8" fill-opacity="0.95" /><ellipse cx="-22.20" cy="0.00" rx="14.27" ry="22.20" fill="#f0d8c8" fill-opacity="0.95" /><ellipse cx="-15.70" cy="-15.70" rx="14.27" ry="22.20" fill="#f0d8c8" fill-opacity="0.95" /><ellipse cx="-0.00" cy="-22.20" rx="14.27" ry="22.20" fill="#f0d8c8" fill-opacity="0.95" /><ellipse cx="15.70" cy="-15.70" rx="14.27" ry="22.20" fill="#f0d8c8" fill-opacity="0.95" />
        <circle cx="0" cy="0" r="14.27" fill="#b17ca8" />
        <circle cx="0" cy="0" r="7.13" fill="#fff7f0" fill-opacity="0.72" />
      </g>
    </g>
    
  </g>
  <path d="M0 980 C220 920, 420 1030, 900 930 L900 1100 L0 1100 Z" fill="#ffffff" fill-opacity="0.22" />
</svg>
