<svg xmlns="http://www.w3.org/2000/svg" width="900" height="1100" viewBox="0 0 900 1100">
  <defs>
    <linearGradient id="bg" x1="0" y1="0" x2="0" y2="1">
      <stop offset="0%" stop-color="#f7f0f6" />
      <stop offset="100%" stop-color="#eee9f3" />
    </linearGradient>
    <filter id="shadow" x="-20%" y="-20%" width="140%" height="140%">
      <feDropShadow dx="0" dy="22" stdDeviation="24" flood-color="#6c5d4f" flood-opacity="0.12" />
    </filter>
  </defs>
  <rect width="100%" height="100%" fill="url(#bg)" />
  <circle cx="730" cy="180" r="140" fill="#ffffff" fill-opacity="0.18" />
  <circle cx="150" cy="260" r="90" fill="#ffffff" fill-opacity="0.12" />
  
      <rect x="70" y="72" width="300" height="92" rx="24" fill="#ffffff" fill-opacity="0.34" />
      <text x="98" y="120" fill="#2f3a31" font-size="32" font-family="'PingFang SC','Microsoft YaHei',sans-serif" font-weight="600">雾粉珍藏</text>
      <text x="98" y="152" fill="#4e6152" font-size="18" font-family="'PingFang SC','Microsoft YaHei',sans-serif">相框花礼 · 送礼</text>
    
  <g filter="url(#shadow)">
    <rect x="180" y="760" width="540" height="250" rx="26" fill="#efe7dd" fill-opacity="0.92" /><rect x="230" y="820" width="440" height="130" rx="22" fill="#f7f1ea" fill-opacity="0.85" />
  </g>
  <g>
    
    <g transform="translate(267.59 470.85) rotate(5.13)">
      <path d="M 0 0 C -8 72.09, 10 120.16, -6 176.23" stroke="#8a967a" stroke-width="9.61" fill="none" stroke-linecap="round" />
      <ellipse cx="-20" cy="88.12" rx="17.62" ry="33.64" fill="#8a967a" fill-opacity="0.75" transform="rotate(-24)" />
      <ellipse cx="28" cy="108.94" rx="16.02" ry="30.44" fill="#8a967a" fill-opacity="0.66" transform="rotate(20)" />
      <g transform="translate(0 0)">
        <ellipse cx="22.43" cy="0.00" rx="14.42" ry="22.43" fill="#e9bfd5" fill-opacity="0.95" /><ellipse cx="15.86" cy="15.86" rx="14.42" ry="22.43" fill="#e9bfd5" fill-opacity="0.95" /><ellipse cx="0.00" cy="22.43" rx="14.42" ry="22.43" fill="#e9bfd5" fill-opacity="0.95" /><ellipse cx="-15.86" cy="15.86" rx="14.42" ry="22.43" fill="#e9bfd5" fill-opacity="0.95" /><ellipse cx="-22.43" cy="0.00" rx="14.42" ry="22.43" fill="#e9bfd5" fill-opacity="0.95" /><ellipse cx="-15.86" cy="-15.86" rx="14.42" ry="22.43" fill="#e9bfd5" fill-opacity="0.95" /><ellipse cx="-0.00" cy="-22.43" rx="14.42" ry="22.43" fill="#e9bfd5" fill-opacity="0.95" /><ellipse cx="15.86" cy="-15.86" rx="14.42" ry="22.43" fill="#e9bfd5" fill-opacity="0.95" />
        <circle cx="0" cy="0" r="14.42" fill="#b17ca8" />
        <circle cx="0" cy="0" r="7.21" fill="#fff7f0" fill-opacity="0.72" />
      </g>
    </g>
    
    <g transform="translate(648.09 371.87) rotate(-9.76)">
      <path d="M 0 0 C -8 107.84, 10 179.73, -6 263.60" stroke="#768169" stroke-width="14.38" fill="none" stroke-linecap="round" />
      <ellipse cx="-20" cy="131.80" rx="26.36" ry="50.32" fill="#768169" fill-opacity="0.75" transform="rotate(-24)" />
      <ellipse cx="28" cy="162.95" rx="23.96" ry="45.53" fill="#768169" fill-opacity="0.66" transform="rotate(20)" />
      <g transform="translate(0 0)">
        <ellipse cx="33.55" cy="0.00" rx="21.57" ry="33.55" fill="#cfa8c9" fill-opacity="0.95" /><ellipse cx="23.72" cy="23.72" rx="21.57" ry="33.55" fill="#cfa8c9" fill-opacity="0.95" /><ellipse cx="0.00" cy="33.55" rx="21.57" ry="33.55" fill="#cfa8c9" fill-opacity="0.95" /><ellipse cx="-23.72" cy="23.72" rx="21.57" ry="33.55" fill="#cfa8c9" fill-opacity="0.95" /><ellipse cx="-33.55" cy="0.00" rx="21.57" ry="33.55" fill="#cfa8c9" fill-opacity="0.95" /><ellipse cx="-23.72" cy="-23.72" rx="21.57" ry="33.55" fill="#cfa8c9" fill-opacity="0.95" /><ellipse cx="-0.00" cy="-33.55" rx="21.57" ry="33.55" fill="#cfa8c9" fill-opacity="0.95" /><ellipse cx="23.72" cy="-23.72" rx="21.57" ry="33.55" fill="#cfa8c9" fill-opacity="0.95" />
        <circle cx="0" cy="0" r="21.57" fill="#b17ca8" />
        <circle cx="0" cy="0" r="10.78" fill="#fff7f0" fill-opacity="0.72" />
      </g>
    </g>
    
    <g transform="translate(637.55 496.15) rotate(25.74)">
      <path d="M 0 0 C -8 95.46, 10 159.10, -6 233.34" stroke="#acb39f" stroke-width="12.73" fill="none" stroke-linecap="round" />
      <ellipse cx="-20" cy="116.67" rx="23.33" ry="44.55" fill="#acb39f" fill-opacity="0.75" transform="rotate(-24)" />
      <ellipse cx="28" cy="144.25" rx="21.21" ry="40.30" fill="#acb39f" fill-opacity="0.66" transform="rotate(20)" />
      <g transform="translate(0 0)">
        <ellipse cx="29.70" cy="0.00" rx="19.09" ry="29.70" fill="#f0d8c8" fill-opacity="0.95" /><ellipse cx="21.00" cy="21.00" rx="19.09" ry="29.70" fill="#f0d8c8" fill-opacity="0.95" /><ellipse cx="0.00" cy="29.70" rx="19.09" ry="29.70" fill="#f0d8c8" fill-opacity="0.95" /><ellipse cx="-21.00" cy="21.00" rx="19.09" ry="29.70" fill="#f0d8c8" fill-opacity="0.95" /><ellipse cx="-29.70" cy="0.00" rx="19.09" ry="29.70" fill="#f0d8c8" fill-opacity="0.95" /><ellipse cx="-21.00" cy="-21.00" rx="19.09" ry="29.70" fill="#f0d8c8" fill-opacity="0.95" /><ellipse cx="-0.00" cy="-29.70" rx="19.09" ry="29.70" fill="#f0d8c8" fill-opacity="0.95" /><ellipse cx="21.00" cy="-21.00" rx="19.09" ry="29.70" fill="#f0d8c8" fill-opacity="0.95" />
        <circle cx="0" cy="0" r="19.09" fill="#b17ca8" />
        <circle cx="0" cy="0" r="9.55" fill="#fff7f0" fill-opacity="0.72" />
      </g>
    </g>
    
    <g transform="translate(458.85 472.50) rotate(-16.81)">
      <path d="M 0 0 C -8 79.16, 10 131.93, -6 193.50" stroke="#8a967a" stroke-width="10.55" fill="none" stroke-linecap="round" />
      <ellipse cx="-20" cy="96.75" rx="19.35" ry="36.94" fill="#8a967a" fill-opacity="0.75" transform="rotate(-24)" />
      <ellipse cx="28" cy="119.62" rx="17.59" ry="33.42" fill="#8a967a" fill-opacity="0.66" transform="rotate(20)" />
      <g transform="translate(0 0)">
        <ellipse cx="24.63" cy="0.00" rx="15.83" ry="24.63" fill="#e9e4ef" fill-opacity="0.95" /><ellipse cx="17.41" cy="17.41" rx="15.83" ry="24.63" fill="#e9e4ef" fill-opacity="0.95" /><ellipse cx="0.00" cy="24.63" rx="15.83" ry="24.63" fill="#e9e4ef" fill-opacity="0.95" /><ellipse cx="-17.41" cy="17.41" rx="15.83" ry="24.63" fill="#e9e4ef" fill-opacity="0.95" /><ellipse cx="-24.63" cy="0.00" rx="15.83" ry="24.63" fill="#e9e4ef" fill-opacity="0.95" /><ellipse cx="-17.41" cy="-17.41" rx="15.83" ry="24.63" fill="#e9e4ef" fill-opacity="0.95" /><ellipse cx="-0.00" cy="-24.63" rx="15.83" ry="24.63" fill="#e9e4ef" fill-opacity="0.95" /><ellipse cx="17.41" cy="-17.41" rx="15.83" ry="24.63" fill="#e9e4ef" fill-opacity="0.95" />
        <circle cx="0" cy="0" r="15.83" fill="#b17ca8" />
        <circle cx="0" cy="0" r="7.92" fill="#fff7f0" fill-opacity="0.72" />
      </g>
    </g>
    
    <g transform="translate(465.00 554.99) rotate(11.09)">
      <path d="M 0 0 C -8 81.37, 10 135.62, -6 198.91" stroke="#768169" stroke-width="10.85" fill="none" stroke-linecap="round" />
      <ellipse cx="-20" cy="99.45" rx="19.89" ry="37.97" fill="#768169" fill-opacity="0.75" transform="rotate(-24)" />
      <ellipse cx="28" cy="122.96" rx="18.08" ry="34.36" fill="#768169" fill-opacity="0.66" transform="rotate(20)" />
      <g transform="translate(0 0)">
        <ellipse cx="25.32" cy="0.00" rx="16.27" ry="25.32" fill="#e9bfd5" fill-opacity="0.95" /><ellipse cx="17.90" cy="17.90" rx="16.27" ry="25.32" fill="#e9bfd5" fill-opacity="0.95" /><ellipse cx="0.00" cy="25.32" rx="16.27" ry="25.32" fill="#e9bfd5" fill-opacity="0.95" /><ellipse cx="-17.90" cy="17.90" rx="16.27" ry="25.32" fill="#e9bfd5" fill-opacity="0.95" /><ellipse cx="-25.32" cy="0.00" rx="16.27" ry="25.32" fill="#e9bfd5" fill-opacity="0.95" /><ellipse cx="-17.90" cy="-17.90" rx="16.27" ry="25.32" fill="#e9bfd5" fill-opacity="0.95" /><ellipse cx="-0.00" cy="-25.32" rx="16.27" ry="25.32" fill="#e9bfd5" fill-opacity="0.95" /><ellipse cx="17.90" cy="-17.90" rx="16.27" ry="25.32" fill="#e9bfd5" fill-opacity="0.95" />
        <circle cx="0" cy="0" r="16.27" fill="#b17ca8" />
        <circle cx="0" cy="0" r="8.14" fill="#fff7f0" fill-opacity="0.72" />
      </g>
    </g>
    
    <g transform="translate(423.19 484.85) rotate(-13.49)">
      <path d="M 0 0 C -8 73.96, 10 123.27, -6 180.80" stroke="#acb39f" stroke-width="9.86" fill="none" stroke-linecap="round" />
      <ellipse cx="-20" cy="90.40" rx="18.08" ry="34.52" fill="#acb39f" fill-opacity="0.75" transform="rotate(-24)" />
      <ellipse cx="28" cy="111.77" rx="16.44" ry="31.23" fill="#acb39f" fill-opacity="0.66" transform="rotate(20)" />
      <g transform="translate(0 0)">
        <ellipse cx="23.01" cy="0.00" rx="14.79" ry="23.01" fill="#cfa8c9" fill-opacity="0.95" /><ellipse cx="16.27" cy="16.27" rx="14.79" ry="23.01" fill="#cfa8c9" fill-opacity="0.95" /><ellipse cx="0.00" cy="23.01" rx="14.79" ry="23.01" fill="#cfa8c9" fill-opacity="0.95" /><ellipse cx="-16.27" cy="16.27" rx="14.79" ry="23.01" fill="#cfa8c9" fill-opacity="0.95" /><ellipse cx="-23.01" cy="0.00" rx="14.79" ry="23.01" fill="#cfa8c9" fill-opacity="0.95" /><ellipse cx="-16.27" cy="-16.27" rx="14.79" ry="23.01" fill="#cfa8c9" fill-opacity="0.95" /><ellipse cx="-0.00" cy="-23.01" rx="14.79" ry="23.01" fill="#cfa8c9" fill-opacity="0.95" /><ellipse cx="16.27" cy="-16.27" rx="14.79" ry="23.01" fill="#cfa8c9" fill-opacity="0.95" />
        <circle cx="0" cy="0" r="14.79" fill="#b17ca8" />
        <circle cx="0" cy="0" r="7.40" fill="#fff7f0" fill-opacity="0.72" />
      </g>
    </g>
    
    <g transform="translate(329.21 527.93) rotate(0.93)">
      <path d="M 0 0 C -8 99.66, 10 166.11, -6 243.62" stroke="#8a967a" stroke-width="13.29" fill="none" stroke-linecap="round" />
      <ellipse cx="-20" cy="121.81" rx="24.36" ry="46.51" fill="#8a967a" fill-opacity="0.75" transform="rotate(-24)" />
      <ellipse cx="28" cy="150.60" rx="22.15" ry="42.08" fill="#8a967a" fill-opacity="0.66" transform="rotate(20)" />
      <g transform="translate(0 0)">
        <ellipse cx="31.01" cy="0.00" rx="19.93" ry="31.01" fill="#f0d8c8" fill-opacity="0.95" /><ellipse cx="21.92" cy="21.92" rx="19.93" ry="31.01" fill="#f0d8c8" fill-opacity="0.95" /><ellipse cx="0.00" cy="31.01" rx="19.93" ry="31.01" fill="#f0d8c8" fill-opacity="0.95" /><ellipse cx="-21.92" cy="21.92" rx="19.93" ry="31.01" fill="#f0d8c8" fill-opacity="0.95" /><ellipse cx="-31.01" cy="0.00" rx="19.93" ry="31.01" fill="#f0d8c8" fill-opacity="0.95" /><ellipse cx="-21.92" cy="-21.92" rx="19.93" ry="31.01" fill="#f0d8c8" fill-opacity="0.95" /><ellipse cx="-0.00" cy="-31.01" rx="19.93" ry="31.01" fill="#f0d8c8" fill-opacity="0.95" /><ellipse cx="21.92" cy="-21.92" rx="19.93" ry="31.01" fill="#f0d8c8" fill-opacity="0.95" />
        <circle cx="0" cy="0" r="19.93" fill="#b17ca8" />
        <circle cx="0" cy="0" r="9.97" fill="#fff7f0" fill-opacity="0.72" />
      </g>
    </g>
    
  </g>
  <path d="M0 980 C220 920, 420 1030, 900 930 L900 1100 L0 1100 Z" fill="#ffffff" fill-opacity="0.22" />
</svg>
