<svg xmlns="http://www.w3.org/2000/svg" width="900" height="1100" viewBox="0 0 900 1100">
  <defs>
    <linearGradient id="bg" x1="0" y1="0" x2="0" y2="1">
      <stop offset="0%" stop-color="#f7f0f6" />
      <stop offset="100%" stop-color="#eee9f3" />
    </linearGradient>
    <filter id="shadow" x="-20%" y="-20%" width="140%" height="140%">
      <feDropShadow dx="0" dy="22" stdDeviation="24" flood-color="#6c5d4f" flood-opacity="0.12" />
    </filter>
  </defs>
  <rect width="100%" height="100%" fill="url(#bg)" />
  <circle cx="730" cy="180" r="140" fill="#ffffff" fill-opacity="0.18" />
  <circle cx="150" cy="260" r="90" fill="#ffffff" fill-opacity="0.12" />
  
      <rect x="70" y="72" width="300" height="92" rx="24" fill="#ffffff" fill-opacity="0.34" />
      <text x="98" y="120" fill="#2f3a31" font-size="32" font-family="'PingFang SC','Microsoft YaHei',sans-serif" font-weight="600">珍序摆件</text>
      <text x="98" y="152" fill="#4e6152" font-size="18" font-family="'PingFang SC','Microsoft YaHei',sans-serif">相框花礼 · 送礼</text>
    
  <g filter="url(#shadow)">
    <rect x="180" y="760" width="540" height="250" rx="26" fill="#efe7dd" fill-opacity="0.92" /><rect x="230" y="820" width="440" height="130" rx="22" fill="#f7f1ea" fill-opacity="0.85" />
  </g>
  <g>
    
    <g transform="translate(653.91 483.11) rotate(-3.91)">
      <path d="M 0 0 C -8 73.98, 10 123.30, -6 180.84" stroke="#8a967a" stroke-width="9.86" fill="none" stroke-linecap="round" />
      <ellipse cx="-20" cy="90.42" rx="18.08" ry="34.52" fill="#8a967a" fill-opacity="0.75" transform="rotate(-24)" />
      <ellipse cx="28" cy="111.79" rx="16.44" ry="31.24" fill="#8a967a" fill-opacity="0.66" transform="rotate(20)" />
      <g transform="translate(0 0)">
        <ellipse cx="23.02" cy="0.00" rx="14.80" ry="23.02" fill="#e9bfd5" fill-opacity="0.95" /><ellipse cx="16.27" cy="16.27" rx="14.80" ry="23.02" fill="#e9bfd5" fill-opacity="0.95" /><ellipse cx="0.00" cy="23.02" rx="14.80" ry="23.02" fill="#e9bfd5" fill-opacity="0.95" /><ellipse cx="-16.27" cy="16.27" rx="14.80" ry="23.02" fill="#e9bfd5" fill-opacity="0.95" /><ellipse cx="-23.02" cy="0.00" rx="14.80" ry="23.02" fill="#e9bfd5" fill-opacity="0.95" /><ellipse cx="-16.27" cy="-16.27" rx="14.80" ry="23.02" fill="#e9bfd5" fill-opacity="0.95" /><ellipse cx="-0.00" cy="-23.02" rx="14.80" ry="23.02" fill="#e9bfd5" fill-opacity="0.95" /><ellipse cx="16.27" cy="-16.27" rx="14.80" ry="23.02" fill="#e9bfd5" fill-opacity="0.95" />
        <circle cx="0" cy="0" r="14.80" fill="#b17ca8" />
        <circle cx="0" cy="0" r="7.40" fill="#fff7f0" fill-opacity="0.72" />
      </g>
    </g>
    
    <g transform="translate(360.92 399.51) rotate(3.17)">
      <path d="M 0 0 C -8 82.62, 10 137.70, -6 201.97" stroke="#768169" stroke-width="11.02" fill="none" stroke-linecap="round" />
      <ellipse cx="-20" cy="100.98" rx="20.20" ry="38.56" fill="#768169" fill-opacity="0.75" transform="rotate(-24)" />
      <ellipse cx="28" cy="124.85" rx="18.36" ry="34.88" fill="#768169" fill-opacity="0.66" transform="rotate(20)" />
      <g transform="translate(0 0)">
        <ellipse cx="25.70" cy="0.00" rx="16.52" ry="25.70" fill="#cfa8c9" fill-opacity="0.95" /><ellipse cx="18.18" cy="18.18" rx="16.52" ry="25.70" fill="#cfa8c9" fill-opacity="0.95" /><ellipse cx="0.00" cy="25.70" rx="16.52" ry="25.70" fill="#cfa8c9" fill-opacity="0.95" /><ellipse cx="-18.18" cy="18.18" rx="16.52" ry="25.70" fill="#cfa8c9" fill-opacity="0.95" /><ellipse cx="-25.70" cy="0.00" rx="16.52" ry="25.70" fill="#cfa8c9" fill-opacity="0.95" /><ellipse cx="-18.18" cy="-18.18" rx="16.52" ry="25.70" fill="#cfa8c9" fill-opacity="0.95" /><ellipse cx="-0.00" cy="-25.70" rx="16.52" ry="25.70" fill="#cfa8c9" fill-opacity="0.95" /><ellipse cx="18.18" cy="-18.18" rx="16.52" ry="25.70" fill="#cfa8c9" fill-opacity="0.95" />
        <circle cx="0" cy="0" r="16.52" fill="#b17ca8" />
        <circle cx="0" cy="0" r="8.26" fill="#fff7f0" fill-opacity="0.72" />
      </g>
    </g>
    
    <g transform="translate(470.80 421.04) rotate(-13.79)">
      <path d="M 0 0 C -8 106.04, 10 176.73, -6 259.21" stroke="#acb39f" stroke-width="14.14" fill="none" stroke-linecap="round" />
      <ellipse cx="-20" cy="129.61" rx="25.92" ry="49.49" fill="#acb39f" fill-opacity="0.75" transform="rotate(-24)" />
      <ellipse cx="28" cy="160.24" rx="23.56" ry="44.77" fill="#acb39f" fill-opacity="0.66" transform="rotate(20)" />
      <g transform="translate(0 0)">
        <ellipse cx="32.99" cy="0.00" rx="21.21" ry="32.99" fill="#f0d8c8" fill-opacity="0.95" /><ellipse cx="23.33" cy="23.33" rx="21.21" ry="32.99" fill="#f0d8c8" fill-opacity="0.95" /><ellipse cx="0.00" cy="32.99" rx="21.21" ry="32.99" fill="#f0d8c8" fill-opacity="0.95" /><ellipse cx="-23.33" cy="23.33" rx="21.21" ry="32.99" fill="#f0d8c8" fill-opacity="0.95" /><ellipse cx="-32.99" cy="0.00" rx="21.21" ry="32.99" fill="#f0d8c8" fill-opacity="0.95" /><ellipse cx="-23.33" cy="-23.33" rx="21.21" ry="32.99" fill="#f0d8c8" fill-opacity="0.95" /><ellipse cx="-0.00" cy="-32.99" rx="21.21" ry="32.99" fill="#f0d8c8" fill-opacity="0.95" /><ellipse cx="23.33" cy="-23.33" rx="21.21" ry="32.99" fill="#f0d8c8" fill-opacity="0.95" />
        <circle cx="0" cy="0" r="21.21" fill="#b17ca8" />
        <circle cx="0" cy="0" r="10.60" fill="#fff7f0" fill-opacity="0.72" />
      </g>
    </g>
    
    <g transform="translate(470.20 522.86) rotate(3.88)">
      <path d="M 0 0 C -8 88.09, 10 146.81, -6 215.33" stroke="#8a967a" stroke-width="11.75" fill="none" stroke-linecap="round" />
      <ellipse cx="-20" cy="107.66" rx="21.53" ry="41.11" fill="#8a967a" fill-opacity="0.75" transform="rotate(-24)" />
      <ellipse cx="28" cy="133.11" rx="19.58" ry="37.19" fill="#8a967a" fill-opacity="0.66" transform="rotate(20)" />
      <g transform="translate(0 0)">
        <ellipse cx="27.41" cy="0.00" rx="17.62" ry="27.41" fill="#e9e4ef" fill-opacity="0.95" /><ellipse cx="19.38" cy="19.38" rx="17.62" ry="27.41" fill="#e9e4ef" fill-opacity="0.95" /><ellipse cx="0.00" cy="27.41" rx="17.62" ry="27.41" fill="#e9e4ef" fill-opacity="0.95" /><ellipse cx="-19.38" cy="19.38" rx="17.62" ry="27.41" fill="#e9e4ef" fill-opacity="0.95" /><ellipse cx="-27.41" cy="0.00" rx="17.62" ry="27.41" fill="#e9e4ef" fill-opacity="0.95" /><ellipse cx="-19.38" cy="-19.38" rx="17.62" ry="27.41" fill="#e9e4ef" fill-opacity="0.95" /><ellipse cx="-0.00" cy="-27.41" rx="17.62" ry="27.41" fill="#e9e4ef" fill-opacity="0.95" /><ellipse cx="19.38" cy="-19.38" rx="17.62" ry="27.41" fill="#e9e4ef" fill-opacity="0.95" />
        <circle cx="0" cy="0" r="17.62" fill="#b17ca8" />
        <circle cx="0" cy="0" r="8.81" fill="#fff7f0" fill-opacity="0.72" />
      </g>
    </g>
    
    <g transform="translate(237.50 322.27) rotate(25.15)">
      <path d="M 0 0 C -8 73.94, 10 123.24, -6 180.75" stroke="#768169" stroke-width="9.86" fill="none" stroke-linecap="round" />
      <ellipse cx="-20" cy="90.38" rx="18.08" ry="34.51" fill="#768169" fill-opacity="0.75" transform="rotate(-24)" />
      <ellipse cx="28" cy="111.74" rx="16.43" ry="31.22" fill="#768169" fill-opacity="0.66" transform="rotate(20)" />
      <g transform="translate(0 0)">
        <ellipse cx="23.00" cy="0.00" rx="14.79" ry="23.00" fill="#e9bfd5" fill-opacity="0.95" /><ellipse cx="16.27" cy="16.27" rx="14.79" ry="23.00" fill="#e9bfd5" fill-opacity="0.95" /><ellipse cx="0.00" cy="23.00" rx="14.79" ry="23.00" fill="#e9bfd5" fill-opacity="0.95" /><ellipse cx="-16.27" cy="16.27" rx="14.79" ry="23.00" fill="#e9bfd5" fill-opacity="0.95" /><ellipse cx="-23.00" cy="0.00" rx="14.79" ry="23.00" fill="#e9bfd5" fill-opacity="0.95" /><ellipse cx="-16.27" cy="-16.27" rx="14.79" ry="23.00" fill="#e9bfd5" fill-opacity="0.95" /><ellipse cx="-0.00" cy="-23.00" rx="14.79" ry="23.00" fill="#e9bfd5" fill-opacity="0.95" /><ellipse cx="16.27" cy="-16.27" rx="14.79" ry="23.00" fill="#e9bfd5" fill-opacity="0.95" />
        <circle cx="0" cy="0" r="14.79" fill="#b17ca8" />
        <circle cx="0" cy="0" r="7.39" fill="#fff7f0" fill-opacity="0.72" />
      </g>
    </g>
    
    <g transform="translate(606.86 414.64) rotate(-16.51)">
      <path d="M 0 0 C -8 112.11, 10 186.85, -6 274.05" stroke="#acb39f" stroke-width="14.95" fill="none" stroke-linecap="round" />
      <ellipse cx="-20" cy="137.03" rx="27.41" ry="52.32" fill="#acb39f" fill-opacity="0.75" transform="rotate(-24)" />
      <ellipse cx="28" cy="169.41" rx="24.91" ry="47.34" fill="#acb39f" fill-opacity="0.66" transform="rotate(20)" />
      <g transform="translate(0 0)">
        <ellipse cx="34.88" cy="0.00" rx="22.42" ry="34.88" fill="#cfa8c9" fill-opacity="0.95" /><ellipse cx="24.66" cy="24.66" rx="22.42" ry="34.88" fill="#cfa8c9" fill-opacity="0.95" /><ellipse cx="0.00" cy="34.88" rx="22.42" ry="34.88" fill="#cfa8c9" fill-opacity="0.95" /><ellipse cx="-24.66" cy="24.66" rx="22.42" ry="34.88" fill="#cfa8c9" fill-opacity="0.95" /><ellipse cx="-34.88" cy="0.00" rx="22.42" ry="34.88" fill="#cfa8c9" fill-opacity="0.95" /><ellipse cx="-24.66" cy="-24.66" rx="22.42" ry="34.88" fill="#cfa8c9" fill-opacity="0.95" /><ellipse cx="-0.00" cy="-34.88" rx="22.42" ry="34.88" fill="#cfa8c9" fill-opacity="0.95" /><ellipse cx="24.66" cy="-24.66" rx="22.42" ry="34.88" fill="#cfa8c9" fill-opacity="0.95" />
        <circle cx="0" cy="0" r="22.42" fill="#b17ca8" />
        <circle cx="0" cy="0" r="11.21" fill="#fff7f0" fill-opacity="0.72" />
      </g>
    </g>
    
  </g>
  <path d="M0 980 C220 920, 420 1030, 900 930 L900 1100 L0 1100 Z" fill="#ffffff" fill-opacity="0.22" />
</svg>
