<svg xmlns="http://www.w3.org/2000/svg" width="900" height="1100" viewBox="0 0 900 1100">
  <defs>
    <linearGradient id="bg" x1="0" y1="0" x2="0" y2="1">
      <stop offset="0%" stop-color="#f7f0f6" />
      <stop offset="100%" stop-color="#eee9f3" />
    </linearGradient>
    <filter id="shadow" x="-20%" y="-20%" width="140%" height="140%">
      <feDropShadow dx="0" dy="22" stdDeviation="24" flood-color="#6c5d4f" flood-opacity="0.12" />
    </filter>
  </defs>
  <rect width="100%" height="100%" fill="url(#bg)" />
  <circle cx="730" cy="180" r="140" fill="#ffffff" fill-opacity="0.18" />
  <circle cx="150" cy="260" r="90" fill="#ffffff" fill-opacity="0.12" />
  
      <rect x="70" y="72" width="300" height="92" rx="24" fill="#ffffff" fill-opacity="0.34" />
      <text x="98" y="120" fill="#2f3a31" font-size="32" font-family="'PingFang SC','Microsoft YaHei',sans-serif" font-weight="600">薄荷永昼</text>
      <text x="98" y="152" fill="#4e6152" font-size="18" font-family="'PingFang SC','Microsoft YaHei',sans-serif">家居 · 永生花系列</text>
    
  <g filter="url(#shadow)">
    <rect x="180" y="760" width="540" height="250" rx="26" fill="#efe7dd" fill-opacity="0.92" /><rect x="230" y="820" width="440" height="130" rx="22" fill="#f7f1ea" fill-opacity="0.85" />
  </g>
  <g>
    
    <g transform="translate(624.73 489.26) rotate(4.12)">
      <path d="M 0 0 C -8 80.32, 10 133.86, -6 196.33" stroke="#8a967a" stroke-width="10.71" fill="none" stroke-linecap="round" />
      <ellipse cx="-20" cy="98.17" rx="19.63" ry="37.48" fill="#8a967a" fill-opacity="0.75" transform="rotate(-24)" />
      <ellipse cx="28" cy="121.37" rx="17.85" ry="33.91" fill="#8a967a" fill-opacity="0.66" transform="rotate(20)" />
      <g transform="translate(0 0)">
        <ellipse cx="24.99" cy="0.00" rx="16.06" ry="24.99" fill="#e9bfd5" fill-opacity="0.95" /><ellipse cx="17.67" cy="17.67" rx="16.06" ry="24.99" fill="#e9bfd5" fill-opacity="0.95" /><ellipse cx="0.00" cy="24.99" rx="16.06" ry="24.99" fill="#e9bfd5" fill-opacity="0.95" /><ellipse cx="-17.67" cy="17.67" rx="16.06" ry="24.99" fill="#e9bfd5" fill-opacity="0.95" /><ellipse cx="-24.99" cy="0.00" rx="16.06" ry="24.99" fill="#e9bfd5" fill-opacity="0.95" /><ellipse cx="-17.67" cy="-17.67" rx="16.06" ry="24.99" fill="#e9bfd5" fill-opacity="0.95" /><ellipse cx="-0.00" cy="-24.99" rx="16.06" ry="24.99" fill="#e9bfd5" fill-opacity="0.95" /><ellipse cx="17.67" cy="-17.67" rx="16.06" ry="24.99" fill="#e9bfd5" fill-opacity="0.95" />
        <circle cx="0" cy="0" r="16.06" fill="#b17ca8" />
        <circle cx="0" cy="0" r="8.03" fill="#fff7f0" fill-opacity="0.72" />
      </g>
    </g>
    
    <g transform="translate(392.56 317.42) rotate(25.44)">
      <path d="M 0 0 C -8 89.96, 10 149.94, -6 219.91" stroke="#768169" stroke-width="12.00" fill="none" stroke-linecap="round" />
      <ellipse cx="-20" cy="109.96" rx="21.99" ry="41.98" fill="#768169" fill-opacity="0.75" transform="rotate(-24)" />
      <ellipse cx="28" cy="135.94" rx="19.99" ry="37.98" fill="#768169" fill-opacity="0.66" transform="rotate(20)" />
      <g transform="translate(0 0)">
        <ellipse cx="27.99" cy="0.00" rx="17.99" ry="27.99" fill="#cfa8c9" fill-opacity="0.95" /><ellipse cx="19.79" cy="19.79" rx="17.99" ry="27.99" fill="#cfa8c9" fill-opacity="0.95" /><ellipse cx="0.00" cy="27.99" rx="17.99" ry="27.99" fill="#cfa8c9" fill-opacity="0.95" /><ellipse cx="-19.79" cy="19.79" rx="17.99" ry="27.99" fill="#cfa8c9" fill-opacity="0.95" /><ellipse cx="-27.99" cy="0.00" rx="17.99" ry="27.99" fill="#cfa8c9" fill-opacity="0.95" /><ellipse cx="-19.79" cy="-19.79" rx="17.99" ry="27.99" fill="#cfa8c9" fill-opacity="0.95" /><ellipse cx="-0.00" cy="-27.99" rx="17.99" ry="27.99" fill="#cfa8c9" fill-opacity="0.95" /><ellipse cx="19.79" cy="-19.79" rx="17.99" ry="27.99" fill="#cfa8c9" fill-opacity="0.95" />
        <circle cx="0" cy="0" r="17.99" fill="#b17ca8" />
        <circle cx="0" cy="0" r="9.00" fill="#fff7f0" fill-opacity="0.72" />
      </g>
    </g>
    
    <g transform="translate(356.20 304.90) rotate(4.49)">
      <path d="M 0 0 C -8 99.30, 10 165.49, -6 242.72" stroke="#acb39f" stroke-width="13.24" fill="none" stroke-linecap="round" />
      <ellipse cx="-20" cy="121.36" rx="24.27" ry="46.34" fill="#acb39f" fill-opacity="0.75" transform="rotate(-24)" />
      <ellipse cx="28" cy="150.05" rx="22.07" ry="41.92" fill="#acb39f" fill-opacity="0.66" transform="rotate(20)" />
      <g transform="translate(0 0)">
        <ellipse cx="30.89" cy="0.00" rx="19.86" ry="30.89" fill="#f0d8c8" fill-opacity="0.95" /><ellipse cx="21.84" cy="21.84" rx="19.86" ry="30.89" fill="#f0d8c8" fill-opacity="0.95" /><ellipse cx="0.00" cy="30.89" rx="19.86" ry="30.89" fill="#f0d8c8" fill-opacity="0.95" /><ellipse cx="-21.84" cy="21.84" rx="19.86" ry="30.89" fill="#f0d8c8" fill-opacity="0.95" /><ellipse cx="-30.89" cy="0.00" rx="19.86" ry="30.89" fill="#f0d8c8" fill-opacity="0.95" /><ellipse cx="-21.84" cy="-21.84" rx="19.86" ry="30.89" fill="#f0d8c8" fill-opacity="0.95" /><ellipse cx="-0.00" cy="-30.89" rx="19.86" ry="30.89" fill="#f0d8c8" fill-opacity="0.95" /><ellipse cx="21.84" cy="-21.84" rx="19.86" ry="30.89" fill="#f0d8c8" fill-opacity="0.95" />
        <circle cx="0" cy="0" r="19.86" fill="#b17ca8" />
        <circle cx="0" cy="0" r="9.93" fill="#fff7f0" fill-opacity="0.72" />
      </g>
    </g>
    
    <g transform="translate(523.62 357.49) rotate(6.67)">
      <path d="M 0 0 C -8 72.50, 10 120.84, -6 177.23" stroke="#8a967a" stroke-width="9.67" fill="none" stroke-linecap="round" />
      <ellipse cx="-20" cy="88.61" rx="17.72" ry="33.83" fill="#8a967a" fill-opacity="0.75" transform="rotate(-24)" />
      <ellipse cx="28" cy="109.56" rx="16.11" ry="30.61" fill="#8a967a" fill-opacity="0.66" transform="rotate(20)" />
      <g transform="translate(0 0)">
        <ellipse cx="22.56" cy="0.00" rx="14.50" ry="22.56" fill="#e9e4ef" fill-opacity="0.95" /><ellipse cx="15.95" cy="15.95" rx="14.50" ry="22.56" fill="#e9e4ef" fill-opacity="0.95" /><ellipse cx="0.00" cy="22.56" rx="14.50" ry="22.56" fill="#e9e4ef" fill-opacity="0.95" /><ellipse cx="-15.95" cy="15.95" rx="14.50" ry="22.56" fill="#e9e4ef" fill-opacity="0.95" /><ellipse cx="-22.56" cy="0.00" rx="14.50" ry="22.56" fill="#e9e4ef" fill-opacity="0.95" /><ellipse cx="-15.95" cy="-15.95" rx="14.50" ry="22.56" fill="#e9e4ef" fill-opacity="0.95" /><ellipse cx="-0.00" cy="-22.56" rx="14.50" ry="22.56" fill="#e9e4ef" fill-opacity="0.95" /><ellipse cx="15.95" cy="-15.95" rx="14.50" ry="22.56" fill="#e9e4ef" fill-opacity="0.95" />
        <circle cx="0" cy="0" r="14.50" fill="#b17ca8" />
        <circle cx="0" cy="0" r="7.25" fill="#fff7f0" fill-opacity="0.72" />
      </g>
    </g>
    
    <g transform="translate(566.70 501.22) rotate(-17.20)">
      <path d="M 0 0 C -8 71.94, 10 119.91, -6 175.86" stroke="#768169" stroke-width="9.59" fill="none" stroke-linecap="round" />
      <ellipse cx="-20" cy="87.93" rx="17.59" ry="33.57" fill="#768169" fill-opacity="0.75" transform="rotate(-24)" />
      <ellipse cx="28" cy="108.71" rx="15.99" ry="30.38" fill="#768169" fill-opacity="0.66" transform="rotate(20)" />
      <g transform="translate(0 0)">
        <ellipse cx="22.38" cy="0.00" rx="14.39" ry="22.38" fill="#e9bfd5" fill-opacity="0.95" /><ellipse cx="15.83" cy="15.83" rx="14.39" ry="22.38" fill="#e9bfd5" fill-opacity="0.95" /><ellipse cx="0.00" cy="22.38" rx="14.39" ry="22.38" fill="#e9bfd5" fill-opacity="0.95" /><ellipse cx="-15.83" cy="15.83" rx="14.39" ry="22.38" fill="#e9bfd5" fill-opacity="0.95" /><ellipse cx="-22.38" cy="0.00" rx="14.39" ry="22.38" fill="#e9bfd5" fill-opacity="0.95" /><ellipse cx="-15.83" cy="-15.83" rx="14.39" ry="22.38" fill="#e9bfd5" fill-opacity="0.95" /><ellipse cx="-0.00" cy="-22.38" rx="14.39" ry="22.38" fill="#e9bfd5" fill-opacity="0.95" /><ellipse cx="15.83" cy="-15.83" rx="14.39" ry="22.38" fill="#e9bfd5" fill-opacity="0.95" />
        <circle cx="0" cy="0" r="14.39" fill="#b17ca8" />
        <circle cx="0" cy="0" r="7.19" fill="#fff7f0" fill-opacity="0.72" />
      </g>
    </g>
    
    <g transform="translate(404.40 313.03) rotate(-25.13)">
      <path d="M 0 0 C -8 106.54, 10 177.56, -6 260.42" stroke="#acb39f" stroke-width="14.20" fill="none" stroke-linecap="round" />
      <ellipse cx="-20" cy="130.21" rx="26.04" ry="49.72" fill="#acb39f" fill-opacity="0.75" transform="rotate(-24)" />
      <ellipse cx="28" cy="160.99" rx="23.67" ry="44.98" fill="#acb39f" fill-opacity="0.66" transform="rotate(20)" />
      <g transform="translate(0 0)">
        <ellipse cx="33.14" cy="0.00" rx="21.31" ry="33.14" fill="#cfa8c9" fill-opacity="0.95" /><ellipse cx="23.44" cy="23.44" rx="21.31" ry="33.14" fill="#cfa8c9" fill-opacity="0.95" /><ellipse cx="0.00" cy="33.14" rx="21.31" ry="33.14" fill="#cfa8c9" fill-opacity="0.95" /><ellipse cx="-23.44" cy="23.44" rx="21.31" ry="33.14" fill="#cfa8c9" fill-opacity="0.95" /><ellipse cx="-33.14" cy="0.00" rx="21.31" ry="33.14" fill="#cfa8c9" fill-opacity="0.95" /><ellipse cx="-23.44" cy="-23.44" rx="21.31" ry="33.14" fill="#cfa8c9" fill-opacity="0.95" /><ellipse cx="-0.00" cy="-33.14" rx="21.31" ry="33.14" fill="#cfa8c9" fill-opacity="0.95" /><ellipse cx="23.44" cy="-23.44" rx="21.31" ry="33.14" fill="#cfa8c9" fill-opacity="0.95" />
        <circle cx="0" cy="0" r="21.31" fill="#b17ca8" />
        <circle cx="0" cy="0" r="10.65" fill="#fff7f0" fill-opacity="0.72" />
      </g>
    </g>
    
  </g>
  <path d="M0 980 C220 920, 420 1030, 900 930 L900 1100 L0 1100 Z" fill="#ffffff" fill-opacity="0.22" />
</svg>
