<svg xmlns="http://www.w3.org/2000/svg" width="900" height="1100" viewBox="0 0 900 1100">
  <defs>
    <linearGradient id="bg" x1="0" y1="0" x2="0" y2="1">
      <stop offset="0%" stop-color="#f7f0f6" />
      <stop offset="100%" stop-color="#eee9f3" />
    </linearGradient>
    <filter id="shadow" x="-20%" y="-20%" width="140%" height="140%">
      <feDropShadow dx="0" dy="22" stdDeviation="24" flood-color="#6c5d4f" flood-opacity="0.12" />
    </filter>
  </defs>
  <rect width="100%" height="100%" fill="url(#bg)" />
  <circle cx="730" cy="180" r="140" fill="#ffffff" fill-opacity="0.18" />
  <circle cx="150" cy="260" r="90" fill="#ffffff" fill-opacity="0.12" />
  
      <rect x="70" y="72" width="300" height="92" rx="24" fill="#ffffff" fill-opacity="0.34" />
      <text x="98" y="120" fill="#2f3a31" font-size="32" font-family="'PingFang SC','Microsoft YaHei',sans-serif" font-weight="600">相框花语</text>
      <text x="98" y="152" fill="#4e6152" font-size="18" font-family="'PingFang SC','Microsoft YaHei',sans-serif">永生花 · 礼盒</text>
    
  <g filter="url(#shadow)">
    <rect x="180" y="760" width="540" height="250" rx="26" fill="#efe7dd" fill-opacity="0.92" /><rect x="230" y="820" width="440" height="130" rx="22" fill="#f7f1ea" fill-opacity="0.85" />
  </g>
  <g>
    
    <g transform="translate(386.76 490.58) rotate(-11.82)">
      <path d="M 0 0 C -8 72.36, 10 120.60, -6 176.88" stroke="#8a967a" stroke-width="9.65" fill="none" stroke-linecap="round" />
      <ellipse cx="-20" cy="88.44" rx="17.69" ry="33.77" fill="#8a967a" fill-opacity="0.75" transform="rotate(-24)" />
      <ellipse cx="28" cy="109.34" rx="16.08" ry="30.55" fill="#8a967a" fill-opacity="0.66" transform="rotate(20)" />
      <g transform="translate(0 0)">
        <ellipse cx="22.51" cy="0.00" rx="14.47" ry="22.51" fill="#e9bfd5" fill-opacity="0.95" /><ellipse cx="15.92" cy="15.92" rx="14.47" ry="22.51" fill="#e9bfd5" fill-opacity="0.95" /><ellipse cx="0.00" cy="22.51" rx="14.47" ry="22.51" fill="#e9bfd5" fill-opacity="0.95" /><ellipse cx="-15.92" cy="15.92" rx="14.47" ry="22.51" fill="#e9bfd5" fill-opacity="0.95" /><ellipse cx="-22.51" cy="0.00" rx="14.47" ry="22.51" fill="#e9bfd5" fill-opacity="0.95" /><ellipse cx="-15.92" cy="-15.92" rx="14.47" ry="22.51" fill="#e9bfd5" fill-opacity="0.95" /><ellipse cx="-0.00" cy="-22.51" rx="14.47" ry="22.51" fill="#e9bfd5" fill-opacity="0.95" /><ellipse cx="15.92" cy="-15.92" rx="14.47" ry="22.51" fill="#e9bfd5" fill-opacity="0.95" />
        <circle cx="0" cy="0" r="14.47" fill="#b17ca8" />
        <circle cx="0" cy="0" r="7.24" fill="#fff7f0" fill-opacity="0.72" />
      </g>
    </g>
    
    <g transform="translate(225.76 467.11) rotate(-8.21)">
      <path d="M 0 0 C -8 86.96, 10 144.93, -6 212.57" stroke="#768169" stroke-width="11.59" fill="none" stroke-linecap="round" />
      <ellipse cx="-20" cy="106.29" rx="21.26" ry="40.58" fill="#768169" fill-opacity="0.75" transform="rotate(-24)" />
      <ellipse cx="28" cy="131.41" rx="19.32" ry="36.72" fill="#768169" fill-opacity="0.66" transform="rotate(20)" />
      <g transform="translate(0 0)">
        <ellipse cx="27.05" cy="0.00" rx="17.39" ry="27.05" fill="#cfa8c9" fill-opacity="0.95" /><ellipse cx="19.13" cy="19.13" rx="17.39" ry="27.05" fill="#cfa8c9" fill-opacity="0.95" /><ellipse cx="0.00" cy="27.05" rx="17.39" ry="27.05" fill="#cfa8c9" fill-opacity="0.95" /><ellipse cx="-19.13" cy="19.13" rx="17.39" ry="27.05" fill="#cfa8c9" fill-opacity="0.95" /><ellipse cx="-27.05" cy="0.00" rx="17.39" ry="27.05" fill="#cfa8c9" fill-opacity="0.95" /><ellipse cx="-19.13" cy="-19.13" rx="17.39" ry="27.05" fill="#cfa8c9" fill-opacity="0.95" /><ellipse cx="-0.00" cy="-27.05" rx="17.39" ry="27.05" fill="#cfa8c9" fill-opacity="0.95" /><ellipse cx="19.13" cy="-19.13" rx="17.39" ry="27.05" fill="#cfa8c9" fill-opacity="0.95" />
        <circle cx="0" cy="0" r="17.39" fill="#b17ca8" />
        <circle cx="0" cy="0" r="8.70" fill="#fff7f0" fill-opacity="0.72" />
      </g>
    </g>
    
    <g transform="translate(376.38 511.77) rotate(18.61)">
      <path d="M 0 0 C -8 106.21, 10 177.02, -6 259.62" stroke="#acb39f" stroke-width="14.16" fill="none" stroke-linecap="round" />
      <ellipse cx="-20" cy="129.81" rx="25.96" ry="49.56" fill="#acb39f" fill-opacity="0.75" transform="rotate(-24)" />
      <ellipse cx="28" cy="160.49" rx="23.60" ry="44.84" fill="#acb39f" fill-opacity="0.66" transform="rotate(20)" />
      <g transform="translate(0 0)">
        <ellipse cx="33.04" cy="0.00" rx="21.24" ry="33.04" fill="#f0d8c8" fill-opacity="0.95" /><ellipse cx="23.36" cy="23.36" rx="21.24" ry="33.04" fill="#f0d8c8" fill-opacity="0.95" /><ellipse cx="0.00" cy="33.04" rx="21.24" ry="33.04" fill="#f0d8c8" fill-opacity="0.95" /><ellipse cx="-23.36" cy="23.36" rx="21.24" ry="33.04" fill="#f0d8c8" fill-opacity="0.95" /><ellipse cx="-33.04" cy="0.00" rx="21.24" ry="33.04" fill="#f0d8c8" fill-opacity="0.95" /><ellipse cx="-23.36" cy="-23.36" rx="21.24" ry="33.04" fill="#f0d8c8" fill-opacity="0.95" /><ellipse cx="-0.00" cy="-33.04" rx="21.24" ry="33.04" fill="#f0d8c8" fill-opacity="0.95" /><ellipse cx="23.36" cy="-23.36" rx="21.24" ry="33.04" fill="#f0d8c8" fill-opacity="0.95" />
        <circle cx="0" cy="0" r="21.24" fill="#b17ca8" />
        <circle cx="0" cy="0" r="10.62" fill="#fff7f0" fill-opacity="0.72" />
      </g>
    </g>
    
    <g transform="translate(201.69 405.36) rotate(-3.25)">
      <path d="M 0 0 C -8 91.13, 10 151.89, -6 222.77" stroke="#8a967a" stroke-width="12.15" fill="none" stroke-linecap="round" />
      <ellipse cx="-20" cy="111.39" rx="22.28" ry="42.53" fill="#8a967a" fill-opacity="0.75" transform="rotate(-24)" />
      <ellipse cx="28" cy="137.71" rx="20.25" ry="38.48" fill="#8a967a" fill-opacity="0.66" transform="rotate(20)" />
      <g transform="translate(0 0)">
        <ellipse cx="28.35" cy="0.00" rx="18.23" ry="28.35" fill="#e9e4ef" fill-opacity="0.95" /><ellipse cx="20.05" cy="20.05" rx="18.23" ry="28.35" fill="#e9e4ef" fill-opacity="0.95" /><ellipse cx="0.00" cy="28.35" rx="18.23" ry="28.35" fill="#e9e4ef" fill-opacity="0.95" /><ellipse cx="-20.05" cy="20.05" rx="18.23" ry="28.35" fill="#e9e4ef" fill-opacity="0.95" /><ellipse cx="-28.35" cy="0.00" rx="18.23" ry="28.35" fill="#e9e4ef" fill-opacity="0.95" /><ellipse cx="-20.05" cy="-20.05" rx="18.23" ry="28.35" fill="#e9e4ef" fill-opacity="0.95" /><ellipse cx="-0.00" cy="-28.35" rx="18.23" ry="28.35" fill="#e9e4ef" fill-opacity="0.95" /><ellipse cx="20.05" cy="-20.05" rx="18.23" ry="28.35" fill="#e9e4ef" fill-opacity="0.95" />
        <circle cx="0" cy="0" r="18.23" fill="#b17ca8" />
        <circle cx="0" cy="0" r="9.11" fill="#fff7f0" fill-opacity="0.72" />
      </g>
    </g>
    
    <g transform="translate(697.76 559.47) rotate(-15.63)">
      <path d="M 0 0 C -8 80.31, 10 133.85, -6 196.32" stroke="#768169" stroke-width="10.71" fill="none" stroke-linecap="round" />
      <ellipse cx="-20" cy="98.16" rx="19.63" ry="37.48" fill="#768169" fill-opacity="0.75" transform="rotate(-24)" />
      <ellipse cx="28" cy="121.36" rx="17.85" ry="33.91" fill="#768169" fill-opacity="0.66" transform="rotate(20)" />
      <g transform="translate(0 0)">
        <ellipse cx="24.99" cy="0.00" rx="16.06" ry="24.99" fill="#e9bfd5" fill-opacity="0.95" /><ellipse cx="17.67" cy="17.67" rx="16.06" ry="24.99" fill="#e9bfd5" fill-opacity="0.95" /><ellipse cx="0.00" cy="24.99" rx="16.06" ry="24.99" fill="#e9bfd5" fill-opacity="0.95" /><ellipse cx="-17.67" cy="17.67" rx="16.06" ry="24.99" fill="#e9bfd5" fill-opacity="0.95" /><ellipse cx="-24.99" cy="0.00" rx="16.06" ry="24.99" fill="#e9bfd5" fill-opacity="0.95" /><ellipse cx="-17.67" cy="-17.67" rx="16.06" ry="24.99" fill="#e9bfd5" fill-opacity="0.95" /><ellipse cx="-0.00" cy="-24.99" rx="16.06" ry="24.99" fill="#e9bfd5" fill-opacity="0.95" /><ellipse cx="17.67" cy="-17.67" rx="16.06" ry="24.99" fill="#e9bfd5" fill-opacity="0.95" />
        <circle cx="0" cy="0" r="16.06" fill="#b17ca8" />
        <circle cx="0" cy="0" r="8.03" fill="#fff7f0" fill-opacity="0.72" />
      </g>
    </g>
    
    <g transform="translate(513.37 386.29) rotate(9.51)">
      <path d="M 0 0 C -8 105.01, 10 175.02, -6 256.69" stroke="#acb39f" stroke-width="14.00" fill="none" stroke-linecap="round" />
      <ellipse cx="-20" cy="128.35" rx="25.67" ry="49.01" fill="#acb39f" fill-opacity="0.75" transform="rotate(-24)" />
      <ellipse cx="28" cy="158.68" rx="23.34" ry="44.34" fill="#acb39f" fill-opacity="0.66" transform="rotate(20)" />
      <g transform="translate(0 0)">
        <ellipse cx="32.67" cy="0.00" rx="21.00" ry="32.67" fill="#cfa8c9" fill-opacity="0.95" /><ellipse cx="23.10" cy="23.10" rx="21.00" ry="32.67" fill="#cfa8c9" fill-opacity="0.95" /><ellipse cx="0.00" cy="32.67" rx="21.00" ry="32.67" fill="#cfa8c9" fill-opacity="0.95" /><ellipse cx="-23.10" cy="23.10" rx="21.00" ry="32.67" fill="#cfa8c9" fill-opacity="0.95" /><ellipse cx="-32.67" cy="0.00" rx="21.00" ry="32.67" fill="#cfa8c9" fill-opacity="0.95" /><ellipse cx="-23.10" cy="-23.10" rx="21.00" ry="32.67" fill="#cfa8c9" fill-opacity="0.95" /><ellipse cx="-0.00" cy="-32.67" rx="21.00" ry="32.67" fill="#cfa8c9" fill-opacity="0.95" /><ellipse cx="23.10" cy="-23.10" rx="21.00" ry="32.67" fill="#cfa8c9" fill-opacity="0.95" />
        <circle cx="0" cy="0" r="21.00" fill="#b17ca8" />
        <circle cx="0" cy="0" r="10.50" fill="#fff7f0" fill-opacity="0.72" />
      </g>
    </g>
    
    <g transform="translate(538.30 502.53) rotate(-10.51)">
      <path d="M 0 0 C -8 103.56, 10 172.59, -6 253.14" stroke="#8a967a" stroke-width="13.81" fill="none" stroke-linecap="round" />
      <ellipse cx="-20" cy="126.57" rx="25.31" ry="48.33" fill="#8a967a" fill-opacity="0.75" transform="rotate(-24)" />
      <ellipse cx="28" cy="156.48" rx="23.01" ry="43.72" fill="#8a967a" fill-opacity="0.66" transform="rotate(20)" />
      <g transform="translate(0 0)">
        <ellipse cx="32.22" cy="0.00" rx="20.71" ry="32.22" fill="#f0d8c8" fill-opacity="0.95" /><ellipse cx="22.78" cy="22.78" rx="20.71" ry="32.22" fill="#f0d8c8" fill-opacity="0.95" /><ellipse cx="0.00" cy="32.22" rx="20.71" ry="32.22" fill="#f0d8c8" fill-opacity="0.95" /><ellipse cx="-22.78" cy="22.78" rx="20.71" ry="32.22" fill="#f0d8c8" fill-opacity="0.95" /><ellipse cx="-32.22" cy="0.00" rx="20.71" ry="32.22" fill="#f0d8c8" fill-opacity="0.95" /><ellipse cx="-22.78" cy="-22.78" rx="20.71" ry="32.22" fill="#f0d8c8" fill-opacity="0.95" /><ellipse cx="-0.00" cy="-32.22" rx="20.71" ry="32.22" fill="#f0d8c8" fill-opacity="0.95" /><ellipse cx="22.78" cy="-22.78" rx="20.71" ry="32.22" fill="#f0d8c8" fill-opacity="0.95" />
        <circle cx="0" cy="0" r="20.71" fill="#b17ca8" />
        <circle cx="0" cy="0" r="10.36" fill="#fff7f0" fill-opacity="0.72" />
      </g>
    </g>
    
  </g>
  <path d="M0 980 C220 920, 420 1030, 900 930 L900 1100 L0 1100 Z" fill="#ffffff" fill-opacity="0.22" />
</svg>
