<svg xmlns="http://www.w3.org/2000/svg" width="900" height="1100" viewBox="0 0 900 1100">
  <defs>
    <linearGradient id="bg" x1="0" y1="0" x2="0" y2="1">
      <stop offset="0%" stop-color="#f7f0f6" />
      <stop offset="100%" stop-color="#eee9f3" />
    </linearGradient>
    <filter id="shadow" x="-20%" y="-20%" width="140%" height="140%">
      <feDropShadow dx="0" dy="22" stdDeviation="24" flood-color="#6c5d4f" flood-opacity="0.12" />
    </filter>
  </defs>
  <rect width="100%" height="100%" fill="url(#bg)" />
  <circle cx="730" cy="180" r="140" fill="#ffffff" fill-opacity="0.18" />
  <circle cx="150" cy="260" r="90" fill="#ffffff" fill-opacity="0.12" />
  
      <rect x="70" y="72" width="300" height="92" rx="24" fill="#ffffff" fill-opacity="0.34" />
      <text x="98" y="120" fill="#2f3a31" font-size="32" font-family="'PingFang SC','Microsoft YaHei',sans-serif" font-weight="600">月影花盒</text>
      <text x="98" y="152" fill="#4e6152" font-size="18" font-family="'PingFang SC','Microsoft YaHei',sans-serif">永生花 · 礼盒</text>
    
  <g filter="url(#shadow)">
    <rect x="180" y="760" width="540" height="250" rx="26" fill="#efe7dd" fill-opacity="0.92" /><rect x="230" y="820" width="440" height="130" rx="22" fill="#f7f1ea" fill-opacity="0.85" />
  </g>
  <g>
    
    <g transform="translate(548.07 443.87) rotate(13.76)">
      <path d="M 0 0 C -8 91.65, 10 152.75, -6 224.04" stroke="#8a967a" stroke-width="12.22" fill="none" stroke-linecap="round" />
      <ellipse cx="-20" cy="112.02" rx="22.40" ry="42.77" fill="#8a967a" fill-opacity="0.75" transform="rotate(-24)" />
      <ellipse cx="28" cy="138.50" rx="20.37" ry="38.70" fill="#8a967a" fill-opacity="0.66" transform="rotate(20)" />
      <g transform="translate(0 0)">
        <ellipse cx="28.51" cy="0.00" rx="18.33" ry="28.51" fill="#e9bfd5" fill-opacity="0.95" /><ellipse cx="20.16" cy="20.16" rx="18.33" ry="28.51" fill="#e9bfd5" fill-opacity="0.95" /><ellipse cx="0.00" cy="28.51" rx="18.33" ry="28.51" fill="#e9bfd5" fill-opacity="0.95" /><ellipse cx="-20.16" cy="20.16" rx="18.33" ry="28.51" fill="#e9bfd5" fill-opacity="0.95" /><ellipse cx="-28.51" cy="0.00" rx="18.33" ry="28.51" fill="#e9bfd5" fill-opacity="0.95" /><ellipse cx="-20.16" cy="-20.16" rx="18.33" ry="28.51" fill="#e9bfd5" fill-opacity="0.95" /><ellipse cx="-0.00" cy="-28.51" rx="18.33" ry="28.51" fill="#e9bfd5" fill-opacity="0.95" /><ellipse cx="20.16" cy="-20.16" rx="18.33" ry="28.51" fill="#e9bfd5" fill-opacity="0.95" />
        <circle cx="0" cy="0" r="18.33" fill="#b17ca8" />
        <circle cx="0" cy="0" r="9.17" fill="#fff7f0" fill-opacity="0.72" />
      </g>
    </g>
    
    <g transform="translate(582.04 308.84) rotate(-12.63)">
      <path d="M 0 0 C -8 95.64, 10 159.41, -6 233.80" stroke="#768169" stroke-width="12.75" fill="none" stroke-linecap="round" />
      <ellipse cx="-20" cy="116.90" rx="23.38" ry="44.63" fill="#768169" fill-opacity="0.75" transform="rotate(-24)" />
      <ellipse cx="28" cy="144.53" rx="21.25" ry="40.38" fill="#768169" fill-opacity="0.66" transform="rotate(20)" />
      <g transform="translate(0 0)">
        <ellipse cx="29.76" cy="0.00" rx="19.13" ry="29.76" fill="#cfa8c9" fill-opacity="0.95" /><ellipse cx="21.04" cy="21.04" rx="19.13" ry="29.76" fill="#cfa8c9" fill-opacity="0.95" /><ellipse cx="0.00" cy="29.76" rx="19.13" ry="29.76" fill="#cfa8c9" fill-opacity="0.95" /><ellipse cx="-21.04" cy="21.04" rx="19.13" ry="29.76" fill="#cfa8c9" fill-opacity="0.95" /><ellipse cx="-29.76" cy="0.00" rx="19.13" ry="29.76" fill="#cfa8c9" fill-opacity="0.95" /><ellipse cx="-21.04" cy="-21.04" rx="19.13" ry="29.76" fill="#cfa8c9" fill-opacity="0.95" /><ellipse cx="-0.00" cy="-29.76" rx="19.13" ry="29.76" fill="#cfa8c9" fill-opacity="0.95" /><ellipse cx="21.04" cy="-21.04" rx="19.13" ry="29.76" fill="#cfa8c9" fill-opacity="0.95" />
        <circle cx="0" cy="0" r="19.13" fill="#b17ca8" />
        <circle cx="0" cy="0" r="9.56" fill="#fff7f0" fill-opacity="0.72" />
      </g>
    </g>
    
    <g transform="translate(673.88 366.98) rotate(13.09)">
      <path d="M 0 0 C -8 105.85, 10 176.42, -6 258.75" stroke="#acb39f" stroke-width="14.11" fill="none" stroke-linecap="round" />
      <ellipse cx="-20" cy="129.38" rx="25.88" ry="49.40" fill="#acb39f" fill-opacity="0.75" transform="rotate(-24)" />
      <ellipse cx="28" cy="159.95" rx="23.52" ry="44.69" fill="#acb39f" fill-opacity="0.66" transform="rotate(20)" />
      <g transform="translate(0 0)">
        <ellipse cx="32.93" cy="0.00" rx="21.17" ry="32.93" fill="#f0d8c8" fill-opacity="0.95" /><ellipse cx="23.29" cy="23.29" rx="21.17" ry="32.93" fill="#f0d8c8" fill-opacity="0.95" /><ellipse cx="0.00" cy="32.93" rx="21.17" ry="32.93" fill="#f0d8c8" fill-opacity="0.95" /><ellipse cx="-23.29" cy="23.29" rx="21.17" ry="32.93" fill="#f0d8c8" fill-opacity="0.95" /><ellipse cx="-32.93" cy="0.00" rx="21.17" ry="32.93" fill="#f0d8c8" fill-opacity="0.95" /><ellipse cx="-23.29" cy="-23.29" rx="21.17" ry="32.93" fill="#f0d8c8" fill-opacity="0.95" /><ellipse cx="-0.00" cy="-32.93" rx="21.17" ry="32.93" fill="#f0d8c8" fill-opacity="0.95" /><ellipse cx="23.29" cy="-23.29" rx="21.17" ry="32.93" fill="#f0d8c8" fill-opacity="0.95" />
        <circle cx="0" cy="0" r="21.17" fill="#b17ca8" />
        <circle cx="0" cy="0" r="10.59" fill="#fff7f0" fill-opacity="0.72" />
      </g>
    </g>
    
    <g transform="translate(391.73 493.81) rotate(-22.92)">
      <path d="M 0 0 C -8 111.74, 10 186.23, -6 273.14" stroke="#8a967a" stroke-width="14.90" fill="none" stroke-linecap="round" />
      <ellipse cx="-20" cy="136.57" rx="27.31" ry="52.15" fill="#8a967a" fill-opacity="0.75" transform="rotate(-24)" />
      <ellipse cx="28" cy="168.85" rx="24.83" ry="47.18" fill="#8a967a" fill-opacity="0.66" transform="rotate(20)" />
      <g transform="translate(0 0)">
        <ellipse cx="34.76" cy="0.00" rx="22.35" ry="34.76" fill="#e9e4ef" fill-opacity="0.95" /><ellipse cx="24.58" cy="24.58" rx="22.35" ry="34.76" fill="#e9e4ef" fill-opacity="0.95" /><ellipse cx="0.00" cy="34.76" rx="22.35" ry="34.76" fill="#e9e4ef" fill-opacity="0.95" /><ellipse cx="-24.58" cy="24.58" rx="22.35" ry="34.76" fill="#e9e4ef" fill-opacity="0.95" /><ellipse cx="-34.76" cy="0.00" rx="22.35" ry="34.76" fill="#e9e4ef" fill-opacity="0.95" /><ellipse cx="-24.58" cy="-24.58" rx="22.35" ry="34.76" fill="#e9e4ef" fill-opacity="0.95" /><ellipse cx="-0.00" cy="-34.76" rx="22.35" ry="34.76" fill="#e9e4ef" fill-opacity="0.95" /><ellipse cx="24.58" cy="-24.58" rx="22.35" ry="34.76" fill="#e9e4ef" fill-opacity="0.95" />
        <circle cx="0" cy="0" r="22.35" fill="#b17ca8" />
        <circle cx="0" cy="0" r="11.17" fill="#fff7f0" fill-opacity="0.72" />
      </g>
    </g>
    
    <g transform="translate(560.22 475.13) rotate(2.51)">
      <path d="M 0 0 C -8 108.61, 10 181.02, -6 265.49" stroke="#768169" stroke-width="14.48" fill="none" stroke-linecap="round" />
      <ellipse cx="-20" cy="132.74" rx="26.55" ry="50.68" fill="#768169" fill-opacity="0.75" transform="rotate(-24)" />
      <ellipse cx="28" cy="164.12" rx="24.14" ry="45.86" fill="#768169" fill-opacity="0.66" transform="rotate(20)" />
      <g transform="translate(0 0)">
        <ellipse cx="33.79" cy="0.00" rx="21.72" ry="33.79" fill="#e9bfd5" fill-opacity="0.95" /><ellipse cx="23.89" cy="23.89" rx="21.72" ry="33.79" fill="#e9bfd5" fill-opacity="0.95" /><ellipse cx="0.00" cy="33.79" rx="21.72" ry="33.79" fill="#e9bfd5" fill-opacity="0.95" /><ellipse cx="-23.89" cy="23.89" rx="21.72" ry="33.79" fill="#e9bfd5" fill-opacity="0.95" /><ellipse cx="-33.79" cy="0.00" rx="21.72" ry="33.79" fill="#e9bfd5" fill-opacity="0.95" /><ellipse cx="-23.89" cy="-23.89" rx="21.72" ry="33.79" fill="#e9bfd5" fill-opacity="0.95" /><ellipse cx="-0.00" cy="-33.79" rx="21.72" ry="33.79" fill="#e9bfd5" fill-opacity="0.95" /><ellipse cx="23.89" cy="-23.89" rx="21.72" ry="33.79" fill="#e9bfd5" fill-opacity="0.95" />
        <circle cx="0" cy="0" r="21.72" fill="#b17ca8" />
        <circle cx="0" cy="0" r="10.86" fill="#fff7f0" fill-opacity="0.72" />
      </g>
    </g>
    
    <g transform="translate(604.59 292.51) rotate(17.62)">
      <path d="M 0 0 C -8 90.52, 10 150.87, -6 221.28" stroke="#acb39f" stroke-width="12.07" fill="none" stroke-linecap="round" />
      <ellipse cx="-20" cy="110.64" rx="22.13" ry="42.24" fill="#acb39f" fill-opacity="0.75" transform="rotate(-24)" />
      <ellipse cx="28" cy="136.79" rx="20.12" ry="38.22" fill="#acb39f" fill-opacity="0.66" transform="rotate(20)" />
      <g transform="translate(0 0)">
        <ellipse cx="28.16" cy="0.00" rx="18.10" ry="28.16" fill="#cfa8c9" fill-opacity="0.95" /><ellipse cx="19.91" cy="19.91" rx="18.10" ry="28.16" fill="#cfa8c9" fill-opacity="0.95" /><ellipse cx="0.00" cy="28.16" rx="18.10" ry="28.16" fill="#cfa8c9" fill-opacity="0.95" /><ellipse cx="-19.91" cy="19.91" rx="18.10" ry="28.16" fill="#cfa8c9" fill-opacity="0.95" /><ellipse cx="-28.16" cy="0.00" rx="18.10" ry="28.16" fill="#cfa8c9" fill-opacity="0.95" /><ellipse cx="-19.91" cy="-19.91" rx="18.10" ry="28.16" fill="#cfa8c9" fill-opacity="0.95" /><ellipse cx="-0.00" cy="-28.16" rx="18.10" ry="28.16" fill="#cfa8c9" fill-opacity="0.95" /><ellipse cx="19.91" cy="-19.91" rx="18.10" ry="28.16" fill="#cfa8c9" fill-opacity="0.95" />
        <circle cx="0" cy="0" r="18.10" fill="#b17ca8" />
        <circle cx="0" cy="0" r="9.05" fill="#fff7f0" fill-opacity="0.72" />
      </g>
    </g>
    
  </g>
  <path d="M0 980 C220 920, 420 1030, 900 930 L900 1100 L0 1100 Z" fill="#ffffff" fill-opacity="0.22" />
</svg>
