<svg xmlns="http://www.w3.org/2000/svg" width="900" height="1100" viewBox="0 0 900 1100">
  <defs>
    <linearGradient id="bg" x1="0" y1="0" x2="0" y2="1">
      <stop offset="0%" stop-color="#f7f0f6" />
      <stop offset="100%" stop-color="#eee9f3" />
    </linearGradient>
    <filter id="shadow" x="-20%" y="-20%" width="140%" height="140%">
      <feDropShadow dx="0" dy="22" stdDeviation="24" flood-color="#6c5d4f" flood-opacity="0.12" />
    </filter>
  </defs>
  <rect width="100%" height="100%" fill="url(#bg)" />
  <circle cx="730" cy="180" r="140" fill="#ffffff" fill-opacity="0.18" />
  <circle cx="150" cy="260" r="90" fill="#ffffff" fill-opacity="0.12" />
  
      <rect x="70" y="72" width="300" height="92" rx="24" fill="#ffffff" fill-opacity="0.34" />
      <text x="98" y="120" fill="#2f3a31" font-size="32" font-family="'PingFang SC','Microsoft YaHei',sans-serif" font-weight="600">时光存信</text>
      <text x="98" y="152" fill="#4e6152" font-size="18" font-family="'PingFang SC','Microsoft YaHei',sans-serif">家居 · 永生花系列</text>
    
  <g filter="url(#shadow)">
    <rect x="180" y="760" width="540" height="250" rx="26" fill="#efe7dd" fill-opacity="0.92" /><rect x="230" y="820" width="440" height="130" rx="22" fill="#f7f1ea" fill-opacity="0.85" />
  </g>
  <g>
    
    <g transform="translate(565.17 321.10) rotate(-15.52)">
      <path d="M 0 0 C -8 75.80, 10 126.33, -6 185.28" stroke="#8a967a" stroke-width="10.11" fill="none" stroke-linecap="round" />
      <ellipse cx="-20" cy="92.64" rx="18.53" ry="35.37" fill="#8a967a" fill-opacity="0.75" transform="rotate(-24)" />
      <ellipse cx="28" cy="114.54" rx="16.84" ry="32.00" fill="#8a967a" fill-opacity="0.66" transform="rotate(20)" />
      <g transform="translate(0 0)">
        <ellipse cx="23.58" cy="0.00" rx="15.16" ry="23.58" fill="#e9bfd5" fill-opacity="0.95" /><ellipse cx="16.67" cy="16.67" rx="15.16" ry="23.58" fill="#e9bfd5" fill-opacity="0.95" /><ellipse cx="0.00" cy="23.58" rx="15.16" ry="23.58" fill="#e9bfd5" fill-opacity="0.95" /><ellipse cx="-16.67" cy="16.67" rx="15.16" ry="23.58" fill="#e9bfd5" fill-opacity="0.95" /><ellipse cx="-23.58" cy="0.00" rx="15.16" ry="23.58" fill="#e9bfd5" fill-opacity="0.95" /><ellipse cx="-16.67" cy="-16.67" rx="15.16" ry="23.58" fill="#e9bfd5" fill-opacity="0.95" /><ellipse cx="-0.00" cy="-23.58" rx="15.16" ry="23.58" fill="#e9bfd5" fill-opacity="0.95" /><ellipse cx="16.67" cy="-16.67" rx="15.16" ry="23.58" fill="#e9bfd5" fill-opacity="0.95" />
        <circle cx="0" cy="0" r="15.16" fill="#b17ca8" />
        <circle cx="0" cy="0" r="7.58" fill="#fff7f0" fill-opacity="0.72" />
      </g>
    </g>
    
    <g transform="translate(297.00 513.70) rotate(19.07)">
      <path d="M 0 0 C -8 113.62, 10 189.36, -6 277.73" stroke="#768169" stroke-width="15.15" fill="none" stroke-linecap="round" />
      <ellipse cx="-20" cy="138.87" rx="27.77" ry="53.02" fill="#768169" fill-opacity="0.75" transform="rotate(-24)" />
      <ellipse cx="28" cy="171.69" rx="25.25" ry="47.97" fill="#768169" fill-opacity="0.66" transform="rotate(20)" />
      <g transform="translate(0 0)">
        <ellipse cx="35.35" cy="0.00" rx="22.72" ry="35.35" fill="#cfa8c9" fill-opacity="0.95" /><ellipse cx="24.99" cy="24.99" rx="22.72" ry="35.35" fill="#cfa8c9" fill-opacity="0.95" /><ellipse cx="0.00" cy="35.35" rx="22.72" ry="35.35" fill="#cfa8c9" fill-opacity="0.95" /><ellipse cx="-24.99" cy="24.99" rx="22.72" ry="35.35" fill="#cfa8c9" fill-opacity="0.95" /><ellipse cx="-35.35" cy="0.00" rx="22.72" ry="35.35" fill="#cfa8c9" fill-opacity="0.95" /><ellipse cx="-24.99" cy="-24.99" rx="22.72" ry="35.35" fill="#cfa8c9" fill-opacity="0.95" /><ellipse cx="-0.00" cy="-35.35" rx="22.72" ry="35.35" fill="#cfa8c9" fill-opacity="0.95" /><ellipse cx="24.99" cy="-24.99" rx="22.72" ry="35.35" fill="#cfa8c9" fill-opacity="0.95" />
        <circle cx="0" cy="0" r="22.72" fill="#b17ca8" />
        <circle cx="0" cy="0" r="11.36" fill="#fff7f0" fill-opacity="0.72" />
      </g>
    </g>
    
    <g transform="translate(244.63 410.22) rotate(-12.91)">
      <path d="M 0 0 C -8 93.27, 10 155.44, -6 227.98" stroke="#acb39f" stroke-width="12.44" fill="none" stroke-linecap="round" />
      <ellipse cx="-20" cy="113.99" rx="22.80" ry="43.52" fill="#acb39f" fill-opacity="0.75" transform="rotate(-24)" />
      <ellipse cx="28" cy="140.94" rx="20.73" ry="39.38" fill="#acb39f" fill-opacity="0.66" transform="rotate(20)" />
      <g transform="translate(0 0)">
        <ellipse cx="29.02" cy="0.00" rx="18.65" ry="29.02" fill="#f0d8c8" fill-opacity="0.95" /><ellipse cx="20.52" cy="20.52" rx="18.65" ry="29.02" fill="#f0d8c8" fill-opacity="0.95" /><ellipse cx="0.00" cy="29.02" rx="18.65" ry="29.02" fill="#f0d8c8" fill-opacity="0.95" /><ellipse cx="-20.52" cy="20.52" rx="18.65" ry="29.02" fill="#f0d8c8" fill-opacity="0.95" /><ellipse cx="-29.02" cy="0.00" rx="18.65" ry="29.02" fill="#f0d8c8" fill-opacity="0.95" /><ellipse cx="-20.52" cy="-20.52" rx="18.65" ry="29.02" fill="#f0d8c8" fill-opacity="0.95" /><ellipse cx="-0.00" cy="-29.02" rx="18.65" ry="29.02" fill="#f0d8c8" fill-opacity="0.95" /><ellipse cx="20.52" cy="-20.52" rx="18.65" ry="29.02" fill="#f0d8c8" fill-opacity="0.95" />
        <circle cx="0" cy="0" r="18.65" fill="#b17ca8" />
        <circle cx="0" cy="0" r="9.33" fill="#fff7f0" fill-opacity="0.72" />
      </g>
    </g>
    
    <g transform="translate(262.40 304.50) rotate(-12.31)">
      <path d="M 0 0 C -8 84.01, 10 140.02, -6 205.37" stroke="#8a967a" stroke-width="11.20" fill="none" stroke-linecap="round" />
      <ellipse cx="-20" cy="102.68" rx="20.54" ry="39.21" fill="#8a967a" fill-opacity="0.75" transform="rotate(-24)" />
      <ellipse cx="28" cy="126.96" rx="18.67" ry="35.47" fill="#8a967a" fill-opacity="0.66" transform="rotate(20)" />
      <g transform="translate(0 0)">
        <ellipse cx="26.14" cy="0.00" rx="16.80" ry="26.14" fill="#e9e4ef" fill-opacity="0.95" /><ellipse cx="18.48" cy="18.48" rx="16.80" ry="26.14" fill="#e9e4ef" fill-opacity="0.95" /><ellipse cx="0.00" cy="26.14" rx="16.80" ry="26.14" fill="#e9e4ef" fill-opacity="0.95" /><ellipse cx="-18.48" cy="18.48" rx="16.80" ry="26.14" fill="#e9e4ef" fill-opacity="0.95" /><ellipse cx="-26.14" cy="0.00" rx="16.80" ry="26.14" fill="#e9e4ef" fill-opacity="0.95" /><ellipse cx="-18.48" cy="-18.48" rx="16.80" ry="26.14" fill="#e9e4ef" fill-opacity="0.95" /><ellipse cx="-0.00" cy="-26.14" rx="16.80" ry="26.14" fill="#e9e4ef" fill-opacity="0.95" /><ellipse cx="18.48" cy="-18.48" rx="16.80" ry="26.14" fill="#e9e4ef" fill-opacity="0.95" />
        <circle cx="0" cy="0" r="16.80" fill="#b17ca8" />
        <circle cx="0" cy="0" r="8.40" fill="#fff7f0" fill-opacity="0.72" />
      </g>
    </g>
    
    <g transform="translate(278.35 427.45) rotate(19.28)">
      <path d="M 0 0 C -8 99.11, 10 165.18, -6 242.27" stroke="#768169" stroke-width="13.21" fill="none" stroke-linecap="round" />
      <ellipse cx="-20" cy="121.13" rx="24.23" ry="46.25" fill="#768169" fill-opacity="0.75" transform="rotate(-24)" />
      <ellipse cx="28" cy="149.76" rx="22.02" ry="41.85" fill="#768169" fill-opacity="0.66" transform="rotate(20)" />
      <g transform="translate(0 0)">
        <ellipse cx="30.83" cy="0.00" rx="19.82" ry="30.83" fill="#e9bfd5" fill-opacity="0.95" /><ellipse cx="21.80" cy="21.80" rx="19.82" ry="30.83" fill="#e9bfd5" fill-opacity="0.95" /><ellipse cx="0.00" cy="30.83" rx="19.82" ry="30.83" fill="#e9bfd5" fill-opacity="0.95" /><ellipse cx="-21.80" cy="21.80" rx="19.82" ry="30.83" fill="#e9bfd5" fill-opacity="0.95" /><ellipse cx="-30.83" cy="0.00" rx="19.82" ry="30.83" fill="#e9bfd5" fill-opacity="0.95" /><ellipse cx="-21.80" cy="-21.80" rx="19.82" ry="30.83" fill="#e9bfd5" fill-opacity="0.95" /><ellipse cx="-0.00" cy="-30.83" rx="19.82" ry="30.83" fill="#e9bfd5" fill-opacity="0.95" /><ellipse cx="21.80" cy="-21.80" rx="19.82" ry="30.83" fill="#e9bfd5" fill-opacity="0.95" />
        <circle cx="0" cy="0" r="19.82" fill="#b17ca8" />
        <circle cx="0" cy="0" r="9.91" fill="#fff7f0" fill-opacity="0.72" />
      </g>
    </g>
    
    <g transform="translate(532.65 517.74) rotate(4.02)">
      <path d="M 0 0 C -8 114.09, 10 190.15, -6 278.89" stroke="#acb39f" stroke-width="15.21" fill="none" stroke-linecap="round" />
      <ellipse cx="-20" cy="139.44" rx="27.89" ry="53.24" fill="#acb39f" fill-opacity="0.75" transform="rotate(-24)" />
      <ellipse cx="28" cy="172.40" rx="25.35" ry="48.17" fill="#acb39f" fill-opacity="0.66" transform="rotate(20)" />
      <g transform="translate(0 0)">
        <ellipse cx="35.49" cy="0.00" rx="22.82" ry="35.49" fill="#cfa8c9" fill-opacity="0.95" /><ellipse cx="25.10" cy="25.10" rx="22.82" ry="35.49" fill="#cfa8c9" fill-opacity="0.95" /><ellipse cx="0.00" cy="35.49" rx="22.82" ry="35.49" fill="#cfa8c9" fill-opacity="0.95" /><ellipse cx="-25.10" cy="25.10" rx="22.82" ry="35.49" fill="#cfa8c9" fill-opacity="0.95" /><ellipse cx="-35.49" cy="0.00" rx="22.82" ry="35.49" fill="#cfa8c9" fill-opacity="0.95" /><ellipse cx="-25.10" cy="-25.10" rx="22.82" ry="35.49" fill="#cfa8c9" fill-opacity="0.95" /><ellipse cx="-0.00" cy="-35.49" rx="22.82" ry="35.49" fill="#cfa8c9" fill-opacity="0.95" /><ellipse cx="25.10" cy="-25.10" rx="22.82" ry="35.49" fill="#cfa8c9" fill-opacity="0.95" />
        <circle cx="0" cy="0" r="22.82" fill="#b17ca8" />
        <circle cx="0" cy="0" r="11.41" fill="#fff7f0" fill-opacity="0.72" />
      </g>
    </g>
    
    <g transform="translate(540.71 505.62) rotate(-3.88)">
      <path d="M 0 0 C -8 73.63, 10 122.71, -6 179.97" stroke="#8a967a" stroke-width="9.82" fill="none" stroke-linecap="round" />
      <ellipse cx="-20" cy="89.99" rx="18.00" ry="34.36" fill="#8a967a" fill-opacity="0.75" transform="rotate(-24)" />
      <ellipse cx="28" cy="111.26" rx="16.36" ry="31.09" fill="#8a967a" fill-opacity="0.66" transform="rotate(20)" />
      <g transform="translate(0 0)">
        <ellipse cx="22.91" cy="0.00" rx="14.73" ry="22.91" fill="#f0d8c8" fill-opacity="0.95" /><ellipse cx="16.20" cy="16.20" rx="14.73" ry="22.91" fill="#f0d8c8" fill-opacity="0.95" /><ellipse cx="0.00" cy="22.91" rx="14.73" ry="22.91" fill="#f0d8c8" fill-opacity="0.95" /><ellipse cx="-16.20" cy="16.20" rx="14.73" ry="22.91" fill="#f0d8c8" fill-opacity="0.95" /><ellipse cx="-22.91" cy="0.00" rx="14.73" ry="22.91" fill="#f0d8c8" fill-opacity="0.95" /><ellipse cx="-16.20" cy="-16.20" rx="14.73" ry="22.91" fill="#f0d8c8" fill-opacity="0.95" /><ellipse cx="-0.00" cy="-22.91" rx="14.73" ry="22.91" fill="#f0d8c8" fill-opacity="0.95" /><ellipse cx="16.20" cy="-16.20" rx="14.73" ry="22.91" fill="#f0d8c8" fill-opacity="0.95" />
        <circle cx="0" cy="0" r="14.73" fill="#b17ca8" />
        <circle cx="0" cy="0" r="7.36" fill="#fff7f0" fill-opacity="0.72" />
      </g>
    </g>
    
  </g>
  <path d="M0 980 C220 920, 420 1030, 900 930 L900 1100 L0 1100 Z" fill="#ffffff" fill-opacity="0.22" />
</svg>
