<svg xmlns="http://www.w3.org/2000/svg" width="900" height="1100" viewBox="0 0 900 1100">
  <defs>
    <linearGradient id="bg" x1="0" y1="0" x2="0" y2="1">
      <stop offset="0%" stop-color="#f7f0f6" />
      <stop offset="100%" stop-color="#eee9f3" />
    </linearGradient>
    <filter id="shadow" x="-20%" y="-20%" width="140%" height="140%">
      <feDropShadow dx="0" dy="22" stdDeviation="24" flood-color="#6c5d4f" flood-opacity="0.12" />
    </filter>
  </defs>
  <rect width="100%" height="100%" fill="url(#bg)" />
  <circle cx="730" cy="180" r="140" fill="#ffffff" fill-opacity="0.18" />
  <circle cx="150" cy="260" r="90" fill="#ffffff" fill-opacity="0.12" />
  
      <rect x="70" y="72" width="300" height="92" rx="24" fill="#ffffff" fill-opacity="0.34" />
      <text x="98" y="120" fill="#2f3a31" font-size="32" font-family="'PingFang SC','Microsoft YaHei',sans-serif" font-weight="600">珍序摆件</text>
      <text x="98" y="152" fill="#4e6152" font-size="18" font-family="'PingFang SC','Microsoft YaHei',sans-serif">相框花礼 · 送礼</text>
    
  <g filter="url(#shadow)">
    <rect x="180" y="760" width="540" height="250" rx="26" fill="#efe7dd" fill-opacity="0.92" /><rect x="230" y="820" width="440" height="130" rx="22" fill="#f7f1ea" fill-opacity="0.85" />
  </g>
  <g>
    
    <g transform="translate(415.84 515.66) rotate(20.88)">
      <path d="M 0 0 C -8 75.52, 10 125.87, -6 184.61" stroke="#8a967a" stroke-width="10.07" fill="none" stroke-linecap="round" />
      <ellipse cx="-20" cy="92.31" rx="18.46" ry="35.24" fill="#8a967a" fill-opacity="0.75" transform="rotate(-24)" />
      <ellipse cx="28" cy="114.13" rx="16.78" ry="31.89" fill="#8a967a" fill-opacity="0.66" transform="rotate(20)" />
      <g transform="translate(0 0)">
        <ellipse cx="23.50" cy="0.00" rx="15.10" ry="23.50" fill="#e9bfd5" fill-opacity="0.95" /><ellipse cx="16.61" cy="16.61" rx="15.10" ry="23.50" fill="#e9bfd5" fill-opacity="0.95" /><ellipse cx="0.00" cy="23.50" rx="15.10" ry="23.50" fill="#e9bfd5" fill-opacity="0.95" /><ellipse cx="-16.61" cy="16.61" rx="15.10" ry="23.50" fill="#e9bfd5" fill-opacity="0.95" /><ellipse cx="-23.50" cy="0.00" rx="15.10" ry="23.50" fill="#e9bfd5" fill-opacity="0.95" /><ellipse cx="-16.61" cy="-16.61" rx="15.10" ry="23.50" fill="#e9bfd5" fill-opacity="0.95" /><ellipse cx="-0.00" cy="-23.50" rx="15.10" ry="23.50" fill="#e9bfd5" fill-opacity="0.95" /><ellipse cx="16.61" cy="-16.61" rx="15.10" ry="23.50" fill="#e9bfd5" fill-opacity="0.95" />
        <circle cx="0" cy="0" r="15.10" fill="#b17ca8" />
        <circle cx="0" cy="0" r="7.55" fill="#fff7f0" fill-opacity="0.72" />
      </g>
    </g>
    
    <g transform="translate(447.17 411.40) rotate(2.87)">
      <path d="M 0 0 C -8 92.66, 10 154.43, -6 226.50" stroke="#768169" stroke-width="12.35" fill="none" stroke-linecap="round" />
      <ellipse cx="-20" cy="113.25" rx="22.65" ry="43.24" fill="#768169" fill-opacity="0.75" transform="rotate(-24)" />
      <ellipse cx="28" cy="140.02" rx="20.59" ry="39.12" fill="#768169" fill-opacity="0.66" transform="rotate(20)" />
      <g transform="translate(0 0)">
        <ellipse cx="28.83" cy="0.00" rx="18.53" ry="28.83" fill="#cfa8c9" fill-opacity="0.95" /><ellipse cx="20.38" cy="20.38" rx="18.53" ry="28.83" fill="#cfa8c9" fill-opacity="0.95" /><ellipse cx="0.00" cy="28.83" rx="18.53" ry="28.83" fill="#cfa8c9" fill-opacity="0.95" /><ellipse cx="-20.38" cy="20.38" rx="18.53" ry="28.83" fill="#cfa8c9" fill-opacity="0.95" /><ellipse cx="-28.83" cy="0.00" rx="18.53" ry="28.83" fill="#cfa8c9" fill-opacity="0.95" /><ellipse cx="-20.38" cy="-20.38" rx="18.53" ry="28.83" fill="#cfa8c9" fill-opacity="0.95" /><ellipse cx="-0.00" cy="-28.83" rx="18.53" ry="28.83" fill="#cfa8c9" fill-opacity="0.95" /><ellipse cx="20.38" cy="-20.38" rx="18.53" ry="28.83" fill="#cfa8c9" fill-opacity="0.95" />
        <circle cx="0" cy="0" r="18.53" fill="#b17ca8" />
        <circle cx="0" cy="0" r="9.27" fill="#fff7f0" fill-opacity="0.72" />
      </g>
    </g>
    
    <g transform="translate(409.04 441.20) rotate(4.61)">
      <path d="M 0 0 C -8 83.32, 10 138.87, -6 203.68" stroke="#acb39f" stroke-width="11.11" fill="none" stroke-linecap="round" />
      <ellipse cx="-20" cy="101.84" rx="20.37" ry="38.88" fill="#acb39f" fill-opacity="0.75" transform="rotate(-24)" />
      <ellipse cx="28" cy="125.91" rx="18.52" ry="35.18" fill="#acb39f" fill-opacity="0.66" transform="rotate(20)" />
      <g transform="translate(0 0)">
        <ellipse cx="25.92" cy="0.00" rx="16.66" ry="25.92" fill="#f0d8c8" fill-opacity="0.95" /><ellipse cx="18.33" cy="18.33" rx="16.66" ry="25.92" fill="#f0d8c8" fill-opacity="0.95" /><ellipse cx="0.00" cy="25.92" rx="16.66" ry="25.92" fill="#f0d8c8" fill-opacity="0.95" /><ellipse cx="-18.33" cy="18.33" rx="16.66" ry="25.92" fill="#f0d8c8" fill-opacity="0.95" /><ellipse cx="-25.92" cy="0.00" rx="16.66" ry="25.92" fill="#f0d8c8" fill-opacity="0.95" /><ellipse cx="-18.33" cy="-18.33" rx="16.66" ry="25.92" fill="#f0d8c8" fill-opacity="0.95" /><ellipse cx="-0.00" cy="-25.92" rx="16.66" ry="25.92" fill="#f0d8c8" fill-opacity="0.95" /><ellipse cx="18.33" cy="-18.33" rx="16.66" ry="25.92" fill="#f0d8c8" fill-opacity="0.95" />
        <circle cx="0" cy="0" r="16.66" fill="#b17ca8" />
        <circle cx="0" cy="0" r="8.33" fill="#fff7f0" fill-opacity="0.72" />
      </g>
    </g>
    
    <g transform="translate(570.96 489.68) rotate(-4.68)">
      <path d="M 0 0 C -8 86.36, 10 143.94, -6 211.11" stroke="#8a967a" stroke-width="11.51" fill="none" stroke-linecap="round" />
      <ellipse cx="-20" cy="105.55" rx="21.11" ry="40.30" fill="#8a967a" fill-opacity="0.75" transform="rotate(-24)" />
      <ellipse cx="28" cy="130.50" rx="19.19" ry="36.46" fill="#8a967a" fill-opacity="0.66" transform="rotate(20)" />
      <g transform="translate(0 0)">
        <ellipse cx="26.87" cy="0.00" rx="17.27" ry="26.87" fill="#e9e4ef" fill-opacity="0.95" /><ellipse cx="19.00" cy="19.00" rx="17.27" ry="26.87" fill="#e9e4ef" fill-opacity="0.95" /><ellipse cx="0.00" cy="26.87" rx="17.27" ry="26.87" fill="#e9e4ef" fill-opacity="0.95" /><ellipse cx="-19.00" cy="19.00" rx="17.27" ry="26.87" fill="#e9e4ef" fill-opacity="0.95" /><ellipse cx="-26.87" cy="0.00" rx="17.27" ry="26.87" fill="#e9e4ef" fill-opacity="0.95" /><ellipse cx="-19.00" cy="-19.00" rx="17.27" ry="26.87" fill="#e9e4ef" fill-opacity="0.95" /><ellipse cx="-0.00" cy="-26.87" rx="17.27" ry="26.87" fill="#e9e4ef" fill-opacity="0.95" /><ellipse cx="19.00" cy="-19.00" rx="17.27" ry="26.87" fill="#e9e4ef" fill-opacity="0.95" />
        <circle cx="0" cy="0" r="17.27" fill="#b17ca8" />
        <circle cx="0" cy="0" r="8.64" fill="#fff7f0" fill-opacity="0.72" />
      </g>
    </g>
    
    <g transform="translate(548.61 334.62) rotate(-24.52)">
      <path d="M 0 0 C -8 77.61, 10 129.35, -6 189.71" stroke="#768169" stroke-width="10.35" fill="none" stroke-linecap="round" />
      <ellipse cx="-20" cy="94.85" rx="18.97" ry="36.22" fill="#768169" fill-opacity="0.75" transform="rotate(-24)" />
      <ellipse cx="28" cy="117.27" rx="17.25" ry="32.77" fill="#768169" fill-opacity="0.66" transform="rotate(20)" />
      <g transform="translate(0 0)">
        <ellipse cx="24.14" cy="0.00" rx="15.52" ry="24.14" fill="#e9bfd5" fill-opacity="0.95" /><ellipse cx="17.07" cy="17.07" rx="15.52" ry="24.14" fill="#e9bfd5" fill-opacity="0.95" /><ellipse cx="0.00" cy="24.14" rx="15.52" ry="24.14" fill="#e9bfd5" fill-opacity="0.95" /><ellipse cx="-17.07" cy="17.07" rx="15.52" ry="24.14" fill="#e9bfd5" fill-opacity="0.95" /><ellipse cx="-24.14" cy="0.00" rx="15.52" ry="24.14" fill="#e9bfd5" fill-opacity="0.95" /><ellipse cx="-17.07" cy="-17.07" rx="15.52" ry="24.14" fill="#e9bfd5" fill-opacity="0.95" /><ellipse cx="-0.00" cy="-24.14" rx="15.52" ry="24.14" fill="#e9bfd5" fill-opacity="0.95" /><ellipse cx="17.07" cy="-17.07" rx="15.52" ry="24.14" fill="#e9bfd5" fill-opacity="0.95" />
        <circle cx="0" cy="0" r="15.52" fill="#b17ca8" />
        <circle cx="0" cy="0" r="7.76" fill="#fff7f0" fill-opacity="0.72" />
      </g>
    </g>
    
    <g transform="translate(244.84 380.17) rotate(4.04)">
      <path d="M 0 0 C -8 77.87, 10 129.78, -6 190.35" stroke="#acb39f" stroke-width="10.38" fill="none" stroke-linecap="round" />
      <ellipse cx="-20" cy="95.17" rx="19.03" ry="36.34" fill="#acb39f" fill-opacity="0.75" transform="rotate(-24)" />
      <ellipse cx="28" cy="117.67" rx="17.30" ry="32.88" fill="#acb39f" fill-opacity="0.66" transform="rotate(20)" />
      <g transform="translate(0 0)">
        <ellipse cx="24.23" cy="0.00" rx="15.57" ry="24.23" fill="#cfa8c9" fill-opacity="0.95" /><ellipse cx="17.13" cy="17.13" rx="15.57" ry="24.23" fill="#cfa8c9" fill-opacity="0.95" /><ellipse cx="0.00" cy="24.23" rx="15.57" ry="24.23" fill="#cfa8c9" fill-opacity="0.95" /><ellipse cx="-17.13" cy="17.13" rx="15.57" ry="24.23" fill="#cfa8c9" fill-opacity="0.95" /><ellipse cx="-24.23" cy="0.00" rx="15.57" ry="24.23" fill="#cfa8c9" fill-opacity="0.95" /><ellipse cx="-17.13" cy="-17.13" rx="15.57" ry="24.23" fill="#cfa8c9" fill-opacity="0.95" /><ellipse cx="-0.00" cy="-24.23" rx="15.57" ry="24.23" fill="#cfa8c9" fill-opacity="0.95" /><ellipse cx="17.13" cy="-17.13" rx="15.57" ry="24.23" fill="#cfa8c9" fill-opacity="0.95" />
        <circle cx="0" cy="0" r="15.57" fill="#b17ca8" />
        <circle cx="0" cy="0" r="7.79" fill="#fff7f0" fill-opacity="0.72" />
      </g>
    </g>
    
    <g transform="translate(363.88 376.58) rotate(2.93)">
      <path d="M 0 0 C -8 104.67, 10 174.44, -6 255.85" stroke="#8a967a" stroke-width="13.96" fill="none" stroke-linecap="round" />
      <ellipse cx="-20" cy="127.93" rx="25.59" ry="48.84" fill="#8a967a" fill-opacity="0.75" transform="rotate(-24)" />
      <ellipse cx="28" cy="158.16" rx="23.26" ry="44.19" fill="#8a967a" fill-opacity="0.66" transform="rotate(20)" />
      <g transform="translate(0 0)">
        <ellipse cx="32.56" cy="0.00" rx="20.93" ry="32.56" fill="#f0d8c8" fill-opacity="0.95" /><ellipse cx="23.03" cy="23.03" rx="20.93" ry="32.56" fill="#f0d8c8" fill-opacity="0.95" /><ellipse cx="0.00" cy="32.56" rx="20.93" ry="32.56" fill="#f0d8c8" fill-opacity="0.95" /><ellipse cx="-23.03" cy="23.03" rx="20.93" ry="32.56" fill="#f0d8c8" fill-opacity="0.95" /><ellipse cx="-32.56" cy="0.00" rx="20.93" ry="32.56" fill="#f0d8c8" fill-opacity="0.95" /><ellipse cx="-23.03" cy="-23.03" rx="20.93" ry="32.56" fill="#f0d8c8" fill-opacity="0.95" /><ellipse cx="-0.00" cy="-32.56" rx="20.93" ry="32.56" fill="#f0d8c8" fill-opacity="0.95" /><ellipse cx="23.03" cy="-23.03" rx="20.93" ry="32.56" fill="#f0d8c8" fill-opacity="0.95" />
        <circle cx="0" cy="0" r="20.93" fill="#b17ca8" />
        <circle cx="0" cy="0" r="10.47" fill="#fff7f0" fill-opacity="0.72" />
      </g>
    </g>
    
  </g>
  <path d="M0 980 C220 920, 420 1030, 900 930 L900 1100 L0 1100 Z" fill="#ffffff" fill-opacity="0.22" />
</svg>
