<svg xmlns="http://www.w3.org/2000/svg" width="900" height="1100" viewBox="0 0 900 1100">
  <defs>
    <linearGradient id="bg" x1="0" y1="0" x2="0" y2="1">
      <stop offset="0%" stop-color="#f5f8ef" />
      <stop offset="100%" stop-color="#eef3eb" />
    </linearGradient>
    <filter id="shadow" x="-20%" y="-20%" width="140%" height="140%">
      <feDropShadow dx="0" dy="22" stdDeviation="24" flood-color="#6c5d4f" flood-opacity="0.12" />
    </filter>
  </defs>
  <rect width="100%" height="100%" fill="url(#bg)" />
  <circle cx="730" cy="180" r="140" fill="#ffffff" fill-opacity="0.18" />
  <circle cx="150" cy="260" r="90" fill="#ffffff" fill-opacity="0.12" />
  
      <rect x="70" y="72" width="300" height="92" rx="24" fill="#ffffff" fill-opacity="0.34" />
      <text x="98" y="120" fill="#2f3a31" font-size="32" font-family="'PingFang SC','Microsoft YaHei',sans-serif" font-weight="600">清明晨露</text>
      <text x="98" y="152" fill="#4e6152" font-size="18" font-family="'PingFang SC','Microsoft YaHei',sans-serif">节令花束 · 居家</text>
    
  <g filter="url(#shadow)">
    <path d="M250 780 L650 780 L730 1080 L170 1080 Z" fill="#ece2d6" fill-opacity="0.88" />
  </g>
  <g>
    
    <g transform="translate(661.05 323.91) rotate(-14.99)">
      <path d="M 0 0 C -8 101.28, 10 168.80, -6 247.58" stroke="#7f9d76" stroke-width="13.50" fill="none" stroke-linecap="round" />
      <ellipse cx="-20" cy="123.79" rx="24.76" ry="47.26" fill="#7f9d76" fill-opacity="0.75" transform="rotate(-24)" />
      <ellipse cx="28" cy="153.05" rx="22.51" ry="42.76" fill="#7f9d76" fill-opacity="0.66" transform="rotate(20)" />
      <g transform="translate(0 0)">
        <ellipse cx="31.51" cy="0.00" rx="20.26" ry="31.51" fill="#f4d77e" fill-opacity="0.95" /><ellipse cx="22.28" cy="22.28" rx="20.26" ry="31.51" fill="#f4d77e" fill-opacity="0.95" /><ellipse cx="0.00" cy="31.51" rx="20.26" ry="31.51" fill="#f4d77e" fill-opacity="0.95" /><ellipse cx="-22.28" cy="22.28" rx="20.26" ry="31.51" fill="#f4d77e" fill-opacity="0.95" /><ellipse cx="-31.51" cy="0.00" rx="20.26" ry="31.51" fill="#f4d77e" fill-opacity="0.95" /><ellipse cx="-22.28" cy="-22.28" rx="20.26" ry="31.51" fill="#f4d77e" fill-opacity="0.95" /><ellipse cx="-0.00" cy="-31.51" rx="20.26" ry="31.51" fill="#f4d77e" fill-opacity="0.95" /><ellipse cx="22.28" cy="-22.28" rx="20.26" ry="31.51" fill="#f4d77e" fill-opacity="0.95" />
        <circle cx="0" cy="0" r="20.26" fill="#d89263" />
        <circle cx="0" cy="0" r="10.13" fill="#fff7f0" fill-opacity="0.72" />
      </g>
    </g>
    
    <g transform="translate(512.17 381.32) rotate(10.60)">
      <path d="M 0 0 C -8 86.85, 10 144.75, -6 212.30" stroke="#62855f" stroke-width="11.58" fill="none" stroke-linecap="round" />
      <ellipse cx="-20" cy="106.15" rx="21.23" ry="40.53" fill="#62855f" fill-opacity="0.75" transform="rotate(-24)" />
      <ellipse cx="28" cy="131.24" rx="19.30" ry="36.67" fill="#62855f" fill-opacity="0.66" transform="rotate(20)" />
      <g transform="translate(0 0)">
        <ellipse cx="27.02" cy="0.00" rx="17.37" ry="27.02" fill="#d6b06e" fill-opacity="0.95" /><ellipse cx="19.11" cy="19.11" rx="17.37" ry="27.02" fill="#d6b06e" fill-opacity="0.95" /><ellipse cx="0.00" cy="27.02" rx="17.37" ry="27.02" fill="#d6b06e" fill-opacity="0.95" /><ellipse cx="-19.11" cy="19.11" rx="17.37" ry="27.02" fill="#d6b06e" fill-opacity="0.95" /><ellipse cx="-27.02" cy="0.00" rx="17.37" ry="27.02" fill="#d6b06e" fill-opacity="0.95" /><ellipse cx="-19.11" cy="-19.11" rx="17.37" ry="27.02" fill="#d6b06e" fill-opacity="0.95" /><ellipse cx="-0.00" cy="-27.02" rx="17.37" ry="27.02" fill="#d6b06e" fill-opacity="0.95" /><ellipse cx="19.11" cy="-19.11" rx="17.37" ry="27.02" fill="#d6b06e" fill-opacity="0.95" />
        <circle cx="0" cy="0" r="17.37" fill="#d89263" />
        <circle cx="0" cy="0" r="8.68" fill="#fff7f0" fill-opacity="0.72" />
      </g>
    </g>
    
    <g transform="translate(275.83 437.91) rotate(-24.29)">
      <path d="M 0 0 C -8 107.13, 10 178.54, -6 261.86" stroke="#a4bc95" stroke-width="14.28" fill="none" stroke-linecap="round" />
      <ellipse cx="-20" cy="130.93" rx="26.19" ry="49.99" fill="#a4bc95" fill-opacity="0.75" transform="rotate(-24)" />
      <ellipse cx="28" cy="161.88" rx="23.81" ry="45.23" fill="#a4bc95" fill-opacity="0.66" transform="rotate(20)" />
      <g transform="translate(0 0)">
        <ellipse cx="33.33" cy="0.00" rx="21.43" ry="33.33" fill="#bcd9d1" fill-opacity="0.95" /><ellipse cx="23.57" cy="23.57" rx="21.43" ry="33.33" fill="#bcd9d1" fill-opacity="0.95" /><ellipse cx="0.00" cy="33.33" rx="21.43" ry="33.33" fill="#bcd9d1" fill-opacity="0.95" /><ellipse cx="-23.57" cy="23.57" rx="21.43" ry="33.33" fill="#bcd9d1" fill-opacity="0.95" /><ellipse cx="-33.33" cy="0.00" rx="21.43" ry="33.33" fill="#bcd9d1" fill-opacity="0.95" /><ellipse cx="-23.57" cy="-23.57" rx="21.43" ry="33.33" fill="#bcd9d1" fill-opacity="0.95" /><ellipse cx="-0.00" cy="-33.33" rx="21.43" ry="33.33" fill="#bcd9d1" fill-opacity="0.95" /><ellipse cx="23.57" cy="-23.57" rx="21.43" ry="33.33" fill="#bcd9d1" fill-opacity="0.95" />
        <circle cx="0" cy="0" r="21.43" fill="#d89263" />
        <circle cx="0" cy="0" r="10.71" fill="#fff7f0" fill-opacity="0.72" />
      </g>
    </g>
    
    <g transform="translate(673.45 345.35) rotate(22.78)">
      <path d="M 0 0 C -8 91.40, 10 152.34, -6 223.43" stroke="#7f9d76" stroke-width="12.19" fill="none" stroke-linecap="round" />
      <ellipse cx="-20" cy="111.71" rx="22.34" ry="42.65" fill="#7f9d76" fill-opacity="0.75" transform="rotate(-24)" />
      <ellipse cx="28" cy="138.12" rx="20.31" ry="38.59" fill="#7f9d76" fill-opacity="0.66" transform="rotate(20)" />
      <g transform="translate(0 0)">
        <ellipse cx="28.44" cy="0.00" rx="18.28" ry="28.44" fill="#c47b56" fill-opacity="0.95" /><ellipse cx="20.11" cy="20.11" rx="18.28" ry="28.44" fill="#c47b56" fill-opacity="0.95" /><ellipse cx="0.00" cy="28.44" rx="18.28" ry="28.44" fill="#c47b56" fill-opacity="0.95" /><ellipse cx="-20.11" cy="20.11" rx="18.28" ry="28.44" fill="#c47b56" fill-opacity="0.95" /><ellipse cx="-28.44" cy="0.00" rx="18.28" ry="28.44" fill="#c47b56" fill-opacity="0.95" /><ellipse cx="-20.11" cy="-20.11" rx="18.28" ry="28.44" fill="#c47b56" fill-opacity="0.95" /><ellipse cx="-0.00" cy="-28.44" rx="18.28" ry="28.44" fill="#c47b56" fill-opacity="0.95" /><ellipse cx="20.11" cy="-20.11" rx="18.28" ry="28.44" fill="#c47b56" fill-opacity="0.95" />
        <circle cx="0" cy="0" r="18.28" fill="#d89263" />
        <circle cx="0" cy="0" r="9.14" fill="#fff7f0" fill-opacity="0.72" />
      </g>
    </g>
    
    <g transform="translate(579.32 322.87) rotate(18.16)">
      <path d="M 0 0 C -8 83.53, 10 139.22, -6 204.19" stroke="#62855f" stroke-width="11.14" fill="none" stroke-linecap="round" />
      <ellipse cx="-20" cy="102.09" rx="20.42" ry="38.98" fill="#62855f" fill-opacity="0.75" transform="rotate(-24)" />
      <ellipse cx="28" cy="126.22" rx="18.56" ry="35.27" fill="#62855f" fill-opacity="0.66" transform="rotate(20)" />
      <g transform="translate(0 0)">
        <ellipse cx="25.99" cy="0.00" rx="16.71" ry="25.99" fill="#f4d77e" fill-opacity="0.95" /><ellipse cx="18.38" cy="18.38" rx="16.71" ry="25.99" fill="#f4d77e" fill-opacity="0.95" /><ellipse cx="0.00" cy="25.99" rx="16.71" ry="25.99" fill="#f4d77e" fill-opacity="0.95" /><ellipse cx="-18.38" cy="18.38" rx="16.71" ry="25.99" fill="#f4d77e" fill-opacity="0.95" /><ellipse cx="-25.99" cy="0.00" rx="16.71" ry="25.99" fill="#f4d77e" fill-opacity="0.95" /><ellipse cx="-18.38" cy="-18.38" rx="16.71" ry="25.99" fill="#f4d77e" fill-opacity="0.95" /><ellipse cx="-0.00" cy="-25.99" rx="16.71" ry="25.99" fill="#f4d77e" fill-opacity="0.95" /><ellipse cx="18.38" cy="-18.38" rx="16.71" ry="25.99" fill="#f4d77e" fill-opacity="0.95" />
        <circle cx="0" cy="0" r="16.71" fill="#d89263" />
        <circle cx="0" cy="0" r="8.35" fill="#fff7f0" fill-opacity="0.72" />
      </g>
    </g>
    
    <g transform="translate(702.40 369.61) rotate(-11.50)">
      <path d="M 0 0 C -8 73.89, 10 123.16, -6 180.63" stroke="#a4bc95" stroke-width="9.85" fill="none" stroke-linecap="round" />
      <ellipse cx="-20" cy="90.32" rx="18.06" ry="34.48" fill="#a4bc95" fill-opacity="0.75" transform="rotate(-24)" />
      <ellipse cx="28" cy="111.66" rx="16.42" ry="31.20" fill="#a4bc95" fill-opacity="0.66" transform="rotate(20)" />
      <g transform="translate(0 0)">
        <ellipse cx="22.99" cy="0.00" rx="14.78" ry="22.99" fill="#d6b06e" fill-opacity="0.95" /><ellipse cx="16.26" cy="16.26" rx="14.78" ry="22.99" fill="#d6b06e" fill-opacity="0.95" /><ellipse cx="0.00" cy="22.99" rx="14.78" ry="22.99" fill="#d6b06e" fill-opacity="0.95" /><ellipse cx="-16.26" cy="16.26" rx="14.78" ry="22.99" fill="#d6b06e" fill-opacity="0.95" /><ellipse cx="-22.99" cy="0.00" rx="14.78" ry="22.99" fill="#d6b06e" fill-opacity="0.95" /><ellipse cx="-16.26" cy="-16.26" rx="14.78" ry="22.99" fill="#d6b06e" fill-opacity="0.95" /><ellipse cx="-0.00" cy="-22.99" rx="14.78" ry="22.99" fill="#d6b06e" fill-opacity="0.95" /><ellipse cx="16.26" cy="-16.26" rx="14.78" ry="22.99" fill="#d6b06e" fill-opacity="0.95" />
        <circle cx="0" cy="0" r="14.78" fill="#d89263" />
        <circle cx="0" cy="0" r="7.39" fill="#fff7f0" fill-opacity="0.72" />
      </g>
    </g>
    
    <g transform="translate(483.76 544.55) rotate(2.31)">
      <path d="M 0 0 C -8 105.84, 10 176.40, -6 258.71" stroke="#7f9d76" stroke-width="14.11" fill="none" stroke-linecap="round" />
      <ellipse cx="-20" cy="129.36" rx="25.87" ry="49.39" fill="#7f9d76" fill-opacity="0.75" transform="rotate(-24)" />
      <ellipse cx="28" cy="159.93" rx="23.52" ry="44.69" fill="#7f9d76" fill-opacity="0.66" transform="rotate(20)" />
      <g transform="translate(0 0)">
        <ellipse cx="32.93" cy="0.00" rx="21.17" ry="32.93" fill="#bcd9d1" fill-opacity="0.95" /><ellipse cx="23.28" cy="23.28" rx="21.17" ry="32.93" fill="#bcd9d1" fill-opacity="0.95" /><ellipse cx="0.00" cy="32.93" rx="21.17" ry="32.93" fill="#bcd9d1" fill-opacity="0.95" /><ellipse cx="-23.28" cy="23.28" rx="21.17" ry="32.93" fill="#bcd9d1" fill-opacity="0.95" /><ellipse cx="-32.93" cy="0.00" rx="21.17" ry="32.93" fill="#bcd9d1" fill-opacity="0.95" /><ellipse cx="-23.28" cy="-23.28" rx="21.17" ry="32.93" fill="#bcd9d1" fill-opacity="0.95" /><ellipse cx="-0.00" cy="-32.93" rx="21.17" ry="32.93" fill="#bcd9d1" fill-opacity="0.95" /><ellipse cx="23.28" cy="-23.28" rx="21.17" ry="32.93" fill="#bcd9d1" fill-opacity="0.95" />
        <circle cx="0" cy="0" r="21.17" fill="#d89263" />
        <circle cx="0" cy="0" r="10.58" fill="#fff7f0" fill-opacity="0.72" />
      </g>
    </g>
    
  </g>
  <path d="M0 980 C220 920, 420 1030, 900 930 L900 1100 L0 1100 Z" fill="#ffffff" fill-opacity="0.22" />
</svg>
