<svg xmlns="http://www.w3.org/2000/svg" width="900" height="1100" viewBox="0 0 900 1100">
  <defs>
    <linearGradient id="bg" x1="0" y1="0" x2="0" y2="1">
      <stop offset="0%" stop-color="#f5f8ef" />
      <stop offset="100%" stop-color="#eef3eb" />
    </linearGradient>
    <filter id="shadow" x="-20%" y="-20%" width="140%" height="140%">
      <feDropShadow dx="0" dy="22" stdDeviation="24" flood-color="#6c5d4f" flood-opacity="0.12" />
    </filter>
  </defs>
  <rect width="100%" height="100%" fill="url(#bg)" />
  <circle cx="730" cy="180" r="140" fill="#ffffff" fill-opacity="0.18" />
  <circle cx="150" cy="260" r="90" fill="#ffffff" fill-opacity="0.12" />
  
      <rect x="70" y="72" width="300" height="92" rx="24" fill="#ffffff" fill-opacity="0.34" />
      <text x="98" y="120" fill="#2f3a31" font-size="32" font-family="'PingFang SC','Microsoft YaHei',sans-serif" font-weight="600">霜降留白</text>
      <text x="98" y="152" fill="#4e6152" font-size="18" font-family="'PingFang SC','Microsoft YaHei',sans-serif">秋冬 · 暖调</text>
    
  <g filter="url(#shadow)">
    <path d="M250 780 L650 780 L730 1080 L170 1080 Z" fill="#ece2d6" fill-opacity="0.88" />
  </g>
  <g>
    
    <g transform="translate(474.65 364.66) rotate(11.97)">
      <path d="M 0 0 C -8 72.22, 10 120.37, -6 176.55" stroke="#7f9d76" stroke-width="9.63" fill="none" stroke-linecap="round" />
      <ellipse cx="-20" cy="88.27" rx="17.65" ry="33.70" fill="#7f9d76" fill-opacity="0.75" transform="rotate(-24)" />
      <ellipse cx="28" cy="109.14" rx="16.05" ry="30.49" fill="#7f9d76" fill-opacity="0.66" transform="rotate(20)" />
      <g transform="translate(0 0)">
        <ellipse cx="22.47" cy="0.00" rx="14.44" ry="22.47" fill="#f4d77e" fill-opacity="0.95" /><ellipse cx="15.89" cy="15.89" rx="14.44" ry="22.47" fill="#f4d77e" fill-opacity="0.95" /><ellipse cx="0.00" cy="22.47" rx="14.44" ry="22.47" fill="#f4d77e" fill-opacity="0.95" /><ellipse cx="-15.89" cy="15.89" rx="14.44" ry="22.47" fill="#f4d77e" fill-opacity="0.95" /><ellipse cx="-22.47" cy="0.00" rx="14.44" ry="22.47" fill="#f4d77e" fill-opacity="0.95" /><ellipse cx="-15.89" cy="-15.89" rx="14.44" ry="22.47" fill="#f4d77e" fill-opacity="0.95" /><ellipse cx="-0.00" cy="-22.47" rx="14.44" ry="22.47" fill="#f4d77e" fill-opacity="0.95" /><ellipse cx="15.89" cy="-15.89" rx="14.44" ry="22.47" fill="#f4d77e" fill-opacity="0.95" />
        <circle cx="0" cy="0" r="14.44" fill="#d89263" />
        <circle cx="0" cy="0" r="7.22" fill="#fff7f0" fill-opacity="0.72" />
      </g>
    </g>
    
    <g transform="translate(268.65 455.76) rotate(18.91)">
      <path d="M 0 0 C -8 84.70, 10 141.16, -6 207.03" stroke="#62855f" stroke-width="11.29" fill="none" stroke-linecap="round" />
      <ellipse cx="-20" cy="103.52" rx="20.70" ry="39.52" fill="#62855f" fill-opacity="0.75" transform="rotate(-24)" />
      <ellipse cx="28" cy="127.98" rx="18.82" ry="35.76" fill="#62855f" fill-opacity="0.66" transform="rotate(20)" />
      <g transform="translate(0 0)">
        <ellipse cx="26.35" cy="0.00" rx="16.94" ry="26.35" fill="#d6b06e" fill-opacity="0.95" /><ellipse cx="18.63" cy="18.63" rx="16.94" ry="26.35" fill="#d6b06e" fill-opacity="0.95" /><ellipse cx="0.00" cy="26.35" rx="16.94" ry="26.35" fill="#d6b06e" fill-opacity="0.95" /><ellipse cx="-18.63" cy="18.63" rx="16.94" ry="26.35" fill="#d6b06e" fill-opacity="0.95" /><ellipse cx="-26.35" cy="0.00" rx="16.94" ry="26.35" fill="#d6b06e" fill-opacity="0.95" /><ellipse cx="-18.63" cy="-18.63" rx="16.94" ry="26.35" fill="#d6b06e" fill-opacity="0.95" /><ellipse cx="-0.00" cy="-26.35" rx="16.94" ry="26.35" fill="#d6b06e" fill-opacity="0.95" /><ellipse cx="18.63" cy="-18.63" rx="16.94" ry="26.35" fill="#d6b06e" fill-opacity="0.95" />
        <circle cx="0" cy="0" r="16.94" fill="#d89263" />
        <circle cx="0" cy="0" r="8.47" fill="#fff7f0" fill-opacity="0.72" />
      </g>
    </g>
    
    <g transform="translate(659.86 470.43) rotate(-10.80)">
      <path d="M 0 0 C -8 88.73, 10 147.88, -6 216.89" stroke="#a4bc95" stroke-width="11.83" fill="none" stroke-linecap="round" />
      <ellipse cx="-20" cy="108.44" rx="21.69" ry="41.41" fill="#a4bc95" fill-opacity="0.75" transform="rotate(-24)" />
      <ellipse cx="28" cy="134.07" rx="19.72" ry="37.46" fill="#a4bc95" fill-opacity="0.66" transform="rotate(20)" />
      <g transform="translate(0 0)">
        <ellipse cx="27.60" cy="0.00" rx="17.75" ry="27.60" fill="#bcd9d1" fill-opacity="0.95" /><ellipse cx="19.52" cy="19.52" rx="17.75" ry="27.60" fill="#bcd9d1" fill-opacity="0.95" /><ellipse cx="0.00" cy="27.60" rx="17.75" ry="27.60" fill="#bcd9d1" fill-opacity="0.95" /><ellipse cx="-19.52" cy="19.52" rx="17.75" ry="27.60" fill="#bcd9d1" fill-opacity="0.95" /><ellipse cx="-27.60" cy="0.00" rx="17.75" ry="27.60" fill="#bcd9d1" fill-opacity="0.95" /><ellipse cx="-19.52" cy="-19.52" rx="17.75" ry="27.60" fill="#bcd9d1" fill-opacity="0.95" /><ellipse cx="-0.00" cy="-27.60" rx="17.75" ry="27.60" fill="#bcd9d1" fill-opacity="0.95" /><ellipse cx="19.52" cy="-19.52" rx="17.75" ry="27.60" fill="#bcd9d1" fill-opacity="0.95" />
        <circle cx="0" cy="0" r="17.75" fill="#d89263" />
        <circle cx="0" cy="0" r="8.87" fill="#fff7f0" fill-opacity="0.72" />
      </g>
    </g>
    
    <g transform="translate(221.42 421.73) rotate(-4.49)">
      <path d="M 0 0 C -8 96.24, 10 160.41, -6 235.26" stroke="#7f9d76" stroke-width="12.83" fill="none" stroke-linecap="round" />
      <ellipse cx="-20" cy="117.63" rx="23.53" ry="44.91" fill="#7f9d76" fill-opacity="0.75" transform="rotate(-24)" />
      <ellipse cx="28" cy="145.43" rx="21.39" ry="40.64" fill="#7f9d76" fill-opacity="0.66" transform="rotate(20)" />
      <g transform="translate(0 0)">
        <ellipse cx="29.94" cy="0.00" rx="19.25" ry="29.94" fill="#c47b56" fill-opacity="0.95" /><ellipse cx="21.17" cy="21.17" rx="19.25" ry="29.94" fill="#c47b56" fill-opacity="0.95" /><ellipse cx="0.00" cy="29.94" rx="19.25" ry="29.94" fill="#c47b56" fill-opacity="0.95" /><ellipse cx="-21.17" cy="21.17" rx="19.25" ry="29.94" fill="#c47b56" fill-opacity="0.95" /><ellipse cx="-29.94" cy="0.00" rx="19.25" ry="29.94" fill="#c47b56" fill-opacity="0.95" /><ellipse cx="-21.17" cy="-21.17" rx="19.25" ry="29.94" fill="#c47b56" fill-opacity="0.95" /><ellipse cx="-0.00" cy="-29.94" rx="19.25" ry="29.94" fill="#c47b56" fill-opacity="0.95" /><ellipse cx="21.17" cy="-21.17" rx="19.25" ry="29.94" fill="#c47b56" fill-opacity="0.95" />
        <circle cx="0" cy="0" r="19.25" fill="#d89263" />
        <circle cx="0" cy="0" r="9.62" fill="#fff7f0" fill-opacity="0.72" />
      </g>
    </g>
    
    <g transform="translate(330.61 410.64) rotate(7.70)">
      <path d="M 0 0 C -8 79.19, 10 131.98, -6 193.58" stroke="#62855f" stroke-width="10.56" fill="none" stroke-linecap="round" />
      <ellipse cx="-20" cy="96.79" rx="19.36" ry="36.96" fill="#62855f" fill-opacity="0.75" transform="rotate(-24)" />
      <ellipse cx="28" cy="119.67" rx="17.60" ry="33.44" fill="#62855f" fill-opacity="0.66" transform="rotate(20)" />
      <g transform="translate(0 0)">
        <ellipse cx="24.64" cy="0.00" rx="15.84" ry="24.64" fill="#f4d77e" fill-opacity="0.95" /><ellipse cx="17.42" cy="17.42" rx="15.84" ry="24.64" fill="#f4d77e" fill-opacity="0.95" /><ellipse cx="0.00" cy="24.64" rx="15.84" ry="24.64" fill="#f4d77e" fill-opacity="0.95" /><ellipse cx="-17.42" cy="17.42" rx="15.84" ry="24.64" fill="#f4d77e" fill-opacity="0.95" /><ellipse cx="-24.64" cy="0.00" rx="15.84" ry="24.64" fill="#f4d77e" fill-opacity="0.95" /><ellipse cx="-17.42" cy="-17.42" rx="15.84" ry="24.64" fill="#f4d77e" fill-opacity="0.95" /><ellipse cx="-0.00" cy="-24.64" rx="15.84" ry="24.64" fill="#f4d77e" fill-opacity="0.95" /><ellipse cx="17.42" cy="-17.42" rx="15.84" ry="24.64" fill="#f4d77e" fill-opacity="0.95" />
        <circle cx="0" cy="0" r="15.84" fill="#d89263" />
        <circle cx="0" cy="0" r="7.92" fill="#fff7f0" fill-opacity="0.72" />
      </g>
    </g>
    
    <g transform="translate(570.31 423.15) rotate(-4.90)">
      <path d="M 0 0 C -8 106.52, 10 177.54, -6 260.39" stroke="#a4bc95" stroke-width="14.20" fill="none" stroke-linecap="round" />
      <ellipse cx="-20" cy="130.19" rx="26.04" ry="49.71" fill="#a4bc95" fill-opacity="0.75" transform="rotate(-24)" />
      <ellipse cx="28" cy="160.97" rx="23.67" ry="44.98" fill="#a4bc95" fill-opacity="0.66" transform="rotate(20)" />
      <g transform="translate(0 0)">
        <ellipse cx="33.14" cy="0.00" rx="21.30" ry="33.14" fill="#d6b06e" fill-opacity="0.95" /><ellipse cx="23.43" cy="23.43" rx="21.30" ry="33.14" fill="#d6b06e" fill-opacity="0.95" /><ellipse cx="0.00" cy="33.14" rx="21.30" ry="33.14" fill="#d6b06e" fill-opacity="0.95" /><ellipse cx="-23.43" cy="23.43" rx="21.30" ry="33.14" fill="#d6b06e" fill-opacity="0.95" /><ellipse cx="-33.14" cy="0.00" rx="21.30" ry="33.14" fill="#d6b06e" fill-opacity="0.95" /><ellipse cx="-23.43" cy="-23.43" rx="21.30" ry="33.14" fill="#d6b06e" fill-opacity="0.95" /><ellipse cx="-0.00" cy="-33.14" rx="21.30" ry="33.14" fill="#d6b06e" fill-opacity="0.95" /><ellipse cx="23.43" cy="-23.43" rx="21.30" ry="33.14" fill="#d6b06e" fill-opacity="0.95" />
        <circle cx="0" cy="0" r="21.30" fill="#d89263" />
        <circle cx="0" cy="0" r="10.65" fill="#fff7f0" fill-opacity="0.72" />
      </g>
    </g>
    
    <g transform="translate(287.46 291.38) rotate(14.57)">
      <path d="M 0 0 C -8 99.66, 10 166.09, -6 243.61" stroke="#7f9d76" stroke-width="13.29" fill="none" stroke-linecap="round" />
      <ellipse cx="-20" cy="121.80" rx="24.36" ry="46.51" fill="#7f9d76" fill-opacity="0.75" transform="rotate(-24)" />
      <ellipse cx="28" cy="150.59" rx="22.15" ry="42.08" fill="#7f9d76" fill-opacity="0.66" transform="rotate(20)" />
      <g transform="translate(0 0)">
        <ellipse cx="31.00" cy="0.00" rx="19.93" ry="31.00" fill="#bcd9d1" fill-opacity="0.95" /><ellipse cx="21.92" cy="21.92" rx="19.93" ry="31.00" fill="#bcd9d1" fill-opacity="0.95" /><ellipse cx="0.00" cy="31.00" rx="19.93" ry="31.00" fill="#bcd9d1" fill-opacity="0.95" /><ellipse cx="-21.92" cy="21.92" rx="19.93" ry="31.00" fill="#bcd9d1" fill-opacity="0.95" /><ellipse cx="-31.00" cy="0.00" rx="19.93" ry="31.00" fill="#bcd9d1" fill-opacity="0.95" /><ellipse cx="-21.92" cy="-21.92" rx="19.93" ry="31.00" fill="#bcd9d1" fill-opacity="0.95" /><ellipse cx="-0.00" cy="-31.00" rx="19.93" ry="31.00" fill="#bcd9d1" fill-opacity="0.95" /><ellipse cx="21.92" cy="-21.92" rx="19.93" ry="31.00" fill="#bcd9d1" fill-opacity="0.95" />
        <circle cx="0" cy="0" r="19.93" fill="#d89263" />
        <circle cx="0" cy="0" r="9.97" fill="#fff7f0" fill-opacity="0.72" />
      </g>
    </g>
    
  </g>
  <path d="M0 980 C220 920, 420 1030, 900 930 L900 1100 L0 1100 Z" fill="#ffffff" fill-opacity="0.22" />
</svg>
