<svg xmlns="http://www.w3.org/2000/svg" width="900" height="1100" viewBox="0 0 900 1100">
  <defs>
    <linearGradient id="bg" x1="0" y1="0" x2="0" y2="1">
      <stop offset="0%" stop-color="#f5f8ef" />
      <stop offset="100%" stop-color="#eef3eb" />
    </linearGradient>
    <filter id="shadow" x="-20%" y="-20%" width="140%" height="140%">
      <feDropShadow dx="0" dy="22" stdDeviation="24" flood-color="#6c5d4f" flood-opacity="0.12" />
    </filter>
  </defs>
  <rect width="100%" height="100%" fill="url(#bg)" />
  <circle cx="730" cy="180" r="140" fill="#ffffff" fill-opacity="0.18" />
  <circle cx="150" cy="260" r="90" fill="#ffffff" fill-opacity="0.12" />
  
      <rect x="70" y="72" width="300" height="92" rx="24" fill="#ffffff" fill-opacity="0.34" />
      <text x="98" y="120" fill="#2f3a31" font-size="32" font-family="'PingFang SC','Microsoft YaHei',sans-serif" font-weight="600">小满青意</text>
      <text x="98" y="152" fill="#4e6152" font-size="18" font-family="'PingFang SC','Microsoft YaHei',sans-serif">夏日 · 枝叶感</text>
    
  <g filter="url(#shadow)">
    <path d="M250 780 L650 780 L730 1080 L170 1080 Z" fill="#ece2d6" fill-opacity="0.88" />
  </g>
  <g>
    
    <g transform="translate(540.10 410.15) rotate(-12.30)">
      <path d="M 0 0 C -8 110.88, 10 184.79, -6 271.03" stroke="#7f9d76" stroke-width="14.78" fill="none" stroke-linecap="round" />
      <ellipse cx="-20" cy="135.52" rx="27.10" ry="51.74" fill="#7f9d76" fill-opacity="0.75" transform="rotate(-24)" />
      <ellipse cx="28" cy="167.55" rx="24.64" ry="46.81" fill="#7f9d76" fill-opacity="0.66" transform="rotate(20)" />
      <g transform="translate(0 0)">
        <ellipse cx="34.50" cy="0.00" rx="22.18" ry="34.50" fill="#f4d77e" fill-opacity="0.95" /><ellipse cx="24.39" cy="24.39" rx="22.18" ry="34.50" fill="#f4d77e" fill-opacity="0.95" /><ellipse cx="0.00" cy="34.50" rx="22.18" ry="34.50" fill="#f4d77e" fill-opacity="0.95" /><ellipse cx="-24.39" cy="24.39" rx="22.18" ry="34.50" fill="#f4d77e" fill-opacity="0.95" /><ellipse cx="-34.50" cy="0.00" rx="22.18" ry="34.50" fill="#f4d77e" fill-opacity="0.95" /><ellipse cx="-24.39" cy="-24.39" rx="22.18" ry="34.50" fill="#f4d77e" fill-opacity="0.95" /><ellipse cx="-0.00" cy="-34.50" rx="22.18" ry="34.50" fill="#f4d77e" fill-opacity="0.95" /><ellipse cx="24.39" cy="-24.39" rx="22.18" ry="34.50" fill="#f4d77e" fill-opacity="0.95" />
        <circle cx="0" cy="0" r="22.18" fill="#d89263" />
        <circle cx="0" cy="0" r="11.09" fill="#fff7f0" fill-opacity="0.72" />
      </g>
    </g>
    
    <g transform="translate(486.54 297.98) rotate(-3.89)">
      <path d="M 0 0 C -8 104.24, 10 173.73, -6 254.81" stroke="#62855f" stroke-width="13.90" fill="none" stroke-linecap="round" />
      <ellipse cx="-20" cy="127.40" rx="25.48" ry="48.65" fill="#62855f" fill-opacity="0.75" transform="rotate(-24)" />
      <ellipse cx="28" cy="157.52" rx="23.16" ry="44.01" fill="#62855f" fill-opacity="0.66" transform="rotate(20)" />
      <g transform="translate(0 0)">
        <ellipse cx="32.43" cy="0.00" rx="20.85" ry="32.43" fill="#d6b06e" fill-opacity="0.95" /><ellipse cx="22.93" cy="22.93" rx="20.85" ry="32.43" fill="#d6b06e" fill-opacity="0.95" /><ellipse cx="0.00" cy="32.43" rx="20.85" ry="32.43" fill="#d6b06e" fill-opacity="0.95" /><ellipse cx="-22.93" cy="22.93" rx="20.85" ry="32.43" fill="#d6b06e" fill-opacity="0.95" /><ellipse cx="-32.43" cy="0.00" rx="20.85" ry="32.43" fill="#d6b06e" fill-opacity="0.95" /><ellipse cx="-22.93" cy="-22.93" rx="20.85" ry="32.43" fill="#d6b06e" fill-opacity="0.95" /><ellipse cx="-0.00" cy="-32.43" rx="20.85" ry="32.43" fill="#d6b06e" fill-opacity="0.95" /><ellipse cx="22.93" cy="-22.93" rx="20.85" ry="32.43" fill="#d6b06e" fill-opacity="0.95" />
        <circle cx="0" cy="0" r="20.85" fill="#d89263" />
        <circle cx="0" cy="0" r="10.42" fill="#fff7f0" fill-opacity="0.72" />
      </g>
    </g>
    
    <g transform="translate(519.39 303.43) rotate(13.06)">
      <path d="M 0 0 C -8 79.41, 10 132.35, -6 194.11" stroke="#a4bc95" stroke-width="10.59" fill="none" stroke-linecap="round" />
      <ellipse cx="-20" cy="97.05" rx="19.41" ry="37.06" fill="#a4bc95" fill-opacity="0.75" transform="rotate(-24)" />
      <ellipse cx="28" cy="119.99" rx="17.65" ry="33.53" fill="#a4bc95" fill-opacity="0.66" transform="rotate(20)" />
      <g transform="translate(0 0)">
        <ellipse cx="24.70" cy="0.00" rx="15.88" ry="24.70" fill="#bcd9d1" fill-opacity="0.95" /><ellipse cx="17.47" cy="17.47" rx="15.88" ry="24.70" fill="#bcd9d1" fill-opacity="0.95" /><ellipse cx="0.00" cy="24.70" rx="15.88" ry="24.70" fill="#bcd9d1" fill-opacity="0.95" /><ellipse cx="-17.47" cy="17.47" rx="15.88" ry="24.70" fill="#bcd9d1" fill-opacity="0.95" /><ellipse cx="-24.70" cy="0.00" rx="15.88" ry="24.70" fill="#bcd9d1" fill-opacity="0.95" /><ellipse cx="-17.47" cy="-17.47" rx="15.88" ry="24.70" fill="#bcd9d1" fill-opacity="0.95" /><ellipse cx="-0.00" cy="-24.70" rx="15.88" ry="24.70" fill="#bcd9d1" fill-opacity="0.95" /><ellipse cx="17.47" cy="-17.47" rx="15.88" ry="24.70" fill="#bcd9d1" fill-opacity="0.95" />
        <circle cx="0" cy="0" r="15.88" fill="#d89263" />
        <circle cx="0" cy="0" r="7.94" fill="#fff7f0" fill-opacity="0.72" />
      </g>
    </g>
    
    <g transform="translate(534.76 550.48) rotate(6.25)">
      <path d="M 0 0 C -8 101.61, 10 169.35, -6 248.37" stroke="#7f9d76" stroke-width="13.55" fill="none" stroke-linecap="round" />
      <ellipse cx="-20" cy="124.19" rx="24.84" ry="47.42" fill="#7f9d76" fill-opacity="0.75" transform="rotate(-24)" />
      <ellipse cx="28" cy="153.54" rx="22.58" ry="42.90" fill="#7f9d76" fill-opacity="0.66" transform="rotate(20)" />
      <g transform="translate(0 0)">
        <ellipse cx="31.61" cy="0.00" rx="20.32" ry="31.61" fill="#c47b56" fill-opacity="0.95" /><ellipse cx="22.35" cy="22.35" rx="20.32" ry="31.61" fill="#c47b56" fill-opacity="0.95" /><ellipse cx="0.00" cy="31.61" rx="20.32" ry="31.61" fill="#c47b56" fill-opacity="0.95" /><ellipse cx="-22.35" cy="22.35" rx="20.32" ry="31.61" fill="#c47b56" fill-opacity="0.95" /><ellipse cx="-31.61" cy="0.00" rx="20.32" ry="31.61" fill="#c47b56" fill-opacity="0.95" /><ellipse cx="-22.35" cy="-22.35" rx="20.32" ry="31.61" fill="#c47b56" fill-opacity="0.95" /><ellipse cx="-0.00" cy="-31.61" rx="20.32" ry="31.61" fill="#c47b56" fill-opacity="0.95" /><ellipse cx="22.35" cy="-22.35" rx="20.32" ry="31.61" fill="#c47b56" fill-opacity="0.95" />
        <circle cx="0" cy="0" r="20.32" fill="#d89263" />
        <circle cx="0" cy="0" r="10.16" fill="#fff7f0" fill-opacity="0.72" />
      </g>
    </g>
    
    <g transform="translate(219.42 493.23) rotate(-16.66)">
      <path d="M 0 0 C -8 92.01, 10 153.35, -6 224.91" stroke="#62855f" stroke-width="12.27" fill="none" stroke-linecap="round" />
      <ellipse cx="-20" cy="112.46" rx="22.49" ry="42.94" fill="#62855f" fill-opacity="0.75" transform="rotate(-24)" />
      <ellipse cx="28" cy="139.04" rx="20.45" ry="38.85" fill="#62855f" fill-opacity="0.66" transform="rotate(20)" />
      <g transform="translate(0 0)">
        <ellipse cx="28.63" cy="0.00" rx="18.40" ry="28.63" fill="#f4d77e" fill-opacity="0.95" /><ellipse cx="20.24" cy="20.24" rx="18.40" ry="28.63" fill="#f4d77e" fill-opacity="0.95" /><ellipse cx="0.00" cy="28.63" rx="18.40" ry="28.63" fill="#f4d77e" fill-opacity="0.95" /><ellipse cx="-20.24" cy="20.24" rx="18.40" ry="28.63" fill="#f4d77e" fill-opacity="0.95" /><ellipse cx="-28.63" cy="0.00" rx="18.40" ry="28.63" fill="#f4d77e" fill-opacity="0.95" /><ellipse cx="-20.24" cy="-20.24" rx="18.40" ry="28.63" fill="#f4d77e" fill-opacity="0.95" /><ellipse cx="-0.00" cy="-28.63" rx="18.40" ry="28.63" fill="#f4d77e" fill-opacity="0.95" /><ellipse cx="20.24" cy="-20.24" rx="18.40" ry="28.63" fill="#f4d77e" fill-opacity="0.95" />
        <circle cx="0" cy="0" r="18.40" fill="#d89263" />
        <circle cx="0" cy="0" r="9.20" fill="#fff7f0" fill-opacity="0.72" />
      </g>
    </g>
    
    <g transform="translate(478.24 484.34) rotate(-16.25)">
      <path d="M 0 0 C -8 101.47, 10 169.12, -6 248.04" stroke="#a4bc95" stroke-width="13.53" fill="none" stroke-linecap="round" />
      <ellipse cx="-20" cy="124.02" rx="24.80" ry="47.35" fill="#a4bc95" fill-opacity="0.75" transform="rotate(-24)" />
      <ellipse cx="28" cy="153.33" rx="22.55" ry="42.84" fill="#a4bc95" fill-opacity="0.66" transform="rotate(20)" />
      <g transform="translate(0 0)">
        <ellipse cx="31.57" cy="0.00" rx="20.29" ry="31.57" fill="#d6b06e" fill-opacity="0.95" /><ellipse cx="22.32" cy="22.32" rx="20.29" ry="31.57" fill="#d6b06e" fill-opacity="0.95" /><ellipse cx="0.00" cy="31.57" rx="20.29" ry="31.57" fill="#d6b06e" fill-opacity="0.95" /><ellipse cx="-22.32" cy="22.32" rx="20.29" ry="31.57" fill="#d6b06e" fill-opacity="0.95" /><ellipse cx="-31.57" cy="0.00" rx="20.29" ry="31.57" fill="#d6b06e" fill-opacity="0.95" /><ellipse cx="-22.32" cy="-22.32" rx="20.29" ry="31.57" fill="#d6b06e" fill-opacity="0.95" /><ellipse cx="-0.00" cy="-31.57" rx="20.29" ry="31.57" fill="#d6b06e" fill-opacity="0.95" /><ellipse cx="22.32" cy="-22.32" rx="20.29" ry="31.57" fill="#d6b06e" fill-opacity="0.95" />
        <circle cx="0" cy="0" r="20.29" fill="#d89263" />
        <circle cx="0" cy="0" r="10.15" fill="#fff7f0" fill-opacity="0.72" />
      </g>
    </g>
    
    <g transform="translate(609.94 407.78) rotate(-9.11)">
      <path d="M 0 0 C -8 83.08, 10 138.46, -6 203.08" stroke="#7f9d76" stroke-width="11.08" fill="none" stroke-linecap="round" />
      <ellipse cx="-20" cy="101.54" rx="20.31" ry="38.77" fill="#7f9d76" fill-opacity="0.75" transform="rotate(-24)" />
      <ellipse cx="28" cy="125.54" rx="18.46" ry="35.08" fill="#7f9d76" fill-opacity="0.66" transform="rotate(20)" />
      <g transform="translate(0 0)">
        <ellipse cx="25.85" cy="0.00" rx="16.62" ry="25.85" fill="#bcd9d1" fill-opacity="0.95" /><ellipse cx="18.28" cy="18.28" rx="16.62" ry="25.85" fill="#bcd9d1" fill-opacity="0.95" /><ellipse cx="0.00" cy="25.85" rx="16.62" ry="25.85" fill="#bcd9d1" fill-opacity="0.95" /><ellipse cx="-18.28" cy="18.28" rx="16.62" ry="25.85" fill="#bcd9d1" fill-opacity="0.95" /><ellipse cx="-25.85" cy="0.00" rx="16.62" ry="25.85" fill="#bcd9d1" fill-opacity="0.95" /><ellipse cx="-18.28" cy="-18.28" rx="16.62" ry="25.85" fill="#bcd9d1" fill-opacity="0.95" /><ellipse cx="-0.00" cy="-25.85" rx="16.62" ry="25.85" fill="#bcd9d1" fill-opacity="0.95" /><ellipse cx="18.28" cy="-18.28" rx="16.62" ry="25.85" fill="#bcd9d1" fill-opacity="0.95" />
        <circle cx="0" cy="0" r="16.62" fill="#d89263" />
        <circle cx="0" cy="0" r="8.31" fill="#fff7f0" fill-opacity="0.72" />
      </g>
    </g>
    
  </g>
  <path d="M0 980 C220 920, 420 1030, 900 930 L900 1100 L0 1100 Z" fill="#ffffff" fill-opacity="0.22" />
</svg>
