<svg xmlns="http://www.w3.org/2000/svg" width="900" height="1100" viewBox="0 0 900 1100">
  <defs>
    <linearGradient id="bg" x1="0" y1="0" x2="0" y2="1">
      <stop offset="0%" stop-color="#f5f8ef" />
      <stop offset="100%" stop-color="#eef3eb" />
    </linearGradient>
    <filter id="shadow" x="-20%" y="-20%" width="140%" height="140%">
      <feDropShadow dx="0" dy="22" stdDeviation="24" flood-color="#6c5d4f" flood-opacity="0.12" />
    </filter>
  </defs>
  <rect width="100%" height="100%" fill="url(#bg)" />
  <circle cx="730" cy="180" r="140" fill="#ffffff" fill-opacity="0.18" />
  <circle cx="150" cy="260" r="90" fill="#ffffff" fill-opacity="0.12" />
  
      <rect x="70" y="72" width="300" height="92" rx="24" fill="#ffffff" fill-opacity="0.34" />
      <text x="98" y="120" fill="#2f3a31" font-size="32" font-family="'PingFang SC','Microsoft YaHei',sans-serif" font-weight="600">初夏微澜</text>
      <text x="98" y="152" fill="#4e6152" font-size="18" font-family="'PingFang SC','Microsoft YaHei',sans-serif">夏日 · 枝叶感</text>
    
  <g filter="url(#shadow)">
    <path d="M250 780 L650 780 L730 1080 L170 1080 Z" fill="#ece2d6" fill-opacity="0.88" />
  </g>
  <g>
    
    <g transform="translate(664.56 455.26) rotate(-23.79)">
      <path d="M 0 0 C -8 108.40, 10 180.66, -6 264.97" stroke="#7f9d76" stroke-width="14.45" fill="none" stroke-linecap="round" />
      <ellipse cx="-20" cy="132.49" rx="26.50" ry="50.59" fill="#7f9d76" fill-opacity="0.75" transform="rotate(-24)" />
      <ellipse cx="28" cy="163.80" rx="24.09" ry="45.77" fill="#7f9d76" fill-opacity="0.66" transform="rotate(20)" />
      <g transform="translate(0 0)">
        <ellipse cx="33.72" cy="0.00" rx="21.68" ry="33.72" fill="#f4d77e" fill-opacity="0.95" /><ellipse cx="23.85" cy="23.85" rx="21.68" ry="33.72" fill="#f4d77e" fill-opacity="0.95" /><ellipse cx="0.00" cy="33.72" rx="21.68" ry="33.72" fill="#f4d77e" fill-opacity="0.95" /><ellipse cx="-23.85" cy="23.85" rx="21.68" ry="33.72" fill="#f4d77e" fill-opacity="0.95" /><ellipse cx="-33.72" cy="0.00" rx="21.68" ry="33.72" fill="#f4d77e" fill-opacity="0.95" /><ellipse cx="-23.85" cy="-23.85" rx="21.68" ry="33.72" fill="#f4d77e" fill-opacity="0.95" /><ellipse cx="-0.00" cy="-33.72" rx="21.68" ry="33.72" fill="#f4d77e" fill-opacity="0.95" /><ellipse cx="23.85" cy="-23.85" rx="21.68" ry="33.72" fill="#f4d77e" fill-opacity="0.95" />
        <circle cx="0" cy="0" r="21.68" fill="#d89263" />
        <circle cx="0" cy="0" r="10.84" fill="#fff7f0" fill-opacity="0.72" />
      </g>
    </g>
    
    <g transform="translate(608.67 448.96) rotate(22.21)">
      <path d="M 0 0 C -8 112.41, 10 187.35, -6 274.78" stroke="#62855f" stroke-width="14.99" fill="none" stroke-linecap="round" />
      <ellipse cx="-20" cy="137.39" rx="27.48" ry="52.46" fill="#62855f" fill-opacity="0.75" transform="rotate(-24)" />
      <ellipse cx="28" cy="169.86" rx="24.98" ry="47.46" fill="#62855f" fill-opacity="0.66" transform="rotate(20)" />
      <g transform="translate(0 0)">
        <ellipse cx="34.97" cy="0.00" rx="22.48" ry="34.97" fill="#d6b06e" fill-opacity="0.95" /><ellipse cx="24.73" cy="24.73" rx="22.48" ry="34.97" fill="#d6b06e" fill-opacity="0.95" /><ellipse cx="0.00" cy="34.97" rx="22.48" ry="34.97" fill="#d6b06e" fill-opacity="0.95" /><ellipse cx="-24.73" cy="24.73" rx="22.48" ry="34.97" fill="#d6b06e" fill-opacity="0.95" /><ellipse cx="-34.97" cy="0.00" rx="22.48" ry="34.97" fill="#d6b06e" fill-opacity="0.95" /><ellipse cx="-24.73" cy="-24.73" rx="22.48" ry="34.97" fill="#d6b06e" fill-opacity="0.95" /><ellipse cx="-0.00" cy="-34.97" rx="22.48" ry="34.97" fill="#d6b06e" fill-opacity="0.95" /><ellipse cx="24.73" cy="-24.73" rx="22.48" ry="34.97" fill="#d6b06e" fill-opacity="0.95" />
        <circle cx="0" cy="0" r="22.48" fill="#d89263" />
        <circle cx="0" cy="0" r="11.24" fill="#fff7f0" fill-opacity="0.72" />
      </g>
    </g>
    
    <g transform="translate(448.14 387.37) rotate(-20.47)">
      <path d="M 0 0 C -8 100.81, 10 168.02, -6 246.43" stroke="#a4bc95" stroke-width="13.44" fill="none" stroke-linecap="round" />
      <ellipse cx="-20" cy="123.21" rx="24.64" ry="47.05" fill="#a4bc95" fill-opacity="0.75" transform="rotate(-24)" />
      <ellipse cx="28" cy="152.34" rx="22.40" ry="42.56" fill="#a4bc95" fill-opacity="0.66" transform="rotate(20)" />
      <g transform="translate(0 0)">
        <ellipse cx="31.36" cy="0.00" rx="20.16" ry="31.36" fill="#bcd9d1" fill-opacity="0.95" /><ellipse cx="22.18" cy="22.18" rx="20.16" ry="31.36" fill="#bcd9d1" fill-opacity="0.95" /><ellipse cx="0.00" cy="31.36" rx="20.16" ry="31.36" fill="#bcd9d1" fill-opacity="0.95" /><ellipse cx="-22.18" cy="22.18" rx="20.16" ry="31.36" fill="#bcd9d1" fill-opacity="0.95" /><ellipse cx="-31.36" cy="0.00" rx="20.16" ry="31.36" fill="#bcd9d1" fill-opacity="0.95" /><ellipse cx="-22.18" cy="-22.18" rx="20.16" ry="31.36" fill="#bcd9d1" fill-opacity="0.95" /><ellipse cx="-0.00" cy="-31.36" rx="20.16" ry="31.36" fill="#bcd9d1" fill-opacity="0.95" /><ellipse cx="22.18" cy="-22.18" rx="20.16" ry="31.36" fill="#bcd9d1" fill-opacity="0.95" />
        <circle cx="0" cy="0" r="20.16" fill="#d89263" />
        <circle cx="0" cy="0" r="10.08" fill="#fff7f0" fill-opacity="0.72" />
      </g>
    </g>
    
    <g transform="translate(611.84 405.96) rotate(-11.55)">
      <path d="M 0 0 C -8 74.19, 10 123.64, -6 181.34" stroke="#7f9d76" stroke-width="9.89" fill="none" stroke-linecap="round" />
      <ellipse cx="-20" cy="90.67" rx="18.13" ry="34.62" fill="#7f9d76" fill-opacity="0.75" transform="rotate(-24)" />
      <ellipse cx="28" cy="112.10" rx="16.49" ry="31.32" fill="#7f9d76" fill-opacity="0.66" transform="rotate(20)" />
      <g transform="translate(0 0)">
        <ellipse cx="23.08" cy="0.00" rx="14.84" ry="23.08" fill="#c47b56" fill-opacity="0.95" /><ellipse cx="16.32" cy="16.32" rx="14.84" ry="23.08" fill="#c47b56" fill-opacity="0.95" /><ellipse cx="0.00" cy="23.08" rx="14.84" ry="23.08" fill="#c47b56" fill-opacity="0.95" /><ellipse cx="-16.32" cy="16.32" rx="14.84" ry="23.08" fill="#c47b56" fill-opacity="0.95" /><ellipse cx="-23.08" cy="0.00" rx="14.84" ry="23.08" fill="#c47b56" fill-opacity="0.95" /><ellipse cx="-16.32" cy="-16.32" rx="14.84" ry="23.08" fill="#c47b56" fill-opacity="0.95" /><ellipse cx="-0.00" cy="-23.08" rx="14.84" ry="23.08" fill="#c47b56" fill-opacity="0.95" /><ellipse cx="16.32" cy="-16.32" rx="14.84" ry="23.08" fill="#c47b56" fill-opacity="0.95" />
        <circle cx="0" cy="0" r="14.84" fill="#d89263" />
        <circle cx="0" cy="0" r="7.42" fill="#fff7f0" fill-opacity="0.72" />
      </g>
    </g>
    
    <g transform="translate(527.51 306.12) rotate(-22.46)">
      <path d="M 0 0 C -8 72.21, 10 120.35, -6 176.51" stroke="#62855f" stroke-width="9.63" fill="none" stroke-linecap="round" />
      <ellipse cx="-20" cy="88.26" rx="17.65" ry="33.70" fill="#62855f" fill-opacity="0.75" transform="rotate(-24)" />
      <ellipse cx="28" cy="109.12" rx="16.05" ry="30.49" fill="#62855f" fill-opacity="0.66" transform="rotate(20)" />
      <g transform="translate(0 0)">
        <ellipse cx="22.47" cy="0.00" rx="14.44" ry="22.47" fill="#f4d77e" fill-opacity="0.95" /><ellipse cx="15.89" cy="15.89" rx="14.44" ry="22.47" fill="#f4d77e" fill-opacity="0.95" /><ellipse cx="0.00" cy="22.47" rx="14.44" ry="22.47" fill="#f4d77e" fill-opacity="0.95" /><ellipse cx="-15.89" cy="15.89" rx="14.44" ry="22.47" fill="#f4d77e" fill-opacity="0.95" /><ellipse cx="-22.47" cy="0.00" rx="14.44" ry="22.47" fill="#f4d77e" fill-opacity="0.95" /><ellipse cx="-15.89" cy="-15.89" rx="14.44" ry="22.47" fill="#f4d77e" fill-opacity="0.95" /><ellipse cx="-0.00" cy="-22.47" rx="14.44" ry="22.47" fill="#f4d77e" fill-opacity="0.95" /><ellipse cx="15.89" cy="-15.89" rx="14.44" ry="22.47" fill="#f4d77e" fill-opacity="0.95" />
        <circle cx="0" cy="0" r="14.44" fill="#d89263" />
        <circle cx="0" cy="0" r="7.22" fill="#fff7f0" fill-opacity="0.72" />
      </g>
    </g>
    
    <g transform="translate(344.27 393.36) rotate(-21.45)">
      <path d="M 0 0 C -8 97.34, 10 162.23, -6 237.94" stroke="#a4bc95" stroke-width="12.98" fill="none" stroke-linecap="round" />
      <ellipse cx="-20" cy="118.97" rx="23.79" ry="45.42" fill="#a4bc95" fill-opacity="0.75" transform="rotate(-24)" />
      <ellipse cx="28" cy="147.09" rx="21.63" ry="41.10" fill="#a4bc95" fill-opacity="0.66" transform="rotate(20)" />
      <g transform="translate(0 0)">
        <ellipse cx="30.28" cy="0.00" rx="19.47" ry="30.28" fill="#d6b06e" fill-opacity="0.95" /><ellipse cx="21.41" cy="21.41" rx="19.47" ry="30.28" fill="#d6b06e" fill-opacity="0.95" /><ellipse cx="0.00" cy="30.28" rx="19.47" ry="30.28" fill="#d6b06e" fill-opacity="0.95" /><ellipse cx="-21.41" cy="21.41" rx="19.47" ry="30.28" fill="#d6b06e" fill-opacity="0.95" /><ellipse cx="-30.28" cy="0.00" rx="19.47" ry="30.28" fill="#d6b06e" fill-opacity="0.95" /><ellipse cx="-21.41" cy="-21.41" rx="19.47" ry="30.28" fill="#d6b06e" fill-opacity="0.95" /><ellipse cx="-0.00" cy="-30.28" rx="19.47" ry="30.28" fill="#d6b06e" fill-opacity="0.95" /><ellipse cx="21.41" cy="-21.41" rx="19.47" ry="30.28" fill="#d6b06e" fill-opacity="0.95" />
        <circle cx="0" cy="0" r="19.47" fill="#d89263" />
        <circle cx="0" cy="0" r="9.73" fill="#fff7f0" fill-opacity="0.72" />
      </g>
    </g>
    
    <g transform="translate(317.52 462.04) rotate(-19.53)">
      <path d="M 0 0 C -8 88.85, 10 148.09, -6 217.19" stroke="#7f9d76" stroke-width="11.85" fill="none" stroke-linecap="round" />
      <ellipse cx="-20" cy="108.60" rx="21.72" ry="41.46" fill="#7f9d76" fill-opacity="0.75" transform="rotate(-24)" />
      <ellipse cx="28" cy="134.26" rx="19.74" ry="37.52" fill="#7f9d76" fill-opacity="0.66" transform="rotate(20)" />
      <g transform="translate(0 0)">
        <ellipse cx="27.64" cy="0.00" rx="17.77" ry="27.64" fill="#bcd9d1" fill-opacity="0.95" /><ellipse cx="19.55" cy="19.55" rx="17.77" ry="27.64" fill="#bcd9d1" fill-opacity="0.95" /><ellipse cx="0.00" cy="27.64" rx="17.77" ry="27.64" fill="#bcd9d1" fill-opacity="0.95" /><ellipse cx="-19.55" cy="19.55" rx="17.77" ry="27.64" fill="#bcd9d1" fill-opacity="0.95" /><ellipse cx="-27.64" cy="0.00" rx="17.77" ry="27.64" fill="#bcd9d1" fill-opacity="0.95" /><ellipse cx="-19.55" cy="-19.55" rx="17.77" ry="27.64" fill="#bcd9d1" fill-opacity="0.95" /><ellipse cx="-0.00" cy="-27.64" rx="17.77" ry="27.64" fill="#bcd9d1" fill-opacity="0.95" /><ellipse cx="19.55" cy="-19.55" rx="17.77" ry="27.64" fill="#bcd9d1" fill-opacity="0.95" />
        <circle cx="0" cy="0" r="17.77" fill="#d89263" />
        <circle cx="0" cy="0" r="8.89" fill="#fff7f0" fill-opacity="0.72" />
      </g>
    </g>
    
  </g>
  <path d="M0 980 C220 920, 420 1030, 900 930 L900 1100 L0 1100 Z" fill="#ffffff" fill-opacity="0.22" />
</svg>
