<svg xmlns="http://www.w3.org/2000/svg" width="900" height="1100" viewBox="0 0 900 1100">
  <defs>
    <linearGradient id="bg" x1="0" y1="0" x2="0" y2="1">
      <stop offset="0%" stop-color="#f5f8ef" />
      <stop offset="100%" stop-color="#eef3eb" />
    </linearGradient>
    <filter id="shadow" x="-20%" y="-20%" width="140%" height="140%">
      <feDropShadow dx="0" dy="22" stdDeviation="24" flood-color="#6c5d4f" flood-opacity="0.12" />
    </filter>
  </defs>
  <rect width="100%" height="100%" fill="url(#bg)" />
  <circle cx="730" cy="180" r="140" fill="#ffffff" fill-opacity="0.18" />
  <circle cx="150" cy="260" r="90" fill="#ffffff" fill-opacity="0.12" />
  
      <rect x="70" y="72" width="300" height="92" rx="24" fill="#ffffff" fill-opacity="0.34" />
      <text x="98" y="120" fill="#2f3a31" font-size="32" font-family="'PingFang SC','Microsoft YaHei',sans-serif" font-weight="600">春枝轻信</text>
      <text x="98" y="152" fill="#4e6152" font-size="18" font-family="'PingFang SC','Microsoft YaHei',sans-serif">节气 · 春日</text>
    
  <g filter="url(#shadow)">
    <path d="M250 780 L650 780 L730 1080 L170 1080 Z" fill="#ece2d6" fill-opacity="0.88" />
  </g>
  <g>
    
    <g transform="translate(361.74 402.09) rotate(-3.01)">
      <path d="M 0 0 C -8 104.94, 10 174.90, -6 256.52" stroke="#7f9d76" stroke-width="13.99" fill="none" stroke-linecap="round" />
      <ellipse cx="-20" cy="128.26" rx="25.65" ry="48.97" fill="#7f9d76" fill-opacity="0.75" transform="rotate(-24)" />
      <ellipse cx="28" cy="158.58" rx="23.32" ry="44.31" fill="#7f9d76" fill-opacity="0.66" transform="rotate(20)" />
      <g transform="translate(0 0)">
        <ellipse cx="32.65" cy="0.00" rx="20.99" ry="32.65" fill="#f4d77e" fill-opacity="0.95" /><ellipse cx="23.09" cy="23.09" rx="20.99" ry="32.65" fill="#f4d77e" fill-opacity="0.95" /><ellipse cx="0.00" cy="32.65" rx="20.99" ry="32.65" fill="#f4d77e" fill-opacity="0.95" /><ellipse cx="-23.09" cy="23.09" rx="20.99" ry="32.65" fill="#f4d77e" fill-opacity="0.95" /><ellipse cx="-32.65" cy="0.00" rx="20.99" ry="32.65" fill="#f4d77e" fill-opacity="0.95" /><ellipse cx="-23.09" cy="-23.09" rx="20.99" ry="32.65" fill="#f4d77e" fill-opacity="0.95" /><ellipse cx="-0.00" cy="-32.65" rx="20.99" ry="32.65" fill="#f4d77e" fill-opacity="0.95" /><ellipse cx="23.09" cy="-23.09" rx="20.99" ry="32.65" fill="#f4d77e" fill-opacity="0.95" />
        <circle cx="0" cy="0" r="20.99" fill="#d89263" />
        <circle cx="0" cy="0" r="10.49" fill="#fff7f0" fill-opacity="0.72" />
      </g>
    </g>
    
    <g transform="translate(624.54 298.05) rotate(-12.69)">
      <path d="M 0 0 C -8 81.87, 10 136.45, -6 200.13" stroke="#62855f" stroke-width="10.92" fill="none" stroke-linecap="round" />
      <ellipse cx="-20" cy="100.06" rx="20.01" ry="38.21" fill="#62855f" fill-opacity="0.75" transform="rotate(-24)" />
      <ellipse cx="28" cy="123.71" rx="18.19" ry="34.57" fill="#62855f" fill-opacity="0.66" transform="rotate(20)" />
      <g transform="translate(0 0)">
        <ellipse cx="25.47" cy="0.00" rx="16.37" ry="25.47" fill="#d6b06e" fill-opacity="0.95" /><ellipse cx="18.01" cy="18.01" rx="16.37" ry="25.47" fill="#d6b06e" fill-opacity="0.95" /><ellipse cx="0.00" cy="25.47" rx="16.37" ry="25.47" fill="#d6b06e" fill-opacity="0.95" /><ellipse cx="-18.01" cy="18.01" rx="16.37" ry="25.47" fill="#d6b06e" fill-opacity="0.95" /><ellipse cx="-25.47" cy="0.00" rx="16.37" ry="25.47" fill="#d6b06e" fill-opacity="0.95" /><ellipse cx="-18.01" cy="-18.01" rx="16.37" ry="25.47" fill="#d6b06e" fill-opacity="0.95" /><ellipse cx="-0.00" cy="-25.47" rx="16.37" ry="25.47" fill="#d6b06e" fill-opacity="0.95" /><ellipse cx="18.01" cy="-18.01" rx="16.37" ry="25.47" fill="#d6b06e" fill-opacity="0.95" />
        <circle cx="0" cy="0" r="16.37" fill="#d89263" />
        <circle cx="0" cy="0" r="8.19" fill="#fff7f0" fill-opacity="0.72" />
      </g>
    </g>
    
    <g transform="translate(596.10 477.81) rotate(17.41)">
      <path d="M 0 0 C -8 75.76, 10 126.26, -6 185.19" stroke="#a4bc95" stroke-width="10.10" fill="none" stroke-linecap="round" />
      <ellipse cx="-20" cy="92.59" rx="18.52" ry="35.35" fill="#a4bc95" fill-opacity="0.75" transform="rotate(-24)" />
      <ellipse cx="28" cy="114.48" rx="16.84" ry="31.99" fill="#a4bc95" fill-opacity="0.66" transform="rotate(20)" />
      <g transform="translate(0 0)">
        <ellipse cx="23.57" cy="0.00" rx="15.15" ry="23.57" fill="#bcd9d1" fill-opacity="0.95" /><ellipse cx="16.67" cy="16.67" rx="15.15" ry="23.57" fill="#bcd9d1" fill-opacity="0.95" /><ellipse cx="0.00" cy="23.57" rx="15.15" ry="23.57" fill="#bcd9d1" fill-opacity="0.95" /><ellipse cx="-16.67" cy="16.67" rx="15.15" ry="23.57" fill="#bcd9d1" fill-opacity="0.95" /><ellipse cx="-23.57" cy="0.00" rx="15.15" ry="23.57" fill="#bcd9d1" fill-opacity="0.95" /><ellipse cx="-16.67" cy="-16.67" rx="15.15" ry="23.57" fill="#bcd9d1" fill-opacity="0.95" /><ellipse cx="-0.00" cy="-23.57" rx="15.15" ry="23.57" fill="#bcd9d1" fill-opacity="0.95" /><ellipse cx="16.67" cy="-16.67" rx="15.15" ry="23.57" fill="#bcd9d1" fill-opacity="0.95" />
        <circle cx="0" cy="0" r="15.15" fill="#d89263" />
        <circle cx="0" cy="0" r="7.58" fill="#fff7f0" fill-opacity="0.72" />
      </g>
    </g>
    
    <g transform="translate(600.51 535.57) rotate(-3.95)">
      <path d="M 0 0 C -8 89.87, 10 149.78, -6 219.68" stroke="#7f9d76" stroke-width="11.98" fill="none" stroke-linecap="round" />
      <ellipse cx="-20" cy="109.84" rx="21.97" ry="41.94" fill="#7f9d76" fill-opacity="0.75" transform="rotate(-24)" />
      <ellipse cx="28" cy="135.80" rx="19.97" ry="37.94" fill="#7f9d76" fill-opacity="0.66" transform="rotate(20)" />
      <g transform="translate(0 0)">
        <ellipse cx="27.96" cy="0.00" rx="17.97" ry="27.96" fill="#c47b56" fill-opacity="0.95" /><ellipse cx="19.77" cy="19.77" rx="17.97" ry="27.96" fill="#c47b56" fill-opacity="0.95" /><ellipse cx="0.00" cy="27.96" rx="17.97" ry="27.96" fill="#c47b56" fill-opacity="0.95" /><ellipse cx="-19.77" cy="19.77" rx="17.97" ry="27.96" fill="#c47b56" fill-opacity="0.95" /><ellipse cx="-27.96" cy="0.00" rx="17.97" ry="27.96" fill="#c47b56" fill-opacity="0.95" /><ellipse cx="-19.77" cy="-19.77" rx="17.97" ry="27.96" fill="#c47b56" fill-opacity="0.95" /><ellipse cx="-0.00" cy="-27.96" rx="17.97" ry="27.96" fill="#c47b56" fill-opacity="0.95" /><ellipse cx="19.77" cy="-19.77" rx="17.97" ry="27.96" fill="#c47b56" fill-opacity="0.95" />
        <circle cx="0" cy="0" r="17.97" fill="#d89263" />
        <circle cx="0" cy="0" r="8.99" fill="#fff7f0" fill-opacity="0.72" />
      </g>
    </g>
    
    <g transform="translate(306.34 467.20) rotate(17.45)">
      <path d="M 0 0 C -8 114.44, 10 190.74, -6 279.75" stroke="#62855f" stroke-width="15.26" fill="none" stroke-linecap="round" />
      <ellipse cx="-20" cy="139.87" rx="27.97" ry="53.41" fill="#62855f" fill-opacity="0.75" transform="rotate(-24)" />
      <ellipse cx="28" cy="172.94" rx="25.43" ry="48.32" fill="#62855f" fill-opacity="0.66" transform="rotate(20)" />
      <g transform="translate(0 0)">
        <ellipse cx="35.60" cy="0.00" rx="22.89" ry="35.60" fill="#f4d77e" fill-opacity="0.95" /><ellipse cx="25.18" cy="25.18" rx="22.89" ry="35.60" fill="#f4d77e" fill-opacity="0.95" /><ellipse cx="0.00" cy="35.60" rx="22.89" ry="35.60" fill="#f4d77e" fill-opacity="0.95" /><ellipse cx="-25.18" cy="25.18" rx="22.89" ry="35.60" fill="#f4d77e" fill-opacity="0.95" /><ellipse cx="-35.60" cy="0.00" rx="22.89" ry="35.60" fill="#f4d77e" fill-opacity="0.95" /><ellipse cx="-25.18" cy="-25.18" rx="22.89" ry="35.60" fill="#f4d77e" fill-opacity="0.95" /><ellipse cx="-0.00" cy="-35.60" rx="22.89" ry="35.60" fill="#f4d77e" fill-opacity="0.95" /><ellipse cx="25.18" cy="-25.18" rx="22.89" ry="35.60" fill="#f4d77e" fill-opacity="0.95" />
        <circle cx="0" cy="0" r="22.89" fill="#d89263" />
        <circle cx="0" cy="0" r="11.44" fill="#fff7f0" fill-opacity="0.72" />
      </g>
    </g>
    
    <g transform="translate(439.10 329.70) rotate(-2.46)">
      <path d="M 0 0 C -8 100.21, 10 167.02, -6 244.96" stroke="#a4bc95" stroke-width="13.36" fill="none" stroke-linecap="round" />
      <ellipse cx="-20" cy="122.48" rx="24.50" ry="46.76" fill="#a4bc95" fill-opacity="0.75" transform="rotate(-24)" />
      <ellipse cx="28" cy="151.43" rx="22.27" ry="42.31" fill="#a4bc95" fill-opacity="0.66" transform="rotate(20)" />
      <g transform="translate(0 0)">
        <ellipse cx="31.18" cy="0.00" rx="20.04" ry="31.18" fill="#d6b06e" fill-opacity="0.95" /><ellipse cx="22.05" cy="22.05" rx="20.04" ry="31.18" fill="#d6b06e" fill-opacity="0.95" /><ellipse cx="0.00" cy="31.18" rx="20.04" ry="31.18" fill="#d6b06e" fill-opacity="0.95" /><ellipse cx="-22.05" cy="22.05" rx="20.04" ry="31.18" fill="#d6b06e" fill-opacity="0.95" /><ellipse cx="-31.18" cy="0.00" rx="20.04" ry="31.18" fill="#d6b06e" fill-opacity="0.95" /><ellipse cx="-22.05" cy="-22.05" rx="20.04" ry="31.18" fill="#d6b06e" fill-opacity="0.95" /><ellipse cx="-0.00" cy="-31.18" rx="20.04" ry="31.18" fill="#d6b06e" fill-opacity="0.95" /><ellipse cx="22.05" cy="-22.05" rx="20.04" ry="31.18" fill="#d6b06e" fill-opacity="0.95" />
        <circle cx="0" cy="0" r="20.04" fill="#d89263" />
        <circle cx="0" cy="0" r="10.02" fill="#fff7f0" fill-opacity="0.72" />
      </g>
    </g>
    
    <g transform="translate(631.25 361.01) rotate(11.53)">
      <path d="M 0 0 C -8 93.80, 10 156.34, -6 229.29" stroke="#7f9d76" stroke-width="12.51" fill="none" stroke-linecap="round" />
      <ellipse cx="-20" cy="114.65" rx="22.93" ry="43.77" fill="#7f9d76" fill-opacity="0.75" transform="rotate(-24)" />
      <ellipse cx="28" cy="141.75" rx="20.84" ry="39.61" fill="#7f9d76" fill-opacity="0.66" transform="rotate(20)" />
      <g transform="translate(0 0)">
        <ellipse cx="29.18" cy="0.00" rx="18.76" ry="29.18" fill="#bcd9d1" fill-opacity="0.95" /><ellipse cx="20.64" cy="20.64" rx="18.76" ry="29.18" fill="#bcd9d1" fill-opacity="0.95" /><ellipse cx="0.00" cy="29.18" rx="18.76" ry="29.18" fill="#bcd9d1" fill-opacity="0.95" /><ellipse cx="-20.64" cy="20.64" rx="18.76" ry="29.18" fill="#bcd9d1" fill-opacity="0.95" /><ellipse cx="-29.18" cy="0.00" rx="18.76" ry="29.18" fill="#bcd9d1" fill-opacity="0.95" /><ellipse cx="-20.64" cy="-20.64" rx="18.76" ry="29.18" fill="#bcd9d1" fill-opacity="0.95" /><ellipse cx="-0.00" cy="-29.18" rx="18.76" ry="29.18" fill="#bcd9d1" fill-opacity="0.95" /><ellipse cx="20.64" cy="-20.64" rx="18.76" ry="29.18" fill="#bcd9d1" fill-opacity="0.95" />
        <circle cx="0" cy="0" r="18.76" fill="#d89263" />
        <circle cx="0" cy="0" r="9.38" fill="#fff7f0" fill-opacity="0.72" />
      </g>
    </g>
    
  </g>
  <path d="M0 980 C220 920, 420 1030, 900 930 L900 1100 L0 1100 Z" fill="#ffffff" fill-opacity="0.22" />
</svg>
