<svg xmlns="http://www.w3.org/2000/svg" width="900" height="1100" viewBox="0 0 900 1100">
  <defs>
    <linearGradient id="bg" x1="0" y1="0" x2="0" y2="1">
      <stop offset="0%" stop-color="#f5f8ef" />
      <stop offset="100%" stop-color="#eef3eb" />
    </linearGradient>
    <filter id="shadow" x="-20%" y="-20%" width="140%" height="140%">
      <feDropShadow dx="0" dy="22" stdDeviation="24" flood-color="#6c5d4f" flood-opacity="0.12" />
    </filter>
  </defs>
  <rect width="100%" height="100%" fill="url(#bg)" />
  <circle cx="730" cy="180" r="140" fill="#ffffff" fill-opacity="0.18" />
  <circle cx="150" cy="260" r="90" fill="#ffffff" fill-opacity="0.12" />
  
      <rect x="70" y="72" width="300" height="92" rx="24" fill="#ffffff" fill-opacity="0.34" />
      <text x="98" y="120" fill="#2f3a31" font-size="32" font-family="'PingFang SC','Microsoft YaHei',sans-serif" font-weight="600">惊蛰新芽</text>
      <text x="98" y="152" fill="#4e6152" font-size="18" font-family="'PingFang SC','Microsoft YaHei',sans-serif">秋冬 · 暖调</text>
    
  <g filter="url(#shadow)">
    <path d="M250 780 L650 780 L730 1080 L170 1080 Z" fill="#ece2d6" fill-opacity="0.88" />
  </g>
  <g>
    
    <g transform="translate(650.16 558.97) rotate(-24.58)">
      <path d="M 0 0 C -8 96.20, 10 160.33, -6 235.15" stroke="#7f9d76" stroke-width="12.83" fill="none" stroke-linecap="round" />
      <ellipse cx="-20" cy="117.58" rx="23.52" ry="44.89" fill="#7f9d76" fill-opacity="0.75" transform="rotate(-24)" />
      <ellipse cx="28" cy="145.37" rx="21.38" ry="40.62" fill="#7f9d76" fill-opacity="0.66" transform="rotate(20)" />
      <g transform="translate(0 0)">
        <ellipse cx="29.93" cy="0.00" rx="19.24" ry="29.93" fill="#f4d77e" fill-opacity="0.95" /><ellipse cx="21.16" cy="21.16" rx="19.24" ry="29.93" fill="#f4d77e" fill-opacity="0.95" /><ellipse cx="0.00" cy="29.93" rx="19.24" ry="29.93" fill="#f4d77e" fill-opacity="0.95" /><ellipse cx="-21.16" cy="21.16" rx="19.24" ry="29.93" fill="#f4d77e" fill-opacity="0.95" /><ellipse cx="-29.93" cy="0.00" rx="19.24" ry="29.93" fill="#f4d77e" fill-opacity="0.95" /><ellipse cx="-21.16" cy="-21.16" rx="19.24" ry="29.93" fill="#f4d77e" fill-opacity="0.95" /><ellipse cx="-0.00" cy="-29.93" rx="19.24" ry="29.93" fill="#f4d77e" fill-opacity="0.95" /><ellipse cx="21.16" cy="-21.16" rx="19.24" ry="29.93" fill="#f4d77e" fill-opacity="0.95" />
        <circle cx="0" cy="0" r="19.24" fill="#d89263" />
        <circle cx="0" cy="0" r="9.62" fill="#fff7f0" fill-opacity="0.72" />
      </g>
    </g>
    
    <g transform="translate(284.66 497.44) rotate(14.60)">
      <path d="M 0 0 C -8 114.43, 10 190.71, -6 279.71" stroke="#62855f" stroke-width="15.26" fill="none" stroke-linecap="round" />
      <ellipse cx="-20" cy="139.85" rx="27.97" ry="53.40" fill="#62855f" fill-opacity="0.75" transform="rotate(-24)" />
      <ellipse cx="28" cy="172.91" rx="25.43" ry="48.31" fill="#62855f" fill-opacity="0.66" transform="rotate(20)" />
      <g transform="translate(0 0)">
        <ellipse cx="35.60" cy="0.00" rx="22.89" ry="35.60" fill="#d6b06e" fill-opacity="0.95" /><ellipse cx="25.17" cy="25.17" rx="22.89" ry="35.60" fill="#d6b06e" fill-opacity="0.95" /><ellipse cx="0.00" cy="35.60" rx="22.89" ry="35.60" fill="#d6b06e" fill-opacity="0.95" /><ellipse cx="-25.17" cy="25.17" rx="22.89" ry="35.60" fill="#d6b06e" fill-opacity="0.95" /><ellipse cx="-35.60" cy="0.00" rx="22.89" ry="35.60" fill="#d6b06e" fill-opacity="0.95" /><ellipse cx="-25.17" cy="-25.17" rx="22.89" ry="35.60" fill="#d6b06e" fill-opacity="0.95" /><ellipse cx="-0.00" cy="-35.60" rx="22.89" ry="35.60" fill="#d6b06e" fill-opacity="0.95" /><ellipse cx="25.17" cy="-25.17" rx="22.89" ry="35.60" fill="#d6b06e" fill-opacity="0.95" />
        <circle cx="0" cy="0" r="22.89" fill="#d89263" />
        <circle cx="0" cy="0" r="11.44" fill="#fff7f0" fill-opacity="0.72" />
      </g>
    </g>
    
    <g transform="translate(380.29 454.31) rotate(11.23)">
      <path d="M 0 0 C -8 89.21, 10 148.68, -6 218.06" stroke="#a4bc95" stroke-width="11.89" fill="none" stroke-linecap="round" />
      <ellipse cx="-20" cy="109.03" rx="21.81" ry="41.63" fill="#a4bc95" fill-opacity="0.75" transform="rotate(-24)" />
      <ellipse cx="28" cy="134.80" rx="19.82" ry="37.67" fill="#a4bc95" fill-opacity="0.66" transform="rotate(20)" />
      <g transform="translate(0 0)">
        <ellipse cx="27.75" cy="0.00" rx="17.84" ry="27.75" fill="#bcd9d1" fill-opacity="0.95" /><ellipse cx="19.62" cy="19.62" rx="17.84" ry="27.75" fill="#bcd9d1" fill-opacity="0.95" /><ellipse cx="0.00" cy="27.75" rx="17.84" ry="27.75" fill="#bcd9d1" fill-opacity="0.95" /><ellipse cx="-19.62" cy="19.62" rx="17.84" ry="27.75" fill="#bcd9d1" fill-opacity="0.95" /><ellipse cx="-27.75" cy="0.00" rx="17.84" ry="27.75" fill="#bcd9d1" fill-opacity="0.95" /><ellipse cx="-19.62" cy="-19.62" rx="17.84" ry="27.75" fill="#bcd9d1" fill-opacity="0.95" /><ellipse cx="-0.00" cy="-27.75" rx="17.84" ry="27.75" fill="#bcd9d1" fill-opacity="0.95" /><ellipse cx="19.62" cy="-19.62" rx="17.84" ry="27.75" fill="#bcd9d1" fill-opacity="0.95" />
        <circle cx="0" cy="0" r="17.84" fill="#d89263" />
        <circle cx="0" cy="0" r="8.92" fill="#fff7f0" fill-opacity="0.72" />
      </g>
    </g>
    
    <g transform="translate(207.73 376.28) rotate(-12.01)">
      <path d="M 0 0 C -8 95.97, 10 159.96, -6 234.60" stroke="#7f9d76" stroke-width="12.80" fill="none" stroke-linecap="round" />
      <ellipse cx="-20" cy="117.30" rx="23.46" ry="44.79" fill="#7f9d76" fill-opacity="0.75" transform="rotate(-24)" />
      <ellipse cx="28" cy="145.03" rx="21.33" ry="40.52" fill="#7f9d76" fill-opacity="0.66" transform="rotate(20)" />
      <g transform="translate(0 0)">
        <ellipse cx="29.86" cy="0.00" rx="19.19" ry="29.86" fill="#c47b56" fill-opacity="0.95" /><ellipse cx="21.11" cy="21.11" rx="19.19" ry="29.86" fill="#c47b56" fill-opacity="0.95" /><ellipse cx="0.00" cy="29.86" rx="19.19" ry="29.86" fill="#c47b56" fill-opacity="0.95" /><ellipse cx="-21.11" cy="21.11" rx="19.19" ry="29.86" fill="#c47b56" fill-opacity="0.95" /><ellipse cx="-29.86" cy="0.00" rx="19.19" ry="29.86" fill="#c47b56" fill-opacity="0.95" /><ellipse cx="-21.11" cy="-21.11" rx="19.19" ry="29.86" fill="#c47b56" fill-opacity="0.95" /><ellipse cx="-0.00" cy="-29.86" rx="19.19" ry="29.86" fill="#c47b56" fill-opacity="0.95" /><ellipse cx="21.11" cy="-21.11" rx="19.19" ry="29.86" fill="#c47b56" fill-opacity="0.95" />
        <circle cx="0" cy="0" r="19.19" fill="#d89263" />
        <circle cx="0" cy="0" r="9.60" fill="#fff7f0" fill-opacity="0.72" />
      </g>
    </g>
    
    <g transform="translate(440.14 329.87) rotate(-8.08)">
      <path d="M 0 0 C -8 99.36, 10 165.59, -6 242.87" stroke="#62855f" stroke-width="13.25" fill="none" stroke-linecap="round" />
      <ellipse cx="-20" cy="121.44" rx="24.29" ry="46.37" fill="#62855f" fill-opacity="0.75" transform="rotate(-24)" />
      <ellipse cx="28" cy="150.14" rx="22.08" ry="41.95" fill="#62855f" fill-opacity="0.66" transform="rotate(20)" />
      <g transform="translate(0 0)">
        <ellipse cx="30.91" cy="0.00" rx="19.87" ry="30.91" fill="#f4d77e" fill-opacity="0.95" /><ellipse cx="21.86" cy="21.86" rx="19.87" ry="30.91" fill="#f4d77e" fill-opacity="0.95" /><ellipse cx="0.00" cy="30.91" rx="19.87" ry="30.91" fill="#f4d77e" fill-opacity="0.95" /><ellipse cx="-21.86" cy="21.86" rx="19.87" ry="30.91" fill="#f4d77e" fill-opacity="0.95" /><ellipse cx="-30.91" cy="0.00" rx="19.87" ry="30.91" fill="#f4d77e" fill-opacity="0.95" /><ellipse cx="-21.86" cy="-21.86" rx="19.87" ry="30.91" fill="#f4d77e" fill-opacity="0.95" /><ellipse cx="-0.00" cy="-30.91" rx="19.87" ry="30.91" fill="#f4d77e" fill-opacity="0.95" /><ellipse cx="21.86" cy="-21.86" rx="19.87" ry="30.91" fill="#f4d77e" fill-opacity="0.95" />
        <circle cx="0" cy="0" r="19.87" fill="#d89263" />
        <circle cx="0" cy="0" r="9.94" fill="#fff7f0" fill-opacity="0.72" />
      </g>
    </g>
    
    <g transform="translate(370.97 552.54) rotate(19.12)">
      <path d="M 0 0 C -8 95.74, 10 159.56, -6 234.02" stroke="#a4bc95" stroke-width="12.76" fill="none" stroke-linecap="round" />
      <ellipse cx="-20" cy="117.01" rx="23.40" ry="44.68" fill="#a4bc95" fill-opacity="0.75" transform="rotate(-24)" />
      <ellipse cx="28" cy="144.67" rx="21.27" ry="40.42" fill="#a4bc95" fill-opacity="0.66" transform="rotate(20)" />
      <g transform="translate(0 0)">
        <ellipse cx="29.78" cy="0.00" rx="19.15" ry="29.78" fill="#d6b06e" fill-opacity="0.95" /><ellipse cx="21.06" cy="21.06" rx="19.15" ry="29.78" fill="#d6b06e" fill-opacity="0.95" /><ellipse cx="0.00" cy="29.78" rx="19.15" ry="29.78" fill="#d6b06e" fill-opacity="0.95" /><ellipse cx="-21.06" cy="21.06" rx="19.15" ry="29.78" fill="#d6b06e" fill-opacity="0.95" /><ellipse cx="-29.78" cy="0.00" rx="19.15" ry="29.78" fill="#d6b06e" fill-opacity="0.95" /><ellipse cx="-21.06" cy="-21.06" rx="19.15" ry="29.78" fill="#d6b06e" fill-opacity="0.95" /><ellipse cx="-0.00" cy="-29.78" rx="19.15" ry="29.78" fill="#d6b06e" fill-opacity="0.95" /><ellipse cx="21.06" cy="-21.06" rx="19.15" ry="29.78" fill="#d6b06e" fill-opacity="0.95" />
        <circle cx="0" cy="0" r="19.15" fill="#d89263" />
        <circle cx="0" cy="0" r="9.57" fill="#fff7f0" fill-opacity="0.72" />
      </g>
    </g>
    
  </g>
  <path d="M0 980 C220 920, 420 1030, 900 930 L900 1100 L0 1100 Z" fill="#ffffff" fill-opacity="0.22" />
</svg>
