<svg xmlns="http://www.w3.org/2000/svg" width="900" height="1100" viewBox="0 0 900 1100">
  <defs>
    <linearGradient id="bg" x1="0" y1="0" x2="0" y2="1">
      <stop offset="0%" stop-color="#f5f8ef" />
      <stop offset="100%" stop-color="#eef3eb" />
    </linearGradient>
    <filter id="shadow" x="-20%" y="-20%" width="140%" height="140%">
      <feDropShadow dx="0" dy="22" stdDeviation="24" flood-color="#6c5d4f" flood-opacity="0.12" />
    </filter>
  </defs>
  <rect width="100%" height="100%" fill="url(#bg)" />
  <circle cx="730" cy="180" r="140" fill="#ffffff" fill-opacity="0.18" />
  <circle cx="150" cy="260" r="90" fill="#ffffff" fill-opacity="0.12" />
  
      <rect x="70" y="72" width="300" height="92" rx="24" fill="#ffffff" fill-opacity="0.34" />
      <text x="98" y="120" fill="#2f3a31" font-size="32" font-family="'PingFang SC','Microsoft YaHei',sans-serif" font-weight="600">立秋柔枝</text>
      <text x="98" y="152" fill="#4e6152" font-size="18" font-family="'PingFang SC','Microsoft YaHei',sans-serif">节气 · 春日</text>
    
  <g filter="url(#shadow)">
    <path d="M250 780 L650 780 L730 1080 L170 1080 Z" fill="#ece2d6" fill-opacity="0.88" />
  </g>
  <g>
    
    <g transform="translate(420.25 376.57) rotate(-22.83)">
      <path d="M 0 0 C -8 110.50, 10 184.16, -6 270.10" stroke="#7f9d76" stroke-width="14.73" fill="none" stroke-linecap="round" />
      <ellipse cx="-20" cy="135.05" rx="27.01" ry="51.56" fill="#7f9d76" fill-opacity="0.75" transform="rotate(-24)" />
      <ellipse cx="28" cy="166.97" rx="24.55" ry="46.65" fill="#7f9d76" fill-opacity="0.66" transform="rotate(20)" />
      <g transform="translate(0 0)">
        <ellipse cx="34.38" cy="0.00" rx="22.10" ry="34.38" fill="#f4d77e" fill-opacity="0.95" /><ellipse cx="24.31" cy="24.31" rx="22.10" ry="34.38" fill="#f4d77e" fill-opacity="0.95" /><ellipse cx="0.00" cy="34.38" rx="22.10" ry="34.38" fill="#f4d77e" fill-opacity="0.95" /><ellipse cx="-24.31" cy="24.31" rx="22.10" ry="34.38" fill="#f4d77e" fill-opacity="0.95" /><ellipse cx="-34.38" cy="0.00" rx="22.10" ry="34.38" fill="#f4d77e" fill-opacity="0.95" /><ellipse cx="-24.31" cy="-24.31" rx="22.10" ry="34.38" fill="#f4d77e" fill-opacity="0.95" /><ellipse cx="-0.00" cy="-34.38" rx="22.10" ry="34.38" fill="#f4d77e" fill-opacity="0.95" /><ellipse cx="24.31" cy="-24.31" rx="22.10" ry="34.38" fill="#f4d77e" fill-opacity="0.95" />
        <circle cx="0" cy="0" r="22.10" fill="#d89263" />
        <circle cx="0" cy="0" r="11.05" fill="#fff7f0" fill-opacity="0.72" />
      </g>
    </g>
    
    <g transform="translate(230.26 454.40) rotate(10.62)">
      <path d="M 0 0 C -8 89.14, 10 148.57, -6 217.90" stroke="#62855f" stroke-width="11.89" fill="none" stroke-linecap="round" />
      <ellipse cx="-20" cy="108.95" rx="21.79" ry="41.60" fill="#62855f" fill-opacity="0.75" transform="rotate(-24)" />
      <ellipse cx="28" cy="134.70" rx="19.81" ry="37.64" fill="#62855f" fill-opacity="0.66" transform="rotate(20)" />
      <g transform="translate(0 0)">
        <ellipse cx="27.73" cy="0.00" rx="17.83" ry="27.73" fill="#d6b06e" fill-opacity="0.95" /><ellipse cx="19.61" cy="19.61" rx="17.83" ry="27.73" fill="#d6b06e" fill-opacity="0.95" /><ellipse cx="0.00" cy="27.73" rx="17.83" ry="27.73" fill="#d6b06e" fill-opacity="0.95" /><ellipse cx="-19.61" cy="19.61" rx="17.83" ry="27.73" fill="#d6b06e" fill-opacity="0.95" /><ellipse cx="-27.73" cy="0.00" rx="17.83" ry="27.73" fill="#d6b06e" fill-opacity="0.95" /><ellipse cx="-19.61" cy="-19.61" rx="17.83" ry="27.73" fill="#d6b06e" fill-opacity="0.95" /><ellipse cx="-0.00" cy="-27.73" rx="17.83" ry="27.73" fill="#d6b06e" fill-opacity="0.95" /><ellipse cx="19.61" cy="-19.61" rx="17.83" ry="27.73" fill="#d6b06e" fill-opacity="0.95" />
        <circle cx="0" cy="0" r="17.83" fill="#d89263" />
        <circle cx="0" cy="0" r="8.91" fill="#fff7f0" fill-opacity="0.72" />
      </g>
    </g>
    
    <g transform="translate(662.31 522.93) rotate(-24.52)">
      <path d="M 0 0 C -8 108.51, 10 180.85, -6 265.25" stroke="#a4bc95" stroke-width="14.47" fill="none" stroke-linecap="round" />
      <ellipse cx="-20" cy="132.63" rx="26.53" ry="50.64" fill="#a4bc95" fill-opacity="0.75" transform="rotate(-24)" />
      <ellipse cx="28" cy="163.97" rx="24.11" ry="45.82" fill="#a4bc95" fill-opacity="0.66" transform="rotate(20)" />
      <g transform="translate(0 0)">
        <ellipse cx="33.76" cy="0.00" rx="21.70" ry="33.76" fill="#bcd9d1" fill-opacity="0.95" /><ellipse cx="23.87" cy="23.87" rx="21.70" ry="33.76" fill="#bcd9d1" fill-opacity="0.95" /><ellipse cx="0.00" cy="33.76" rx="21.70" ry="33.76" fill="#bcd9d1" fill-opacity="0.95" /><ellipse cx="-23.87" cy="23.87" rx="21.70" ry="33.76" fill="#bcd9d1" fill-opacity="0.95" /><ellipse cx="-33.76" cy="0.00" rx="21.70" ry="33.76" fill="#bcd9d1" fill-opacity="0.95" /><ellipse cx="-23.87" cy="-23.87" rx="21.70" ry="33.76" fill="#bcd9d1" fill-opacity="0.95" /><ellipse cx="-0.00" cy="-33.76" rx="21.70" ry="33.76" fill="#bcd9d1" fill-opacity="0.95" /><ellipse cx="23.87" cy="-23.87" rx="21.70" ry="33.76" fill="#bcd9d1" fill-opacity="0.95" />
        <circle cx="0" cy="0" r="21.70" fill="#d89263" />
        <circle cx="0" cy="0" r="10.85" fill="#fff7f0" fill-opacity="0.72" />
      </g>
    </g>
    
    <g transform="translate(446.72 318.85) rotate(-25.47)">
      <path d="M 0 0 C -8 81.42, 10 135.69, -6 199.01" stroke="#7f9d76" stroke-width="10.86" fill="none" stroke-linecap="round" />
      <ellipse cx="-20" cy="99.51" rx="19.90" ry="37.99" fill="#7f9d76" fill-opacity="0.75" transform="rotate(-24)" />
      <ellipse cx="28" cy="123.03" rx="18.09" ry="34.38" fill="#7f9d76" fill-opacity="0.66" transform="rotate(20)" />
      <g transform="translate(0 0)">
        <ellipse cx="25.33" cy="0.00" rx="16.28" ry="25.33" fill="#c47b56" fill-opacity="0.95" /><ellipse cx="17.91" cy="17.91" rx="16.28" ry="25.33" fill="#c47b56" fill-opacity="0.95" /><ellipse cx="0.00" cy="25.33" rx="16.28" ry="25.33" fill="#c47b56" fill-opacity="0.95" /><ellipse cx="-17.91" cy="17.91" rx="16.28" ry="25.33" fill="#c47b56" fill-opacity="0.95" /><ellipse cx="-25.33" cy="0.00" rx="16.28" ry="25.33" fill="#c47b56" fill-opacity="0.95" /><ellipse cx="-17.91" cy="-17.91" rx="16.28" ry="25.33" fill="#c47b56" fill-opacity="0.95" /><ellipse cx="-0.00" cy="-25.33" rx="16.28" ry="25.33" fill="#c47b56" fill-opacity="0.95" /><ellipse cx="17.91" cy="-17.91" rx="16.28" ry="25.33" fill="#c47b56" fill-opacity="0.95" />
        <circle cx="0" cy="0" r="16.28" fill="#d89263" />
        <circle cx="0" cy="0" r="8.14" fill="#fff7f0" fill-opacity="0.72" />
      </g>
    </g>
    
    <g transform="translate(589.87 480.08) rotate(-14.29)">
      <path d="M 0 0 C -8 89.57, 10 149.29, -6 218.96" stroke="#62855f" stroke-width="11.94" fill="none" stroke-linecap="round" />
      <ellipse cx="-20" cy="109.48" rx="21.90" ry="41.80" fill="#62855f" fill-opacity="0.75" transform="rotate(-24)" />
      <ellipse cx="28" cy="135.36" rx="19.91" ry="37.82" fill="#62855f" fill-opacity="0.66" transform="rotate(20)" />
      <g transform="translate(0 0)">
        <ellipse cx="27.87" cy="0.00" rx="17.91" ry="27.87" fill="#f4d77e" fill-opacity="0.95" /><ellipse cx="19.71" cy="19.71" rx="17.91" ry="27.87" fill="#f4d77e" fill-opacity="0.95" /><ellipse cx="0.00" cy="27.87" rx="17.91" ry="27.87" fill="#f4d77e" fill-opacity="0.95" /><ellipse cx="-19.71" cy="19.71" rx="17.91" ry="27.87" fill="#f4d77e" fill-opacity="0.95" /><ellipse cx="-27.87" cy="0.00" rx="17.91" ry="27.87" fill="#f4d77e" fill-opacity="0.95" /><ellipse cx="-19.71" cy="-19.71" rx="17.91" ry="27.87" fill="#f4d77e" fill-opacity="0.95" /><ellipse cx="-0.00" cy="-27.87" rx="17.91" ry="27.87" fill="#f4d77e" fill-opacity="0.95" /><ellipse cx="19.71" cy="-19.71" rx="17.91" ry="27.87" fill="#f4d77e" fill-opacity="0.95" />
        <circle cx="0" cy="0" r="17.91" fill="#d89263" />
        <circle cx="0" cy="0" r="8.96" fill="#fff7f0" fill-opacity="0.72" />
      </g>
    </g>
    
    <g transform="translate(523.29 365.61) rotate(20.90)">
      <path d="M 0 0 C -8 77.12, 10 128.53, -6 188.51" stroke="#a4bc95" stroke-width="10.28" fill="none" stroke-linecap="round" />
      <ellipse cx="-20" cy="94.26" rx="18.85" ry="35.99" fill="#a4bc95" fill-opacity="0.75" transform="rotate(-24)" />
      <ellipse cx="28" cy="116.54" rx="17.14" ry="32.56" fill="#a4bc95" fill-opacity="0.66" transform="rotate(20)" />
      <g transform="translate(0 0)">
        <ellipse cx="23.99" cy="0.00" rx="15.42" ry="23.99" fill="#d6b06e" fill-opacity="0.95" /><ellipse cx="16.97" cy="16.97" rx="15.42" ry="23.99" fill="#d6b06e" fill-opacity="0.95" /><ellipse cx="0.00" cy="23.99" rx="15.42" ry="23.99" fill="#d6b06e" fill-opacity="0.95" /><ellipse cx="-16.97" cy="16.97" rx="15.42" ry="23.99" fill="#d6b06e" fill-opacity="0.95" /><ellipse cx="-23.99" cy="0.00" rx="15.42" ry="23.99" fill="#d6b06e" fill-opacity="0.95" /><ellipse cx="-16.97" cy="-16.97" rx="15.42" ry="23.99" fill="#d6b06e" fill-opacity="0.95" /><ellipse cx="-0.00" cy="-23.99" rx="15.42" ry="23.99" fill="#d6b06e" fill-opacity="0.95" /><ellipse cx="16.97" cy="-16.97" rx="15.42" ry="23.99" fill="#d6b06e" fill-opacity="0.95" />
        <circle cx="0" cy="0" r="15.42" fill="#d89263" />
        <circle cx="0" cy="0" r="7.71" fill="#fff7f0" fill-opacity="0.72" />
      </g>
    </g>
    
    <g transform="translate(674.59 483.21) rotate(-11.56)">
      <path d="M 0 0 C -8 77.32, 10 128.86, -6 188.99" stroke="#7f9d76" stroke-width="10.31" fill="none" stroke-linecap="round" />
      <ellipse cx="-20" cy="94.50" rx="18.90" ry="36.08" fill="#7f9d76" fill-opacity="0.75" transform="rotate(-24)" />
      <ellipse cx="28" cy="116.83" rx="17.18" ry="32.64" fill="#7f9d76" fill-opacity="0.66" transform="rotate(20)" />
      <g transform="translate(0 0)">
        <ellipse cx="24.05" cy="0.00" rx="15.46" ry="24.05" fill="#bcd9d1" fill-opacity="0.95" /><ellipse cx="17.01" cy="17.01" rx="15.46" ry="24.05" fill="#bcd9d1" fill-opacity="0.95" /><ellipse cx="0.00" cy="24.05" rx="15.46" ry="24.05" fill="#bcd9d1" fill-opacity="0.95" /><ellipse cx="-17.01" cy="17.01" rx="15.46" ry="24.05" fill="#bcd9d1" fill-opacity="0.95" /><ellipse cx="-24.05" cy="0.00" rx="15.46" ry="24.05" fill="#bcd9d1" fill-opacity="0.95" /><ellipse cx="-17.01" cy="-17.01" rx="15.46" ry="24.05" fill="#bcd9d1" fill-opacity="0.95" /><ellipse cx="-0.00" cy="-24.05" rx="15.46" ry="24.05" fill="#bcd9d1" fill-opacity="0.95" /><ellipse cx="17.01" cy="-17.01" rx="15.46" ry="24.05" fill="#bcd9d1" fill-opacity="0.95" />
        <circle cx="0" cy="0" r="15.46" fill="#d89263" />
        <circle cx="0" cy="0" r="7.73" fill="#fff7f0" fill-opacity="0.72" />
      </g>
    </g>
    
  </g>
  <path d="M0 980 C220 920, 420 1030, 900 930 L900 1100 L0 1100 Z" fill="#ffffff" fill-opacity="0.22" />
</svg>
