<svg xmlns="http://www.w3.org/2000/svg" width="900" height="1100" viewBox="0 0 900 1100">
  <defs>
    <linearGradient id="bg" x1="0" y1="0" x2="0" y2="1">
      <stop offset="0%" stop-color="#f5f8ef" />
      <stop offset="100%" stop-color="#eef3eb" />
    </linearGradient>
    <filter id="shadow" x="-20%" y="-20%" width="140%" height="140%">
      <feDropShadow dx="0" dy="22" stdDeviation="24" flood-color="#6c5d4f" flood-opacity="0.12" />
    </filter>
  </defs>
  <rect width="100%" height="100%" fill="url(#bg)" />
  <circle cx="730" cy="180" r="140" fill="#ffffff" fill-opacity="0.18" />
  <circle cx="150" cy="260" r="90" fill="#ffffff" fill-opacity="0.12" />
  
      <rect x="70" y="72" width="300" height="92" rx="24" fill="#ffffff" fill-opacity="0.34" />
      <text x="98" y="120" fill="#2f3a31" font-size="32" font-family="'PingFang SC','Microsoft YaHei',sans-serif" font-weight="600">大雪静光</text>
      <text x="98" y="152" fill="#4e6152" font-size="18" font-family="'PingFang SC','Microsoft YaHei',sans-serif">夏日 · 枝叶感</text>
    
  <g filter="url(#shadow)">
    <path d="M250 780 L650 780 L730 1080 L170 1080 Z" fill="#ece2d6" fill-opacity="0.88" />
  </g>
  <g>
    
    <g transform="translate(192.68 329.23) rotate(16.93)">
      <path d="M 0 0 C -8 91.83, 10 153.06, -6 224.48" stroke="#7f9d76" stroke-width="12.24" fill="none" stroke-linecap="round" />
      <ellipse cx="-20" cy="112.24" rx="22.45" ry="42.86" fill="#7f9d76" fill-opacity="0.75" transform="rotate(-24)" />
      <ellipse cx="28" cy="138.77" rx="20.41" ry="38.77" fill="#7f9d76" fill-opacity="0.66" transform="rotate(20)" />
      <g transform="translate(0 0)">
        <ellipse cx="28.57" cy="0.00" rx="18.37" ry="28.57" fill="#f4d77e" fill-opacity="0.95" /><ellipse cx="20.20" cy="20.20" rx="18.37" ry="28.57" fill="#f4d77e" fill-opacity="0.95" /><ellipse cx="0.00" cy="28.57" rx="18.37" ry="28.57" fill="#f4d77e" fill-opacity="0.95" /><ellipse cx="-20.20" cy="20.20" rx="18.37" ry="28.57" fill="#f4d77e" fill-opacity="0.95" /><ellipse cx="-28.57" cy="0.00" rx="18.37" ry="28.57" fill="#f4d77e" fill-opacity="0.95" /><ellipse cx="-20.20" cy="-20.20" rx="18.37" ry="28.57" fill="#f4d77e" fill-opacity="0.95" /><ellipse cx="-0.00" cy="-28.57" rx="18.37" ry="28.57" fill="#f4d77e" fill-opacity="0.95" /><ellipse cx="20.20" cy="-20.20" rx="18.37" ry="28.57" fill="#f4d77e" fill-opacity="0.95" />
        <circle cx="0" cy="0" r="18.37" fill="#d89263" />
        <circle cx="0" cy="0" r="9.18" fill="#fff7f0" fill-opacity="0.72" />
      </g>
    </g>
    
    <g transform="translate(565.58 326.65) rotate(7.96)">
      <path d="M 0 0 C -8 82.57, 10 137.61, -6 201.83" stroke="#62855f" stroke-width="11.01" fill="none" stroke-linecap="round" />
      <ellipse cx="-20" cy="100.92" rx="20.18" ry="38.53" fill="#62855f" fill-opacity="0.75" transform="rotate(-24)" />
      <ellipse cx="28" cy="124.77" rx="18.35" ry="34.86" fill="#62855f" fill-opacity="0.66" transform="rotate(20)" />
      <g transform="translate(0 0)">
        <ellipse cx="25.69" cy="0.00" rx="16.51" ry="25.69" fill="#d6b06e" fill-opacity="0.95" /><ellipse cx="18.16" cy="18.16" rx="16.51" ry="25.69" fill="#d6b06e" fill-opacity="0.95" /><ellipse cx="0.00" cy="25.69" rx="16.51" ry="25.69" fill="#d6b06e" fill-opacity="0.95" /><ellipse cx="-18.16" cy="18.16" rx="16.51" ry="25.69" fill="#d6b06e" fill-opacity="0.95" /><ellipse cx="-25.69" cy="0.00" rx="16.51" ry="25.69" fill="#d6b06e" fill-opacity="0.95" /><ellipse cx="-18.16" cy="-18.16" rx="16.51" ry="25.69" fill="#d6b06e" fill-opacity="0.95" /><ellipse cx="-0.00" cy="-25.69" rx="16.51" ry="25.69" fill="#d6b06e" fill-opacity="0.95" /><ellipse cx="18.16" cy="-18.16" rx="16.51" ry="25.69" fill="#d6b06e" fill-opacity="0.95" />
        <circle cx="0" cy="0" r="16.51" fill="#d89263" />
        <circle cx="0" cy="0" r="8.26" fill="#fff7f0" fill-opacity="0.72" />
      </g>
    </g>
    
    <g transform="translate(705.15 454.10) rotate(4.31)">
      <path d="M 0 0 C -8 92.78, 10 154.63, -6 226.79" stroke="#a4bc95" stroke-width="12.37" fill="none" stroke-linecap="round" />
      <ellipse cx="-20" cy="113.40" rx="22.68" ry="43.30" fill="#a4bc95" fill-opacity="0.75" transform="rotate(-24)" />
      <ellipse cx="28" cy="140.20" rx="20.62" ry="39.17" fill="#a4bc95" fill-opacity="0.66" transform="rotate(20)" />
      <g transform="translate(0 0)">
        <ellipse cx="28.86" cy="0.00" rx="18.56" ry="28.86" fill="#bcd9d1" fill-opacity="0.95" /><ellipse cx="20.41" cy="20.41" rx="18.56" ry="28.86" fill="#bcd9d1" fill-opacity="0.95" /><ellipse cx="0.00" cy="28.86" rx="18.56" ry="28.86" fill="#bcd9d1" fill-opacity="0.95" /><ellipse cx="-20.41" cy="20.41" rx="18.56" ry="28.86" fill="#bcd9d1" fill-opacity="0.95" /><ellipse cx="-28.86" cy="0.00" rx="18.56" ry="28.86" fill="#bcd9d1" fill-opacity="0.95" /><ellipse cx="-20.41" cy="-20.41" rx="18.56" ry="28.86" fill="#bcd9d1" fill-opacity="0.95" /><ellipse cx="-0.00" cy="-28.86" rx="18.56" ry="28.86" fill="#bcd9d1" fill-opacity="0.95" /><ellipse cx="20.41" cy="-20.41" rx="18.56" ry="28.86" fill="#bcd9d1" fill-opacity="0.95" />
        <circle cx="0" cy="0" r="18.56" fill="#d89263" />
        <circle cx="0" cy="0" r="9.28" fill="#fff7f0" fill-opacity="0.72" />
      </g>
    </g>
    
    <g transform="translate(409.40 416.09) rotate(15.41)">
      <path d="M 0 0 C -8 85.71, 10 142.85, -6 209.52" stroke="#7f9d76" stroke-width="11.43" fill="none" stroke-linecap="round" />
      <ellipse cx="-20" cy="104.76" rx="20.95" ry="40.00" fill="#7f9d76" fill-opacity="0.75" transform="rotate(-24)" />
      <ellipse cx="28" cy="129.52" rx="19.05" ry="36.19" fill="#7f9d76" fill-opacity="0.66" transform="rotate(20)" />
      <g transform="translate(0 0)">
        <ellipse cx="26.67" cy="0.00" rx="17.14" ry="26.67" fill="#c47b56" fill-opacity="0.95" /><ellipse cx="18.86" cy="18.86" rx="17.14" ry="26.67" fill="#c47b56" fill-opacity="0.95" /><ellipse cx="0.00" cy="26.67" rx="17.14" ry="26.67" fill="#c47b56" fill-opacity="0.95" /><ellipse cx="-18.86" cy="18.86" rx="17.14" ry="26.67" fill="#c47b56" fill-opacity="0.95" /><ellipse cx="-26.67" cy="0.00" rx="17.14" ry="26.67" fill="#c47b56" fill-opacity="0.95" /><ellipse cx="-18.86" cy="-18.86" rx="17.14" ry="26.67" fill="#c47b56" fill-opacity="0.95" /><ellipse cx="-0.00" cy="-26.67" rx="17.14" ry="26.67" fill="#c47b56" fill-opacity="0.95" /><ellipse cx="18.86" cy="-18.86" rx="17.14" ry="26.67" fill="#c47b56" fill-opacity="0.95" />
        <circle cx="0" cy="0" r="17.14" fill="#d89263" />
        <circle cx="0" cy="0" r="8.57" fill="#fff7f0" fill-opacity="0.72" />
      </g>
    </g>
    
    <g transform="translate(681.78 482.10) rotate(-11.49)">
      <path d="M 0 0 C -8 72.38, 10 120.63, -6 176.92" stroke="#62855f" stroke-width="9.65" fill="none" stroke-linecap="round" />
      <ellipse cx="-20" cy="88.46" rx="17.69" ry="33.78" fill="#62855f" fill-opacity="0.75" transform="rotate(-24)" />
      <ellipse cx="28" cy="109.37" rx="16.08" ry="30.56" fill="#62855f" fill-opacity="0.66" transform="rotate(20)" />
      <g transform="translate(0 0)">
        <ellipse cx="22.52" cy="0.00" rx="14.48" ry="22.52" fill="#f4d77e" fill-opacity="0.95" /><ellipse cx="15.92" cy="15.92" rx="14.48" ry="22.52" fill="#f4d77e" fill-opacity="0.95" /><ellipse cx="0.00" cy="22.52" rx="14.48" ry="22.52" fill="#f4d77e" fill-opacity="0.95" /><ellipse cx="-15.92" cy="15.92" rx="14.48" ry="22.52" fill="#f4d77e" fill-opacity="0.95" /><ellipse cx="-22.52" cy="0.00" rx="14.48" ry="22.52" fill="#f4d77e" fill-opacity="0.95" /><ellipse cx="-15.92" cy="-15.92" rx="14.48" ry="22.52" fill="#f4d77e" fill-opacity="0.95" /><ellipse cx="-0.00" cy="-22.52" rx="14.48" ry="22.52" fill="#f4d77e" fill-opacity="0.95" /><ellipse cx="15.92" cy="-15.92" rx="14.48" ry="22.52" fill="#f4d77e" fill-opacity="0.95" />
        <circle cx="0" cy="0" r="14.48" fill="#d89263" />
        <circle cx="0" cy="0" r="7.24" fill="#fff7f0" fill-opacity="0.72" />
      </g>
    </g>
    
    <g transform="translate(228.67 321.34) rotate(-18.41)">
      <path d="M 0 0 C -8 100.16, 10 166.93, -6 244.83" stroke="#a4bc95" stroke-width="13.35" fill="none" stroke-linecap="round" />
      <ellipse cx="-20" cy="122.41" rx="24.48" ry="46.74" fill="#a4bc95" fill-opacity="0.75" transform="rotate(-24)" />
      <ellipse cx="28" cy="151.35" rx="22.26" ry="42.29" fill="#a4bc95" fill-opacity="0.66" transform="rotate(20)" />
      <g transform="translate(0 0)">
        <ellipse cx="31.16" cy="0.00" rx="20.03" ry="31.16" fill="#d6b06e" fill-opacity="0.95" /><ellipse cx="22.03" cy="22.03" rx="20.03" ry="31.16" fill="#d6b06e" fill-opacity="0.95" /><ellipse cx="0.00" cy="31.16" rx="20.03" ry="31.16" fill="#d6b06e" fill-opacity="0.95" /><ellipse cx="-22.03" cy="22.03" rx="20.03" ry="31.16" fill="#d6b06e" fill-opacity="0.95" /><ellipse cx="-31.16" cy="0.00" rx="20.03" ry="31.16" fill="#d6b06e" fill-opacity="0.95" /><ellipse cx="-22.03" cy="-22.03" rx="20.03" ry="31.16" fill="#d6b06e" fill-opacity="0.95" /><ellipse cx="-0.00" cy="-31.16" rx="20.03" ry="31.16" fill="#d6b06e" fill-opacity="0.95" /><ellipse cx="22.03" cy="-22.03" rx="20.03" ry="31.16" fill="#d6b06e" fill-opacity="0.95" />
        <circle cx="0" cy="0" r="20.03" fill="#d89263" />
        <circle cx="0" cy="0" r="10.02" fill="#fff7f0" fill-opacity="0.72" />
      </g>
    </g>
    
  </g>
  <path d="M0 980 C220 920, 420 1030, 900 930 L900 1100 L0 1100 Z" fill="#ffffff" fill-opacity="0.22" />
</svg>
