<svg xmlns="http://www.w3.org/2000/svg" width="900" height="1100" viewBox="0 0 900 1100">
  <defs>
    <linearGradient id="bg" x1="0" y1="0" x2="0" y2="1">
      <stop offset="0%" stop-color="#f5f8ef" />
      <stop offset="100%" stop-color="#eef3eb" />
    </linearGradient>
    <filter id="shadow" x="-20%" y="-20%" width="140%" height="140%">
      <feDropShadow dx="0" dy="22" stdDeviation="24" flood-color="#6c5d4f" flood-opacity="0.12" />
    </filter>
  </defs>
  <rect width="100%" height="100%" fill="url(#bg)" />
  <circle cx="730" cy="180" r="140" fill="#ffffff" fill-opacity="0.18" />
  <circle cx="150" cy="260" r="90" fill="#ffffff" fill-opacity="0.12" />
  
      <rect x="70" y="72" width="300" height="92" rx="24" fill="#ffffff" fill-opacity="0.34" />
      <text x="98" y="120" fill="#2f3a31" font-size="32" font-family="'PingFang SC','Microsoft YaHei',sans-serif" font-weight="600">谷雨花声</text>
      <text x="98" y="152" fill="#4e6152" font-size="18" font-family="'PingFang SC','Microsoft YaHei',sans-serif">节令花束 · 居家</text>
    
  <g filter="url(#shadow)">
    <path d="M250 780 L650 780 L730 1080 L170 1080 Z" fill="#ece2d6" fill-opacity="0.88" />
  </g>
  <g>
    
    <g transform="translate(397.58 551.15) rotate(18.22)">
      <path d="M 0 0 C -8 104.12, 10 173.53, -6 254.51" stroke="#7f9d76" stroke-width="13.88" fill="none" stroke-linecap="round" />
      <ellipse cx="-20" cy="127.26" rx="25.45" ry="48.59" fill="#7f9d76" fill-opacity="0.75" transform="rotate(-24)" />
      <ellipse cx="28" cy="157.33" rx="23.14" ry="43.96" fill="#7f9d76" fill-opacity="0.66" transform="rotate(20)" />
      <g transform="translate(0 0)">
        <ellipse cx="32.39" cy="0.00" rx="20.82" ry="32.39" fill="#f4d77e" fill-opacity="0.95" /><ellipse cx="22.90" cy="22.90" rx="20.82" ry="32.39" fill="#f4d77e" fill-opacity="0.95" /><ellipse cx="0.00" cy="32.39" rx="20.82" ry="32.39" fill="#f4d77e" fill-opacity="0.95" /><ellipse cx="-22.90" cy="22.90" rx="20.82" ry="32.39" fill="#f4d77e" fill-opacity="0.95" /><ellipse cx="-32.39" cy="0.00" rx="20.82" ry="32.39" fill="#f4d77e" fill-opacity="0.95" /><ellipse cx="-22.90" cy="-22.90" rx="20.82" ry="32.39" fill="#f4d77e" fill-opacity="0.95" /><ellipse cx="-0.00" cy="-32.39" rx="20.82" ry="32.39" fill="#f4d77e" fill-opacity="0.95" /><ellipse cx="22.90" cy="-22.90" rx="20.82" ry="32.39" fill="#f4d77e" fill-opacity="0.95" />
        <circle cx="0" cy="0" r="20.82" fill="#d89263" />
        <circle cx="0" cy="0" r="10.41" fill="#fff7f0" fill-opacity="0.72" />
      </g>
    </g>
    
    <g transform="translate(266.11 324.93) rotate(22.18)">
      <path d="M 0 0 C -8 83.36, 10 138.93, -6 203.77" stroke="#62855f" stroke-width="11.11" fill="none" stroke-linecap="round" />
      <ellipse cx="-20" cy="101.88" rx="20.38" ry="38.90" fill="#62855f" fill-opacity="0.75" transform="rotate(-24)" />
      <ellipse cx="28" cy="125.97" rx="18.52" ry="35.20" fill="#62855f" fill-opacity="0.66" transform="rotate(20)" />
      <g transform="translate(0 0)">
        <ellipse cx="25.93" cy="0.00" rx="16.67" ry="25.93" fill="#d6b06e" fill-opacity="0.95" /><ellipse cx="18.34" cy="18.34" rx="16.67" ry="25.93" fill="#d6b06e" fill-opacity="0.95" /><ellipse cx="0.00" cy="25.93" rx="16.67" ry="25.93" fill="#d6b06e" fill-opacity="0.95" /><ellipse cx="-18.34" cy="18.34" rx="16.67" ry="25.93" fill="#d6b06e" fill-opacity="0.95" /><ellipse cx="-25.93" cy="0.00" rx="16.67" ry="25.93" fill="#d6b06e" fill-opacity="0.95" /><ellipse cx="-18.34" cy="-18.34" rx="16.67" ry="25.93" fill="#d6b06e" fill-opacity="0.95" /><ellipse cx="-0.00" cy="-25.93" rx="16.67" ry="25.93" fill="#d6b06e" fill-opacity="0.95" /><ellipse cx="18.34" cy="-18.34" rx="16.67" ry="25.93" fill="#d6b06e" fill-opacity="0.95" />
        <circle cx="0" cy="0" r="16.67" fill="#d89263" />
        <circle cx="0" cy="0" r="8.34" fill="#fff7f0" fill-opacity="0.72" />
      </g>
    </g>
    
    <g transform="translate(472.23 489.43) rotate(-22.11)">
      <path d="M 0 0 C -8 113.79, 10 189.64, -6 278.14" stroke="#a4bc95" stroke-width="15.17" fill="none" stroke-linecap="round" />
      <ellipse cx="-20" cy="139.07" rx="27.81" ry="53.10" fill="#a4bc95" fill-opacity="0.75" transform="rotate(-24)" />
      <ellipse cx="28" cy="171.94" rx="25.29" ry="48.04" fill="#a4bc95" fill-opacity="0.66" transform="rotate(20)" />
      <g transform="translate(0 0)">
        <ellipse cx="35.40" cy="0.00" rx="22.76" ry="35.40" fill="#bcd9d1" fill-opacity="0.95" /><ellipse cx="25.03" cy="25.03" rx="22.76" ry="35.40" fill="#bcd9d1" fill-opacity="0.95" /><ellipse cx="0.00" cy="35.40" rx="22.76" ry="35.40" fill="#bcd9d1" fill-opacity="0.95" /><ellipse cx="-25.03" cy="25.03" rx="22.76" ry="35.40" fill="#bcd9d1" fill-opacity="0.95" /><ellipse cx="-35.40" cy="0.00" rx="22.76" ry="35.40" fill="#bcd9d1" fill-opacity="0.95" /><ellipse cx="-25.03" cy="-25.03" rx="22.76" ry="35.40" fill="#bcd9d1" fill-opacity="0.95" /><ellipse cx="-0.00" cy="-35.40" rx="22.76" ry="35.40" fill="#bcd9d1" fill-opacity="0.95" /><ellipse cx="25.03" cy="-25.03" rx="22.76" ry="35.40" fill="#bcd9d1" fill-opacity="0.95" />
        <circle cx="0" cy="0" r="22.76" fill="#d89263" />
        <circle cx="0" cy="0" r="11.38" fill="#fff7f0" fill-opacity="0.72" />
      </g>
    </g>
    
    <g transform="translate(703.49 324.41) rotate(12.53)">
      <path d="M 0 0 C -8 114.60, 10 191.00, -6 280.13" stroke="#7f9d76" stroke-width="15.28" fill="none" stroke-linecap="round" />
      <ellipse cx="-20" cy="140.07" rx="28.01" ry="53.48" fill="#7f9d76" fill-opacity="0.75" transform="rotate(-24)" />
      <ellipse cx="28" cy="173.17" rx="25.47" ry="48.39" fill="#7f9d76" fill-opacity="0.66" transform="rotate(20)" />
      <g transform="translate(0 0)">
        <ellipse cx="35.65" cy="0.00" rx="22.92" ry="35.65" fill="#c47b56" fill-opacity="0.95" /><ellipse cx="25.21" cy="25.21" rx="22.92" ry="35.65" fill="#c47b56" fill-opacity="0.95" /><ellipse cx="0.00" cy="35.65" rx="22.92" ry="35.65" fill="#c47b56" fill-opacity="0.95" /><ellipse cx="-25.21" cy="25.21" rx="22.92" ry="35.65" fill="#c47b56" fill-opacity="0.95" /><ellipse cx="-35.65" cy="0.00" rx="22.92" ry="35.65" fill="#c47b56" fill-opacity="0.95" /><ellipse cx="-25.21" cy="-25.21" rx="22.92" ry="35.65" fill="#c47b56" fill-opacity="0.95" /><ellipse cx="-0.00" cy="-35.65" rx="22.92" ry="35.65" fill="#c47b56" fill-opacity="0.95" /><ellipse cx="25.21" cy="-25.21" rx="22.92" ry="35.65" fill="#c47b56" fill-opacity="0.95" />
        <circle cx="0" cy="0" r="22.92" fill="#d89263" />
        <circle cx="0" cy="0" r="11.46" fill="#fff7f0" fill-opacity="0.72" />
      </g>
    </g>
    
    <g transform="translate(701.97 470.72) rotate(2.96)">
      <path d="M 0 0 C -8 106.01, 10 176.69, -6 259.15" stroke="#62855f" stroke-width="14.14" fill="none" stroke-linecap="round" />
      <ellipse cx="-20" cy="129.57" rx="25.91" ry="49.47" fill="#62855f" fill-opacity="0.75" transform="rotate(-24)" />
      <ellipse cx="28" cy="160.20" rx="23.56" ry="44.76" fill="#62855f" fill-opacity="0.66" transform="rotate(20)" />
      <g transform="translate(0 0)">
        <ellipse cx="32.98" cy="0.00" rx="21.20" ry="32.98" fill="#f4d77e" fill-opacity="0.95" /><ellipse cx="23.32" cy="23.32" rx="21.20" ry="32.98" fill="#f4d77e" fill-opacity="0.95" /><ellipse cx="0.00" cy="32.98" rx="21.20" ry="32.98" fill="#f4d77e" fill-opacity="0.95" /><ellipse cx="-23.32" cy="23.32" rx="21.20" ry="32.98" fill="#f4d77e" fill-opacity="0.95" /><ellipse cx="-32.98" cy="0.00" rx="21.20" ry="32.98" fill="#f4d77e" fill-opacity="0.95" /><ellipse cx="-23.32" cy="-23.32" rx="21.20" ry="32.98" fill="#f4d77e" fill-opacity="0.95" /><ellipse cx="-0.00" cy="-32.98" rx="21.20" ry="32.98" fill="#f4d77e" fill-opacity="0.95" /><ellipse cx="23.32" cy="-23.32" rx="21.20" ry="32.98" fill="#f4d77e" fill-opacity="0.95" />
        <circle cx="0" cy="0" r="21.20" fill="#d89263" />
        <circle cx="0" cy="0" r="10.60" fill="#fff7f0" fill-opacity="0.72" />
      </g>
    </g>
    
    <g transform="translate(549.61 334.27) rotate(8.84)">
      <path d="M 0 0 C -8 106.78, 10 177.96, -6 261.01" stroke="#a4bc95" stroke-width="14.24" fill="none" stroke-linecap="round" />
      <ellipse cx="-20" cy="130.51" rx="26.10" ry="49.83" fill="#a4bc95" fill-opacity="0.75" transform="rotate(-24)" />
      <ellipse cx="28" cy="161.35" rx="23.73" ry="45.08" fill="#a4bc95" fill-opacity="0.66" transform="rotate(20)" />
      <g transform="translate(0 0)">
        <ellipse cx="33.22" cy="0.00" rx="21.36" ry="33.22" fill="#d6b06e" fill-opacity="0.95" /><ellipse cx="23.49" cy="23.49" rx="21.36" ry="33.22" fill="#d6b06e" fill-opacity="0.95" /><ellipse cx="0.00" cy="33.22" rx="21.36" ry="33.22" fill="#d6b06e" fill-opacity="0.95" /><ellipse cx="-23.49" cy="23.49" rx="21.36" ry="33.22" fill="#d6b06e" fill-opacity="0.95" /><ellipse cx="-33.22" cy="0.00" rx="21.36" ry="33.22" fill="#d6b06e" fill-opacity="0.95" /><ellipse cx="-23.49" cy="-23.49" rx="21.36" ry="33.22" fill="#d6b06e" fill-opacity="0.95" /><ellipse cx="-0.00" cy="-33.22" rx="21.36" ry="33.22" fill="#d6b06e" fill-opacity="0.95" /><ellipse cx="23.49" cy="-23.49" rx="21.36" ry="33.22" fill="#d6b06e" fill-opacity="0.95" />
        <circle cx="0" cy="0" r="21.36" fill="#d89263" />
        <circle cx="0" cy="0" r="10.68" fill="#fff7f0" fill-opacity="0.72" />
      </g>
    </g>
    
    <g transform="translate(519.81 324.37) rotate(0.87)">
      <path d="M 0 0 C -8 92.25, 10 153.75, -6 225.49" stroke="#7f9d76" stroke-width="12.30" fill="none" stroke-linecap="round" />
      <ellipse cx="-20" cy="112.75" rx="22.55" ry="43.05" fill="#7f9d76" fill-opacity="0.75" transform="rotate(-24)" />
      <ellipse cx="28" cy="139.40" rx="20.50" ry="38.95" fill="#7f9d76" fill-opacity="0.66" transform="rotate(20)" />
      <g transform="translate(0 0)">
        <ellipse cx="28.70" cy="0.00" rx="18.45" ry="28.70" fill="#bcd9d1" fill-opacity="0.95" /><ellipse cx="20.29" cy="20.29" rx="18.45" ry="28.70" fill="#bcd9d1" fill-opacity="0.95" /><ellipse cx="0.00" cy="28.70" rx="18.45" ry="28.70" fill="#bcd9d1" fill-opacity="0.95" /><ellipse cx="-20.29" cy="20.29" rx="18.45" ry="28.70" fill="#bcd9d1" fill-opacity="0.95" /><ellipse cx="-28.70" cy="0.00" rx="18.45" ry="28.70" fill="#bcd9d1" fill-opacity="0.95" /><ellipse cx="-20.29" cy="-20.29" rx="18.45" ry="28.70" fill="#bcd9d1" fill-opacity="0.95" /><ellipse cx="-0.00" cy="-28.70" rx="18.45" ry="28.70" fill="#bcd9d1" fill-opacity="0.95" /><ellipse cx="20.29" cy="-20.29" rx="18.45" ry="28.70" fill="#bcd9d1" fill-opacity="0.95" />
        <circle cx="0" cy="0" r="18.45" fill="#d89263" />
        <circle cx="0" cy="0" r="9.22" fill="#fff7f0" fill-opacity="0.72" />
      </g>
    </g>
    
  </g>
  <path d="M0 980 C220 920, 420 1030, 900 930 L900 1100 L0 1100 Z" fill="#ffffff" fill-opacity="0.22" />
</svg>
