<svg xmlns="http://www.w3.org/2000/svg" width="900" height="1100" viewBox="0 0 900 1100">
  <defs>
    <linearGradient id="bg" x1="0" y1="0" x2="0" y2="1">
      <stop offset="0%" stop-color="#f5f8ef" />
      <stop offset="100%" stop-color="#eef3eb" />
    </linearGradient>
    <filter id="shadow" x="-20%" y="-20%" width="140%" height="140%">
      <feDropShadow dx="0" dy="22" stdDeviation="24" flood-color="#6c5d4f" flood-opacity="0.12" />
    </filter>
  </defs>
  <rect width="100%" height="100%" fill="url(#bg)" />
  <circle cx="730" cy="180" r="140" fill="#ffffff" fill-opacity="0.18" />
  <circle cx="150" cy="260" r="90" fill="#ffffff" fill-opacity="0.12" />
  
      <rect x="70" y="72" width="300" height="92" rx="24" fill="#ffffff" fill-opacity="0.34" />
      <text x="98" y="120" fill="#2f3a31" font-size="32" font-family="'PingFang SC','Microsoft YaHei',sans-serif" font-weight="600">仲夏清氧</text>
      <text x="98" y="152" fill="#4e6152" font-size="18" font-family="'PingFang SC','Microsoft YaHei',sans-serif">秋冬 · 暖调</text>
    
  <g filter="url(#shadow)">
    <path d="M250 780 L650 780 L730 1080 L170 1080 Z" fill="#ece2d6" fill-opacity="0.88" />
  </g>
  <g>
    
    <g transform="translate(216.30 537.07) rotate(-25.29)">
      <path d="M 0 0 C -8 92.83, 10 154.72, -6 226.92" stroke="#7f9d76" stroke-width="12.38" fill="none" stroke-linecap="round" />
      <ellipse cx="-20" cy="113.46" rx="22.69" ry="43.32" fill="#7f9d76" fill-opacity="0.75" transform="rotate(-24)" />
      <ellipse cx="28" cy="140.28" rx="20.63" ry="39.20" fill="#7f9d76" fill-opacity="0.66" transform="rotate(20)" />
      <g transform="translate(0 0)">
        <ellipse cx="28.88" cy="0.00" rx="18.57" ry="28.88" fill="#f4d77e" fill-opacity="0.95" /><ellipse cx="20.42" cy="20.42" rx="18.57" ry="28.88" fill="#f4d77e" fill-opacity="0.95" /><ellipse cx="0.00" cy="28.88" rx="18.57" ry="28.88" fill="#f4d77e" fill-opacity="0.95" /><ellipse cx="-20.42" cy="20.42" rx="18.57" ry="28.88" fill="#f4d77e" fill-opacity="0.95" /><ellipse cx="-28.88" cy="0.00" rx="18.57" ry="28.88" fill="#f4d77e" fill-opacity="0.95" /><ellipse cx="-20.42" cy="-20.42" rx="18.57" ry="28.88" fill="#f4d77e" fill-opacity="0.95" /><ellipse cx="-0.00" cy="-28.88" rx="18.57" ry="28.88" fill="#f4d77e" fill-opacity="0.95" /><ellipse cx="20.42" cy="-20.42" rx="18.57" ry="28.88" fill="#f4d77e" fill-opacity="0.95" />
        <circle cx="0" cy="0" r="18.57" fill="#d89263" />
        <circle cx="0" cy="0" r="9.28" fill="#fff7f0" fill-opacity="0.72" />
      </g>
    </g>
    
    <g transform="translate(476.35 326.40) rotate(4.80)">
      <path d="M 0 0 C -8 85.19, 10 141.99, -6 208.25" stroke="#62855f" stroke-width="11.36" fill="none" stroke-linecap="round" />
      <ellipse cx="-20" cy="104.12" rx="20.82" ry="39.76" fill="#62855f" fill-opacity="0.75" transform="rotate(-24)" />
      <ellipse cx="28" cy="128.74" rx="18.93" ry="35.97" fill="#62855f" fill-opacity="0.66" transform="rotate(20)" />
      <g transform="translate(0 0)">
        <ellipse cx="26.50" cy="0.00" rx="17.04" ry="26.50" fill="#d6b06e" fill-opacity="0.95" /><ellipse cx="18.74" cy="18.74" rx="17.04" ry="26.50" fill="#d6b06e" fill-opacity="0.95" /><ellipse cx="0.00" cy="26.50" rx="17.04" ry="26.50" fill="#d6b06e" fill-opacity="0.95" /><ellipse cx="-18.74" cy="18.74" rx="17.04" ry="26.50" fill="#d6b06e" fill-opacity="0.95" /><ellipse cx="-26.50" cy="0.00" rx="17.04" ry="26.50" fill="#d6b06e" fill-opacity="0.95" /><ellipse cx="-18.74" cy="-18.74" rx="17.04" ry="26.50" fill="#d6b06e" fill-opacity="0.95" /><ellipse cx="-0.00" cy="-26.50" rx="17.04" ry="26.50" fill="#d6b06e" fill-opacity="0.95" /><ellipse cx="18.74" cy="-18.74" rx="17.04" ry="26.50" fill="#d6b06e" fill-opacity="0.95" />
        <circle cx="0" cy="0" r="17.04" fill="#d89263" />
        <circle cx="0" cy="0" r="8.52" fill="#fff7f0" fill-opacity="0.72" />
      </g>
    </g>
    
    <g transform="translate(671.18 453.33) rotate(-21.12)">
      <path d="M 0 0 C -8 101.58, 10 169.30, -6 248.31" stroke="#a4bc95" stroke-width="13.54" fill="none" stroke-linecap="round" />
      <ellipse cx="-20" cy="124.15" rx="24.83" ry="47.40" fill="#a4bc95" fill-opacity="0.75" transform="rotate(-24)" />
      <ellipse cx="28" cy="153.50" rx="22.57" ry="42.89" fill="#a4bc95" fill-opacity="0.66" transform="rotate(20)" />
      <g transform="translate(0 0)">
        <ellipse cx="31.60" cy="0.00" rx="20.32" ry="31.60" fill="#bcd9d1" fill-opacity="0.95" /><ellipse cx="22.35" cy="22.35" rx="20.32" ry="31.60" fill="#bcd9d1" fill-opacity="0.95" /><ellipse cx="0.00" cy="31.60" rx="20.32" ry="31.60" fill="#bcd9d1" fill-opacity="0.95" /><ellipse cx="-22.35" cy="22.35" rx="20.32" ry="31.60" fill="#bcd9d1" fill-opacity="0.95" /><ellipse cx="-31.60" cy="0.00" rx="20.32" ry="31.60" fill="#bcd9d1" fill-opacity="0.95" /><ellipse cx="-22.35" cy="-22.35" rx="20.32" ry="31.60" fill="#bcd9d1" fill-opacity="0.95" /><ellipse cx="-0.00" cy="-31.60" rx="20.32" ry="31.60" fill="#bcd9d1" fill-opacity="0.95" /><ellipse cx="22.35" cy="-22.35" rx="20.32" ry="31.60" fill="#bcd9d1" fill-opacity="0.95" />
        <circle cx="0" cy="0" r="20.32" fill="#d89263" />
        <circle cx="0" cy="0" r="10.16" fill="#fff7f0" fill-opacity="0.72" />
      </g>
    </g>
    
    <g transform="translate(568.88 472.28) rotate(-3.22)">
      <path d="M 0 0 C -8 77.19, 10 128.66, -6 188.70" stroke="#7f9d76" stroke-width="10.29" fill="none" stroke-linecap="round" />
      <ellipse cx="-20" cy="94.35" rx="18.87" ry="36.02" fill="#7f9d76" fill-opacity="0.75" transform="rotate(-24)" />
      <ellipse cx="28" cy="116.65" rx="17.15" ry="32.59" fill="#7f9d76" fill-opacity="0.66" transform="rotate(20)" />
      <g transform="translate(0 0)">
        <ellipse cx="24.02" cy="0.00" rx="15.44" ry="24.02" fill="#c47b56" fill-opacity="0.95" /><ellipse cx="16.98" cy="16.98" rx="15.44" ry="24.02" fill="#c47b56" fill-opacity="0.95" /><ellipse cx="0.00" cy="24.02" rx="15.44" ry="24.02" fill="#c47b56" fill-opacity="0.95" /><ellipse cx="-16.98" cy="16.98" rx="15.44" ry="24.02" fill="#c47b56" fill-opacity="0.95" /><ellipse cx="-24.02" cy="0.00" rx="15.44" ry="24.02" fill="#c47b56" fill-opacity="0.95" /><ellipse cx="-16.98" cy="-16.98" rx="15.44" ry="24.02" fill="#c47b56" fill-opacity="0.95" /><ellipse cx="-0.00" cy="-24.02" rx="15.44" ry="24.02" fill="#c47b56" fill-opacity="0.95" /><ellipse cx="16.98" cy="-16.98" rx="15.44" ry="24.02" fill="#c47b56" fill-opacity="0.95" />
        <circle cx="0" cy="0" r="15.44" fill="#d89263" />
        <circle cx="0" cy="0" r="7.72" fill="#fff7f0" fill-opacity="0.72" />
      </g>
    </g>
    
    <g transform="translate(365.42 372.15) rotate(-10.00)">
      <path d="M 0 0 C -8 103.51, 10 172.52, -6 253.04" stroke="#62855f" stroke-width="13.80" fill="none" stroke-linecap="round" />
      <ellipse cx="-20" cy="126.52" rx="25.30" ry="48.31" fill="#62855f" fill-opacity="0.75" transform="rotate(-24)" />
      <ellipse cx="28" cy="156.42" rx="23.00" ry="43.71" fill="#62855f" fill-opacity="0.66" transform="rotate(20)" />
      <g transform="translate(0 0)">
        <ellipse cx="32.20" cy="0.00" rx="20.70" ry="32.20" fill="#f4d77e" fill-opacity="0.95" /><ellipse cx="22.77" cy="22.77" rx="20.70" ry="32.20" fill="#f4d77e" fill-opacity="0.95" /><ellipse cx="0.00" cy="32.20" rx="20.70" ry="32.20" fill="#f4d77e" fill-opacity="0.95" /><ellipse cx="-22.77" cy="22.77" rx="20.70" ry="32.20" fill="#f4d77e" fill-opacity="0.95" /><ellipse cx="-32.20" cy="0.00" rx="20.70" ry="32.20" fill="#f4d77e" fill-opacity="0.95" /><ellipse cx="-22.77" cy="-22.77" rx="20.70" ry="32.20" fill="#f4d77e" fill-opacity="0.95" /><ellipse cx="-0.00" cy="-32.20" rx="20.70" ry="32.20" fill="#f4d77e" fill-opacity="0.95" /><ellipse cx="22.77" cy="-22.77" rx="20.70" ry="32.20" fill="#f4d77e" fill-opacity="0.95" />
        <circle cx="0" cy="0" r="20.70" fill="#d89263" />
        <circle cx="0" cy="0" r="10.35" fill="#fff7f0" fill-opacity="0.72" />
      </g>
    </g>
    
    <g transform="translate(220.53 345.92) rotate(12.29)">
      <path d="M 0 0 C -8 106.70, 10 177.83, -6 260.82" stroke="#a4bc95" stroke-width="14.23" fill="none" stroke-linecap="round" />
      <ellipse cx="-20" cy="130.41" rx="26.08" ry="49.79" fill="#a4bc95" fill-opacity="0.75" transform="rotate(-24)" />
      <ellipse cx="28" cy="161.24" rx="23.71" ry="45.05" fill="#a4bc95" fill-opacity="0.66" transform="rotate(20)" />
      <g transform="translate(0 0)">
        <ellipse cx="33.20" cy="0.00" rx="21.34" ry="33.20" fill="#d6b06e" fill-opacity="0.95" /><ellipse cx="23.47" cy="23.47" rx="21.34" ry="33.20" fill="#d6b06e" fill-opacity="0.95" /><ellipse cx="0.00" cy="33.20" rx="21.34" ry="33.20" fill="#d6b06e" fill-opacity="0.95" /><ellipse cx="-23.47" cy="23.47" rx="21.34" ry="33.20" fill="#d6b06e" fill-opacity="0.95" /><ellipse cx="-33.20" cy="0.00" rx="21.34" ry="33.20" fill="#d6b06e" fill-opacity="0.95" /><ellipse cx="-23.47" cy="-23.47" rx="21.34" ry="33.20" fill="#d6b06e" fill-opacity="0.95" /><ellipse cx="-0.00" cy="-33.20" rx="21.34" ry="33.20" fill="#d6b06e" fill-opacity="0.95" /><ellipse cx="23.47" cy="-23.47" rx="21.34" ry="33.20" fill="#d6b06e" fill-opacity="0.95" />
        <circle cx="0" cy="0" r="21.34" fill="#d89263" />
        <circle cx="0" cy="0" r="10.67" fill="#fff7f0" fill-opacity="0.72" />
      </g>
    </g>
    
  </g>
  <path d="M0 980 C220 920, 420 1030, 900 930 L900 1100 L0 1100 Z" fill="#ffffff" fill-opacity="0.22" />
</svg>
