<svg xmlns="http://www.w3.org/2000/svg" width="900" height="1100" viewBox="0 0 900 1100">
  <defs>
    <linearGradient id="bg" x1="0" y1="0" x2="0" y2="1">
      <stop offset="0%" stop-color="#f5f8ef" />
      <stop offset="100%" stop-color="#eef3eb" />
    </linearGradient>
    <filter id="shadow" x="-20%" y="-20%" width="140%" height="140%">
      <feDropShadow dx="0" dy="22" stdDeviation="24" flood-color="#6c5d4f" flood-opacity="0.12" />
    </filter>
  </defs>
  <rect width="100%" height="100%" fill="url(#bg)" />
  <circle cx="730" cy="180" r="140" fill="#ffffff" fill-opacity="0.18" />
  <circle cx="150" cy="260" r="90" fill="#ffffff" fill-opacity="0.12" />
  
      <rect x="70" y="72" width="300" height="92" rx="24" fill="#ffffff" fill-opacity="0.34" />
      <text x="98" y="120" fill="#2f3a31" font-size="32" font-family="'PingFang SC','Microsoft YaHei',sans-serif" font-weight="600">冬日白序</text>
      <text x="98" y="152" fill="#4e6152" font-size="18" font-family="'PingFang SC','Microsoft YaHei',sans-serif">节气 · 春日</text>
    
  <g filter="url(#shadow)">
    <path d="M250 780 L650 780 L730 1080 L170 1080 Z" fill="#ece2d6" fill-opacity="0.88" />
  </g>
  <g>
    
    <g transform="translate(374.53 452.49) rotate(-11.28)">
      <path d="M 0 0 C -8 90.09, 10 150.15, -6 220.22" stroke="#7f9d76" stroke-width="12.01" fill="none" stroke-linecap="round" />
      <ellipse cx="-20" cy="110.11" rx="22.02" ry="42.04" fill="#7f9d76" fill-opacity="0.75" transform="rotate(-24)" />
      <ellipse cx="28" cy="136.13" rx="20.02" ry="38.04" fill="#7f9d76" fill-opacity="0.66" transform="rotate(20)" />
      <g transform="translate(0 0)">
        <ellipse cx="28.03" cy="0.00" rx="18.02" ry="28.03" fill="#f4d77e" fill-opacity="0.95" /><ellipse cx="19.82" cy="19.82" rx="18.02" ry="28.03" fill="#f4d77e" fill-opacity="0.95" /><ellipse cx="0.00" cy="28.03" rx="18.02" ry="28.03" fill="#f4d77e" fill-opacity="0.95" /><ellipse cx="-19.82" cy="19.82" rx="18.02" ry="28.03" fill="#f4d77e" fill-opacity="0.95" /><ellipse cx="-28.03" cy="0.00" rx="18.02" ry="28.03" fill="#f4d77e" fill-opacity="0.95" /><ellipse cx="-19.82" cy="-19.82" rx="18.02" ry="28.03" fill="#f4d77e" fill-opacity="0.95" /><ellipse cx="-0.00" cy="-28.03" rx="18.02" ry="28.03" fill="#f4d77e" fill-opacity="0.95" /><ellipse cx="19.82" cy="-19.82" rx="18.02" ry="28.03" fill="#f4d77e" fill-opacity="0.95" />
        <circle cx="0" cy="0" r="18.02" fill="#d89263" />
        <circle cx="0" cy="0" r="9.01" fill="#fff7f0" fill-opacity="0.72" />
      </g>
    </g>
    
    <g transform="translate(601.18 421.84) rotate(21.64)">
      <path d="M 0 0 C -8 114.70, 10 191.17, -6 280.38" stroke="#62855f" stroke-width="15.29" fill="none" stroke-linecap="round" />
      <ellipse cx="-20" cy="140.19" rx="28.04" ry="53.53" fill="#62855f" fill-opacity="0.75" transform="rotate(-24)" />
      <ellipse cx="28" cy="173.32" rx="25.49" ry="48.43" fill="#62855f" fill-opacity="0.66" transform="rotate(20)" />
      <g transform="translate(0 0)">
        <ellipse cx="35.68" cy="0.00" rx="22.94" ry="35.68" fill="#d6b06e" fill-opacity="0.95" /><ellipse cx="25.23" cy="25.23" rx="22.94" ry="35.68" fill="#d6b06e" fill-opacity="0.95" /><ellipse cx="0.00" cy="35.68" rx="22.94" ry="35.68" fill="#d6b06e" fill-opacity="0.95" /><ellipse cx="-25.23" cy="25.23" rx="22.94" ry="35.68" fill="#d6b06e" fill-opacity="0.95" /><ellipse cx="-35.68" cy="0.00" rx="22.94" ry="35.68" fill="#d6b06e" fill-opacity="0.95" /><ellipse cx="-25.23" cy="-25.23" rx="22.94" ry="35.68" fill="#d6b06e" fill-opacity="0.95" /><ellipse cx="-0.00" cy="-35.68" rx="22.94" ry="35.68" fill="#d6b06e" fill-opacity="0.95" /><ellipse cx="25.23" cy="-25.23" rx="22.94" ry="35.68" fill="#d6b06e" fill-opacity="0.95" />
        <circle cx="0" cy="0" r="22.94" fill="#d89263" />
        <circle cx="0" cy="0" r="11.47" fill="#fff7f0" fill-opacity="0.72" />
      </g>
    </g>
    
    <g transform="translate(556.29 517.05) rotate(14.41)">
      <path d="M 0 0 C -8 102.11, 10 170.18, -6 249.60" stroke="#a4bc95" stroke-width="13.61" fill="none" stroke-linecap="round" />
      <ellipse cx="-20" cy="124.80" rx="24.96" ry="47.65" fill="#a4bc95" fill-opacity="0.75" transform="rotate(-24)" />
      <ellipse cx="28" cy="154.30" rx="22.69" ry="43.11" fill="#a4bc95" fill-opacity="0.66" transform="rotate(20)" />
      <g transform="translate(0 0)">
        <ellipse cx="31.77" cy="0.00" rx="20.42" ry="31.77" fill="#bcd9d1" fill-opacity="0.95" /><ellipse cx="22.46" cy="22.46" rx="20.42" ry="31.77" fill="#bcd9d1" fill-opacity="0.95" /><ellipse cx="0.00" cy="31.77" rx="20.42" ry="31.77" fill="#bcd9d1" fill-opacity="0.95" /><ellipse cx="-22.46" cy="22.46" rx="20.42" ry="31.77" fill="#bcd9d1" fill-opacity="0.95" /><ellipse cx="-31.77" cy="0.00" rx="20.42" ry="31.77" fill="#bcd9d1" fill-opacity="0.95" /><ellipse cx="-22.46" cy="-22.46" rx="20.42" ry="31.77" fill="#bcd9d1" fill-opacity="0.95" /><ellipse cx="-0.00" cy="-31.77" rx="20.42" ry="31.77" fill="#bcd9d1" fill-opacity="0.95" /><ellipse cx="22.46" cy="-22.46" rx="20.42" ry="31.77" fill="#bcd9d1" fill-opacity="0.95" />
        <circle cx="0" cy="0" r="20.42" fill="#d89263" />
        <circle cx="0" cy="0" r="10.21" fill="#fff7f0" fill-opacity="0.72" />
      </g>
    </g>
    
    <g transform="translate(312.55 479.24) rotate(24.49)">
      <path d="M 0 0 C -8 73.55, 10 122.59, -6 179.80" stroke="#7f9d76" stroke-width="9.81" fill="none" stroke-linecap="round" />
      <ellipse cx="-20" cy="89.90" rx="17.98" ry="34.32" fill="#7f9d76" fill-opacity="0.75" transform="rotate(-24)" />
      <ellipse cx="28" cy="111.15" rx="16.35" ry="31.06" fill="#7f9d76" fill-opacity="0.66" transform="rotate(20)" />
      <g transform="translate(0 0)">
        <ellipse cx="22.88" cy="0.00" rx="14.71" ry="22.88" fill="#c47b56" fill-opacity="0.95" /><ellipse cx="16.18" cy="16.18" rx="14.71" ry="22.88" fill="#c47b56" fill-opacity="0.95" /><ellipse cx="0.00" cy="22.88" rx="14.71" ry="22.88" fill="#c47b56" fill-opacity="0.95" /><ellipse cx="-16.18" cy="16.18" rx="14.71" ry="22.88" fill="#c47b56" fill-opacity="0.95" /><ellipse cx="-22.88" cy="0.00" rx="14.71" ry="22.88" fill="#c47b56" fill-opacity="0.95" /><ellipse cx="-16.18" cy="-16.18" rx="14.71" ry="22.88" fill="#c47b56" fill-opacity="0.95" /><ellipse cx="-0.00" cy="-22.88" rx="14.71" ry="22.88" fill="#c47b56" fill-opacity="0.95" /><ellipse cx="16.18" cy="-16.18" rx="14.71" ry="22.88" fill="#c47b56" fill-opacity="0.95" />
        <circle cx="0" cy="0" r="14.71" fill="#d89263" />
        <circle cx="0" cy="0" r="7.36" fill="#fff7f0" fill-opacity="0.72" />
      </g>
    </g>
    
    <g transform="translate(368.71 517.39) rotate(-5.86)">
      <path d="M 0 0 C -8 84.16, 10 140.26, -6 205.72" stroke="#62855f" stroke-width="11.22" fill="none" stroke-linecap="round" />
      <ellipse cx="-20" cy="102.86" rx="20.57" ry="39.27" fill="#62855f" fill-opacity="0.75" transform="rotate(-24)" />
      <ellipse cx="28" cy="127.17" rx="18.70" ry="35.53" fill="#62855f" fill-opacity="0.66" transform="rotate(20)" />
      <g transform="translate(0 0)">
        <ellipse cx="26.18" cy="0.00" rx="16.83" ry="26.18" fill="#f4d77e" fill-opacity="0.95" /><ellipse cx="18.51" cy="18.51" rx="16.83" ry="26.18" fill="#f4d77e" fill-opacity="0.95" /><ellipse cx="0.00" cy="26.18" rx="16.83" ry="26.18" fill="#f4d77e" fill-opacity="0.95" /><ellipse cx="-18.51" cy="18.51" rx="16.83" ry="26.18" fill="#f4d77e" fill-opacity="0.95" /><ellipse cx="-26.18" cy="0.00" rx="16.83" ry="26.18" fill="#f4d77e" fill-opacity="0.95" /><ellipse cx="-18.51" cy="-18.51" rx="16.83" ry="26.18" fill="#f4d77e" fill-opacity="0.95" /><ellipse cx="-0.00" cy="-26.18" rx="16.83" ry="26.18" fill="#f4d77e" fill-opacity="0.95" /><ellipse cx="18.51" cy="-18.51" rx="16.83" ry="26.18" fill="#f4d77e" fill-opacity="0.95" />
        <circle cx="0" cy="0" r="16.83" fill="#d89263" />
        <circle cx="0" cy="0" r="8.42" fill="#fff7f0" fill-opacity="0.72" />
      </g>
    </g>
    
    <g transform="translate(501.03 553.45) rotate(-20.30)">
      <path d="M 0 0 C -8 73.85, 10 123.08, -6 180.52" stroke="#a4bc95" stroke-width="9.85" fill="none" stroke-linecap="round" />
      <ellipse cx="-20" cy="90.26" rx="18.05" ry="34.46" fill="#a4bc95" fill-opacity="0.75" transform="rotate(-24)" />
      <ellipse cx="28" cy="111.60" rx="16.41" ry="31.18" fill="#a4bc95" fill-opacity="0.66" transform="rotate(20)" />
      <g transform="translate(0 0)">
        <ellipse cx="22.98" cy="0.00" rx="14.77" ry="22.98" fill="#d6b06e" fill-opacity="0.95" /><ellipse cx="16.25" cy="16.25" rx="14.77" ry="22.98" fill="#d6b06e" fill-opacity="0.95" /><ellipse cx="0.00" cy="22.98" rx="14.77" ry="22.98" fill="#d6b06e" fill-opacity="0.95" /><ellipse cx="-16.25" cy="16.25" rx="14.77" ry="22.98" fill="#d6b06e" fill-opacity="0.95" /><ellipse cx="-22.98" cy="0.00" rx="14.77" ry="22.98" fill="#d6b06e" fill-opacity="0.95" /><ellipse cx="-16.25" cy="-16.25" rx="14.77" ry="22.98" fill="#d6b06e" fill-opacity="0.95" /><ellipse cx="-0.00" cy="-22.98" rx="14.77" ry="22.98" fill="#d6b06e" fill-opacity="0.95" /><ellipse cx="16.25" cy="-16.25" rx="14.77" ry="22.98" fill="#d6b06e" fill-opacity="0.95" />
        <circle cx="0" cy="0" r="14.77" fill="#d89263" />
        <circle cx="0" cy="0" r="7.38" fill="#fff7f0" fill-opacity="0.72" />
      </g>
    </g>
    
  </g>
  <path d="M0 980 C220 920, 420 1030, 900 930 L900 1100 L0 1100 Z" fill="#ffffff" fill-opacity="0.22" />
</svg>
