<svg xmlns="http://www.w3.org/2000/svg" width="900" height="1100" viewBox="0 0 900 1100">
  <defs>
    <linearGradient id="bg" x1="0" y1="0" x2="0" y2="1">
      <stop offset="0%" stop-color="#f5f8ef" />
      <stop offset="100%" stop-color="#eef3eb" />
    </linearGradient>
    <filter id="shadow" x="-20%" y="-20%" width="140%" height="140%">
      <feDropShadow dx="0" dy="22" stdDeviation="24" flood-color="#6c5d4f" flood-opacity="0.12" />
    </filter>
  </defs>
  <rect width="100%" height="100%" fill="url(#bg)" />
  <circle cx="730" cy="180" r="140" fill="#ffffff" fill-opacity="0.18" />
  <circle cx="150" cy="260" r="90" fill="#ffffff" fill-opacity="0.12" />
  
      <rect x="70" y="72" width="300" height="92" rx="24" fill="#ffffff" fill-opacity="0.34" />
      <text x="98" y="120" fill="#2f3a31" font-size="32" font-family="'PingFang SC','Microsoft YaHei',sans-serif" font-weight="600">冬日白序</text>
      <text x="98" y="152" fill="#4e6152" font-size="18" font-family="'PingFang SC','Microsoft YaHei',sans-serif">节气 · 春日</text>
    
  <g filter="url(#shadow)">
    <path d="M250 780 L650 780 L730 1080 L170 1080 Z" fill="#ece2d6" fill-opacity="0.88" />
  </g>
  <g>
    
    <g transform="translate(372.85 536.40) rotate(25.92)">
      <path d="M 0 0 C -8 111.99, 10 186.65, -6 273.75" stroke="#7f9d76" stroke-width="14.93" fill="none" stroke-linecap="round" />
      <ellipse cx="-20" cy="136.87" rx="27.37" ry="52.26" fill="#7f9d76" fill-opacity="0.75" transform="rotate(-24)" />
      <ellipse cx="28" cy="169.23" rx="24.89" ry="47.28" fill="#7f9d76" fill-opacity="0.66" transform="rotate(20)" />
      <g transform="translate(0 0)">
        <ellipse cx="34.84" cy="0.00" rx="22.40" ry="34.84" fill="#f4d77e" fill-opacity="0.95" /><ellipse cx="24.64" cy="24.64" rx="22.40" ry="34.84" fill="#f4d77e" fill-opacity="0.95" /><ellipse cx="0.00" cy="34.84" rx="22.40" ry="34.84" fill="#f4d77e" fill-opacity="0.95" /><ellipse cx="-24.64" cy="24.64" rx="22.40" ry="34.84" fill="#f4d77e" fill-opacity="0.95" /><ellipse cx="-34.84" cy="0.00" rx="22.40" ry="34.84" fill="#f4d77e" fill-opacity="0.95" /><ellipse cx="-24.64" cy="-24.64" rx="22.40" ry="34.84" fill="#f4d77e" fill-opacity="0.95" /><ellipse cx="-0.00" cy="-34.84" rx="22.40" ry="34.84" fill="#f4d77e" fill-opacity="0.95" /><ellipse cx="24.64" cy="-24.64" rx="22.40" ry="34.84" fill="#f4d77e" fill-opacity="0.95" />
        <circle cx="0" cy="0" r="22.40" fill="#d89263" />
        <circle cx="0" cy="0" r="11.20" fill="#fff7f0" fill-opacity="0.72" />
      </g>
    </g>
    
    <g transform="translate(654.66 476.71) rotate(-23.00)">
      <path d="M 0 0 C -8 89.13, 10 148.56, -6 217.88" stroke="#62855f" stroke-width="11.88" fill="none" stroke-linecap="round" />
      <ellipse cx="-20" cy="108.94" rx="21.79" ry="41.60" fill="#62855f" fill-opacity="0.75" transform="rotate(-24)" />
      <ellipse cx="28" cy="134.69" rx="19.81" ry="37.63" fill="#62855f" fill-opacity="0.66" transform="rotate(20)" />
      <g transform="translate(0 0)">
        <ellipse cx="27.73" cy="0.00" rx="17.83" ry="27.73" fill="#d6b06e" fill-opacity="0.95" /><ellipse cx="19.61" cy="19.61" rx="17.83" ry="27.73" fill="#d6b06e" fill-opacity="0.95" /><ellipse cx="0.00" cy="27.73" rx="17.83" ry="27.73" fill="#d6b06e" fill-opacity="0.95" /><ellipse cx="-19.61" cy="19.61" rx="17.83" ry="27.73" fill="#d6b06e" fill-opacity="0.95" /><ellipse cx="-27.73" cy="0.00" rx="17.83" ry="27.73" fill="#d6b06e" fill-opacity="0.95" /><ellipse cx="-19.61" cy="-19.61" rx="17.83" ry="27.73" fill="#d6b06e" fill-opacity="0.95" /><ellipse cx="-0.00" cy="-27.73" rx="17.83" ry="27.73" fill="#d6b06e" fill-opacity="0.95" /><ellipse cx="19.61" cy="-19.61" rx="17.83" ry="27.73" fill="#d6b06e" fill-opacity="0.95" />
        <circle cx="0" cy="0" r="17.83" fill="#d89263" />
        <circle cx="0" cy="0" r="8.91" fill="#fff7f0" fill-opacity="0.72" />
      </g>
    </g>
    
    <g transform="translate(541.07 464.33) rotate(25.50)">
      <path d="M 0 0 C -8 90.54, 10 150.90, -6 221.32" stroke="#a4bc95" stroke-width="12.07" fill="none" stroke-linecap="round" />
      <ellipse cx="-20" cy="110.66" rx="22.13" ry="42.25" fill="#a4bc95" fill-opacity="0.75" transform="rotate(-24)" />
      <ellipse cx="28" cy="136.82" rx="20.12" ry="38.23" fill="#a4bc95" fill-opacity="0.66" transform="rotate(20)" />
      <g transform="translate(0 0)">
        <ellipse cx="28.17" cy="0.00" rx="18.11" ry="28.17" fill="#bcd9d1" fill-opacity="0.95" /><ellipse cx="19.92" cy="19.92" rx="18.11" ry="28.17" fill="#bcd9d1" fill-opacity="0.95" /><ellipse cx="0.00" cy="28.17" rx="18.11" ry="28.17" fill="#bcd9d1" fill-opacity="0.95" /><ellipse cx="-19.92" cy="19.92" rx="18.11" ry="28.17" fill="#bcd9d1" fill-opacity="0.95" /><ellipse cx="-28.17" cy="0.00" rx="18.11" ry="28.17" fill="#bcd9d1" fill-opacity="0.95" /><ellipse cx="-19.92" cy="-19.92" rx="18.11" ry="28.17" fill="#bcd9d1" fill-opacity="0.95" /><ellipse cx="-0.00" cy="-28.17" rx="18.11" ry="28.17" fill="#bcd9d1" fill-opacity="0.95" /><ellipse cx="19.92" cy="-19.92" rx="18.11" ry="28.17" fill="#bcd9d1" fill-opacity="0.95" />
        <circle cx="0" cy="0" r="18.11" fill="#d89263" />
        <circle cx="0" cy="0" r="9.05" fill="#fff7f0" fill-opacity="0.72" />
      </g>
    </g>
    
    <g transform="translate(226.84 313.51) rotate(-17.76)">
      <path d="M 0 0 C -8 92.51, 10 154.18, -6 226.12" stroke="#7f9d76" stroke-width="12.33" fill="none" stroke-linecap="round" />
      <ellipse cx="-20" cy="113.06" rx="22.61" ry="43.17" fill="#7f9d76" fill-opacity="0.75" transform="rotate(-24)" />
      <ellipse cx="28" cy="139.79" rx="20.56" ry="39.06" fill="#7f9d76" fill-opacity="0.66" transform="rotate(20)" />
      <g transform="translate(0 0)">
        <ellipse cx="28.78" cy="0.00" rx="18.50" ry="28.78" fill="#c47b56" fill-opacity="0.95" /><ellipse cx="20.35" cy="20.35" rx="18.50" ry="28.78" fill="#c47b56" fill-opacity="0.95" /><ellipse cx="0.00" cy="28.78" rx="18.50" ry="28.78" fill="#c47b56" fill-opacity="0.95" /><ellipse cx="-20.35" cy="20.35" rx="18.50" ry="28.78" fill="#c47b56" fill-opacity="0.95" /><ellipse cx="-28.78" cy="0.00" rx="18.50" ry="28.78" fill="#c47b56" fill-opacity="0.95" /><ellipse cx="-20.35" cy="-20.35" rx="18.50" ry="28.78" fill="#c47b56" fill-opacity="0.95" /><ellipse cx="-0.00" cy="-28.78" rx="18.50" ry="28.78" fill="#c47b56" fill-opacity="0.95" /><ellipse cx="20.35" cy="-20.35" rx="18.50" ry="28.78" fill="#c47b56" fill-opacity="0.95" />
        <circle cx="0" cy="0" r="18.50" fill="#d89263" />
        <circle cx="0" cy="0" r="9.25" fill="#fff7f0" fill-opacity="0.72" />
      </g>
    </g>
    
    <g transform="translate(371.13 406.58) rotate(17.18)">
      <path d="M 0 0 C -8 92.87, 10 154.79, -6 227.02" stroke="#62855f" stroke-width="12.38" fill="none" stroke-linecap="round" />
      <ellipse cx="-20" cy="113.51" rx="22.70" ry="43.34" fill="#62855f" fill-opacity="0.75" transform="rotate(-24)" />
      <ellipse cx="28" cy="140.34" rx="20.64" ry="39.21" fill="#62855f" fill-opacity="0.66" transform="rotate(20)" />
      <g transform="translate(0 0)">
        <ellipse cx="28.89" cy="0.00" rx="18.57" ry="28.89" fill="#f4d77e" fill-opacity="0.95" /><ellipse cx="20.43" cy="20.43" rx="18.57" ry="28.89" fill="#f4d77e" fill-opacity="0.95" /><ellipse cx="0.00" cy="28.89" rx="18.57" ry="28.89" fill="#f4d77e" fill-opacity="0.95" /><ellipse cx="-20.43" cy="20.43" rx="18.57" ry="28.89" fill="#f4d77e" fill-opacity="0.95" /><ellipse cx="-28.89" cy="0.00" rx="18.57" ry="28.89" fill="#f4d77e" fill-opacity="0.95" /><ellipse cx="-20.43" cy="-20.43" rx="18.57" ry="28.89" fill="#f4d77e" fill-opacity="0.95" /><ellipse cx="-0.00" cy="-28.89" rx="18.57" ry="28.89" fill="#f4d77e" fill-opacity="0.95" /><ellipse cx="20.43" cy="-20.43" rx="18.57" ry="28.89" fill="#f4d77e" fill-opacity="0.95" />
        <circle cx="0" cy="0" r="18.57" fill="#d89263" />
        <circle cx="0" cy="0" r="9.29" fill="#fff7f0" fill-opacity="0.72" />
      </g>
    </g>
    
    <g transform="translate(544.00 379.80) rotate(2.05)">
      <path d="M 0 0 C -8 90.83, 10 151.38, -6 222.03" stroke="#a4bc95" stroke-width="12.11" fill="none" stroke-linecap="round" />
      <ellipse cx="-20" cy="111.02" rx="22.20" ry="42.39" fill="#a4bc95" fill-opacity="0.75" transform="rotate(-24)" />
      <ellipse cx="28" cy="137.26" rx="20.18" ry="38.35" fill="#a4bc95" fill-opacity="0.66" transform="rotate(20)" />
      <g transform="translate(0 0)">
        <ellipse cx="28.26" cy="0.00" rx="18.17" ry="28.26" fill="#d6b06e" fill-opacity="0.95" /><ellipse cx="19.98" cy="19.98" rx="18.17" ry="28.26" fill="#d6b06e" fill-opacity="0.95" /><ellipse cx="0.00" cy="28.26" rx="18.17" ry="28.26" fill="#d6b06e" fill-opacity="0.95" /><ellipse cx="-19.98" cy="19.98" rx="18.17" ry="28.26" fill="#d6b06e" fill-opacity="0.95" /><ellipse cx="-28.26" cy="0.00" rx="18.17" ry="28.26" fill="#d6b06e" fill-opacity="0.95" /><ellipse cx="-19.98" cy="-19.98" rx="18.17" ry="28.26" fill="#d6b06e" fill-opacity="0.95" /><ellipse cx="-0.00" cy="-28.26" rx="18.17" ry="28.26" fill="#d6b06e" fill-opacity="0.95" /><ellipse cx="19.98" cy="-19.98" rx="18.17" ry="28.26" fill="#d6b06e" fill-opacity="0.95" />
        <circle cx="0" cy="0" r="18.17" fill="#d89263" />
        <circle cx="0" cy="0" r="9.08" fill="#fff7f0" fill-opacity="0.72" />
      </g>
    </g>
    
    <g transform="translate(640.66 549.73) rotate(10.15)">
      <path d="M 0 0 C -8 89.63, 10 149.39, -6 219.10" stroke="#7f9d76" stroke-width="11.95" fill="none" stroke-linecap="round" />
      <ellipse cx="-20" cy="109.55" rx="21.91" ry="41.83" fill="#7f9d76" fill-opacity="0.75" transform="rotate(-24)" />
      <ellipse cx="28" cy="135.44" rx="19.92" ry="37.84" fill="#7f9d76" fill-opacity="0.66" transform="rotate(20)" />
      <g transform="translate(0 0)">
        <ellipse cx="27.89" cy="0.00" rx="17.93" ry="27.89" fill="#bcd9d1" fill-opacity="0.95" /><ellipse cx="19.72" cy="19.72" rx="17.93" ry="27.89" fill="#bcd9d1" fill-opacity="0.95" /><ellipse cx="0.00" cy="27.89" rx="17.93" ry="27.89" fill="#bcd9d1" fill-opacity="0.95" /><ellipse cx="-19.72" cy="19.72" rx="17.93" ry="27.89" fill="#bcd9d1" fill-opacity="0.95" /><ellipse cx="-27.89" cy="0.00" rx="17.93" ry="27.89" fill="#bcd9d1" fill-opacity="0.95" /><ellipse cx="-19.72" cy="-19.72" rx="17.93" ry="27.89" fill="#bcd9d1" fill-opacity="0.95" /><ellipse cx="-0.00" cy="-27.89" rx="17.93" ry="27.89" fill="#bcd9d1" fill-opacity="0.95" /><ellipse cx="19.72" cy="-19.72" rx="17.93" ry="27.89" fill="#bcd9d1" fill-opacity="0.95" />
        <circle cx="0" cy="0" r="17.93" fill="#d89263" />
        <circle cx="0" cy="0" r="8.96" fill="#fff7f0" fill-opacity="0.72" />
      </g>
    </g>
    
  </g>
  <path d="M0 980 C220 920, 420 1030, 900 930 L900 1100 L0 1100 Z" fill="#ffffff" fill-opacity="0.22" />
</svg>
