<svg xmlns="http://www.w3.org/2000/svg" width="900" height="1100" viewBox="0 0 900 1100">
  <defs>
    <linearGradient id="bg" x1="0" y1="0" x2="0" y2="1">
      <stop offset="0%" stop-color="#f5f8ef" />
      <stop offset="100%" stop-color="#eef3eb" />
    </linearGradient>
    <filter id="shadow" x="-20%" y="-20%" width="140%" height="140%">
      <feDropShadow dx="0" dy="22" stdDeviation="24" flood-color="#6c5d4f" flood-opacity="0.12" />
    </filter>
  </defs>
  <rect width="100%" height="100%" fill="url(#bg)" />
  <circle cx="730" cy="180" r="140" fill="#ffffff" fill-opacity="0.18" />
  <circle cx="150" cy="260" r="90" fill="#ffffff" fill-opacity="0.12" />
  
      <rect x="70" y="72" width="300" height="92" rx="24" fill="#ffffff" fill-opacity="0.34" />
      <text x="98" y="120" fill="#2f3a31" font-size="32" font-family="'PingFang SC','Microsoft YaHei',sans-serif" font-weight="600">霜降留白</text>
      <text x="98" y="152" fill="#4e6152" font-size="18" font-family="'PingFang SC','Microsoft YaHei',sans-serif">秋冬 · 暖调</text>
    
  <g filter="url(#shadow)">
    <path d="M250 780 L650 780 L730 1080 L170 1080 Z" fill="#ece2d6" fill-opacity="0.88" />
  </g>
  <g>
    
    <g transform="translate(296.23 446.93) rotate(2.65)">
      <path d="M 0 0 C -8 111.80, 10 186.33, -6 273.28" stroke="#7f9d76" stroke-width="14.91" fill="none" stroke-linecap="round" />
      <ellipse cx="-20" cy="136.64" rx="27.33" ry="52.17" fill="#7f9d76" fill-opacity="0.75" transform="rotate(-24)" />
      <ellipse cx="28" cy="168.94" rx="24.84" ry="47.20" fill="#7f9d76" fill-opacity="0.66" transform="rotate(20)" />
      <g transform="translate(0 0)">
        <ellipse cx="34.78" cy="0.00" rx="22.36" ry="34.78" fill="#f4d77e" fill-opacity="0.95" /><ellipse cx="24.59" cy="24.59" rx="22.36" ry="34.78" fill="#f4d77e" fill-opacity="0.95" /><ellipse cx="0.00" cy="34.78" rx="22.36" ry="34.78" fill="#f4d77e" fill-opacity="0.95" /><ellipse cx="-24.59" cy="24.59" rx="22.36" ry="34.78" fill="#f4d77e" fill-opacity="0.95" /><ellipse cx="-34.78" cy="0.00" rx="22.36" ry="34.78" fill="#f4d77e" fill-opacity="0.95" /><ellipse cx="-24.59" cy="-24.59" rx="22.36" ry="34.78" fill="#f4d77e" fill-opacity="0.95" /><ellipse cx="-0.00" cy="-34.78" rx="22.36" ry="34.78" fill="#f4d77e" fill-opacity="0.95" /><ellipse cx="24.59" cy="-24.59" rx="22.36" ry="34.78" fill="#f4d77e" fill-opacity="0.95" />
        <circle cx="0" cy="0" r="22.36" fill="#d89263" />
        <circle cx="0" cy="0" r="11.18" fill="#fff7f0" fill-opacity="0.72" />
      </g>
    </g>
    
    <g transform="translate(445.41 511.60) rotate(9.91)">
      <path d="M 0 0 C -8 109.17, 10 181.95, -6 266.86" stroke="#62855f" stroke-width="14.56" fill="none" stroke-linecap="round" />
      <ellipse cx="-20" cy="133.43" rx="26.69" ry="50.95" fill="#62855f" fill-opacity="0.75" transform="rotate(-24)" />
      <ellipse cx="28" cy="164.97" rx="24.26" ry="46.09" fill="#62855f" fill-opacity="0.66" transform="rotate(20)" />
      <g transform="translate(0 0)">
        <ellipse cx="33.96" cy="0.00" rx="21.83" ry="33.96" fill="#d6b06e" fill-opacity="0.95" /><ellipse cx="24.02" cy="24.02" rx="21.83" ry="33.96" fill="#d6b06e" fill-opacity="0.95" /><ellipse cx="0.00" cy="33.96" rx="21.83" ry="33.96" fill="#d6b06e" fill-opacity="0.95" /><ellipse cx="-24.02" cy="24.02" rx="21.83" ry="33.96" fill="#d6b06e" fill-opacity="0.95" /><ellipse cx="-33.96" cy="0.00" rx="21.83" ry="33.96" fill="#d6b06e" fill-opacity="0.95" /><ellipse cx="-24.02" cy="-24.02" rx="21.83" ry="33.96" fill="#d6b06e" fill-opacity="0.95" /><ellipse cx="-0.00" cy="-33.96" rx="21.83" ry="33.96" fill="#d6b06e" fill-opacity="0.95" /><ellipse cx="24.02" cy="-24.02" rx="21.83" ry="33.96" fill="#d6b06e" fill-opacity="0.95" />
        <circle cx="0" cy="0" r="21.83" fill="#d89263" />
        <circle cx="0" cy="0" r="10.92" fill="#fff7f0" fill-opacity="0.72" />
      </g>
    </g>
    
    <g transform="translate(625.10 492.87) rotate(6.69)">
      <path d="M 0 0 C -8 87.43, 10 145.72, -6 213.72" stroke="#a4bc95" stroke-width="11.66" fill="none" stroke-linecap="round" />
      <ellipse cx="-20" cy="106.86" rx="21.37" ry="40.80" fill="#a4bc95" fill-opacity="0.75" transform="rotate(-24)" />
      <ellipse cx="28" cy="132.12" rx="19.43" ry="36.92" fill="#a4bc95" fill-opacity="0.66" transform="rotate(20)" />
      <g transform="translate(0 0)">
        <ellipse cx="27.20" cy="0.00" rx="17.49" ry="27.20" fill="#bcd9d1" fill-opacity="0.95" /><ellipse cx="19.23" cy="19.23" rx="17.49" ry="27.20" fill="#bcd9d1" fill-opacity="0.95" /><ellipse cx="0.00" cy="27.20" rx="17.49" ry="27.20" fill="#bcd9d1" fill-opacity="0.95" /><ellipse cx="-19.23" cy="19.23" rx="17.49" ry="27.20" fill="#bcd9d1" fill-opacity="0.95" /><ellipse cx="-27.20" cy="0.00" rx="17.49" ry="27.20" fill="#bcd9d1" fill-opacity="0.95" /><ellipse cx="-19.23" cy="-19.23" rx="17.49" ry="27.20" fill="#bcd9d1" fill-opacity="0.95" /><ellipse cx="-0.00" cy="-27.20" rx="17.49" ry="27.20" fill="#bcd9d1" fill-opacity="0.95" /><ellipse cx="19.23" cy="-19.23" rx="17.49" ry="27.20" fill="#bcd9d1" fill-opacity="0.95" />
        <circle cx="0" cy="0" r="17.49" fill="#d89263" />
        <circle cx="0" cy="0" r="8.74" fill="#fff7f0" fill-opacity="0.72" />
      </g>
    </g>
    
    <g transform="translate(348.91 430.41) rotate(3.09)">
      <path d="M 0 0 C -8 88.91, 10 148.18, -6 217.34" stroke="#7f9d76" stroke-width="11.85" fill="none" stroke-linecap="round" />
      <ellipse cx="-20" cy="108.67" rx="21.73" ry="41.49" fill="#7f9d76" fill-opacity="0.75" transform="rotate(-24)" />
      <ellipse cx="28" cy="134.35" rx="19.76" ry="37.54" fill="#7f9d76" fill-opacity="0.66" transform="rotate(20)" />
      <g transform="translate(0 0)">
        <ellipse cx="27.66" cy="0.00" rx="17.78" ry="27.66" fill="#c47b56" fill-opacity="0.95" /><ellipse cx="19.56" cy="19.56" rx="17.78" ry="27.66" fill="#c47b56" fill-opacity="0.95" /><ellipse cx="0.00" cy="27.66" rx="17.78" ry="27.66" fill="#c47b56" fill-opacity="0.95" /><ellipse cx="-19.56" cy="19.56" rx="17.78" ry="27.66" fill="#c47b56" fill-opacity="0.95" /><ellipse cx="-27.66" cy="0.00" rx="17.78" ry="27.66" fill="#c47b56" fill-opacity="0.95" /><ellipse cx="-19.56" cy="-19.56" rx="17.78" ry="27.66" fill="#c47b56" fill-opacity="0.95" /><ellipse cx="-0.00" cy="-27.66" rx="17.78" ry="27.66" fill="#c47b56" fill-opacity="0.95" /><ellipse cx="19.56" cy="-19.56" rx="17.78" ry="27.66" fill="#c47b56" fill-opacity="0.95" />
        <circle cx="0" cy="0" r="17.78" fill="#d89263" />
        <circle cx="0" cy="0" r="8.89" fill="#fff7f0" fill-opacity="0.72" />
      </g>
    </g>
    
    <g transform="translate(388.73 498.59) rotate(-19.67)">
      <path d="M 0 0 C -8 72.54, 10 120.90, -6 177.32" stroke="#62855f" stroke-width="9.67" fill="none" stroke-linecap="round" />
      <ellipse cx="-20" cy="88.66" rx="17.73" ry="33.85" fill="#62855f" fill-opacity="0.75" transform="rotate(-24)" />
      <ellipse cx="28" cy="109.61" rx="16.12" ry="30.63" fill="#62855f" fill-opacity="0.66" transform="rotate(20)" />
      <g transform="translate(0 0)">
        <ellipse cx="22.57" cy="0.00" rx="14.51" ry="22.57" fill="#f4d77e" fill-opacity="0.95" /><ellipse cx="15.96" cy="15.96" rx="14.51" ry="22.57" fill="#f4d77e" fill-opacity="0.95" /><ellipse cx="0.00" cy="22.57" rx="14.51" ry="22.57" fill="#f4d77e" fill-opacity="0.95" /><ellipse cx="-15.96" cy="15.96" rx="14.51" ry="22.57" fill="#f4d77e" fill-opacity="0.95" /><ellipse cx="-22.57" cy="0.00" rx="14.51" ry="22.57" fill="#f4d77e" fill-opacity="0.95" /><ellipse cx="-15.96" cy="-15.96" rx="14.51" ry="22.57" fill="#f4d77e" fill-opacity="0.95" /><ellipse cx="-0.00" cy="-22.57" rx="14.51" ry="22.57" fill="#f4d77e" fill-opacity="0.95" /><ellipse cx="15.96" cy="-15.96" rx="14.51" ry="22.57" fill="#f4d77e" fill-opacity="0.95" />
        <circle cx="0" cy="0" r="14.51" fill="#d89263" />
        <circle cx="0" cy="0" r="7.25" fill="#fff7f0" fill-opacity="0.72" />
      </g>
    </g>
    
    <g transform="translate(385.25 457.32) rotate(-21.50)">
      <path d="M 0 0 C -8 84.71, 10 141.18, -6 207.07" stroke="#a4bc95" stroke-width="11.29" fill="none" stroke-linecap="round" />
      <ellipse cx="-20" cy="103.53" rx="20.71" ry="39.53" fill="#a4bc95" fill-opacity="0.75" transform="rotate(-24)" />
      <ellipse cx="28" cy="128.01" rx="18.82" ry="35.77" fill="#a4bc95" fill-opacity="0.66" transform="rotate(20)" />
      <g transform="translate(0 0)">
        <ellipse cx="26.35" cy="0.00" rx="16.94" ry="26.35" fill="#d6b06e" fill-opacity="0.95" /><ellipse cx="18.64" cy="18.64" rx="16.94" ry="26.35" fill="#d6b06e" fill-opacity="0.95" /><ellipse cx="0.00" cy="26.35" rx="16.94" ry="26.35" fill="#d6b06e" fill-opacity="0.95" /><ellipse cx="-18.64" cy="18.64" rx="16.94" ry="26.35" fill="#d6b06e" fill-opacity="0.95" /><ellipse cx="-26.35" cy="0.00" rx="16.94" ry="26.35" fill="#d6b06e" fill-opacity="0.95" /><ellipse cx="-18.64" cy="-18.64" rx="16.94" ry="26.35" fill="#d6b06e" fill-opacity="0.95" /><ellipse cx="-0.00" cy="-26.35" rx="16.94" ry="26.35" fill="#d6b06e" fill-opacity="0.95" /><ellipse cx="18.64" cy="-18.64" rx="16.94" ry="26.35" fill="#d6b06e" fill-opacity="0.95" />
        <circle cx="0" cy="0" r="16.94" fill="#d89263" />
        <circle cx="0" cy="0" r="8.47" fill="#fff7f0" fill-opacity="0.72" />
      </g>
    </g>
    
  </g>
  <path d="M0 980 C220 920, 420 1030, 900 930 L900 1100 L0 1100 Z" fill="#ffffff" fill-opacity="0.22" />
</svg>
