<svg xmlns="http://www.w3.org/2000/svg" width="900" height="1100" viewBox="0 0 900 1100">
  <defs>
    <linearGradient id="bg" x1="0" y1="0" x2="0" y2="1">
      <stop offset="0%" stop-color="#f5f8ef" />
      <stop offset="100%" stop-color="#eef3eb" />
    </linearGradient>
    <filter id="shadow" x="-20%" y="-20%" width="140%" height="140%">
      <feDropShadow dx="0" dy="22" stdDeviation="24" flood-color="#6c5d4f" flood-opacity="0.12" />
    </filter>
  </defs>
  <rect width="100%" height="100%" fill="url(#bg)" />
  <circle cx="730" cy="180" r="140" fill="#ffffff" fill-opacity="0.18" />
  <circle cx="150" cy="260" r="90" fill="#ffffff" fill-opacity="0.12" />
  
      <rect x="70" y="72" width="300" height="92" rx="24" fill="#ffffff" fill-opacity="0.34" />
      <text x="98" y="120" fill="#2f3a31" font-size="32" font-family="'PingFang SC','Microsoft YaHei',sans-serif" font-weight="600">惊蛰新芽</text>
      <text x="98" y="152" fill="#4e6152" font-size="18" font-family="'PingFang SC','Microsoft YaHei',sans-serif">秋冬 · 暖调</text>
    
  <g filter="url(#shadow)">
    <path d="M250 780 L650 780 L730 1080 L170 1080 Z" fill="#ece2d6" fill-opacity="0.88" />
  </g>
  <g>
    
    <g transform="translate(378.00 311.86) rotate(21.70)">
      <path d="M 0 0 C -8 71.37, 10 118.95, -6 174.47" stroke="#7f9d76" stroke-width="9.52" fill="none" stroke-linecap="round" />
      <ellipse cx="-20" cy="87.23" rx="17.45" ry="33.31" fill="#7f9d76" fill-opacity="0.75" transform="rotate(-24)" />
      <ellipse cx="28" cy="107.85" rx="15.86" ry="30.13" fill="#7f9d76" fill-opacity="0.66" transform="rotate(20)" />
      <g transform="translate(0 0)">
        <ellipse cx="22.20" cy="0.00" rx="14.27" ry="22.20" fill="#f4d77e" fill-opacity="0.95" /><ellipse cx="15.70" cy="15.70" rx="14.27" ry="22.20" fill="#f4d77e" fill-opacity="0.95" /><ellipse cx="0.00" cy="22.20" rx="14.27" ry="22.20" fill="#f4d77e" fill-opacity="0.95" /><ellipse cx="-15.70" cy="15.70" rx="14.27" ry="22.20" fill="#f4d77e" fill-opacity="0.95" /><ellipse cx="-22.20" cy="0.00" rx="14.27" ry="22.20" fill="#f4d77e" fill-opacity="0.95" /><ellipse cx="-15.70" cy="-15.70" rx="14.27" ry="22.20" fill="#f4d77e" fill-opacity="0.95" /><ellipse cx="-0.00" cy="-22.20" rx="14.27" ry="22.20" fill="#f4d77e" fill-opacity="0.95" /><ellipse cx="15.70" cy="-15.70" rx="14.27" ry="22.20" fill="#f4d77e" fill-opacity="0.95" />
        <circle cx="0" cy="0" r="14.27" fill="#d89263" />
        <circle cx="0" cy="0" r="7.14" fill="#fff7f0" fill-opacity="0.72" />
      </g>
    </g>
    
    <g transform="translate(200.60 484.45) rotate(-11.94)">
      <path d="M 0 0 C -8 81.36, 10 135.60, -6 198.88" stroke="#62855f" stroke-width="10.85" fill="none" stroke-linecap="round" />
      <ellipse cx="-20" cy="99.44" rx="19.89" ry="37.97" fill="#62855f" fill-opacity="0.75" transform="rotate(-24)" />
      <ellipse cx="28" cy="122.94" rx="18.08" ry="34.35" fill="#62855f" fill-opacity="0.66" transform="rotate(20)" />
      <g transform="translate(0 0)">
        <ellipse cx="25.31" cy="0.00" rx="16.27" ry="25.31" fill="#d6b06e" fill-opacity="0.95" /><ellipse cx="17.90" cy="17.90" rx="16.27" ry="25.31" fill="#d6b06e" fill-opacity="0.95" /><ellipse cx="0.00" cy="25.31" rx="16.27" ry="25.31" fill="#d6b06e" fill-opacity="0.95" /><ellipse cx="-17.90" cy="17.90" rx="16.27" ry="25.31" fill="#d6b06e" fill-opacity="0.95" /><ellipse cx="-25.31" cy="0.00" rx="16.27" ry="25.31" fill="#d6b06e" fill-opacity="0.95" /><ellipse cx="-17.90" cy="-17.90" rx="16.27" ry="25.31" fill="#d6b06e" fill-opacity="0.95" /><ellipse cx="-0.00" cy="-25.31" rx="16.27" ry="25.31" fill="#d6b06e" fill-opacity="0.95" /><ellipse cx="17.90" cy="-17.90" rx="16.27" ry="25.31" fill="#d6b06e" fill-opacity="0.95" />
        <circle cx="0" cy="0" r="16.27" fill="#d89263" />
        <circle cx="0" cy="0" r="8.14" fill="#fff7f0" fill-opacity="0.72" />
      </g>
    </g>
    
    <g transform="translate(528.25 537.68) rotate(-13.89)">
      <path d="M 0 0 C -8 72.48, 10 120.80, -6 177.18" stroke="#a4bc95" stroke-width="9.66" fill="none" stroke-linecap="round" />
      <ellipse cx="-20" cy="88.59" rx="17.72" ry="33.83" fill="#a4bc95" fill-opacity="0.75" transform="rotate(-24)" />
      <ellipse cx="28" cy="109.53" rx="16.11" ry="30.60" fill="#a4bc95" fill-opacity="0.66" transform="rotate(20)" />
      <g transform="translate(0 0)">
        <ellipse cx="22.55" cy="0.00" rx="14.50" ry="22.55" fill="#bcd9d1" fill-opacity="0.95" /><ellipse cx="15.95" cy="15.95" rx="14.50" ry="22.55" fill="#bcd9d1" fill-opacity="0.95" /><ellipse cx="0.00" cy="22.55" rx="14.50" ry="22.55" fill="#bcd9d1" fill-opacity="0.95" /><ellipse cx="-15.95" cy="15.95" rx="14.50" ry="22.55" fill="#bcd9d1" fill-opacity="0.95" /><ellipse cx="-22.55" cy="0.00" rx="14.50" ry="22.55" fill="#bcd9d1" fill-opacity="0.95" /><ellipse cx="-15.95" cy="-15.95" rx="14.50" ry="22.55" fill="#bcd9d1" fill-opacity="0.95" /><ellipse cx="-0.00" cy="-22.55" rx="14.50" ry="22.55" fill="#bcd9d1" fill-opacity="0.95" /><ellipse cx="15.95" cy="-15.95" rx="14.50" ry="22.55" fill="#bcd9d1" fill-opacity="0.95" />
        <circle cx="0" cy="0" r="14.50" fill="#d89263" />
        <circle cx="0" cy="0" r="7.25" fill="#fff7f0" fill-opacity="0.72" />
      </g>
    </g>
    
    <g transform="translate(202.73 551.26) rotate(9.10)">
      <path d="M 0 0 C -8 71.85, 10 119.75, -6 175.64" stroke="#7f9d76" stroke-width="9.58" fill="none" stroke-linecap="round" />
      <ellipse cx="-20" cy="87.82" rx="17.56" ry="33.53" fill="#7f9d76" fill-opacity="0.75" transform="rotate(-24)" />
      <ellipse cx="28" cy="108.58" rx="15.97" ry="30.34" fill="#7f9d76" fill-opacity="0.66" transform="rotate(20)" />
      <g transform="translate(0 0)">
        <ellipse cx="22.35" cy="0.00" rx="14.37" ry="22.35" fill="#c47b56" fill-opacity="0.95" /><ellipse cx="15.81" cy="15.81" rx="14.37" ry="22.35" fill="#c47b56" fill-opacity="0.95" /><ellipse cx="0.00" cy="22.35" rx="14.37" ry="22.35" fill="#c47b56" fill-opacity="0.95" /><ellipse cx="-15.81" cy="15.81" rx="14.37" ry="22.35" fill="#c47b56" fill-opacity="0.95" /><ellipse cx="-22.35" cy="0.00" rx="14.37" ry="22.35" fill="#c47b56" fill-opacity="0.95" /><ellipse cx="-15.81" cy="-15.81" rx="14.37" ry="22.35" fill="#c47b56" fill-opacity="0.95" /><ellipse cx="-0.00" cy="-22.35" rx="14.37" ry="22.35" fill="#c47b56" fill-opacity="0.95" /><ellipse cx="15.81" cy="-15.81" rx="14.37" ry="22.35" fill="#c47b56" fill-opacity="0.95" />
        <circle cx="0" cy="0" r="14.37" fill="#d89263" />
        <circle cx="0" cy="0" r="7.19" fill="#fff7f0" fill-opacity="0.72" />
      </g>
    </g>
    
    <g transform="translate(287.04 476.60) rotate(-22.70)">
      <path d="M 0 0 C -8 92.04, 10 153.40, -6 224.99" stroke="#62855f" stroke-width="12.27" fill="none" stroke-linecap="round" />
      <ellipse cx="-20" cy="112.49" rx="22.50" ry="42.95" fill="#62855f" fill-opacity="0.75" transform="rotate(-24)" />
      <ellipse cx="28" cy="139.08" rx="20.45" ry="38.86" fill="#62855f" fill-opacity="0.66" transform="rotate(20)" />
      <g transform="translate(0 0)">
        <ellipse cx="28.64" cy="0.00" rx="18.41" ry="28.64" fill="#f4d77e" fill-opacity="0.95" /><ellipse cx="20.25" cy="20.25" rx="18.41" ry="28.64" fill="#f4d77e" fill-opacity="0.95" /><ellipse cx="0.00" cy="28.64" rx="18.41" ry="28.64" fill="#f4d77e" fill-opacity="0.95" /><ellipse cx="-20.25" cy="20.25" rx="18.41" ry="28.64" fill="#f4d77e" fill-opacity="0.95" /><ellipse cx="-28.64" cy="0.00" rx="18.41" ry="28.64" fill="#f4d77e" fill-opacity="0.95" /><ellipse cx="-20.25" cy="-20.25" rx="18.41" ry="28.64" fill="#f4d77e" fill-opacity="0.95" /><ellipse cx="-0.00" cy="-28.64" rx="18.41" ry="28.64" fill="#f4d77e" fill-opacity="0.95" /><ellipse cx="20.25" cy="-20.25" rx="18.41" ry="28.64" fill="#f4d77e" fill-opacity="0.95" />
        <circle cx="0" cy="0" r="18.41" fill="#d89263" />
        <circle cx="0" cy="0" r="9.20" fill="#fff7f0" fill-opacity="0.72" />
      </g>
    </g>
    
    <g transform="translate(310.77 499.32) rotate(3.80)">
      <path d="M 0 0 C -8 77.93, 10 129.88, -6 190.49" stroke="#a4bc95" stroke-width="10.39" fill="none" stroke-linecap="round" />
      <ellipse cx="-20" cy="95.25" rx="19.05" ry="36.37" fill="#a4bc95" fill-opacity="0.75" transform="rotate(-24)" />
      <ellipse cx="28" cy="117.76" rx="17.32" ry="32.90" fill="#a4bc95" fill-opacity="0.66" transform="rotate(20)" />
      <g transform="translate(0 0)">
        <ellipse cx="24.24" cy="0.00" rx="15.59" ry="24.24" fill="#d6b06e" fill-opacity="0.95" /><ellipse cx="17.14" cy="17.14" rx="15.59" ry="24.24" fill="#d6b06e" fill-opacity="0.95" /><ellipse cx="0.00" cy="24.24" rx="15.59" ry="24.24" fill="#d6b06e" fill-opacity="0.95" /><ellipse cx="-17.14" cy="17.14" rx="15.59" ry="24.24" fill="#d6b06e" fill-opacity="0.95" /><ellipse cx="-24.24" cy="0.00" rx="15.59" ry="24.24" fill="#d6b06e" fill-opacity="0.95" /><ellipse cx="-17.14" cy="-17.14" rx="15.59" ry="24.24" fill="#d6b06e" fill-opacity="0.95" /><ellipse cx="-0.00" cy="-24.24" rx="15.59" ry="24.24" fill="#d6b06e" fill-opacity="0.95" /><ellipse cx="17.14" cy="-17.14" rx="15.59" ry="24.24" fill="#d6b06e" fill-opacity="0.95" />
        <circle cx="0" cy="0" r="15.59" fill="#d89263" />
        <circle cx="0" cy="0" r="7.79" fill="#fff7f0" fill-opacity="0.72" />
      </g>
    </g>
    
    <g transform="translate(207.78 487.04) rotate(-2.28)">
      <path d="M 0 0 C -8 74.68, 10 124.46, -6 182.54" stroke="#7f9d76" stroke-width="9.96" fill="none" stroke-linecap="round" />
      <ellipse cx="-20" cy="91.27" rx="18.25" ry="34.85" fill="#7f9d76" fill-opacity="0.75" transform="rotate(-24)" />
      <ellipse cx="28" cy="112.84" rx="16.59" ry="31.53" fill="#7f9d76" fill-opacity="0.66" transform="rotate(20)" />
      <g transform="translate(0 0)">
        <ellipse cx="23.23" cy="0.00" rx="14.94" ry="23.23" fill="#bcd9d1" fill-opacity="0.95" /><ellipse cx="16.43" cy="16.43" rx="14.94" ry="23.23" fill="#bcd9d1" fill-opacity="0.95" /><ellipse cx="0.00" cy="23.23" rx="14.94" ry="23.23" fill="#bcd9d1" fill-opacity="0.95" /><ellipse cx="-16.43" cy="16.43" rx="14.94" ry="23.23" fill="#bcd9d1" fill-opacity="0.95" /><ellipse cx="-23.23" cy="0.00" rx="14.94" ry="23.23" fill="#bcd9d1" fill-opacity="0.95" /><ellipse cx="-16.43" cy="-16.43" rx="14.94" ry="23.23" fill="#bcd9d1" fill-opacity="0.95" /><ellipse cx="-0.00" cy="-23.23" rx="14.94" ry="23.23" fill="#bcd9d1" fill-opacity="0.95" /><ellipse cx="16.43" cy="-16.43" rx="14.94" ry="23.23" fill="#bcd9d1" fill-opacity="0.95" />
        <circle cx="0" cy="0" r="14.94" fill="#d89263" />
        <circle cx="0" cy="0" r="7.47" fill="#fff7f0" fill-opacity="0.72" />
      </g>
    </g>
    
  </g>
  <path d="M0 980 C220 920, 420 1030, 900 930 L900 1100 L0 1100 Z" fill="#ffffff" fill-opacity="0.22" />
</svg>
