<svg xmlns="http://www.w3.org/2000/svg" width="900" height="1100" viewBox="0 0 900 1100">
  <defs>
    <linearGradient id="bg" x1="0" y1="0" x2="0" y2="1">
      <stop offset="0%" stop-color="#f5f8ef" />
      <stop offset="100%" stop-color="#eef3eb" />
    </linearGradient>
    <filter id="shadow" x="-20%" y="-20%" width="140%" height="140%">
      <feDropShadow dx="0" dy="22" stdDeviation="24" flood-color="#6c5d4f" flood-opacity="0.12" />
    </filter>
  </defs>
  <rect width="100%" height="100%" fill="url(#bg)" />
  <circle cx="730" cy="180" r="140" fill="#ffffff" fill-opacity="0.18" />
  <circle cx="150" cy="260" r="90" fill="#ffffff" fill-opacity="0.12" />
  
      <rect x="70" y="72" width="300" height="92" rx="24" fill="#ffffff" fill-opacity="0.34" />
      <text x="98" y="120" fill="#2f3a31" font-size="32" font-family="'PingFang SC','Microsoft YaHei',sans-serif" font-weight="600">春枝轻信</text>
      <text x="98" y="152" fill="#4e6152" font-size="18" font-family="'PingFang SC','Microsoft YaHei',sans-serif">节气 · 春日</text>
    
  <g filter="url(#shadow)">
    <path d="M250 780 L650 780 L730 1080 L170 1080 Z" fill="#ece2d6" fill-opacity="0.88" />
  </g>
  <g>
    
    <g transform="translate(273.41 308.07) rotate(16.49)">
      <path d="M 0 0 C -8 90.05, 10 150.09, -6 220.13" stroke="#7f9d76" stroke-width="12.01" fill="none" stroke-linecap="round" />
      <ellipse cx="-20" cy="110.07" rx="22.01" ry="42.03" fill="#7f9d76" fill-opacity="0.75" transform="rotate(-24)" />
      <ellipse cx="28" cy="136.08" rx="20.01" ry="38.02" fill="#7f9d76" fill-opacity="0.66" transform="rotate(20)" />
      <g transform="translate(0 0)">
        <ellipse cx="28.02" cy="0.00" rx="18.01" ry="28.02" fill="#f4d77e" fill-opacity="0.95" /><ellipse cx="19.81" cy="19.81" rx="18.01" ry="28.02" fill="#f4d77e" fill-opacity="0.95" /><ellipse cx="0.00" cy="28.02" rx="18.01" ry="28.02" fill="#f4d77e" fill-opacity="0.95" /><ellipse cx="-19.81" cy="19.81" rx="18.01" ry="28.02" fill="#f4d77e" fill-opacity="0.95" /><ellipse cx="-28.02" cy="0.00" rx="18.01" ry="28.02" fill="#f4d77e" fill-opacity="0.95" /><ellipse cx="-19.81" cy="-19.81" rx="18.01" ry="28.02" fill="#f4d77e" fill-opacity="0.95" /><ellipse cx="-0.00" cy="-28.02" rx="18.01" ry="28.02" fill="#f4d77e" fill-opacity="0.95" /><ellipse cx="19.81" cy="-19.81" rx="18.01" ry="28.02" fill="#f4d77e" fill-opacity="0.95" />
        <circle cx="0" cy="0" r="18.01" fill="#d89263" />
        <circle cx="0" cy="0" r="9.01" fill="#fff7f0" fill-opacity="0.72" />
      </g>
    </g>
    
    <g transform="translate(513.12 373.75) rotate(-13.59)">
      <path d="M 0 0 C -8 98.45, 10 164.08, -6 240.65" stroke="#62855f" stroke-width="13.13" fill="none" stroke-linecap="round" />
      <ellipse cx="-20" cy="120.32" rx="24.06" ry="45.94" fill="#62855f" fill-opacity="0.75" transform="rotate(-24)" />
      <ellipse cx="28" cy="148.76" rx="21.88" ry="41.57" fill="#62855f" fill-opacity="0.66" transform="rotate(20)" />
      <g transform="translate(0 0)">
        <ellipse cx="30.63" cy="0.00" rx="19.69" ry="30.63" fill="#d6b06e" fill-opacity="0.95" /><ellipse cx="21.66" cy="21.66" rx="19.69" ry="30.63" fill="#d6b06e" fill-opacity="0.95" /><ellipse cx="0.00" cy="30.63" rx="19.69" ry="30.63" fill="#d6b06e" fill-opacity="0.95" /><ellipse cx="-21.66" cy="21.66" rx="19.69" ry="30.63" fill="#d6b06e" fill-opacity="0.95" /><ellipse cx="-30.63" cy="0.00" rx="19.69" ry="30.63" fill="#d6b06e" fill-opacity="0.95" /><ellipse cx="-21.66" cy="-21.66" rx="19.69" ry="30.63" fill="#d6b06e" fill-opacity="0.95" /><ellipse cx="-0.00" cy="-30.63" rx="19.69" ry="30.63" fill="#d6b06e" fill-opacity="0.95" /><ellipse cx="21.66" cy="-21.66" rx="19.69" ry="30.63" fill="#d6b06e" fill-opacity="0.95" />
        <circle cx="0" cy="0" r="19.69" fill="#d89263" />
        <circle cx="0" cy="0" r="9.84" fill="#fff7f0" fill-opacity="0.72" />
      </g>
    </g>
    
    <g transform="translate(557.64 466.40) rotate(16.41)">
      <path d="M 0 0 C -8 102.82, 10 171.36, -6 251.33" stroke="#a4bc95" stroke-width="13.71" fill="none" stroke-linecap="round" />
      <ellipse cx="-20" cy="125.67" rx="25.13" ry="47.98" fill="#a4bc95" fill-opacity="0.75" transform="rotate(-24)" />
      <ellipse cx="28" cy="155.37" rx="22.85" ry="43.41" fill="#a4bc95" fill-opacity="0.66" transform="rotate(20)" />
      <g transform="translate(0 0)">
        <ellipse cx="31.99" cy="0.00" rx="20.56" ry="31.99" fill="#bcd9d1" fill-opacity="0.95" /><ellipse cx="22.62" cy="22.62" rx="20.56" ry="31.99" fill="#bcd9d1" fill-opacity="0.95" /><ellipse cx="0.00" cy="31.99" rx="20.56" ry="31.99" fill="#bcd9d1" fill-opacity="0.95" /><ellipse cx="-22.62" cy="22.62" rx="20.56" ry="31.99" fill="#bcd9d1" fill-opacity="0.95" /><ellipse cx="-31.99" cy="0.00" rx="20.56" ry="31.99" fill="#bcd9d1" fill-opacity="0.95" /><ellipse cx="-22.62" cy="-22.62" rx="20.56" ry="31.99" fill="#bcd9d1" fill-opacity="0.95" /><ellipse cx="-0.00" cy="-31.99" rx="20.56" ry="31.99" fill="#bcd9d1" fill-opacity="0.95" /><ellipse cx="22.62" cy="-22.62" rx="20.56" ry="31.99" fill="#bcd9d1" fill-opacity="0.95" />
        <circle cx="0" cy="0" r="20.56" fill="#d89263" />
        <circle cx="0" cy="0" r="10.28" fill="#fff7f0" fill-opacity="0.72" />
      </g>
    </g>
    
    <g transform="translate(597.34 551.67) rotate(-8.99)">
      <path d="M 0 0 C -8 83.38, 10 138.97, -6 203.82" stroke="#7f9d76" stroke-width="11.12" fill="none" stroke-linecap="round" />
      <ellipse cx="-20" cy="101.91" rx="20.38" ry="38.91" fill="#7f9d76" fill-opacity="0.75" transform="rotate(-24)" />
      <ellipse cx="28" cy="126.00" rx="18.53" ry="35.21" fill="#7f9d76" fill-opacity="0.66" transform="rotate(20)" />
      <g transform="translate(0 0)">
        <ellipse cx="25.94" cy="0.00" rx="16.68" ry="25.94" fill="#c47b56" fill-opacity="0.95" /><ellipse cx="18.34" cy="18.34" rx="16.68" ry="25.94" fill="#c47b56" fill-opacity="0.95" /><ellipse cx="0.00" cy="25.94" rx="16.68" ry="25.94" fill="#c47b56" fill-opacity="0.95" /><ellipse cx="-18.34" cy="18.34" rx="16.68" ry="25.94" fill="#c47b56" fill-opacity="0.95" /><ellipse cx="-25.94" cy="0.00" rx="16.68" ry="25.94" fill="#c47b56" fill-opacity="0.95" /><ellipse cx="-18.34" cy="-18.34" rx="16.68" ry="25.94" fill="#c47b56" fill-opacity="0.95" /><ellipse cx="-0.00" cy="-25.94" rx="16.68" ry="25.94" fill="#c47b56" fill-opacity="0.95" /><ellipse cx="18.34" cy="-18.34" rx="16.68" ry="25.94" fill="#c47b56" fill-opacity="0.95" />
        <circle cx="0" cy="0" r="16.68" fill="#d89263" />
        <circle cx="0" cy="0" r="8.34" fill="#fff7f0" fill-opacity="0.72" />
      </g>
    </g>
    
    <g transform="translate(243.90 550.76) rotate(3.19)">
      <path d="M 0 0 C -8 107.43, 10 179.04, -6 262.59" stroke="#62855f" stroke-width="14.32" fill="none" stroke-linecap="round" />
      <ellipse cx="-20" cy="131.30" rx="26.26" ry="50.13" fill="#62855f" fill-opacity="0.75" transform="rotate(-24)" />
      <ellipse cx="28" cy="162.33" rx="23.87" ry="45.36" fill="#62855f" fill-opacity="0.66" transform="rotate(20)" />
      <g transform="translate(0 0)">
        <ellipse cx="33.42" cy="0.00" rx="21.49" ry="33.42" fill="#f4d77e" fill-opacity="0.95" /><ellipse cx="23.63" cy="23.63" rx="21.49" ry="33.42" fill="#f4d77e" fill-opacity="0.95" /><ellipse cx="0.00" cy="33.42" rx="21.49" ry="33.42" fill="#f4d77e" fill-opacity="0.95" /><ellipse cx="-23.63" cy="23.63" rx="21.49" ry="33.42" fill="#f4d77e" fill-opacity="0.95" /><ellipse cx="-33.42" cy="0.00" rx="21.49" ry="33.42" fill="#f4d77e" fill-opacity="0.95" /><ellipse cx="-23.63" cy="-23.63" rx="21.49" ry="33.42" fill="#f4d77e" fill-opacity="0.95" /><ellipse cx="-0.00" cy="-33.42" rx="21.49" ry="33.42" fill="#f4d77e" fill-opacity="0.95" /><ellipse cx="23.63" cy="-23.63" rx="21.49" ry="33.42" fill="#f4d77e" fill-opacity="0.95" />
        <circle cx="0" cy="0" r="21.49" fill="#d89263" />
        <circle cx="0" cy="0" r="10.74" fill="#fff7f0" fill-opacity="0.72" />
      </g>
    </g>
    
    <g transform="translate(236.18 530.55) rotate(8.66)">
      <path d="M 0 0 C -8 102.30, 10 170.50, -6 250.06" stroke="#a4bc95" stroke-width="13.64" fill="none" stroke-linecap="round" />
      <ellipse cx="-20" cy="125.03" rx="25.01" ry="47.74" fill="#a4bc95" fill-opacity="0.75" transform="rotate(-24)" />
      <ellipse cx="28" cy="154.58" rx="22.73" ry="43.19" fill="#a4bc95" fill-opacity="0.66" transform="rotate(20)" />
      <g transform="translate(0 0)">
        <ellipse cx="31.83" cy="0.00" rx="20.46" ry="31.83" fill="#d6b06e" fill-opacity="0.95" /><ellipse cx="22.50" cy="22.50" rx="20.46" ry="31.83" fill="#d6b06e" fill-opacity="0.95" /><ellipse cx="0.00" cy="31.83" rx="20.46" ry="31.83" fill="#d6b06e" fill-opacity="0.95" /><ellipse cx="-22.50" cy="22.50" rx="20.46" ry="31.83" fill="#d6b06e" fill-opacity="0.95" /><ellipse cx="-31.83" cy="0.00" rx="20.46" ry="31.83" fill="#d6b06e" fill-opacity="0.95" /><ellipse cx="-22.50" cy="-22.50" rx="20.46" ry="31.83" fill="#d6b06e" fill-opacity="0.95" /><ellipse cx="-0.00" cy="-31.83" rx="20.46" ry="31.83" fill="#d6b06e" fill-opacity="0.95" /><ellipse cx="22.50" cy="-22.50" rx="20.46" ry="31.83" fill="#d6b06e" fill-opacity="0.95" />
        <circle cx="0" cy="0" r="20.46" fill="#d89263" />
        <circle cx="0" cy="0" r="10.23" fill="#fff7f0" fill-opacity="0.72" />
      </g>
    </g>
    
  </g>
  <path d="M0 980 C220 920, 420 1030, 900 930 L900 1100 L0 1100 Z" fill="#ffffff" fill-opacity="0.22" />
</svg>
