<svg xmlns="http://www.w3.org/2000/svg" width="900" height="1100" viewBox="0 0 900 1100">
  <defs>
    <linearGradient id="bg" x1="0" y1="0" x2="0" y2="1">
      <stop offset="0%" stop-color="#f5f8ef" />
      <stop offset="100%" stop-color="#eef3eb" />
    </linearGradient>
    <filter id="shadow" x="-20%" y="-20%" width="140%" height="140%">
      <feDropShadow dx="0" dy="22" stdDeviation="24" flood-color="#6c5d4f" flood-opacity="0.12" />
    </filter>
  </defs>
  <rect width="100%" height="100%" fill="url(#bg)" />
  <circle cx="730" cy="180" r="140" fill="#ffffff" fill-opacity="0.18" />
  <circle cx="150" cy="260" r="90" fill="#ffffff" fill-opacity="0.12" />
  
      <rect x="70" y="72" width="300" height="92" rx="24" fill="#ffffff" fill-opacity="0.34" />
      <text x="98" y="120" fill="#2f3a31" font-size="32" font-family="'PingFang SC','Microsoft YaHei',sans-serif" font-weight="600">谷雨花声</text>
      <text x="98" y="152" fill="#4e6152" font-size="18" font-family="'PingFang SC','Microsoft YaHei',sans-serif">节令花束 · 居家</text>
    
  <g filter="url(#shadow)">
    <path d="M250 780 L650 780 L730 1080 L170 1080 Z" fill="#ece2d6" fill-opacity="0.88" />
  </g>
  <g>
    
    <g transform="translate(505.94 450.78) rotate(-6.63)">
      <path d="M 0 0 C -8 95.29, 10 158.82, -6 232.93" stroke="#7f9d76" stroke-width="12.71" fill="none" stroke-linecap="round" />
      <ellipse cx="-20" cy="116.46" rx="23.29" ry="44.47" fill="#7f9d76" fill-opacity="0.75" transform="rotate(-24)" />
      <ellipse cx="28" cy="143.99" rx="21.18" ry="40.23" fill="#7f9d76" fill-opacity="0.66" transform="rotate(20)" />
      <g transform="translate(0 0)">
        <ellipse cx="29.65" cy="0.00" rx="19.06" ry="29.65" fill="#f4d77e" fill-opacity="0.95" /><ellipse cx="20.96" cy="20.96" rx="19.06" ry="29.65" fill="#f4d77e" fill-opacity="0.95" /><ellipse cx="0.00" cy="29.65" rx="19.06" ry="29.65" fill="#f4d77e" fill-opacity="0.95" /><ellipse cx="-20.96" cy="20.96" rx="19.06" ry="29.65" fill="#f4d77e" fill-opacity="0.95" /><ellipse cx="-29.65" cy="0.00" rx="19.06" ry="29.65" fill="#f4d77e" fill-opacity="0.95" /><ellipse cx="-20.96" cy="-20.96" rx="19.06" ry="29.65" fill="#f4d77e" fill-opacity="0.95" /><ellipse cx="-0.00" cy="-29.65" rx="19.06" ry="29.65" fill="#f4d77e" fill-opacity="0.95" /><ellipse cx="20.96" cy="-20.96" rx="19.06" ry="29.65" fill="#f4d77e" fill-opacity="0.95" />
        <circle cx="0" cy="0" r="19.06" fill="#d89263" />
        <circle cx="0" cy="0" r="9.53" fill="#fff7f0" fill-opacity="0.72" />
      </g>
    </g>
    
    <g transform="translate(446.52 370.20) rotate(4.73)">
      <path d="M 0 0 C -8 85.24, 10 142.07, -6 208.38" stroke="#62855f" stroke-width="11.37" fill="none" stroke-linecap="round" />
      <ellipse cx="-20" cy="104.19" rx="20.84" ry="39.78" fill="#62855f" fill-opacity="0.75" transform="rotate(-24)" />
      <ellipse cx="28" cy="128.81" rx="18.94" ry="35.99" fill="#62855f" fill-opacity="0.66" transform="rotate(20)" />
      <g transform="translate(0 0)">
        <ellipse cx="26.52" cy="0.00" rx="17.05" ry="26.52" fill="#d6b06e" fill-opacity="0.95" /><ellipse cx="18.75" cy="18.75" rx="17.05" ry="26.52" fill="#d6b06e" fill-opacity="0.95" /><ellipse cx="0.00" cy="26.52" rx="17.05" ry="26.52" fill="#d6b06e" fill-opacity="0.95" /><ellipse cx="-18.75" cy="18.75" rx="17.05" ry="26.52" fill="#d6b06e" fill-opacity="0.95" /><ellipse cx="-26.52" cy="0.00" rx="17.05" ry="26.52" fill="#d6b06e" fill-opacity="0.95" /><ellipse cx="-18.75" cy="-18.75" rx="17.05" ry="26.52" fill="#d6b06e" fill-opacity="0.95" /><ellipse cx="-0.00" cy="-26.52" rx="17.05" ry="26.52" fill="#d6b06e" fill-opacity="0.95" /><ellipse cx="18.75" cy="-18.75" rx="17.05" ry="26.52" fill="#d6b06e" fill-opacity="0.95" />
        <circle cx="0" cy="0" r="17.05" fill="#d89263" />
        <circle cx="0" cy="0" r="8.52" fill="#fff7f0" fill-opacity="0.72" />
      </g>
    </g>
    
    <g transform="translate(403.22 291.52) rotate(13.24)">
      <path d="M 0 0 C -8 109.17, 10 181.95, -6 266.86" stroke="#a4bc95" stroke-width="14.56" fill="none" stroke-linecap="round" />
      <ellipse cx="-20" cy="133.43" rx="26.69" ry="50.95" fill="#a4bc95" fill-opacity="0.75" transform="rotate(-24)" />
      <ellipse cx="28" cy="164.97" rx="24.26" ry="46.09" fill="#a4bc95" fill-opacity="0.66" transform="rotate(20)" />
      <g transform="translate(0 0)">
        <ellipse cx="33.96" cy="0.00" rx="21.83" ry="33.96" fill="#bcd9d1" fill-opacity="0.95" /><ellipse cx="24.02" cy="24.02" rx="21.83" ry="33.96" fill="#bcd9d1" fill-opacity="0.95" /><ellipse cx="0.00" cy="33.96" rx="21.83" ry="33.96" fill="#bcd9d1" fill-opacity="0.95" /><ellipse cx="-24.02" cy="24.02" rx="21.83" ry="33.96" fill="#bcd9d1" fill-opacity="0.95" /><ellipse cx="-33.96" cy="0.00" rx="21.83" ry="33.96" fill="#bcd9d1" fill-opacity="0.95" /><ellipse cx="-24.02" cy="-24.02" rx="21.83" ry="33.96" fill="#bcd9d1" fill-opacity="0.95" /><ellipse cx="-0.00" cy="-33.96" rx="21.83" ry="33.96" fill="#bcd9d1" fill-opacity="0.95" /><ellipse cx="24.02" cy="-24.02" rx="21.83" ry="33.96" fill="#bcd9d1" fill-opacity="0.95" />
        <circle cx="0" cy="0" r="21.83" fill="#d89263" />
        <circle cx="0" cy="0" r="10.92" fill="#fff7f0" fill-opacity="0.72" />
      </g>
    </g>
    
    <g transform="translate(628.00 526.94) rotate(-12.82)">
      <path d="M 0 0 C -8 90.68, 10 151.13, -6 221.66" stroke="#7f9d76" stroke-width="12.09" fill="none" stroke-linecap="round" />
      <ellipse cx="-20" cy="110.83" rx="22.17" ry="42.32" fill="#7f9d76" fill-opacity="0.75" transform="rotate(-24)" />
      <ellipse cx="28" cy="137.03" rx="20.15" ry="38.29" fill="#7f9d76" fill-opacity="0.66" transform="rotate(20)" />
      <g transform="translate(0 0)">
        <ellipse cx="28.21" cy="0.00" rx="18.14" ry="28.21" fill="#c47b56" fill-opacity="0.95" /><ellipse cx="19.95" cy="19.95" rx="18.14" ry="28.21" fill="#c47b56" fill-opacity="0.95" /><ellipse cx="0.00" cy="28.21" rx="18.14" ry="28.21" fill="#c47b56" fill-opacity="0.95" /><ellipse cx="-19.95" cy="19.95" rx="18.14" ry="28.21" fill="#c47b56" fill-opacity="0.95" /><ellipse cx="-28.21" cy="0.00" rx="18.14" ry="28.21" fill="#c47b56" fill-opacity="0.95" /><ellipse cx="-19.95" cy="-19.95" rx="18.14" ry="28.21" fill="#c47b56" fill-opacity="0.95" /><ellipse cx="-0.00" cy="-28.21" rx="18.14" ry="28.21" fill="#c47b56" fill-opacity="0.95" /><ellipse cx="19.95" cy="-19.95" rx="18.14" ry="28.21" fill="#c47b56" fill-opacity="0.95" />
        <circle cx="0" cy="0" r="18.14" fill="#d89263" />
        <circle cx="0" cy="0" r="9.07" fill="#fff7f0" fill-opacity="0.72" />
      </g>
    </g>
    
    <g transform="translate(601.82 537.70) rotate(6.10)">
      <path d="M 0 0 C -8 108.67, 10 181.11, -6 265.63" stroke="#62855f" stroke-width="14.49" fill="none" stroke-linecap="round" />
      <ellipse cx="-20" cy="132.82" rx="26.56" ry="50.71" fill="#62855f" fill-opacity="0.75" transform="rotate(-24)" />
      <ellipse cx="28" cy="164.21" rx="24.15" ry="45.88" fill="#62855f" fill-opacity="0.66" transform="rotate(20)" />
      <g transform="translate(0 0)">
        <ellipse cx="33.81" cy="0.00" rx="21.73" ry="33.81" fill="#f4d77e" fill-opacity="0.95" /><ellipse cx="23.91" cy="23.91" rx="21.73" ry="33.81" fill="#f4d77e" fill-opacity="0.95" /><ellipse cx="0.00" cy="33.81" rx="21.73" ry="33.81" fill="#f4d77e" fill-opacity="0.95" /><ellipse cx="-23.91" cy="23.91" rx="21.73" ry="33.81" fill="#f4d77e" fill-opacity="0.95" /><ellipse cx="-33.81" cy="0.00" rx="21.73" ry="33.81" fill="#f4d77e" fill-opacity="0.95" /><ellipse cx="-23.91" cy="-23.91" rx="21.73" ry="33.81" fill="#f4d77e" fill-opacity="0.95" /><ellipse cx="-0.00" cy="-33.81" rx="21.73" ry="33.81" fill="#f4d77e" fill-opacity="0.95" /><ellipse cx="23.91" cy="-23.91" rx="21.73" ry="33.81" fill="#f4d77e" fill-opacity="0.95" />
        <circle cx="0" cy="0" r="21.73" fill="#d89263" />
        <circle cx="0" cy="0" r="10.87" fill="#fff7f0" fill-opacity="0.72" />
      </g>
    </g>
    
    <g transform="translate(503.62 412.26) rotate(-1.62)">
      <path d="M 0 0 C -8 98.72, 10 164.54, -6 241.33" stroke="#a4bc95" stroke-width="13.16" fill="none" stroke-linecap="round" />
      <ellipse cx="-20" cy="120.66" rx="24.13" ry="46.07" fill="#a4bc95" fill-opacity="0.75" transform="rotate(-24)" />
      <ellipse cx="28" cy="149.18" rx="21.94" ry="41.68" fill="#a4bc95" fill-opacity="0.66" transform="rotate(20)" />
      <g transform="translate(0 0)">
        <ellipse cx="30.71" cy="0.00" rx="19.74" ry="30.71" fill="#d6b06e" fill-opacity="0.95" /><ellipse cx="21.72" cy="21.72" rx="19.74" ry="30.71" fill="#d6b06e" fill-opacity="0.95" /><ellipse cx="0.00" cy="30.71" rx="19.74" ry="30.71" fill="#d6b06e" fill-opacity="0.95" /><ellipse cx="-21.72" cy="21.72" rx="19.74" ry="30.71" fill="#d6b06e" fill-opacity="0.95" /><ellipse cx="-30.71" cy="0.00" rx="19.74" ry="30.71" fill="#d6b06e" fill-opacity="0.95" /><ellipse cx="-21.72" cy="-21.72" rx="19.74" ry="30.71" fill="#d6b06e" fill-opacity="0.95" /><ellipse cx="-0.00" cy="-30.71" rx="19.74" ry="30.71" fill="#d6b06e" fill-opacity="0.95" /><ellipse cx="21.72" cy="-21.72" rx="19.74" ry="30.71" fill="#d6b06e" fill-opacity="0.95" />
        <circle cx="0" cy="0" r="19.74" fill="#d89263" />
        <circle cx="0" cy="0" r="9.87" fill="#fff7f0" fill-opacity="0.72" />
      </g>
    </g>
    
  </g>
  <path d="M0 980 C220 920, 420 1030, 900 930 L900 1100 L0 1100 Z" fill="#ffffff" fill-opacity="0.22" />
</svg>
