<svg xmlns="http://www.w3.org/2000/svg" width="900" height="1100" viewBox="0 0 900 1100">
  <defs>
    <linearGradient id="bg" x1="0" y1="0" x2="0" y2="1">
      <stop offset="0%" stop-color="#f5f8ef" />
      <stop offset="100%" stop-color="#eef3eb" />
    </linearGradient>
    <filter id="shadow" x="-20%" y="-20%" width="140%" height="140%">
      <feDropShadow dx="0" dy="22" stdDeviation="24" flood-color="#6c5d4f" flood-opacity="0.12" />
    </filter>
  </defs>
  <rect width="100%" height="100%" fill="url(#bg)" />
  <circle cx="730" cy="180" r="140" fill="#ffffff" fill-opacity="0.18" />
  <circle cx="150" cy="260" r="90" fill="#ffffff" fill-opacity="0.12" />
  
      <rect x="70" y="72" width="300" height="92" rx="24" fill="#ffffff" fill-opacity="0.34" />
      <text x="98" y="120" fill="#2f3a31" font-size="32" font-family="'PingFang SC','Microsoft YaHei',sans-serif" font-weight="600">立秋柔枝</text>
      <text x="98" y="152" fill="#4e6152" font-size="18" font-family="'PingFang SC','Microsoft YaHei',sans-serif">节气 · 春日</text>
    
  <g filter="url(#shadow)">
    <path d="M250 780 L650 780 L730 1080 L170 1080 Z" fill="#ece2d6" fill-opacity="0.88" />
  </g>
  <g>
    
    <g transform="translate(227.23 526.29) rotate(0.24)">
      <path d="M 0 0 C -8 108.67, 10 181.11, -6 265.63" stroke="#7f9d76" stroke-width="14.49" fill="none" stroke-linecap="round" />
      <ellipse cx="-20" cy="132.81" rx="26.56" ry="50.71" fill="#7f9d76" fill-opacity="0.75" transform="rotate(-24)" />
      <ellipse cx="28" cy="164.21" rx="24.15" ry="45.88" fill="#7f9d76" fill-opacity="0.66" transform="rotate(20)" />
      <g transform="translate(0 0)">
        <ellipse cx="33.81" cy="0.00" rx="21.73" ry="33.81" fill="#f4d77e" fill-opacity="0.95" /><ellipse cx="23.91" cy="23.91" rx="21.73" ry="33.81" fill="#f4d77e" fill-opacity="0.95" /><ellipse cx="0.00" cy="33.81" rx="21.73" ry="33.81" fill="#f4d77e" fill-opacity="0.95" /><ellipse cx="-23.91" cy="23.91" rx="21.73" ry="33.81" fill="#f4d77e" fill-opacity="0.95" /><ellipse cx="-33.81" cy="0.00" rx="21.73" ry="33.81" fill="#f4d77e" fill-opacity="0.95" /><ellipse cx="-23.91" cy="-23.91" rx="21.73" ry="33.81" fill="#f4d77e" fill-opacity="0.95" /><ellipse cx="-0.00" cy="-33.81" rx="21.73" ry="33.81" fill="#f4d77e" fill-opacity="0.95" /><ellipse cx="23.91" cy="-23.91" rx="21.73" ry="33.81" fill="#f4d77e" fill-opacity="0.95" />
        <circle cx="0" cy="0" r="21.73" fill="#d89263" />
        <circle cx="0" cy="0" r="10.87" fill="#fff7f0" fill-opacity="0.72" />
      </g>
    </g>
    
    <g transform="translate(418.60 550.20) rotate(-13.65)">
      <path d="M 0 0 C -8 72.45, 10 120.75, -6 177.10" stroke="#62855f" stroke-width="9.66" fill="none" stroke-linecap="round" />
      <ellipse cx="-20" cy="88.55" rx="17.71" ry="33.81" fill="#62855f" fill-opacity="0.75" transform="rotate(-24)" />
      <ellipse cx="28" cy="109.48" rx="16.10" ry="30.59" fill="#62855f" fill-opacity="0.66" transform="rotate(20)" />
      <g transform="translate(0 0)">
        <ellipse cx="22.54" cy="0.00" rx="14.49" ry="22.54" fill="#d6b06e" fill-opacity="0.95" /><ellipse cx="15.94" cy="15.94" rx="14.49" ry="22.54" fill="#d6b06e" fill-opacity="0.95" /><ellipse cx="0.00" cy="22.54" rx="14.49" ry="22.54" fill="#d6b06e" fill-opacity="0.95" /><ellipse cx="-15.94" cy="15.94" rx="14.49" ry="22.54" fill="#d6b06e" fill-opacity="0.95" /><ellipse cx="-22.54" cy="0.00" rx="14.49" ry="22.54" fill="#d6b06e" fill-opacity="0.95" /><ellipse cx="-15.94" cy="-15.94" rx="14.49" ry="22.54" fill="#d6b06e" fill-opacity="0.95" /><ellipse cx="-0.00" cy="-22.54" rx="14.49" ry="22.54" fill="#d6b06e" fill-opacity="0.95" /><ellipse cx="15.94" cy="-15.94" rx="14.49" ry="22.54" fill="#d6b06e" fill-opacity="0.95" />
        <circle cx="0" cy="0" r="14.49" fill="#d89263" />
        <circle cx="0" cy="0" r="7.24" fill="#fff7f0" fill-opacity="0.72" />
      </g>
    </g>
    
    <g transform="translate(351.26 537.74) rotate(-7.50)">
      <path d="M 0 0 C -8 90.82, 10 151.37, -6 222.01" stroke="#a4bc95" stroke-width="12.11" fill="none" stroke-linecap="round" />
      <ellipse cx="-20" cy="111.01" rx="22.20" ry="42.38" fill="#a4bc95" fill-opacity="0.75" transform="rotate(-24)" />
      <ellipse cx="28" cy="137.24" rx="20.18" ry="38.35" fill="#a4bc95" fill-opacity="0.66" transform="rotate(20)" />
      <g transform="translate(0 0)">
        <ellipse cx="28.26" cy="0.00" rx="18.16" ry="28.26" fill="#bcd9d1" fill-opacity="0.95" /><ellipse cx="19.98" cy="19.98" rx="18.16" ry="28.26" fill="#bcd9d1" fill-opacity="0.95" /><ellipse cx="0.00" cy="28.26" rx="18.16" ry="28.26" fill="#bcd9d1" fill-opacity="0.95" /><ellipse cx="-19.98" cy="19.98" rx="18.16" ry="28.26" fill="#bcd9d1" fill-opacity="0.95" /><ellipse cx="-28.26" cy="0.00" rx="18.16" ry="28.26" fill="#bcd9d1" fill-opacity="0.95" /><ellipse cx="-19.98" cy="-19.98" rx="18.16" ry="28.26" fill="#bcd9d1" fill-opacity="0.95" /><ellipse cx="-0.00" cy="-28.26" rx="18.16" ry="28.26" fill="#bcd9d1" fill-opacity="0.95" /><ellipse cx="19.98" cy="-19.98" rx="18.16" ry="28.26" fill="#bcd9d1" fill-opacity="0.95" />
        <circle cx="0" cy="0" r="18.16" fill="#d89263" />
        <circle cx="0" cy="0" r="9.08" fill="#fff7f0" fill-opacity="0.72" />
      </g>
    </g>
    
    <g transform="translate(220.49 311.07) rotate(23.73)">
      <path d="M 0 0 C -8 79.12, 10 131.87, -6 193.40" stroke="#7f9d76" stroke-width="10.55" fill="none" stroke-linecap="round" />
      <ellipse cx="-20" cy="96.70" rx="19.34" ry="36.92" fill="#7f9d76" fill-opacity="0.75" transform="rotate(-24)" />
      <ellipse cx="28" cy="119.56" rx="17.58" ry="33.41" fill="#7f9d76" fill-opacity="0.66" transform="rotate(20)" />
      <g transform="translate(0 0)">
        <ellipse cx="24.61" cy="0.00" rx="15.82" ry="24.61" fill="#c47b56" fill-opacity="0.95" /><ellipse cx="17.41" cy="17.41" rx="15.82" ry="24.61" fill="#c47b56" fill-opacity="0.95" /><ellipse cx="0.00" cy="24.61" rx="15.82" ry="24.61" fill="#c47b56" fill-opacity="0.95" /><ellipse cx="-17.41" cy="17.41" rx="15.82" ry="24.61" fill="#c47b56" fill-opacity="0.95" /><ellipse cx="-24.61" cy="0.00" rx="15.82" ry="24.61" fill="#c47b56" fill-opacity="0.95" /><ellipse cx="-17.41" cy="-17.41" rx="15.82" ry="24.61" fill="#c47b56" fill-opacity="0.95" /><ellipse cx="-0.00" cy="-24.61" rx="15.82" ry="24.61" fill="#c47b56" fill-opacity="0.95" /><ellipse cx="17.41" cy="-17.41" rx="15.82" ry="24.61" fill="#c47b56" fill-opacity="0.95" />
        <circle cx="0" cy="0" r="15.82" fill="#d89263" />
        <circle cx="0" cy="0" r="7.91" fill="#fff7f0" fill-opacity="0.72" />
      </g>
    </g>
    
    <g transform="translate(577.30 397.90) rotate(17.32)">
      <path d="M 0 0 C -8 91.16, 10 151.93, -6 222.83" stroke="#62855f" stroke-width="12.15" fill="none" stroke-linecap="round" />
      <ellipse cx="-20" cy="111.41" rx="22.28" ry="42.54" fill="#62855f" fill-opacity="0.75" transform="rotate(-24)" />
      <ellipse cx="28" cy="137.75" rx="20.26" ry="38.49" fill="#62855f" fill-opacity="0.66" transform="rotate(20)" />
      <g transform="translate(0 0)">
        <ellipse cx="28.36" cy="0.00" rx="18.23" ry="28.36" fill="#f4d77e" fill-opacity="0.95" /><ellipse cx="20.05" cy="20.05" rx="18.23" ry="28.36" fill="#f4d77e" fill-opacity="0.95" /><ellipse cx="0.00" cy="28.36" rx="18.23" ry="28.36" fill="#f4d77e" fill-opacity="0.95" /><ellipse cx="-20.05" cy="20.05" rx="18.23" ry="28.36" fill="#f4d77e" fill-opacity="0.95" /><ellipse cx="-28.36" cy="0.00" rx="18.23" ry="28.36" fill="#f4d77e" fill-opacity="0.95" /><ellipse cx="-20.05" cy="-20.05" rx="18.23" ry="28.36" fill="#f4d77e" fill-opacity="0.95" /><ellipse cx="-0.00" cy="-28.36" rx="18.23" ry="28.36" fill="#f4d77e" fill-opacity="0.95" /><ellipse cx="20.05" cy="-20.05" rx="18.23" ry="28.36" fill="#f4d77e" fill-opacity="0.95" />
        <circle cx="0" cy="0" r="18.23" fill="#d89263" />
        <circle cx="0" cy="0" r="9.12" fill="#fff7f0" fill-opacity="0.72" />
      </g>
    </g>
    
    <g transform="translate(667.39 334.02) rotate(21.33)">
      <path d="M 0 0 C -8 110.92, 10 184.86, -6 271.13" stroke="#a4bc95" stroke-width="14.79" fill="none" stroke-linecap="round" />
      <ellipse cx="-20" cy="135.56" rx="27.11" ry="51.76" fill="#a4bc95" fill-opacity="0.75" transform="rotate(-24)" />
      <ellipse cx="28" cy="167.61" rx="24.65" ry="46.83" fill="#a4bc95" fill-opacity="0.66" transform="rotate(20)" />
      <g transform="translate(0 0)">
        <ellipse cx="34.51" cy="0.00" rx="22.18" ry="34.51" fill="#d6b06e" fill-opacity="0.95" /><ellipse cx="24.40" cy="24.40" rx="22.18" ry="34.51" fill="#d6b06e" fill-opacity="0.95" /><ellipse cx="0.00" cy="34.51" rx="22.18" ry="34.51" fill="#d6b06e" fill-opacity="0.95" /><ellipse cx="-24.40" cy="24.40" rx="22.18" ry="34.51" fill="#d6b06e" fill-opacity="0.95" /><ellipse cx="-34.51" cy="0.00" rx="22.18" ry="34.51" fill="#d6b06e" fill-opacity="0.95" /><ellipse cx="-24.40" cy="-24.40" rx="22.18" ry="34.51" fill="#d6b06e" fill-opacity="0.95" /><ellipse cx="-0.00" cy="-34.51" rx="22.18" ry="34.51" fill="#d6b06e" fill-opacity="0.95" /><ellipse cx="24.40" cy="-24.40" rx="22.18" ry="34.51" fill="#d6b06e" fill-opacity="0.95" />
        <circle cx="0" cy="0" r="22.18" fill="#d89263" />
        <circle cx="0" cy="0" r="11.09" fill="#fff7f0" fill-opacity="0.72" />
      </g>
    </g>
    
  </g>
  <path d="M0 980 C220 920, 420 1030, 900 930 L900 1100 L0 1100 Z" fill="#ffffff" fill-opacity="0.22" />
</svg>
