<svg xmlns="http://www.w3.org/2000/svg" width="900" height="1100" viewBox="0 0 900 1100">
  <defs>
    <linearGradient id="bg" x1="0" y1="0" x2="0" y2="1">
      <stop offset="0%" stop-color="#f5f8ef" />
      <stop offset="100%" stop-color="#eef3eb" />
    </linearGradient>
    <filter id="shadow" x="-20%" y="-20%" width="140%" height="140%">
      <feDropShadow dx="0" dy="22" stdDeviation="24" flood-color="#6c5d4f" flood-opacity="0.12" />
    </filter>
  </defs>
  <rect width="100%" height="100%" fill="url(#bg)" />
  <circle cx="730" cy="180" r="140" fill="#ffffff" fill-opacity="0.18" />
  <circle cx="150" cy="260" r="90" fill="#ffffff" fill-opacity="0.12" />
  
      <rect x="70" y="72" width="300" height="92" rx="24" fill="#ffffff" fill-opacity="0.34" />
      <text x="98" y="120" fill="#2f3a31" font-size="32" font-family="'PingFang SC','Microsoft YaHei',sans-serif" font-weight="600">清明晨露</text>
      <text x="98" y="152" fill="#4e6152" font-size="18" font-family="'PingFang SC','Microsoft YaHei',sans-serif">节令花束 · 居家</text>
    
  <g filter="url(#shadow)">
    <path d="M250 780 L650 780 L730 1080 L170 1080 Z" fill="#ece2d6" fill-opacity="0.88" />
  </g>
  <g>
    
    <g transform="translate(347.52 378.12) rotate(21.19)">
      <path d="M 0 0 C -8 92.97, 10 154.95, -6 227.27" stroke="#7f9d76" stroke-width="12.40" fill="none" stroke-linecap="round" />
      <ellipse cx="-20" cy="113.63" rx="22.73" ry="43.39" fill="#7f9d76" fill-opacity="0.75" transform="rotate(-24)" />
      <ellipse cx="28" cy="140.49" rx="20.66" ry="39.25" fill="#7f9d76" fill-opacity="0.66" transform="rotate(20)" />
      <g transform="translate(0 0)">
        <ellipse cx="28.92" cy="0.00" rx="18.59" ry="28.92" fill="#f4d77e" fill-opacity="0.95" /><ellipse cx="20.45" cy="20.45" rx="18.59" ry="28.92" fill="#f4d77e" fill-opacity="0.95" /><ellipse cx="0.00" cy="28.92" rx="18.59" ry="28.92" fill="#f4d77e" fill-opacity="0.95" /><ellipse cx="-20.45" cy="20.45" rx="18.59" ry="28.92" fill="#f4d77e" fill-opacity="0.95" /><ellipse cx="-28.92" cy="0.00" rx="18.59" ry="28.92" fill="#f4d77e" fill-opacity="0.95" /><ellipse cx="-20.45" cy="-20.45" rx="18.59" ry="28.92" fill="#f4d77e" fill-opacity="0.95" /><ellipse cx="-0.00" cy="-28.92" rx="18.59" ry="28.92" fill="#f4d77e" fill-opacity="0.95" /><ellipse cx="20.45" cy="-20.45" rx="18.59" ry="28.92" fill="#f4d77e" fill-opacity="0.95" />
        <circle cx="0" cy="0" r="18.59" fill="#d89263" />
        <circle cx="0" cy="0" r="9.30" fill="#fff7f0" fill-opacity="0.72" />
      </g>
    </g>
    
    <g transform="translate(572.33 444.07) rotate(8.81)">
      <path d="M 0 0 C -8 108.34, 10 180.56, -6 264.82" stroke="#62855f" stroke-width="14.44" fill="none" stroke-linecap="round" />
      <ellipse cx="-20" cy="132.41" rx="26.48" ry="50.56" fill="#62855f" fill-opacity="0.75" transform="rotate(-24)" />
      <ellipse cx="28" cy="163.71" rx="24.07" ry="45.74" fill="#62855f" fill-opacity="0.66" transform="rotate(20)" />
      <g transform="translate(0 0)">
        <ellipse cx="33.70" cy="0.00" rx="21.67" ry="33.70" fill="#d6b06e" fill-opacity="0.95" /><ellipse cx="23.83" cy="23.83" rx="21.67" ry="33.70" fill="#d6b06e" fill-opacity="0.95" /><ellipse cx="0.00" cy="33.70" rx="21.67" ry="33.70" fill="#d6b06e" fill-opacity="0.95" /><ellipse cx="-23.83" cy="23.83" rx="21.67" ry="33.70" fill="#d6b06e" fill-opacity="0.95" /><ellipse cx="-33.70" cy="0.00" rx="21.67" ry="33.70" fill="#d6b06e" fill-opacity="0.95" /><ellipse cx="-23.83" cy="-23.83" rx="21.67" ry="33.70" fill="#d6b06e" fill-opacity="0.95" /><ellipse cx="-0.00" cy="-33.70" rx="21.67" ry="33.70" fill="#d6b06e" fill-opacity="0.95" /><ellipse cx="23.83" cy="-23.83" rx="21.67" ry="33.70" fill="#d6b06e" fill-opacity="0.95" />
        <circle cx="0" cy="0" r="21.67" fill="#d89263" />
        <circle cx="0" cy="0" r="10.83" fill="#fff7f0" fill-opacity="0.72" />
      </g>
    </g>
    
    <g transform="translate(254.03 290.72) rotate(19.27)">
      <path d="M 0 0 C -8 77.17, 10 128.61, -6 188.63" stroke="#a4bc95" stroke-width="10.29" fill="none" stroke-linecap="round" />
      <ellipse cx="-20" cy="94.31" rx="18.86" ry="36.01" fill="#a4bc95" fill-opacity="0.75" transform="rotate(-24)" />
      <ellipse cx="28" cy="116.61" rx="17.15" ry="32.58" fill="#a4bc95" fill-opacity="0.66" transform="rotate(20)" />
      <g transform="translate(0 0)">
        <ellipse cx="24.01" cy="0.00" rx="15.43" ry="24.01" fill="#bcd9d1" fill-opacity="0.95" /><ellipse cx="16.98" cy="16.98" rx="15.43" ry="24.01" fill="#bcd9d1" fill-opacity="0.95" /><ellipse cx="0.00" cy="24.01" rx="15.43" ry="24.01" fill="#bcd9d1" fill-opacity="0.95" /><ellipse cx="-16.98" cy="16.98" rx="15.43" ry="24.01" fill="#bcd9d1" fill-opacity="0.95" /><ellipse cx="-24.01" cy="0.00" rx="15.43" ry="24.01" fill="#bcd9d1" fill-opacity="0.95" /><ellipse cx="-16.98" cy="-16.98" rx="15.43" ry="24.01" fill="#bcd9d1" fill-opacity="0.95" /><ellipse cx="-0.00" cy="-24.01" rx="15.43" ry="24.01" fill="#bcd9d1" fill-opacity="0.95" /><ellipse cx="16.98" cy="-16.98" rx="15.43" ry="24.01" fill="#bcd9d1" fill-opacity="0.95" />
        <circle cx="0" cy="0" r="15.43" fill="#d89263" />
        <circle cx="0" cy="0" r="7.72" fill="#fff7f0" fill-opacity="0.72" />
      </g>
    </g>
    
    <g transform="translate(202.81 327.38) rotate(-14.73)">
      <path d="M 0 0 C -8 88.05, 10 146.75, -6 215.23" stroke="#7f9d76" stroke-width="11.74" fill="none" stroke-linecap="round" />
      <ellipse cx="-20" cy="107.62" rx="21.52" ry="41.09" fill="#7f9d76" fill-opacity="0.75" transform="rotate(-24)" />
      <ellipse cx="28" cy="133.05" rx="19.57" ry="37.18" fill="#7f9d76" fill-opacity="0.66" transform="rotate(20)" />
      <g transform="translate(0 0)">
        <ellipse cx="27.39" cy="0.00" rx="17.61" ry="27.39" fill="#c47b56" fill-opacity="0.95" /><ellipse cx="19.37" cy="19.37" rx="17.61" ry="27.39" fill="#c47b56" fill-opacity="0.95" /><ellipse cx="0.00" cy="27.39" rx="17.61" ry="27.39" fill="#c47b56" fill-opacity="0.95" /><ellipse cx="-19.37" cy="19.37" rx="17.61" ry="27.39" fill="#c47b56" fill-opacity="0.95" /><ellipse cx="-27.39" cy="0.00" rx="17.61" ry="27.39" fill="#c47b56" fill-opacity="0.95" /><ellipse cx="-19.37" cy="-19.37" rx="17.61" ry="27.39" fill="#c47b56" fill-opacity="0.95" /><ellipse cx="-0.00" cy="-27.39" rx="17.61" ry="27.39" fill="#c47b56" fill-opacity="0.95" /><ellipse cx="19.37" cy="-19.37" rx="17.61" ry="27.39" fill="#c47b56" fill-opacity="0.95" />
        <circle cx="0" cy="0" r="17.61" fill="#d89263" />
        <circle cx="0" cy="0" r="8.81" fill="#fff7f0" fill-opacity="0.72" />
      </g>
    </g>
    
    <g transform="translate(426.77 393.09) rotate(-24.18)">
      <path d="M 0 0 C -8 98.19, 10 163.65, -6 240.03" stroke="#62855f" stroke-width="13.09" fill="none" stroke-linecap="round" />
      <ellipse cx="-20" cy="120.01" rx="24.00" ry="45.82" fill="#62855f" fill-opacity="0.75" transform="rotate(-24)" />
      <ellipse cx="28" cy="148.38" rx="21.82" ry="41.46" fill="#62855f" fill-opacity="0.66" transform="rotate(20)" />
      <g transform="translate(0 0)">
        <ellipse cx="30.55" cy="0.00" rx="19.64" ry="30.55" fill="#f4d77e" fill-opacity="0.95" /><ellipse cx="21.60" cy="21.60" rx="19.64" ry="30.55" fill="#f4d77e" fill-opacity="0.95" /><ellipse cx="0.00" cy="30.55" rx="19.64" ry="30.55" fill="#f4d77e" fill-opacity="0.95" /><ellipse cx="-21.60" cy="21.60" rx="19.64" ry="30.55" fill="#f4d77e" fill-opacity="0.95" /><ellipse cx="-30.55" cy="0.00" rx="19.64" ry="30.55" fill="#f4d77e" fill-opacity="0.95" /><ellipse cx="-21.60" cy="-21.60" rx="19.64" ry="30.55" fill="#f4d77e" fill-opacity="0.95" /><ellipse cx="-0.00" cy="-30.55" rx="19.64" ry="30.55" fill="#f4d77e" fill-opacity="0.95" /><ellipse cx="21.60" cy="-21.60" rx="19.64" ry="30.55" fill="#f4d77e" fill-opacity="0.95" />
        <circle cx="0" cy="0" r="19.64" fill="#d89263" />
        <circle cx="0" cy="0" r="9.82" fill="#fff7f0" fill-opacity="0.72" />
      </g>
    </g>
    
    <g transform="translate(309.15 446.53) rotate(1.28)">
      <path d="M 0 0 C -8 72.26, 10 120.44, -6 176.65" stroke="#a4bc95" stroke-width="9.64" fill="none" stroke-linecap="round" />
      <ellipse cx="-20" cy="88.32" rx="17.66" ry="33.72" fill="#a4bc95" fill-opacity="0.75" transform="rotate(-24)" />
      <ellipse cx="28" cy="109.20" rx="16.06" ry="30.51" fill="#a4bc95" fill-opacity="0.66" transform="rotate(20)" />
      <g transform="translate(0 0)">
        <ellipse cx="22.48" cy="0.00" rx="14.45" ry="22.48" fill="#d6b06e" fill-opacity="0.95" /><ellipse cx="15.90" cy="15.90" rx="14.45" ry="22.48" fill="#d6b06e" fill-opacity="0.95" /><ellipse cx="0.00" cy="22.48" rx="14.45" ry="22.48" fill="#d6b06e" fill-opacity="0.95" /><ellipse cx="-15.90" cy="15.90" rx="14.45" ry="22.48" fill="#d6b06e" fill-opacity="0.95" /><ellipse cx="-22.48" cy="0.00" rx="14.45" ry="22.48" fill="#d6b06e" fill-opacity="0.95" /><ellipse cx="-15.90" cy="-15.90" rx="14.45" ry="22.48" fill="#d6b06e" fill-opacity="0.95" /><ellipse cx="-0.00" cy="-22.48" rx="14.45" ry="22.48" fill="#d6b06e" fill-opacity="0.95" /><ellipse cx="15.90" cy="-15.90" rx="14.45" ry="22.48" fill="#d6b06e" fill-opacity="0.95" />
        <circle cx="0" cy="0" r="14.45" fill="#d89263" />
        <circle cx="0" cy="0" r="7.23" fill="#fff7f0" fill-opacity="0.72" />
      </g>
    </g>
    
  </g>
  <path d="M0 980 C220 920, 420 1030, 900 930 L900 1100 L0 1100 Z" fill="#ffffff" fill-opacity="0.22" />
</svg>
